<?xml version="1.0" encoding="UTF-8" standalone="no"?>
<svg width="137px" height="132px" viewBox="0 0 137 132" version="1.1" xmlns="http://www.w3.org/2000/svg" xmlns:xlink="http://www.w3.org/1999/xlink">
    <!-- Generator: Sketch 47.1 (45422) - http://www.bohemiancoding.com/sketch -->
    <title>infograph/legend_map-antelope</title>
    <desc>Created with Sketch.</desc>
    <defs>
        <rect id="path-1" x="10" y="31" width="10" height="10"></rect>
        <rect id="path-2" x="10" y="51" width="10" height="10"></rect>
        <rect id="path-3" x="10" y="71" width="10" height="10"></rect>
        <rect id="path-4" x="10" y="91" width="10" height="10"></rect>
        <rect id="path-5" x="10" y="111" width="10" height="10"></rect>
    </defs>
    <g id="Symbols" stroke="none" stroke-width="1" fill="none" fill-rule="evenodd">
        <g id="infograph/legend_map-antelope">
            <rect id="Rectangle-2" fill-opacity="0.5" fill="#FFFFFF" x="0" y="0" width="137" height="132" rx="4"></rect>
            <path d="M31.598,31.81 C31.9780019,31.9580007 32.3559981,32.1879984 32.732,32.5 L32.06,33.196 C31.7639985,32.9559988 31.4800014,32.7840005 31.208,32.68 C30.9359986,32.5759995 30.6160018,32.524 30.248,32.524 C29.8239979,32.524 29.4340018,32.6379989 29.078,32.866 C28.7219982,33.0940011 28.4320011,33.4579975 28.208,33.958 C27.9839989,34.4580025 27.872,35.0919962 27.872,35.86 C27.872,37.0200058 28.0619981,37.8679973 28.442,38.404 C28.8220019,38.9400027 29.3839963,39.208 30.128,39.208 C30.7440031,39.208 31.2679978,39.0800013 31.7,38.824 L31.7,36.34 L30.236,36.34 L30.104,35.416 L32.828,35.416 L32.828,39.412 C32.427998,39.6520012 32.0020023,39.8339994 31.55,39.958 C31.0979977,40.0820006 30.5960028,40.144 30.044,40.144 C28.9959948,40.144 28.170003,39.7800036 27.566,39.052 C26.961997,38.3239964 26.66,37.260007 26.66,35.86 C26.66,34.9639955 26.8239984,34.1940032 27.152,33.55 C27.4800016,32.9059968 27.9159973,32.4180017 28.46,32.086 C29.0040027,31.7539983 29.5919968,31.588 30.224,31.588 C30.7600027,31.588 31.2179981,31.6619993 31.598,31.81 Z M39.104,39.094 C39.1920004,39.2180006 39.3239991,39.3119997 39.5,39.376 L39.248,40.144 C38.9199984,40.1039998 38.656001,40.0120007 38.456,39.868 C38.255999,39.7239993 38.1080005,39.5000015 38.012,39.196 C37.5879979,39.8280032 36.9600042,40.144 36.128,40.144 C35.5039969,40.144 35.0120018,39.9680018 34.652,39.616 C34.2919982,39.2639982 34.112,38.8040028 34.112,38.236 C34.112,37.5639966 34.3539976,37.0480018 34.838,36.688 C35.3220024,36.3279982 36.0079956,36.148 36.896,36.148 L37.868,36.148 L37.868,35.68 C37.868,35.2319978 37.7600011,34.912001 37.544,34.72 C37.3279989,34.527999 36.9960022,34.432 36.548,34.432 C36.0839977,34.432 35.5160034,34.5439989 34.844,34.768 L34.568,33.964 C35.3520039,33.6759986 36.0799966,33.532 36.752,33.532 C37.4960037,33.532 38.0519982,33.7139982 38.42,34.078 C38.7880018,34.4420018 38.972,34.9599966 38.972,35.632 L38.972,38.524 C38.972,38.7800013 39.0159996,38.9699994 39.104,39.094 Z M37.868,38.332 L37.868,36.88 L37.04,36.88 C35.8719942,36.88 35.288,37.3119957 35.288,38.176 C35.288,38.5520019 35.3799991,38.835999 35.564,39.028 C35.7480009,39.220001 36.0199982,39.316 36.38,39.316 C37.0120032,39.316 37.5079982,38.9880033 37.868,38.332 Z M41.648,39.076 L44.984,39.076 L44.852,40 L40.4,40 L40.4,39.172 L43.688,34.612 L40.676,34.612 L40.676,33.676 L44.948,33.676 L44.948,34.516 L41.648,39.076 Z M51.236,37.216 L47.204,37.216 C47.2520002,37.9120035 47.4279985,38.4239984 47.732,38.752 C48.0360015,39.0800016 48.4279976,39.244 48.908,39.244 C49.2120015,39.244 49.4919987,39.2000004 49.748,39.112 C50.0040013,39.0239996 50.2719986,38.884001 50.552,38.692 L51.032,39.352 C50.3599966,39.8800026 49.624004,40.144 48.824,40.144 C47.9439956,40.144 47.2580025,39.8560029 46.766,39.28 C46.2739975,38.7039971 46.028,37.912005 46.028,36.904 C46.028,36.2479967 46.1339989,35.6660025 46.346,35.158 C46.5580011,34.6499975 46.861998,34.2520014 47.258,33.964 C47.654002,33.6759986 48.1199973,33.532 48.656,33.532 C49.4960042,33.532 50.1399978,33.8079972 50.588,34.36 C51.0360022,34.9120028 51.26,35.6759951 51.26,36.652 C51.26,36.8360009 51.2520001,37.023999 51.236,37.216 Z M50.168,36.328 C50.168,35.7039969 50.0440012,35.2280016 49.796,34.9 C49.5479988,34.5719984 49.1760025,34.408 48.68,34.408 C47.7759955,34.408 47.2840004,35.0719934 47.204,36.4 L50.168,36.4 L50.168,36.328 Z M54.218,39.112 C54.2780003,39.1920004 54.3799993,39.232 54.524,39.232 C54.6760008,39.232 54.8119994,39.2080002 54.932,39.16 L55.22,39.928 C54.9239985,40.0720007 54.6120016,40.144 54.284,40.144 C53.875998,40.144 53.5640011,40.0260012 53.348,39.79 C53.1319989,39.5539988 53.024,39.2080023 53.024,38.752 L53.024,31.132 L54.128,31 L54.128,38.728 C54.128,38.9040009 54.1579997,39.0319996 54.218,39.112 Z M57.734,39.112 C57.7940003,39.1920004 57.8959993,39.232 58.04,39.232 C58.1920008,39.232 58.3279994,39.2080002 58.448,39.16 L58.736,39.928 C58.4399985,40.0720007 58.1280016,40.144 57.8,40.144 C57.391998,40.144 57.0800011,40.0260012 56.864,39.79 C56.6479989,39.5539988 56.54,39.2080023 56.54,38.752 L56.54,31.132 L57.644,31 L57.644,38.728 C57.644,38.9040009 57.6739997,39.0319996 57.734,39.112 Z M64.508,39.094 C64.5960004,39.2180006 64.7279991,39.3119997 64.904,39.376 L64.652,40.144 C64.3239984,40.1039998 64.060001,40.0120007 63.86,39.868 C63.659999,39.7239993 63.5120005,39.5000015 63.416,39.196 C62.9919979,39.8280032 62.3640042,40.144 61.532,40.144 C60.9079969,40.144 60.4160018,39.9680018 60.056,39.616 C59.6959982,39.2639982 59.516,38.8040028 59.516,38.236 C59.516,37.5639966 59.7579976,37.0480018 60.242,36.688 C60.7260024,36.3279982 61.4119956,36.148 62.3,36.148 L63.272,36.148 L63.272,35.68 C63.272,35.2319978 63.1640011,34.912001 62.948,34.72 C62.7319989,34.527999 62.4000022,34.432 61.952,34.432 C61.4879977,34.432 60.9200034,34.5439989 60.248,34.768 L59.972,33.964 C60.7560039,33.6759986 61.4839966,33.532 62.156,33.532 C62.9000037,33.532 63.4559982,33.7139982 63.824,34.078 C64.1920018,34.4420018 64.376,34.9599966 64.376,35.632 L64.376,38.524 C64.376,38.7800013 64.4199996,38.9699994 64.508,39.094 Z M63.272,38.332 L63.272,36.88 L62.444,36.88 C61.2759942,36.88 60.692,37.3119957 60.692,38.176 C60.692,38.5520019 60.7839991,38.835999 60.968,39.028 C61.1520009,39.220001 61.4239982,39.316 61.784,39.316 C62.4160032,39.316 62.9119982,38.9880033 63.272,38.332 Z M77.42,34.054 C77.7320016,34.4020017 77.888,34.871997 77.888,35.464 L77.888,40 L76.784,40 L76.784,35.62 C76.784,34.8039959 76.488003,34.396 75.896,34.396 C75.5839984,34.396 75.3200011,34.4859991 75.104,34.666 C74.8879989,34.8460009 74.6560012,35.1279981 74.408,35.512 L74.408,40 L73.304,40 L73.304,35.62 C73.304,34.8039959 73.008003,34.396 72.416,34.396 C72.0959984,34.396 71.8280011,34.4879991 71.612,34.672 C71.3959989,34.8560009 71.1680012,35.1359981 70.928,35.512 L70.928,40 L69.824,40 L69.824,33.676 L70.772,33.676 L70.868,34.6 C71.3400024,33.8879964 71.9479963,33.532 72.692,33.532 C73.084002,33.532 73.4179986,33.631999 73.694,33.832 C73.9700014,34.032001 74.1679994,34.3119982 74.288,34.672 C74.5360012,34.3039982 74.8099985,34.022001 75.11,33.826 C75.4100015,33.629999 75.763998,33.532 76.172,33.532 C76.6920026,33.532 77.1079984,33.7059983 77.42,34.054 Z M84.5,39.094 C84.5880004,39.2180006 84.7199991,39.3119997 84.896,39.376 L84.644,40.144 C84.3159984,40.1039998 84.052001,40.0120007 83.852,39.868 C83.651999,39.7239993 83.5040005,39.5000015 83.408,39.196 C82.9839979,39.8280032 82.3560042,40.144 81.524,40.144 C80.8999969,40.144 80.4080018,39.9680018 80.048,39.616 C79.6879982,39.2639982 79.508,38.8040028 79.508,38.236 C79.508,37.5639966 79.7499976,37.0480018 80.234,36.688 C80.7180024,36.3279982 81.4039956,36.148 82.292,36.148 L83.264,36.148 L83.264,35.68 C83.264,35.2319978 83.1560011,34.912001 82.94,34.72 C82.7239989,34.527999 82.3920022,34.432 81.944,34.432 C81.4799977,34.432 80.9120034,34.5439989 80.24,34.768 L79.964,33.964 C80.7480039,33.6759986 81.4759966,33.532 82.148,33.532 C82.8920037,33.532 83.4479982,33.7139982 83.816,34.078 C84.1840018,34.4420018 84.368,34.9599966 84.368,35.632 L84.368,38.524 C84.368,38.7800013 84.4119996,38.9699994 84.5,39.094 Z M83.264,38.332 L83.264,36.88 L82.436,36.88 C81.2679942,36.88 80.684,37.3119957 80.684,38.176 C80.684,38.5520019 80.7759991,38.835999 80.96,39.028 C81.1440009,39.220001 81.4159982,39.316 81.776,39.316 C82.4080032,39.316 82.9039982,38.9880033 83.264,38.332 Z M90.008,33.604 L89.804,34.684 C89.611999,34.6359998 89.4280009,34.612 89.252,34.612 C88.859998,34.612 88.5440012,34.7559986 88.304,35.044 C88.0639988,35.3320014 87.8760007,35.779997 87.74,36.388 L87.74,40 L86.636,40 L86.636,33.676 L87.584,33.676 L87.692,34.96 C87.8600008,34.4879976 88.0879986,34.1320012 88.376,33.892 C88.6640014,33.6519988 88.9999981,33.532 89.384,33.532 C89.6080011,33.532 89.815999,33.5559998 90.008,33.604 Z M91.268,40 L91.268,33.676 L92.372,33.676 L92.372,40 L91.268,40 Z M92.372,30.856 C92.5160007,31.0000007 92.588,31.1799989 92.588,31.396 C92.588,31.6120011 92.5160007,31.7899993 92.372,31.93 C92.2279993,32.0700007 92.0400012,32.14 91.808,32.14 C91.5839989,32.14 91.4000007,32.0700007 91.256,31.93 C91.1119993,31.7899993 91.04,31.6120011 91.04,31.396 C91.04,31.1799989 91.1119993,31.0000007 91.256,30.856 C91.4000007,30.7119993 91.5839989,30.64 91.808,30.64 C92.0400012,30.64 92.2279993,30.7119993 92.372,30.856 Z M97.988,33.694 C98.3000016,33.8020005 98.5999986,33.9759988 98.888,34.216 L98.348,34.936 C98.1319989,34.7679992 97.920001,34.6440004 97.712,34.564 C97.503999,34.4839996 97.2680013,34.444 97.004,34.444 C96.4919974,34.444 96.0940014,34.647998 95.81,35.056 C95.5259986,35.464002 95.384,36.067996 95.384,36.868 C95.384,37.668004 95.5239986,38.2579981 95.804,38.638 C96.0840014,39.0180019 96.4839974,39.208 97.004,39.208 C97.2600013,39.208 97.489999,39.1680004 97.694,39.088 C97.898001,39.0079996 98.1199988,38.8760009 98.36,38.692 L98.888,39.448 C98.3119971,39.9120023 97.6680036,40.144 96.956,40.144 C96.0999957,40.144 95.4260025,39.8560029 94.934,39.28 C94.4419975,38.7039971 94.196,37.9080051 94.196,36.892 C94.196,36.2199966 94.3079989,35.6320025 94.532,35.128 C94.7560011,34.6239975 95.0739979,34.2320014 95.486,33.952 C95.8980021,33.6719986 96.3879972,33.532 96.956,33.532 C97.3320019,33.532 97.6759984,33.5859995 97.988,33.694 Z M104.78,39.094 C104.868,39.2180006 104.999999,39.3119997 105.176,39.376 L104.924,40.144 C104.595998,40.1039998 104.332001,40.0120007 104.132,39.868 C103.931999,39.7239993 103.784,39.5000015 103.688,39.196 C103.263998,39.8280032 102.636004,40.144 101.804,40.144 C101.179997,40.144 100.688002,39.9680018 100.328,39.616 C99.9679982,39.2639982 99.788,38.8040028 99.788,38.236 C99.788,37.5639966 100.029998,37.0480018 100.514,36.688 C100.998002,36.3279982 101.683996,36.148 102.572,36.148 L103.544,36.148 L103.544,35.68 C103.544,35.2319978 103.436001,34.912001 103.22,34.72 C103.003999,34.527999 102.672002,34.432 102.224,34.432 C101.759998,34.432 101.192003,34.5439989 100.52,34.768 L100.244,33.964 C101.028004,33.6759986 101.755997,33.532 102.428,33.532 C103.172004,33.532 103.727998,33.7139982 104.096,34.078 C104.464002,34.4420018 104.648,34.9599966 104.648,35.632 L104.648,38.524 C104.648,38.7800013 104.692,38.9699994 104.78,39.094 Z M103.544,38.332 L103.544,36.88 L102.716,36.88 C101.547994,36.88 100.964,37.3119957 100.964,38.176 C100.964,38.5520019 101.055999,38.835999 101.24,39.028 C101.424001,39.220001 101.695998,39.316 102.056,39.316 C102.688003,39.316 103.183998,38.9880033 103.544,38.332 Z" id="Gazella-marica" fill="#212121"></path>
            <g id="Rectangle-6">
                <use fill-opacity="0.6" fill="#6613AE" fill-rule="evenodd" xlink:href="#path-1"></use>
                <rect stroke="#7E1293" stroke-width="1" x="10.5" y="31.5" width="9" height="9"></rect>
            </g>
            <path d="M31.598,51.81 C31.9780019,51.9580007 32.3559981,52.1879984 32.732,52.5 L32.06,53.196 C31.7639985,52.9559988 31.4800014,52.7840005 31.208,52.68 C30.9359986,52.5759995 30.6160018,52.524 30.248,52.524 C29.8239979,52.524 29.4340018,52.6379989 29.078,52.866 C28.7219982,53.0940011 28.4320011,53.4579975 28.208,53.958 C27.9839989,54.4580025 27.872,55.0919962 27.872,55.86 C27.872,57.0200058 28.0619981,57.8679973 28.442,58.404 C28.8220019,58.9400027 29.3839963,59.208 30.128,59.208 C30.7440031,59.208 31.2679978,59.0800013 31.7,58.824 L31.7,56.34 L30.236,56.34 L30.104,55.416 L32.828,55.416 L32.828,59.412 C32.427998,59.6520012 32.0020023,59.8339994 31.55,59.958 C31.0979977,60.0820006 30.5960028,60.144 30.044,60.144 C28.9959948,60.144 28.170003,59.7800036 27.566,59.052 C26.961997,58.3239964 26.66,57.260007 26.66,55.86 C26.66,54.9639955 26.8239984,54.1940032 27.152,53.55 C27.4800016,52.9059968 27.9159973,52.4180017 28.46,52.086 C29.0040027,51.7539983 29.5919968,51.588 30.224,51.588 C30.7600027,51.588 31.2179981,51.6619993 31.598,51.81 Z M39.104,59.094 C39.1920004,59.2180006 39.3239991,59.3119997 39.5,59.376 L39.248,60.144 C38.9199984,60.1039998 38.656001,60.0120007 38.456,59.868 C38.255999,59.7239993 38.1080005,59.5000015 38.012,59.196 C37.5879979,59.8280032 36.9600042,60.144 36.128,60.144 C35.5039969,60.144 35.0120018,59.9680018 34.652,59.616 C34.2919982,59.2639982 34.112,58.8040028 34.112,58.236 C34.112,57.5639966 34.3539976,57.0480018 34.838,56.688 C35.3220024,56.3279982 36.0079956,56.148 36.896,56.148 L37.868,56.148 L37.868,55.68 C37.868,55.2319978 37.7600011,54.912001 37.544,54.72 C37.3279989,54.527999 36.9960022,54.432 36.548,54.432 C36.0839977,54.432 35.5160034,54.5439989 34.844,54.768 L34.568,53.964 C35.3520039,53.6759986 36.0799966,53.532 36.752,53.532 C37.4960037,53.532 38.0519982,53.7139982 38.42,54.078 C38.7880018,54.4420018 38.972,54.9599966 38.972,55.632 L38.972,58.524 C38.972,58.7800013 39.0159996,58.9699994 39.104,59.094 Z M37.868,58.332 L37.868,56.88 L37.04,56.88 C35.8719942,56.88 35.288,57.3119957 35.288,58.176 C35.288,58.5520019 35.3799991,58.835999 35.564,59.028 C35.7480009,59.220001 36.0199982,59.316 36.38,59.316 C37.0120032,59.316 37.5079982,58.9880033 37.868,58.332 Z M41.648,59.076 L44.984,59.076 L44.852,60 L40.4,60 L40.4,59.172 L43.688,54.612 L40.676,54.612 L40.676,53.676 L44.948,53.676 L44.948,54.516 L41.648,59.076 Z M51.236,57.216 L47.204,57.216 C47.2520002,57.9120035 47.4279985,58.4239984 47.732,58.752 C48.0360015,59.0800016 48.4279976,59.244 48.908,59.244 C49.2120015,59.244 49.4919987,59.2000004 49.748,59.112 C50.0040013,59.0239996 50.2719986,58.884001 50.552,58.692 L51.032,59.352 C50.3599966,59.8800026 49.624004,60.144 48.824,60.144 C47.9439956,60.144 47.2580025,59.8560029 46.766,59.28 C46.2739975,58.7039971 46.028,57.912005 46.028,56.904 C46.028,56.2479967 46.1339989,55.6660025 46.346,55.158 C46.5580011,54.6499975 46.861998,54.2520014 47.258,53.964 C47.654002,53.6759986 48.1199973,53.532 48.656,53.532 C49.4960042,53.532 50.1399978,53.8079972 50.588,54.36 C51.0360022,54.9120028 51.26,55.6759951 51.26,56.652 C51.26,56.8360009 51.2520001,57.023999 51.236,57.216 Z M50.168,56.328 C50.168,55.7039969 50.0440012,55.2280016 49.796,54.9 C49.5479988,54.5719984 49.1760025,54.408 48.68,54.408 C47.7759955,54.408 47.2840004,55.0719934 47.204,56.4 L50.168,56.4 L50.168,56.328 Z M54.218,59.112 C54.2780003,59.1920004 54.3799993,59.232 54.524,59.232 C54.6760008,59.232 54.8119994,59.2080002 54.932,59.16 L55.22,59.928 C54.9239985,60.0720007 54.6120016,60.144 54.284,60.144 C53.875998,60.144 53.5640011,60.0260012 53.348,59.79 C53.1319989,59.5539988 53.024,59.2080023 53.024,58.752 L53.024,51.132 L54.128,51 L54.128,58.728 C54.128,58.9040009 54.1579997,59.0319996 54.218,59.112 Z M57.734,59.112 C57.7940003,59.1920004 57.8959993,59.232 58.04,59.232 C58.1920008,59.232 58.3279994,59.2080002 58.448,59.16 L58.736,59.928 C58.4399985,60.0720007 58.1280016,60.144 57.8,60.144 C57.391998,60.144 57.0800011,60.0260012 56.864,59.79 C56.6479989,59.5539988 56.54,59.2080023 56.54,58.752 L56.54,51.132 L57.644,51 L57.644,58.728 C57.644,58.9040009 57.6739997,59.0319996 57.734,59.112 Z M64.508,59.094 C64.5960004,59.2180006 64.7279991,59.3119997 64.904,59.376 L64.652,60.144 C64.3239984,60.1039998 64.060001,60.0120007 63.86,59.868 C63.659999,59.7239993 63.5120005,59.5000015 63.416,59.196 C62.9919979,59.8280032 62.3640042,60.144 61.532,60.144 C60.9079969,60.144 60.4160018,59.9680018 60.056,59.616 C59.6959982,59.2639982 59.516,58.8040028 59.516,58.236 C59.516,57.5639966 59.7579976,57.0480018 60.242,56.688 C60.7260024,56.3279982 61.4119956,56.148 62.3,56.148 L63.272,56.148 L63.272,55.68 C63.272,55.2319978 63.1640011,54.912001 62.948,54.72 C62.7319989,54.527999 62.4000022,54.432 61.952,54.432 C61.4879977,54.432 60.9200034,54.5439989 60.248,54.768 L59.972,53.964 C60.7560039,53.6759986 61.4839966,53.532 62.156,53.532 C62.9000037,53.532 63.4559982,53.7139982 63.824,54.078 C64.1920018,54.4420018 64.376,54.9599966 64.376,55.632 L64.376,58.524 C64.376,58.7800013 64.4199996,58.9699994 64.508,59.094 Z M63.272,58.332 L63.272,56.88 L62.444,56.88 C61.2759942,56.88 60.692,57.3119957 60.692,58.176 C60.692,58.5520019 60.7839991,58.835999 60.968,59.028 C61.1520009,59.220001 61.4239982,59.316 61.784,59.316 C62.4160032,59.316 62.9119982,58.9880033 63.272,58.332 Z M73.16,53.694 C73.4720016,53.8020005 73.7719986,53.9759988 74.06,54.216 L73.52,54.936 C73.3039989,54.7679992 73.092001,54.6440004 72.884,54.564 C72.675999,54.4839996 72.4400013,54.444 72.176,54.444 C71.6639974,54.444 71.2660014,54.647998 70.982,55.056 C70.6979986,55.464002 70.556,56.067996 70.556,56.868 C70.556,57.668004 70.6959986,58.2579981 70.976,58.638 C71.2560014,59.0180019 71.6559974,59.208 72.176,59.208 C72.4320013,59.208 72.661999,59.1680004 72.866,59.088 C73.070001,59.0079996 73.2919988,58.8760009 73.532,58.692 L74.06,59.448 C73.4839971,59.9120023 72.8400036,60.144 72.128,60.144 C71.2719957,60.144 70.5980025,59.8560029 70.106,59.28 C69.6139975,58.7039971 69.368,57.9080051 69.368,56.892 C69.368,56.2199966 69.4799989,55.6320025 69.704,55.128 C69.9280011,54.6239975 70.2459979,54.2320014 70.658,53.952 C71.0700021,53.6719986 71.5599972,53.532 72.128,53.532 C72.5040019,53.532 72.8479984,53.5859995 73.16,53.694 Z M79.316,60 L79.232,59.016 C78.9919988,59.408002 78.7160016,59.6939991 78.404,59.874 C78.0919984,60.0540009 77.7120022,60.144 77.264,60.144 C76.7119972,60.144 76.2800016,59.9760017 75.968,59.64 C75.6559984,59.3039983 75.5,58.8280031 75.5,58.212 L75.5,53.676 L76.604,53.676 L76.604,58.092 C76.604,58.5240022 76.6799992,58.8299991 76.832,59.01 C76.9840008,59.1900009 77.2319983,59.28 77.576,59.28 C78.1920031,59.28 78.7199978,58.9160036 79.16,58.188 L79.16,53.676 L80.264,53.676 L80.264,60 L79.316,60 Z M83.708,60 L81.524,53.676 L82.724,53.676 L84.38,59.016 L86.024,53.676 L87.188,53.676 L85.04,60 L83.708,60 Z M88.448,60 L88.448,53.676 L89.552,53.676 L89.552,60 L88.448,60 Z M89.552,50.856 C89.6960007,51.0000007 89.768,51.1799989 89.768,51.396 C89.768,51.6120011 89.6960007,51.7899993 89.552,51.93 C89.4079993,52.0700007 89.2200012,52.14 88.988,52.14 C88.7639989,52.14 88.5800007,52.0700007 88.436,51.93 C88.2919993,51.7899993 88.22,51.6120011 88.22,51.396 C88.22,51.1799989 88.2919993,51.0000007 88.436,50.856 C88.5800007,50.7119993 88.7639989,50.64 88.988,50.64 C89.2200012,50.64 89.4079993,50.7119993 89.552,50.856 Z M96.584,57.216 L92.552,57.216 C92.6000002,57.9120035 92.7759985,58.4239984 93.08,58.752 C93.3840015,59.0800016 93.7759976,59.244 94.256,59.244 C94.5600015,59.244 94.8399987,59.2000004 95.096,59.112 C95.3520013,59.0239996 95.6199986,58.884001 95.9,58.692 L96.38,59.352 C95.7079966,59.8800026 94.972004,60.144 94.172,60.144 C93.2919956,60.144 92.6060025,59.8560029 92.114,59.28 C91.6219975,58.7039971 91.376,57.912005 91.376,56.904 C91.376,56.2479967 91.4819989,55.6660025 91.694,55.158 C91.9060011,54.6499975 92.209998,54.2520014 92.606,53.964 C93.002002,53.6759986 93.4679973,53.532 94.004,53.532 C94.8440042,53.532 95.4879978,53.8079972 95.936,54.36 C96.3840022,54.9120028 96.608,55.6759951 96.608,56.652 C96.608,56.8360009 96.6000001,57.023999 96.584,57.216 Z M95.516,56.328 C95.516,55.7039969 95.3920012,55.2280016 95.144,54.9 C94.8959988,54.5719984 94.5240025,54.408 94.028,54.408 C93.1239955,54.408 92.6320004,55.0719934 92.552,56.4 L95.516,56.4 L95.516,56.328 Z M101.804,53.604 L101.6,54.684 C101.407999,54.6359998 101.224001,54.612 101.048,54.612 C100.655998,54.612 100.340001,54.7559986 100.1,55.044 C99.8599988,55.3320014 99.6720007,55.779997 99.536,56.388 L99.536,60 L98.432,60 L98.432,53.676 L99.38,53.676 L99.488,54.96 C99.6560008,54.4879976 99.8839986,54.1320012 100.172,53.892 C100.460001,53.6519988 100.795998,53.532 101.18,53.532 C101.404001,53.532 101.611999,53.5559998 101.804,53.604 Z M103.064,60 L103.064,53.676 L104.168,53.676 L104.168,60 L103.064,60 Z M104.168,50.856 C104.312001,51.0000007 104.384,51.1799989 104.384,51.396 C104.384,51.6120011 104.312001,51.7899993 104.168,51.93 C104.023999,52.0700007 103.836001,52.14 103.604,52.14 C103.379999,52.14 103.196001,52.0700007 103.052,51.93 C102.907999,51.7899993 102.836,51.6120011 102.836,51.396 C102.836,51.1799989 102.907999,51.0000007 103.052,50.856 C103.196001,50.7119993 103.379999,50.64 103.604,50.64 C103.836001,50.64 104.023999,50.7119993 104.168,50.856 Z" id="Gazella-cuvieri" fill="#212121"></path>
            <g id="Rectangle-6">
                <use fill-opacity="0.6" fill="#18904C" fill-rule="evenodd" xlink:href="#path-2"></use>
                <rect stroke="#40A26A" stroke-width="1" x="10.5" y="51.5" width="9" height="9"></rect>
            </g>
            <path d="M31.598,71.81 C31.9780019,71.9580007 32.3559981,72.1879984 32.732,72.5 L32.06,73.196 C31.7639985,72.9559988 31.4800014,72.7840005 31.208,72.68 C30.9359986,72.5759995 30.6160018,72.524 30.248,72.524 C29.8239979,72.524 29.4340018,72.6379989 29.078,72.866 C28.7219982,73.0940011 28.4320011,73.4579975 28.208,73.958 C27.9839989,74.4580025 27.872,75.0919962 27.872,75.86 C27.872,77.0200058 28.0619981,77.8679973 28.442,78.404 C28.8220019,78.9400027 29.3839963,79.208 30.128,79.208 C30.7440031,79.208 31.2679978,79.0800013 31.7,78.824 L31.7,76.34 L30.236,76.34 L30.104,75.416 L32.828,75.416 L32.828,79.412 C32.427998,79.6520012 32.0020023,79.8339994 31.55,79.958 C31.0979977,80.0820006 30.5960028,80.144 30.044,80.144 C28.9959948,80.144 28.170003,79.7800036 27.566,79.052 C26.961997,78.3239964 26.66,77.260007 26.66,75.86 C26.66,74.9639955 26.8239984,74.1940032 27.152,73.55 C27.4800016,72.9059968 27.9159973,72.4180017 28.46,72.086 C29.0040027,71.7539983 29.5919968,71.588 30.224,71.588 C30.7600027,71.588 31.2179981,71.6619993 31.598,71.81 Z M39.104,79.094 C39.1920004,79.2180006 39.3239991,79.3119997 39.5,79.376 L39.248,80.144 C38.9199984,80.1039998 38.656001,80.0120007 38.456,79.868 C38.255999,79.7239993 38.1080005,79.5000015 38.012,79.196 C37.5879979,79.8280032 36.9600042,80.144 36.128,80.144 C35.5039969,80.144 35.0120018,79.9680018 34.652,79.616 C34.2919982,79.2639982 34.112,78.8040028 34.112,78.236 C34.112,77.5639966 34.3539976,77.0480018 34.838,76.688 C35.3220024,76.3279982 36.0079956,76.148 36.896,76.148 L37.868,76.148 L37.868,75.68 C37.868,75.2319978 37.7600011,74.912001 37.544,74.72 C37.3279989,74.527999 36.9960022,74.432 36.548,74.432 C36.0839977,74.432 35.5160034,74.5439989 34.844,74.768 L34.568,73.964 C35.3520039,73.6759986 36.0799966,73.532 36.752,73.532 C37.4960037,73.532 38.0519982,73.7139982 38.42,74.078 C38.7880018,74.4420018 38.972,74.9599966 38.972,75.632 L38.972,78.524 C38.972,78.7800013 39.0159996,78.9699994 39.104,79.094 Z M37.868,78.332 L37.868,76.88 L37.04,76.88 C35.8719942,76.88 35.288,77.3119957 35.288,78.176 C35.288,78.5520019 35.3799991,78.835999 35.564,79.028 C35.7480009,79.220001 36.0199982,79.316 36.38,79.316 C37.0120032,79.316 37.5079982,78.9880033 37.868,78.332 Z M41.648,79.076 L44.984,79.076 L44.852,80 L40.4,80 L40.4,79.172 L43.688,74.612 L40.676,74.612 L40.676,73.676 L44.948,73.676 L44.948,74.516 L41.648,79.076 Z M51.236,77.216 L47.204,77.216 C47.2520002,77.9120035 47.4279985,78.4239984 47.732,78.752 C48.0360015,79.0800016 48.4279976,79.244 48.908,79.244 C49.2120015,79.244 49.4919987,79.2000004 49.748,79.112 C50.0040013,79.0239996 50.2719986,78.884001 50.552,78.692 L51.032,79.352 C50.3599966,79.8800026 49.624004,80.144 48.824,80.144 C47.9439956,80.144 47.2580025,79.8560029 46.766,79.28 C46.2739975,78.7039971 46.028,77.912005 46.028,76.904 C46.028,76.2479967 46.1339989,75.6660025 46.346,75.158 C46.5580011,74.6499975 46.861998,74.2520014 47.258,73.964 C47.654002,73.6759986 48.1199973,73.532 48.656,73.532 C49.4960042,73.532 50.1399978,73.8079972 50.588,74.36 C51.0360022,74.9120028 51.26,75.6759951 51.26,76.652 C51.26,76.8360009 51.2520001,77.023999 51.236,77.216 Z M50.168,76.328 C50.168,75.7039969 50.0440012,75.2280016 49.796,74.9 C49.5479988,74.5719984 49.1760025,74.408 48.68,74.408 C47.7759955,74.408 47.2840004,75.0719934 47.204,76.4 L50.168,76.4 L50.168,76.328 Z M54.218,79.112 C54.2780003,79.1920004 54.3799993,79.232 54.524,79.232 C54.6760008,79.232 54.8119994,79.2080002 54.932,79.16 L55.22,79.928 C54.9239985,80.0720007 54.6120016,80.144 54.284,80.144 C53.875998,80.144 53.5640011,80.0260012 53.348,79.79 C53.1319989,79.5539988 53.024,79.2080023 53.024,78.752 L53.024,71.132 L54.128,71 L54.128,78.728 C54.128,78.9040009 54.1579997,79.0319996 54.218,79.112 Z M57.734,79.112 C57.7940003,79.1920004 57.8959993,79.232 58.04,79.232 C58.1920008,79.232 58.3279994,79.2080002 58.448,79.16 L58.736,79.928 C58.4399985,80.0720007 58.1280016,80.144 57.8,80.144 C57.391998,80.144 57.0800011,80.0260012 56.864,79.79 C56.6479989,79.5539988 56.54,79.2080023 56.54,78.752 L56.54,71.132 L57.644,71 L57.644,78.728 C57.644,78.9040009 57.6739997,79.0319996 57.734,79.112 Z M64.508,79.094 C64.5960004,79.2180006 64.7279991,79.3119997 64.904,79.376 L64.652,80.144 C64.3239984,80.1039998 64.060001,80.0120007 63.86,79.868 C63.659999,79.7239993 63.5120005,79.5000015 63.416,79.196 C62.9919979,79.8280032 62.3640042,80.144 61.532,80.144 C60.9079969,80.144 60.4160018,79.9680018 60.056,79.616 C59.6959982,79.2639982 59.516,78.8040028 59.516,78.236 C59.516,77.5639966 59.7579976,77.0480018 60.242,76.688 C60.7260024,76.3279982 61.4119956,76.148 62.3,76.148 L63.272,76.148 L63.272,75.68 C63.272,75.2319978 63.1640011,74.912001 62.948,74.72 C62.7319989,74.527999 62.4000022,74.432 61.952,74.432 C61.4879977,74.432 60.9200034,74.5439989 60.248,74.768 L59.972,73.964 C60.7560039,73.6759986 61.4839966,73.532 62.156,73.532 C62.9000037,73.532 63.4559982,73.7139982 63.824,74.078 C64.1920018,74.4420018 64.376,74.9599966 64.376,75.632 L64.376,78.524 C64.376,78.7800013 64.4199996,78.9699994 64.508,79.094 Z M63.272,78.332 L63.272,76.88 L62.444,76.88 C61.2759942,76.88 60.692,77.3119957 60.692,78.176 C60.692,78.5520019 60.7839991,78.835999 60.968,79.028 C61.1520009,79.220001 61.4239982,79.316 61.784,79.316 C62.4160032,79.316 62.9119982,78.9880033 63.272,78.332 Z M74.216,79.094 C74.3040004,79.2180006 74.4359991,79.3119997 74.612,79.376 L74.36,80.144 C74.0319984,80.1039998 73.768001,80.0120007 73.568,79.868 C73.367999,79.7239993 73.2200005,79.5000015 73.124,79.196 C72.6999979,79.8280032 72.0720042,80.144 71.24,80.144 C70.6159969,80.144 70.1240018,79.9680018 69.764,79.616 C69.4039982,79.2639982 69.224,78.8040028 69.224,78.236 C69.224,77.5639966 69.4659976,77.0480018 69.95,76.688 C70.4340024,76.3279982 71.1199956,76.148 72.008,76.148 L72.98,76.148 L72.98,75.68 C72.98,75.2319978 72.8720011,74.912001 72.656,74.72 C72.4399989,74.527999 72.1080022,74.432 71.66,74.432 C71.1959977,74.432 70.6280034,74.5439989 69.956,74.768 L69.68,73.964 C70.4640039,73.6759986 71.1919966,73.532 71.864,73.532 C72.6080037,73.532 73.1639982,73.7139982 73.532,74.078 C73.9000018,74.4420018 74.084,74.9599966 74.084,75.632 L74.084,78.524 C74.084,78.7800013 74.1279996,78.9699994 74.216,79.094 Z M72.98,78.332 L72.98,76.88 L72.152,76.88 C70.9839942,76.88 70.4,77.3119957 70.4,78.176 C70.4,78.5520019 70.4919991,78.835999 70.676,79.028 C70.8600009,79.220001 71.1319982,79.316 71.492,79.316 C72.1240032,79.316 72.6199982,78.9880033 72.98,78.332 Z M79.724,73.604 L79.52,74.684 C79.327999,74.6359998 79.1440009,74.612 78.968,74.612 C78.575998,74.612 78.2600012,74.7559986 78.02,75.044 C77.7799988,75.3320014 77.5920007,75.779997 77.456,76.388 L77.456,80 L76.352,80 L76.352,73.676 L77.3,73.676 L77.408,74.96 C77.5760008,74.4879976 77.8039986,74.1320012 78.092,73.892 C78.3800014,73.6519988 78.7159981,73.532 79.1,73.532 C79.3240011,73.532 79.531999,73.5559998 79.724,73.604 Z M85.136,79.094 C85.2240004,79.2180006 85.3559991,79.3119997 85.532,79.376 L85.28,80.144 C84.9519984,80.1039998 84.688001,80.0120007 84.488,79.868 C84.287999,79.7239993 84.1400005,79.5000015 84.044,79.196 C83.6199979,79.8280032 82.9920042,80.144 82.16,80.144 C81.5359969,80.144 81.0440018,79.9680018 80.684,79.616 C80.3239982,79.2639982 80.144,78.8040028 80.144,78.236 C80.144,77.5639966 80.3859976,77.0480018 80.87,76.688 C81.3540024,76.3279982 82.0399956,76.148 82.928,76.148 L83.9,76.148 L83.9,75.68 C83.9,75.2319978 83.7920011,74.912001 83.576,74.72 C83.3599989,74.527999 83.0280022,74.432 82.58,74.432 C82.1159977,74.432 81.5480034,74.5439989 80.876,74.768 L80.6,73.964 C81.3840039,73.6759986 82.1119966,73.532 82.784,73.532 C83.5280037,73.532 84.0839982,73.7139982 84.452,74.078 C84.8200018,74.4420018 85.004,74.9599966 85.004,75.632 L85.004,78.524 C85.004,78.7800013 85.0479996,78.9699994 85.136,79.094 Z M83.9,78.332 L83.9,76.88 L83.072,76.88 C81.9039942,76.88 81.32,77.3119957 81.32,78.176 C81.32,78.5520019 81.4119991,78.835999 81.596,79.028 C81.7800009,79.220001 82.0519982,79.316 82.412,79.316 C83.0440032,79.316 83.5399982,78.9880033 83.9,78.332 Z M91.88,74.402 C92.3040021,74.9820029 92.516,75.7919948 92.516,76.832 C92.516,77.4880033 92.416001,78.0659975 92.216,78.566 C92.015999,79.0660025 91.7280019,79.4539986 91.352,79.73 C90.9759981,80.0060014 90.5360025,80.144 90.032,80.144 C89.3679967,80.144 88.8080023,79.8640028 88.352,79.304 L88.244,80 L87.272,80 L87.272,71.132 L88.376,71 L88.376,74.468 C88.8320023,73.8439969 89.4279963,73.532 90.164,73.532 C90.8840036,73.532 91.4559979,73.8219971 91.88,74.402 Z M90.914,78.674 C91.1900014,78.277998 91.328,77.6640042 91.328,76.832 C91.328,75.9759957 91.2000013,75.3580019 90.944,74.978 C90.6879987,74.5979981 90.3240024,74.408 89.852,74.408 C89.2919972,74.408 88.8000021,74.7359967 88.376,75.392 L88.376,78.416 C88.5440008,78.6800013 88.7499988,78.8879992 88.994,79.04 C89.2380012,79.1920008 89.4959986,79.268 89.768,79.268 C90.2560024,79.268 90.6379986,79.070002 90.914,78.674 Z M94.4,80 L94.4,73.676 L95.504,73.676 L95.504,80 L94.4,80 Z M95.504,70.856 C95.6480007,71.0000007 95.72,71.1799989 95.72,71.396 C95.72,71.6120011 95.6480007,71.7899993 95.504,71.93 C95.3599993,72.0700007 95.1720012,72.14 94.94,72.14 C94.7159989,72.14 94.5320007,72.0700007 94.388,71.93 C94.2439993,71.7899993 94.172,71.6120011 94.172,71.396 C94.172,71.1799989 94.2439993,71.0000007 94.388,70.856 C94.5320007,70.7119993 94.7159989,70.64 94.94,70.64 C95.1720012,70.64 95.3599993,70.7119993 95.504,70.856 Z M101.12,73.694 C101.432002,73.8020005 101.731999,73.9759988 102.02,74.216 L101.48,74.936 C101.263999,74.7679992 101.052001,74.6440004 100.844,74.564 C100.635999,74.4839996 100.400001,74.444 100.136,74.444 C99.6239974,74.444 99.2260014,74.647998 98.942,75.056 C98.6579986,75.464002 98.516,76.067996 98.516,76.868 C98.516,77.668004 98.6559986,78.2579981 98.936,78.638 C99.2160014,79.0180019 99.6159974,79.208 100.136,79.208 C100.392001,79.208 100.621999,79.1680004 100.826,79.088 C101.030001,79.0079996 101.251999,78.8760009 101.492,78.692 L102.02,79.448 C101.443997,79.9120023 100.800004,80.144 100.088,80.144 C99.2319957,80.144 98.5580025,79.8560029 98.066,79.28 C97.5739975,78.7039971 97.328,77.9080051 97.328,76.892 C97.328,76.2199966 97.4399989,75.6320025 97.664,75.128 C97.8880011,74.6239975 98.2059979,74.2320014 98.618,73.952 C99.0300021,73.6719986 99.5199972,73.532 100.088,73.532 C100.464002,73.532 100.807998,73.5859995 101.12,73.694 Z M107.912,79.094 C108,79.2180006 108.131999,79.3119997 108.308,79.376 L108.056,80.144 C107.727998,80.1039998 107.464001,80.0120007 107.264,79.868 C107.063999,79.7239993 106.916,79.5000015 106.82,79.196 C106.395998,79.8280032 105.768004,80.144 104.936,80.144 C104.311997,80.144 103.820002,79.9680018 103.46,79.616 C103.099998,79.2639982 102.92,78.8040028 102.92,78.236 C102.92,77.5639966 103.161998,77.0480018 103.646,76.688 C104.130002,76.3279982 104.815996,76.148 105.704,76.148 L106.676,76.148 L106.676,75.68 C106.676,75.2319978 106.568001,74.912001 106.352,74.72 C106.135999,74.527999 105.804002,74.432 105.356,74.432 C104.891998,74.432 104.324003,74.5439989 103.652,74.768 L103.376,73.964 C104.160004,73.6759986 104.887997,73.532 105.56,73.532 C106.304004,73.532 106.859998,73.7139982 107.228,74.078 C107.596002,74.4420018 107.78,74.9599966 107.78,75.632 L107.78,78.524 C107.78,78.7800013 107.824,78.9699994 107.912,79.094 Z M106.676,78.332 L106.676,76.88 L105.848,76.88 C104.679994,76.88 104.096,77.3119957 104.096,78.176 C104.096,78.5520019 104.187999,78.835999 104.372,79.028 C104.556001,79.220001 104.827998,79.316 105.188,79.316 C105.820003,79.316 106.315998,78.9880033 106.676,78.332 Z" id="Gazella-arabica" fill="#212121"></path>
            <g id="Rectangle-6">
                <use fill-opacity="0.6" fill="#EA6666" fill-rule="evenodd" xlink:href="#path-3"></use>
                <rect stroke="#FA0F0F" stroke-width="1" x="10.5" y="71.5" width="9" height="9"></rect>
            </g>
            <path d="M31.598,91.81 C31.9780019,91.9580007 32.3559981,92.1879984 32.732,92.5 L32.06,93.196 C31.7639985,92.9559988 31.4800014,92.7840005 31.208,92.68 C30.9359986,92.5759995 30.6160018,92.524 30.248,92.524 C29.8239979,92.524 29.4340018,92.6379989 29.078,92.866 C28.7219982,93.0940011 28.4320011,93.4579975 28.208,93.958 C27.9839989,94.4580025 27.872,95.0919962 27.872,95.86 C27.872,97.0200058 28.0619981,97.8679973 28.442,98.404 C28.8220019,98.9400027 29.3839963,99.208 30.128,99.208 C30.7440031,99.208 31.2679978,99.0800013 31.7,98.824 L31.7,96.34 L30.236,96.34 L30.104,95.416 L32.828,95.416 L32.828,99.412 C32.427998,99.6520012 32.0020023,99.8339994 31.55,99.958 C31.0979977,100.082001 30.5960028,100.144 30.044,100.144 C28.9959948,100.144 28.170003,99.7800036 27.566,99.052 C26.961997,98.3239964 26.66,97.260007 26.66,95.86 C26.66,94.9639955 26.8239984,94.1940032 27.152,93.55 C27.4800016,92.9059968 27.9159973,92.4180017 28.46,92.086 C29.0040027,91.7539983 29.5919968,91.588 30.224,91.588 C30.7600027,91.588 31.2179981,91.6619993 31.598,91.81 Z M39.104,99.094 C39.1920004,99.2180006 39.3239991,99.3119997 39.5,99.376 L39.248,100.144 C38.9199984,100.104 38.656001,100.012001 38.456,99.868 C38.255999,99.7239993 38.1080005,99.5000015 38.012,99.196 C37.5879979,99.8280032 36.9600042,100.144 36.128,100.144 C35.5039969,100.144 35.0120018,99.9680018 34.652,99.616 C34.2919982,99.2639982 34.112,98.8040028 34.112,98.236 C34.112,97.5639966 34.3539976,97.0480018 34.838,96.688 C35.3220024,96.3279982 36.0079956,96.148 36.896,96.148 L37.868,96.148 L37.868,95.68 C37.868,95.2319978 37.7600011,94.912001 37.544,94.72 C37.3279989,94.527999 36.9960022,94.432 36.548,94.432 C36.0839977,94.432 35.5160034,94.5439989 34.844,94.768 L34.568,93.964 C35.3520039,93.6759986 36.0799966,93.532 36.752,93.532 C37.4960037,93.532 38.0519982,93.7139982 38.42,94.078 C38.7880018,94.4420018 38.972,94.9599966 38.972,95.632 L38.972,98.524 C38.972,98.7800013 39.0159996,98.9699994 39.104,99.094 Z M37.868,98.332 L37.868,96.88 L37.04,96.88 C35.8719942,96.88 35.288,97.3119957 35.288,98.176 C35.288,98.5520019 35.3799991,98.835999 35.564,99.028 C35.7480009,99.220001 36.0199982,99.316 36.38,99.316 C37.0120032,99.316 37.5079982,98.9880033 37.868,98.332 Z M41.648,99.076 L44.984,99.076 L44.852,100 L40.4,100 L40.4,99.172 L43.688,94.612 L40.676,94.612 L40.676,93.676 L44.948,93.676 L44.948,94.516 L41.648,99.076 Z M51.236,97.216 L47.204,97.216 C47.2520002,97.9120035 47.4279985,98.4239984 47.732,98.752 C48.0360015,99.0800016 48.4279976,99.244 48.908,99.244 C49.2120015,99.244 49.4919987,99.2000004 49.748,99.112 C50.0040013,99.0239996 50.2719986,98.884001 50.552,98.692 L51.032,99.352 C50.3599966,99.8800026 49.624004,100.144 48.824,100.144 C47.9439956,100.144 47.2580025,99.8560029 46.766,99.28 C46.2739975,98.7039971 46.028,97.912005 46.028,96.904 C46.028,96.2479967 46.1339989,95.6660025 46.346,95.158 C46.5580011,94.6499975 46.861998,94.2520014 47.258,93.964 C47.654002,93.6759986 48.1199973,93.532 48.656,93.532 C49.4960042,93.532 50.1399978,93.8079972 50.588,94.36 C51.0360022,94.9120028 51.26,95.6759951 51.26,96.652 C51.26,96.8360009 51.2520001,97.023999 51.236,97.216 Z M50.168,96.328 C50.168,95.7039969 50.0440012,95.2280016 49.796,94.9 C49.5479988,94.5719984 49.1760025,94.408 48.68,94.408 C47.7759955,94.408 47.2840004,95.0719934 47.204,96.4 L50.168,96.4 L50.168,96.328 Z M54.218,99.112 C54.2780003,99.1920004 54.3799993,99.232 54.524,99.232 C54.6760008,99.232 54.8119994,99.2080002 54.932,99.16 L55.22,99.928 C54.9239985,100.072001 54.6120016,100.144 54.284,100.144 C53.875998,100.144 53.5640011,100.026001 53.348,99.79 C53.1319989,99.5539988 53.024,99.2080023 53.024,98.752 L53.024,91.132 L54.128,91 L54.128,98.728 C54.128,98.9040009 54.1579997,99.0319996 54.218,99.112 Z M57.734,99.112 C57.7940003,99.1920004 57.8959993,99.232 58.04,99.232 C58.1920008,99.232 58.3279994,99.2080002 58.448,99.16 L58.736,99.928 C58.4399985,100.072001 58.1280016,100.144 57.8,100.144 C57.391998,100.144 57.0800011,100.026001 56.864,99.79 C56.6479989,99.5539988 56.54,99.2080023 56.54,98.752 L56.54,91.132 L57.644,91 L57.644,98.728 C57.644,98.9040009 57.6739997,99.0319996 57.734,99.112 Z M64.508,99.094 C64.5960004,99.2180006 64.7279991,99.3119997 64.904,99.376 L64.652,100.144 C64.3239984,100.104 64.060001,100.012001 63.86,99.868 C63.659999,99.7239993 63.5120005,99.5000015 63.416,99.196 C62.9919979,99.8280032 62.3640042,100.144 61.532,100.144 C60.9079969,100.144 60.4160018,99.9680018 60.056,99.616 C59.6959982,99.2639982 59.516,98.8040028 59.516,98.236 C59.516,97.5639966 59.7579976,97.0480018 60.242,96.688 C60.7260024,96.3279982 61.4119956,96.148 62.3,96.148 L63.272,96.148 L63.272,95.68 C63.272,95.2319978 63.1640011,94.912001 62.948,94.72 C62.7319989,94.527999 62.4000022,94.432 61.952,94.432 C61.4879977,94.432 60.9200034,94.5439989 60.248,94.768 L59.972,93.964 C60.7560039,93.6759986 61.4839966,93.532 62.156,93.532 C62.9000037,93.532 63.4559982,93.7139982 63.824,94.078 C64.1920018,94.4420018 64.376,94.9599966 64.376,95.632 L64.376,98.524 C64.376,98.7800013 64.4199996,98.9699994 64.508,99.094 Z M63.272,98.332 L63.272,96.88 L62.444,96.88 C61.2759942,96.88 60.692,97.3119957 60.692,98.176 C60.692,98.5520019 60.7839991,98.835999 60.968,99.028 C61.1520009,99.220001 61.4239982,99.316 61.784,99.316 C62.4160032,99.316 62.9119982,98.9880033 63.272,98.332 Z M70.958,99.112 C71.0180003,99.1920004 71.1199993,99.232 71.264,99.232 C71.4160008,99.232 71.5519994,99.2080002 71.672,99.16 L71.96,99.928 C71.6639985,100.072001 71.3520016,100.144 71.024,100.144 C70.615998,100.144 70.3040011,100.026001 70.088,99.79 C69.8719989,99.5539988 69.764,99.2080023 69.764,98.752 L69.764,91.132 L70.868,91 L70.868,98.728 C70.868,98.9040009 70.8979997,99.0319996 70.958,99.112 Z M77.972,97.216 L73.94,97.216 C73.9880002,97.9120035 74.1639985,98.4239984 74.468,98.752 C74.7720015,99.0800016 75.1639976,99.244 75.644,99.244 C75.9480015,99.244 76.2279987,99.2000004 76.484,99.112 C76.7400013,99.0239996 77.0079986,98.884001 77.288,98.692 L77.768,99.352 C77.0959966,99.8800026 76.360004,100.144 75.56,100.144 C74.6799956,100.144 73.9940025,99.8560029 73.502,99.28 C73.0099975,98.7039971 72.764,97.912005 72.764,96.904 C72.764,96.2479967 72.8699989,95.6660025 73.082,95.158 C73.2940011,94.6499975 73.597998,94.2520014 73.994,93.964 C74.390002,93.6759986 74.8559973,93.532 75.392,93.532 C76.2320042,93.532 76.8759978,93.8079972 77.324,94.36 C77.7720022,94.9120028 77.996,95.6759951 77.996,96.652 C77.996,96.8360009 77.9880001,97.023999 77.972,97.216 Z M76.904,96.328 C76.904,95.7039969 76.7800012,95.2280016 76.532,94.9 C76.2839988,94.5719984 75.9120025,94.408 75.416,94.408 C74.5119955,94.408 74.0200004,95.0719934 73.94,96.4 L76.904,96.4 L76.904,96.328 Z M84.5,94.396 C84.8760019,94.9720029 85.064,95.7839948 85.064,96.832 C85.064,97.824005 84.8480022,98.623997 84.416,99.232 C83.9839978,99.840003 83.372004,100.144 82.58,100.144 C81.8759965,100.144 81.324002,99.9040024 80.924,99.424 L80.924,102.424 L79.82,102.556 L79.82,93.676 L80.768,93.676 L80.852,94.528 C81.0840012,94.2079984 81.3639984,93.9620009 81.692,93.79 C82.0200016,93.6179991 82.3639982,93.532 82.724,93.532 C83.532004,93.532 84.1239981,93.8199971 84.5,94.396 Z M83.876,96.832 C83.876,95.2159919 83.4000048,94.408 82.448,94.408 C82.1359984,94.408 81.8520013,94.4999991 81.596,94.684 C81.3399987,94.8680009 81.116001,95.1039986 80.924,95.392 L80.924,98.476 C81.0840008,98.7240012 81.2839988,98.9139993 81.524,99.046 C81.7640012,99.1780007 82.0279986,99.244 82.316,99.244 C83.3560052,99.244 83.876,98.440008 83.876,96.832 Z M88.724,100.144 C88.1879973,100.144 87.7700015,99.9900015 87.47,99.682 C87.1699985,99.3739985 87.02,98.9280029 87.02,98.344 L87.02,94.528 L85.916,94.528 L85.916,93.676 L87.02,93.676 L87.02,92.248 L88.124,92.116 L88.124,93.676 L89.624,93.676 L89.504,94.528 L88.124,94.528 L88.124,98.296 C88.124,98.6240016 88.1819994,98.8619993 88.298,99.01 C88.4140006,99.1580007 88.6079986,99.232 88.88,99.232 C89.1440013,99.232 89.4239985,99.1400009 89.72,98.956 L90.14,99.712 C89.7239979,100.000001 89.2520026,100.144 88.724,100.144 Z M95.606,94.42 C96.0980025,95.012003 96.344,95.8159949 96.344,96.832 C96.344,97.4880033 96.2320011,98.0659975 96.008,98.566 C95.7839989,99.0660025 95.4600021,99.4539986 95.036,99.73 C94.6119979,100.006001 94.1080029,100.144 93.524,100.144 C92.6359956,100.144 91.9440025,99.848003 91.448,99.256 C90.9519975,98.663997 90.704,97.8600051 90.704,96.844 C90.704,96.1879967 90.8159989,95.6100025 91.04,95.11 C91.2640011,94.6099975 91.5879979,94.2220014 92.012,93.946 C92.4360021,93.6699986 92.943997,93.532 93.536,93.532 C94.4240044,93.532 95.1139975,93.827997 95.606,94.42 Z M91.892,96.844 C91.892,98.452008 92.4359946,99.256 93.524,99.256 C94.6120054,99.256 95.156,98.4480081 95.156,96.832 C95.156,95.223992 94.6160054,94.42 93.536,94.42 C92.4399945,94.42 91.892,95.2279919 91.892,96.844 Z M101.504,93.694 C101.816002,93.8020005 102.115999,93.9759988 102.404,94.216 L101.864,94.936 C101.647999,94.7679992 101.436001,94.6440004 101.228,94.564 C101.019999,94.4839996 100.784001,94.444 100.52,94.444 C100.007997,94.444 99.6100014,94.647998 99.326,95.056 C99.0419986,95.464002 98.9,96.067996 98.9,96.868 C98.9,97.668004 99.0399986,98.2579981 99.32,98.638 C99.6000014,99.0180019 99.9999974,99.208 100.52,99.208 C100.776001,99.208 101.005999,99.1680004 101.21,99.088 C101.414001,99.0079996 101.635999,98.8760009 101.876,98.692 L102.404,99.448 C101.827997,99.9120023 101.184004,100.144 100.472,100.144 C99.6159957,100.144 98.9420025,99.8560029 98.45,99.28 C97.9579975,98.7039971 97.712,97.9080051 97.712,96.892 C97.712,96.2199966 97.8239989,95.6320025 98.048,95.128 C98.2720011,94.6239975 98.5899979,94.2320014 99.002,93.952 C99.4140021,93.6719986 99.9039972,93.532 100.472,93.532 C100.848002,93.532 101.191998,93.5859995 101.504,93.694 Z M108.536,97.216 L104.504,97.216 C104.552,97.9120035 104.727998,98.4239984 105.032,98.752 C105.336002,99.0800016 105.727998,99.244 106.208,99.244 C106.512002,99.244 106.791999,99.2000004 107.048,99.112 C107.304001,99.0239996 107.571999,98.884001 107.852,98.692 L108.332,99.352 C107.659997,99.8800026 106.924004,100.144 106.124,100.144 C105.243996,100.144 104.558002,99.8560029 104.066,99.28 C103.573998,98.7039971 103.328,97.912005 103.328,96.904 C103.328,96.2479967 103.433999,95.6660025 103.646,95.158 C103.858001,94.6499975 104.161998,94.2520014 104.558,93.964 C104.954002,93.6759986 105.419997,93.532 105.956,93.532 C106.796004,93.532 107.439998,93.8079972 107.888,94.36 C108.336002,94.9120028 108.56,95.6759951 108.56,96.652 C108.56,96.8360009 108.552,97.023999 108.536,97.216 Z M107.468,96.328 C107.468,95.7039969 107.344001,95.2280016 107.096,94.9 C106.847999,94.5719984 106.476002,94.408 105.98,94.408 C105.075995,94.408 104.584,95.0719934 104.504,96.4 L107.468,96.4 L107.468,96.328 Z M113.756,93.604 L113.552,94.684 C113.359999,94.6359998 113.176001,94.612 113,94.612 C112.607998,94.612 112.292001,94.7559986 112.052,95.044 C111.811999,95.3320014 111.624001,95.779997 111.488,96.388 L111.488,100 L110.384,100 L110.384,93.676 L111.332,93.676 L111.44,94.96 C111.608001,94.4879976 111.835999,94.1320012 112.124,93.892 C112.412001,93.6519988 112.747998,93.532 113.132,93.532 C113.356001,93.532 113.563999,93.5559998 113.756,93.604 Z M119.342,94.42 C119.834002,95.012003 120.08,95.8159949 120.08,96.832 C120.08,97.4880033 119.968001,98.0659975 119.744,98.566 C119.519999,99.0660025 119.196002,99.4539986 118.772,99.73 C118.347998,100.006001 117.844003,100.144 117.26,100.144 C116.371996,100.144 115.680002,99.848003 115.184,99.256 C114.687998,98.663997 114.44,97.8600051 114.44,96.844 C114.44,96.1879967 114.551999,95.6100025 114.776,95.11 C115.000001,94.6099975 115.323998,94.2220014 115.748,93.946 C116.172002,93.6699986 116.679997,93.532 117.272,93.532 C118.160004,93.532 118.849998,93.827997 119.342,94.42 Z M115.628,96.844 C115.628,98.452008 116.171995,99.256 117.26,99.256 C118.348005,99.256 118.892,98.4480081 118.892,96.832 C118.892,95.223992 118.352005,94.42 117.272,94.42 C116.175995,94.42 115.628,95.2279919 115.628,96.844 Z M124.784,93.712 C125.128002,93.8320006 125.455998,94.0119988 125.768,94.252 L125.288,94.984 C125.007999,94.783999 124.738001,94.6380005 124.478,94.546 C124.217999,94.4539995 123.944001,94.408 123.656,94.408 C123.295998,94.408 123.012001,94.4819993 122.804,94.63 C122.595999,94.7780007 122.492,94.9799987 122.492,95.236 C122.492,95.4920013 122.589999,95.6919993 122.786,95.836 C122.982001,95.9800007 123.335997,96.1199993 123.848,96.256 C124.552004,96.4320009 125.077998,96.6719985 125.426,96.976 C125.774002,97.2800015 125.948,97.6959974 125.948,98.224 C125.948,98.8480031 125.706002,99.3239984 125.222,99.652 C124.737998,99.9800016 124.148003,100.144 123.452,100.144 C122.491995,100.144 121.696003,99.8680028 121.064,99.316 L121.676,98.62 C122.172002,99.0440021 122.755997,99.256 123.428,99.256 C123.836002,99.256 124.163999,99.1720008 124.412,99.004 C124.660001,98.8359992 124.784,98.6120014 124.784,98.332 C124.784,98.1079989 124.74,97.9260007 124.652,97.786 C124.564,97.6459993 124.414001,97.5260005 124.202,97.426 C123.989999,97.3259995 123.672002,97.2200006 123.248,97.108 C122.575997,96.9319991 122.090001,96.6940015 121.79,96.394 C121.489998,96.0939985 121.34,95.7160023 121.34,95.26 C121.34,94.9319984 121.437999,94.6360013 121.634,94.372 C121.830001,94.1079987 122.101998,93.9020007 122.45,93.754 C122.798002,93.6059993 123.187998,93.532 123.62,93.532 C124.052002,93.532 124.439998,93.5919994 124.784,93.712 Z" id="Gazella-leptoceros" fill="#212121"></path>
            <g id="Rectangle-6">
                <use fill-opacity="0.6" fill="#615FE3" fill-rule="evenodd" xlink:href="#path-4"></use>
                <rect stroke="#7176E2" stroke-width="1" x="10.5" y="91.5" width="9" height="9"></rect>
            </g>
            <path d="M31.598,111.81 C31.9780019,111.958001 32.3559981,112.187998 32.732,112.5 L32.06,113.196 C31.7639985,112.955999 31.4800014,112.784001 31.208,112.68 C30.9359986,112.575999 30.6160018,112.524 30.248,112.524 C29.8239979,112.524 29.4340018,112.637999 29.078,112.866 C28.7219982,113.094001 28.4320011,113.457998 28.208,113.958 C27.9839989,114.458002 27.872,115.091996 27.872,115.86 C27.872,117.020006 28.0619981,117.867997 28.442,118.404 C28.8220019,118.940003 29.3839963,119.208 30.128,119.208 C30.7440031,119.208 31.2679978,119.080001 31.7,118.824 L31.7,116.34 L30.236,116.34 L30.104,115.416 L32.828,115.416 L32.828,119.412 C32.427998,119.652001 32.0020023,119.833999 31.55,119.958 C31.0979977,120.082001 30.5960028,120.144 30.044,120.144 C28.9959948,120.144 28.170003,119.780004 27.566,119.052 C26.961997,118.323996 26.66,117.260007 26.66,115.86 C26.66,114.963996 26.8239984,114.194003 27.152,113.55 C27.4800016,112.905997 27.9159973,112.418002 28.46,112.086 C29.0040027,111.753998 29.5919968,111.588 30.224,111.588 C30.7600027,111.588 31.2179981,111.661999 31.598,111.81 Z M39.104,119.094 C39.1920004,119.218001 39.3239991,119.312 39.5,119.376 L39.248,120.144 C38.9199984,120.104 38.656001,120.012001 38.456,119.868 C38.255999,119.723999 38.1080005,119.500002 38.012,119.196 C37.5879979,119.828003 36.9600042,120.144 36.128,120.144 C35.5039969,120.144 35.0120018,119.968002 34.652,119.616 C34.2919982,119.263998 34.112,118.804003 34.112,118.236 C34.112,117.563997 34.3539976,117.048002 34.838,116.688 C35.3220024,116.327998 36.0079956,116.148 36.896,116.148 L37.868,116.148 L37.868,115.68 C37.868,115.231998 37.7600011,114.912001 37.544,114.72 C37.3279989,114.527999 36.9960022,114.432 36.548,114.432 C36.0839977,114.432 35.5160034,114.543999 34.844,114.768 L34.568,113.964 C35.3520039,113.675999 36.0799966,113.532 36.752,113.532 C37.4960037,113.532 38.0519982,113.713998 38.42,114.078 C38.7880018,114.442002 38.972,114.959997 38.972,115.632 L38.972,118.524 C38.972,118.780001 39.0159996,118.969999 39.104,119.094 Z M37.868,118.332 L37.868,116.88 L37.04,116.88 C35.8719942,116.88 35.288,117.311996 35.288,118.176 C35.288,118.552002 35.3799991,118.835999 35.564,119.028 C35.7480009,119.220001 36.0199982,119.316 36.38,119.316 C37.0120032,119.316 37.5079982,118.988003 37.868,118.332 Z M41.648,119.076 L44.984,119.076 L44.852,120 L40.4,120 L40.4,119.172 L43.688,114.612 L40.676,114.612 L40.676,113.676 L44.948,113.676 L44.948,114.516 L41.648,119.076 Z M51.236,117.216 L47.204,117.216 C47.2520002,117.912003 47.4279985,118.423998 47.732,118.752 C48.0360015,119.080002 48.4279976,119.244 48.908,119.244 C49.2120015,119.244 49.4919987,119.2 49.748,119.112 C50.0040013,119.024 50.2719986,118.884001 50.552,118.692 L51.032,119.352 C50.3599966,119.880003 49.624004,120.144 48.824,120.144 C47.9439956,120.144 47.2580025,119.856003 46.766,119.28 C46.2739975,118.703997 46.028,117.912005 46.028,116.904 C46.028,116.247997 46.1339989,115.666003 46.346,115.158 C46.5580011,114.649997 46.861998,114.252001 47.258,113.964 C47.654002,113.675999 48.1199973,113.532 48.656,113.532 C49.4960042,113.532 50.1399978,113.807997 50.588,114.36 C51.0360022,114.912003 51.26,115.675995 51.26,116.652 C51.26,116.836001 51.2520001,117.023999 51.236,117.216 Z M50.168,116.328 C50.168,115.703997 50.0440012,115.228002 49.796,114.9 C49.5479988,114.571998 49.1760025,114.408 48.68,114.408 C47.7759955,114.408 47.2840004,115.071993 47.204,116.4 L50.168,116.4 L50.168,116.328 Z M54.218,119.112 C54.2780003,119.192 54.3799993,119.232 54.524,119.232 C54.6760008,119.232 54.8119994,119.208 54.932,119.16 L55.22,119.928 C54.9239985,120.072001 54.6120016,120.144 54.284,120.144 C53.875998,120.144 53.5640011,120.026001 53.348,119.79 C53.1319989,119.553999 53.024,119.208002 53.024,118.752 L53.024,111.132 L54.128,111 L54.128,118.728 C54.128,118.904001 54.1579997,119.032 54.218,119.112 Z M57.734,119.112 C57.7940003,119.192 57.8959993,119.232 58.04,119.232 C58.1920008,119.232 58.3279994,119.208 58.448,119.16 L58.736,119.928 C58.4399985,120.072001 58.1280016,120.144 57.8,120.144 C57.391998,120.144 57.0800011,120.026001 56.864,119.79 C56.6479989,119.553999 56.54,119.208002 56.54,118.752 L56.54,111.132 L57.644,111 L57.644,118.728 C57.644,118.904001 57.6739997,119.032 57.734,119.112 Z M64.508,119.094 C64.5960004,119.218001 64.7279991,119.312 64.904,119.376 L64.652,120.144 C64.3239984,120.104 64.060001,120.012001 63.86,119.868 C63.659999,119.723999 63.5120005,119.500002 63.416,119.196 C62.9919979,119.828003 62.3640042,120.144 61.532,120.144 C60.9079969,120.144 60.4160018,119.968002 60.056,119.616 C59.6959982,119.263998 59.516,118.804003 59.516,118.236 C59.516,117.563997 59.7579976,117.048002 60.242,116.688 C60.7260024,116.327998 61.4119956,116.148 62.3,116.148 L63.272,116.148 L63.272,115.68 C63.272,115.231998 63.1640011,114.912001 62.948,114.72 C62.7319989,114.527999 62.4000022,114.432 61.952,114.432 C61.4879977,114.432 60.9200034,114.543999 60.248,114.768 L59.972,113.964 C60.7560039,113.675999 61.4839966,113.532 62.156,113.532 C62.9000037,113.532 63.4559982,113.713998 63.824,114.078 C64.1920018,114.442002 64.376,114.959997 64.376,115.632 L64.376,118.524 C64.376,118.780001 64.4199996,118.969999 64.508,119.094 Z M63.272,118.332 L63.272,116.88 L62.444,116.88 C61.2759942,116.88 60.692,117.311996 60.692,118.176 C60.692,118.552002 60.7839991,118.835999 60.968,119.028 C61.1520009,119.220001 61.4239982,119.316 61.784,119.316 C62.4160032,119.316 62.9119982,118.988003 63.272,118.332 Z M74.72,120 L73.748,120 L73.64,119.124 C73.431999,119.444002 73.1720016,119.693999 72.86,119.874 C72.5479984,120.054001 72.2000019,120.144 71.816,120.144 C71.0639962,120.144 70.4780021,119.848003 70.058,119.256 C69.6379979,118.663997 69.428,117.868005 69.428,116.868 C69.428,116.219997 69.527999,115.644003 69.728,115.14 C69.928001,114.635997 70.2159981,114.242001 70.592,113.958 C70.9680019,113.673999 71.4079975,113.532 71.912,113.532 C72.5600032,113.532 73.1279976,113.791997 73.616,114.312 L73.616,111 L74.72,111.132 L74.72,120 Z M72.92,119.034 C73.1600012,118.877999 73.3919989,118.644002 73.616,118.332 L73.616,115.236 C73.407999,114.963999 73.1860012,114.758001 72.95,114.618 C72.7139988,114.477999 72.4480015,114.408 72.152,114.408 C71.6639976,114.408 71.2860013,114.611998 71.018,115.02 C70.7499987,115.428002 70.616,116.035996 70.616,116.844 C70.616,117.660004 70.7399988,118.267998 70.988,118.668 C71.2360012,119.068002 71.5919977,119.268 72.056,119.268 C72.3920017,119.268 72.6799988,119.190001 72.92,119.034 Z M81.326,114.42 C81.8180025,115.012003 82.064,115.815995 82.064,116.832 C82.064,117.488003 81.9520011,118.065997 81.728,118.566 C81.5039989,119.066002 81.1800021,119.453999 80.756,119.73 C80.3319979,120.006001 79.8280029,120.144 79.244,120.144 C78.3559956,120.144 77.6640025,119.848003 77.168,119.256 C76.6719975,118.663997 76.424,117.860005 76.424,116.844 C76.424,116.187997 76.5359989,115.610002 76.76,115.11 C76.9840011,114.609997 77.3079979,114.222001 77.732,113.946 C78.1560021,113.669999 78.663997,113.532 79.256,113.532 C80.1440044,113.532 80.8339975,113.827997 81.326,114.42 Z M77.612,116.844 C77.612,118.452008 78.1559946,119.256 79.244,119.256 C80.3320054,119.256 80.876,118.448008 80.876,116.832 C80.876,115.223992 80.3360054,114.42 79.256,114.42 C78.1599945,114.42 77.612,115.227992 77.612,116.844 Z M87.26,113.604 L87.056,114.684 C86.863999,114.636 86.6800009,114.612 86.504,114.612 C86.111998,114.612 85.7960012,114.755999 85.556,115.044 C85.3159988,115.332001 85.1280007,115.779997 84.992,116.388 L84.992,120 L83.888,120 L83.888,113.676 L84.836,113.676 L84.944,114.96 C85.1120008,114.487998 85.3399986,114.132001 85.628,113.892 C85.9160014,113.651999 86.2519981,113.532 86.636,113.532 C86.8600011,113.532 87.067999,113.556 87.26,113.604 Z M91.736,113.694 C92.0480016,113.802001 92.3479986,113.975999 92.636,114.216 L92.096,114.936 C91.8799989,114.767999 91.668001,114.644 91.46,114.564 C91.251999,114.484 91.0160013,114.444 90.752,114.444 C90.2399974,114.444 89.8420014,114.647998 89.558,115.056 C89.2739986,115.464002 89.132,116.067996 89.132,116.868 C89.132,117.668004 89.2719986,118.257998 89.552,118.638 C89.8320014,119.018002 90.2319974,119.208 90.752,119.208 C91.0080013,119.208 91.237999,119.168 91.442,119.088 C91.646001,119.008 91.8679988,118.876001 92.108,118.692 L92.636,119.448 C92.0599971,119.912002 91.4160036,120.144 90.704,120.144 C89.8479957,120.144 89.1740025,119.856003 88.682,119.28 C88.1899975,118.703997 87.944,117.908005 87.944,116.892 C87.944,116.219997 88.0559989,115.632003 88.28,115.128 C88.5040011,114.623997 88.8219979,114.232001 89.234,113.952 C89.6460021,113.671999 90.1359972,113.532 90.704,113.532 C91.0800019,113.532 91.4239984,113.585999 91.736,113.694 Z M98.528,119.094 C98.6160004,119.218001 98.7479991,119.312 98.924,119.376 L98.672,120.144 C98.3439984,120.104 98.080001,120.012001 97.88,119.868 C97.679999,119.723999 97.5320005,119.500002 97.436,119.196 C97.0119979,119.828003 96.3840042,120.144 95.552,120.144 C94.9279969,120.144 94.4360018,119.968002 94.076,119.616 C93.7159982,119.263998 93.536,118.804003 93.536,118.236 C93.536,117.563997 93.7779976,117.048002 94.262,116.688 C94.7460024,116.327998 95.4319956,116.148 96.32,116.148 L97.292,116.148 L97.292,115.68 C97.292,115.231998 97.1840011,114.912001 96.968,114.72 C96.7519989,114.527999 96.4200022,114.432 95.972,114.432 C95.5079977,114.432 94.9400034,114.543999 94.268,114.768 L93.992,113.964 C94.7760039,113.675999 95.5039966,113.532 96.176,113.532 C96.9200037,113.532 97.4759982,113.713998 97.844,114.078 C98.2120018,114.442002 98.396,114.959997 98.396,115.632 L98.396,118.524 C98.396,118.780001 98.4399996,118.969999 98.528,119.094 Z M97.292,118.332 L97.292,116.88 L96.464,116.88 C95.2959942,116.88 94.712,117.311996 94.712,118.176 C94.712,118.552002 94.8039991,118.835999 94.988,119.028 C95.1720009,119.220001 95.4439982,119.316 95.804,119.316 C96.4360032,119.316 96.9319982,118.988003 97.292,118.332 Z M103.544,113.712 C103.888002,113.832001 104.215998,114.011999 104.528,114.252 L104.048,114.984 C103.767999,114.783999 103.498001,114.638 103.238,114.546 C102.977999,114.454 102.704001,114.408 102.416,114.408 C102.055998,114.408 101.772001,114.481999 101.564,114.63 C101.355999,114.778001 101.252,114.979999 101.252,115.236 C101.252,115.492001 101.349999,115.691999 101.546,115.836 C101.742001,115.980001 102.095997,116.119999 102.608,116.256 C103.312004,116.432001 103.837998,116.671998 104.186,116.976 C104.534002,117.280002 104.708,117.695997 104.708,118.224 C104.708,118.848003 104.466002,119.323998 103.982,119.652 C103.497998,119.980002 102.908003,120.144 102.212,120.144 C101.251995,120.144 100.456003,119.868003 99.824,119.316 L100.436,118.62 C100.932002,119.044002 101.515997,119.256 102.188,119.256 C102.596002,119.256 102.923999,119.172001 103.172,119.004 C103.420001,118.835999 103.544,118.612001 103.544,118.332 C103.544,118.107999 103.5,117.926001 103.412,117.786 C103.324,117.645999 103.174001,117.526 102.962,117.426 C102.749999,117.325999 102.432002,117.220001 102.008,117.108 C101.335997,116.931999 100.850001,116.694001 100.55,116.394 C100.249998,116.093998 100.1,115.716002 100.1,115.26 C100.1,114.931998 100.197999,114.636001 100.394,114.372 C100.590001,114.107999 100.861998,113.902001 101.21,113.754 C101.558002,113.605999 101.947998,113.532 102.38,113.532 C102.812002,113.532 103.199998,113.591999 103.544,113.712 Z" id="Gazella-dorcas" fill="#212121"></path>
            <g id="Rectangle-6">
                <use fill-opacity="0.6" fill="#9EF0D5" fill-rule="evenodd" xlink:href="#path-5"></use>
                <rect stroke="#27EBA3" stroke-width="1" x="10.5" y="111.5" width="9" height="9"></rect>
            </g>
            <path d="M12.1,18.08 L11.584,20 L9.94,20 L12.52,11.708 L14.476,11.708 L17.044,20 L15.364,20 L14.848,18.08 L12.1,18.08 Z M13.468,12.92 L12.412,16.88 L14.536,16.88 L13.468,12.92 Z M22.63,13.982 C22.9460016,14.3220017 23.104,14.795997 23.104,15.404 L23.104,20 L21.568,20 L21.568,15.644 C21.568,15.2679981 21.5020007,15.0040008 21.37,14.852 C21.2379993,14.6999992 21.0440013,14.624 20.788,14.624 C20.5239987,14.624 20.2860011,14.7059992 20.074,14.87 C19.8619989,15.0340008 19.656001,15.2719984 19.456,15.584 L19.456,20 L17.92,20 L17.92,13.652 L19.252,13.652 L19.372,14.492 C19.9000026,13.8119966 20.5439962,13.472 21.304,13.472 C21.8720028,13.472 22.3139984,13.6419983 22.63,13.982 Z M27.778,20.06 C27.5019986,20.1400004 27.2200014,20.18 26.932,20.18 C26.3079969,20.172 25.8340016,19.9940017 25.51,19.646 C25.1859984,19.2979983 25.024,18.7840034 25.024,18.104 L25.024,14.756 L24.028,14.756 L24.028,13.652 L25.024,13.652 L25.024,12.248 L26.56,12.068 L26.56,13.652 L28.036,13.652 L27.88,14.756 L26.56,14.756 L26.56,18.068 C26.56,18.3800016 26.6139995,18.6039993 26.722,18.74 C26.8300005,18.8760007 26.9999988,18.944 27.232,18.944 C27.4720012,18.944 27.7239987,18.8640008 27.988,18.704 L28.528,19.7 C28.3039989,19.8600008 28.0540014,19.9799996 27.778,20.06 Z M34.444,17.3 L30.46,17.3 C30.5160003,17.9160031 30.6779987,18.3559987 30.946,18.62 C31.2140013,18.8840013 31.5719978,19.016 32.02,19.016 C32.3000014,19.016 32.5639988,18.9700005 32.812,18.878 C33.0600012,18.7859995 33.3239986,18.644001 33.604,18.452 L34.24,19.328 C33.5359965,19.8960028 32.7520043,20.18 31.888,20.18 C30.9199952,20.18 30.1740026,19.884003 29.65,19.292 C29.1259974,18.699997 28.864,17.8920051 28.864,16.868 C28.864,16.2199968 28.9759989,15.6380026 29.2,15.122 C29.4240011,14.6059974 29.7479979,14.2020015 30.172,13.91 C30.5960021,13.6179985 31.0999971,13.472 31.684,13.472 C32.5720044,13.472 33.2599976,13.7539972 33.748,14.318 C34.2360024,14.8820028 34.48,15.667995 34.48,16.676 C34.48,16.7560004 34.4680001,16.9639983 34.444,17.3 Z M32.956,16.232 C32.956,15.1199944 32.5440041,14.564 31.72,14.564 C31.3439981,14.564 31.0500011,14.7019986 30.838,14.978 C30.6259989,15.2540014 30.5000002,15.695997 30.46,16.304 L32.956,16.304 L32.956,16.232 Z M37.456,18.83 C37.5120003,18.9060004 37.6039994,18.944 37.732,18.944 C37.8520006,18.944 37.9719994,18.9240002 38.092,18.884 L38.416,19.964 C38.0719983,20.1080007 37.7080019,20.18 37.324,20.18 C36.8439976,20.18 36.4760013,20.0420014 36.22,19.766 C35.9639987,19.4899986 35.836,19.0880026 35.836,18.56 L35.836,11.108 L37.372,10.94 L37.372,18.452 C37.372,18.6280009 37.3999997,18.7539996 37.456,18.83 Z M44.098,14.366 C44.6220026,14.962003 44.884,15.7799948 44.884,16.82 C44.884,17.4840033 44.7640012,18.0699975 44.524,18.578 C44.2839988,19.0860025 43.9400022,19.4799986 43.492,19.76 C43.0439978,20.0400014 42.5120031,20.18 41.896,20.18 C40.9599953,20.18 40.2280026,19.882003 39.7,19.286 C39.1719974,18.689997 38.908,17.8680052 38.908,16.82 C38.908,16.1559967 39.0279988,15.5720025 39.268,15.068 C39.5080012,14.5639975 39.8539977,14.1720014 40.306,13.892 C40.7580023,13.6119986 41.2919969,13.472 41.908,13.472 C42.8440047,13.472 43.5739974,13.769997 44.098,14.366 Z M40.528,16.82 C40.528,17.5720038 40.6419989,18.1259982 40.87,18.482 C41.0980011,18.8380018 41.4399977,19.016 41.896,19.016 C42.3520023,19.016 42.6939989,18.8360018 42.922,18.476 C43.1500011,18.1159982 43.264,17.5640037 43.264,16.82 C43.264,16.0759963 43.1500011,15.5260018 42.922,15.17 C42.6939989,14.8139982 42.3560022,14.636 41.908,14.636 C40.9879954,14.636 40.528,15.3639927 40.528,16.82 Z M51.382,14.348 C51.7700019,14.9320029 51.964,15.7519947 51.964,16.808 C51.964,17.4640033 51.866001,18.0459975 51.67,18.554 C51.473999,19.0620025 51.1860019,19.4599986 50.806,19.748 C50.4259981,20.0360014 49.9760026,20.18 49.456,20.18 C48.7839966,20.18 48.252002,19.9480023 47.86,19.484 L47.86,22.448 L46.324,22.616 L46.324,13.652 L47.668,13.652 L47.752,14.432 C47.9920012,14.1119984 48.2739984,13.8720008 48.598,13.712 C48.9220016,13.5519992 49.2519983,13.472 49.588,13.472 C50.396004,13.472 50.9939981,13.7639971 51.382,14.348 Z M50.356,16.82 C50.356,16.0359961 50.254001,15.4740017 50.05,15.134 C49.845999,14.7939983 49.540002,14.624 49.132,14.624 C48.8839988,14.624 48.6500011,14.7019992 48.43,14.858 C48.2099989,15.0140008 48.0200008,15.2239987 47.86,15.488 L47.86,18.344 C48.1560015,18.7840022 48.5439976,19.004 49.024,19.004 C49.9120044,19.004 50.356,18.2760073 50.356,16.82 Z M58.648,17.3 L54.664,17.3 C54.7200003,17.9160031 54.8819987,18.3559987 55.15,18.62 C55.4180013,18.8840013 55.7759978,19.016 56.224,19.016 C56.5040014,19.016 56.7679988,18.9700005 57.016,18.878 C57.2640012,18.7859995 57.5279986,18.644001 57.808,18.452 L58.444,19.328 C57.7399965,19.8960028 56.9560043,20.18 56.092,20.18 C55.1239952,20.18 54.3780026,19.884003 53.854,19.292 C53.3299974,18.699997 53.068,17.8920051 53.068,16.868 C53.068,16.2199968 53.1799989,15.6380026 53.404,15.122 C53.6280011,14.6059974 53.9519979,14.2020015 54.376,13.91 C54.8000021,13.6179985 55.3039971,13.472 55.888,13.472 C56.7760044,13.472 57.4639976,13.7539972 57.952,14.318 C58.4400024,14.8820028 58.684,15.667995 58.684,16.676 C58.684,16.7560004 58.6720001,16.9639983 58.648,17.3 Z M57.16,16.232 C57.16,15.1199944 56.7480041,14.564 55.924,14.564 C55.5479981,14.564 55.2540011,14.7019986 55.042,14.978 C54.8299989,15.2540014 54.7040002,15.695997 54.664,16.304 L57.16,16.304 L57.16,16.232 Z M67.36,14.228 L66.76,15.152 C66.2319974,14.7919982 65.7120026,14.612 65.2,14.612 C64.8799984,14.612 64.6340009,14.6699994 64.462,14.786 C64.2899991,14.9020006 64.204,15.055999 64.204,15.248 C64.204,15.3920007 64.2399996,15.5119995 64.312,15.608 C64.3840004,15.7040005 64.5139991,15.7939996 64.702,15.878 C64.8900009,15.9620004 65.1679982,16.0559995 65.536,16.16 C66.2240034,16.3440009 66.7339983,16.5879985 67.066,16.892 C67.3980017,17.1960015 67.564,17.6199973 67.564,18.164 C67.564,18.7960032 67.3080026,19.2899982 66.796,19.646 C66.2839974,20.0020018 65.6480038,20.18 64.888,20.18 C64.3679974,20.18 63.8940021,20.1000008 63.466,19.94 C63.0379979,19.7799992 62.6680016,19.5600014 62.356,19.28 L63.136,18.404 C63.6640026,18.8280021 64.231997,19.04 64.84,19.04 C65.1840017,19.04 65.459999,18.9720007 65.668,18.836 C65.876001,18.6999993 65.98,18.5200011 65.98,18.296 C65.98,18.103999 65.9420004,17.9540005 65.866,17.846 C65.7899996,17.7379995 65.654001,17.6400004 65.458,17.552 C65.261999,17.4639996 64.9560021,17.3600006 64.54,17.24 C63.8919968,17.0639991 63.4160015,16.8180016 63.112,16.502 C62.8079985,16.1859984 62.656,15.7920024 62.656,15.32 C62.656,14.9679982 62.757999,14.6520014 62.962,14.372 C63.166001,14.0919986 63.4539981,13.8720008 63.826,13.712 C64.1980019,13.5519992 64.6239976,13.472 65.104,13.472 C65.9600043,13.472 66.7119968,13.7239975 67.36,14.228 Z M73.87,14.348 C74.2580019,14.9320029 74.452,15.7519947 74.452,16.808 C74.452,17.4640033 74.354001,18.0459975 74.158,18.554 C73.961999,19.0620025 73.6740019,19.4599986 73.294,19.748 C72.9139981,20.0360014 72.4640026,20.18 71.944,20.18 C71.2719966,20.18 70.740002,19.9480023 70.348,19.484 L70.348,22.448 L68.812,22.616 L68.812,13.652 L70.156,13.652 L70.24,14.432 C70.4800012,14.1119984 70.7619984,13.8720008 71.086,13.712 C71.4100016,13.5519992 71.7399983,13.472 72.076,13.472 C72.884004,13.472 73.4819981,13.7639971 73.87,14.348 Z M72.844,16.82 C72.844,16.0359961 72.742001,15.4740017 72.538,15.134 C72.333999,14.7939983 72.028002,14.624 71.62,14.624 C71.3719988,14.624 71.1380011,14.7019992 70.918,14.858 C70.6979989,15.0140008 70.5080008,15.2239987 70.348,15.488 L70.348,18.344 C70.6440015,18.7840022 71.0319976,19.004 71.512,19.004 C72.4000044,19.004 72.844,18.2760073 72.844,16.82 Z M81.136,17.3 L77.152,17.3 C77.2080003,17.9160031 77.3699987,18.3559987 77.638,18.62 C77.9060013,18.8840013 78.2639978,19.016 78.712,19.016 C78.9920014,19.016 79.2559988,18.9700005 79.504,18.878 C79.7520012,18.7859995 80.0159986,18.644001 80.296,18.452 L80.932,19.328 C80.2279965,19.8960028 79.4440043,20.18 78.58,20.18 C77.6119952,20.18 76.8660026,19.884003 76.342,19.292 C75.8179974,18.699997 75.556,17.8920051 75.556,16.868 C75.556,16.2199968 75.6679989,15.6380026 75.892,15.122 C76.1160011,14.6059974 76.4399979,14.2020015 76.864,13.91 C77.2880021,13.6179985 77.7919971,13.472 78.376,13.472 C79.2640044,13.472 79.9519976,13.7539972 80.44,14.318 C80.9280024,14.8820028 81.172,15.667995 81.172,16.676 C81.172,16.7560004 81.1600001,16.9639983 81.136,17.3 Z M79.648,16.232 C79.648,15.1199944 79.2360041,14.564 78.412,14.564 C78.0359981,14.564 77.7420011,14.7019986 77.53,14.978 C77.3179989,15.2540014 77.1920002,15.695997 77.152,16.304 L79.648,16.304 L79.648,16.232 Z M86.266,13.652 C86.5980017,13.7720006 86.9119985,13.9599987 87.208,14.216 L86.512,15.152 C86.303999,14.9919992 86.100001,14.8740004 85.9,14.798 C85.699999,14.7219996 85.4800012,14.684 85.24,14.684 C84.2879952,14.684 83.812,15.4079928 83.812,16.856 C83.812,17.5920037 83.9359988,18.1219984 84.184,18.446 C84.4320012,18.7700016 84.7839977,18.932 85.24,18.932 C85.4720012,18.932 85.6819991,18.8940004 85.87,18.818 C86.0580009,18.7419996 86.2679988,18.6160009 86.5,18.44 L87.208,19.448 C86.607997,19.9360024 85.9240038,20.18 85.156,20.18 C84.547997,20.18 84.0200022,20.0460013 83.572,19.778 C83.1239978,19.5099987 82.7800012,19.1280025 82.54,18.632 C82.2999988,18.1359975 82.18,17.5520034 82.18,16.88 C82.18,16.2079966 82.2999988,15.6140026 82.54,15.098 C82.7800012,14.5819974 83.1239978,14.1820014 83.572,13.898 C84.0200022,13.6139986 84.543997,13.472 85.144,13.472 C85.5600021,13.472 85.9339983,13.5319994 86.266,13.652 Z M88.324,20 L88.324,13.652 L89.86,13.652 L89.86,20 L88.324,20 Z M89.782,10.706 C89.9620009,10.8860009 90.052,11.1079987 90.052,11.372 C90.052,11.6360013 89.9620009,11.8559991 89.782,12.032 C89.6019991,12.2080009 89.3680014,12.296 89.08,12.296 C88.7999986,12.296 88.5700009,12.2080009 88.39,12.032 C88.2099991,11.8559991 88.12,11.6360013 88.12,11.372 C88.12,11.1079987 88.2099991,10.8860009 88.39,10.706 C88.5700009,10.5259991 88.7999986,10.436 89.08,10.436 C89.3680014,10.436 89.6019991,10.5259991 89.782,10.706 Z M96.88,17.3 L92.896,17.3 C92.9520003,17.9160031 93.1139987,18.3559987 93.382,18.62 C93.6500013,18.8840013 94.0079978,19.016 94.456,19.016 C94.7360014,19.016 94.9999988,18.9700005 95.248,18.878 C95.4960012,18.7859995 95.7599986,18.644001 96.04,18.452 L96.676,19.328 C95.9719965,19.8960028 95.1880043,20.18 94.324,20.18 C93.3559952,20.18 92.6100026,19.884003 92.086,19.292 C91.5619974,18.699997 91.3,17.8920051 91.3,16.868 C91.3,16.2199968 91.4119989,15.6380026 91.636,15.122 C91.8600011,14.6059974 92.1839979,14.2020015 92.608,13.91 C93.0320021,13.6179985 93.5359971,13.472 94.12,13.472 C95.0080044,13.472 95.6959976,13.7539972 96.184,14.318 C96.6720024,14.8820028 96.916,15.667995 96.916,16.676 C96.916,16.7560004 96.9040001,16.9639983 96.88,17.3 Z M95.392,16.232 C95.392,15.1199944 94.9800041,14.564 94.156,14.564 C93.7799981,14.564 93.4860011,14.7019986 93.274,14.978 C93.0619989,15.2540014 92.9360002,15.695997 92.896,16.304 L95.392,16.304 L95.392,16.232 Z M102.592,14.228 L101.992,15.152 C101.463997,14.7919982 100.944003,14.612 100.432,14.612 C100.111998,14.612 99.8660009,14.6699994 99.694,14.786 C99.5219991,14.9020006 99.436,15.055999 99.436,15.248 C99.436,15.3920007 99.4719996,15.5119995 99.544,15.608 C99.6160004,15.7040005 99.7459991,15.7939996 99.934,15.878 C100.122001,15.9620004 100.399998,16.0559995 100.768,16.16 C101.456003,16.3440009 101.965998,16.5879985 102.298,16.892 C102.630002,17.1960015 102.796,17.6199973 102.796,18.164 C102.796,18.7960032 102.540003,19.2899982 102.028,19.646 C101.515997,20.0020018 100.880004,20.18 100.12,20.18 C99.5999974,20.18 99.1260021,20.1000008 98.698,19.94 C98.2699979,19.7799992 97.9000016,19.5600014 97.588,19.28 L98.368,18.404 C98.8960026,18.8280021 99.463997,19.04 100.072,19.04 C100.416002,19.04 100.691999,18.9720007 100.9,18.836 C101.108001,18.6999993 101.212,18.5200011 101.212,18.296 C101.212,18.103999 101.174,17.9540005 101.098,17.846 C101.022,17.7379995 100.886001,17.6400004 100.69,17.552 C100.493999,17.4639996 100.188002,17.3600006 99.772,17.24 C99.1239968,17.0639991 98.6480015,16.8180016 98.344,16.502 C98.0399985,16.1859984 97.888,15.7920024 97.888,15.32 C97.888,14.9679982 97.989999,14.6520014 98.194,14.372 C98.398001,14.0919986 98.6859981,13.8720008 99.058,13.712 C99.4300019,13.5519992 99.8559976,13.472 100.336,13.472 C101.192004,13.472 101.943997,13.7239975 102.592,14.228 Z" id="Antelope-species" fill="#212121"></path>
        </g>
    </g>
</svg>