<?xml version="1.0" encoding="UTF-8" standalone="no"?>
<svg width="137px" height="132px" viewBox="0 0 137 132" version="1.1" xmlns="http://www.w3.org/2000/svg" xmlns:xlink="http://www.w3.org/1999/xlink">
    <!-- Generator: Sketch 47.1 (45422) - http://www.bohemiancoding.com/sketch -->
    <title>infograph/legend_map-antelope</title>
    <desc>Created with Sketch.</desc>
    <defs>
        <rect id="path-1" x="10" y="31" width="10" height="10"></rect>
        <rect id="path-2" x="10" y="51" width="10" height="10"></rect>
        <rect id="path-3" x="10" y="71" width="10" height="10"></rect>
        <rect id="path-4" x="10" y="91" width="10" height="10"></rect>
        <rect id="path-5" x="10" y="111" width="10" height="10"></rect>
    </defs>
    <g id="Symbols" stroke="none" stroke-width="1" fill="none" fill-rule="evenodd">
        <g id="infograph/legend_map-antelope">
            <rect id="Rectangle-2" fill-opacity="0.5" fill="#FFFFFF" x="0" y="0" width="137" height="132" rx="4"></rect>
            <path d="M32.21,31.828 C32.5980019,31.9880008 32.9559984,32.2239984 33.284,32.536 L32.54,33.172 C32.2839987,32.9399988 32.0300013,32.7740005 31.778,32.674 C31.5259987,32.5739995 31.2240018,32.524 30.872,32.524 C30.1999966,32.524 29.6420022,32.7499977 29.198,33.202 C28.7539978,33.6540023 28.428001,34.2259965 28.22,34.918 C28.011999,35.6100035 27.908,36.3159964 27.908,37.036 C27.908,37.7880038 28.0639984,38.3379983 28.376,38.686 C28.6880016,39.0340017 29.1559969,39.208 29.78,39.208 C30.3560029,39.208 30.8799976,39.0680014 31.352,38.788 L31.712,36.34 L30.272,36.34 L30.272,35.416 L32.96,35.416 L32.42,39.352 C32.0039979,39.6160013 31.5720022,39.8139993 31.124,39.946 C30.6759978,40.0780007 30.1760028,40.144 29.624,40.144 C28.7199955,40.144 28.0100026,39.8660028 27.494,39.31 C26.9779974,38.7539972 26.72,37.9480053 26.72,36.892 C26.72,36.0439958 26.8699985,35.2140041 27.17,34.402 C27.4700015,33.5899959 27.9319969,32.9180027 28.556,32.386 C29.1800031,31.8539973 29.9479954,31.588 30.86,31.588 C31.3720026,31.588 31.8219981,31.6679992 32.21,31.828 Z M38.588,33.652 C38.9400018,33.7320004 39.319998,33.871999 39.728,34.072 L39.044,38.56 C39.0279999,38.6880006 39.02,38.7719998 39.02,38.812 C39.02,38.9720008 39.0539997,39.0939996 39.122,39.178 C39.1900003,39.2620004 39.2919993,39.3319997 39.428,39.388 L39.116,40.144 C38.7799983,40.1039998 38.5200009,40.0000008 38.336,39.832 C38.1519991,39.6639992 38.0400002,39.4160016 38,39.088 C37.7439987,39.4160016 37.4560016,39.6739991 37.136,39.862 C36.8159984,40.0500009 36.4760018,40.144 36.116,40.144 C35.4679968,40.144 34.9700017,39.9260022 34.622,39.49 C34.2739983,39.0539978 34.1,38.4640037 34.1,37.72 C34.1,37.0799968 34.2179988,36.4400032 34.454,35.8 C34.6900012,35.1599968 35.0599975,34.6220022 35.564,34.186 C36.0680025,33.7499978 36.7039962,33.532 37.472,33.532 C37.864002,33.532 38.2359982,33.5719996 38.588,33.652 Z M36.242,34.918 C35.9099983,35.2580017 35.6660008,35.6819975 35.51,36.19 C35.3539992,36.6980025 35.276,37.2119974 35.276,37.732 C35.276,38.7560051 35.6439963,39.268 36.38,39.268 C36.6920016,39.268 36.9759987,39.168001 37.232,38.968 C37.4880013,38.767999 37.7559986,38.4800019 38.036,38.104 L38.564,34.612 C38.3879991,34.5319996 38.2220008,34.4780001 38.066,34.45 C37.9099992,34.4219999 37.7200011,34.408 37.496,34.408 C36.9919975,34.408 36.5740017,34.5779983 36.242,34.918 Z M41.636,39.076 L44.84,39.076 L44.588,40 L40.172,40 L40.28,39.172 L44.084,34.612 L41.204,34.612 L41.336,33.676 L45.56,33.676 L45.452,34.516 L41.636,39.076 Z M50.3,36.898 C49.5799964,37.2540018 48.5720065,37.5039993 47.276,37.648 C47.3000001,38.6960052 47.7559956,39.22 48.644,39.22 C48.9400015,39.22 49.2239986,39.1720005 49.496,39.076 C49.7680014,38.9799995 50.0479986,38.832001 50.336,38.632 L50.804,39.376 C50.0919964,39.8880026 49.336004,40.144 48.536,40.144 C47.7679962,40.144 47.1740021,39.9180023 46.754,39.466 C46.3339979,39.0139977 46.124,38.384004 46.124,37.576 C46.124,36.9439968 46.2339989,36.3180031 46.454,35.698 C46.6740011,35.0779969 47.0279976,34.5620021 47.516,34.15 C48.0040024,33.7379979 48.6239962,33.532 49.376,33.532 C50.0160032,33.532 50.5099983,33.6879984 50.858,34 C51.2060017,34.3120016 51.38,34.6919978 51.38,35.14 C51.38,35.9560041 51.0200036,36.5419982 50.3,36.898 Z M49.526,36.292 C49.9940023,36.0599988 50.228,35.6880026 50.228,35.176 C50.228,34.983999 50.1600007,34.8080008 50.024,34.648 C49.8879993,34.4879992 49.6680015,34.408 49.364,34.408 C48.755997,34.408 48.2880016,34.6399977 47.96,35.104 C47.6319984,35.5680023 47.4240004,36.1359966 47.336,36.808 C48.328005,36.6959994 49.0579977,36.5240012 49.526,36.292 Z M53.648,38.92 C53.648,39.0320006 53.6719998,39.1119998 53.72,39.16 C53.7680002,39.2080002 53.8439995,39.232 53.948,39.232 C54.0840007,39.232 54.2279992,39.2000003 54.38,39.136 L54.608,39.94 C54.3039985,40.0760007 54.0120014,40.144 53.732,40.144 C53.3639982,40.144 53.078001,40.042001 52.874,39.838 C52.669999,39.633999 52.568,39.336002 52.568,38.944 C52.568,38.8799997 52.5759999,38.7600009 52.592,38.584 L53.648,31.132 L54.752,31 L53.66,38.764 L53.648,38.92 Z M57.104,38.92 C57.104,39.0320006 57.1279998,39.1119998 57.176,39.16 C57.2240002,39.2080002 57.2999995,39.232 57.404,39.232 C57.5400007,39.232 57.6839992,39.2000003 57.836,39.136 L58.064,39.94 C57.7599985,40.0760007 57.4680014,40.144 57.188,40.144 C56.8199982,40.144 56.534001,40.042001 56.33,39.838 C56.125999,39.633999 56.024,39.336002 56.024,38.944 C56.024,38.8799997 56.0319999,38.7600009 56.048,38.584 L57.104,31.132 L58.208,31 L57.116,38.764 L57.104,38.92 Z M63.656,33.652 C64.0080018,33.7320004 64.387998,33.871999 64.796,34.072 L64.112,38.56 C64.0959999,38.6880006 64.088,38.7719998 64.088,38.812 C64.088,38.9720008 64.1219997,39.0939996 64.19,39.178 C64.2580003,39.2620004 64.3599993,39.3319997 64.496,39.388 L64.184,40.144 C63.8479983,40.1039998 63.5880009,40.0000008 63.404,39.832 C63.2199991,39.6639992 63.1080002,39.4160016 63.068,39.088 C62.8119987,39.4160016 62.5240016,39.6739991 62.204,39.862 C61.8839984,40.0500009 61.5440018,40.144 61.184,40.144 C60.5359968,40.144 60.0380017,39.9260022 59.69,39.49 C59.3419983,39.0539978 59.168,38.4640037 59.168,37.72 C59.168,37.0799968 59.2859988,36.4400032 59.522,35.8 C59.7580012,35.1599968 60.1279975,34.6220022 60.632,34.186 C61.1360025,33.7499978 61.7719962,33.532 62.54,33.532 C62.932002,33.532 63.3039982,33.5719996 63.656,33.652 Z M61.31,34.918 C60.9779983,35.2580017 60.7340008,35.6819975 60.578,36.19 C60.4219992,36.6980025 60.344,37.2119974 60.344,37.732 C60.344,38.7560051 60.7119963,39.268 61.448,39.268 C61.7600016,39.268 62.0439987,39.168001 62.3,38.968 C62.5560013,38.767999 62.8239986,38.4800019 63.104,38.104 L63.632,34.612 C63.4559991,34.5319996 63.2900008,34.4780001 63.134,34.45 C62.9779992,34.4219999 62.7880011,34.408 62.564,34.408 C62.0599975,34.408 61.6420017,34.5779983 61.31,34.918 Z M77.456,33.958 C77.7120013,34.2420014 77.84,34.6239976 77.84,35.104 C77.84,35.2240006 77.8280001,35.3559993 77.804,35.5 L77.168,40 L76.076,40 L76.7,35.584 C76.7240001,35.4399993 76.736,35.3160005 76.736,35.212 C76.736,34.9239986 76.6740006,34.7260005 76.55,34.618 C76.4259994,34.5099995 76.2560011,34.456 76.04,34.456 C75.7359985,34.456 75.4360015,34.6139984 75.14,34.93 C74.8439985,35.2460016 74.5480015,35.6639974 74.252,36.184 L73.712,40 L72.62,40 L73.244,35.584 C73.2680001,35.4399993 73.28,35.3160005 73.28,35.212 C73.28,34.9239986 73.2180006,34.7260005 73.094,34.618 C72.9699994,34.5099995 72.8000011,34.456 72.584,34.456 C72.2799985,34.456 71.9800015,34.6159984 71.684,34.936 C71.3879985,35.2560016 71.0920015,35.6799974 70.796,36.208 L70.28,40 L69.188,40 L70.076,33.676 L71.012,33.676 L70.916,34.888 C71.2280016,34.4479978 71.5499983,34.1120012 71.882,33.88 C72.2140017,33.6479988 72.579998,33.532 72.98,33.532 C73.3320018,33.532 73.6359987,33.6439989 73.892,33.868 C74.1480013,34.0920011 74.3039997,34.407998 74.36,34.816 C74.6800016,34.3919979 75.0099983,34.0720011 75.35,33.856 C75.6900017,33.6399989 76.0519981,33.532 76.436,33.532 C76.8600021,33.532 77.1999987,33.6739986 77.456,33.958 Z M83.768,33.652 C84.1200018,33.7320004 84.499998,33.871999 84.908,34.072 L84.224,38.56 C84.2079999,38.6880006 84.2,38.7719998 84.2,38.812 C84.2,38.9720008 84.2339997,39.0939996 84.302,39.178 C84.3700003,39.2620004 84.4719993,39.3319997 84.608,39.388 L84.296,40.144 C83.9599983,40.1039998 83.7000009,40.0000008 83.516,39.832 C83.3319991,39.6639992 83.2200002,39.4160016 83.18,39.088 C82.9239987,39.4160016 82.6360016,39.6739991 82.316,39.862 C81.9959984,40.0500009 81.6560018,40.144 81.296,40.144 C80.6479968,40.144 80.1500017,39.9260022 79.802,39.49 C79.4539983,39.0539978 79.28,38.4640037 79.28,37.72 C79.28,37.0799968 79.3979988,36.4400032 79.634,35.8 C79.8700012,35.1599968 80.2399975,34.6220022 80.744,34.186 C81.2480025,33.7499978 81.8839962,33.532 82.652,33.532 C83.044002,33.532 83.4159982,33.5719996 83.768,33.652 Z M81.422,34.918 C81.0899983,35.2580017 80.8460008,35.6819975 80.69,36.19 C80.5339992,36.6980025 80.456,37.2119974 80.456,37.732 C80.456,38.7560051 80.8239963,39.268 81.56,39.268 C81.8720016,39.268 82.1559987,39.168001 82.412,38.968 C82.6680013,38.767999 82.9359986,38.4800019 83.216,38.104 L83.744,34.612 C83.5679991,34.5319996 83.4020008,34.4780001 83.246,34.45 C83.0899992,34.4219999 82.9000011,34.408 82.676,34.408 C82.1719975,34.408 81.7540017,34.5779983 81.422,34.918 Z M90.416,33.616 L90.092,34.684 C89.9399992,34.6439998 89.768001,34.624 89.576,34.624 C89.183998,34.624 88.8420015,34.7939983 88.55,35.134 C88.2579985,35.4740017 87.9960012,35.9799966 87.764,36.652 L87.284,40 L86.192,40 L87.08,33.676 L88.016,33.676 L87.944,34.972 C88.1760012,34.4919976 88.4499984,34.1320012 88.766,33.892 C89.0820016,33.6519988 89.4199982,33.532 89.78,33.532 C89.980001,33.532 90.1919989,33.5599997 90.416,33.616 Z M90.764,40 L91.652,33.676 L92.756,33.676 L91.868,40 L90.764,40 Z M93.08,30.832 C93.2080006,30.9600006 93.272,31.123999 93.272,31.324 C93.272,31.5560012 93.1960008,31.7499992 93.044,31.906 C92.8919992,32.0620008 92.6920012,32.14 92.444,32.14 C92.235999,32.14 92.0680006,32.0760006 91.94,31.948 C91.8119994,31.8199994 91.748,31.656001 91.748,31.456 C91.748,31.2159988 91.8259992,31.0200008 91.982,30.868 C92.1380008,30.7159992 92.3319988,30.64 92.564,30.64 C92.7800011,30.64 92.9519994,30.7039994 93.08,30.832 Z M99.104,34.228 L98.516,34.912 C98.323999,34.7439992 98.132001,34.6240004 97.94,34.552 C97.747999,34.4799996 97.5280012,34.444 97.28,34.444 C96.7839975,34.444 96.3820015,34.6099983 96.074,34.942 C95.7659985,35.2740017 95.5460007,35.6839976 95.414,36.172 C95.2819993,36.6600024 95.216,37.1519975 95.216,37.648 C95.216,38.6880052 95.6439957,39.208 96.5,39.208 C96.7640013,39.208 97.0059989,39.1680004 97.226,39.088 C97.4460011,39.0079996 97.6919986,38.8840008 97.964,38.716 L98.408,39.484 C97.7919969,39.9240022 97.1320035,40.144 96.428,40.144 C95.6759962,40.144 95.0940021,39.9180023 94.682,39.466 C94.2699979,39.0139977 94.064,38.3800041 94.064,37.564 C94.064,36.955997 94.1759989,36.3420031 94.4,35.722 C94.6240011,35.1019969 94.9759976,34.5820021 95.456,34.162 C95.9360024,33.7419979 96.5399964,33.532 97.268,33.532 C98.0040037,33.532 98.6159976,33.7639977 99.104,34.228 Z M104.072,33.652 C104.424002,33.7320004 104.803998,33.871999 105.212,34.072 L104.528,38.56 C104.512,38.6880006 104.504,38.7719998 104.504,38.812 C104.504,38.9720008 104.538,39.0939996 104.606,39.178 C104.674,39.2620004 104.775999,39.3319997 104.912,39.388 L104.6,40.144 C104.263998,40.1039998 104.004001,40.0000008 103.82,39.832 C103.635999,39.6639992 103.524,39.4160016 103.484,39.088 C103.227999,39.4160016 102.940002,39.6739991 102.62,39.862 C102.299998,40.0500009 101.960002,40.144 101.6,40.144 C100.951997,40.144 100.454002,39.9260022 100.106,39.49 C99.7579983,39.0539978 99.584,38.4640037 99.584,37.72 C99.584,37.0799968 99.7019988,36.4400032 99.938,35.8 C100.174001,35.1599968 100.543997,34.6220022 101.048,34.186 C101.552003,33.7499978 102.187996,33.532 102.956,33.532 C103.348002,33.532 103.719998,33.5719996 104.072,33.652 Z M101.726,34.918 C101.393998,35.2580017 101.150001,35.6819975 100.994,36.19 C100.837999,36.6980025 100.76,37.2119974 100.76,37.732 C100.76,38.7560051 101.127996,39.268 101.864,39.268 C102.176002,39.268 102.459999,39.168001 102.716,38.968 C102.972001,38.767999 103.239999,38.4800019 103.52,38.104 L104.048,34.612 C103.871999,34.5319996 103.706001,34.4780001 103.55,34.45 C103.393999,34.4219999 103.204001,34.408 102.98,34.408 C102.475997,34.408 102.058002,34.5779983 101.726,34.918 Z" id="Gazella-marica" fill="#212121"></path>
            <g id="Rectangle-6">
                <use fill-opacity="0.6" fill="#6613AE" fill-rule="evenodd" xlink:href="#path-1"></use>
                <rect stroke="#7E1293" stroke-width="1" x="10.5" y="31.5" width="9" height="9"></rect>
            </g>
            <path d="M32.21,51.828 C32.5980019,51.9880008 32.9559984,52.2239984 33.284,52.536 L32.54,53.172 C32.2839987,52.9399988 32.0300013,52.7740005 31.778,52.674 C31.5259987,52.5739995 31.2240018,52.524 30.872,52.524 C30.1999966,52.524 29.6420022,52.7499977 29.198,53.202 C28.7539978,53.6540023 28.428001,54.2259965 28.22,54.918 C28.011999,55.6100035 27.908,56.3159964 27.908,57.036 C27.908,57.7880038 28.0639984,58.3379983 28.376,58.686 C28.6880016,59.0340017 29.1559969,59.208 29.78,59.208 C30.3560029,59.208 30.8799976,59.0680014 31.352,58.788 L31.712,56.34 L30.272,56.34 L30.272,55.416 L32.96,55.416 L32.42,59.352 C32.0039979,59.6160013 31.5720022,59.8139993 31.124,59.946 C30.6759978,60.0780007 30.1760028,60.144 29.624,60.144 C28.7199955,60.144 28.0100026,59.8660028 27.494,59.31 C26.9779974,58.7539972 26.72,57.9480053 26.72,56.892 C26.72,56.0439958 26.8699985,55.2140041 27.17,54.402 C27.4700015,53.5899959 27.9319969,52.9180027 28.556,52.386 C29.1800031,51.8539973 29.9479954,51.588 30.86,51.588 C31.3720026,51.588 31.8219981,51.6679992 32.21,51.828 Z M38.588,53.652 C38.9400018,53.7320004 39.319998,53.871999 39.728,54.072 L39.044,58.56 C39.0279999,58.6880006 39.02,58.7719998 39.02,58.812 C39.02,58.9720008 39.0539997,59.0939996 39.122,59.178 C39.1900003,59.2620004 39.2919993,59.3319997 39.428,59.388 L39.116,60.144 C38.7799983,60.1039998 38.5200009,60.0000008 38.336,59.832 C38.1519991,59.6639992 38.0400002,59.4160016 38,59.088 C37.7439987,59.4160016 37.4560016,59.6739991 37.136,59.862 C36.8159984,60.0500009 36.4760018,60.144 36.116,60.144 C35.4679968,60.144 34.9700017,59.9260022 34.622,59.49 C34.2739983,59.0539978 34.1,58.4640037 34.1,57.72 C34.1,57.0799968 34.2179988,56.4400032 34.454,55.8 C34.6900012,55.1599968 35.0599975,54.6220022 35.564,54.186 C36.0680025,53.7499978 36.7039962,53.532 37.472,53.532 C37.864002,53.532 38.2359982,53.5719996 38.588,53.652 Z M36.242,54.918 C35.9099983,55.2580017 35.6660008,55.6819975 35.51,56.19 C35.3539992,56.6980025 35.276,57.2119974 35.276,57.732 C35.276,58.7560051 35.6439963,59.268 36.38,59.268 C36.6920016,59.268 36.9759987,59.168001 37.232,58.968 C37.4880013,58.767999 37.7559986,58.4800019 38.036,58.104 L38.564,54.612 C38.3879991,54.5319996 38.2220008,54.4780001 38.066,54.45 C37.9099992,54.4219999 37.7200011,54.408 37.496,54.408 C36.9919975,54.408 36.5740017,54.5779983 36.242,54.918 Z M41.636,59.076 L44.84,59.076 L44.588,60 L40.172,60 L40.28,59.172 L44.084,54.612 L41.204,54.612 L41.336,53.676 L45.56,53.676 L45.452,54.516 L41.636,59.076 Z M50.3,56.898 C49.5799964,57.2540018 48.5720065,57.5039993 47.276,57.648 C47.3000001,58.6960052 47.7559956,59.22 48.644,59.22 C48.9400015,59.22 49.2239986,59.1720005 49.496,59.076 C49.7680014,58.9799995 50.0479986,58.832001 50.336,58.632 L50.804,59.376 C50.0919964,59.8880026 49.336004,60.144 48.536,60.144 C47.7679962,60.144 47.1740021,59.9180023 46.754,59.466 C46.3339979,59.0139977 46.124,58.384004 46.124,57.576 C46.124,56.9439968 46.2339989,56.3180031 46.454,55.698 C46.6740011,55.0779969 47.0279976,54.5620021 47.516,54.15 C48.0040024,53.7379979 48.6239962,53.532 49.376,53.532 C50.0160032,53.532 50.5099983,53.6879984 50.858,54 C51.2060017,54.3120016 51.38,54.6919978 51.38,55.14 C51.38,55.9560041 51.0200036,56.5419982 50.3,56.898 Z M49.526,56.292 C49.9940023,56.0599988 50.228,55.6880026 50.228,55.176 C50.228,54.983999 50.1600007,54.8080008 50.024,54.648 C49.8879993,54.4879992 49.6680015,54.408 49.364,54.408 C48.755997,54.408 48.2880016,54.6399977 47.96,55.104 C47.6319984,55.5680023 47.4240004,56.1359966 47.336,56.808 C48.328005,56.6959994 49.0579977,56.5240012 49.526,56.292 Z M53.648,58.92 C53.648,59.0320006 53.6719998,59.1119998 53.72,59.16 C53.7680002,59.2080002 53.8439995,59.232 53.948,59.232 C54.0840007,59.232 54.2279992,59.2000003 54.38,59.136 L54.608,59.94 C54.3039985,60.0760007 54.0120014,60.144 53.732,60.144 C53.3639982,60.144 53.078001,60.042001 52.874,59.838 C52.669999,59.633999 52.568,59.336002 52.568,58.944 C52.568,58.8799997 52.5759999,58.7600009 52.592,58.584 L53.648,51.132 L54.752,51 L53.66,58.764 L53.648,58.92 Z M57.104,58.92 C57.104,59.0320006 57.1279998,59.1119998 57.176,59.16 C57.2240002,59.2080002 57.2999995,59.232 57.404,59.232 C57.5400007,59.232 57.6839992,59.2000003 57.836,59.136 L58.064,59.94 C57.7599985,60.0760007 57.4680014,60.144 57.188,60.144 C56.8199982,60.144 56.534001,60.042001 56.33,59.838 C56.125999,59.633999 56.024,59.336002 56.024,58.944 C56.024,58.8799997 56.0319999,58.7600009 56.048,58.584 L57.104,51.132 L58.208,51 L57.116,58.764 L57.104,58.92 Z M63.656,53.652 C64.0080018,53.7320004 64.387998,53.871999 64.796,54.072 L64.112,58.56 C64.0959999,58.6880006 64.088,58.7719998 64.088,58.812 C64.088,58.9720008 64.1219997,59.0939996 64.19,59.178 C64.2580003,59.2620004 64.3599993,59.3319997 64.496,59.388 L64.184,60.144 C63.8479983,60.1039998 63.5880009,60.0000008 63.404,59.832 C63.2199991,59.6639992 63.1080002,59.4160016 63.068,59.088 C62.8119987,59.4160016 62.5240016,59.6739991 62.204,59.862 C61.8839984,60.0500009 61.5440018,60.144 61.184,60.144 C60.5359968,60.144 60.0380017,59.9260022 59.69,59.49 C59.3419983,59.0539978 59.168,58.4640037 59.168,57.72 C59.168,57.0799968 59.2859988,56.4400032 59.522,55.8 C59.7580012,55.1599968 60.1279975,54.6220022 60.632,54.186 C61.1360025,53.7499978 61.7719962,53.532 62.54,53.532 C62.932002,53.532 63.3039982,53.5719996 63.656,53.652 Z M61.31,54.918 C60.9779983,55.2580017 60.7340008,55.6819975 60.578,56.19 C60.4219992,56.6980025 60.344,57.2119974 60.344,57.732 C60.344,58.7560051 60.7119963,59.268 61.448,59.268 C61.7600016,59.268 62.0439987,59.168001 62.3,58.968 C62.5560013,58.767999 62.8239986,58.4800019 63.104,58.104 L63.632,54.612 C63.4559991,54.5319996 63.2900008,54.4780001 63.134,54.45 C62.9779992,54.4219999 62.7880011,54.408 62.564,54.408 C62.0599975,54.408 61.6420017,54.5779983 61.31,54.918 Z M74.168,54.228 L73.58,54.912 C73.387999,54.7439992 73.196001,54.6240004 73.004,54.552 C72.811999,54.4799996 72.5920012,54.444 72.344,54.444 C71.8479975,54.444 71.4460015,54.6099983 71.138,54.942 C70.8299985,55.2740017 70.6100007,55.6839976 70.478,56.172 C70.3459993,56.6600024 70.28,57.1519975 70.28,57.648 C70.28,58.6880052 70.7079957,59.208 71.564,59.208 C71.8280013,59.208 72.0699989,59.1680004 72.29,59.088 C72.5100011,59.0079996 72.7559986,58.8840008 73.028,58.716 L73.472,59.484 C72.8559969,59.9240022 72.1960035,60.144 71.492,60.144 C70.7399962,60.144 70.1580021,59.9180023 69.746,59.466 C69.3339979,59.0139977 69.128,58.3800041 69.128,57.564 C69.128,56.955997 69.2399989,56.3420031 69.464,55.722 C69.6880011,55.1019969 70.0399976,54.5820021 70.52,54.162 C71.0000024,53.7419979 71.6039964,53.532 72.332,53.532 C73.0680037,53.532 73.6799976,53.7639977 74.168,54.228 Z M78.572,60 L78.656,58.836 C78.3439984,59.2680022 78.0220017,59.5939989 77.69,59.814 C77.3579983,60.0340011 76.9840021,60.144 76.568,60.144 C76.0719975,60.144 75.6900013,60.0080014 75.422,59.736 C75.1539987,59.4639986 75.02,59.0800025 75.02,58.584 C75.02,58.5039996 75.0279999,58.368001 75.044,58.176 L75.68,53.676 L76.772,53.676 L76.148,58.128 C76.1319999,58.2320005 76.124,58.3679992 76.124,58.536 C76.124,58.8080014 76.1799994,58.9999994 76.292,59.112 C76.4040006,59.2240006 76.5759988,59.28 76.808,59.28 C77.1680018,59.28 77.5019985,59.1440014 77.81,58.872 C78.1180015,58.5999986 78.4239985,58.2400022 78.728,57.792 L79.304,53.676 L80.396,53.676 L79.508,60 L78.572,60 Z M82.916,60 L81.644,53.676 L82.832,53.676 L83.696,59.004 L86.048,53.676 L87.248,53.676 L84.224,60 L82.916,60 Z M87.596,60 L88.484,53.676 L89.588,53.676 L88.7,60 L87.596,60 Z M89.912,50.832 C90.0400006,50.9600006 90.104,51.123999 90.104,51.324 C90.104,51.5560012 90.0280008,51.7499992 89.876,51.906 C89.7239992,52.0620008 89.5240012,52.14 89.276,52.14 C89.067999,52.14 88.9000006,52.0760006 88.772,51.948 C88.6439994,51.8199994 88.58,51.656001 88.58,51.456 C88.58,51.2159988 88.6579992,51.0200008 88.814,50.868 C88.9700008,50.7159992 89.1639988,50.64 89.396,50.64 C89.6120011,50.64 89.7839994,50.7039994 89.912,50.832 Z M95.072,56.898 C94.3519964,57.2540018 93.3440065,57.5039993 92.048,57.648 C92.0720001,58.6960052 92.5279956,59.22 93.416,59.22 C93.7120015,59.22 93.9959986,59.1720005 94.268,59.076 C94.5400014,58.9799995 94.8199986,58.832001 95.108,58.632 L95.576,59.376 C94.8639964,59.8880026 94.108004,60.144 93.308,60.144 C92.5399962,60.144 91.9460021,59.9180023 91.526,59.466 C91.1059979,59.0139977 90.896,58.384004 90.896,57.576 C90.896,56.9439968 91.0059989,56.3180031 91.226,55.698 C91.4460011,55.0779969 91.7999976,54.5620021 92.288,54.15 C92.7760024,53.7379979 93.3959962,53.532 94.148,53.532 C94.7880032,53.532 95.2819983,53.6879984 95.63,54 C95.9780017,54.3120016 96.152,54.6919978 96.152,55.14 C96.152,55.9560041 95.7920036,56.5419982 95.072,56.898 Z M94.298,56.292 C94.7660023,56.0599988 95,55.6880026 95,55.176 C95,54.983999 94.9320007,54.8080008 94.796,54.648 C94.6599993,54.4879992 94.4400015,54.408 94.136,54.408 C93.527997,54.408 93.0600016,54.6399977 92.732,55.104 C92.4039984,55.5680023 92.1960004,56.1359966 92.108,56.808 C93.100005,56.6959994 93.8299977,56.5240012 94.298,56.292 Z M101.456,53.616 L101.132,54.684 C100.979999,54.6439998 100.808001,54.624 100.616,54.624 C100.223998,54.624 99.8820015,54.7939983 99.59,55.134 C99.2979985,55.4740017 99.0360012,55.9799966 98.804,56.652 L98.324,60 L97.232,60 L98.12,53.676 L99.056,53.676 L98.984,54.972 C99.2160012,54.4919976 99.4899984,54.1320012 99.806,53.892 C100.122002,53.6519988 100.459998,53.532 100.82,53.532 C101.020001,53.532 101.231999,53.5599997 101.456,53.616 Z M101.804,60 L102.692,53.676 L103.796,53.676 L102.908,60 L101.804,60 Z M104.12,50.832 C104.248001,50.9600006 104.312,51.123999 104.312,51.324 C104.312,51.5560012 104.236001,51.7499992 104.084,51.906 C103.931999,52.0620008 103.732001,52.14 103.484,52.14 C103.275999,52.14 103.108001,52.0760006 102.98,51.948 C102.851999,51.8199994 102.788,51.656001 102.788,51.456 C102.788,51.2159988 102.865999,51.0200008 103.022,50.868 C103.178001,50.7159992 103.371999,50.64 103.604,50.64 C103.820001,50.64 103.991999,50.7039994 104.12,50.832 Z" id="Gazella-cuvieri" fill="#212121"></path>
            <g id="Rectangle-6">
                <use fill-opacity="0.6" fill="#18904C" fill-rule="evenodd" xlink:href="#path-2"></use>
                <rect stroke="#40A26A" stroke-width="1" x="10.5" y="51.5" width="9" height="9"></rect>
            </g>
            <path d="M32.21,71.828 C32.5980019,71.9880008 32.9559984,72.2239984 33.284,72.536 L32.54,73.172 C32.2839987,72.9399988 32.0300013,72.7740005 31.778,72.674 C31.5259987,72.5739995 31.2240018,72.524 30.872,72.524 C30.1999966,72.524 29.6420022,72.7499977 29.198,73.202 C28.7539978,73.6540023 28.428001,74.2259965 28.22,74.918 C28.011999,75.6100035 27.908,76.3159964 27.908,77.036 C27.908,77.7880038 28.0639984,78.3379983 28.376,78.686 C28.6880016,79.0340017 29.1559969,79.208 29.78,79.208 C30.3560029,79.208 30.8799976,79.0680014 31.352,78.788 L31.712,76.34 L30.272,76.34 L30.272,75.416 L32.96,75.416 L32.42,79.352 C32.0039979,79.6160013 31.5720022,79.8139993 31.124,79.946 C30.6759978,80.0780007 30.1760028,80.144 29.624,80.144 C28.7199955,80.144 28.0100026,79.8660028 27.494,79.31 C26.9779974,78.7539972 26.72,77.9480053 26.72,76.892 C26.72,76.0439958 26.8699985,75.2140041 27.17,74.402 C27.4700015,73.5899959 27.9319969,72.9180027 28.556,72.386 C29.1800031,71.8539973 29.9479954,71.588 30.86,71.588 C31.3720026,71.588 31.8219981,71.6679992 32.21,71.828 Z M38.588,73.652 C38.9400018,73.7320004 39.319998,73.871999 39.728,74.072 L39.044,78.56 C39.0279999,78.6880006 39.02,78.7719998 39.02,78.812 C39.02,78.9720008 39.0539997,79.0939996 39.122,79.178 C39.1900003,79.2620004 39.2919993,79.3319997 39.428,79.388 L39.116,80.144 C38.7799983,80.1039998 38.5200009,80.0000008 38.336,79.832 C38.1519991,79.6639992 38.0400002,79.4160016 38,79.088 C37.7439987,79.4160016 37.4560016,79.6739991 37.136,79.862 C36.8159984,80.0500009 36.4760018,80.144 36.116,80.144 C35.4679968,80.144 34.9700017,79.9260022 34.622,79.49 C34.2739983,79.0539978 34.1,78.4640037 34.1,77.72 C34.1,77.0799968 34.2179988,76.4400032 34.454,75.8 C34.6900012,75.1599968 35.0599975,74.6220022 35.564,74.186 C36.0680025,73.7499978 36.7039962,73.532 37.472,73.532 C37.864002,73.532 38.2359982,73.5719996 38.588,73.652 Z M36.242,74.918 C35.9099983,75.2580017 35.6660008,75.6819975 35.51,76.19 C35.3539992,76.6980025 35.276,77.2119974 35.276,77.732 C35.276,78.7560051 35.6439963,79.268 36.38,79.268 C36.6920016,79.268 36.9759987,79.168001 37.232,78.968 C37.4880013,78.767999 37.7559986,78.4800019 38.036,78.104 L38.564,74.612 C38.3879991,74.5319996 38.2220008,74.4780001 38.066,74.45 C37.9099992,74.4219999 37.7200011,74.408 37.496,74.408 C36.9919975,74.408 36.5740017,74.5779983 36.242,74.918 Z M41.636,79.076 L44.84,79.076 L44.588,80 L40.172,80 L40.28,79.172 L44.084,74.612 L41.204,74.612 L41.336,73.676 L45.56,73.676 L45.452,74.516 L41.636,79.076 Z M50.3,76.898 C49.5799964,77.2540018 48.5720065,77.5039993 47.276,77.648 C47.3000001,78.6960052 47.7559956,79.22 48.644,79.22 C48.9400015,79.22 49.2239986,79.1720005 49.496,79.076 C49.7680014,78.9799995 50.0479986,78.832001 50.336,78.632 L50.804,79.376 C50.0919964,79.8880026 49.336004,80.144 48.536,80.144 C47.7679962,80.144 47.1740021,79.9180023 46.754,79.466 C46.3339979,79.0139977 46.124,78.384004 46.124,77.576 C46.124,76.9439968 46.2339989,76.3180031 46.454,75.698 C46.6740011,75.0779969 47.0279976,74.5620021 47.516,74.15 C48.0040024,73.7379979 48.6239962,73.532 49.376,73.532 C50.0160032,73.532 50.5099983,73.6879984 50.858,74 C51.2060017,74.3120016 51.38,74.6919978 51.38,75.14 C51.38,75.9560041 51.0200036,76.5419982 50.3,76.898 Z M49.526,76.292 C49.9940023,76.0599988 50.228,75.6880026 50.228,75.176 C50.228,74.983999 50.1600007,74.8080008 50.024,74.648 C49.8879993,74.4879992 49.6680015,74.408 49.364,74.408 C48.755997,74.408 48.2880016,74.6399977 47.96,75.104 C47.6319984,75.5680023 47.4240004,76.1359966 47.336,76.808 C48.328005,76.6959994 49.0579977,76.5240012 49.526,76.292 Z M53.648,78.92 C53.648,79.0320006 53.6719998,79.1119998 53.72,79.16 C53.7680002,79.2080002 53.8439995,79.232 53.948,79.232 C54.0840007,79.232 54.2279992,79.2000003 54.38,79.136 L54.608,79.94 C54.3039985,80.0760007 54.0120014,80.144 53.732,80.144 C53.3639982,80.144 53.078001,80.042001 52.874,79.838 C52.669999,79.633999 52.568,79.336002 52.568,78.944 C52.568,78.8799997 52.5759999,78.7600009 52.592,78.584 L53.648,71.132 L54.752,71 L53.66,78.764 L53.648,78.92 Z M57.104,78.92 C57.104,79.0320006 57.1279998,79.1119998 57.176,79.16 C57.2240002,79.2080002 57.2999995,79.232 57.404,79.232 C57.5400007,79.232 57.6839992,79.2000003 57.836,79.136 L58.064,79.94 C57.7599985,80.0760007 57.4680014,80.144 57.188,80.144 C56.8199982,80.144 56.534001,80.042001 56.33,79.838 C56.125999,79.633999 56.024,79.336002 56.024,78.944 C56.024,78.8799997 56.0319999,78.7600009 56.048,78.584 L57.104,71.132 L58.208,71 L57.116,78.764 L57.104,78.92 Z M63.656,73.652 C64.0080018,73.7320004 64.387998,73.871999 64.796,74.072 L64.112,78.56 C64.0959999,78.6880006 64.088,78.7719998 64.088,78.812 C64.088,78.9720008 64.1219997,79.0939996 64.19,79.178 C64.2580003,79.2620004 64.3599993,79.3319997 64.496,79.388 L64.184,80.144 C63.8479983,80.1039998 63.5880009,80.0000008 63.404,79.832 C63.2199991,79.6639992 63.1080002,79.4160016 63.068,79.088 C62.8119987,79.4160016 62.5240016,79.6739991 62.204,79.862 C61.8839984,80.0500009 61.5440018,80.144 61.184,80.144 C60.5359968,80.144 60.0380017,79.9260022 59.69,79.49 C59.3419983,79.0539978 59.168,78.4640037 59.168,77.72 C59.168,77.0799968 59.2859988,76.4400032 59.522,75.8 C59.7580012,75.1599968 60.1279975,74.6220022 60.632,74.186 C61.1360025,73.7499978 61.7719962,73.532 62.54,73.532 C62.932002,73.532 63.3039982,73.5719996 63.656,73.652 Z M61.31,74.918 C60.9779983,75.2580017 60.7340008,75.6819975 60.578,76.19 C60.4219992,76.6980025 60.344,77.2119974 60.344,77.732 C60.344,78.7560051 60.7119963,79.268 61.448,79.268 C61.7600016,79.268 62.0439987,79.168001 62.3,78.968 C62.5560013,78.767999 62.8239986,78.4800019 63.104,78.104 L63.632,74.612 C63.4559991,74.5319996 63.2900008,74.4780001 63.134,74.45 C62.9779992,74.4219999 62.7880011,74.408 62.564,74.408 C62.0599975,74.408 61.6420017,74.5779983 61.31,74.918 Z M73.592,73.652 C73.9440018,73.7320004 74.323998,73.871999 74.732,74.072 L74.048,78.56 C74.0319999,78.6880006 74.024,78.7719998 74.024,78.812 C74.024,78.9720008 74.0579997,79.0939996 74.126,79.178 C74.1940003,79.2620004 74.2959993,79.3319997 74.432,79.388 L74.12,80.144 C73.7839983,80.1039998 73.5240009,80.0000008 73.34,79.832 C73.1559991,79.6639992 73.0440002,79.4160016 73.004,79.088 C72.7479987,79.4160016 72.4600016,79.6739991 72.14,79.862 C71.8199984,80.0500009 71.4800018,80.144 71.12,80.144 C70.4719968,80.144 69.9740017,79.9260022 69.626,79.49 C69.2779983,79.0539978 69.104,78.4640037 69.104,77.72 C69.104,77.0799968 69.2219988,76.4400032 69.458,75.8 C69.6940012,75.1599968 70.0639975,74.6220022 70.568,74.186 C71.0720025,73.7499978 71.7079962,73.532 72.476,73.532 C72.868002,73.532 73.2399982,73.5719996 73.592,73.652 Z M71.246,74.918 C70.9139983,75.2580017 70.6700008,75.6819975 70.514,76.19 C70.3579992,76.6980025 70.28,77.2119974 70.28,77.732 C70.28,78.7560051 70.6479963,79.268 71.384,79.268 C71.6960016,79.268 71.9799987,79.168001 72.236,78.968 C72.4920013,78.767999 72.7599986,78.4800019 73.04,78.104 L73.568,74.612 C73.3919991,74.5319996 73.2260008,74.4780001 73.07,74.45 C72.9139992,74.4219999 72.7240011,74.408 72.5,74.408 C71.9959975,74.408 71.5780017,74.5779983 71.246,74.918 Z M80.24,73.616 L79.916,74.684 C79.7639992,74.6439998 79.592001,74.624 79.4,74.624 C79.007998,74.624 78.6660015,74.7939983 78.374,75.134 C78.0819985,75.4740017 77.8200012,75.9799966 77.588,76.652 L77.108,80 L76.016,80 L76.904,73.676 L77.84,73.676 L77.768,74.972 C78.0000012,74.4919976 78.2739984,74.1320012 78.59,73.892 C78.9060016,73.6519988 79.2439982,73.532 79.604,73.532 C79.804001,73.532 80.0159989,73.5599997 80.24,73.616 Z M84.872,73.652 C85.2240018,73.7320004 85.603998,73.871999 86.012,74.072 L85.328,78.56 C85.3119999,78.6880006 85.304,78.7719998 85.304,78.812 C85.304,78.9720008 85.3379997,79.0939996 85.406,79.178 C85.4740003,79.2620004 85.5759993,79.3319997 85.712,79.388 L85.4,80.144 C85.0639983,80.1039998 84.8040009,80.0000008 84.62,79.832 C84.4359991,79.6639992 84.3240002,79.4160016 84.284,79.088 C84.0279987,79.4160016 83.7400016,79.6739991 83.42,79.862 C83.0999984,80.0500009 82.7600018,80.144 82.4,80.144 C81.7519968,80.144 81.2540017,79.9260022 80.906,79.49 C80.5579983,79.0539978 80.384,78.4640037 80.384,77.72 C80.384,77.0799968 80.5019988,76.4400032 80.738,75.8 C80.9740012,75.1599968 81.3439975,74.6220022 81.848,74.186 C82.3520025,73.7499978 82.9879962,73.532 83.756,73.532 C84.148002,73.532 84.5199982,73.5719996 84.872,73.652 Z M82.526,74.918 C82.1939983,75.2580017 81.9500008,75.6819975 81.794,76.19 C81.6379992,76.6980025 81.56,77.2119974 81.56,77.732 C81.56,78.7560051 81.9279963,79.268 82.664,79.268 C82.9760016,79.268 83.2599987,79.168001 83.516,78.968 C83.7720013,78.767999 84.0399986,78.4800019 84.32,78.104 L84.848,74.612 C84.6719991,74.5319996 84.5060008,74.4780001 84.35,74.45 C84.1939992,74.4219999 84.0040011,74.408 83.78,74.408 C83.2759975,74.408 82.8580017,74.5779983 82.526,74.918 Z M90.08,73.724 C90.3760015,73.5959994 90.6919983,73.532 91.028,73.532 C91.636003,73.532 92.1079983,73.7479978 92.444,74.18 C92.7800017,74.6120022 92.948,75.223996 92.948,76.016 C92.948,76.6720033 92.8320012,77.3139969 92.6,77.942 C92.3679988,78.5700031 91.9980025,79.0939979 91.49,79.514 C90.9819975,79.9340021 90.3400039,80.144 89.564,80.144 C89.2119982,80.144 88.8680017,80.1120003 88.532,80.048 C88.1959983,79.9839997 87.7960023,79.8760008 87.332,79.724 L88.544,71.132 L89.648,71 L89.192,74.3 C89.4880015,74.0439987 89.7839985,73.8520006 90.08,73.724 Z M89.84,74.648 C89.5839987,74.8080008 89.3200014,75.0319986 89.048,75.32 L88.532,79.076 C88.732001,79.1480004 88.9119992,79.1979999 89.072,79.226 C89.2320008,79.2540001 89.4239989,79.268 89.648,79.268 C90.1360024,79.268 90.5419984,79.0980017 90.866,78.758 C91.1900016,78.4179983 91.4279992,77.9920026 91.58,77.48 C91.7320008,76.9679974 91.808,76.4520026 91.808,75.932 C91.808,74.9159949 91.4320038,74.408 90.68,74.408 C90.3759985,74.408 90.0960013,74.4879992 89.84,74.648 Z M94.244,80 L95.132,73.676 L96.236,73.676 L95.348,80 L94.244,80 Z M96.56,70.832 C96.6880006,70.9600006 96.752,71.123999 96.752,71.324 C96.752,71.5560012 96.6760008,71.7499992 96.524,71.906 C96.3719992,72.0620008 96.1720012,72.14 95.924,72.14 C95.715999,72.14 95.5480006,72.0760006 95.42,71.948 C95.2919994,71.8199994 95.228,71.656001 95.228,71.456 C95.228,71.2159988 95.3059992,71.0200008 95.462,70.868 C95.6180008,70.7159992 95.8119988,70.64 96.044,70.64 C96.2600011,70.64 96.4319994,70.7039994 96.56,70.832 Z M102.584,74.228 L101.996,74.912 C101.803999,74.7439992 101.612001,74.6240004 101.42,74.552 C101.227999,74.4799996 101.008001,74.444 100.76,74.444 C100.263998,74.444 99.8620015,74.6099983 99.554,74.942 C99.2459985,75.2740017 99.0260007,75.6839976 98.894,76.172 C98.7619993,76.6600024 98.696,77.1519975 98.696,77.648 C98.696,78.6880052 99.1239957,79.208 99.98,79.208 C100.244001,79.208 100.485999,79.1680004 100.706,79.088 C100.926001,79.0079996 101.171999,78.8840008 101.444,78.716 L101.888,79.484 C101.271997,79.9240022 100.612004,80.144 99.908,80.144 C99.1559962,80.144 98.5740021,79.9180023 98.162,79.466 C97.7499979,79.0139977 97.544,78.3800041 97.544,77.564 C97.544,76.955997 97.6559989,76.3420031 97.88,75.722 C98.1040011,75.1019969 98.4559976,74.5820021 98.936,74.162 C99.4160024,73.7419979 100.019996,73.532 100.748,73.532 C101.484004,73.532 102.095998,73.7639977 102.584,74.228 Z M107.552,73.652 C107.904002,73.7320004 108.283998,73.871999 108.692,74.072 L108.008,78.56 C107.992,78.6880006 107.984,78.7719998 107.984,78.812 C107.984,78.9720008 108.018,79.0939996 108.086,79.178 C108.154,79.2620004 108.255999,79.3319997 108.392,79.388 L108.08,80.144 C107.743998,80.1039998 107.484001,80.0000008 107.3,79.832 C107.115999,79.6639992 107.004,79.4160016 106.964,79.088 C106.707999,79.4160016 106.420002,79.6739991 106.1,79.862 C105.779998,80.0500009 105.440002,80.144 105.08,80.144 C104.431997,80.144 103.934002,79.9260022 103.586,79.49 C103.237998,79.0539978 103.064,78.4640037 103.064,77.72 C103.064,77.0799968 103.181999,76.4400032 103.418,75.8 C103.654001,75.1599968 104.023997,74.6220022 104.528,74.186 C105.032003,73.7499978 105.667996,73.532 106.436,73.532 C106.828002,73.532 107.199998,73.5719996 107.552,73.652 Z M105.206,74.918 C104.873998,75.2580017 104.630001,75.6819975 104.474,76.19 C104.317999,76.6980025 104.24,77.2119974 104.24,77.732 C104.24,78.7560051 104.607996,79.268 105.344,79.268 C105.656002,79.268 105.939999,79.168001 106.196,78.968 C106.452001,78.767999 106.719999,78.4800019 107,78.104 L107.528,74.612 C107.351999,74.5319996 107.186001,74.4780001 107.03,74.45 C106.873999,74.4219999 106.684001,74.408 106.46,74.408 C105.955997,74.408 105.538002,74.5779983 105.206,74.918 Z" id="Gazella-arabica" fill="#212121"></path>
            <g id="Rectangle-6">
                <use fill-opacity="0.6" fill="#EA6666" fill-rule="evenodd" xlink:href="#path-3"></use>
                <rect stroke="#FA0F0F" stroke-width="1" x="10.5" y="71.5" width="9" height="9"></rect>
            </g>
            <path d="M32.21,91.828 C32.5980019,91.9880008 32.9559984,92.2239984 33.284,92.536 L32.54,93.172 C32.2839987,92.9399988 32.0300013,92.7740005 31.778,92.674 C31.5259987,92.5739995 31.2240018,92.524 30.872,92.524 C30.1999966,92.524 29.6420022,92.7499977 29.198,93.202 C28.7539978,93.6540023 28.428001,94.2259965 28.22,94.918 C28.011999,95.6100035 27.908,96.3159964 27.908,97.036 C27.908,97.7880038 28.0639984,98.3379983 28.376,98.686 C28.6880016,99.0340017 29.1559969,99.208 29.78,99.208 C30.3560029,99.208 30.8799976,99.0680014 31.352,98.788 L31.712,96.34 L30.272,96.34 L30.272,95.416 L32.96,95.416 L32.42,99.352 C32.0039979,99.6160013 31.5720022,99.8139993 31.124,99.946 C30.6759978,100.078001 30.1760028,100.144 29.624,100.144 C28.7199955,100.144 28.0100026,99.8660028 27.494,99.31 C26.9779974,98.7539972 26.72,97.9480053 26.72,96.892 C26.72,96.0439958 26.8699985,95.2140041 27.17,94.402 C27.4700015,93.5899959 27.9319969,92.9180027 28.556,92.386 C29.1800031,91.8539973 29.9479954,91.588 30.86,91.588 C31.3720026,91.588 31.8219981,91.6679992 32.21,91.828 Z M38.588,93.652 C38.9400018,93.7320004 39.319998,93.871999 39.728,94.072 L39.044,98.56 C39.0279999,98.6880006 39.02,98.7719998 39.02,98.812 C39.02,98.9720008 39.0539997,99.0939996 39.122,99.178 C39.1900003,99.2620004 39.2919993,99.3319997 39.428,99.388 L39.116,100.144 C38.7799983,100.104 38.5200009,100.000001 38.336,99.832 C38.1519991,99.6639992 38.0400002,99.4160016 38,99.088 C37.7439987,99.4160016 37.4560016,99.6739991 37.136,99.862 C36.8159984,100.050001 36.4760018,100.144 36.116,100.144 C35.4679968,100.144 34.9700017,99.9260022 34.622,99.49 C34.2739983,99.0539978 34.1,98.4640037 34.1,97.72 C34.1,97.0799968 34.2179988,96.4400032 34.454,95.8 C34.6900012,95.1599968 35.0599975,94.6220022 35.564,94.186 C36.0680025,93.7499978 36.7039962,93.532 37.472,93.532 C37.864002,93.532 38.2359982,93.5719996 38.588,93.652 Z M36.242,94.918 C35.9099983,95.2580017 35.6660008,95.6819975 35.51,96.19 C35.3539992,96.6980025 35.276,97.2119974 35.276,97.732 C35.276,98.7560051 35.6439963,99.268 36.38,99.268 C36.6920016,99.268 36.9759987,99.168001 37.232,98.968 C37.4880013,98.767999 37.7559986,98.4800019 38.036,98.104 L38.564,94.612 C38.3879991,94.5319996 38.2220008,94.4780001 38.066,94.45 C37.9099992,94.4219999 37.7200011,94.408 37.496,94.408 C36.9919975,94.408 36.5740017,94.5779983 36.242,94.918 Z M41.636,99.076 L44.84,99.076 L44.588,100 L40.172,100 L40.28,99.172 L44.084,94.612 L41.204,94.612 L41.336,93.676 L45.56,93.676 L45.452,94.516 L41.636,99.076 Z M50.3,96.898 C49.5799964,97.2540018 48.5720065,97.5039993 47.276,97.648 C47.3000001,98.6960052 47.7559956,99.22 48.644,99.22 C48.9400015,99.22 49.2239986,99.1720005 49.496,99.076 C49.7680014,98.9799995 50.0479986,98.832001 50.336,98.632 L50.804,99.376 C50.0919964,99.8880026 49.336004,100.144 48.536,100.144 C47.7679962,100.144 47.1740021,99.9180023 46.754,99.466 C46.3339979,99.0139977 46.124,98.384004 46.124,97.576 C46.124,96.9439968 46.2339989,96.3180031 46.454,95.698 C46.6740011,95.0779969 47.0279976,94.5620021 47.516,94.15 C48.0040024,93.7379979 48.6239962,93.532 49.376,93.532 C50.0160032,93.532 50.5099983,93.6879984 50.858,94 C51.2060017,94.3120016 51.38,94.6919978 51.38,95.14 C51.38,95.9560041 51.0200036,96.5419982 50.3,96.898 Z M49.526,96.292 C49.9940023,96.0599988 50.228,95.6880026 50.228,95.176 C50.228,94.983999 50.1600007,94.8080008 50.024,94.648 C49.8879993,94.4879992 49.6680015,94.408 49.364,94.408 C48.755997,94.408 48.2880016,94.6399977 47.96,95.104 C47.6319984,95.5680023 47.4240004,96.1359966 47.336,96.808 C48.328005,96.6959994 49.0579977,96.5240012 49.526,96.292 Z M53.648,98.92 C53.648,99.0320006 53.6719998,99.1119998 53.72,99.16 C53.7680002,99.2080002 53.8439995,99.232 53.948,99.232 C54.0840007,99.232 54.2279992,99.2000003 54.38,99.136 L54.608,99.94 C54.3039985,100.076001 54.0120014,100.144 53.732,100.144 C53.3639982,100.144 53.078001,100.042001 52.874,99.838 C52.669999,99.633999 52.568,99.336002 52.568,98.944 C52.568,98.8799997 52.5759999,98.7600009 52.592,98.584 L53.648,91.132 L54.752,91 L53.66,98.764 L53.648,98.92 Z M57.104,98.92 C57.104,99.0320006 57.1279998,99.1119998 57.176,99.16 C57.2240002,99.2080002 57.2999995,99.232 57.404,99.232 C57.5400007,99.232 57.6839992,99.2000003 57.836,99.136 L58.064,99.94 C57.7599985,100.076001 57.4680014,100.144 57.188,100.144 C56.8199982,100.144 56.534001,100.042001 56.33,99.838 C56.125999,99.633999 56.024,99.336002 56.024,98.944 C56.024,98.8799997 56.0319999,98.7600009 56.048,98.584 L57.104,91.132 L58.208,91 L57.116,98.764 L57.104,98.92 Z M63.656,93.652 C64.0080018,93.7320004 64.387998,93.871999 64.796,94.072 L64.112,98.56 C64.0959999,98.6880006 64.088,98.7719998 64.088,98.812 C64.088,98.9720008 64.1219997,99.0939996 64.19,99.178 C64.2580003,99.2620004 64.3599993,99.3319997 64.496,99.388 L64.184,100.144 C63.8479983,100.104 63.5880009,100.000001 63.404,99.832 C63.2199991,99.6639992 63.1080002,99.4160016 63.068,99.088 C62.8119987,99.4160016 62.5240016,99.6739991 62.204,99.862 C61.8839984,100.050001 61.5440018,100.144 61.184,100.144 C60.5359968,100.144 60.0380017,99.9260022 59.69,99.49 C59.3419983,99.0539978 59.168,98.4640037 59.168,97.72 C59.168,97.0799968 59.2859988,96.4400032 59.522,95.8 C59.7580012,95.1599968 60.1279975,94.6220022 60.632,94.186 C61.1360025,93.7499978 61.7719962,93.532 62.54,93.532 C62.932002,93.532 63.3039982,93.5719996 63.656,93.652 Z M61.31,94.918 C60.9779983,95.2580017 60.7340008,95.6819975 60.578,96.19 C60.4219992,96.6980025 60.344,97.2119974 60.344,97.732 C60.344,98.7560051 60.7119963,99.268 61.448,99.268 C61.7600016,99.268 62.0439987,99.168001 62.3,98.968 C62.5560013,98.767999 62.8239986,98.4800019 63.104,98.104 L63.632,94.612 C63.4559991,94.5319996 63.2900008,94.4780001 63.134,94.45 C62.9779992,94.4219999 62.7880011,94.408 62.564,94.408 C62.0599975,94.408 61.6420017,94.5779983 61.31,94.918 Z M70.376,98.92 C70.376,99.0320006 70.3999998,99.1119998 70.448,99.16 C70.4960002,99.2080002 70.5719995,99.232 70.676,99.232 C70.8120007,99.232 70.9559992,99.2000003 71.108,99.136 L71.336,99.94 C71.0319985,100.076001 70.7400014,100.144 70.46,100.144 C70.0919982,100.144 69.806001,100.042001 69.602,99.838 C69.397999,99.633999 69.296,99.336002 69.296,98.944 C69.296,98.8799997 69.3039999,98.7600009 69.32,98.584 L70.376,91.132 L71.48,91 L70.388,98.764 L70.376,98.92 Z M76.64,96.898 C75.9199964,97.2540018 74.9120065,97.5039993 73.616,97.648 C73.6400001,98.6960052 74.0959956,99.22 74.984,99.22 C75.2800015,99.22 75.5639986,99.1720005 75.836,99.076 C76.1080014,98.9799995 76.3879986,98.832001 76.676,98.632 L77.144,99.376 C76.4319964,99.8880026 75.676004,100.144 74.876,100.144 C74.1079962,100.144 73.5140021,99.9180023 73.094,99.466 C72.6739979,99.0139977 72.464,98.384004 72.464,97.576 C72.464,96.9439968 72.5739989,96.3180031 72.794,95.698 C73.0140011,95.0779969 73.3679976,94.5620021 73.856,94.15 C74.3440024,93.7379979 74.9639962,93.532 75.716,93.532 C76.3560032,93.532 76.8499983,93.6879984 77.198,94 C77.5460017,94.3120016 77.72,94.6919978 77.72,95.14 C77.72,95.9560041 77.3600036,96.5419982 76.64,96.898 Z M75.866,96.292 C76.3340023,96.0599988 76.568,95.6880026 76.568,95.176 C76.568,94.983999 76.5000007,94.8080008 76.364,94.648 C76.2279993,94.4879992 76.0080015,94.408 75.704,94.408 C75.095997,94.408 74.6280016,94.6399977 74.3,95.104 C73.9719984,95.5680023 73.7640004,96.1359966 73.676,96.808 C74.668005,96.6959994 75.3979977,96.5240012 75.866,96.292 Z M83.948,94.18 C84.2840017,94.6120022 84.452,95.223996 84.452,96.016 C84.452,96.6640032 84.3360012,97.3039968 84.104,97.936 C83.8719988,98.5680032 83.5040025,99.0939979 83,99.514 C82.4959975,99.9340021 81.8600038,100.144 81.092,100.144 C80.699998,100.144 80.300002,100.076001 79.892,99.94 L79.556,102.448 L78.44,102.592 L79.688,93.676 L80.624,93.676 L80.6,94.48 C80.9200016,94.1279982 81.2339985,93.8820007 81.542,93.742 C81.8500015,93.6019993 82.1799982,93.532 82.532,93.532 C83.140003,93.532 83.6119983,93.7479978 83.948,94.18 Z M81.344,94.648 C81.0879987,94.8080008 80.8240014,95.0319986 80.552,95.32 L80.036,99.076 C80.236001,99.1480004 80.4159992,99.1979999 80.576,99.226 C80.7360008,99.2540001 80.9279989,99.268 81.152,99.268 C81.6400024,99.268 82.0459984,99.0980017 82.37,98.758 C82.6940016,98.4179983 82.9319992,97.9920026 83.084,97.48 C83.2360008,96.9679974 83.312,96.4520026 83.312,95.932 C83.312,94.9159949 82.9360038,94.408 82.184,94.408 C81.8799985,94.408 81.6000013,94.4879992 81.344,94.648 Z M87.224,98.656 C87.224,98.856001 87.2699995,98.9999996 87.362,99.088 C87.4540005,99.1760004 87.603999,99.22 87.812,99.22 C88.0680013,99.22 88.3639983,99.124001 88.7,98.932 L89.06,99.724 C88.6199978,100.004001 88.1440026,100.144 87.632,100.144 C87.1519976,100.144 86.7820013,100.020001 86.522,99.772 C86.2619987,99.5239988 86.132,99.1680023 86.132,98.704 C86.132,98.6159996 86.1399999,98.4840009 86.156,98.308 L86.684,94.528 L85.592,94.528 L85.712,93.676 L86.852,93.676 L87.248,92.212 L88.112,92.116 L87.896,93.676 L89.384,93.676 L89.144,94.528 L87.776,94.528 L87.248,98.332 C87.2319999,98.4920008 87.224,98.5999997 87.224,98.656 Z M95,94.228 C95.4160021,94.6920023 95.624,95.3319959 95.624,96.148 C95.624,96.7320029 95.5160011,97.3299969 95.3,97.942 C95.0839989,98.5540031 94.7320024,99.0739979 94.244,99.502 C93.7559976,99.9300021 93.1280038,100.144 92.36,100.144 C91.5839961,100.144 90.9860021,99.9120023 90.566,99.448 C90.1459979,98.9839977 89.936,98.3440041 89.936,97.528 C89.936,96.935997 90.0459989,96.3340031 90.266,95.722 C90.4860011,95.1099969 90.8399976,94.5920021 91.328,94.168 C91.8160024,93.7439979 92.4439962,93.532 93.212,93.532 C93.9880039,93.532 94.5839979,93.7639977 95,94.228 Z M91.952,94.942 C91.6399984,95.2900017 91.4180007,95.7099975 91.286,96.202 C91.1539993,96.6940025 91.088,97.1759976 91.088,97.648 C91.088,98.7200054 91.5239956,99.256 92.396,99.256 C92.9000025,99.256 93.3079984,99.0820017 93.62,98.734 C93.9320016,98.3859983 94.1519994,97.9660025 94.28,97.474 C94.4080006,96.9819975 94.472,96.5000024 94.472,96.028 C94.472,94.9559946 94.0400043,94.42 93.176,94.42 C92.6719975,94.42 92.2640016,94.5939983 91.952,94.942 Z M101.912,94.228 L101.324,94.912 C101.131999,94.7439992 100.940001,94.6240004 100.748,94.552 C100.555999,94.4799996 100.336001,94.444 100.088,94.444 C99.5919975,94.444 99.1900015,94.6099983 98.882,94.942 C98.5739985,95.2740017 98.3540007,95.6839976 98.222,96.172 C98.0899993,96.6600024 98.024,97.1519975 98.024,97.648 C98.024,98.6880052 98.4519957,99.208 99.308,99.208 C99.5720013,99.208 99.8139989,99.1680004 100.034,99.088 C100.254001,99.0079996 100.499999,98.8840008 100.772,98.716 L101.216,99.484 C100.599997,99.9240022 99.9400035,100.144 99.236,100.144 C98.4839962,100.144 97.9020021,99.9180023 97.49,99.466 C97.0779979,99.0139977 96.872,98.3800041 96.872,97.564 C96.872,96.955997 96.9839989,96.3420031 97.208,95.722 C97.4320011,95.1019969 97.7839976,94.5820021 98.264,94.162 C98.7440024,93.7419979 99.3479964,93.532 100.076,93.532 C100.812004,93.532 101.423998,93.7639977 101.912,94.228 Z M106.592,96.898 C105.871996,97.2540018 104.864006,97.5039993 103.568,97.648 C103.592,98.6960052 104.047996,99.22 104.936,99.22 C105.232001,99.22 105.515999,99.1720005 105.788,99.076 C106.060001,98.9799995 106.339999,98.832001 106.628,98.632 L107.096,99.376 C106.383996,99.8880026 105.628004,100.144 104.828,100.144 C104.059996,100.144 103.466002,99.9180023 103.046,99.466 C102.625998,99.0139977 102.416,98.384004 102.416,97.576 C102.416,96.9439968 102.525999,96.3180031 102.746,95.698 C102.966001,95.0779969 103.319998,94.5620021 103.808,94.15 C104.296002,93.7379979 104.915996,93.532 105.668,93.532 C106.308003,93.532 106.801998,93.6879984 107.15,94 C107.498002,94.3120016 107.672,94.6919978 107.672,95.14 C107.672,95.9560041 107.312004,96.5419982 106.592,96.898 Z M105.818,96.292 C106.286002,96.0599988 106.52,95.6880026 106.52,95.176 C106.52,94.983999 106.452001,94.8080008 106.316,94.648 C106.179999,94.4879992 105.960002,94.408 105.656,94.408 C105.047997,94.408 104.580002,94.6399977 104.252,95.104 C103.923998,95.5680023 103.716,96.1359966 103.628,96.808 C104.620005,96.6959994 105.349998,96.5240012 105.818,96.292 Z M112.976,93.616 L112.652,94.684 C112.499999,94.6439998 112.328001,94.624 112.136,94.624 C111.743998,94.624 111.402001,94.7939983 111.11,95.134 C110.817999,95.4740017 110.556001,95.9799966 110.324,96.652 L109.844,100 L108.752,100 L109.64,93.676 L110.576,93.676 L110.504,94.972 C110.736001,94.4919976 111.009998,94.1320012 111.326,93.892 C111.642002,93.6519988 111.979998,93.532 112.34,93.532 C112.540001,93.532 112.751999,93.5599997 112.976,93.616 Z M118.208,94.228 C118.624002,94.6920023 118.832,95.3319959 118.832,96.148 C118.832,96.7320029 118.724001,97.3299969 118.508,97.942 C118.291999,98.5540031 117.940002,99.0739979 117.452,99.502 C116.963998,99.9300021 116.336004,100.144 115.568,100.144 C114.791996,100.144 114.194002,99.9120023 113.774,99.448 C113.353998,98.9839977 113.144,98.3440041 113.144,97.528 C113.144,96.935997 113.253999,96.3340031 113.474,95.722 C113.694001,95.1099969 114.047998,94.5920021 114.536,94.168 C115.024002,93.7439979 115.651996,93.532 116.42,93.532 C117.196004,93.532 117.791998,93.7639977 118.208,94.228 Z M115.16,94.942 C114.847998,95.2900017 114.626001,95.7099975 114.494,96.202 C114.361999,96.6940025 114.296,97.1759976 114.296,97.648 C114.296,98.7200054 114.731996,99.256 115.604,99.256 C116.108003,99.256 116.515998,99.0820017 116.828,98.734 C117.140002,98.3859983 117.359999,97.9660025 117.488,97.474 C117.616001,96.9819975 117.68,96.5000024 117.68,96.028 C117.68,94.9559946 117.248004,94.42 116.384,94.42 C115.879997,94.42 115.472002,94.5939983 115.16,94.942 Z M124.688,94.312 L124.148,95.008 C123.939999,94.807999 123.704001,94.6580005 123.44,94.558 C123.175999,94.4579995 122.912001,94.408 122.648,94.408 C122.239998,94.408 121.920001,94.4839992 121.688,94.636 C121.455999,94.7880008 121.34,94.9959987 121.34,95.26 C121.34,95.5000012 121.435999,95.6859993 121.628,95.818 C121.820001,95.9500007 122.147998,96.0839993 122.612,96.22 C123.228003,96.4040009 123.679999,96.6439985 123.968,96.94 C124.256001,97.2360015 124.4,97.6359975 124.4,98.14 C124.4,98.5800022 124.276001,98.9499985 124.028,99.25 C123.779999,99.5500015 123.458002,99.7739993 123.062,99.922 C122.665998,100.070001 122.236002,100.144 121.772,100.144 C120.835995,100.144 120.056003,99.840003 119.432,99.232 L120.104,98.548 C120.312001,98.7720011 120.565998,98.9459994 120.866,99.07 C121.166001,99.1940006 121.483998,99.256 121.82,99.256 C122.324003,99.256 122.687999,99.1460011 122.912,98.926 C123.136001,98.7059989 123.248,98.4720012 123.248,98.224 C123.248,98.015999 123.206,97.8480006 123.122,97.72 C123.038,97.5919994 122.906001,97.4800005 122.726,97.384 C122.545999,97.2879995 122.276002,97.1800006 121.916,97.06 C121.315997,96.859999 120.884001,96.6260013 120.62,96.358 C120.355999,96.0899987 120.224,95.7440021 120.224,95.32 C120.224,95.0239985 120.313999,94.7400014 120.494,94.468 C120.674001,94.1959986 120.945998,93.9720009 121.31,93.796 C121.674002,93.6199991 122.119997,93.532 122.648,93.532 C123.424004,93.532 124.103997,93.7919974 124.688,94.312 Z" id="Gazella-leptoceros" fill="#212121"></path>
            <g id="Rectangle-6">
                <use fill-opacity="0.6" fill="#615FE3" fill-rule="evenodd" xlink:href="#path-4"></use>
                <rect stroke="#7176E2" stroke-width="1" x="10.5" y="91.5" width="9" height="9"></rect>
            </g>
            <path d="M32.21,111.828 C32.5980019,111.988001 32.9559984,112.223998 33.284,112.536 L32.54,113.172 C32.2839987,112.939999 32.0300013,112.774 31.778,112.674 C31.5259987,112.573999 31.2240018,112.524 30.872,112.524 C30.1999966,112.524 29.6420022,112.749998 29.198,113.202 C28.7539978,113.654002 28.428001,114.225997 28.22,114.918 C28.011999,115.610003 27.908,116.315996 27.908,117.036 C27.908,117.788004 28.0639984,118.337998 28.376,118.686 C28.6880016,119.034002 29.1559969,119.208 29.78,119.208 C30.3560029,119.208 30.8799976,119.068001 31.352,118.788 L31.712,116.34 L30.272,116.34 L30.272,115.416 L32.96,115.416 L32.42,119.352 C32.0039979,119.616001 31.5720022,119.813999 31.124,119.946 C30.6759978,120.078001 30.1760028,120.144 29.624,120.144 C28.7199955,120.144 28.0100026,119.866003 27.494,119.31 C26.9779974,118.753997 26.72,117.948005 26.72,116.892 C26.72,116.043996 26.8699985,115.214004 27.17,114.402 C27.4700015,113.589996 27.9319969,112.918003 28.556,112.386 C29.1800031,111.853997 29.9479954,111.588 30.86,111.588 C31.3720026,111.588 31.8219981,111.667999 32.21,111.828 Z M38.588,113.652 C38.9400018,113.732 39.319998,113.871999 39.728,114.072 L39.044,118.56 C39.0279999,118.688001 39.02,118.772 39.02,118.812 C39.02,118.972001 39.0539997,119.094 39.122,119.178 C39.1900003,119.262 39.2919993,119.332 39.428,119.388 L39.116,120.144 C38.7799983,120.104 38.5200009,120.000001 38.336,119.832 C38.1519991,119.663999 38.0400002,119.416002 38,119.088 C37.7439987,119.416002 37.4560016,119.673999 37.136,119.862 C36.8159984,120.050001 36.4760018,120.144 36.116,120.144 C35.4679968,120.144 34.9700017,119.926002 34.622,119.49 C34.2739983,119.053998 34.1,118.464004 34.1,117.72 C34.1,117.079997 34.2179988,116.440003 34.454,115.8 C34.6900012,115.159997 35.0599975,114.622002 35.564,114.186 C36.0680025,113.749998 36.7039962,113.532 37.472,113.532 C37.864002,113.532 38.2359982,113.572 38.588,113.652 Z M36.242,114.918 C35.9099983,115.258002 35.6660008,115.681997 35.51,116.19 C35.3539992,116.698003 35.276,117.211997 35.276,117.732 C35.276,118.756005 35.6439963,119.268 36.38,119.268 C36.6920016,119.268 36.9759987,119.168001 37.232,118.968 C37.4880013,118.767999 37.7559986,118.480002 38.036,118.104 L38.564,114.612 C38.3879991,114.532 38.2220008,114.478 38.066,114.45 C37.9099992,114.422 37.7200011,114.408 37.496,114.408 C36.9919975,114.408 36.5740017,114.577998 36.242,114.918 Z M41.636,119.076 L44.84,119.076 L44.588,120 L40.172,120 L40.28,119.172 L44.084,114.612 L41.204,114.612 L41.336,113.676 L45.56,113.676 L45.452,114.516 L41.636,119.076 Z M50.3,116.898 C49.5799964,117.254002 48.5720065,117.503999 47.276,117.648 C47.3000001,118.696005 47.7559956,119.22 48.644,119.22 C48.9400015,119.22 49.2239986,119.172 49.496,119.076 C49.7680014,118.98 50.0479986,118.832001 50.336,118.632 L50.804,119.376 C50.0919964,119.888003 49.336004,120.144 48.536,120.144 C47.7679962,120.144 47.1740021,119.918002 46.754,119.466 C46.3339979,119.013998 46.124,118.384004 46.124,117.576 C46.124,116.943997 46.2339989,116.318003 46.454,115.698 C46.6740011,115.077997 47.0279976,114.562002 47.516,114.15 C48.0040024,113.737998 48.6239962,113.532 49.376,113.532 C50.0160032,113.532 50.5099983,113.687998 50.858,114 C51.2060017,114.312002 51.38,114.691998 51.38,115.14 C51.38,115.956004 51.0200036,116.541998 50.3,116.898 Z M49.526,116.292 C49.9940023,116.059999 50.228,115.688003 50.228,115.176 C50.228,114.983999 50.1600007,114.808001 50.024,114.648 C49.8879993,114.487999 49.6680015,114.408 49.364,114.408 C48.755997,114.408 48.2880016,114.639998 47.96,115.104 C47.6319984,115.568002 47.4240004,116.135997 47.336,116.808 C48.328005,116.695999 49.0579977,116.524001 49.526,116.292 Z M53.648,118.92 C53.648,119.032001 53.6719998,119.112 53.72,119.16 C53.7680002,119.208 53.8439995,119.232 53.948,119.232 C54.0840007,119.232 54.2279992,119.2 54.38,119.136 L54.608,119.94 C54.3039985,120.076001 54.0120014,120.144 53.732,120.144 C53.3639982,120.144 53.078001,120.042001 52.874,119.838 C52.669999,119.633999 52.568,119.336002 52.568,118.944 C52.568,118.88 52.5759999,118.760001 52.592,118.584 L53.648,111.132 L54.752,111 L53.66,118.764 L53.648,118.92 Z M57.104,118.92 C57.104,119.032001 57.1279998,119.112 57.176,119.16 C57.2240002,119.208 57.2999995,119.232 57.404,119.232 C57.5400007,119.232 57.6839992,119.2 57.836,119.136 L58.064,119.94 C57.7599985,120.076001 57.4680014,120.144 57.188,120.144 C56.8199982,120.144 56.534001,120.042001 56.33,119.838 C56.125999,119.633999 56.024,119.336002 56.024,118.944 C56.024,118.88 56.0319999,118.760001 56.048,118.584 L57.104,111.132 L58.208,111 L57.116,118.764 L57.104,118.92 Z M63.656,113.652 C64.0080018,113.732 64.387998,113.871999 64.796,114.072 L64.112,118.56 C64.0959999,118.688001 64.088,118.772 64.088,118.812 C64.088,118.972001 64.1219997,119.094 64.19,119.178 C64.2580003,119.262 64.3599993,119.332 64.496,119.388 L64.184,120.144 C63.8479983,120.104 63.5880009,120.000001 63.404,119.832 C63.2199991,119.663999 63.1080002,119.416002 63.068,119.088 C62.8119987,119.416002 62.5240016,119.673999 62.204,119.862 C61.8839984,120.050001 61.5440018,120.144 61.184,120.144 C60.5359968,120.144 60.0380017,119.926002 59.69,119.49 C59.3419983,119.053998 59.168,118.464004 59.168,117.72 C59.168,117.079997 59.2859988,116.440003 59.522,115.8 C59.7580012,115.159997 60.1279975,114.622002 60.632,114.186 C61.1360025,113.749998 61.7719962,113.532 62.54,113.532 C62.932002,113.532 63.3039982,113.572 63.656,113.652 Z M61.31,114.918 C60.9779983,115.258002 60.7340008,115.681997 60.578,116.19 C60.4219992,116.698003 60.344,117.211997 60.344,117.732 C60.344,118.756005 60.7119963,119.268 61.448,119.268 C61.7600016,119.268 62.0439987,119.168001 62.3,118.968 C62.5560013,118.767999 62.8239986,118.480002 63.104,118.104 L63.632,114.612 C63.4559991,114.532 63.2900008,114.478 63.134,114.45 C62.9779992,114.422 62.7880011,114.408 62.564,114.408 C62.0599975,114.408 61.6420017,114.577998 61.31,114.918 Z M74.048,120 L73.088,120 L73.1,118.956 C72.8679988,119.332002 72.5920016,119.623999 72.272,119.832 C71.9519984,120.040001 71.592002,120.144 71.192,120.144 C70.5519968,120.144 70.0580017,119.920002 69.71,119.472 C69.3619983,119.023998 69.188,118.412004 69.188,117.636 C69.188,117.027997 69.289999,116.408003 69.494,115.776 C69.698001,115.143997 70.0199978,114.612002 70.46,114.18 C70.9000022,113.747998 71.4559966,113.532 72.128,113.532 C72.7920033,113.532 73.3319979,113.795997 73.748,114.324 L74.216,111 L75.296,111.132 L74.048,120 Z M71.18,114.936 C70.8839985,115.288002 70.6720006,115.717997 70.544,116.226 C70.4159994,116.734003 70.352,117.231998 70.352,117.72 C70.352,118.240003 70.4439991,118.627999 70.628,118.884 C70.8120009,119.140001 71.0719983,119.268 71.408,119.268 C71.7760018,119.268 72.0999986,119.146001 72.38,118.902 C72.6600014,118.657999 72.9519985,118.292002 73.256,117.804 L73.628,115.176 C73.4679992,114.919999 73.284001,114.728001 73.076,114.6 C72.867999,114.471999 72.6200014,114.408 72.332,114.408 C71.8599976,114.408 71.4760015,114.583998 71.18,114.936 Z M81.188,114.228 C81.6040021,114.692002 81.812,115.331996 81.812,116.148 C81.812,116.732003 81.7040011,117.329997 81.488,117.942 C81.2719989,118.554003 80.9200024,119.073998 80.432,119.502 C79.9439976,119.930002 79.3160038,120.144 78.548,120.144 C77.7719961,120.144 77.1740021,119.912002 76.754,119.448 C76.3339979,118.983998 76.124,118.344004 76.124,117.528 C76.124,116.935997 76.2339989,116.334003 76.454,115.722 C76.6740011,115.109997 77.0279976,114.592002 77.516,114.168 C78.0040024,113.743998 78.6319962,113.532 79.4,113.532 C80.1760039,113.532 80.7719979,113.763998 81.188,114.228 Z M78.14,114.942 C77.8279984,115.290002 77.6060007,115.709998 77.474,116.202 C77.3419993,116.694002 77.276,117.175998 77.276,117.648 C77.276,118.720005 77.7119956,119.256 78.584,119.256 C79.0880025,119.256 79.4959984,119.082002 79.808,118.734 C80.1200016,118.385998 80.3399994,117.966002 80.468,117.474 C80.5960006,116.981998 80.66,116.500002 80.66,116.028 C80.66,114.955995 80.2280043,114.42 79.364,114.42 C78.8599975,114.42 78.4520016,114.593998 78.14,114.942 Z M87.344,113.616 L87.02,114.684 C86.8679992,114.644 86.696001,114.624 86.504,114.624 C86.111998,114.624 85.7700015,114.793998 85.478,115.134 C85.1859985,115.474002 84.9240012,115.979997 84.692,116.652 L84.212,120 L83.12,120 L84.008,113.676 L84.944,113.676 L84.872,114.972 C85.1040012,114.491998 85.3779984,114.132001 85.694,113.892 C86.0100016,113.651999 86.3479982,113.532 86.708,113.532 C86.908001,113.532 87.1199989,113.56 87.344,113.616 Z M92.552,114.228 L91.964,114.912 C91.771999,114.743999 91.580001,114.624 91.388,114.552 C91.195999,114.48 90.9760012,114.444 90.728,114.444 C90.2319975,114.444 89.8300015,114.609998 89.522,114.942 C89.2139985,115.274002 88.9940007,115.683998 88.862,116.172 C88.7299993,116.660002 88.664,117.151998 88.664,117.648 C88.664,118.688005 89.0919957,119.208 89.948,119.208 C90.2120013,119.208 90.4539989,119.168 90.674,119.088 C90.8940011,119.008 91.1399986,118.884001 91.412,118.716 L91.856,119.484 C91.2399969,119.924002 90.5800035,120.144 89.876,120.144 C89.1239962,120.144 88.5420021,119.918002 88.13,119.466 C87.7179979,119.013998 87.512,118.380004 87.512,117.564 C87.512,116.955997 87.6239989,116.342003 87.848,115.722 C88.0720011,115.101997 88.4239976,114.582002 88.904,114.162 C89.3840024,113.741998 89.9879964,113.532 90.716,113.532 C91.4520037,113.532 92.0639976,113.763998 92.552,114.228 Z M97.52,113.652 C97.8720018,113.732 98.251998,113.871999 98.66,114.072 L97.976,118.56 C97.9599999,118.688001 97.952,118.772 97.952,118.812 C97.952,118.972001 97.9859997,119.094 98.054,119.178 C98.1220003,119.262 98.2239993,119.332 98.36,119.388 L98.048,120.144 C97.7119983,120.104 97.4520009,120.000001 97.268,119.832 C97.0839991,119.663999 96.9720002,119.416002 96.932,119.088 C96.6759987,119.416002 96.3880016,119.673999 96.068,119.862 C95.7479984,120.050001 95.4080018,120.144 95.048,120.144 C94.3999968,120.144 93.9020017,119.926002 93.554,119.49 C93.2059983,119.053998 93.032,118.464004 93.032,117.72 C93.032,117.079997 93.1499988,116.440003 93.386,115.8 C93.6220012,115.159997 93.9919975,114.622002 94.496,114.186 C95.0000025,113.749998 95.6359962,113.532 96.404,113.532 C96.796002,113.532 97.1679982,113.572 97.52,113.652 Z M95.174,114.918 C94.8419983,115.258002 94.5980008,115.681997 94.442,116.19 C94.2859992,116.698003 94.208,117.211997 94.208,117.732 C94.208,118.756005 94.5759963,119.268 95.312,119.268 C95.6240016,119.268 95.9079987,119.168001 96.164,118.968 C96.4200013,118.767999 96.6879986,118.480002 96.968,118.104 L97.496,114.612 C97.3199991,114.532 97.1540008,114.478 96.998,114.45 C96.8419992,114.422 96.6520011,114.408 96.428,114.408 C95.9239975,114.408 95.5060017,114.577998 95.174,114.918 Z M104.492,114.312 L103.952,115.008 C103.743999,114.807999 103.508001,114.658 103.244,114.558 C102.979999,114.457999 102.716001,114.408 102.452,114.408 C102.043998,114.408 101.724001,114.483999 101.492,114.636 C101.259999,114.788001 101.144,114.995999 101.144,115.26 C101.144,115.500001 101.239999,115.685999 101.432,115.818 C101.624001,115.950001 101.951998,116.083999 102.416,116.22 C103.032003,116.404001 103.483999,116.643999 103.772,116.94 C104.060001,117.236001 104.204,117.635997 104.204,118.14 C104.204,118.580002 104.080001,118.949998 103.832,119.25 C103.583999,119.550002 103.262002,119.773999 102.866,119.922 C102.469998,120.070001 102.040002,120.144 101.576,120.144 C100.639995,120.144 99.8600031,119.840003 99.236,119.232 L99.908,118.548 C100.116001,118.772001 100.369998,118.945999 100.67,119.07 C100.970002,119.194001 101.287998,119.256 101.624,119.256 C102.128003,119.256 102.491999,119.146001 102.716,118.926 C102.940001,118.705999 103.052,118.472001 103.052,118.224 C103.052,118.015999 103.01,117.848001 102.926,117.72 C102.842,117.591999 102.710001,117.48 102.53,117.384 C102.349999,117.288 102.080002,117.180001 101.72,117.06 C101.119997,116.859999 100.688001,116.626001 100.424,116.358 C100.159999,116.089999 100.028,115.744002 100.028,115.32 C100.028,115.023999 100.117999,114.740001 100.298,114.468 C100.478001,114.195999 100.749998,113.972001 101.114,113.796 C101.478002,113.619999 101.923997,113.532 102.452,113.532 C103.228004,113.532 103.907997,113.791997 104.492,114.312 Z" id="Gazella-dorcas" fill="#212121"></path>
            <g id="Rectangle-6">
                <use fill-opacity="0.6" fill="#9EF0D5" fill-rule="evenodd" xlink:href="#path-5"></use>
                <rect stroke="#27EBA3" stroke-width="1" x="10.5" y="111.5" width="9" height="9"></rect>
            </g>
            <path d="M12.1,18.08 L11.584,20 L9.94,20 L12.52,11.708 L14.476,11.708 L17.044,20 L15.364,20 L14.848,18.08 L12.1,18.08 Z M13.468,12.92 L12.412,16.88 L14.536,16.88 L13.468,12.92 Z M22.63,13.982 C22.9460016,14.3220017 23.104,14.795997 23.104,15.404 L23.104,20 L21.568,20 L21.568,15.644 C21.568,15.2679981 21.5020007,15.0040008 21.37,14.852 C21.2379993,14.6999992 21.0440013,14.624 20.788,14.624 C20.5239987,14.624 20.2860011,14.7059992 20.074,14.87 C19.8619989,15.0340008 19.656001,15.2719984 19.456,15.584 L19.456,20 L17.92,20 L17.92,13.652 L19.252,13.652 L19.372,14.492 C19.9000026,13.8119966 20.5439962,13.472 21.304,13.472 C21.8720028,13.472 22.3139984,13.6419983 22.63,13.982 Z M27.778,20.06 C27.5019986,20.1400004 27.2200014,20.18 26.932,20.18 C26.3079969,20.172 25.8340016,19.9940017 25.51,19.646 C25.1859984,19.2979983 25.024,18.7840034 25.024,18.104 L25.024,14.756 L24.028,14.756 L24.028,13.652 L25.024,13.652 L25.024,12.248 L26.56,12.068 L26.56,13.652 L28.036,13.652 L27.88,14.756 L26.56,14.756 L26.56,18.068 C26.56,18.3800016 26.6139995,18.6039993 26.722,18.74 C26.8300005,18.8760007 26.9999988,18.944 27.232,18.944 C27.4720012,18.944 27.7239987,18.8640008 27.988,18.704 L28.528,19.7 C28.3039989,19.8600008 28.0540014,19.9799996 27.778,20.06 Z M34.444,17.3 L30.46,17.3 C30.5160003,17.9160031 30.6779987,18.3559987 30.946,18.62 C31.2140013,18.8840013 31.5719978,19.016 32.02,19.016 C32.3000014,19.016 32.5639988,18.9700005 32.812,18.878 C33.0600012,18.7859995 33.3239986,18.644001 33.604,18.452 L34.24,19.328 C33.5359965,19.8960028 32.7520043,20.18 31.888,20.18 C30.9199952,20.18 30.1740026,19.884003 29.65,19.292 C29.1259974,18.699997 28.864,17.8920051 28.864,16.868 C28.864,16.2199968 28.9759989,15.6380026 29.2,15.122 C29.4240011,14.6059974 29.7479979,14.2020015 30.172,13.91 C30.5960021,13.6179985 31.0999971,13.472 31.684,13.472 C32.5720044,13.472 33.2599976,13.7539972 33.748,14.318 C34.2360024,14.8820028 34.48,15.667995 34.48,16.676 C34.48,16.7560004 34.4680001,16.9639983 34.444,17.3 Z M32.956,16.232 C32.956,15.1199944 32.5440041,14.564 31.72,14.564 C31.3439981,14.564 31.0500011,14.7019986 30.838,14.978 C30.6259989,15.2540014 30.5000002,15.695997 30.46,16.304 L32.956,16.304 L32.956,16.232 Z M37.456,18.83 C37.5120003,18.9060004 37.6039994,18.944 37.732,18.944 C37.8520006,18.944 37.9719994,18.9240002 38.092,18.884 L38.416,19.964 C38.0719983,20.1080007 37.7080019,20.18 37.324,20.18 C36.8439976,20.18 36.4760013,20.0420014 36.22,19.766 C35.9639987,19.4899986 35.836,19.0880026 35.836,18.56 L35.836,11.108 L37.372,10.94 L37.372,18.452 C37.372,18.6280009 37.3999997,18.7539996 37.456,18.83 Z M44.098,14.366 C44.6220026,14.962003 44.884,15.7799948 44.884,16.82 C44.884,17.4840033 44.7640012,18.0699975 44.524,18.578 C44.2839988,19.0860025 43.9400022,19.4799986 43.492,19.76 C43.0439978,20.0400014 42.5120031,20.18 41.896,20.18 C40.9599953,20.18 40.2280026,19.882003 39.7,19.286 C39.1719974,18.689997 38.908,17.8680052 38.908,16.82 C38.908,16.1559967 39.0279988,15.5720025 39.268,15.068 C39.5080012,14.5639975 39.8539977,14.1720014 40.306,13.892 C40.7580023,13.6119986 41.2919969,13.472 41.908,13.472 C42.8440047,13.472 43.5739974,13.769997 44.098,14.366 Z M40.528,16.82 C40.528,17.5720038 40.6419989,18.1259982 40.87,18.482 C41.0980011,18.8380018 41.4399977,19.016 41.896,19.016 C42.3520023,19.016 42.6939989,18.8360018 42.922,18.476 C43.1500011,18.1159982 43.264,17.5640037 43.264,16.82 C43.264,16.0759963 43.1500011,15.5260018 42.922,15.17 C42.6939989,14.8139982 42.3560022,14.636 41.908,14.636 C40.9879954,14.636 40.528,15.3639927 40.528,16.82 Z M51.382,14.348 C51.7700019,14.9320029 51.964,15.7519947 51.964,16.808 C51.964,17.4640033 51.866001,18.0459975 51.67,18.554 C51.473999,19.0620025 51.1860019,19.4599986 50.806,19.748 C50.4259981,20.0360014 49.9760026,20.18 49.456,20.18 C48.7839966,20.18 48.252002,19.9480023 47.86,19.484 L47.86,22.448 L46.324,22.616 L46.324,13.652 L47.668,13.652 L47.752,14.432 C47.9920012,14.1119984 48.2739984,13.8720008 48.598,13.712 C48.9220016,13.5519992 49.2519983,13.472 49.588,13.472 C50.396004,13.472 50.9939981,13.7639971 51.382,14.348 Z M50.356,16.82 C50.356,16.0359961 50.254001,15.4740017 50.05,15.134 C49.845999,14.7939983 49.540002,14.624 49.132,14.624 C48.8839988,14.624 48.6500011,14.7019992 48.43,14.858 C48.2099989,15.0140008 48.0200008,15.2239987 47.86,15.488 L47.86,18.344 C48.1560015,18.7840022 48.5439976,19.004 49.024,19.004 C49.9120044,19.004 50.356,18.2760073 50.356,16.82 Z M58.648,17.3 L54.664,17.3 C54.7200003,17.9160031 54.8819987,18.3559987 55.15,18.62 C55.4180013,18.8840013 55.7759978,19.016 56.224,19.016 C56.5040014,19.016 56.7679988,18.9700005 57.016,18.878 C57.2640012,18.7859995 57.5279986,18.644001 57.808,18.452 L58.444,19.328 C57.7399965,19.8960028 56.9560043,20.18 56.092,20.18 C55.1239952,20.18 54.3780026,19.884003 53.854,19.292 C53.3299974,18.699997 53.068,17.8920051 53.068,16.868 C53.068,16.2199968 53.1799989,15.6380026 53.404,15.122 C53.6280011,14.6059974 53.9519979,14.2020015 54.376,13.91 C54.8000021,13.6179985 55.3039971,13.472 55.888,13.472 C56.7760044,13.472 57.4639976,13.7539972 57.952,14.318 C58.4400024,14.8820028 58.684,15.667995 58.684,16.676 C58.684,16.7560004 58.6720001,16.9639983 58.648,17.3 Z M57.16,16.232 C57.16,15.1199944 56.7480041,14.564 55.924,14.564 C55.5479981,14.564 55.2540011,14.7019986 55.042,14.978 C54.8299989,15.2540014 54.7040002,15.695997 54.664,16.304 L57.16,16.304 L57.16,16.232 Z M67.36,14.228 L66.76,15.152 C66.2319974,14.7919982 65.7120026,14.612 65.2,14.612 C64.8799984,14.612 64.6340009,14.6699994 64.462,14.786 C64.2899991,14.9020006 64.204,15.055999 64.204,15.248 C64.204,15.3920007 64.2399996,15.5119995 64.312,15.608 C64.3840004,15.7040005 64.5139991,15.7939996 64.702,15.878 C64.8900009,15.9620004 65.1679982,16.0559995 65.536,16.16 C66.2240034,16.3440009 66.7339983,16.5879985 67.066,16.892 C67.3980017,17.1960015 67.564,17.6199973 67.564,18.164 C67.564,18.7960032 67.3080026,19.2899982 66.796,19.646 C66.2839974,20.0020018 65.6480038,20.18 64.888,20.18 C64.3679974,20.18 63.8940021,20.1000008 63.466,19.94 C63.0379979,19.7799992 62.6680016,19.5600014 62.356,19.28 L63.136,18.404 C63.6640026,18.8280021 64.231997,19.04 64.84,19.04 C65.1840017,19.04 65.459999,18.9720007 65.668,18.836 C65.876001,18.6999993 65.98,18.5200011 65.98,18.296 C65.98,18.103999 65.9420004,17.9540005 65.866,17.846 C65.7899996,17.7379995 65.654001,17.6400004 65.458,17.552 C65.261999,17.4639996 64.9560021,17.3600006 64.54,17.24 C63.8919968,17.0639991 63.4160015,16.8180016 63.112,16.502 C62.8079985,16.1859984 62.656,15.7920024 62.656,15.32 C62.656,14.9679982 62.757999,14.6520014 62.962,14.372 C63.166001,14.0919986 63.4539981,13.8720008 63.826,13.712 C64.1980019,13.5519992 64.6239976,13.472 65.104,13.472 C65.9600043,13.472 66.7119968,13.7239975 67.36,14.228 Z M73.87,14.348 C74.2580019,14.9320029 74.452,15.7519947 74.452,16.808 C74.452,17.4640033 74.354001,18.0459975 74.158,18.554 C73.961999,19.0620025 73.6740019,19.4599986 73.294,19.748 C72.9139981,20.0360014 72.4640026,20.18 71.944,20.18 C71.2719966,20.18 70.740002,19.9480023 70.348,19.484 L70.348,22.448 L68.812,22.616 L68.812,13.652 L70.156,13.652 L70.24,14.432 C70.4800012,14.1119984 70.7619984,13.8720008 71.086,13.712 C71.4100016,13.5519992 71.7399983,13.472 72.076,13.472 C72.884004,13.472 73.4819981,13.7639971 73.87,14.348 Z M72.844,16.82 C72.844,16.0359961 72.742001,15.4740017 72.538,15.134 C72.333999,14.7939983 72.028002,14.624 71.62,14.624 C71.3719988,14.624 71.1380011,14.7019992 70.918,14.858 C70.6979989,15.0140008 70.5080008,15.2239987 70.348,15.488 L70.348,18.344 C70.6440015,18.7840022 71.0319976,19.004 71.512,19.004 C72.4000044,19.004 72.844,18.2760073 72.844,16.82 Z M81.136,17.3 L77.152,17.3 C77.2080003,17.9160031 77.3699987,18.3559987 77.638,18.62 C77.9060013,18.8840013 78.2639978,19.016 78.712,19.016 C78.9920014,19.016 79.2559988,18.9700005 79.504,18.878 C79.7520012,18.7859995 80.0159986,18.644001 80.296,18.452 L80.932,19.328 C80.2279965,19.8960028 79.4440043,20.18 78.58,20.18 C77.6119952,20.18 76.8660026,19.884003 76.342,19.292 C75.8179974,18.699997 75.556,17.8920051 75.556,16.868 C75.556,16.2199968 75.6679989,15.6380026 75.892,15.122 C76.1160011,14.6059974 76.4399979,14.2020015 76.864,13.91 C77.2880021,13.6179985 77.7919971,13.472 78.376,13.472 C79.2640044,13.472 79.9519976,13.7539972 80.44,14.318 C80.9280024,14.8820028 81.172,15.667995 81.172,16.676 C81.172,16.7560004 81.1600001,16.9639983 81.136,17.3 Z M79.648,16.232 C79.648,15.1199944 79.2360041,14.564 78.412,14.564 C78.0359981,14.564 77.7420011,14.7019986 77.53,14.978 C77.3179989,15.2540014 77.1920002,15.695997 77.152,16.304 L79.648,16.304 L79.648,16.232 Z M86.266,13.652 C86.5980017,13.7720006 86.9119985,13.9599987 87.208,14.216 L86.512,15.152 C86.303999,14.9919992 86.100001,14.8740004 85.9,14.798 C85.699999,14.7219996 85.4800012,14.684 85.24,14.684 C84.2879952,14.684 83.812,15.4079928 83.812,16.856 C83.812,17.5920037 83.9359988,18.1219984 84.184,18.446 C84.4320012,18.7700016 84.7839977,18.932 85.24,18.932 C85.4720012,18.932 85.6819991,18.8940004 85.87,18.818 C86.0580009,18.7419996 86.2679988,18.6160009 86.5,18.44 L87.208,19.448 C86.607997,19.9360024 85.9240038,20.18 85.156,20.18 C84.547997,20.18 84.0200022,20.0460013 83.572,19.778 C83.1239978,19.5099987 82.7800012,19.1280025 82.54,18.632 C82.2999988,18.1359975 82.18,17.5520034 82.18,16.88 C82.18,16.2079966 82.2999988,15.6140026 82.54,15.098 C82.7800012,14.5819974 83.1239978,14.1820014 83.572,13.898 C84.0200022,13.6139986 84.543997,13.472 85.144,13.472 C85.5600021,13.472 85.9339983,13.5319994 86.266,13.652 Z M88.324,20 L88.324,13.652 L89.86,13.652 L89.86,20 L88.324,20 Z M89.782,10.706 C89.9620009,10.8860009 90.052,11.1079987 90.052,11.372 C90.052,11.6360013 89.9620009,11.8559991 89.782,12.032 C89.6019991,12.2080009 89.3680014,12.296 89.08,12.296 C88.7999986,12.296 88.5700009,12.2080009 88.39,12.032 C88.2099991,11.8559991 88.12,11.6360013 88.12,11.372 C88.12,11.1079987 88.2099991,10.8860009 88.39,10.706 C88.5700009,10.5259991 88.7999986,10.436 89.08,10.436 C89.3680014,10.436 89.6019991,10.5259991 89.782,10.706 Z M96.88,17.3 L92.896,17.3 C92.9520003,17.9160031 93.1139987,18.3559987 93.382,18.62 C93.6500013,18.8840013 94.0079978,19.016 94.456,19.016 C94.7360014,19.016 94.9999988,18.9700005 95.248,18.878 C95.4960012,18.7859995 95.7599986,18.644001 96.04,18.452 L96.676,19.328 C95.9719965,19.8960028 95.1880043,20.18 94.324,20.18 C93.3559952,20.18 92.6100026,19.884003 92.086,19.292 C91.5619974,18.699997 91.3,17.8920051 91.3,16.868 C91.3,16.2199968 91.4119989,15.6380026 91.636,15.122 C91.8600011,14.6059974 92.1839979,14.2020015 92.608,13.91 C93.0320021,13.6179985 93.5359971,13.472 94.12,13.472 C95.0080044,13.472 95.6959976,13.7539972 96.184,14.318 C96.6720024,14.8820028 96.916,15.667995 96.916,16.676 C96.916,16.7560004 96.9040001,16.9639983 96.88,17.3 Z M95.392,16.232 C95.392,15.1199944 94.9800041,14.564 94.156,14.564 C93.7799981,14.564 93.4860011,14.7019986 93.274,14.978 C93.0619989,15.2540014 92.9360002,15.695997 92.896,16.304 L95.392,16.304 L95.392,16.232 Z M102.592,14.228 L101.992,15.152 C101.463997,14.7919982 100.944003,14.612 100.432,14.612 C100.111998,14.612 99.8660009,14.6699994 99.694,14.786 C99.5219991,14.9020006 99.436,15.055999 99.436,15.248 C99.436,15.3920007 99.4719996,15.5119995 99.544,15.608 C99.6160004,15.7040005 99.7459991,15.7939996 99.934,15.878 C100.122001,15.9620004 100.399998,16.0559995 100.768,16.16 C101.456003,16.3440009 101.965998,16.5879985 102.298,16.892 C102.630002,17.1960015 102.796,17.6199973 102.796,18.164 C102.796,18.7960032 102.540003,19.2899982 102.028,19.646 C101.515997,20.0020018 100.880004,20.18 100.12,20.18 C99.5999974,20.18 99.1260021,20.1000008 98.698,19.94 C98.2699979,19.7799992 97.9000016,19.5600014 97.588,19.28 L98.368,18.404 C98.8960026,18.8280021 99.463997,19.04 100.072,19.04 C100.416002,19.04 100.691999,18.9720007 100.9,18.836 C101.108001,18.6999993 101.212,18.5200011 101.212,18.296 C101.212,18.103999 101.174,17.9540005 101.098,17.846 C101.022,17.7379995 100.886001,17.6400004 100.69,17.552 C100.493999,17.4639996 100.188002,17.3600006 99.772,17.24 C99.1239968,17.0639991 98.6480015,16.8180016 98.344,16.502 C98.0399985,16.1859984 97.888,15.7920024 97.888,15.32 C97.888,14.9679982 97.989999,14.6520014 98.194,14.372 C98.398001,14.0919986 98.6859981,13.8720008 99.058,13.712 C99.4300019,13.5519992 99.8559976,13.472 100.336,13.472 C101.192004,13.472 101.943997,13.7239975 102.592,14.228 Z" id="Antelope-species" fill="#212121"></path>
        </g>
    </g>
</svg>