<?xml version="1.0" encoding="UTF-8" standalone="no"?>
<svg width="42px" height="64px" viewBox="0 0 42 64" version="1.1" xmlns="http://www.w3.org/2000/svg" xmlns:xlink="http://www.w3.org/1999/xlink">
    <!-- Generator: Sketch 47.1 (45422) - http://www.bohemiancoding.com/sketch -->
    <title>Fill 1</title>
    <desc>Created with Sketch.</desc>
    <defs></defs>
    <g id="Welcome" stroke="none" stroke-width="1" fill="none" fill-rule="evenodd">
        <path d="M41.9097915,33.6081533 C41.6798466,32.4796291 41.6798466,31.8025146 41.6798466,30.4482856 C41.6798466,29.0940566 41.2201867,27.9655324 40.7602968,27.0627131 C40.300407,26.1598938 40.5303519,25.2570744 40.0704621,24.3542551 C39.6105722,23.4514358 38.9207374,22.3229116 37.7710128,21.4200923 C36.6212882,20.5172729 34.7812689,19.6144536 33.1718844,19.3887488 C31.5624999,19.1630439 29.9531154,18.9373391 28.5732159,19.3887488 C27.1933164,19.8401584 26.5037116,20.2915681 23.5144276,21.4200923 C20.5251436,22.5486164 15.0066954,25.4827793 12.7070162,24.5799599 C10.9808197,23.902394 9.25485307,21.5717659 8.40428679,19.9740014 C8.60203943,19.0045991 8.69631685,18.2338171 9.02766748,17.5831101 C9.48755733,16.6802908 9.2576124,16.2288811 10.407337,16.0031763 C11.5570616,15.7774714 12.4768413,14.4232424 13.1666761,13.5204231 C13.8565109,12.6176038 14.7762906,12.1661941 14.0864558,12.1661941 C13.396621,12.1661941 12.9367312,12.6176038 12.7067863,12.8433086 C12.4768413,13.0690134 11.3271167,13.7461279 10.407337,14.1975376 C9.48755733,14.6489473 8.56777764,14.4232424 8.10788779,14.8746521 C8.02372795,14.9572601 7.92968047,15.0389652 7.83172394,15.1188647 C8.04465293,13.9695757 8.44291754,12.1851533 9.02766748,11.0376699 C11.5154416,6.15499728 10.1773921,0.880952437 10.1773921,0.655247604 C10.1773921,0.429542771 9.02766748,-0.698981396 9.71750225,0.655247604 C10.407337,2.0094766 9.2576124,7.87780227 7.64799794,10.3605554 C6.51436947,12.1088651 5.83764156,14.526841 5.53595382,15.8054588 C5.26323914,15.8201296 4.95051405,15.8390889 4.63227028,15.8598537 C4.62859116,15.6276034 4.5766236,15.3100367 4.42876902,14.8746521 C3.96887917,13.5204231 3.04909948,8.32921194 3.2790444,6.52357327 C3.50898933,4.7179346 3.96910912,2.46088627 4.65871394,1.3323621 C5.34831877,0.203837938 5.80843856,-0.473276562 4.42876902,0.655247604 C4.42876902,0.655247604 2.58920963,3.3637056 2.35926471,6.7492781 C2.12931979,10.1348506 2.58920963,14.4232424 2.58920963,15.3260618 C2.58920963,15.563729 2.57357338,15.7691204 2.55816707,15.9440416 C2.39720562,15.6391144 1.59722723,14.1740643 0.979595171,13.9718328 C0.289760401,13.7461279 -0.170129445,13.0690134 0.0598154783,14.4232424 C0.289760401,15.7774714 0.979595171,16.4545859 1.20954009,17.1317004 C1.43948502,17.8088149 1.66942994,18.0345198 1.43948502,18.9373391 C1.20954009,19.8401584 0.979595171,20.0658633 1.66942994,21.4200923 C2.35926471,22.7743213 2.81915456,23.4514358 2.58920963,24.5799599 C2.35926471,25.7084841 2.58920963,26.6113034 3.04909948,26.8370083 C3.50898933,27.0627131 3.96887917,27.5141228 4.42876902,27.0627131 C4.5950192,26.8997542 4.88153057,26.7367953 5.17953919,26.5842189 C5.44926459,27.0058355 5.71117185,27.4534082 5.80843856,27.7398276 C6.03838348,28.4169421 8.79772256,32.2539243 10.1773921,33.3824484 C11.5570616,34.5109726 14.5463456,34.9623823 16.1559601,36.3166113 C17.7655746,37.6708403 18.6853543,38.3479548 18.9152992,39.2507741 C19.1452441,40.1535934 19.1450142,42.6363466 19.375189,43.7648708 C19.6053639,44.8933949 19.6051339,48.9560819 19.375189,50.0846061 C19.1452441,51.2131303 18.4554093,57.0814559 17.9955195,58.8870946 C17.5356296,60.6927333 17.3056847,60.9184381 16.8457949,61.5955526 C16.385905,62.2726671 15.9260152,62.9497816 16.1559601,63.4011913 C16.385905,63.8526009 17.5356296,64.3040106 17.9955195,63.6268961 C18.4554093,62.9497816 18.2254644,62.7240768 18.6853543,61.8212574 C19.1452441,60.9184381 19.3749591,60.9184381 19.3749591,60.0156188 C19.3749591,59.1127994 19.375189,56.8557511 19.8350789,55.5015221 C20.2949687,54.1472931 20.7548586,49.4074916 20.9848035,47.3761481 C21.2147484,45.3448046 20.7548586,42.6363466 21.2147484,41.2821176 C21.6746383,39.9278886 21.6746383,39.4764789 22.364473,39.2507741 C23.0543078,39.0250693 23.2842527,39.2507741 23.2842527,39.2507741 C23.2842527,39.2507741 23.0543078,43.0877563 23.0543078,44.4419853 C23.0543078,45.7962143 23.2842527,49.6331964 23.7441426,50.9874254 C24.2040324,52.3416544 25.1235822,55.9529318 25.1235822,57.3071608 C25.1235822,58.6613898 24.8938672,59.7899139 24.8938672,60.6927333 C24.8938672,61.5955526 23.5141976,62.9497816 23.5141976,63.6268961 C23.5141976,64.3040106 24.4335174,63.8526009 25.1235822,63.8526009 C25.8136469,63.8526009 25.8136469,63.4011913 26.0435918,62.2726671 C26.2735367,61.1441429 26.0435918,60.2413236 26.2735367,59.3385043 C26.5034816,58.4356849 26.2735367,56.8557511 26.2735367,56.1786366 C26.2735367,55.5015221 24.8934073,49.8589013 25.1235822,48.2789674 C25.353757,46.6990336 26.0435918,42.6363466 26.2735367,41.0564128 C26.5034816,39.4764789 26.0435918,38.7993644 26.5034816,38.5736596 C26.9633715,38.3479548 26.9636014,38.1222499 27.4232613,39.0250693 C27.8829212,39.9278886 29.0328758,42.1849369 30.1826004,43.3134611 C31.332325,44.4419853 32.7119946,48.5046723 32.2521047,50.3103109 C31.7922149,52.1159496 31.10261,59.1127994 30.8724352,60.2413236 C30.6422603,61.3698478 30.1826004,61.5955526 29.9526555,62.4983719 C29.7227106,63.4011913 29.0328758,63.4011913 29.4927656,63.6268961 C29.9526555,63.8526009 31.1023801,63.8526009 31.56227,63.4011913 C32.0221598,62.9497816 32.2521047,62.7240768 32.2521047,61.8212574 C32.2521047,60.9184381 31.7922149,60.0156188 32.2521047,59.1127994 C32.7119946,58.2099801 32.9419395,53.4701786 33.4018293,52.3416544 C33.8617192,51.2131303 34.7814989,46.4733288 34.551554,44.8933949 C34.321609,43.3134611 33.1718844,42.8620514 32.7119946,41.9592321 C32.2521047,41.0564128 32.4820496,39.9278886 32.4820496,39.0250693 C32.4820496,38.1222499 32.9419395,37.4451354 33.4018293,37.2194306 C33.8617192,36.9937258 35.7012786,37.2194306 35.7012786,37.2194306 C35.7012786,37.2194306 35.4715636,40.1535934 35.9312235,41.9592321 C36.3908834,43.7648708 36.6210583,47.3761481 36.8510032,48.2789674 C37.0809481,49.1817868 37.7707829,52.1159496 38.0007278,53.6958834 C38.2306727,55.2758173 38.9205075,60.6927333 38.6905626,61.3698478 C38.4606176,62.0469623 38.0007278,62.9497816 38.2306727,63.1754864 C38.4606176,63.4011913 39.3803973,63.6268961 40.0702321,63.1754864 C40.7600669,62.7240768 40.7600669,62.7240768 40.530122,61.5955526 C40.300177,60.4670284 39.8402872,57.3071608 39.6103423,56.1786366 C39.3803973,55.0501124 39.1502225,49.8589013 39.1502225,48.7303771 C39.1502225,47.6018529 38.2306727,44.8933949 38.4606176,43.5391659 C38.6905626,42.1849369 39.1506824,39.9278886 39.3806273,36.9937258 C39.6105722,34.0595629 39.8405171,33.1567436 39.8405171,32.0282194 C39.8405171,30.8996953 39.6105722,29.5454663 40.0704621,29.5454663 C40.5303519,29.5454663 40.300407,31.1254001 40.5303519,32.2539243 C40.7602968,33.3824484 40.9900118,34.2852678 41.4499016,34.5109726 C41.9097915,34.7366774 42.1397364,34.7366774 41.9097915,33.6081533" id="Fill-1" fill="#66B7EA"></path>
    </g>
</svg>