<?xml version="1.0" standalone="no"?>
<!DOCTYPE svg PUBLIC "-//W3C//DTD SVG 20010904//EN"
 "http://www.w3.org/TR/2001/REC-SVG-20010904/DTD/svg10.dtd">
<svg version="1.0" xmlns="http://www.w3.org/2000/svg"
 width="64.000000pt" height="64.000000pt" viewBox="0 0 64.000000 64.000000"
 preserveAspectRatio="xMidYMid meet">

<g transform="translate(0.000000,64.000000) scale(0.100000,-0.100000)"
fill="#000000" stroke="none">
<path d="M265 541 c-127 -33 -197 -151 -161 -273 39 -135 190 -197 317 -130
157 82 155 302 -3 383 -44 23 -110 31 -153 20z m142 -36 c190 -95 124 -375
-88 -375 -178 0 -271 196 -156 327 65 74 156 92 244 48z"/>
<path d="M240 462 c-109 -54 -106 -218 5 -272 51 -25 88 -25 141 -1 109 49
117 199 14 268 -41 28 -110 30 -160 5z m140 -29 c61 -36 79 -134 33 -185 -83
-94 -239 -23 -220 99 14 84 113 130 187 86z"/>
<path d="M264 386 c-59 -50 -25 -136 53 -136 85 0 113 114 36 149 -36 17 -59
13 -89 -13z m86 -26 c24 -24 24 -29 4 -58 -17 -24 -53 -29 -72 -10 -21 21 -15
68 11 78 32 13 35 12 57 -10z"/>
</g>
</svg>
