<?xml version="1.0" encoding="UTF-8" standalone="no"?>
<svg width="20px" height="20px" viewBox="0 0 20 20" version="1.1" xmlns="http://www.w3.org/2000/svg" xmlns:xlink="http://www.w3.org/1999/xlink">
    <!-- Generator: Sketch 42 (36781) - http://www.bohemiancoding.com/sketch -->
    <title>icons/bt-twitter-h</title>
    <desc>Created with Sketch.</desc>
    <defs></defs>
    <g id="Symbols" stroke="none" stroke-width="1" fill="none" fill-rule="evenodd">
        <g id="icons/bt-twitter-h" fill="#0079BA">
            <g id="Page-1" transform="translate(4.000000, 5.000000)">
                <path d="M10.7715,2.5537 C10.7775,2.6587 10.7795,2.7647 10.7795,2.8707 C10.7795,6.1247 8.3025,9.8767 3.7755,9.8767 C2.3835,9.8767 1.0895,9.4687 0.0005,8.7707 C0.1935,8.7927 0.3885,8.8047 0.5875,8.8047 C1.7425,8.8047 2.8025,8.4117 3.6445,7.7507 C2.5685,7.7307 1.6585,7.0187 1.3455,6.0407 C1.4965,6.0697 1.6505,6.0857 1.8085,6.0857 C2.0335,6.0857 2.2515,6.0547 2.4575,5.9987 C1.3325,5.7717 0.4825,4.7777 0.4825,3.5847 L0.4825,3.5547 C0.8145,3.7387 1.1945,3.8487 1.5975,3.8617 C0.9375,3.4207 0.5025,2.6657 0.5025,1.8127 C0.5025,1.3617 0.6255,0.9377 0.8355,0.5747 C2.0495,2.0647 3.8655,3.0447 5.9105,3.1467 C5.8695,2.9667 5.8465,2.7797 5.8465,2.5857 C5.8465,1.2267 6.9495,0.1247 8.3085,0.1247 C9.0165,0.1247 9.6565,0.4237 10.1055,0.9017 C10.6665,0.7907 11.1935,0.5857 11.6695,0.3037 C11.4845,0.8787 11.0955,1.3617 10.5865,1.6657 C11.0845,1.6077 11.5595,1.4747 12.0005,1.2797 C11.6705,1.7737 11.2535,2.2067 10.7715,2.5537" id="Fill-3"></path>
            </g>
        </g>
    </g>
</svg>