<?xml version="1.0" encoding="UTF-8" standalone="no"?>
<svg width="24px" height="24px" viewBox="0 0 24 24" version="1.1" xmlns="http://www.w3.org/2000/svg" xmlns:xlink="http://www.w3.org/1999/xlink">
    <!-- Generator: Sketch 42 (36781) - http://www.bohemiancoding.com/sketch -->
    <title>icons/centermap</title>
    <desc>Created with Sketch.</desc>
    <defs></defs>
    <g id="Symbols" stroke="none" stroke-width="1" fill="none" fill-rule="evenodd">
        <g id="icons/centermap" fill="#0079BA">
            <g id="Page-1" transform="translate(1.000000, 6.000000)">
                <path d="M16.0581,8.0664 L15.4521,8.0664 C15.4521,8.0664 15.4061,8.0714 15.3741,8.0964 C15.3741,8.0964 15.2911,8.1564 15.2401,8.1894 C15.2001,8.2144 15.1961,8.1314 15.1961,8.1314 L15.1961,8.0514 C15.1961,8.0514 15.2011,8.0074 15.1451,8.0074 L14.8941,8.0074 C14.8471,8.0074 14.8321,8.0594 14.8321,8.0594 C14.8321,8.0594 14.8011,8.1644 14.7661,8.2794 C14.7331,8.3834 14.8231,8.3744 14.8231,8.3744 L15.3441,8.3744 C15.3441,8.3744 15.4251,8.3684 15.4681,8.4144 C15.5111,8.4594 15.5071,8.5344 15.6781,8.5344 C15.8491,8.5344 16.3841,8.3584 16.3841,8.3584 C16.3841,8.3584 16.4661,8.3334 16.4691,8.2534 C16.4691,8.2534 16.4671,8.1334 16.4671,8.0814 C16.4671,8.0284 16.4051,8.0784 16.4051,8.0784 L16.1941,8.2334 C16.1941,8.2334 16.1201,8.2674 16.1201,8.1924 C16.1201,8.1164 16.1201,8.0664 16.0581,8.0664 Z M19.1411,8.0534 C19.1161,8.0914 19.0471,8.1724 19.0421,8.2864 C19.0391,8.3604 19.0751,8.3854 19.0751,8.3854 C19.0751,8.3854 19.1231,8.4384 19.1871,8.4934 C19.2511,8.5484 19.3421,8.5034 19.3421,8.5034 C19.4891,8.3984 19.7301,8.1864 19.7301,8.1864 C19.7301,8.1864 19.7591,8.1484 19.7661,8.0814 C19.7741,8.0154 19.8141,8.0154 19.8481,7.9864 C19.8811,7.9574 19.9841,7.9434 19.9621,7.8764 C19.9391,7.8094 19.8951,7.7374 19.8951,7.7374 C19.8951,7.7374 19.8621,7.7004 19.9171,7.6424 L20.1391,7.3924 C20.1391,7.3924 20.1741,7.3204 20.1001,7.3574 C20.0761,7.3694 19.3951,7.7244 19.3951,7.7244 C19.3951,7.7244 19.3401,7.7484 19.3401,7.8144 C19.3401,7.8814 19.3551,7.9904 19.2881,7.9904 C19.2231,7.9904 19.1671,8.0154 19.1411,8.0534 Z M10.3781,6.7114 C10.4171,6.6514 10.4081,6.6034 10.3591,6.5784 C10.3111,6.5544 10.2191,6.5874 10.2191,6.5874 C10.2191,6.5874 9.6971,6.7244 9.6111,6.7494 C9.6111,6.7494 9.5751,6.7614 9.5371,6.7464 C9.4981,6.7314 9.3651,6.6694 9.3651,6.6694 C9.3171,6.6384 9.2111,6.6334 9.2111,6.6334 L9.0051,6.6514 C8.9021,6.6484 8.8801,6.6824 8.8801,6.6824 C8.8801,6.6824 8.8581,6.7144 8.8071,6.8014 C8.7551,6.8894 8.8431,6.9354 8.8431,6.9354 C8.8431,6.9354 9.9151,7.5014 9.9901,7.5364 C10.0621,7.5704 10.1211,7.5284 10.1211,7.5284 C10.1211,7.5284 10.1911,7.4554 10.2281,7.4104 C10.2651,7.3644 10.2431,7.3014 10.2431,7.3014 C10.2431,7.3014 10.1911,7.1624 10.1771,7.1024 C10.1621,7.0434 10.2091,6.9594 10.2091,6.9594 L10.3781,6.7114 Z M7.5811,3.9234 L7.5811,3.6194 C7.5811,3.5604 7.5521,3.5594 7.5521,3.5594 C7.5521,3.5594 7.5401,3.5584 7.5171,3.5584 C7.4941,3.5584 7.4821,3.5834 7.4821,3.6034 C7.4821,3.6244 7.4631,3.6454 7.4631,3.6454 C7.4631,3.6454 7.4331,3.6674 7.4111,3.6824 C7.3901,3.6984 7.3441,3.6944 7.3441,3.6944 C7.2721,3.6924 7.2001,3.6944 7.2001,3.6944 C7.2001,3.6944 7.1741,3.6994 7.1501,3.7224 L7.0991,3.7644 C7.0991,3.7644 7.0631,3.7814 7.0701,3.8114 C7.0771,3.8414 7.1821,4.3684 7.1821,4.3684 C7.1821,4.3684 7.1841,4.3984 7.2351,4.4164 C7.2841,4.4344 7.3231,4.4454 7.3231,4.4454 C7.3231,4.4454 7.3601,4.4584 7.4121,4.4214 C7.4651,4.3854 7.4841,4.3714 7.4841,4.3714 C7.4841,4.3714 7.5131,4.3624 7.5161,4.2894 C7.5191,4.2164 7.5211,4.1074 7.5211,4.1074 C7.5211,4.1074 7.5221,4.0694 7.5511,4.0434 C7.5801,4.0154 7.5811,3.9684 7.5811,3.9234 Z M7.5771,5.1224 C7.5771,5.1224 7.5841,5.0604 7.5621,4.9534 C7.5491,4.8874 7.5001,4.7204 7.5001,4.7204 C7.5001,4.7204 7.4871,4.6334 7.4331,4.6334 C7.3281,4.6334 7.2881,4.6674 7.2881,4.6674 C7.2881,4.6674 7.1581,4.7644 7.1221,4.7934 C7.0861,4.8224 7.0331,4.8214 7.0331,4.8214 L6.9191,4.8214 C6.8611,4.8214 6.8341,4.8414 6.8341,4.9774 C6.8341,5.1124 6.9391,5.0674 6.9341,5.1774 C6.9291,5.2874 6.8571,5.8444 6.8571,5.8444 C6.8571,5.8444 6.8431,5.9084 6.9101,5.9824 C6.9101,5.9824 6.9591,6.0404 6.9911,6.0444 C6.9911,6.0444 7.0331,6.0484 7.0801,6.0514 C7.1281,6.0544 7.1291,6.0094 7.1291,6.0094 L7.1401,5.9314 C7.1401,5.9314 7.1411,5.8954 7.1821,5.8914 C7.2231,5.8864 7.2831,5.8774 7.2831,5.8774 C7.2831,5.8774 7.3201,5.8734 7.3241,5.8954 C7.3391,5.9834 7.4221,5.9624 7.4431,5.8494 C7.4591,5.7534 7.5771,5.1224 7.5771,5.1224 Z M4.6271,5.3274 C4.6271,5.3274 4.6851,5.2344 4.6051,5.1864 C4.5251,5.1374 4.3581,5.0134 4.3581,5.0134 C4.3581,5.0134 4.2821,4.9554 4.1551,5.0244 L3.8071,5.2444 C3.8071,5.2444 3.7491,5.3064 3.8101,5.3764 C3.8721,5.4444 4.1371,5.6174 4.1371,5.6174 C4.1371,5.6174 4.2861,5.6874 4.3661,5.6144 C4.4451,5.5414 4.6271,5.3274 4.6271,5.3274 Z M21.9311,2.9114 C21.9681,2.9424 22.0331,2.9794 21.9801,3.0894 C21.9801,3.0894 21.7621,3.4024 21.6971,3.4754 C21.6321,3.5484 21.5481,3.5814 21.5481,3.5814 C21.5481,3.5814 20.4031,3.7404 20.3081,3.7334 C20.2111,3.7274 20.1441,3.7034 20.1441,3.7034 C20.1441,3.7034 19.7031,3.5324 19.6211,3.5004 C19.5391,3.4684 19.4121,3.4824 19.4121,3.4824 C19.4121,3.4824 19.1911,3.5094 18.9301,3.5254 C18.6681,3.5414 18.4851,3.7494 18.4851,3.7494 C18.4851,3.7494 18.3021,3.9614 18.1191,4.1354 C17.8851,4.3584 17.1961,4.3514 17.1391,4.3944 C17.0361,4.4704 17.2871,4.5194 17.3571,4.5374 C17.4271,4.5564 17.3671,4.6254 17.3671,4.6254 C17.3671,4.6254 17.0531,4.8584 16.9851,4.8974 C16.9181,4.9364 16.8381,4.9414 16.8381,4.9414 C16.8381,4.9414 16.0981,4.9194 16.0081,4.9414 C15.9191,4.9624 15.9311,5.0854 15.9311,5.0854 C15.9311,5.0854 15.9451,5.4314 15.9351,5.5124 C15.9261,5.5934 15.9951,5.6154 15.9951,5.6154 L16.1131,5.6664 C16.1731,5.6944 16.2201,5.7424 16.2451,5.8004 C16.2451,5.8004 16.6421,6.7874 16.6981,6.9184 C16.7381,7.0144 16.8321,7.0094 16.8321,7.0094 L17.1711,7.0044 C17.2361,7.0014 17.3001,7.0204 17.3521,7.0574 C17.3521,7.0574 17.5901,7.2744 17.6961,7.3444 C17.8021,7.4154 17.9111,7.3504 17.9111,7.3504 C17.9111,7.3504 18.0901,7.2684 18.1601,7.2384 C18.2301,7.2084 18.2011,7.1344 18.2011,7.1344 L18.1791,6.9484 C18.1701,6.8934 18.2451,6.8714 18.2451,6.8714 L18.4641,6.8254 C18.5281,6.8124 18.5951,6.8214 18.6531,6.8514 C18.6531,6.8514 19.0651,7.0954 19.1551,7.1344 C19.2451,7.1744 19.3311,7.1374 19.3311,7.1374 L19.7761,6.9334 C19.8431,6.8904 19.8661,6.8454 19.8661,6.8454 L20.0231,6.6134 C20.0881,6.5184 20.1481,6.5134 20.2271,6.5434 L20.5091,6.6374 C20.6001,6.6674 20.6671,6.7414 20.6861,6.8314 L20.8511,7.6254 C20.8581,7.6574 20.8581,7.6914 20.8511,7.7254 L20.6231,8.8324 L20.5231,9.5024 C20.5121,9.5794 20.4641,9.6474 20.3941,9.6874 L19.8281,10.0124 C19.7591,10.0524 19.6761,10.0544 19.5991,10.0364 C19.5991,10.0364 19.0041,9.9394 18.9201,9.9224 C18.8361,9.9064 18.7731,9.9594 18.7731,9.9594 L18.1091,10.5044 C18.0501,10.5574 17.9671,10.5824 17.8861,10.5714 L14.9141,10.2054 C14.8411,10.1954 14.7731,10.1564 14.7291,10.0984 C14.7141,10.0774 14.7031,10.0554 14.6941,10.0314 C14.6941,10.0314 14.6911,9.9824 14.6881,9.9554 C14.6841,9.9274 14.6431,9.9124 14.6431,9.9124 C14.6431,9.9124 14.3741,9.8724 14.2531,9.8574 C14.1311,9.8424 14.0221,9.8214 13.9071,9.8994 C13.7921,9.9794 13.7181,9.9734 13.6411,9.9704 C13.5651,9.9674 13.4951,10.0304 13.4951,10.0304 C13.4951,10.0304 13.0981,10.3304 13.0271,10.4574 C12.9571,10.5864 13.1121,10.8124 13.1121,10.8124 C13.1541,10.8774 13.1621,10.9574 13.1371,11.0294 L13.0401,11.2994 C13.0061,11.3954 12.9141,11.4634 12.8071,11.4734 L12.5081,11.4994 C12.5001,11.4994 12.4911,11.5004 12.4831,11.5004 C12.4461,11.5004 12.4091,11.4924 12.3741,11.4784 C12.3741,11.4784 11.3691,11.0854 11.3081,11.0664 C11.2481,11.0484 11.1621,11.0644 11.1621,11.0644 L10.9271,11.0824 C10.8791,11.0784 10.8341,11.0624 10.7941,11.0364 L10.6181,10.9194 C10.5601,10.8814 10.5211,10.8244 10.5071,10.7584 C10.5071,10.7584 10.4001,10.4154 10.3741,10.3484 C10.3491,10.2804 10.2611,10.2674 10.2611,10.2674 C10.2611,10.2674 9.4501,10.0414 9.3281,10.0104 C9.2041,9.9794 9.1651,10.0154 9.0151,10.0534 C8.8661,10.0904 8.7841,10.0544 8.7841,10.0544 C8.7841,10.0544 7.5561,9.2844 7.4941,9.1964 C7.4311,9.1074 7.5481,9.0064 7.5481,9.0064 C7.5481,9.0064 7.9111,8.7184 7.9991,8.6684 C8.1731,8.5704 7.7181,7.2834 7.7041,7.2134 C7.6891,7.1324 7.6361,7.1344 7.6361,7.1344 C7.6361,7.1344 7.4091,7.1334 7.3211,7.1344 C7.2451,7.1364 7.2101,7.1834 7.2101,7.1834 L6.9951,7.3944 C6.9661,7.4214 6.8771,7.4364 6.8141,7.4274 C6.8141,7.4274 5.9711,7.2274 5.8231,7.1964 C5.6751,7.1654 5.6191,7.2134 5.6191,7.2134 L5.3521,7.3194 C5.3131,7.3334 5.2701,7.3374 5.2291,7.3314 C5.2291,7.3314 3.5611,7.1654 3.2981,7.1344 C3.0351,7.1044 2.8261,7.2184 2.8261,7.2184 L1.7211,7.7044 C1.6621,7.7244 1.6001,7.7264 1.5411,7.7074 L0.4351,7.3674 C0.3491,7.3404 0.2831,7.2754 0.2571,7.1934 L0.1861,6.9654 C0.1861,6.9654 0.1601,6.9004 0.0971,6.9004 L0.0001,6.9004 L0.0001,6.6444 L0.1641,6.6444 C0.2521,6.6444 0.6311,6.4314 0.6311,6.4314 C0.6891,6.4044 0.7561,6.3984 0.8191,6.4134 C0.8191,6.4134 1.2951,6.5504 1.4861,6.6064 C1.6761,6.6624 1.7641,6.5584 1.7641,6.5584 L2.7221,5.7354 C2.8611,5.6314 2.8031,5.5614 2.8031,5.5614 L2.7281,5.3264 C2.6951,5.2354 2.7161,5.1344 2.7841,5.0634 L3.4311,4.3934 C3.4581,4.3644 3.4941,4.3414 3.5321,4.3274 L4.3911,4.0154 C4.3911,4.0154 4.5451,3.9524 4.5671,3.7224 C4.5891,3.4924 4.6201,3.2664 4.6201,3.2664 C4.6421,3.1794 4.7091,3.1084 4.7991,3.0804 L5.0491,3.0014 C5.1121,2.9814 5.1821,2.9834 5.2431,3.0084 L5.8321,3.2694 C5.8321,3.2694 5.9861,3.3744 6.2431,3.2414 C6.4991,3.1094 7.2851,2.6894 7.2851,2.6894 C7.3821,2.6394 7.5031,2.6514 7.5881,2.7184 L7.9401,2.9994 C7.9701,3.0234 7.9951,3.0524 8.0111,3.0854 L8.2311,3.7544 C8.2311,3.7544 8.2531,3.7964 8.2851,3.8224 C8.3171,3.8504 9.4051,4.7204 9.4051,4.7204 L10.0191,5.0564 C10.0371,5.0664 10.0541,5.0784 10.0691,5.0914 L10.7441,5.6874 C10.7881,5.7274 10.7901,5.7364 10.8001,5.7954 L10.8381,6.0514 C10.8451,6.0984 10.8381,6.1444 10.8191,6.1884 C10.8191,6.1884 10.6181,6.5094 10.5761,6.5754 C10.5761,6.5754 10.5581,6.6054 10.5581,6.6214 C10.5581,6.6384 10.6011,6.7754 10.6011,6.7754 C10.6011,6.7754 10.6111,6.8034 10.6601,6.7994 C10.7081,6.7954 10.7821,6.7934 10.7821,6.7934 C10.7821,6.7934 10.8251,6.7884 10.8441,6.7624 C10.8641,6.7364 11.3201,6.2224 11.3201,6.2224 L11.3911,6.1454 C11.3911,6.1454 11.4551,6.0634 11.4301,5.9974 C11.4051,5.9314 11.3501,5.8114 11.3501,5.8114 C11.3501,5.8114 11.3391,5.7764 11.2841,5.7664 C11.2841,5.7664 11.1701,5.7344 11.1371,5.6974 C11.1041,5.6614 11.0551,5.5624 11.0811,5.5054 C11.1081,5.4504 11.1411,5.3974 11.1411,5.3974 C11.1761,5.3274 11.2411,5.2764 11.3191,5.2564 C11.3961,5.2364 11.4801,5.2514 11.5451,5.2954 L11.9251,5.5774 C11.9251,5.5774 12.0241,5.6374 12.0911,5.5624 C12.1601,5.4864 12.1361,5.4214 12.1231,5.3684 C12.1121,5.3164 12.1151,5.2684 11.9941,5.2094 L10.9401,4.6754 C10.8601,4.6344 10.8081,4.5594 10.7971,4.4734 C10.7971,4.4734 10.7471,4.3524 10.6611,4.3204 C10.5751,4.2894 10.3871,4.3334 10.3871,4.3334 C10.3191,4.3294 10.2551,4.3014 10.2081,4.2564 L9.9071,3.9634 C9.8791,3.9364 9.8581,3.9034 9.8451,3.8684 L9.6711,3.3844 C9.6711,3.3844 9.6391,3.2984 9.5591,3.2464 C9.4811,3.1934 9.1511,2.9474 9.1511,2.9474 C9.0771,2.8954 9.0371,2.8104 9.0431,2.7234 L9.0691,2.3754 C9.0761,2.2784 9.1381,2.1944 9.2321,2.1564 L9.3791,2.0954 C9.4451,2.0674 9.5201,2.0664 9.5881,2.0924 C9.6551,2.1174 9.7091,2.1674 9.7381,2.2304 C9.7381,2.2304 9.7641,2.2834 9.7861,2.3244 C9.8151,2.3784 9.8491,2.3364 9.8491,2.3364 C9.8491,2.3364 9.8851,2.2864 9.9151,2.2464 C9.9441,2.2084 10.0011,2.2004 10.0441,2.2344 C10.0871,2.2704 10.2281,2.4444 10.2281,2.5854 C10.2281,2.5854 10.2611,2.6964 10.3281,2.7704 C10.3951,2.8424 10.9491,3.4104 10.9491,3.4104 L12.3861,4.1784 C12.4611,4.2194 12.5131,4.2924 12.5221,4.3754 C12.5221,4.3754 12.5091,4.8964 12.5211,5.0654 C12.5331,5.2344 12.6381,5.3624 12.6381,5.3624 L13.5191,6.4894 C13.5361,6.5074 13.5491,6.5284 13.5581,6.5504 C13.5581,6.5504 13.8351,7.0874 13.8541,7.1284 C13.8731,7.1694 13.8341,7.2054 13.8341,7.2054 L13.7861,7.2464 C13.7511,7.2744 13.7791,7.3164 13.7791,7.3164 C13.8401,7.4364 13.8611,7.4924 13.8911,7.4924 C13.9211,7.4904 13.9181,7.4454 13.9181,7.4454 C13.9181,7.4454 13.9211,7.3644 13.9211,7.3424 C13.9211,7.3204 13.9391,7.3064 13.9391,7.3064 C13.9391,7.3064 13.9621,7.2934 13.9831,7.2794 C14.0031,7.2664 14.0211,7.2804 14.0211,7.2804 C14.0211,7.2804 14.0991,7.3744 14.1201,7.4034 C14.1411,7.4314 14.1461,7.4844 14.1461,7.4844 C14.1461,7.4844 14.1481,7.5184 14.1471,7.5574 C14.1461,7.5964 14.1601,7.6114 14.1601,7.6114 C14.1601,7.6114 14.1781,7.6304 14.2071,7.6334 C14.2371,7.6354 14.6741,6.9584 14.6871,6.8694 C14.6931,6.8344 14.5951,6.7804 14.5951,6.7804 C14.5761,6.7624 14.5291,6.7364 14.5611,6.6904 C14.6051,6.6274 14.6431,6.6524 14.6431,6.6524 C14.6431,6.6524 14.8501,6.7904 14.9021,6.7804 C14.9541,6.7724 14.9411,6.7124 14.9411,6.7124 L14.9071,6.3054 C14.9021,6.2374 14.8641,6.1874 14.8641,6.1874 L14.1251,5.4074 C14.1251,5.4074 14.0741,5.3344 14.0891,5.2424 C14.1051,5.1514 14.1131,5.1174 14.1131,5.1174 C14.1131,5.1174 14.1171,5.0624 14.1561,5.0334 C14.1961,5.0044 15.6441,4.6924 15.6441,4.6924 C15.6441,4.6924 15.7161,4.6834 15.7371,4.7324 L15.7591,4.7824 C15.7781,4.8374 15.8361,4.8204 15.8361,4.8204 C15.8361,4.8204 16.9151,4.3664 17.0171,4.3224 C17.0171,4.3224 17.0721,4.2844 17.0231,4.2744 C16.9751,4.2644 16.9231,4.2484 16.9231,4.2484 C16.8831,4.2404 16.8511,4.2154 16.8511,4.2154 L16.1521,3.4794 C16.1521,3.4794 16.0851,3.4244 16.1131,3.3634 C16.1401,3.3024 16.2501,3.0704 16.2501,3.0704 C16.2501,3.0704 16.2591,3.0544 16.2801,3.0524 C16.3011,3.0514 16.5371,3.0004 16.5661,2.9934 C16.6371,2.9764 16.6471,2.9124 16.6471,2.8934 C16.6471,2.8744 16.5971,2.5234 16.5971,2.5234 C16.5761,2.3664 16.6161,2.2804 16.6161,2.2804 C16.6161,2.2804 17.0961,1.2384 17.1891,1.0744 C17.2841,0.9094 17.4801,0.9464 17.4801,0.9464 L18.3391,1.1654 C18.4131,1.1914 18.3591,1.2564 18.3591,1.2564 L18.1831,1.4814 C18.1831,1.4814 18.1621,1.5094 18.2131,1.5494 L18.2971,1.6214 C18.2971,1.6214 18.3181,1.6444 18.4211,1.6364 L18.4781,1.6314 C18.4781,1.6314 18.5081,1.6264 18.5111,1.6534 C18.5151,1.6814 18.5571,1.9584 18.5571,1.9584 C18.5571,1.9584 18.5591,2.0134 18.5991,2.0134 L18.6941,2.0134 C18.6941,2.0134 18.7431,2.0164 18.8001,1.9624 C18.8571,1.9084 19.0151,1.7514 19.0151,1.7514 C19.0481,1.7164 19.0991,1.7024 19.0991,1.7024 C19.0991,1.7024 19.3171,1.6494 19.3811,1.6394 C19.4471,1.6274 19.4761,1.5904 19.4761,1.5904 C19.4761,1.5904 19.5181,1.5024 19.5281,1.4744 C19.5371,1.4464 19.5471,1.4334 19.5311,1.4154 C19.5141,1.3964 19.4761,1.3924 19.4761,1.3924 C19.4761,1.3924 19.1701,1.5064 19.0841,1.5244 C18.9971,1.5434 18.9401,1.4564 18.9401,1.4564 C18.9401,1.4564 18.7291,1.1634 18.7031,1.0864 C18.6761,1.0084 18.7771,0.9584 18.7771,0.9584 C18.7771,0.9584 19.2951,0.6014 19.3841,0.5444 C19.4741,0.4874 19.5371,0.5014 19.5371,0.5014 L19.6461,0.5014 C19.7321,0.5014 19.7391,0.5534 19.7391,0.5534 C19.7391,0.5534 19.8781,1.0084 19.9101,1.0814 C19.9411,1.1544 19.8811,1.1454 19.8811,1.1454 L19.8161,1.1454 C19.7631,1.1454 19.8001,1.2354 19.8321,1.3154 C19.8641,1.3954 19.8081,1.3954 19.8081,1.3954 L19.6361,1.3954 C19.5871,1.3954 19.6031,1.4174 19.6031,1.4174 C19.6031,1.4174 19.6231,1.4494 19.6431,1.4854 C19.6631,1.5224 19.6821,1.5314 19.6821,1.5314 C19.6821,1.5314 21.8931,2.8814 21.9311,2.9114 Z" id="Fill-1"></path>
            </g>
        </g>
    </g>
</svg>