<?xml version="1.0" encoding="UTF-8" standalone="no"?>
<svg width="20px" height="20px" viewBox="0 0 20 20" version="1.1" xmlns="http://www.w3.org/2000/svg" xmlns:xlink="http://www.w3.org/1999/xlink">
    <!-- Generator: Sketch 42 (36781) - http://www.bohemiancoding.com/sketch -->
    <title>icons/conclusion-h</title>
    <desc>Created with Sketch.</desc>
    <defs></defs>
    <g id="Symbols" stroke="none" stroke-width="1" fill="none" fill-rule="evenodd">
        <g id="icons/conclusion-h" fill="#0079BA">
            <g id="Page-1" transform="translate(2.000000, 2.000000)">
                <path d="M11.1768,10.2593 L9.1968,11.6993 L7.9908,9.4133 L6.8208,11.7173 L4.8408,10.2773 L6.6408,8.4233 L4.1028,8.0093 L4.8408,5.7413 L7.1448,6.8753 L6.7848,4.2833 L9.2328,4.2833 L8.8548,6.8933 L11.1408,5.7233 L11.8968,8.0093 L9.3588,8.4233 L11.1768,10.2593 Z M13.9998,0.0003 L1.9998,0.0003 C0.8958,0.0003 -0.0002,0.8953 -0.0002,2.0003 L-0.0002,14.0003 C-0.0002,15.1043 0.8958,16.0003 1.9998,16.0003 L13.9998,16.0003 C15.1048,16.0003 15.9998,15.1043 15.9998,14.0003 L15.9998,2.0003 C15.9998,0.8953 15.1048,0.0003 13.9998,0.0003 L13.9998,0.0003 Z" id="Fill-1"></path>
            </g>
        </g>
    </g>
</svg>