<?xml version="1.0" encoding="UTF-8" standalone="no"?>
<svg width="20px" height="20px" viewBox="0 0 20 20" version="1.1" xmlns="http://www.w3.org/2000/svg" xmlns:xlink="http://www.w3.org/1999/xlink">
    <!-- Generator: Sketch 42 (36781) - http://www.bohemiancoding.com/sketch -->
    <title>icons/cover-h</title>
    <desc>Created with Sketch.</desc>
    <defs></defs>
    <g id="Symbols" stroke="none" stroke-width="1" fill="none" fill-rule="evenodd">
        <g id="icons/cover-h" fill="#0079BA">
            <path d="M10,2 C9.591,2 9.224,2.249 9.071,2.628 L7.23,7.23 L2.628,9.071 C2.249,9.224 2,9.591 2,10 C2,10.409 2.249,10.776 2.628,10.929 L7.23,12.77 L9.071,17.372 C9.224,17.751 9.591,18 10,18 C10.409,18 10.776,17.751 10.929,17.372 L12.77,12.77 L17.372,10.929 C17.751,10.776 18,10.409 18,10 C18,9.591 17.751,9.224 17.372,9.071 L12.77,7.23 L10.929,2.628 C10.776,2.249 10.409,2 10,2" id="Page-1"></path>
        </g>
    </g>
</svg>