<?xml version="1.0" encoding="UTF-8" standalone="no"?>
<svg width="20px" height="20px" viewBox="0 0 20 20" version="1.1" xmlns="http://www.w3.org/2000/svg" xmlns:xlink="http://www.w3.org/1999/xlink">
    <!-- Generator: Sketch 42 (36781) - http://www.bohemiancoding.com/sketch -->
    <title>icons/intro-h</title>
    <desc>Created with Sketch.</desc>
    <defs></defs>
    <g id="Symbols" stroke="none" stroke-width="1" fill="none" fill-rule="evenodd">
        <g id="icons/intro-h" fill="#0079BA">
            <g id="Page-1" transform="translate(2.000000, 2.000000)">
                <polygon id="Fill-1" points="0 -0.0002 0 1.4528 2.066 1.4528 2.066 7.9998 3.96 7.9998 3.96 1.4528 5.934 1.4528 6.118 -0.0002"></polygon>
                <polygon id="Fill-2" points="8 1 16 1 16 0 8 0"></polygon>
                <polygon id="Fill-3" points="8 4 16 4 16 3 8 3"></polygon>
                <polygon id="Fill-4" points="8 7 16 7 16 6 8 6"></polygon>
                <polygon id="Fill-5" points="0 10 16 10 16 9 0 9"></polygon>
                <polygon id="Fill-6" points="0 13 16 13 16 12 0 12"></polygon>
                <polygon id="Fill-7" points="0 16 16 16 16 15 0 15"></polygon>
            </g>
        </g>
    </g>
</svg>