<?xml version="1.0" encoding="UTF-8" standalone="no"?>
<svg width="20px" height="20px" viewBox="0 0 20 20" version="1.1" xmlns="http://www.w3.org/2000/svg" xmlns:xlink="http://www.w3.org/1999/xlink">
    <!-- Generator: Sketch 42 (36781) - http://www.bohemiancoding.com/sketch -->
    <title>icons/photo</title>
    <desc>Created with Sketch.</desc>
    <defs></defs>
    <g id="Symbols" stroke="none" stroke-width="1" fill="none" fill-rule="evenodd">
        <g id="icons/photo" fill="#212121">
            <g id="Page-1" transform="translate(2.000000, 3.000000)">
                <path d="M8,11 C6.343,11 5,9.657 5,8 C5,6.343 6.343,5 8,5 C9.657,5 11,6.343 11,8 C11,9.657 9.657,11 8,11 M13,2 L11.667,2 L11.333,1 C11.149,0.448 10.552,0 10,0 L6,0 C5.448,0 4.851,0.448 4.667,1 L4.333,2 L3,2 C1.343,2 0,3.343 0,5 L0,11 C0,12.657 1.343,14 3,14 L13,14 C14.657,14 16,12.657 16,11 L16,5 C16,3.343 14.657,2 13,2" id="Fill-3"></path>
            </g>
        </g>
    </g>
</svg>