<?xml version="1.0" encoding="UTF-8" standalone="no"?>
<svg width="64px" height="48px" viewBox="0 0 64 48" version="1.1" xmlns="http://www.w3.org/2000/svg" xmlns:xlink="http://www.w3.org/1999/xlink">
    <!-- Generator: Sketch 42 (36781) - http://www.bohemiancoding.com/sketch -->
    <title>icons/qumarks</title>
    <desc>Created with Sketch.</desc>
    <defs></defs>
    <g id="Symbols" stroke="none" stroke-width="1" fill="none" fill-rule="evenodd">
        <g id="icons/qumarks" fill="#66B7EA">
            <g id="Page-1">
                <path d="M0.7055,35.0595 C0.7055,32.9535 1.0815,30.7225 1.8345,28.3635 C2.5865,26.0085 3.8655,22.9725 5.6705,19.2605 L15.0005,0.0005 L28.0005,0.0005 L21.9215,23.9245 C25.9335,26.7345 27.9405,30.4965 27.9405,35.2095 C27.9405,38.8215 26.6095,41.8565 23.9535,44.3135 C21.2935,46.7725 18.0585,48.0005 14.2485,48.0005 C10.3355,48.0005 7.1005,46.7725 4.5425,44.3135 C1.9845,41.8565 0.7055,38.7715 0.7055,35.0595 Z" id="Fill-1"></path>
                <path d="M39.8369,44.3135 C37.2789,41.8565 35.9999,38.7715 35.9999,35.0595 C35.9999,32.9535 36.3759,30.7225 37.1289,28.3635 C37.8809,26.0085 39.1599,22.9725 40.9649,19.2605 L50.2949,0.0005 L63.2949,0.0005 L57.2159,23.9245 C61.2279,26.7345 63.2349,30.4965 63.2349,35.2095 C63.2349,38.8215 61.9039,41.8565 59.2479,44.3135 C56.5879,46.7725 53.3529,48.0005 49.5429,48.0005 C45.6299,48.0005 42.3949,46.7725 39.8369,44.3135" id="Fill-3"></path>
            </g>
        </g>
    </g>
</svg>