<?xml version="1.0" encoding="UTF-8" standalone="no"?>
<svg width="24px" height="24px" viewBox="0 0 24 24" version="1.1" xmlns="http://www.w3.org/2000/svg" xmlns:xlink="http://www.w3.org/1999/xlink">
    <!-- Generator: Sketch 47.1 (45422) - http://www.bohemiancoding.com/sketch -->
    <title>icons/searchxl-white</title>
    <desc>Created with Sketch.</desc>
    <defs></defs>
    <g id="Symbols" stroke="none" stroke-width="1" fill="none" fill-rule="evenodd">
        <g id="icons/searchxl-white" fill="#FFFFFF">
            <path d="M9,16 C5.14,16 2,12.86 2,9 C2,5.14 5.14,2 9,2 C12.86,2 16,5.14 16,9 C16,12.86 12.86,16 9,16 L9,16 Z M24,22.586 L16.028,14.614 C17.259,13.075 18,11.125 18,9 C18,4.029 13.971,0 9,0 C4.029,0 0,4.029 0,9 C0,13.971 4.029,18 9,18 C11.125,18 13.074,17.259 14.614,16.028 L22.586,24 L24,22.586 Z" id="Fill-3"></path>
        </g>
    </g>
</svg>