<?xml version="1.0" encoding="UTF-8" standalone="no"?>
<svg width="20px" height="20px" viewBox="0 0 20 20" version="1.1" xmlns="http://www.w3.org/2000/svg" xmlns:xlink="http://www.w3.org/1999/xlink">
    <!-- Generator: Sketch 42 (36781) - http://www.bohemiancoding.com/sketch -->
    <title>icons/see-h</title>
    <desc>Created with Sketch.</desc>
    <defs></defs>
    <g id="Symbols" stroke="none" stroke-width="1" fill="none" fill-rule="evenodd">
        <g id="icons/see-h" fill="#0079BA">
            <g id="Page-1" transform="translate(3.000000, 6.000000)">
                <path d="M7,7 C5.344,7 4,5.657 4,4 C4,2.343 5.344,1 7,1 C8.656,1 10,2.343 10,4 C10,5.657 8.656,7 7,7 M6.998,0 C4.007,0 1.399,1.611 0,4 C1.399,6.389 4.007,8 6.998,8 C9.992,8 12.6,6.389 14,4 C12.6,1.611 9.992,0 6.998,0" id="Fill-3"></path>
                <path d="M7,3 C6.448,3 6,3.449 6,4 C6,4.551 6.448,5 7,5 C7.552,5 8,4.551 8,4 C8,3.449 7.552,3 7,3" id="Fill-5"></path>
            </g>
        </g>
    </g>
</svg>