<?xml version="1.0" encoding="UTF-8" standalone="no"?>
<svg width="20px" height="20px" viewBox="0 0 20 20" version="1.1" xmlns="http://www.w3.org/2000/svg" xmlns:xlink="http://www.w3.org/1999/xlink">
    <!-- Generator: Sketch 44.1 (41455) - http://www.bohemiancoding.com/sketch -->
    <title>icons/user-white</title>
    <desc>Created with Sketch.</desc>
    <defs></defs>
    <g id="Symbols" stroke="none" stroke-width="1" fill="none" fill-rule="evenodd">
        <g id="icons/user-white" fill="#FFFFFF">
            <g id="Group-2" transform="translate(2.000000, 2.000000)">
                <path d="M8,0 C6.936,0 5.971,0.432 5.273,1.131 C4.576,1.828 4.25,2.793 4.25,3.857 C4.25,6.697 5.871,9 8,9 C10.13,9 11.75,6.697 11.75,3.857 C11.75,2.793 11.425,1.828 10.728,1.131 C10.029,0.432 9.065,0 8,0" id="Fill-3"></path>
                <path d="M0,16 C0,13.635 2.254,10.455 4.923,10.455 C4.984,10.455 5.044,10.463 5.102,10.479 C5.641,10.623 7.211,11 8,11 C8.789,11 10.359,10.623 10.898,10.479 C10.956,10.463 11.016,10.455 11.077,10.455 C13.746,10.455 16,13.635 16,16 L0,16 Z" id="Fill-5"></path>
            </g>
        </g>
    </g>
</svg>