<?xml version="1.0" encoding="UTF-8" standalone="no"?>
<svg width="740px" height="480px" viewBox="0 0 740 480" version="1.1" xmlns="http://www.w3.org/2000/svg" xmlns:xlink="http://www.w3.org/1999/xlink">
    <!-- Generator: Sketch 42 (36781) - http://www.bohemiancoding.com/sketch -->
    <title>infograh/piechart_butterflies</title>
    <desc>Created with Sketch.</desc>
    <defs>
        <polygon id="path-1" points="0.975 0.977 53.021 0.977 53.021 19.7 0.975 19.7 0.975 0.977"></polygon>
        <polygon id="path-3" points="0.975 0.977 53.022 0.977 53.022 83.3 0.975 83.3 0.975 0.977"></polygon>
        <polygon id="path-5" points="0 24 0 0 32 0 32 24"></polygon>
        <polygon id="path-7" points="0 24 0 0 32 0 32 24"></polygon>
        <polygon id="path-9" points="0 24 0 0 32 0 32 24"></polygon>
        <polygon id="path-11" points="0 24 0 0 32 0 32 24"></polygon>
        <polygon id="path-13" points="0 24 0 0 32 0 32 24"></polygon>
        <polygon id="path-15" points="0 24 0 0 32 0 32 24"></polygon>
        <polygon id="path-17" points="0 24 0 0 32 0 32 24"></polygon>
        <polygon id="path-19" points="0 24 0 0 32 0 32 24"></polygon>
        <polygon id="path-21" points="0 24 0 0 32 0 32 24"></polygon>
        <polygon id="path-23" points="0 24 0 0 32 0 32 24"></polygon>
        <polygon id="path-25" points="0 24 0 0 32 0 32 24"></polygon>
        <polygon id="path-27" points="0 24 0 0 32 0 32 24"></polygon>
        <polygon id="path-29" points="0 24 0 0 32 0 32 24"></polygon>
        <polygon id="path-31" points="0 24 0 0 32 0 32 24"></polygon>
        <polygon id="path-33" points="0 24 0 0 32 0 32 24"></polygon>
        <polygon id="path-35" points="0 24 0 0 32 0 32 24"></polygon>
        <polygon id="path-37" points="0 24 0 0 32 0 32 24"></polygon>
        <polygon id="path-39" points="0 24 0 0 32 0 32 24"></polygon>
        <polygon id="path-41" points="0 24 0 0 32 0 32 24"></polygon>
        <polygon id="path-43" points="0 35 38 35 38 0 0 0"></polygon>
    </defs>
    <g id="Symbols" stroke="none" stroke-width="1" fill="none" fill-rule="evenodd">
        <g id="infograh/piechart_butterflies">
            <g id="Page-1" transform="translate(40.000000, 0.000000)">
                <g id="Group-3" transform="translate(139.000000, 0.023000)">
                    <mask id="mask-2" fill="white">
                        <use xlink:href="#path-1"></use>
                    </mask>
                    <g id="Clip-2"></g>
                </g>
                <path d="M4.8486,159.5601 L43.7936,168.5511 C58.3646,107.2031 113.3026,61.4941 178.9996,61.0341 L178.9996,21.0341 C95.6606,21.4871 24.0376,78.4561 4.8486,159.5601" id="Fill-4" fill-opacity="0.7" fill="#417505"></path>
                <path d="M181,61.0357 C257.858,61.5747 320,124.0377 320,201.0227 C320,278.3427 257.319,341.0227 180,341.0227 C102.681,341.0227 40,278.3427 40,201.0227 C40,190.5387 41.164,180.3277 43.35,170.5007 L4.394,161.5077 C1.145,175.8097 0,186.1517 0,201.0227 C0,300.4347 80.588,381.0227 180,381.0227 C279.412,381.0227 360,300.4347 360,201.0227 C360,101.9447 279.951,21.5747 181,21.0357 L181,61.0357 Z" id="Fill-6" fill-opacity="0.7" fill="#EE6510"></path>
            </g>
            <text id="463" font-family="FiraSans-Black, Fira Sans" font-size="48" font-weight="700" line-spacing="48" fill="#14406D">
                <tspan x="179.5" y="218">463</tspan>
            </text>
            <text id="Mediterranean-native" font-family="FiraSans-Regular, Fira Sans" font-size="18" font-weight="normal" line-spacing="20" fill="#14406D">
                <tspan x="157.5" y="229">Mediterranean </tspan>
                <tspan x="159.534" y="249">native species</tspan>
            </text>
            <rect id="Rectangle" fill-opacity="0.7" fill="#417505" x="477" y="375" width="6" height="6"></rect>
            <rect id="Rectangle" fill-opacity="0.7" fill="#417505" x="529" y="375" width="6" height="6"></rect>
            <rect id="Rectangle" fill-opacity="0.7" fill="#417505" x="581" y="375" width="6" height="6"></rect>
            <rect id="Rectangle" fill-opacity="0.7" fill="#417505" x="633" y="375" width="6" height="6"></rect>
            <rect id="Rectangle" fill-opacity="0.7" fill="#417505" x="685" y="189" width="6" height="6"></rect>
            <rect id="Rectangle" fill-opacity="0.7" fill="#417505" x="477" y="251" width="6" height="6"></rect>
            <rect id="Rectangle" fill-opacity="0.7" fill="#417505" x="529" y="251" width="6" height="6"></rect>
            <rect id="Rectangle" fill-opacity="0.7" fill="#417505" x="581" y="251" width="6" height="6"></rect>
            <rect id="Rectangle" fill-opacity="0.7" fill="#417505" x="633" y="251" width="6" height="6"></rect>
            <rect id="Rectangle" fill-opacity="0.7" fill="#417505" x="685" y="251" width="6" height="6"></rect>
            <rect id="Rectangle" fill-opacity="0.7" fill="#417505" x="477" y="313" width="6" height="6"></rect>
            <rect id="Rectangle" fill-opacity="0.7" fill="#417505" x="529" y="313" width="6" height="6"></rect>
            <rect id="Rectangle" fill-opacity="0.7" fill="#417505" x="581" y="313" width="6" height="6"></rect>
            <rect id="Rectangle" fill-opacity="0.7" fill="#417505" x="633" y="313" width="6" height="6"></rect>
            <rect id="Rectangle" fill-opacity="0.7" fill="#417505" x="685" y="313" width="6" height="6"></rect>
            <text id="Endemic-species-Spec" font-family="FiraSans-Regular, Fira Sans" font-size="14" font-weight="normal" line-spacing="16" fill="#212121">
                <tspan x="51" y="432">Endemic species</tspan>
                <tspan x="51" y="448">Species threatened with extinction</tspan>
            </text>
            <rect id="Rectangle" fill-opacity="0.7" fill="#417505" x="40" y="421" width="6" height="6"></rect>
            <rect id="Rectangle" fill="#D81E05" x="40" y="437" width="6" height="6"></rect>
            <text id="19" font-family="FiraSans-Regular, Fira Sans" font-size="48" font-weight="normal" line-spacing="48" fill="#D81E05">
                <tspan x="561" y="101">19</tspan>
            </text>
            <text id="Species-threatened-w" font-family="FiraSans-Regular, Fira Sans" font-size="14" font-weight="normal" line-spacing="16" fill="#D81E05">
                <tspan x="516.181" y="112.299957">Species threatened </tspan>
                <tspan x="530.37" y="128.299957">with extinction</tspan>
            </text>
            <polyline id="Path-2" stroke="#D81E05" stroke-width="2" stroke-linecap="round" stroke-linejoin="round" points="243 9 581 9 581 41"></polyline>
            <g id="Page-1" transform="translate(139.000000, -1.000000)"></g>
            <g id="Group-7" style="mix-blend-mode: multiply;" transform="translate(179.000000, -0.977000)">
                <mask id="mask-4" fill="white">
                    <use xlink:href="#path-3"></use>
                </mask>
                <g id="Clip-6"></g>
                <path d="M41,81 C43.632,81 46.241,81.094 48.831,81.261 L53.022,1.278 C34.934,0.328 18.695,1.607 0.975,5.373 L17.539,83.3 C25.126,81.795 32.97,81 41,81" id="Fill-5" fill="#D81E05" style="mix-blend-mode: multiply;" mask="url(#mask-4)"></path>
            </g>
            <g id="Page-1" transform="translate(672.000000, 155.000000)">
                <mask id="mask-6" fill="white">
                    <use xlink:href="#path-5"></use>
                </mask>
                <g id="Clip-2"></g>
                <path d="M30.3008,0 C27.0308,0 22.9468,2.156 20.4938,5.03 C19.0628,6.709 17.9138,7.648 17.2018,8.145 C17.1748,7.945 17.0998,7.76 16.9668,7.609 C17.3518,6.584 18.0408,4.997 19.0308,3.693 C19.0928,3.61 19.0678,3.499 18.9738,3.443 C18.8818,3.389 18.7528,3.41 18.6918,3.494 C17.7238,4.769 17.0388,6.3 16.6368,7.347 C16.4508,7.247 16.2348,7.187 15.9998,7.187 C15.7658,7.187 15.5488,7.247 15.3628,7.347 C14.9608,6.3 14.2768,4.769 13.3088,3.494 C13.2468,3.41 13.1178,3.389 13.0268,3.443 C12.9328,3.499 12.9068,3.61 12.9688,3.693 C13.9588,4.997 14.6488,6.584 15.0328,7.609 C14.9008,7.76 14.8248,7.945 14.7978,8.145 C14.0858,7.648 12.9378,6.709 11.5058,5.03 C9.0538,2.156 4.9688,0 1.6988,0 C-1.5692,0 0.8828,2.875 0.8828,4.312 C0.8828,5.75 0.0658,11.499 7.4198,10.781 C7.4198,10.781 1.6988,12.938 2.5168,17.249 C2.8838,19.188 3.2518,20.105 3.6938,20.599 C3.7068,21.164 3.6248,21.767 3.3338,22.28 C2.5168,23.718 2.5168,24.437 3.3338,23.718 C3.9538,23.172 4.5758,22.214 5.5538,21.468 C5.6298,21.497 5.7058,21.526 5.7848,21.562 C7.4198,22.28 6.6028,22.999 8.2378,22.999 C9.8708,22.999 7.4198,22.999 9.8708,21.562 C12.3218,20.124 12.2578,18.687 12.2578,17.968 C12.2578,17.249 12.2578,16.53 13.9568,13.656 C14.1428,13.342 14.5408,13.224 14.7748,13.001 L15.3868,17.159 C15.3868,17.457 15.6608,17.698 15.9998,17.698 C16.3388,17.698 16.6128,17.457 16.6128,17.159 L17.2258,13.001 C17.4588,13.224 17.8578,13.342 18.0428,13.656 C19.7418,16.53 19.7418,17.249 19.7418,17.968 C19.7418,18.687 19.6778,20.124 22.1288,21.562 C24.5798,22.999 22.1288,22.999 23.7628,22.999 C25.3978,22.999 24.5798,22.28 26.2148,21.562 C26.2938,21.526 26.3698,21.497 26.4468,21.468 C27.4238,22.214 28.0458,23.172 28.6658,23.718 C29.4838,24.437 29.4838,23.718 28.6658,22.28 C28.3748,21.767 28.2928,21.164 28.3068,20.599 C28.7478,20.105 29.1158,19.188 29.4838,17.249 C30.3008,12.938 24.5798,10.781 24.5798,10.781 C31.9348,11.499 31.1168,5.75 31.1168,4.312 C31.1168,2.875 33.5698,0 30.3008,0" id="Fill-1" fill="#D81E05" mask="url(#mask-6)"></path>
            </g>
            <g id="Page-1" transform="translate(620.000000, 155.000000)">
                <mask id="mask-8" fill="white">
                    <use xlink:href="#path-7"></use>
                </mask>
                <g id="Clip-2"></g>
                <path d="M30.3008,0 C27.0308,0 22.9468,2.156 20.4938,5.03 C19.0628,6.709 17.9138,7.648 17.2018,8.145 C17.1748,7.945 17.0998,7.76 16.9668,7.609 C17.3518,6.584 18.0408,4.997 19.0308,3.693 C19.0928,3.61 19.0678,3.499 18.9738,3.443 C18.8818,3.389 18.7528,3.41 18.6918,3.494 C17.7238,4.769 17.0388,6.3 16.6368,7.347 C16.4508,7.247 16.2348,7.187 15.9998,7.187 C15.7658,7.187 15.5488,7.247 15.3628,7.347 C14.9608,6.3 14.2768,4.769 13.3088,3.494 C13.2468,3.41 13.1178,3.389 13.0268,3.443 C12.9328,3.499 12.9068,3.61 12.9688,3.693 C13.9588,4.997 14.6488,6.584 15.0328,7.609 C14.9008,7.76 14.8248,7.945 14.7978,8.145 C14.0858,7.648 12.9378,6.709 11.5058,5.03 C9.0538,2.156 4.9688,0 1.6988,0 C-1.5692,0 0.8828,2.875 0.8828,4.312 C0.8828,5.75 0.0658,11.499 7.4198,10.781 C7.4198,10.781 1.6988,12.938 2.5168,17.249 C2.8838,19.188 3.2518,20.105 3.6938,20.599 C3.7068,21.164 3.6248,21.767 3.3338,22.28 C2.5168,23.718 2.5168,24.437 3.3338,23.718 C3.9538,23.172 4.5758,22.214 5.5538,21.468 C5.6298,21.497 5.7058,21.526 5.7848,21.562 C7.4198,22.28 6.6028,22.999 8.2378,22.999 C9.8708,22.999 7.4198,22.999 9.8708,21.562 C12.3218,20.124 12.2578,18.687 12.2578,17.968 C12.2578,17.249 12.2578,16.53 13.9568,13.656 C14.1428,13.342 14.5408,13.224 14.7748,13.001 L15.3868,17.159 C15.3868,17.457 15.6608,17.698 15.9998,17.698 C16.3388,17.698 16.6128,17.457 16.6128,17.159 L17.2258,13.001 C17.4588,13.224 17.8578,13.342 18.0428,13.656 C19.7418,16.53 19.7418,17.249 19.7418,17.968 C19.7418,18.687 19.6778,20.124 22.1288,21.562 C24.5798,22.999 22.1288,22.999 23.7628,22.999 C25.3978,22.999 24.5798,22.28 26.2148,21.562 C26.2938,21.526 26.3698,21.497 26.4468,21.468 C27.4238,22.214 28.0458,23.172 28.6658,23.718 C29.4838,24.437 29.4838,23.718 28.6658,22.28 C28.3748,21.767 28.2928,21.164 28.3068,20.599 C28.7478,20.105 29.1158,19.188 29.4838,17.249 C30.3008,12.938 24.5798,10.781 24.5798,10.781 C31.9348,11.499 31.1168,5.75 31.1168,4.312 C31.1168,2.875 33.5698,0 30.3008,0" id="Fill-1" fill="#D81E05" mask="url(#mask-8)"></path>
            </g>
            <g id="Page-1" transform="translate(568.000000, 155.000000)">
                <mask id="mask-10" fill="white">
                    <use xlink:href="#path-9"></use>
                </mask>
                <g id="Clip-2"></g>
                <path d="M30.3008,0 C27.0308,0 22.9468,2.156 20.4938,5.03 C19.0628,6.709 17.9138,7.648 17.2018,8.145 C17.1748,7.945 17.0998,7.76 16.9668,7.609 C17.3518,6.584 18.0408,4.997 19.0308,3.693 C19.0928,3.61 19.0678,3.499 18.9738,3.443 C18.8818,3.389 18.7528,3.41 18.6918,3.494 C17.7238,4.769 17.0388,6.3 16.6368,7.347 C16.4508,7.247 16.2348,7.187 15.9998,7.187 C15.7658,7.187 15.5488,7.247 15.3628,7.347 C14.9608,6.3 14.2768,4.769 13.3088,3.494 C13.2468,3.41 13.1178,3.389 13.0268,3.443 C12.9328,3.499 12.9068,3.61 12.9688,3.693 C13.9588,4.997 14.6488,6.584 15.0328,7.609 C14.9008,7.76 14.8248,7.945 14.7978,8.145 C14.0858,7.648 12.9378,6.709 11.5058,5.03 C9.0538,2.156 4.9688,0 1.6988,0 C-1.5692,0 0.8828,2.875 0.8828,4.312 C0.8828,5.75 0.0658,11.499 7.4198,10.781 C7.4198,10.781 1.6988,12.938 2.5168,17.249 C2.8838,19.188 3.2518,20.105 3.6938,20.599 C3.7068,21.164 3.6248,21.767 3.3338,22.28 C2.5168,23.718 2.5168,24.437 3.3338,23.718 C3.9538,23.172 4.5758,22.214 5.5538,21.468 C5.6298,21.497 5.7058,21.526 5.7848,21.562 C7.4198,22.28 6.6028,22.999 8.2378,22.999 C9.8708,22.999 7.4198,22.999 9.8708,21.562 C12.3218,20.124 12.2578,18.687 12.2578,17.968 C12.2578,17.249 12.2578,16.53 13.9568,13.656 C14.1428,13.342 14.5408,13.224 14.7748,13.001 L15.3868,17.159 C15.3868,17.457 15.6608,17.698 15.9998,17.698 C16.3388,17.698 16.6128,17.457 16.6128,17.159 L17.2258,13.001 C17.4588,13.224 17.8578,13.342 18.0428,13.656 C19.7418,16.53 19.7418,17.249 19.7418,17.968 C19.7418,18.687 19.6778,20.124 22.1288,21.562 C24.5798,22.999 22.1288,22.999 23.7628,22.999 C25.3978,22.999 24.5798,22.28 26.2148,21.562 C26.2938,21.526 26.3698,21.497 26.4468,21.468 C27.4238,22.214 28.0458,23.172 28.6658,23.718 C29.4838,24.437 29.4838,23.718 28.6658,22.28 C28.3748,21.767 28.2928,21.164 28.3068,20.599 C28.7478,20.105 29.1158,19.188 29.4838,17.249 C30.3008,12.938 24.5798,10.781 24.5798,10.781 C31.9348,11.499 31.1168,5.75 31.1168,4.312 C31.1168,2.875 33.5698,0 30.3008,0" id="Fill-1" fill="#D81E05" mask="url(#mask-10)"></path>
            </g>
            <g id="Page-1" transform="translate(516.000000, 155.000000)">
                <mask id="mask-12" fill="white">
                    <use xlink:href="#path-11"></use>
                </mask>
                <g id="Clip-2"></g>
                <path d="M30.3008,0 C27.0308,0 22.9468,2.156 20.4938,5.03 C19.0628,6.709 17.9138,7.648 17.2018,8.145 C17.1748,7.945 17.0998,7.76 16.9668,7.609 C17.3518,6.584 18.0408,4.997 19.0308,3.693 C19.0928,3.61 19.0678,3.499 18.9738,3.443 C18.8818,3.389 18.7528,3.41 18.6918,3.494 C17.7238,4.769 17.0388,6.3 16.6368,7.347 C16.4508,7.247 16.2348,7.187 15.9998,7.187 C15.7658,7.187 15.5488,7.247 15.3628,7.347 C14.9608,6.3 14.2768,4.769 13.3088,3.494 C13.2468,3.41 13.1178,3.389 13.0268,3.443 C12.9328,3.499 12.9068,3.61 12.9688,3.693 C13.9588,4.997 14.6488,6.584 15.0328,7.609 C14.9008,7.76 14.8248,7.945 14.7978,8.145 C14.0858,7.648 12.9378,6.709 11.5058,5.03 C9.0538,2.156 4.9688,0 1.6988,0 C-1.5692,0 0.8828,2.875 0.8828,4.312 C0.8828,5.75 0.0658,11.499 7.4198,10.781 C7.4198,10.781 1.6988,12.938 2.5168,17.249 C2.8838,19.188 3.2518,20.105 3.6938,20.599 C3.7068,21.164 3.6248,21.767 3.3338,22.28 C2.5168,23.718 2.5168,24.437 3.3338,23.718 C3.9538,23.172 4.5758,22.214 5.5538,21.468 C5.6298,21.497 5.7058,21.526 5.7848,21.562 C7.4198,22.28 6.6028,22.999 8.2378,22.999 C9.8708,22.999 7.4198,22.999 9.8708,21.562 C12.3218,20.124 12.2578,18.687 12.2578,17.968 C12.2578,17.249 12.2578,16.53 13.9568,13.656 C14.1428,13.342 14.5408,13.224 14.7748,13.001 L15.3868,17.159 C15.3868,17.457 15.6608,17.698 15.9998,17.698 C16.3388,17.698 16.6128,17.457 16.6128,17.159 L17.2258,13.001 C17.4588,13.224 17.8578,13.342 18.0428,13.656 C19.7418,16.53 19.7418,17.249 19.7418,17.968 C19.7418,18.687 19.6778,20.124 22.1288,21.562 C24.5798,22.999 22.1288,22.999 23.7628,22.999 C25.3978,22.999 24.5798,22.28 26.2148,21.562 C26.2938,21.526 26.3698,21.497 26.4468,21.468 C27.4238,22.214 28.0458,23.172 28.6658,23.718 C29.4838,24.437 29.4838,23.718 28.6658,22.28 C28.3748,21.767 28.2928,21.164 28.3068,20.599 C28.7478,20.105 29.1158,19.188 29.4838,17.249 C30.3008,12.938 24.5798,10.781 24.5798,10.781 C31.9348,11.499 31.1168,5.75 31.1168,4.312 C31.1168,2.875 33.5698,0 30.3008,0" id="Fill-1" fill="#D81E05" mask="url(#mask-12)"></path>
            </g>
            <g id="Page-1" transform="translate(464.000000, 155.000000)">
                <mask id="mask-14" fill="white">
                    <use xlink:href="#path-13"></use>
                </mask>
                <g id="Clip-2"></g>
                <path d="M30.3008,0 C27.0308,0 22.9468,2.156 20.4938,5.03 C19.0628,6.709 17.9138,7.648 17.2018,8.145 C17.1748,7.945 17.0998,7.76 16.9668,7.609 C17.3518,6.584 18.0408,4.997 19.0308,3.693 C19.0928,3.61 19.0678,3.499 18.9738,3.443 C18.8818,3.389 18.7528,3.41 18.6918,3.494 C17.7238,4.769 17.0388,6.3 16.6368,7.347 C16.4508,7.247 16.2348,7.187 15.9998,7.187 C15.7658,7.187 15.5488,7.247 15.3628,7.347 C14.9608,6.3 14.2768,4.769 13.3088,3.494 C13.2468,3.41 13.1178,3.389 13.0268,3.443 C12.9328,3.499 12.9068,3.61 12.9688,3.693 C13.9588,4.997 14.6488,6.584 15.0328,7.609 C14.9008,7.76 14.8248,7.945 14.7978,8.145 C14.0858,7.648 12.9378,6.709 11.5058,5.03 C9.0538,2.156 4.9688,0 1.6988,0 C-1.5692,0 0.8828,2.875 0.8828,4.312 C0.8828,5.75 0.0658,11.499 7.4198,10.781 C7.4198,10.781 1.6988,12.938 2.5168,17.249 C2.8838,19.188 3.2518,20.105 3.6938,20.599 C3.7068,21.164 3.6248,21.767 3.3338,22.28 C2.5168,23.718 2.5168,24.437 3.3338,23.718 C3.9538,23.172 4.5758,22.214 5.5538,21.468 C5.6298,21.497 5.7058,21.526 5.7848,21.562 C7.4198,22.28 6.6028,22.999 8.2378,22.999 C9.8708,22.999 7.4198,22.999 9.8708,21.562 C12.3218,20.124 12.2578,18.687 12.2578,17.968 C12.2578,17.249 12.2578,16.53 13.9568,13.656 C14.1428,13.342 14.5408,13.224 14.7748,13.001 L15.3868,17.159 C15.3868,17.457 15.6608,17.698 15.9998,17.698 C16.3388,17.698 16.6128,17.457 16.6128,17.159 L17.2258,13.001 C17.4588,13.224 17.8578,13.342 18.0428,13.656 C19.7418,16.53 19.7418,17.249 19.7418,17.968 C19.7418,18.687 19.6778,20.124 22.1288,21.562 C24.5798,22.999 22.1288,22.999 23.7628,22.999 C25.3978,22.999 24.5798,22.28 26.2148,21.562 C26.2938,21.526 26.3698,21.497 26.4468,21.468 C27.4238,22.214 28.0458,23.172 28.6658,23.718 C29.4838,24.437 29.4838,23.718 28.6658,22.28 C28.3748,21.767 28.2928,21.164 28.3068,20.599 C28.7478,20.105 29.1158,19.188 29.4838,17.249 C30.3008,12.938 24.5798,10.781 24.5798,10.781 C31.9348,11.499 31.1168,5.75 31.1168,4.312 C31.1168,2.875 33.5698,0 30.3008,0" id="Fill-1" fill="#D81E05" mask="url(#mask-14)"></path>
            </g>
            <g id="Page-1" transform="translate(672.000000, 217.000000)">
                <mask id="mask-16" fill="white">
                    <use xlink:href="#path-15"></use>
                </mask>
                <g id="Clip-2"></g>
                <path d="M30.3008,0 C27.0308,0 22.9468,2.156 20.4938,5.03 C19.0628,6.709 17.9138,7.648 17.2018,8.145 C17.1748,7.945 17.0998,7.76 16.9668,7.609 C17.3518,6.584 18.0408,4.997 19.0308,3.693 C19.0928,3.61 19.0678,3.499 18.9738,3.443 C18.8818,3.389 18.7528,3.41 18.6918,3.494 C17.7238,4.769 17.0388,6.3 16.6368,7.347 C16.4508,7.247 16.2348,7.187 15.9998,7.187 C15.7658,7.187 15.5488,7.247 15.3628,7.347 C14.9608,6.3 14.2768,4.769 13.3088,3.494 C13.2468,3.41 13.1178,3.389 13.0268,3.443 C12.9328,3.499 12.9068,3.61 12.9688,3.693 C13.9588,4.997 14.6488,6.584 15.0328,7.609 C14.9008,7.76 14.8248,7.945 14.7978,8.145 C14.0858,7.648 12.9378,6.709 11.5058,5.03 C9.0538,2.156 4.9688,0 1.6988,0 C-1.5692,0 0.8828,2.875 0.8828,4.312 C0.8828,5.75 0.0658,11.499 7.4198,10.781 C7.4198,10.781 1.6988,12.938 2.5168,17.249 C2.8838,19.188 3.2518,20.105 3.6938,20.599 C3.7068,21.164 3.6248,21.767 3.3338,22.28 C2.5168,23.718 2.5168,24.437 3.3338,23.718 C3.9538,23.172 4.5758,22.214 5.5538,21.468 C5.6298,21.497 5.7058,21.526 5.7848,21.562 C7.4198,22.28 6.6028,22.999 8.2378,22.999 C9.8708,22.999 7.4198,22.999 9.8708,21.562 C12.3218,20.124 12.2578,18.687 12.2578,17.968 C12.2578,17.249 12.2578,16.53 13.9568,13.656 C14.1428,13.342 14.5408,13.224 14.7748,13.001 L15.3868,17.159 C15.3868,17.457 15.6608,17.698 15.9998,17.698 C16.3388,17.698 16.6128,17.457 16.6128,17.159 L17.2258,13.001 C17.4588,13.224 17.8578,13.342 18.0428,13.656 C19.7418,16.53 19.7418,17.249 19.7418,17.968 C19.7418,18.687 19.6778,20.124 22.1288,21.562 C24.5798,22.999 22.1288,22.999 23.7628,22.999 C25.3978,22.999 24.5798,22.28 26.2148,21.562 C26.2938,21.526 26.3698,21.497 26.4468,21.468 C27.4238,22.214 28.0458,23.172 28.6658,23.718 C29.4838,24.437 29.4838,23.718 28.6658,22.28 C28.3748,21.767 28.2928,21.164 28.3068,20.599 C28.7478,20.105 29.1158,19.188 29.4838,17.249 C30.3008,12.938 24.5798,10.781 24.5798,10.781 C31.9348,11.499 31.1168,5.75 31.1168,4.312 C31.1168,2.875 33.5698,0 30.3008,0" id="Fill-1" fill="#D81E05" mask="url(#mask-16)"></path>
            </g>
            <g id="Page-1" transform="translate(620.000000, 217.000000)">
                <mask id="mask-18" fill="white">
                    <use xlink:href="#path-17"></use>
                </mask>
                <g id="Clip-2"></g>
                <path d="M30.3008,0 C27.0308,0 22.9468,2.156 20.4938,5.03 C19.0628,6.709 17.9138,7.648 17.2018,8.145 C17.1748,7.945 17.0998,7.76 16.9668,7.609 C17.3518,6.584 18.0408,4.997 19.0308,3.693 C19.0928,3.61 19.0678,3.499 18.9738,3.443 C18.8818,3.389 18.7528,3.41 18.6918,3.494 C17.7238,4.769 17.0388,6.3 16.6368,7.347 C16.4508,7.247 16.2348,7.187 15.9998,7.187 C15.7658,7.187 15.5488,7.247 15.3628,7.347 C14.9608,6.3 14.2768,4.769 13.3088,3.494 C13.2468,3.41 13.1178,3.389 13.0268,3.443 C12.9328,3.499 12.9068,3.61 12.9688,3.693 C13.9588,4.997 14.6488,6.584 15.0328,7.609 C14.9008,7.76 14.8248,7.945 14.7978,8.145 C14.0858,7.648 12.9378,6.709 11.5058,5.03 C9.0538,2.156 4.9688,0 1.6988,0 C-1.5692,0 0.8828,2.875 0.8828,4.312 C0.8828,5.75 0.0658,11.499 7.4198,10.781 C7.4198,10.781 1.6988,12.938 2.5168,17.249 C2.8838,19.188 3.2518,20.105 3.6938,20.599 C3.7068,21.164 3.6248,21.767 3.3338,22.28 C2.5168,23.718 2.5168,24.437 3.3338,23.718 C3.9538,23.172 4.5758,22.214 5.5538,21.468 C5.6298,21.497 5.7058,21.526 5.7848,21.562 C7.4198,22.28 6.6028,22.999 8.2378,22.999 C9.8708,22.999 7.4198,22.999 9.8708,21.562 C12.3218,20.124 12.2578,18.687 12.2578,17.968 C12.2578,17.249 12.2578,16.53 13.9568,13.656 C14.1428,13.342 14.5408,13.224 14.7748,13.001 L15.3868,17.159 C15.3868,17.457 15.6608,17.698 15.9998,17.698 C16.3388,17.698 16.6128,17.457 16.6128,17.159 L17.2258,13.001 C17.4588,13.224 17.8578,13.342 18.0428,13.656 C19.7418,16.53 19.7418,17.249 19.7418,17.968 C19.7418,18.687 19.6778,20.124 22.1288,21.562 C24.5798,22.999 22.1288,22.999 23.7628,22.999 C25.3978,22.999 24.5798,22.28 26.2148,21.562 C26.2938,21.526 26.3698,21.497 26.4468,21.468 C27.4238,22.214 28.0458,23.172 28.6658,23.718 C29.4838,24.437 29.4838,23.718 28.6658,22.28 C28.3748,21.767 28.2928,21.164 28.3068,20.599 C28.7478,20.105 29.1158,19.188 29.4838,17.249 C30.3008,12.938 24.5798,10.781 24.5798,10.781 C31.9348,11.499 31.1168,5.75 31.1168,4.312 C31.1168,2.875 33.5698,0 30.3008,0" id="Fill-1" fill="#D81E05" mask="url(#mask-18)"></path>
            </g>
            <g id="Page-1" transform="translate(568.000000, 217.000000)">
                <mask id="mask-20" fill="white">
                    <use xlink:href="#path-19"></use>
                </mask>
                <g id="Clip-2"></g>
                <path d="M30.3008,0 C27.0308,0 22.9468,2.156 20.4938,5.03 C19.0628,6.709 17.9138,7.648 17.2018,8.145 C17.1748,7.945 17.0998,7.76 16.9668,7.609 C17.3518,6.584 18.0408,4.997 19.0308,3.693 C19.0928,3.61 19.0678,3.499 18.9738,3.443 C18.8818,3.389 18.7528,3.41 18.6918,3.494 C17.7238,4.769 17.0388,6.3 16.6368,7.347 C16.4508,7.247 16.2348,7.187 15.9998,7.187 C15.7658,7.187 15.5488,7.247 15.3628,7.347 C14.9608,6.3 14.2768,4.769 13.3088,3.494 C13.2468,3.41 13.1178,3.389 13.0268,3.443 C12.9328,3.499 12.9068,3.61 12.9688,3.693 C13.9588,4.997 14.6488,6.584 15.0328,7.609 C14.9008,7.76 14.8248,7.945 14.7978,8.145 C14.0858,7.648 12.9378,6.709 11.5058,5.03 C9.0538,2.156 4.9688,0 1.6988,0 C-1.5692,0 0.8828,2.875 0.8828,4.312 C0.8828,5.75 0.0658,11.499 7.4198,10.781 C7.4198,10.781 1.6988,12.938 2.5168,17.249 C2.8838,19.188 3.2518,20.105 3.6938,20.599 C3.7068,21.164 3.6248,21.767 3.3338,22.28 C2.5168,23.718 2.5168,24.437 3.3338,23.718 C3.9538,23.172 4.5758,22.214 5.5538,21.468 C5.6298,21.497 5.7058,21.526 5.7848,21.562 C7.4198,22.28 6.6028,22.999 8.2378,22.999 C9.8708,22.999 7.4198,22.999 9.8708,21.562 C12.3218,20.124 12.2578,18.687 12.2578,17.968 C12.2578,17.249 12.2578,16.53 13.9568,13.656 C14.1428,13.342 14.5408,13.224 14.7748,13.001 L15.3868,17.159 C15.3868,17.457 15.6608,17.698 15.9998,17.698 C16.3388,17.698 16.6128,17.457 16.6128,17.159 L17.2258,13.001 C17.4588,13.224 17.8578,13.342 18.0428,13.656 C19.7418,16.53 19.7418,17.249 19.7418,17.968 C19.7418,18.687 19.6778,20.124 22.1288,21.562 C24.5798,22.999 22.1288,22.999 23.7628,22.999 C25.3978,22.999 24.5798,22.28 26.2148,21.562 C26.2938,21.526 26.3698,21.497 26.4468,21.468 C27.4238,22.214 28.0458,23.172 28.6658,23.718 C29.4838,24.437 29.4838,23.718 28.6658,22.28 C28.3748,21.767 28.2928,21.164 28.3068,20.599 C28.7478,20.105 29.1158,19.188 29.4838,17.249 C30.3008,12.938 24.5798,10.781 24.5798,10.781 C31.9348,11.499 31.1168,5.75 31.1168,4.312 C31.1168,2.875 33.5698,0 30.3008,0" id="Fill-1" fill="#D81E05" mask="url(#mask-20)"></path>
            </g>
            <g id="Page-1" transform="translate(516.000000, 217.000000)">
                <mask id="mask-22" fill="white">
                    <use xlink:href="#path-21"></use>
                </mask>
                <g id="Clip-2"></g>
                <path d="M30.3008,0 C27.0308,0 22.9468,2.156 20.4938,5.03 C19.0628,6.709 17.9138,7.648 17.2018,8.145 C17.1748,7.945 17.0998,7.76 16.9668,7.609 C17.3518,6.584 18.0408,4.997 19.0308,3.693 C19.0928,3.61 19.0678,3.499 18.9738,3.443 C18.8818,3.389 18.7528,3.41 18.6918,3.494 C17.7238,4.769 17.0388,6.3 16.6368,7.347 C16.4508,7.247 16.2348,7.187 15.9998,7.187 C15.7658,7.187 15.5488,7.247 15.3628,7.347 C14.9608,6.3 14.2768,4.769 13.3088,3.494 C13.2468,3.41 13.1178,3.389 13.0268,3.443 C12.9328,3.499 12.9068,3.61 12.9688,3.693 C13.9588,4.997 14.6488,6.584 15.0328,7.609 C14.9008,7.76 14.8248,7.945 14.7978,8.145 C14.0858,7.648 12.9378,6.709 11.5058,5.03 C9.0538,2.156 4.9688,0 1.6988,0 C-1.5692,0 0.8828,2.875 0.8828,4.312 C0.8828,5.75 0.0658,11.499 7.4198,10.781 C7.4198,10.781 1.6988,12.938 2.5168,17.249 C2.8838,19.188 3.2518,20.105 3.6938,20.599 C3.7068,21.164 3.6248,21.767 3.3338,22.28 C2.5168,23.718 2.5168,24.437 3.3338,23.718 C3.9538,23.172 4.5758,22.214 5.5538,21.468 C5.6298,21.497 5.7058,21.526 5.7848,21.562 C7.4198,22.28 6.6028,22.999 8.2378,22.999 C9.8708,22.999 7.4198,22.999 9.8708,21.562 C12.3218,20.124 12.2578,18.687 12.2578,17.968 C12.2578,17.249 12.2578,16.53 13.9568,13.656 C14.1428,13.342 14.5408,13.224 14.7748,13.001 L15.3868,17.159 C15.3868,17.457 15.6608,17.698 15.9998,17.698 C16.3388,17.698 16.6128,17.457 16.6128,17.159 L17.2258,13.001 C17.4588,13.224 17.8578,13.342 18.0428,13.656 C19.7418,16.53 19.7418,17.249 19.7418,17.968 C19.7418,18.687 19.6778,20.124 22.1288,21.562 C24.5798,22.999 22.1288,22.999 23.7628,22.999 C25.3978,22.999 24.5798,22.28 26.2148,21.562 C26.2938,21.526 26.3698,21.497 26.4468,21.468 C27.4238,22.214 28.0458,23.172 28.6658,23.718 C29.4838,24.437 29.4838,23.718 28.6658,22.28 C28.3748,21.767 28.2928,21.164 28.3068,20.599 C28.7478,20.105 29.1158,19.188 29.4838,17.249 C30.3008,12.938 24.5798,10.781 24.5798,10.781 C31.9348,11.499 31.1168,5.75 31.1168,4.312 C31.1168,2.875 33.5698,0 30.3008,0" id="Fill-1" fill="#D81E05" mask="url(#mask-22)"></path>
            </g>
            <g id="Page-1" transform="translate(464.000000, 217.000000)">
                <mask id="mask-24" fill="white">
                    <use xlink:href="#path-23"></use>
                </mask>
                <g id="Clip-2"></g>
                <path d="M30.3008,0 C27.0308,0 22.9468,2.156 20.4938,5.03 C19.0628,6.709 17.9138,7.648 17.2018,8.145 C17.1748,7.945 17.0998,7.76 16.9668,7.609 C17.3518,6.584 18.0408,4.997 19.0308,3.693 C19.0928,3.61 19.0678,3.499 18.9738,3.443 C18.8818,3.389 18.7528,3.41 18.6918,3.494 C17.7238,4.769 17.0388,6.3 16.6368,7.347 C16.4508,7.247 16.2348,7.187 15.9998,7.187 C15.7658,7.187 15.5488,7.247 15.3628,7.347 C14.9608,6.3 14.2768,4.769 13.3088,3.494 C13.2468,3.41 13.1178,3.389 13.0268,3.443 C12.9328,3.499 12.9068,3.61 12.9688,3.693 C13.9588,4.997 14.6488,6.584 15.0328,7.609 C14.9008,7.76 14.8248,7.945 14.7978,8.145 C14.0858,7.648 12.9378,6.709 11.5058,5.03 C9.0538,2.156 4.9688,0 1.6988,0 C-1.5692,0 0.8828,2.875 0.8828,4.312 C0.8828,5.75 0.0658,11.499 7.4198,10.781 C7.4198,10.781 1.6988,12.938 2.5168,17.249 C2.8838,19.188 3.2518,20.105 3.6938,20.599 C3.7068,21.164 3.6248,21.767 3.3338,22.28 C2.5168,23.718 2.5168,24.437 3.3338,23.718 C3.9538,23.172 4.5758,22.214 5.5538,21.468 C5.6298,21.497 5.7058,21.526 5.7848,21.562 C7.4198,22.28 6.6028,22.999 8.2378,22.999 C9.8708,22.999 7.4198,22.999 9.8708,21.562 C12.3218,20.124 12.2578,18.687 12.2578,17.968 C12.2578,17.249 12.2578,16.53 13.9568,13.656 C14.1428,13.342 14.5408,13.224 14.7748,13.001 L15.3868,17.159 C15.3868,17.457 15.6608,17.698 15.9998,17.698 C16.3388,17.698 16.6128,17.457 16.6128,17.159 L17.2258,13.001 C17.4588,13.224 17.8578,13.342 18.0428,13.656 C19.7418,16.53 19.7418,17.249 19.7418,17.968 C19.7418,18.687 19.6778,20.124 22.1288,21.562 C24.5798,22.999 22.1288,22.999 23.7628,22.999 C25.3978,22.999 24.5798,22.28 26.2148,21.562 C26.2938,21.526 26.3698,21.497 26.4468,21.468 C27.4238,22.214 28.0458,23.172 28.6658,23.718 C29.4838,24.437 29.4838,23.718 28.6658,22.28 C28.3748,21.767 28.2928,21.164 28.3068,20.599 C28.7478,20.105 29.1158,19.188 29.4838,17.249 C30.3008,12.938 24.5798,10.781 24.5798,10.781 C31.9348,11.499 31.1168,5.75 31.1168,4.312 C31.1168,2.875 33.5698,0 30.3008,0" id="Fill-1" fill="#D81E05" mask="url(#mask-24)"></path>
            </g>
            <g id="Page-1" transform="translate(672.000000, 279.000000)">
                <mask id="mask-26" fill="white">
                    <use xlink:href="#path-25"></use>
                </mask>
                <g id="Clip-2"></g>
                <path d="M30.3008,0 C27.0308,0 22.9468,2.156 20.4938,5.03 C19.0628,6.709 17.9138,7.648 17.2018,8.145 C17.1748,7.945 17.0998,7.76 16.9668,7.609 C17.3518,6.584 18.0408,4.997 19.0308,3.693 C19.0928,3.61 19.0678,3.499 18.9738,3.443 C18.8818,3.389 18.7528,3.41 18.6918,3.494 C17.7238,4.769 17.0388,6.3 16.6368,7.347 C16.4508,7.247 16.2348,7.187 15.9998,7.187 C15.7658,7.187 15.5488,7.247 15.3628,7.347 C14.9608,6.3 14.2768,4.769 13.3088,3.494 C13.2468,3.41 13.1178,3.389 13.0268,3.443 C12.9328,3.499 12.9068,3.61 12.9688,3.693 C13.9588,4.997 14.6488,6.584 15.0328,7.609 C14.9008,7.76 14.8248,7.945 14.7978,8.145 C14.0858,7.648 12.9378,6.709 11.5058,5.03 C9.0538,2.156 4.9688,0 1.6988,0 C-1.5692,0 0.8828,2.875 0.8828,4.312 C0.8828,5.75 0.0658,11.499 7.4198,10.781 C7.4198,10.781 1.6988,12.938 2.5168,17.249 C2.8838,19.188 3.2518,20.105 3.6938,20.599 C3.7068,21.164 3.6248,21.767 3.3338,22.28 C2.5168,23.718 2.5168,24.437 3.3338,23.718 C3.9538,23.172 4.5758,22.214 5.5538,21.468 C5.6298,21.497 5.7058,21.526 5.7848,21.562 C7.4198,22.28 6.6028,22.999 8.2378,22.999 C9.8708,22.999 7.4198,22.999 9.8708,21.562 C12.3218,20.124 12.2578,18.687 12.2578,17.968 C12.2578,17.249 12.2578,16.53 13.9568,13.656 C14.1428,13.342 14.5408,13.224 14.7748,13.001 L15.3868,17.159 C15.3868,17.457 15.6608,17.698 15.9998,17.698 C16.3388,17.698 16.6128,17.457 16.6128,17.159 L17.2258,13.001 C17.4588,13.224 17.8578,13.342 18.0428,13.656 C19.7418,16.53 19.7418,17.249 19.7418,17.968 C19.7418,18.687 19.6778,20.124 22.1288,21.562 C24.5798,22.999 22.1288,22.999 23.7628,22.999 C25.3978,22.999 24.5798,22.28 26.2148,21.562 C26.2938,21.526 26.3698,21.497 26.4468,21.468 C27.4238,22.214 28.0458,23.172 28.6658,23.718 C29.4838,24.437 29.4838,23.718 28.6658,22.28 C28.3748,21.767 28.2928,21.164 28.3068,20.599 C28.7478,20.105 29.1158,19.188 29.4838,17.249 C30.3008,12.938 24.5798,10.781 24.5798,10.781 C31.9348,11.499 31.1168,5.75 31.1168,4.312 C31.1168,2.875 33.5698,0 30.3008,0" id="Fill-1" fill="#D81E05" mask="url(#mask-26)"></path>
            </g>
            <g id="Page-1" transform="translate(620.000000, 279.000000)">
                <mask id="mask-28" fill="white">
                    <use xlink:href="#path-27"></use>
                </mask>
                <g id="Clip-2"></g>
                <path d="M30.3008,0 C27.0308,0 22.9468,2.156 20.4938,5.03 C19.0628,6.709 17.9138,7.648 17.2018,8.145 C17.1748,7.945 17.0998,7.76 16.9668,7.609 C17.3518,6.584 18.0408,4.997 19.0308,3.693 C19.0928,3.61 19.0678,3.499 18.9738,3.443 C18.8818,3.389 18.7528,3.41 18.6918,3.494 C17.7238,4.769 17.0388,6.3 16.6368,7.347 C16.4508,7.247 16.2348,7.187 15.9998,7.187 C15.7658,7.187 15.5488,7.247 15.3628,7.347 C14.9608,6.3 14.2768,4.769 13.3088,3.494 C13.2468,3.41 13.1178,3.389 13.0268,3.443 C12.9328,3.499 12.9068,3.61 12.9688,3.693 C13.9588,4.997 14.6488,6.584 15.0328,7.609 C14.9008,7.76 14.8248,7.945 14.7978,8.145 C14.0858,7.648 12.9378,6.709 11.5058,5.03 C9.0538,2.156 4.9688,0 1.6988,0 C-1.5692,0 0.8828,2.875 0.8828,4.312 C0.8828,5.75 0.0658,11.499 7.4198,10.781 C7.4198,10.781 1.6988,12.938 2.5168,17.249 C2.8838,19.188 3.2518,20.105 3.6938,20.599 C3.7068,21.164 3.6248,21.767 3.3338,22.28 C2.5168,23.718 2.5168,24.437 3.3338,23.718 C3.9538,23.172 4.5758,22.214 5.5538,21.468 C5.6298,21.497 5.7058,21.526 5.7848,21.562 C7.4198,22.28 6.6028,22.999 8.2378,22.999 C9.8708,22.999 7.4198,22.999 9.8708,21.562 C12.3218,20.124 12.2578,18.687 12.2578,17.968 C12.2578,17.249 12.2578,16.53 13.9568,13.656 C14.1428,13.342 14.5408,13.224 14.7748,13.001 L15.3868,17.159 C15.3868,17.457 15.6608,17.698 15.9998,17.698 C16.3388,17.698 16.6128,17.457 16.6128,17.159 L17.2258,13.001 C17.4588,13.224 17.8578,13.342 18.0428,13.656 C19.7418,16.53 19.7418,17.249 19.7418,17.968 C19.7418,18.687 19.6778,20.124 22.1288,21.562 C24.5798,22.999 22.1288,22.999 23.7628,22.999 C25.3978,22.999 24.5798,22.28 26.2148,21.562 C26.2938,21.526 26.3698,21.497 26.4468,21.468 C27.4238,22.214 28.0458,23.172 28.6658,23.718 C29.4838,24.437 29.4838,23.718 28.6658,22.28 C28.3748,21.767 28.2928,21.164 28.3068,20.599 C28.7478,20.105 29.1158,19.188 29.4838,17.249 C30.3008,12.938 24.5798,10.781 24.5798,10.781 C31.9348,11.499 31.1168,5.75 31.1168,4.312 C31.1168,2.875 33.5698,0 30.3008,0" id="Fill-1" fill="#D81E05" mask="url(#mask-28)"></path>
            </g>
            <g id="Page-1" transform="translate(568.000000, 279.000000)">
                <mask id="mask-30" fill="white">
                    <use xlink:href="#path-29"></use>
                </mask>
                <g id="Clip-2"></g>
                <path d="M30.3008,0 C27.0308,0 22.9468,2.156 20.4938,5.03 C19.0628,6.709 17.9138,7.648 17.2018,8.145 C17.1748,7.945 17.0998,7.76 16.9668,7.609 C17.3518,6.584 18.0408,4.997 19.0308,3.693 C19.0928,3.61 19.0678,3.499 18.9738,3.443 C18.8818,3.389 18.7528,3.41 18.6918,3.494 C17.7238,4.769 17.0388,6.3 16.6368,7.347 C16.4508,7.247 16.2348,7.187 15.9998,7.187 C15.7658,7.187 15.5488,7.247 15.3628,7.347 C14.9608,6.3 14.2768,4.769 13.3088,3.494 C13.2468,3.41 13.1178,3.389 13.0268,3.443 C12.9328,3.499 12.9068,3.61 12.9688,3.693 C13.9588,4.997 14.6488,6.584 15.0328,7.609 C14.9008,7.76 14.8248,7.945 14.7978,8.145 C14.0858,7.648 12.9378,6.709 11.5058,5.03 C9.0538,2.156 4.9688,0 1.6988,0 C-1.5692,0 0.8828,2.875 0.8828,4.312 C0.8828,5.75 0.0658,11.499 7.4198,10.781 C7.4198,10.781 1.6988,12.938 2.5168,17.249 C2.8838,19.188 3.2518,20.105 3.6938,20.599 C3.7068,21.164 3.6248,21.767 3.3338,22.28 C2.5168,23.718 2.5168,24.437 3.3338,23.718 C3.9538,23.172 4.5758,22.214 5.5538,21.468 C5.6298,21.497 5.7058,21.526 5.7848,21.562 C7.4198,22.28 6.6028,22.999 8.2378,22.999 C9.8708,22.999 7.4198,22.999 9.8708,21.562 C12.3218,20.124 12.2578,18.687 12.2578,17.968 C12.2578,17.249 12.2578,16.53 13.9568,13.656 C14.1428,13.342 14.5408,13.224 14.7748,13.001 L15.3868,17.159 C15.3868,17.457 15.6608,17.698 15.9998,17.698 C16.3388,17.698 16.6128,17.457 16.6128,17.159 L17.2258,13.001 C17.4588,13.224 17.8578,13.342 18.0428,13.656 C19.7418,16.53 19.7418,17.249 19.7418,17.968 C19.7418,18.687 19.6778,20.124 22.1288,21.562 C24.5798,22.999 22.1288,22.999 23.7628,22.999 C25.3978,22.999 24.5798,22.28 26.2148,21.562 C26.2938,21.526 26.3698,21.497 26.4468,21.468 C27.4238,22.214 28.0458,23.172 28.6658,23.718 C29.4838,24.437 29.4838,23.718 28.6658,22.28 C28.3748,21.767 28.2928,21.164 28.3068,20.599 C28.7478,20.105 29.1158,19.188 29.4838,17.249 C30.3008,12.938 24.5798,10.781 24.5798,10.781 C31.9348,11.499 31.1168,5.75 31.1168,4.312 C31.1168,2.875 33.5698,0 30.3008,0" id="Fill-1" fill="#D81E05" mask="url(#mask-30)"></path>
            </g>
            <g id="Page-1" transform="translate(516.000000, 279.000000)">
                <mask id="mask-32" fill="white">
                    <use xlink:href="#path-31"></use>
                </mask>
                <g id="Clip-2"></g>
                <path d="M30.3008,0 C27.0308,0 22.9468,2.156 20.4938,5.03 C19.0628,6.709 17.9138,7.648 17.2018,8.145 C17.1748,7.945 17.0998,7.76 16.9668,7.609 C17.3518,6.584 18.0408,4.997 19.0308,3.693 C19.0928,3.61 19.0678,3.499 18.9738,3.443 C18.8818,3.389 18.7528,3.41 18.6918,3.494 C17.7238,4.769 17.0388,6.3 16.6368,7.347 C16.4508,7.247 16.2348,7.187 15.9998,7.187 C15.7658,7.187 15.5488,7.247 15.3628,7.347 C14.9608,6.3 14.2768,4.769 13.3088,3.494 C13.2468,3.41 13.1178,3.389 13.0268,3.443 C12.9328,3.499 12.9068,3.61 12.9688,3.693 C13.9588,4.997 14.6488,6.584 15.0328,7.609 C14.9008,7.76 14.8248,7.945 14.7978,8.145 C14.0858,7.648 12.9378,6.709 11.5058,5.03 C9.0538,2.156 4.9688,0 1.6988,0 C-1.5692,0 0.8828,2.875 0.8828,4.312 C0.8828,5.75 0.0658,11.499 7.4198,10.781 C7.4198,10.781 1.6988,12.938 2.5168,17.249 C2.8838,19.188 3.2518,20.105 3.6938,20.599 C3.7068,21.164 3.6248,21.767 3.3338,22.28 C2.5168,23.718 2.5168,24.437 3.3338,23.718 C3.9538,23.172 4.5758,22.214 5.5538,21.468 C5.6298,21.497 5.7058,21.526 5.7848,21.562 C7.4198,22.28 6.6028,22.999 8.2378,22.999 C9.8708,22.999 7.4198,22.999 9.8708,21.562 C12.3218,20.124 12.2578,18.687 12.2578,17.968 C12.2578,17.249 12.2578,16.53 13.9568,13.656 C14.1428,13.342 14.5408,13.224 14.7748,13.001 L15.3868,17.159 C15.3868,17.457 15.6608,17.698 15.9998,17.698 C16.3388,17.698 16.6128,17.457 16.6128,17.159 L17.2258,13.001 C17.4588,13.224 17.8578,13.342 18.0428,13.656 C19.7418,16.53 19.7418,17.249 19.7418,17.968 C19.7418,18.687 19.6778,20.124 22.1288,21.562 C24.5798,22.999 22.1288,22.999 23.7628,22.999 C25.3978,22.999 24.5798,22.28 26.2148,21.562 C26.2938,21.526 26.3698,21.497 26.4468,21.468 C27.4238,22.214 28.0458,23.172 28.6658,23.718 C29.4838,24.437 29.4838,23.718 28.6658,22.28 C28.3748,21.767 28.2928,21.164 28.3068,20.599 C28.7478,20.105 29.1158,19.188 29.4838,17.249 C30.3008,12.938 24.5798,10.781 24.5798,10.781 C31.9348,11.499 31.1168,5.75 31.1168,4.312 C31.1168,2.875 33.5698,0 30.3008,0" id="Fill-1" fill="#D81E05" mask="url(#mask-32)"></path>
            </g>
            <g id="Page-1" transform="translate(464.000000, 279.000000)">
                <mask id="mask-34" fill="white">
                    <use xlink:href="#path-33"></use>
                </mask>
                <g id="Clip-2"></g>
                <path d="M30.3008,0 C27.0308,0 22.9468,2.156 20.4938,5.03 C19.0628,6.709 17.9138,7.648 17.2018,8.145 C17.1748,7.945 17.0998,7.76 16.9668,7.609 C17.3518,6.584 18.0408,4.997 19.0308,3.693 C19.0928,3.61 19.0678,3.499 18.9738,3.443 C18.8818,3.389 18.7528,3.41 18.6918,3.494 C17.7238,4.769 17.0388,6.3 16.6368,7.347 C16.4508,7.247 16.2348,7.187 15.9998,7.187 C15.7658,7.187 15.5488,7.247 15.3628,7.347 C14.9608,6.3 14.2768,4.769 13.3088,3.494 C13.2468,3.41 13.1178,3.389 13.0268,3.443 C12.9328,3.499 12.9068,3.61 12.9688,3.693 C13.9588,4.997 14.6488,6.584 15.0328,7.609 C14.9008,7.76 14.8248,7.945 14.7978,8.145 C14.0858,7.648 12.9378,6.709 11.5058,5.03 C9.0538,2.156 4.9688,0 1.6988,0 C-1.5692,0 0.8828,2.875 0.8828,4.312 C0.8828,5.75 0.0658,11.499 7.4198,10.781 C7.4198,10.781 1.6988,12.938 2.5168,17.249 C2.8838,19.188 3.2518,20.105 3.6938,20.599 C3.7068,21.164 3.6248,21.767 3.3338,22.28 C2.5168,23.718 2.5168,24.437 3.3338,23.718 C3.9538,23.172 4.5758,22.214 5.5538,21.468 C5.6298,21.497 5.7058,21.526 5.7848,21.562 C7.4198,22.28 6.6028,22.999 8.2378,22.999 C9.8708,22.999 7.4198,22.999 9.8708,21.562 C12.3218,20.124 12.2578,18.687 12.2578,17.968 C12.2578,17.249 12.2578,16.53 13.9568,13.656 C14.1428,13.342 14.5408,13.224 14.7748,13.001 L15.3868,17.159 C15.3868,17.457 15.6608,17.698 15.9998,17.698 C16.3388,17.698 16.6128,17.457 16.6128,17.159 L17.2258,13.001 C17.4588,13.224 17.8578,13.342 18.0428,13.656 C19.7418,16.53 19.7418,17.249 19.7418,17.968 C19.7418,18.687 19.6778,20.124 22.1288,21.562 C24.5798,22.999 22.1288,22.999 23.7628,22.999 C25.3978,22.999 24.5798,22.28 26.2148,21.562 C26.2938,21.526 26.3698,21.497 26.4468,21.468 C27.4238,22.214 28.0458,23.172 28.6658,23.718 C29.4838,24.437 29.4838,23.718 28.6658,22.28 C28.3748,21.767 28.2928,21.164 28.3068,20.599 C28.7478,20.105 29.1158,19.188 29.4838,17.249 C30.3008,12.938 24.5798,10.781 24.5798,10.781 C31.9348,11.499 31.1168,5.75 31.1168,4.312 C31.1168,2.875 33.5698,0 30.3008,0" id="Fill-1" fill="#D81E05" mask="url(#mask-34)"></path>
            </g>
            <g id="Page-1" transform="translate(620.000000, 341.000000)">
                <mask id="mask-36" fill="white">
                    <use xlink:href="#path-35"></use>
                </mask>
                <g id="Clip-2"></g>
                <path d="M30.3008,0 C27.0308,0 22.9468,2.156 20.4938,5.03 C19.0628,6.709 17.9138,7.648 17.2018,8.145 C17.1748,7.945 17.0998,7.76 16.9668,7.609 C17.3518,6.584 18.0408,4.997 19.0308,3.693 C19.0928,3.61 19.0678,3.499 18.9738,3.443 C18.8818,3.389 18.7528,3.41 18.6918,3.494 C17.7238,4.769 17.0388,6.3 16.6368,7.347 C16.4508,7.247 16.2348,7.187 15.9998,7.187 C15.7658,7.187 15.5488,7.247 15.3628,7.347 C14.9608,6.3 14.2768,4.769 13.3088,3.494 C13.2468,3.41 13.1178,3.389 13.0268,3.443 C12.9328,3.499 12.9068,3.61 12.9688,3.693 C13.9588,4.997 14.6488,6.584 15.0328,7.609 C14.9008,7.76 14.8248,7.945 14.7978,8.145 C14.0858,7.648 12.9378,6.709 11.5058,5.03 C9.0538,2.156 4.9688,0 1.6988,0 C-1.5692,0 0.8828,2.875 0.8828,4.312 C0.8828,5.75 0.0658,11.499 7.4198,10.781 C7.4198,10.781 1.6988,12.938 2.5168,17.249 C2.8838,19.188 3.2518,20.105 3.6938,20.599 C3.7068,21.164 3.6248,21.767 3.3338,22.28 C2.5168,23.718 2.5168,24.437 3.3338,23.718 C3.9538,23.172 4.5758,22.214 5.5538,21.468 C5.6298,21.497 5.7058,21.526 5.7848,21.562 C7.4198,22.28 6.6028,22.999 8.2378,22.999 C9.8708,22.999 7.4198,22.999 9.8708,21.562 C12.3218,20.124 12.2578,18.687 12.2578,17.968 C12.2578,17.249 12.2578,16.53 13.9568,13.656 C14.1428,13.342 14.5408,13.224 14.7748,13.001 L15.3868,17.159 C15.3868,17.457 15.6608,17.698 15.9998,17.698 C16.3388,17.698 16.6128,17.457 16.6128,17.159 L17.2258,13.001 C17.4588,13.224 17.8578,13.342 18.0428,13.656 C19.7418,16.53 19.7418,17.249 19.7418,17.968 C19.7418,18.687 19.6778,20.124 22.1288,21.562 C24.5798,22.999 22.1288,22.999 23.7628,22.999 C25.3978,22.999 24.5798,22.28 26.2148,21.562 C26.2938,21.526 26.3698,21.497 26.4468,21.468 C27.4238,22.214 28.0458,23.172 28.6658,23.718 C29.4838,24.437 29.4838,23.718 28.6658,22.28 C28.3748,21.767 28.2928,21.164 28.3068,20.599 C28.7478,20.105 29.1158,19.188 29.4838,17.249 C30.3008,12.938 24.5798,10.781 24.5798,10.781 C31.9348,11.499 31.1168,5.75 31.1168,4.312 C31.1168,2.875 33.5698,0 30.3008,0" id="Fill-1" fill="#D81E05" mask="url(#mask-36)"></path>
            </g>
            <g id="Page-1" transform="translate(568.000000, 341.000000)">
                <mask id="mask-38" fill="white">
                    <use xlink:href="#path-37"></use>
                </mask>
                <g id="Clip-2"></g>
                <path d="M30.3008,0 C27.0308,0 22.9468,2.156 20.4938,5.03 C19.0628,6.709 17.9138,7.648 17.2018,8.145 C17.1748,7.945 17.0998,7.76 16.9668,7.609 C17.3518,6.584 18.0408,4.997 19.0308,3.693 C19.0928,3.61 19.0678,3.499 18.9738,3.443 C18.8818,3.389 18.7528,3.41 18.6918,3.494 C17.7238,4.769 17.0388,6.3 16.6368,7.347 C16.4508,7.247 16.2348,7.187 15.9998,7.187 C15.7658,7.187 15.5488,7.247 15.3628,7.347 C14.9608,6.3 14.2768,4.769 13.3088,3.494 C13.2468,3.41 13.1178,3.389 13.0268,3.443 C12.9328,3.499 12.9068,3.61 12.9688,3.693 C13.9588,4.997 14.6488,6.584 15.0328,7.609 C14.9008,7.76 14.8248,7.945 14.7978,8.145 C14.0858,7.648 12.9378,6.709 11.5058,5.03 C9.0538,2.156 4.9688,0 1.6988,0 C-1.5692,0 0.8828,2.875 0.8828,4.312 C0.8828,5.75 0.0658,11.499 7.4198,10.781 C7.4198,10.781 1.6988,12.938 2.5168,17.249 C2.8838,19.188 3.2518,20.105 3.6938,20.599 C3.7068,21.164 3.6248,21.767 3.3338,22.28 C2.5168,23.718 2.5168,24.437 3.3338,23.718 C3.9538,23.172 4.5758,22.214 5.5538,21.468 C5.6298,21.497 5.7058,21.526 5.7848,21.562 C7.4198,22.28 6.6028,22.999 8.2378,22.999 C9.8708,22.999 7.4198,22.999 9.8708,21.562 C12.3218,20.124 12.2578,18.687 12.2578,17.968 C12.2578,17.249 12.2578,16.53 13.9568,13.656 C14.1428,13.342 14.5408,13.224 14.7748,13.001 L15.3868,17.159 C15.3868,17.457 15.6608,17.698 15.9998,17.698 C16.3388,17.698 16.6128,17.457 16.6128,17.159 L17.2258,13.001 C17.4588,13.224 17.8578,13.342 18.0428,13.656 C19.7418,16.53 19.7418,17.249 19.7418,17.968 C19.7418,18.687 19.6778,20.124 22.1288,21.562 C24.5798,22.999 22.1288,22.999 23.7628,22.999 C25.3978,22.999 24.5798,22.28 26.2148,21.562 C26.2938,21.526 26.3698,21.497 26.4468,21.468 C27.4238,22.214 28.0458,23.172 28.6658,23.718 C29.4838,24.437 29.4838,23.718 28.6658,22.28 C28.3748,21.767 28.2928,21.164 28.3068,20.599 C28.7478,20.105 29.1158,19.188 29.4838,17.249 C30.3008,12.938 24.5798,10.781 24.5798,10.781 C31.9348,11.499 31.1168,5.75 31.1168,4.312 C31.1168,2.875 33.5698,0 30.3008,0" id="Fill-1" fill="#D81E05" mask="url(#mask-38)"></path>
            </g>
            <g id="Page-1" transform="translate(516.000000, 341.000000)">
                <mask id="mask-40" fill="white">
                    <use xlink:href="#path-39"></use>
                </mask>
                <g id="Clip-2"></g>
                <path d="M30.3008,0 C27.0308,0 22.9468,2.156 20.4938,5.03 C19.0628,6.709 17.9138,7.648 17.2018,8.145 C17.1748,7.945 17.0998,7.76 16.9668,7.609 C17.3518,6.584 18.0408,4.997 19.0308,3.693 C19.0928,3.61 19.0678,3.499 18.9738,3.443 C18.8818,3.389 18.7528,3.41 18.6918,3.494 C17.7238,4.769 17.0388,6.3 16.6368,7.347 C16.4508,7.247 16.2348,7.187 15.9998,7.187 C15.7658,7.187 15.5488,7.247 15.3628,7.347 C14.9608,6.3 14.2768,4.769 13.3088,3.494 C13.2468,3.41 13.1178,3.389 13.0268,3.443 C12.9328,3.499 12.9068,3.61 12.9688,3.693 C13.9588,4.997 14.6488,6.584 15.0328,7.609 C14.9008,7.76 14.8248,7.945 14.7978,8.145 C14.0858,7.648 12.9378,6.709 11.5058,5.03 C9.0538,2.156 4.9688,0 1.6988,0 C-1.5692,0 0.8828,2.875 0.8828,4.312 C0.8828,5.75 0.0658,11.499 7.4198,10.781 C7.4198,10.781 1.6988,12.938 2.5168,17.249 C2.8838,19.188 3.2518,20.105 3.6938,20.599 C3.7068,21.164 3.6248,21.767 3.3338,22.28 C2.5168,23.718 2.5168,24.437 3.3338,23.718 C3.9538,23.172 4.5758,22.214 5.5538,21.468 C5.6298,21.497 5.7058,21.526 5.7848,21.562 C7.4198,22.28 6.6028,22.999 8.2378,22.999 C9.8708,22.999 7.4198,22.999 9.8708,21.562 C12.3218,20.124 12.2578,18.687 12.2578,17.968 C12.2578,17.249 12.2578,16.53 13.9568,13.656 C14.1428,13.342 14.5408,13.224 14.7748,13.001 L15.3868,17.159 C15.3868,17.457 15.6608,17.698 15.9998,17.698 C16.3388,17.698 16.6128,17.457 16.6128,17.159 L17.2258,13.001 C17.4588,13.224 17.8578,13.342 18.0428,13.656 C19.7418,16.53 19.7418,17.249 19.7418,17.968 C19.7418,18.687 19.6778,20.124 22.1288,21.562 C24.5798,22.999 22.1288,22.999 23.7628,22.999 C25.3978,22.999 24.5798,22.28 26.2148,21.562 C26.2938,21.526 26.3698,21.497 26.4468,21.468 C27.4238,22.214 28.0458,23.172 28.6658,23.718 C29.4838,24.437 29.4838,23.718 28.6658,22.28 C28.3748,21.767 28.2928,21.164 28.3068,20.599 C28.7478,20.105 29.1158,19.188 29.4838,17.249 C30.3008,12.938 24.5798,10.781 24.5798,10.781 C31.9348,11.499 31.1168,5.75 31.1168,4.312 C31.1168,2.875 33.5698,0 30.3008,0" id="Fill-1" fill="#D81E05" mask="url(#mask-40)"></path>
            </g>
            <g id="Page-1" transform="translate(464.000000, 341.000000)">
                <mask id="mask-42" fill="white">
                    <use xlink:href="#path-41"></use>
                </mask>
                <g id="Clip-2"></g>
                <path d="M30.3008,0 C27.0308,0 22.9468,2.156 20.4938,5.03 C19.0628,6.709 17.9138,7.648 17.2018,8.145 C17.1748,7.945 17.0998,7.76 16.9668,7.609 C17.3518,6.584 18.0408,4.997 19.0308,3.693 C19.0928,3.61 19.0678,3.499 18.9738,3.443 C18.8818,3.389 18.7528,3.41 18.6918,3.494 C17.7238,4.769 17.0388,6.3 16.6368,7.347 C16.4508,7.247 16.2348,7.187 15.9998,7.187 C15.7658,7.187 15.5488,7.247 15.3628,7.347 C14.9608,6.3 14.2768,4.769 13.3088,3.494 C13.2468,3.41 13.1178,3.389 13.0268,3.443 C12.9328,3.499 12.9068,3.61 12.9688,3.693 C13.9588,4.997 14.6488,6.584 15.0328,7.609 C14.9008,7.76 14.8248,7.945 14.7978,8.145 C14.0858,7.648 12.9378,6.709 11.5058,5.03 C9.0538,2.156 4.9688,0 1.6988,0 C-1.5692,0 0.8828,2.875 0.8828,4.312 C0.8828,5.75 0.0658,11.499 7.4198,10.781 C7.4198,10.781 1.6988,12.938 2.5168,17.249 C2.8838,19.188 3.2518,20.105 3.6938,20.599 C3.7068,21.164 3.6248,21.767 3.3338,22.28 C2.5168,23.718 2.5168,24.437 3.3338,23.718 C3.9538,23.172 4.5758,22.214 5.5538,21.468 C5.6298,21.497 5.7058,21.526 5.7848,21.562 C7.4198,22.28 6.6028,22.999 8.2378,22.999 C9.8708,22.999 7.4198,22.999 9.8708,21.562 C12.3218,20.124 12.2578,18.687 12.2578,17.968 C12.2578,17.249 12.2578,16.53 13.9568,13.656 C14.1428,13.342 14.5408,13.224 14.7748,13.001 L15.3868,17.159 C15.3868,17.457 15.6608,17.698 15.9998,17.698 C16.3388,17.698 16.6128,17.457 16.6128,17.159 L17.2258,13.001 C17.4588,13.224 17.8578,13.342 18.0428,13.656 C19.7418,16.53 19.7418,17.249 19.7418,17.968 C19.7418,18.687 19.6778,20.124 22.1288,21.562 C24.5798,22.999 22.1288,22.999 23.7628,22.999 C25.3978,22.999 24.5798,22.28 26.2148,21.562 C26.2938,21.526 26.3698,21.497 26.4468,21.468 C27.4238,22.214 28.0458,23.172 28.6658,23.718 C29.4838,24.437 29.4838,23.718 28.6658,22.28 C28.3748,21.767 28.2928,21.164 28.3068,20.599 C28.7478,20.105 29.1158,19.188 29.4838,17.249 C30.3008,12.938 24.5798,10.781 24.5798,10.781 C31.9348,11.499 31.1168,5.75 31.1168,4.312 C31.1168,2.875 33.5698,0 30.3008,0" id="Fill-1" fill="#D81E05" mask="url(#mask-42)"></path>
            </g>
            <g id="Page-1" transform="translate(666.000000, 414.000000)">
                <path d="M30.2953733,5.93214493 C31.4906,4.77613043 33.1737467,4.57728986 34.0523067,5.48678261 C34.9313733,6.3977971 34.6729733,8.07475362 33.4782533,9.23026087 C32.2820133,10.3872899 30.5993733,10.5866377 29.7208133,9.67511594 C28.8422533,8.7646087 29.0991333,7.08917391 30.2953733,5.93214493 Z" id="Fill-1" fill="#E22126"></path>
                <path d="M29.3379253,11.5547174 C28.1426987,12.7117464 27.8858187,14.3871812 28.7648853,15.2981957 C29.643952,16.2092101 31.3255787,16.0098623 32.5202987,14.8543551 C33.717552,13.6968188 33.9739253,12.0203696 33.0953653,11.1093551 C32.217312,10.1993551 30.534672,10.3992101 29.3379253,11.5547174" id="Fill-3" fill="#E22126"></path>
                <path d="M21.1221733,3.32956522 C19.9259333,4.48557971 19.6690533,6.16202899 20.54812,7.07304348 C21.42668,7.98304348 23.1098267,7.78318841 24.3045467,6.62768116 C25.50028,5.47115942 25.75716,3.79521739 24.8786,2.8842029 C24.0005467,1.97318841 22.3174,2.17101449 21.1221733,3.32956522" id="Fill-5" fill="#E22126"></path>
                <path d="M26.7830587,2.44163043 C25.5868187,3.59916667 25.3299387,5.2740942 26.2084987,6.1851087 C27.088072,7.0951087 28.7696987,6.89728261 29.9659387,5.73974638 C31.1611653,4.58271739 31.4180453,2.90626812 30.5389787,1.99677536 C29.6604187,1.08576087 27.978792,1.28612319 26.7830587,2.44163043" id="Fill-7" fill="#E22126"></path>
                <path d="M27.86692,12.681413 C27.86692,15.283587 25.7602,17.3927174 23.161,17.3927174 C20.5623067,17.3927174 18.45508,15.283587 18.45508,12.681413 C18.45508,10.0802536 20.5623067,7.96960145 23.161,7.96960145 C25.7602,7.96960145 27.86692,10.0802536 27.86692,12.681413" id="Fill-9" fill="#E22126"></path>
                <path d="M16.9377147,9.86036232 C16.9377147,14.0101449 13.5769947,17.3736957 9.43398133,17.3736957 C5.28995467,17.3736957 1.93075467,14.0101449 1.93075467,9.86036232 C1.93075467,5.71210145 5.28995467,2.35007246 9.43398133,2.35007246 L16.9473413,2.35007246 L16.9377147,9.86036232 Z" id="Fill-11" fill="#E22126"></path>
                <path d="M17.019592,26.3310072 C17.019592,30.5051377 13.6386053,33.8889783 9.46924533,33.8889783 C5.29988533,33.8889783 1.919912,30.5051377 1.919912,26.3310072 C1.919912,22.1548478 5.29988533,18.7710072 9.46924533,18.7710072 C13.6386053,18.7710072 17.019592,22.1548478 17.019592,26.3310072" id="Fill-13" fill="#E22126"></path>
                <mask id="mask-44" fill="white">
                    <use xlink:href="#path-43"></use>
                </mask>
                <g id="Clip-16"></g>
                <polygon id="Fill-15" fill="#FFFFFF" mask="url(#mask-44)" points="7.67042667 27.125 8.00482667 27.125 8.00482667 25.6047826 7.67042667 25.6047826"></polygon>
                <path d="M7.265296,27.0086377 C7.151296,27.1090725 6.99118933,27.1608116 6.78852267,27.1608116 C6.582816,27.1608116 6.42372267,27.1090725 6.31022933,27.0101594 C6.19774933,26.9112464 6.142016,26.7575507 6.142016,26.5511014 L6.142016,25.603058 L6.47590933,25.603058 L6.47590933,26.5511014 C6.47590933,26.5906667 6.47894933,26.6322609 6.48604267,26.6713188 C6.49364267,26.7103768 6.508336,26.7458841 6.531136,26.7763188 C6.553936,26.8062464 6.58534933,26.8326232 6.625376,26.8518986 C6.66590933,26.8706667 6.72062933,26.8808116 6.78852267,26.8808116 C6.90708267,26.8808116 6.990176,26.8534203 7.03526933,26.8001594 C7.08086933,26.7474058 7.104176,26.6637101 7.104176,26.5511014 L7.104176,25.603058 L7.43806933,25.603058 L7.43806933,26.5511014 C7.43806933,26.756029 7.38030933,26.9082029 7.265296,27.0086377" id="Fill-17" fill="#FFFFFF" mask="url(#mask-44)"></path>
                <path d="M9.234304,26.0092609 C9.21403733,25.9767971 9.18971733,25.9494058 9.159824,25.925058 C9.12993067,25.9002029 9.095984,25.8824493 9.05849067,25.8672319 C9.02099733,25.8540435 8.981984,25.848971 8.94043733,25.848971 C8.864944,25.848971 8.801104,25.8631739 8.74891733,25.8925942 C8.696224,25.9220145 8.653664,25.9590435 8.62073067,26.0092609 C8.588304,26.0584638 8.56449067,26.1142609 8.54979733,26.1761449 C8.53459733,26.2395507 8.52699733,26.3029565 8.52699733,26.3714348 C8.52699733,26.4358551 8.53459733,26.4962174 8.54979733,26.5575942 C8.56449067,26.6174493 8.588304,26.6712174 8.62073067,26.7204203 C8.653664,26.7686087 8.696224,26.8076667 8.74891733,26.837087 C8.801104,26.866 8.864944,26.8791884 8.94043733,26.8791884 C9.04329067,26.8791884 9.12283733,26.8492609 9.179584,26.7863623 C9.237344,26.7234638 9.272304,26.6412899 9.28547733,26.5388261 L9.60873067,26.5388261 C9.600624,26.6336812 9.57833067,26.7204203 9.542864,26.796 C9.507904,26.8736087 9.460784,26.9390435 9.40251733,26.9928116 C9.34425067,27.047087 9.27635733,27.0886812 9.19833067,27.1165797 C9.11979733,27.146 9.033664,27.1591884 8.94043733,27.1591884 C8.82441067,27.1591884 8.719024,27.1383913 8.626304,27.0983188 C8.53307733,27.0587536 8.45505067,27.0024493 8.39121067,26.931942 C8.32635733,26.8609275 8.278224,26.7777391 8.24377067,26.6818696 C8.21033067,26.5849855 8.19259733,26.4815072 8.19259733,26.3714348 C8.19259733,26.2562899 8.21033067,26.1517971 8.24377067,26.0538986 C8.278224,25.9565072 8.32635733,25.8717971 8.39121067,25.7992609 C8.45505067,25.7262174 8.53307733,25.669913 8.626304,25.6288261 C8.719024,25.5867246 8.82441067,25.5664348 8.94043733,25.5664348 C9.02403733,25.5664348 9.103584,25.5796232 9.17755733,25.6034638 C9.252544,25.6278116 9.31891733,25.6623043 9.37819733,25.7094783 C9.436464,25.7556377 9.48611733,25.8129565 9.52411733,25.8809275 C9.562624,25.9478841 9.58643733,26.0270145 9.59555733,26.1152754 L9.272304,26.1152754 C9.26673067,26.0757101 9.254064,26.0407101 9.234304,26.0092609" id="Fill-18" fill="#FFFFFF" mask="url(#mask-44)"></path>
                <polygon id="Fill-19" fill="#FFFFFF" mask="url(#mask-44)" points="10.1266453 25.6033116 10.7599787 26.6249058 10.7650453 26.6249058 10.7650453 25.6033116 11.0781653 25.6033116 11.0781653 27.1250507 10.744272 27.1250507 10.1114453 26.1065 10.1068853 26.1065 10.1068853 27.1250507 9.794272 27.1250507 9.794272 25.6033116"></polygon>
                <path d="M9.32312267,27.9577464 C9.295256,27.9886884 9.266376,28.0191232 9.237496,28.0480362 C8.79720267,28.4893406 8.19122933,28.7607174 7.51888267,28.7607174 C6.84704267,28.7607174 6.24106933,28.4893406 5.800776,28.0480362 C5.359976,27.6072391 5.08890933,26.999558 5.08840267,26.3279638 C5.08890933,25.6548478 5.359976,25.0481812 5.800776,24.6078913 C6.24106933,24.166587 6.84704267,23.8952101 7.51888267,23.8936884 C8.19122933,23.8952101 8.79720267,24.166587 9.237496,24.6078913 C9.287656,24.6586159 9.336296,24.7108623 9.38290933,24.7661522 L10.3749627,24.7661522 C9.822696,23.7541957 8.75008267,23.0689058 7.51634933,23.0673841 C5.71920267,23.0689058 4.262536,24.5272391 4.26202933,26.326442 C4.262536,28.1251377 5.71920267,29.5839783 7.51634933,29.5839783 C8.72018933,29.5839783 9.77152267,28.9306449 10.3339227,27.9577464 L9.32312267,27.9577464 Z" id="Fill-20" fill="#FFFFFF" mask="url(#mask-44)"></path>
                <path d="M20.328784,22.4765942 L21.6309173,22.4765942 C22.098064,22.4765942 22.3478507,22.2260145 22.3478507,21.7750725 C22.3478507,21.3327536 21.9972373,21.1318841 21.5635307,21.1318841 L20.328784,21.1318841 L20.328784,22.4765942 Z M18.776864,19.8876087 L21.813824,19.8876087 C22.8651573,19.8876087 23.8997707,20.3628986 23.8997707,21.5671014 C23.8997707,22.2102899 23.5912107,22.82 22.965984,23.0614493 L22.965984,23.0792029 C23.6003307,23.2288406 23.7832373,23.9394928 23.833904,24.506087 C23.8501173,24.7586957 23.8754507,25.6352174 24.0841973,25.8518116 L22.547984,25.8518116 C22.4147307,25.6519565 22.389904,25.0671014 22.3736907,24.8997101 C22.332144,24.2981159 22.2313173,23.6797826 21.505264,23.6797826 L20.328784,23.6797826 L20.328784,25.8518116 L18.776864,25.8518116 L18.776864,19.8876087 Z" id="Fill-21" fill="#000000" mask="url(#mask-44)"></path>
                <polygon id="Fill-22" fill="#000000" mask="url(#mask-44)" points="24.6346907 19.8873551 29.382664 19.8873551 29.382664 21.1316304 26.1866107 21.1316304 26.1866107 22.176558 29.107544 22.176558 29.107544 23.3787319 26.1866107 23.3787319 26.1866107 24.515471 29.466264 24.515471 29.466264 25.8520652 24.6346907 25.8520652"></polygon>
                <path d="M31.7364347,24.5152681 L32.470088,24.5152681 C33.6470747,24.4909203 34.1152347,24.0308478 34.1152347,22.8357754 C34.1152347,21.7502681 33.5305413,21.2232391 32.470088,21.2232391 L31.7364347,21.2232391 L31.7364347,24.5152681 Z M30.1845147,19.8871522 L32.7462213,19.8871522 C34.5742747,19.8871522 35.6661413,20.9980217 35.6661413,22.8449058 C35.6661413,24.7993261 34.557048,25.8533841 32.7462213,25.8533841 L30.1845147,25.8533841 L30.1845147,19.8871522 Z" id="Fill-23" fill="#000000" mask="url(#mask-44)"></path>
                <polygon id="Fill-24" fill="#000000" mask="url(#mask-44)" points="18.7763573 26.4645145 20.3282773 26.4645145 20.3282773 31.0946594 23.107344 31.0946594 23.107344 32.4307464 18.7763573 32.4307464"></polygon>
                <polygon id="Fill-25" fill="#000000" mask="url(#mask-44)" points="23.54176 32.4292754 25.09368 32.4292754 25.09368 26.4645652 23.54176 26.4645652"></polygon>
                <path d="M27.0465253,30.4243841 C27.0794587,31.126413 27.513672,31.3516304 28.1723387,31.3516304 C28.6404987,31.3516304 29.1238587,31.1847464 29.1238587,30.7419203 C29.1238587,30.216413 28.2731653,30.1159783 27.4128453,29.8740217 C26.5626587,29.6320652 25.6694053,29.2480797 25.6694053,28.1524275 C25.6694053,26.8508333 26.9791387,26.3400362 28.0983653,26.3400362 C29.2824453,26.3400362 30.476152,26.9157609 30.4847653,28.260471 L28.9323387,28.260471 C28.9571653,27.7192391 28.4479653,27.5427174 27.972712,27.5427174 C27.6388187,27.5427174 27.2213253,27.6593841 27.2213253,28.0519928 C27.2213253,28.5125725 28.0811387,28.5957609 28.948552,28.8382246 C29.808872,29.0796739 30.676792,29.4803986 30.676792,30.5588043 C30.676792,32.071413 29.390872,32.5563406 28.0811387,32.5563406 C26.712632,32.5563406 25.502712,31.9547464 25.4946053,30.4243841 L27.0465253,30.4243841 Z" id="Fill-26" fill="#000000" mask="url(#mask-44)"></path>
                <polygon id="Fill-27" fill="#000000" mask="url(#mask-44)" points="35.5832 27.801971 33.8053067 27.801971 33.8053067 32.4305942 32.2533867 32.4305942 32.2533867 27.801971 30.476 27.801971 30.476 26.4643623 35.5832 26.4643623"></polygon>
                <path d="M36.695232,20.5043696 C36.657232,20.7128478 36.5001653,20.8406739 36.3086453,20.8406739 C36.0289653,20.8406739 35.8450453,20.6281377 35.8450453,20.3471232 C35.8450453,20.0823406 36.0193387,19.8784275 36.304592,19.8769058 C36.5026987,19.8769058 36.664832,19.9920507 36.692192,20.2076304 L36.5442453,20.2076304 C36.5224587,20.095529 36.4287253,20.0184275 36.304592,20.0184275 C36.1201653,20.0184275 36.0193387,20.165529 36.0193387,20.3471232 C36.0193387,20.5363261 36.131312,20.6976304 36.3086453,20.6976304 C36.4373387,20.6976304 36.5285387,20.6179928 36.5442453,20.5043696 L36.695232,20.5043696 Z M36.281792,19.6704565 C35.9281387,19.6704565 35.6530187,19.9484275 35.6530187,20.3471232 C35.6530187,20.7184275 35.8931787,21.0222681 36.281792,21.0222681 C36.631392,21.0222681 36.9070187,20.7473406 36.9070187,20.3471232 C36.9070187,19.9484275 36.631392,19.6704565 36.281792,19.6704565 L36.281792,19.6704565 Z M36.281792,21.1648043 C35.812112,21.1648043 35.477712,20.8127754 35.477712,20.3471232 C35.477712,19.8535725 35.8496053,19.5289348 36.281792,19.5289348 C36.710432,19.5289348 37.0823253,19.8535725 37.0823253,20.3471232 C37.0823253,20.8391522 36.710432,21.1648043 36.281792,21.1648043 L36.281792,21.1648043 Z" id="Fill-28" fill="#000000" mask="url(#mask-44)"></path>
            </g>
        </g>
    </g>
</svg>