<?xml version="1.0" encoding="UTF-8" standalone="no"?>
<svg width="378px" height="64px" viewBox="0 0 378 64" version="1.1" xmlns="http://www.w3.org/2000/svg" xmlns:xlink="http://www.w3.org/1999/xlink">
    <!-- Generator: Sketch 47.1 (45422) - http://www.bohemiancoding.com/sketch -->
    <title>infograph/legend_map-butterfly3</title>
    <desc>Created with Sketch.</desc>
    <defs>
        <rect id="path-1" x="10" y="25" width="61" height="10"></rect>
        <polygon id="path-2" points="190 25 232.628906 25 250 25 250 35 190 35"></polygon>
        <polygon id="path-3" points="249 25 291.628906 25 309 25 309 35 249 35"></polygon>
        <polygon id="path-4" points="308 25 350.628906 25 368 25 368 35 308 35"></polygon>
        <rect id="path-5" x="130" y="25" width="61" height="10"></rect>
        <rect id="path-6" x="70" y="25" width="61" height="10"></rect>
    </defs>
    <g id="Symbols" stroke="none" stroke-width="1" fill="none" fill-rule="evenodd">
        <g id="infograph/legend_map-butterfly3">
            <rect id="Rectangle-2" fill-opacity="0.5" fill="#FFFFFF" x="0" y="0" width="378" height="64" rx="4"></rect>
            <path d="M34.096,15.004 L37.948,16.624 L37.444,17.788 L32.824,15.724 L32.824,14.296 L37.444,12.22 L37.948,13.36 L34.096,15.004 Z M43.684,12.064 L43.684,14.068 C44.084002,13.867999 44.4919979,13.768 44.908,13.768 C45.3560022,13.768 45.7559982,13.871999 46.108,14.08 C46.4600018,14.288001 46.733999,14.587998 46.93,14.98 C47.126001,15.372002 47.224,15.8359973 47.224,16.372 C47.224,16.9240028 47.1000012,17.4119979 46.852,17.836 C46.6039988,18.2600021 46.2520023,18.5899988 45.796,18.826 C45.3399977,19.0620012 44.812003,19.18 44.212,19.18 C43.6759973,19.18 43.2020021,19.082001 42.79,18.886 C42.3779979,18.689999 42.0040017,18.4080018 41.668,18.04 L42.556,17.212 C43.0040022,17.7320026 43.5439968,17.992 44.176,17.992 C44.6320023,17.992 44.9899987,17.8520014 45.25,17.572 C45.5100013,17.2919986 45.64,16.8920026 45.64,16.372 C45.64,15.371995 45.2080043,14.872 44.344,14.872 C44.1599991,14.872 43.9880008,14.8939998 43.828,14.938 C43.6679992,14.9820002 43.492001,15.0519995 43.3,15.148 L42.208,15.148 L42.208,10.924 L46.888,10.924 L46.708,12.064 L43.684,12.064 Z" id="&lt;-5" fill="#212121"></path>
            <path d="M204.328,19 L204.328,12.472 L202.528,13.564 L201.856,12.532 L204.484,10.924 L205.84,10.924 L205.84,19 L204.328,19 Z M209.224,12.064 L209.224,14.068 C209.624002,13.867999 210.031998,13.768 210.448,13.768 C210.896002,13.768 211.295998,13.871999 211.648,14.08 C212.000002,14.288001 212.273999,14.587998 212.47,14.98 C212.666001,15.372002 212.764,15.8359973 212.764,16.372 C212.764,16.9240028 212.640001,17.4119979 212.392,17.836 C212.143999,18.2600021 211.792002,18.5899988 211.336,18.826 C210.879998,19.0620012 210.352003,19.18 209.752,19.18 C209.215997,19.18 208.742002,19.082001 208.33,18.886 C207.917998,18.689999 207.544002,18.4080018 207.208,18.04 L208.096,17.212 C208.544002,17.7320026 209.083997,17.992 209.716,17.992 C210.172002,17.992 210.529999,17.8520014 210.79,17.572 C211.050001,17.2919986 211.18,16.8920026 211.18,16.372 C211.18,15.371995 210.748004,14.872 209.884,14.872 C209.699999,14.872 209.528001,14.8939998 209.368,14.938 C209.207999,14.9820002 209.032001,15.0519995 208.84,15.148 L207.748,15.148 L207.748,10.924 L212.428,10.924 L212.248,12.064 L209.224,12.064 Z M222.148,14.632 L222.148,15.856 L216.532,15.856 L216.532,14.632 L222.148,14.632 Z M229.666,11.08 C230.062002,11.280001 230.363999,11.5519983 230.572,11.896 C230.780001,12.2400017 230.884,12.6239979 230.884,13.048 C230.884,13.5040023 230.786001,13.9419979 230.59,14.362 C230.393999,14.7820021 230.068002,15.2479974 229.612,15.76 C229.155998,16.2720026 228.488004,16.9479958 227.608,17.788 L231.064,17.788 L230.896,19 L225.868,19 L225.868,17.872 C226.892005,16.8319948 227.625998,16.0620025 228.07,15.562 C228.514002,15.0619975 228.829999,14.6340018 229.018,14.278 C229.206001,13.9219982 229.3,13.5520019 229.3,13.168 C229.3,12.7999982 229.194001,12.512001 228.982,12.304 C228.769999,12.095999 228.488002,11.992 228.136,11.992 C227.823998,11.992 227.552001,12.0579993 227.32,12.19 C227.087999,12.3220007 226.844001,12.5399985 226.588,12.844 L225.64,12.1 C226.320003,11.2199956 227.191995,10.78 228.256,10.78 C228.800003,10.78 229.269998,10.879999 229.666,11.08 Z M237.13,11.86 C237.622002,12.5800036 237.868,13.6159932 237.868,14.968 C237.868,16.3280068 237.622002,17.3699964 237.13,18.094 C236.637998,18.8180036 235.920005,19.18 234.976,19.18 C234.031995,19.18 233.314002,18.8180036 232.822,18.094 C232.329998,17.3699964 232.084,16.3280068 232.084,14.968 C232.084,13.6159932 232.329998,12.5800036 232.822,11.86 C233.314002,11.1399964 234.031995,10.78 234.976,10.78 C235.920005,10.78 236.637998,11.1399964 237.13,11.86 Z M233.98,12.634 C233.771999,13.0940023 233.668,13.8719945 233.668,14.968 C233.668,16.0720055 233.771999,16.8559977 233.98,17.32 C234.188001,17.7840023 234.519998,18.016 234.976,18.016 C235.432002,18.016 235.763999,17.7860023 235.972,17.326 C236.180001,16.8659977 236.284,16.0800056 236.284,14.968 C236.284,13.8639945 236.180001,13.0840023 235.972,12.628 C235.763999,12.1719977 235.432002,11.944 234.976,11.944 C234.519998,11.944 234.188001,12.1739977 233.98,12.634 Z" id="15-–-20" fill="#212121"></path>
            <path d="M264.444,11.08 C264.840002,11.280001 265.141999,11.5519983 265.35,11.896 C265.558001,12.2400017 265.662,12.6239979 265.662,13.048 C265.662,13.5040023 265.564001,13.9419979 265.368,14.362 C265.171999,14.7820021 264.846002,15.2479974 264.39,15.76 C263.933998,16.2720026 263.266004,16.9479958 262.386,17.788 L265.842,17.788 L265.674,19 L260.646,19 L260.646,17.872 C261.670005,16.8319948 262.403998,16.0620025 262.848,15.562 C263.292002,15.0619975 263.607999,14.6340018 263.796,14.278 C263.984001,13.9219982 264.078,13.5520019 264.078,13.168 C264.078,12.7999982 263.972001,12.512001 263.76,12.304 C263.547999,12.095999 263.266002,11.992 262.914,11.992 C262.601998,11.992 262.330001,12.0579993 262.098,12.19 C261.865999,12.3220007 261.622001,12.5399985 261.366,12.844 L260.418,12.1 C261.098003,11.2199956 261.969995,10.78 263.034,10.78 C263.578003,10.78 264.047998,10.879999 264.444,11.08 Z M271.908,11.86 C272.400002,12.5800036 272.646,13.6159932 272.646,14.968 C272.646,16.3280068 272.400002,17.3699964 271.908,18.094 C271.415998,18.8180036 270.698005,19.18 269.754,19.18 C268.809995,19.18 268.092002,18.8180036 267.6,18.094 C267.107998,17.3699964 266.862,16.3280068 266.862,14.968 C266.862,13.6159932 267.107998,12.5800036 267.6,11.86 C268.092002,11.1399964 268.809995,10.78 269.754,10.78 C270.698005,10.78 271.415998,11.1399964 271.908,11.86 Z M268.758,12.634 C268.549999,13.0940023 268.446,13.8719945 268.446,14.968 C268.446,16.0720055 268.549999,16.8559977 268.758,17.32 C268.966001,17.7840023 269.297998,18.016 269.754,18.016 C270.210002,18.016 270.541999,17.7860023 270.75,17.326 C270.958001,16.8659977 271.062,16.0800056 271.062,14.968 C271.062,13.8639945 270.958001,13.0840023 270.75,12.628 C270.541999,12.1719977 270.210002,11.944 269.754,11.944 C269.297998,11.944 268.966001,12.1739977 268.758,12.634 Z M282.126,14.632 L282.126,15.856 L276.51,15.856 L276.51,14.632 L282.126,14.632 Z M289.644,11.08 C290.040002,11.280001 290.341999,11.5519983 290.55,11.896 C290.758001,12.2400017 290.862,12.6239979 290.862,13.048 C290.862,13.5040023 290.764001,13.9419979 290.568,14.362 C290.371999,14.7820021 290.046002,15.2479974 289.59,15.76 C289.133998,16.2720026 288.466004,16.9479958 287.586,17.788 L291.042,17.788 L290.874,19 L285.846,19 L285.846,17.872 C286.870005,16.8319948 287.603998,16.0620025 288.048,15.562 C288.492002,15.0619975 288.807999,14.6340018 288.996,14.278 C289.184001,13.9219982 289.278,13.5520019 289.278,13.168 C289.278,12.7999982 289.172001,12.512001 288.96,12.304 C288.747999,12.095999 288.466002,11.992 288.114,11.992 C287.801998,11.992 287.530001,12.0579993 287.298,12.19 C287.065999,12.3220007 286.822001,12.5399985 286.566,12.844 L285.618,12.1 C286.298003,11.2199956 287.169995,10.78 288.234,10.78 C288.778003,10.78 289.247998,10.879999 289.644,11.08 Z M293.766,12.064 L293.766,14.068 C294.166002,13.867999 294.573998,13.768 294.99,13.768 C295.438002,13.768 295.837998,13.871999 296.19,14.08 C296.542002,14.288001 296.815999,14.587998 297.012,14.98 C297.208001,15.372002 297.306,15.8359973 297.306,16.372 C297.306,16.9240028 297.182001,17.4119979 296.934,17.836 C296.685999,18.2600021 296.334002,18.5899988 295.878,18.826 C295.421998,19.0620012 294.894003,19.18 294.294,19.18 C293.757997,19.18 293.284002,19.082001 292.872,18.886 C292.459998,18.689999 292.086002,18.4080018 291.75,18.04 L292.638,17.212 C293.086002,17.7320026 293.625997,17.992 294.258,17.992 C294.714002,17.992 295.071999,17.8520014 295.332,17.572 C295.592001,17.2919986 295.722,16.8920026 295.722,16.372 C295.722,15.371995 295.290004,14.872 294.426,14.872 C294.241999,14.872 294.070001,14.8939998 293.91,14.938 C293.749999,14.9820002 293.574001,15.0519995 293.382,15.148 L292.29,15.148 L292.29,10.924 L296.97,10.924 L296.79,12.064 L293.766,12.064 Z" id="20-–-25" fill="#212121"></path>
            <path d="M332.906,15.724 L328.286,17.788 L327.782,16.624 L331.622,15.004 L327.782,13.36 L328.286,12.22 L332.906,14.296 L332.906,15.724 Z M340.604,11.08 C341.000002,11.280001 341.301999,11.5519983 341.51,11.896 C341.718001,12.2400017 341.822,12.6239979 341.822,13.048 C341.822,13.5040023 341.724001,13.9419979 341.528,14.362 C341.331999,14.7820021 341.006002,15.2479974 340.55,15.76 C340.093998,16.2720026 339.426004,16.9479958 338.546,17.788 L342.002,17.788 L341.834,19 L336.806,19 L336.806,17.872 C337.830005,16.8319948 338.563998,16.0620025 339.008,15.562 C339.452002,15.0619975 339.767999,14.6340018 339.956,14.278 C340.144001,13.9219982 340.238,13.5520019 340.238,13.168 C340.238,12.7999982 340.132001,12.512001 339.92,12.304 C339.707999,12.095999 339.426002,11.992 339.074,11.992 C338.761998,11.992 338.490001,12.0579993 338.258,12.19 C338.025999,12.3220007 337.782001,12.5399985 337.526,12.844 L336.578,12.1 C337.258003,11.2199956 338.129995,10.78 339.194,10.78 C339.738003,10.78 340.207998,10.879999 340.604,11.08 Z M344.726,12.064 L344.726,14.068 C345.126002,13.867999 345.533998,13.768 345.95,13.768 C346.398002,13.768 346.797998,13.871999 347.15,14.08 C347.502002,14.288001 347.775999,14.587998 347.972,14.98 C348.168001,15.372002 348.266,15.8359973 348.266,16.372 C348.266,16.9240028 348.142001,17.4119979 347.894,17.836 C347.645999,18.2600021 347.294002,18.5899988 346.838,18.826 C346.381998,19.0620012 345.854003,19.18 345.254,19.18 C344.717997,19.18 344.244002,19.082001 343.832,18.886 C343.419998,18.689999 343.046002,18.4080018 342.71,18.04 L343.598,17.212 C344.046002,17.7320026 344.585997,17.992 345.218,17.992 C345.674002,17.992 346.031999,17.8520014 346.292,17.572 C346.552001,17.2919986 346.682,16.8920026 346.682,16.372 C346.682,15.371995 346.250004,14.872 345.386,14.872 C345.201999,14.872 345.030001,14.8939998 344.87,14.938 C344.709999,14.9820002 344.534001,15.0519995 344.342,15.148 L343.25,15.148 L343.25,10.924 L347.93,10.924 L347.75,12.064 L344.726,12.064 Z" id="&gt;-25" fill="#212121"></path>
            <path d="M144.67,19 L144.67,12.472 L142.87,13.564 L142.198,12.532 L144.826,10.924 L146.182,10.924 L146.182,19 L144.67,19 Z M152.908,11.86 C153.400002,12.5800036 153.646,13.6159932 153.646,14.968 C153.646,16.3280068 153.400002,17.3699964 152.908,18.094 C152.415998,18.8180036 151.698005,19.18 150.754,19.18 C149.809995,19.18 149.092002,18.8180036 148.6,18.094 C148.107998,17.3699964 147.862,16.3280068 147.862,14.968 C147.862,13.6159932 148.107998,12.5800036 148.6,11.86 C149.092002,11.1399964 149.809995,10.78 150.754,10.78 C151.698005,10.78 152.415998,11.1399964 152.908,11.86 Z M149.758,12.634 C149.549999,13.0940023 149.446,13.8719945 149.446,14.968 C149.446,16.0720055 149.549999,16.8559977 149.758,17.32 C149.966001,17.7840023 150.297998,18.016 150.754,18.016 C151.210002,18.016 151.541999,17.7860023 151.75,17.326 C151.958001,16.8659977 152.062,16.0800056 152.062,14.968 C152.062,13.8639945 151.958001,13.0840023 151.75,12.628 C151.541999,12.1719977 151.210002,11.944 150.754,11.944 C150.297998,11.944 149.966001,12.1739977 149.758,12.634 Z M163.126,14.632 L163.126,15.856 L157.51,15.856 L157.51,14.632 L163.126,14.632 Z M169.186,19 L169.186,12.472 L167.386,13.564 L166.714,12.532 L169.342,10.924 L170.698,10.924 L170.698,19 L169.186,19 Z M174.082,12.064 L174.082,14.068 C174.482002,13.867999 174.889998,13.768 175.306,13.768 C175.754002,13.768 176.153998,13.871999 176.506,14.08 C176.858002,14.288001 177.131999,14.587998 177.328,14.98 C177.524001,15.372002 177.622,15.8359973 177.622,16.372 C177.622,16.9240028 177.498001,17.4119979 177.25,17.836 C177.001999,18.2600021 176.650002,18.5899988 176.194,18.826 C175.737998,19.0620012 175.210003,19.18 174.61,19.18 C174.073997,19.18 173.600002,19.082001 173.188,18.886 C172.775998,18.689999 172.402002,18.4080018 172.066,18.04 L172.954,17.212 C173.402002,17.7320026 173.941997,17.992 174.574,17.992 C175.030002,17.992 175.387999,17.8520014 175.648,17.572 C175.908001,17.2919986 176.038,16.8920026 176.038,16.372 C176.038,15.371995 175.606004,14.872 174.742,14.872 C174.557999,14.872 174.386001,14.8939998 174.226,14.938 C174.065999,14.9820002 173.890001,15.0519995 173.698,15.148 L172.606,15.148 L172.606,10.924 L177.286,10.924 L177.106,12.064 L174.082,12.064 Z" id="10-–-15" fill="#212121"></path>
            <path d="M86.866,12.064 L86.866,14.068 C87.266002,13.867999 87.6739979,13.768 88.09,13.768 C88.5380022,13.768 88.9379982,13.871999 89.29,14.08 C89.6420018,14.288001 89.915999,14.587998 90.112,14.98 C90.308001,15.372002 90.406,15.8359973 90.406,16.372 C90.406,16.9240028 90.2820012,17.4119979 90.034,17.836 C89.7859988,18.2600021 89.4340023,18.5899988 88.978,18.826 C88.5219977,19.0620012 87.994003,19.18 87.394,19.18 C86.8579973,19.18 86.3840021,19.082001 85.972,18.886 C85.5599979,18.689999 85.1860017,18.4080018 84.85,18.04 L85.738,17.212 C86.1860022,17.7320026 86.7259968,17.992 87.358,17.992 C87.8140023,17.992 88.1719987,17.8520014 88.432,17.572 C88.6920013,17.2919986 88.822,16.8920026 88.822,16.372 C88.822,15.371995 88.3900043,14.872 87.526,14.872 C87.3419991,14.872 87.1700008,14.8939998 87.01,14.938 C86.8499992,14.9820002 86.674001,15.0519995 86.482,15.148 L85.39,15.148 L85.39,10.924 L90.07,10.924 L89.89,12.064 L86.866,12.064 Z M99.79,14.632 L99.79,15.856 L94.174,15.856 L94.174,14.632 L99.79,14.632 Z M105.85,19 L105.85,12.472 L104.05,13.564 L103.378,12.532 L106.006,10.924 L107.362,10.924 L107.362,19 L105.85,19 Z M114.088,11.86 C114.580002,12.5800036 114.826,13.6159932 114.826,14.968 C114.826,16.3280068 114.580002,17.3699964 114.088,18.094 C113.595998,18.8180036 112.878005,19.18 111.934,19.18 C110.989995,19.18 110.272002,18.8180036 109.78,18.094 C109.287998,17.3699964 109.042,16.3280068 109.042,14.968 C109.042,13.6159932 109.287998,12.5800036 109.78,11.86 C110.272002,11.1399964 110.989995,10.78 111.934,10.78 C112.878005,10.78 113.595998,11.1399964 114.088,11.86 Z M110.938,12.634 C110.729999,13.0940023 110.626,13.8719945 110.626,14.968 C110.626,16.0720055 110.729999,16.8559977 110.938,17.32 C111.146001,17.7840023 111.477998,18.016 111.934,18.016 C112.390002,18.016 112.721999,17.7860023 112.93,17.326 C113.138001,16.8659977 113.242,16.0800056 113.242,14.968 C113.242,13.8639945 113.138001,13.0840023 112.93,12.628 C112.721999,12.1719977 112.390002,11.944 111.934,11.944 C111.477998,11.944 111.146001,12.1739977 110.938,12.634 Z" id="5-–-10" fill="#212121"></path>
            <path d="M12.34,43.644 L12.34,46.344 L15.124,46.344 L15.124,47.256 L12.34,47.256 L12.34,50.088 L15.772,50.088 L15.772,51 L11.2,51 L11.2,42.732 L15.676,42.732 L15.544,43.644 L12.34,43.644 Z M21.886,45.048 C22.2100016,45.3920017 22.372,45.863997 22.372,46.464 L22.372,51 L21.268,51 L21.268,46.62 C21.268,46.1719978 21.1840008,45.8560009 21.016,45.672 C20.8479992,45.4879991 20.6000016,45.396 20.272,45.396 C19.9359983,45.396 19.6400013,45.491999 19.384,45.684 C19.1279987,45.876001 18.8880011,46.1519982 18.664,46.512 L18.664,51 L17.56,51 L17.56,44.676 L18.508,44.676 L18.604,45.612 C18.8280011,45.2759983 19.1059983,45.012001 19.438,44.82 C19.7700017,44.627999 20.135998,44.532 20.536,44.532 C21.1120029,44.532 21.5619984,44.7039983 21.886,45.048 Z M29.488,51 L28.516,51 L28.408,50.124 C28.199999,50.4440016 27.9400016,50.6939991 27.628,50.874 C27.3159984,51.0540009 26.9680019,51.144 26.584,51.144 C25.8319962,51.144 25.2460021,50.848003 24.826,50.256 C24.4059979,49.663997 24.196,48.868005 24.196,47.868 C24.196,47.2199968 24.295999,46.6440025 24.496,46.14 C24.696001,45.6359975 24.9839981,45.2420014 25.36,44.958 C25.7360019,44.6739986 26.1759975,44.532 26.68,44.532 C27.3280032,44.532 27.8959976,44.7919974 28.384,45.312 L28.384,42 L29.488,42.132 L29.488,51 Z M27.688,50.034 C27.9280012,49.8779992 28.1599989,49.6440016 28.384,49.332 L28.384,46.236 C28.175999,45.9639986 27.9540012,45.7580007 27.718,45.618 C27.4819988,45.4779993 27.2160015,45.408 26.92,45.408 C26.4319976,45.408 26.0540013,45.611998 25.786,46.02 C25.5179987,46.428002 25.384,47.035996 25.384,47.844 C25.384,48.6600041 25.5079988,49.267998 25.756,49.668 C26.0040012,50.068002 26.3599977,50.268 26.824,50.268 C27.1600017,50.268 27.4479988,50.1900008 27.688,50.034 Z M36.4,48.216 L32.368,48.216 C32.4160002,48.9120035 32.5919985,49.4239984 32.896,49.752 C33.2000015,50.0800016 33.5919976,50.244 34.072,50.244 C34.3760015,50.244 34.6559987,50.2000004 34.912,50.112 C35.1680013,50.0239996 35.4359986,49.884001 35.716,49.692 L36.196,50.352 C35.5239966,50.8800026 34.788004,51.144 33.988,51.144 C33.1079956,51.144 32.4220025,50.8560029 31.93,50.28 C31.4379975,49.7039971 31.192,48.912005 31.192,47.904 C31.192,47.2479967 31.2979989,46.6660025 31.51,46.158 C31.7220011,45.6499975 32.025998,45.2520014 32.422,44.964 C32.818002,44.6759986 33.2839973,44.532 33.82,44.532 C34.6600042,44.532 35.3039978,44.8079972 35.752,45.36 C36.2000022,45.9120028 36.424,46.6759951 36.424,47.652 C36.424,47.8360009 36.4160001,48.023999 36.4,48.216 Z M35.332,47.328 C35.332,46.7039969 35.2080012,46.2280016 34.96,45.9 C34.7119988,45.5719984 34.3400025,45.408 33.844,45.408 C32.9399955,45.408 32.4480004,46.0719934 32.368,47.4 L35.332,47.4 L35.332,47.328 Z M45.844,45.054 C46.1560016,45.4020017 46.312,45.871997 46.312,46.464 L46.312,51 L45.208,51 L45.208,46.62 C45.208,45.8039959 44.912003,45.396 44.32,45.396 C44.0079984,45.396 43.7440011,45.4859991 43.528,45.666 C43.3119989,45.8460009 43.0800012,46.1279981 42.832,46.512 L42.832,51 L41.728,51 L41.728,46.62 C41.728,45.8039959 41.432003,45.396 40.84,45.396 C40.5199984,45.396 40.2520011,45.4879991 40.036,45.672 C39.8199989,45.8560009 39.5920012,46.1359981 39.352,46.512 L39.352,51 L38.248,51 L38.248,44.676 L39.196,44.676 L39.292,45.6 C39.7640024,44.8879964 40.3719963,44.532 41.116,44.532 C41.508002,44.532 41.8419986,44.631999 42.118,44.832 C42.3940014,45.032001 42.5919994,45.3119982 42.712,45.672 C42.9600012,45.3039982 43.2339985,45.022001 43.534,44.826 C43.8340015,44.629999 44.187998,44.532 44.596,44.532 C45.1160026,44.532 45.5319984,44.7059983 45.844,45.054 Z M48.532,51 L48.532,44.676 L49.636,44.676 L49.636,51 L48.532,51 Z M49.636,41.856 C49.7800007,42.0000007 49.852,42.1799989 49.852,42.396 C49.852,42.6120011 49.7800007,42.7899993 49.636,42.93 C49.4919993,43.0700007 49.3040012,43.14 49.072,43.14 C48.8479989,43.14 48.6640007,43.0700007 48.52,42.93 C48.3759993,42.7899993 48.304,42.6120011 48.304,42.396 C48.304,42.1799989 48.3759993,42.0000007 48.52,41.856 C48.6640007,41.7119993 48.8479989,41.64 49.072,41.64 C49.3040012,41.64 49.4919993,41.7119993 49.636,41.856 Z M55.252,44.694 C55.5640016,44.8020005 55.8639986,44.9759988 56.152,45.216 L55.612,45.936 C55.3959989,45.7679992 55.184001,45.6440004 54.976,45.564 C54.767999,45.4839996 54.5320013,45.444 54.268,45.444 C53.7559974,45.444 53.3580014,45.647998 53.074,46.056 C52.7899986,46.464002 52.648,47.067996 52.648,47.868 C52.648,48.668004 52.7879986,49.2579981 53.068,49.638 C53.3480014,50.0180019 53.7479974,50.208 54.268,50.208 C54.5240013,50.208 54.753999,50.1680004 54.958,50.088 C55.162001,50.0079996 55.3839988,49.8760009 55.624,49.692 L56.152,50.448 C55.5759971,50.9120023 54.9320036,51.144 54.22,51.144 C53.3639957,51.144 52.6900025,50.8560029 52.198,50.28 C51.7059975,49.7039971 51.46,48.9080051 51.46,47.892 C51.46,47.2199966 51.5719989,46.6320025 51.796,46.128 C52.0200011,45.6239975 52.3379979,45.2320014 52.75,44.952 C53.1620021,44.6719986 53.6519972,44.532 54.22,44.532 C54.5960019,44.532 54.9399984,44.5859995 55.252,44.694 Z M63.712,44.712 C64.0560017,44.8320006 64.3839984,45.0119988 64.696,45.252 L64.216,45.984 C63.9359986,45.783999 63.6660013,45.6380005 63.406,45.546 C63.1459987,45.4539995 62.8720014,45.408 62.584,45.408 C62.2239982,45.408 61.940001,45.4819993 61.732,45.63 C61.523999,45.7780007 61.42,45.9799987 61.42,46.236 C61.42,46.4920013 61.517999,46.6919993 61.714,46.836 C61.910001,46.9800007 62.2639974,47.1199993 62.776,47.256 C63.4800035,47.4320009 64.0059983,47.6719985 64.354,47.976 C64.7020017,48.2800015 64.876,48.6959974 64.876,49.224 C64.876,49.8480031 64.6340024,50.3239984 64.15,50.652 C63.6659976,50.9800016 63.0760035,51.144 62.38,51.144 C61.4199952,51.144 60.6240032,50.8680028 59.992,50.316 L60.604,49.62 C61.1000025,50.0440021 61.6839966,50.256 62.356,50.256 C62.764002,50.256 63.0919988,50.1720008 63.34,50.004 C63.5880012,49.8359992 63.712,49.6120014 63.712,49.332 C63.712,49.1079989 63.6680004,48.9260007 63.58,48.786 C63.4919996,48.6459993 63.3420011,48.5260005 63.13,48.426 C62.9179989,48.3259995 62.6000021,48.2200006 62.176,48.108 C61.5039966,47.9319991 61.0180015,47.6940015 60.718,47.394 C60.4179985,47.0939985 60.268,46.7160023 60.268,46.26 C60.268,45.9319984 60.365999,45.6360013 60.562,45.372 C60.758001,45.1079987 61.0299983,44.9020007 61.378,44.754 C61.7260017,44.6059993 62.1159978,44.532 62.548,44.532 C62.9800022,44.532 63.3679983,44.5919994 63.712,44.712 Z M71.116,45.396 C71.4920019,45.9720029 71.68,46.7839948 71.68,47.832 C71.68,48.824005 71.4640022,49.623997 71.032,50.232 C70.5999978,50.840003 69.988004,51.144 69.196,51.144 C68.4919965,51.144 67.940002,50.9040024 67.54,50.424 L67.54,53.424 L66.436,53.556 L66.436,44.676 L67.384,44.676 L67.468,45.528 C67.7000012,45.2079984 67.9799984,44.9620009 68.308,44.79 C68.6360016,44.6179991 68.9799982,44.532 69.34,44.532 C70.148004,44.532 70.7399981,44.8199971 71.116,45.396 Z M70.492,47.832 C70.492,46.2159919 70.0160048,45.408 69.064,45.408 C68.7519984,45.408 68.4680013,45.4999991 68.212,45.684 C67.9559987,45.8680009 67.732001,46.1039986 67.54,46.392 L67.54,49.476 C67.7000008,49.7240012 67.8999988,49.9139993 68.14,50.046 C68.3800012,50.1780007 68.6439986,50.244 68.932,50.244 C69.9720052,50.244 70.492,49.440008 70.492,47.832 Z M78.316,48.216 L74.284,48.216 C74.3320002,48.9120035 74.5079985,49.4239984 74.812,49.752 C75.1160015,50.0800016 75.5079976,50.244 75.988,50.244 C76.2920015,50.244 76.5719987,50.2000004 76.828,50.112 C77.0840013,50.0239996 77.3519986,49.884001 77.632,49.692 L78.112,50.352 C77.4399966,50.8800026 76.704004,51.144 75.904,51.144 C75.0239956,51.144 74.3380025,50.8560029 73.846,50.28 C73.3539975,49.7039971 73.108,48.912005 73.108,47.904 C73.108,47.2479967 73.2139989,46.6660025 73.426,46.158 C73.6380011,45.6499975 73.941998,45.2520014 74.338,44.964 C74.734002,44.6759986 75.1999973,44.532 75.736,44.532 C76.5760042,44.532 77.2199978,44.8079972 77.668,45.36 C78.1160022,45.9120028 78.34,46.6759951 78.34,47.652 C78.34,47.8360009 78.3320001,48.023999 78.316,48.216 Z M77.248,47.328 C77.248,46.7039969 77.1240012,46.2280016 76.876,45.9 C76.6279988,45.5719984 76.2560025,45.408 75.76,45.408 C74.8559955,45.408 74.3640004,46.0719934 74.284,47.4 L77.248,47.4 L77.248,47.328 Z M83.5,44.694 C83.8120016,44.8020005 84.1119986,44.9759988 84.4,45.216 L83.86,45.936 C83.6439989,45.7679992 83.432001,45.6440004 83.224,45.564 C83.015999,45.4839996 82.7800013,45.444 82.516,45.444 C82.0039974,45.444 81.6060014,45.647998 81.322,46.056 C81.0379986,46.464002 80.896,47.067996 80.896,47.868 C80.896,48.668004 81.0359986,49.2579981 81.316,49.638 C81.5960014,50.0180019 81.9959974,50.208 82.516,50.208 C82.7720013,50.208 83.001999,50.1680004 83.206,50.088 C83.410001,50.0079996 83.6319988,49.8760009 83.872,49.692 L84.4,50.448 C83.8239971,50.9120023 83.1800036,51.144 82.468,51.144 C81.6119957,51.144 80.9380025,50.8560029 80.446,50.28 C79.9539975,49.7039971 79.708,48.9080051 79.708,47.892 C79.708,47.2199966 79.8199989,46.6320025 80.044,46.128 C80.2680011,45.6239975 80.5859979,45.2320014 80.998,44.952 C81.4100021,44.6719986 81.8999972,44.532 82.468,44.532 C82.8440019,44.532 83.1879984,44.5859995 83.5,44.694 Z M85.9,51 L85.9,44.676 L87.004,44.676 L87.004,51 L85.9,51 Z M87.004,41.856 C87.1480007,42.0000007 87.22,42.1799989 87.22,42.396 C87.22,42.6120011 87.1480007,42.7899993 87.004,42.93 C86.8599993,43.0700007 86.6720012,43.14 86.44,43.14 C86.2159989,43.14 86.0320007,43.0700007 85.888,42.93 C85.7439993,42.7899993 85.672,42.6120011 85.672,42.396 C85.672,42.1799989 85.7439993,42.0000007 85.888,41.856 C86.0320007,41.7119993 86.2159989,41.64 86.44,41.64 C86.6720012,41.64 86.8599993,41.7119993 87.004,41.856 Z M94.036,48.216 L90.004,48.216 C90.0520002,48.9120035 90.2279985,49.4239984 90.532,49.752 C90.8360015,50.0800016 91.2279976,50.244 91.708,50.244 C92.0120015,50.244 92.2919987,50.2000004 92.548,50.112 C92.8040013,50.0239996 93.0719986,49.884001 93.352,49.692 L93.832,50.352 C93.1599966,50.8800026 92.424004,51.144 91.624,51.144 C90.7439956,51.144 90.0580025,50.8560029 89.566,50.28 C89.0739975,49.7039971 88.828,48.912005 88.828,47.904 C88.828,47.2479967 88.9339989,46.6660025 89.146,46.158 C89.3580011,45.6499975 89.661998,45.2520014 90.058,44.964 C90.454002,44.6759986 90.9199973,44.532 91.456,44.532 C92.2960042,44.532 92.9399978,44.8079972 93.388,45.36 C93.8360022,45.9120028 94.06,46.6759951 94.06,47.652 C94.06,47.8360009 94.0520001,48.023999 94.036,48.216 Z M92.968,47.328 C92.968,46.7039969 92.8440012,46.2280016 92.596,45.9 C92.3479988,45.5719984 91.9760025,45.408 91.48,45.408 C90.5759955,45.408 90.0840004,46.0719934 90.004,47.4 L92.968,47.4 L92.968,47.328 Z M98.764,44.712 C99.1080017,44.8320006 99.4359984,45.0119988 99.748,45.252 L99.268,45.984 C98.9879986,45.783999 98.7180013,45.6380005 98.458,45.546 C98.1979987,45.4539995 97.9240014,45.408 97.636,45.408 C97.2759982,45.408 96.992001,45.4819993 96.784,45.63 C96.575999,45.7780007 96.472,45.9799987 96.472,46.236 C96.472,46.4920013 96.569999,46.6919993 96.766,46.836 C96.962001,46.9800007 97.3159974,47.1199993 97.828,47.256 C98.5320035,47.4320009 99.0579983,47.6719985 99.406,47.976 C99.7540017,48.2800015 99.928,48.6959974 99.928,49.224 C99.928,49.8480031 99.6860024,50.3239984 99.202,50.652 C98.7179976,50.9800016 98.1280035,51.144 97.432,51.144 C96.4719952,51.144 95.6760032,50.8680028 95.044,50.316 L95.656,49.62 C96.1520025,50.0440021 96.7359966,50.256 97.408,50.256 C97.816002,50.256 98.1439988,50.1720008 98.392,50.004 C98.6400012,49.8359992 98.764,49.6120014 98.764,49.332 C98.764,49.1079989 98.7200004,48.9260007 98.632,48.786 C98.5439996,48.6459993 98.3940011,48.5260005 98.182,48.426 C97.9699989,48.3259995 97.6520021,48.2200006 97.228,48.108 C96.5559966,47.9319991 96.0700015,47.6940015 95.77,47.394 C95.4699985,47.0939985 95.32,46.7160023 95.32,46.26 C95.32,45.9319984 95.417999,45.6360013 95.614,45.372 C95.810001,45.1079987 96.0819983,44.9020007 96.43,44.754 C96.7780017,44.6059993 97.1679978,44.532 97.6,44.532 C98.0320022,44.532 98.4199983,44.5919994 98.764,44.712 Z M109.114,45.42 C109.606002,46.012003 109.852,46.8159949 109.852,47.832 C109.852,48.4880033 109.740001,49.0659975 109.516,49.566 C109.291999,50.0660025 108.968002,50.4539986 108.544,50.73 C108.119998,51.0060014 107.616003,51.144 107.032,51.144 C106.143996,51.144 105.452002,50.848003 104.956,50.256 C104.459998,49.663997 104.212,48.8600051 104.212,47.844 C104.212,47.1879967 104.323999,46.6100025 104.548,46.11 C104.772001,45.6099975 105.095998,45.2220014 105.52,44.946 C105.944002,44.6699986 106.451997,44.532 107.044,44.532 C107.932004,44.532 108.621998,44.827997 109.114,45.42 Z M105.4,47.844 C105.4,49.452008 105.943995,50.256 107.032,50.256 C108.120005,50.256 108.664,49.4480081 108.664,47.832 C108.664,46.223992 108.124005,45.42 107.044,45.42 C105.947995,45.42 105.4,46.2279919 105.4,47.844 Z M113.104,43.11 C112.959999,43.2580007 112.888,43.4879984 112.888,43.8 L112.888,44.676 L114.424,44.676 L114.304,45.528 L112.888,45.528 L112.888,51 L111.784,51 L111.784,45.528 L110.656,45.528 L110.656,44.676 L111.784,44.676 L111.784,43.812 C111.784,43.2679973 111.957998,42.8300017 112.306,42.498 C112.654002,42.1659983 113.139997,42 113.764,42 C114.052001,42 114.309999,42.0259997 114.538,42.078 C114.766001,42.1300003 115.011999,42.2119994 115.276,42.324 L114.928,43.128 C114.567998,42.9679992 114.200002,42.888 113.824,42.888 C113.487998,42.888 113.248001,42.9619993 113.104,43.11 Z M123.484,45.402 C123.908002,45.9820029 124.12,46.7919948 124.12,47.832 C124.12,48.4880033 124.020001,49.0659975 123.82,49.566 C123.619999,50.0660025 123.332002,50.4539986 122.956,50.73 C122.579998,51.0060014 122.140003,51.144 121.636,51.144 C120.971997,51.144 120.412002,50.8640028 119.956,50.304 L119.848,51 L118.876,51 L118.876,42.132 L119.98,42 L119.98,45.468 C120.436002,44.8439969 121.031996,44.532 121.768,44.532 C122.488004,44.532 123.059998,44.8219971 123.484,45.402 Z M122.518,49.674 C122.794001,49.277998 122.932,48.6640042 122.932,47.832 C122.932,46.9759957 122.804001,46.3580019 122.548,45.978 C122.291999,45.5979981 121.928002,45.408 121.456,45.408 C120.895997,45.408 120.404002,45.7359967 119.98,46.392 L119.98,49.416 C120.148001,49.6800013 120.353999,49.8879992 120.598,50.04 C120.842001,50.1920008 121.099999,50.268 121.372,50.268 C121.860002,50.268 122.241999,50.070002 122.518,49.674 Z M129.76,51 L129.676,50.016 C129.435999,50.408002 129.160002,50.6939991 128.848,50.874 C128.535998,51.0540009 128.156002,51.144 127.708,51.144 C127.155997,51.144 126.724002,50.9760017 126.412,50.64 C126.099998,50.3039983 125.944,49.8280031 125.944,49.212 L125.944,44.676 L127.048,44.676 L127.048,49.092 C127.048,49.5240022 127.123999,49.8299991 127.276,50.01 C127.428001,50.1900009 127.675998,50.28 128.02,50.28 C128.636003,50.28 129.163998,49.9160036 129.604,49.188 L129.604,44.676 L130.708,44.676 L130.708,51 L129.76,51 Z M134.764,51.144 C134.227997,51.144 133.810001,50.9900015 133.51,50.682 C133.209998,50.3739985 133.06,49.9280029 133.06,49.344 L133.06,45.528 L131.956,45.528 L131.956,44.676 L133.06,44.676 L133.06,43.248 L134.164,43.116 L134.164,44.676 L135.664,44.676 L135.544,45.528 L134.164,45.528 L134.164,49.296 C134.164,49.6240016 134.221999,49.8619993 134.338,50.01 C134.454001,50.1580007 134.647999,50.232 134.92,50.232 C135.184001,50.232 135.463999,50.1400009 135.76,49.956 L136.18,50.712 C135.763998,51.0000014 135.292003,51.144 134.764,51.144 Z M139.096,51.144 C138.559997,51.144 138.142001,50.9900015 137.842,50.682 C137.541998,50.3739985 137.392,49.9280029 137.392,49.344 L137.392,45.528 L136.288,45.528 L136.288,44.676 L137.392,44.676 L137.392,43.248 L138.496,43.116 L138.496,44.676 L139.996,44.676 L139.876,45.528 L138.496,45.528 L138.496,49.296 C138.496,49.6240016 138.553999,49.8619993 138.67,50.01 C138.786001,50.1580007 138.979999,50.232 139.252,50.232 C139.516001,50.232 139.795999,50.1400009 140.092,49.956 L140.512,50.712 C140.095998,51.0000014 139.624003,51.144 139.096,51.144 Z M146.284,48.216 L142.252,48.216 C142.3,48.9120035 142.475998,49.4239984 142.78,49.752 C143.084002,50.0800016 143.475998,50.244 143.956,50.244 C144.260002,50.244 144.539999,50.2000004 144.796,50.112 C145.052001,50.0239996 145.319999,49.884001 145.6,49.692 L146.08,50.352 C145.407997,50.8800026 144.672004,51.144 143.872,51.144 C142.991996,51.144 142.306002,50.8560029 141.814,50.28 C141.321998,49.7039971 141.076,48.912005 141.076,47.904 C141.076,47.2479967 141.181999,46.6660025 141.394,46.158 C141.606001,45.6499975 141.909998,45.2520014 142.306,44.964 C142.702002,44.6759986 143.167997,44.532 143.704,44.532 C144.544004,44.532 145.187998,44.8079972 145.636,45.36 C146.084002,45.9120028 146.308,46.6759951 146.308,47.652 C146.308,47.8360009 146.3,48.023999 146.284,48.216 Z M145.216,47.328 C145.216,46.7039969 145.092001,46.2280016 144.844,45.9 C144.595999,45.5719984 144.224002,45.408 143.728,45.408 C142.823995,45.408 142.332,46.0719934 142.252,47.4 L145.216,47.4 L145.216,47.328 Z M151.504,44.604 L151.3,45.684 C151.107999,45.6359998 150.924001,45.612 150.748,45.612 C150.355998,45.612 150.040001,45.7559986 149.8,46.044 C149.559999,46.3320014 149.372001,46.779997 149.236,47.388 L149.236,51 L148.132,51 L148.132,44.676 L149.08,44.676 L149.188,45.96 C149.356001,45.4879976 149.583999,45.1320012 149.872,44.892 C150.160001,44.6519988 150.495998,44.532 150.88,44.532 C151.104001,44.532 151.311999,44.5559998 151.504,44.604 Z M157.672,51.144 C157.263998,51.144 156.952001,51.0260012 156.736,50.79 C156.519999,50.5539988 156.412,50.2080023 156.412,49.752 L156.412,43.092 C156.163999,43.0199996 155.936001,42.9680002 155.728,42.936 C155.519999,42.9039998 155.288001,42.888 155.032,42.888 C154.639998,42.888 154.366001,42.9599993 154.21,43.104 C154.053999,43.2480007 153.976,43.4799984 153.976,43.8 L153.976,44.676 L155.512,44.676 L155.392,45.528 L153.976,45.528 L153.976,51 L152.872,51 L152.872,45.528 L151.864,45.528 L151.864,44.676 L152.872,44.676 L152.872,43.812 C152.872,43.2599972 153.049998,42.8200016 153.406,42.492 C153.762002,42.1639984 154.279997,42 154.96,42 C155.232001,42 155.477999,42.0199998 155.698,42.06 C155.918001,42.1000002 156.155999,42.1599996 156.412,42.24 L156.412,42.228 L157.516,42.096 L157.516,49.728 C157.516,49.8960008 157.546,50.0219996 157.606,50.106 C157.666,50.1900004 157.767999,50.232 157.912,50.232 C158.064001,50.232 158.199999,50.2080002 158.32,50.16 L158.608,50.928 C158.311999,51.0720007 158.000002,51.144 157.672,51.144 Z M159.988,51 L159.988,44.676 L161.092,44.676 L161.092,51 L159.988,51 Z M161.092,41.856 C161.236001,42.0000007 161.308,42.1799989 161.308,42.396 C161.308,42.6120011 161.236001,42.7899993 161.092,42.93 C160.947999,43.0700007 160.760001,43.14 160.528,43.14 C160.303999,43.14 160.120001,43.0700007 159.976,42.93 C159.831999,42.7899993 159.76,42.6120011 159.76,42.396 C159.76,42.1799989 159.831999,42.0000007 159.976,41.856 C160.120001,41.7119993 160.303999,41.64 160.528,41.64 C160.760001,41.64 160.947999,41.7119993 161.092,41.856 Z M168.124,48.216 L164.092,48.216 C164.14,48.9120035 164.315998,49.4239984 164.62,49.752 C164.924002,50.0800016 165.315998,50.244 165.796,50.244 C166.100002,50.244 166.379999,50.2000004 166.636,50.112 C166.892001,50.0239996 167.159999,49.884001 167.44,49.692 L167.92,50.352 C167.247997,50.8800026 166.512004,51.144 165.712,51.144 C164.831996,51.144 164.146002,50.8560029 163.654,50.28 C163.161998,49.7039971 162.916,48.912005 162.916,47.904 C162.916,47.2479967 163.021999,46.6660025 163.234,46.158 C163.446001,45.6499975 163.749998,45.2520014 164.146,44.964 C164.542002,44.6759986 165.007997,44.532 165.544,44.532 C166.384004,44.532 167.027998,44.8079972 167.476,45.36 C167.924002,45.9120028 168.148,46.6759951 168.148,47.652 C168.148,47.8360009 168.14,48.023999 168.124,48.216 Z M167.056,47.328 C167.056,46.7039969 166.932001,46.2280016 166.684,45.9 C166.435999,45.5719984 166.064002,45.408 165.568,45.408 C164.663995,45.408 164.172,46.0719934 164.092,47.4 L167.056,47.4 L167.056,47.328 Z M172.852,44.712 C173.196002,44.8320006 173.523998,45.0119988 173.836,45.252 L173.356,45.984 C173.075999,45.783999 172.806001,45.6380005 172.546,45.546 C172.285999,45.4539995 172.012001,45.408 171.724,45.408 C171.363998,45.408 171.080001,45.4819993 170.872,45.63 C170.663999,45.7780007 170.56,45.9799987 170.56,46.236 C170.56,46.4920013 170.657999,46.6919993 170.854,46.836 C171.050001,46.9800007 171.403997,47.1199993 171.916,47.256 C172.620004,47.4320009 173.145998,47.6719985 173.494,47.976 C173.842002,48.2800015 174.016,48.6959974 174.016,49.224 C174.016,49.8480031 173.774002,50.3239984 173.29,50.652 C172.805998,50.9800016 172.216003,51.144 171.52,51.144 C170.559995,51.144 169.764003,50.8680028 169.132,50.316 L169.744,49.62 C170.240002,50.0440021 170.823997,50.256 171.496,50.256 C171.904002,50.256 172.231999,50.1720008 172.48,50.004 C172.728001,49.8359992 172.852,49.6120014 172.852,49.332 C172.852,49.1079989 172.808,48.9260007 172.72,48.786 C172.632,48.6459993 172.482001,48.5260005 172.27,48.426 C172.057999,48.3259995 171.740002,48.2200006 171.316,48.108 C170.643997,47.9319991 170.158001,47.6940015 169.858,47.394 C169.557998,47.0939985 169.408,46.7160023 169.408,46.26 C169.408,45.9319984 169.505999,45.6360013 169.702,45.372 C169.898001,45.1079987 170.169998,44.9020007 170.518,44.754 C170.866002,44.6059993 171.255998,44.532 171.688,44.532 C172.120002,44.532 172.507998,44.5919994 172.852,44.712 Z" id="Endemic-species-of-b" fill="#212121"></path>
            <g id="Rectangle-6">
                <use fill-opacity="0.7" fill="#EDF8FB" fill-rule="evenodd" xlink:href="#path-1"></use>
                <rect stroke="#006D2C" stroke-width="1" x="10.5" y="25.5" width="60" height="9"></rect>
            </g>
            <g id="Rectangle-6">
                <use fill-opacity="0.7" fill="#66C2A4" fill-rule="evenodd" xlink:href="#path-2"></use>
                <path stroke="#006D2C" stroke-width="1" d="M190.5,25.5 L190.5,34.5 L249.5,34.5 L249.5,25.5 L190.5,25.5 Z"></path>
            </g>
            <g id="Rectangle-6-Copy">
                <use fill-opacity="0.7" fill="#2CA25F" fill-rule="evenodd" xlink:href="#path-3"></use>
                <path stroke="#006D2C" stroke-width="1" d="M249.5,25.5 L249.5,34.5 L308.5,34.5 L308.5,25.5 L249.5,25.5 Z"></path>
            </g>
            <g id="Rectangle-6-Copy-2">
                <use fill-opacity="0.7" fill="#006D2C" fill-rule="evenodd" xlink:href="#path-4"></use>
                <path stroke="#006D2C" stroke-width="1" d="M308.5,25.5 L308.5,34.5 L367.5,34.5 L367.5,25.5 L308.5,25.5 Z"></path>
            </g>
            <g id="Rectangle-6">
                <use fill-opacity="0.7" fill="#99D8C9" fill-rule="evenodd" xlink:href="#path-5"></use>
                <rect stroke="#006D2C" stroke-width="1" x="130.5" y="25.5" width="60" height="9"></rect>
            </g>
            <g id="Rectangle-6">
                <use fill-opacity="0.7" fill="#CCECE6" fill-rule="evenodd" xlink:href="#path-6"></use>
                <rect stroke="#006D2C" stroke-width="1" x="70.5" y="25.5" width="60" height="9"></rect>
            </g>
        </g>
    </g>
</svg>