<?xml version="1.0" encoding="UTF-8" standalone="no"?>
<svg width="260px" height="64px" viewBox="0 0 260 64" version="1.1" xmlns="http://www.w3.org/2000/svg" xmlns:xlink="http://www.w3.org/1999/xlink">
    <!-- Generator: Sketch 47.1 (45422) - http://www.bohemiancoding.com/sketch -->
    <title>infograph/legend_map-butterfly2</title>
    <desc>Created with Sketch.</desc>
    <defs>
        <rect id="path-1" x="10" y="25" width="61" height="10"></rect>
        <polygon id="path-2" points="190 25 232.628906 25 250 25 250 35 190 35"></polygon>
        <rect id="path-3" x="130" y="25" width="61" height="10"></rect>
        <rect id="path-4" x="70" y="25" width="61" height="10"></rect>
    </defs>
    <g id="Symbols" stroke="none" stroke-width="1" fill="none" fill-rule="evenodd">
        <g id="infograph/legend_map-butterfly2">
            <rect id="Rectangle-2" fill-opacity="0.5" fill="#FFFFFF" x="0" y="0" width="260" height="64" rx="4"></rect>
            <polygon id="1" fill="#212121" points="40.048 19 40.048 12.472 38.248 13.564 37.576 12.532 40.204 10.924 41.56 10.924 41.56 19"></polygon>
            <polygon id="4" fill="#212121" points="222.028 17.152 222.028 19 220.528 19 220.528 17.152 217.096 17.152 217.096 16.096 219.448 10.768 220.756 11.26 218.692 15.976 220.54 15.976 220.696 13.948 222.028 13.948 222.028 15.976 223 15.976 223 17.152"></polygon>
            <path d="M161.11,11.056 C161.498002,11.2400009 161.789999,11.4879984 161.986,11.8 C162.182001,12.1120016 162.28,12.4559981 162.28,12.832 C162.28,13.3200024 162.140001,13.7259984 161.86,14.05 C161.579999,14.3740016 161.196002,14.5999994 160.708,14.728 C161.244003,14.7760002 161.683998,14.9679983 162.028,15.304 C162.372002,15.6400017 162.544,16.103997 162.544,16.696 C162.544,17.1600023 162.426001,17.5799981 162.19,17.956 C161.953999,18.3320019 161.616002,18.6299989 161.176,18.85 C160.735998,19.0700011 160.216003,19.18 159.616,19.18 C158.511994,19.18 157.640003,18.7920039 157,18.016 L157.876,17.188 C158.116001,17.4600014 158.371999,17.6599994 158.644,17.788 C158.916001,17.9160006 159.211998,17.98 159.532,17.98 C159.964002,17.98 160.309999,17.8580012 160.57,17.614 C160.830001,17.3699988 160.96,17.0400021 160.96,16.624 C160.96,16.1599977 160.838001,15.828001 160.594,15.628 C160.349999,15.427999 159.988002,15.328 159.508,15.328 L158.872,15.328 L159.052,14.236 L159.484,14.236 C159.876002,14.236 160.189999,14.1280011 160.426,13.912 C160.662001,13.6959989 160.78,13.3960019 160.78,13.012 C160.78,12.6839984 160.672001,12.4260009 160.456,12.238 C160.239999,12.0499991 159.952002,11.956 159.592,11.956 C159.279998,11.956 158.996001,12.0139994 158.74,12.13 C158.483999,12.2460006 158.228001,12.4239988 157.972,12.664 L157.192,11.812 C157.920004,11.1239966 158.763995,10.78 159.724,10.78 C160.260003,10.78 160.721998,10.8719991 161.11,11.056 Z" id="3" fill="#212121"></path>
            <path d="M101.164,11.08 C101.560002,11.280001 101.861999,11.5519983 102.07,11.896 C102.278001,12.2400017 102.382,12.6239979 102.382,13.048 C102.382,13.5040023 102.284001,13.9419979 102.088,14.362 C101.891999,14.7820021 101.566002,15.2479974 101.11,15.76 C100.653998,16.2720026 99.9860044,16.9479958 99.106,17.788 L102.562,17.788 L102.394,19 L97.366,19 L97.366,17.872 C98.3900051,16.8319948 99.1239978,16.0620025 99.568,15.562 C100.012002,15.0619975 100.327999,14.6340018 100.516,14.278 C100.704001,13.9219982 100.798,13.5520019 100.798,13.168 C100.798,12.7999982 100.692001,12.512001 100.48,12.304 C100.267999,12.095999 99.9860018,11.992 99.634,11.992 C99.3219984,11.992 99.0500012,12.0579993 98.818,12.19 C98.5859988,12.3220007 98.3420013,12.5399985 98.086,12.844 L97.138,12.1 C97.8180034,11.2199956 98.6899947,10.78 99.754,10.78 C100.298003,10.78 100.767998,10.879999 101.164,11.08 Z" id="2" fill="#212121"></path>
            <path d="M14.656,42.822 C15.048002,42.9780008 15.4279982,43.2199984 15.796,43.548 L15.148,44.268 C14.8519985,44.0039987 14.5540015,43.8140006 14.254,43.698 C13.9539985,43.5819994 13.6320017,43.524 13.288,43.524 C12.8559978,43.524 12.5000014,43.623999 12.22,43.824 C11.9399986,44.024001 11.8,44.3159981 11.8,44.7 C11.8,44.9400012 11.8479995,45.1419992 11.944,45.306 C12.0400005,45.4700008 12.2179987,45.6199993 12.478,45.756 C12.7380013,45.8920007 13.1159975,46.0359992 13.612,46.188 C14.1320026,46.3480008 14.5639983,46.5199991 14.908,46.704 C15.2520017,46.8880009 15.5299989,47.1419984 15.742,47.466 C15.9540011,47.7900016 16.06,48.1999975 16.06,48.696 C16.06,49.1760024 15.9420012,49.5999982 15.706,49.968 C15.4699988,50.3360018 15.1300022,50.623999 14.686,50.832 C14.2419978,51.040001 13.716003,51.144 13.108,51.144 C11.9639943,51.144 11.0280036,50.7880036 10.3,50.076 L10.96,49.344 C11.560003,49.9200029 12.2719959,50.208 13.096,50.208 C13.6080026,50.208 14.0319983,50.0820013 14.368,49.83 C14.7040017,49.5779987 14.872,49.2120024 14.872,48.732 C14.872,48.4599986 14.8200005,48.2340009 14.716,48.054 C14.6119995,47.8739991 14.4340013,47.7120007 14.182,47.568 C13.9299987,47.4239993 13.5640024,47.2800007 13.084,47.136 C12.2359958,46.8799987 11.616002,46.5720018 11.224,46.212 C10.831998,45.8519982 10.636,45.3640031 10.636,44.748 C10.636,44.3319979 10.7459989,43.9600016 10.966,43.632 C11.1860011,43.3039984 11.493998,43.0480009 11.89,42.864 C12.286002,42.6799991 12.7359975,42.588 13.24,42.588 C13.7920028,42.588 14.263998,42.6659992 14.656,42.822 Z M22.36,45.396 C22.7360019,45.9720029 22.924,46.7839948 22.924,47.832 C22.924,48.824005 22.7080022,49.623997 22.276,50.232 C21.8439978,50.840003 21.232004,51.144 20.44,51.144 C19.7359965,51.144 19.184002,50.9040024 18.784,50.424 L18.784,53.424 L17.68,53.556 L17.68,44.676 L18.628,44.676 L18.712,45.528 C18.9440012,45.2079984 19.2239984,44.9620009 19.552,44.79 C19.8800016,44.6179991 20.2239982,44.532 20.584,44.532 C21.392004,44.532 21.9839981,44.8199971 22.36,45.396 Z M21.736,47.832 C21.736,46.2159919 21.2600048,45.408 20.308,45.408 C19.9959984,45.408 19.7120013,45.4999991 19.456,45.684 C19.1999987,45.8680009 18.976001,46.1039986 18.784,46.392 L18.784,49.476 C18.9440008,49.7240012 19.1439988,49.9139993 19.384,50.046 C19.6240012,50.1780007 19.8879986,50.244 20.176,50.244 C21.2160052,50.244 21.736,49.440008 21.736,47.832 Z M29.56,48.216 L25.528,48.216 C25.5760002,48.9120035 25.7519985,49.4239984 26.056,49.752 C26.3600015,50.0800016 26.7519976,50.244 27.232,50.244 C27.5360015,50.244 27.8159987,50.2000004 28.072,50.112 C28.3280013,50.0239996 28.5959986,49.884001 28.876,49.692 L29.356,50.352 C28.6839966,50.8800026 27.948004,51.144 27.148,51.144 C26.2679956,51.144 25.5820025,50.8560029 25.09,50.28 C24.5979975,49.7039971 24.352,48.912005 24.352,47.904 C24.352,47.2479967 24.4579989,46.6660025 24.67,46.158 C24.8820011,45.6499975 25.185998,45.2520014 25.582,44.964 C25.978002,44.6759986 26.4439973,44.532 26.98,44.532 C27.8200042,44.532 28.4639978,44.8079972 28.912,45.36 C29.3600022,45.9120028 29.584,46.6759951 29.584,47.652 C29.584,47.8360009 29.5760001,48.023999 29.56,48.216 Z M28.492,47.328 C28.492,46.7039969 28.3680012,46.2280016 28.12,45.9 C27.8719988,45.5719984 27.5000025,45.408 27.004,45.408 C26.0999955,45.408 25.6080004,46.0719934 25.528,47.4 L28.492,47.4 L28.492,47.328 Z M34.744,44.694 C35.0560016,44.8020005 35.3559986,44.9759988 35.644,45.216 L35.104,45.936 C34.8879989,45.7679992 34.676001,45.6440004 34.468,45.564 C34.259999,45.4839996 34.0240013,45.444 33.76,45.444 C33.2479974,45.444 32.8500014,45.647998 32.566,46.056 C32.2819986,46.464002 32.14,47.067996 32.14,47.868 C32.14,48.668004 32.2799986,49.2579981 32.56,49.638 C32.8400014,50.0180019 33.2399974,50.208 33.76,50.208 C34.0160013,50.208 34.245999,50.1680004 34.45,50.088 C34.654001,50.0079996 34.8759988,49.8760009 35.116,49.692 L35.644,50.448 C35.0679971,50.9120023 34.4240036,51.144 33.712,51.144 C32.8559957,51.144 32.1820025,50.8560029 31.69,50.28 C31.1979975,49.7039971 30.952,48.9080051 30.952,47.892 C30.952,47.2199966 31.0639989,46.6320025 31.288,46.128 C31.5120011,45.6239975 31.8299979,45.2320014 32.242,44.952 C32.6540021,44.6719986 33.1439972,44.532 33.712,44.532 C34.0880019,44.532 34.4319984,44.5859995 34.744,44.694 Z M37.144,51 L37.144,44.676 L38.248,44.676 L38.248,51 L37.144,51 Z M38.248,41.856 C38.3920007,42.0000007 38.464,42.1799989 38.464,42.396 C38.464,42.6120011 38.3920007,42.7899993 38.248,42.93 C38.1039993,43.0700007 37.9160012,43.14 37.684,43.14 C37.4599989,43.14 37.2760007,43.0700007 37.132,42.93 C36.9879993,42.7899993 36.916,42.6120011 36.916,42.396 C36.916,42.1799989 36.9879993,42.0000007 37.132,41.856 C37.2760007,41.7119993 37.4599989,41.64 37.684,41.64 C37.9160012,41.64 38.1039993,41.7119993 38.248,41.856 Z M45.28,48.216 L41.248,48.216 C41.2960002,48.9120035 41.4719985,49.4239984 41.776,49.752 C42.0800015,50.0800016 42.4719976,50.244 42.952,50.244 C43.2560015,50.244 43.5359987,50.2000004 43.792,50.112 C44.0480013,50.0239996 44.3159986,49.884001 44.596,49.692 L45.076,50.352 C44.4039966,50.8800026 43.668004,51.144 42.868,51.144 C41.9879956,51.144 41.3020025,50.8560029 40.81,50.28 C40.3179975,49.7039971 40.072,48.912005 40.072,47.904 C40.072,47.2479967 40.1779989,46.6660025 40.39,46.158 C40.6020011,45.6499975 40.905998,45.2520014 41.302,44.964 C41.698002,44.6759986 42.1639973,44.532 42.7,44.532 C43.5400042,44.532 44.1839978,44.8079972 44.632,45.36 C45.0800022,45.9120028 45.304,46.6759951 45.304,47.652 C45.304,47.8360009 45.2960001,48.023999 45.28,48.216 Z M44.212,47.328 C44.212,46.7039969 44.0880012,46.2280016 43.84,45.9 C43.5919988,45.5719984 43.2200025,45.408 42.724,45.408 C41.8199955,45.408 41.3280004,46.0719934 41.248,47.4 L44.212,47.4 L44.212,47.328 Z M50.008,44.712 C50.3520017,44.8320006 50.6799984,45.0119988 50.992,45.252 L50.512,45.984 C50.2319986,45.783999 49.9620013,45.6380005 49.702,45.546 C49.4419987,45.4539995 49.1680014,45.408 48.88,45.408 C48.5199982,45.408 48.236001,45.4819993 48.028,45.63 C47.819999,45.7780007 47.716,45.9799987 47.716,46.236 C47.716,46.4920013 47.813999,46.6919993 48.01,46.836 C48.206001,46.9800007 48.5599974,47.1199993 49.072,47.256 C49.7760035,47.4320009 50.3019983,47.6719985 50.65,47.976 C50.9980017,48.2800015 51.172,48.6959974 51.172,49.224 C51.172,49.8480031 50.9300024,50.3239984 50.446,50.652 C49.9619976,50.9800016 49.3720035,51.144 48.676,51.144 C47.7159952,51.144 46.9200032,50.8680028 46.288,50.316 L46.9,49.62 C47.3960025,50.0440021 47.9799966,50.256 48.652,50.256 C49.060002,50.256 49.3879988,50.1720008 49.636,50.004 C49.8840012,49.8359992 50.008,49.6120014 50.008,49.332 C50.008,49.1079989 49.9640004,48.9260007 49.876,48.786 C49.7879996,48.6459993 49.6380011,48.5260005 49.426,48.426 C49.2139989,48.3259995 48.8960021,48.2200006 48.472,48.108 C47.7999966,47.9319991 47.3140015,47.6940015 47.014,47.394 C46.7139985,47.0939985 46.564,46.7160023 46.564,46.26 C46.564,45.9319984 46.661999,45.6360013 46.858,45.372 C47.054001,45.1079987 47.3259983,44.9020007 47.674,44.754 C48.0220017,44.6059993 48.4119978,44.532 48.844,44.532 C49.2760022,44.532 49.6639983,44.5919994 50.008,44.712 Z M57.688,51.144 C57.1519973,51.144 56.7340015,50.9900015 56.434,50.682 C56.1339985,50.3739985 55.984,49.9280029 55.984,49.344 L55.984,45.528 L54.88,45.528 L54.88,44.676 L55.984,44.676 L55.984,43.248 L57.088,43.116 L57.088,44.676 L58.588,44.676 L58.468,45.528 L57.088,45.528 L57.088,49.296 C57.088,49.6240016 57.1459994,49.8619993 57.262,50.01 C57.3780006,50.1580007 57.5719986,50.232 57.844,50.232 C58.1080013,50.232 58.3879985,50.1400009 58.684,49.956 L59.104,50.712 C58.6879979,51.0000014 58.2160026,51.144 57.688,51.144 Z M64.57,45.048 C64.8940016,45.3920017 65.056,45.863997 65.056,46.464 L65.056,51 L63.952,51 L63.952,46.62 C63.952,46.1719978 63.8660009,45.8560009 63.694,45.672 C63.5219991,45.4879991 63.2720016,45.396 62.944,45.396 C62.6159984,45.396 62.3240013,45.491999 62.068,45.684 C61.8119987,45.876001 61.5720011,46.1479982 61.348,46.5 L61.348,51 L60.244,51 L60.244,42.144 L61.348,42.024 L61.348,45.552 C61.8440025,44.8719966 62.4679962,44.532 63.22,44.532 C63.7960029,44.532 64.2459984,44.7039983 64.57,45.048 Z M70.648,44.604 L70.444,45.684 C70.251999,45.6359998 70.0680009,45.612 69.892,45.612 C69.499998,45.612 69.1840012,45.7559986 68.944,46.044 C68.7039988,46.3320014 68.5160007,46.779997 68.38,47.388 L68.38,51 L67.276,51 L67.276,44.676 L68.224,44.676 L68.332,45.96 C68.5000008,45.4879976 68.7279986,45.1320012 69.016,44.892 C69.3040014,44.6519988 69.6399981,44.532 70.024,44.532 C70.2480011,44.532 70.455999,44.5559998 70.648,44.604 Z M76.54,48.216 L72.508,48.216 C72.5560002,48.9120035 72.7319985,49.4239984 73.036,49.752 C73.3400015,50.0800016 73.7319976,50.244 74.212,50.244 C74.5160015,50.244 74.7959987,50.2000004 75.052,50.112 C75.3080013,50.0239996 75.5759986,49.884001 75.856,49.692 L76.336,50.352 C75.6639966,50.8800026 74.928004,51.144 74.128,51.144 C73.2479956,51.144 72.5620025,50.8560029 72.07,50.28 C71.5779975,49.7039971 71.332,48.912005 71.332,47.904 C71.332,47.2479967 71.4379989,46.6660025 71.65,46.158 C71.8620011,45.6499975 72.165998,45.2520014 72.562,44.964 C72.958002,44.6759986 73.4239973,44.532 73.96,44.532 C74.8000042,44.532 75.4439978,44.8079972 75.892,45.36 C76.3400022,45.9120028 76.564,46.6759951 76.564,47.652 C76.564,47.8360009 76.5560001,48.023999 76.54,48.216 Z M75.472,47.328 C75.472,46.7039969 75.3480012,46.2280016 75.1,45.9 C74.8519988,45.5719984 74.4800025,45.408 73.984,45.408 C73.0799955,45.408 72.5880004,46.0719934 72.508,47.4 L75.472,47.4 L75.472,47.328 Z M82.78,50.094 C82.8680004,50.2180006 82.9999991,50.3119997 83.176,50.376 L82.924,51.144 C82.5959984,51.1039998 82.332001,51.0120007 82.132,50.868 C81.931999,50.7239993 81.7840005,50.5000015 81.688,50.196 C81.2639979,50.8280032 80.6360042,51.144 79.804,51.144 C79.1799969,51.144 78.6880018,50.9680018 78.328,50.616 C77.9679982,50.2639982 77.788,49.8040028 77.788,49.236 C77.788,48.5639966 78.0299976,48.0480018 78.514,47.688 C78.9980024,47.3279982 79.6839956,47.148 80.572,47.148 L81.544,47.148 L81.544,46.68 C81.544,46.2319978 81.4360011,45.912001 81.22,45.72 C81.0039989,45.527999 80.6720022,45.432 80.224,45.432 C79.7599977,45.432 79.1920034,45.5439989 78.52,45.768 L78.244,44.964 C79.0280039,44.6759986 79.7559966,44.532 80.428,44.532 C81.1720037,44.532 81.7279982,44.7139982 82.096,45.078 C82.4640018,45.4420018 82.648,45.9599966 82.648,46.632 L82.648,49.524 C82.648,49.7800013 82.6919996,49.9699994 82.78,50.094 Z M81.544,49.332 L81.544,47.88 L80.716,47.88 C79.5479942,47.88 78.964,48.3119957 78.964,49.176 C78.964,49.5520019 79.0559991,49.835999 79.24,50.028 C79.4240009,50.220001 79.6959982,50.316 80.056,50.316 C80.6880032,50.316 81.1839982,49.9880033 81.544,49.332 Z M86.692,51.144 C86.1559973,51.144 85.7380015,50.9900015 85.438,50.682 C85.1379985,50.3739985 84.988,49.9280029 84.988,49.344 L84.988,45.528 L83.884,45.528 L83.884,44.676 L84.988,44.676 L84.988,43.248 L86.092,43.116 L86.092,44.676 L87.592,44.676 L87.472,45.528 L86.092,45.528 L86.092,49.296 C86.092,49.6240016 86.1499994,49.8619993 86.266,50.01 C86.3820006,50.1580007 86.5759986,50.232 86.848,50.232 C87.1120013,50.232 87.3919985,50.1400009 87.688,49.956 L88.108,50.712 C87.6919979,51.0000014 87.2200026,51.144 86.692,51.144 Z M93.88,48.216 L89.848,48.216 C89.8960002,48.9120035 90.0719985,49.4239984 90.376,49.752 C90.6800015,50.0800016 91.0719976,50.244 91.552,50.244 C91.8560015,50.244 92.1359987,50.2000004 92.392,50.112 C92.6480013,50.0239996 92.9159986,49.884001 93.196,49.692 L93.676,50.352 C93.0039966,50.8800026 92.268004,51.144 91.468,51.144 C90.5879956,51.144 89.9020025,50.8560029 89.41,50.28 C88.9179975,49.7039971 88.672,48.912005 88.672,47.904 C88.672,47.2479967 88.7779989,46.6660025 88.99,46.158 C89.2020011,45.6499975 89.505998,45.2520014 89.902,44.964 C90.298002,44.6759986 90.7639973,44.532 91.3,44.532 C92.1400042,44.532 92.7839978,44.8079972 93.232,45.36 C93.6800022,45.9120028 93.904,46.6759951 93.904,47.652 C93.904,47.8360009 93.8960001,48.023999 93.88,48.216 Z M92.812,47.328 C92.812,46.7039969 92.6880012,46.2280016 92.44,45.9 C92.1919988,45.5719984 91.8200025,45.408 91.324,45.408 C90.4199955,45.408 89.9280004,46.0719934 89.848,47.4 L92.812,47.4 L92.812,47.328 Z M100.054,45.048 C100.378002,45.3920017 100.54,45.863997 100.54,46.464 L100.54,51 L99.436,51 L99.436,46.62 C99.436,46.1719978 99.3520008,45.8560009 99.184,45.672 C99.0159992,45.4879991 98.7680016,45.396 98.44,45.396 C98.1039983,45.396 97.8080013,45.491999 97.552,45.684 C97.2959987,45.876001 97.0560011,46.1519982 96.832,46.512 L96.832,51 L95.728,51 L95.728,44.676 L96.676,44.676 L96.772,45.612 C96.9960011,45.2759983 97.2739983,45.012001 97.606,44.82 C97.9380017,44.627999 98.303998,44.532 98.704,44.532 C99.2800029,44.532 99.7299984,44.7039983 100.054,45.048 Z M107.512,48.216 L103.48,48.216 C103.528,48.9120035 103.703998,49.4239984 104.008,49.752 C104.312002,50.0800016 104.703998,50.244 105.184,50.244 C105.488002,50.244 105.767999,50.2000004 106.024,50.112 C106.280001,50.0239996 106.547999,49.884001 106.828,49.692 L107.308,50.352 C106.635997,50.8800026 105.900004,51.144 105.1,51.144 C104.219996,51.144 103.534002,50.8560029 103.042,50.28 C102.549998,49.7039971 102.304,48.912005 102.304,47.904 C102.304,47.2479967 102.409999,46.6660025 102.622,46.158 C102.834001,45.6499975 103.137998,45.2520014 103.534,44.964 C103.930002,44.6759986 104.395997,44.532 104.932,44.532 C105.772004,44.532 106.415998,44.8079972 106.864,45.36 C107.312002,45.9120028 107.536,46.6759951 107.536,47.652 C107.536,47.8360009 107.528,48.023999 107.512,48.216 Z M106.444,47.328 C106.444,46.7039969 106.320001,46.2280016 106.072,45.9 C105.823999,45.5719984 105.452002,45.408 104.956,45.408 C104.051995,45.408 103.56,46.0719934 103.48,47.4 L106.444,47.4 L106.444,47.328 Z M114.256,51 L113.284,51 L113.176,50.124 C112.967999,50.4440016 112.708002,50.6939991 112.396,50.874 C112.083998,51.0540009 111.736002,51.144 111.352,51.144 C110.599996,51.144 110.014002,50.848003 109.594,50.256 C109.173998,49.663997 108.964,48.868005 108.964,47.868 C108.964,47.2199968 109.063999,46.6440025 109.264,46.14 C109.464001,45.6359975 109.751998,45.2420014 110.128,44.958 C110.504002,44.6739986 110.943997,44.532 111.448,44.532 C112.096003,44.532 112.663998,44.7919974 113.152,45.312 L113.152,42 L114.256,42.132 L114.256,51 Z M112.456,50.034 C112.696001,49.8779992 112.927999,49.6440016 113.152,49.332 L113.152,46.236 C112.943999,45.9639986 112.722001,45.7580007 112.486,45.618 C112.249999,45.4779993 111.984001,45.408 111.688,45.408 C111.199998,45.408 110.822001,45.611998 110.554,46.02 C110.285999,46.428002 110.152,47.035996 110.152,47.844 C110.152,48.6600041 110.275999,49.267998 110.524,49.668 C110.772001,50.068002 111.127998,50.268 111.592,50.268 C111.928002,50.268 112.215999,50.1900008 112.456,50.034 Z M124.162,45.42 C124.654002,46.012003 124.9,46.8159949 124.9,47.832 C124.9,48.4880033 124.788001,49.0659975 124.564,49.566 C124.339999,50.0660025 124.016002,50.4539986 123.592,50.73 C123.167998,51.0060014 122.664003,51.144 122.08,51.144 C121.191996,51.144 120.500002,50.848003 120.004,50.256 C119.507998,49.663997 119.26,48.8600051 119.26,47.844 C119.26,47.1879967 119.371999,46.6100025 119.596,46.11 C119.820001,45.6099975 120.143998,45.2220014 120.568,44.946 C120.992002,44.6699986 121.499997,44.532 122.092,44.532 C122.980004,44.532 123.669998,44.827997 124.162,45.42 Z M120.448,47.844 C120.448,49.452008 120.991995,50.256 122.08,50.256 C123.168005,50.256 123.712,49.4480081 123.712,47.832 C123.712,46.223992 123.172005,45.42 122.092,45.42 C120.995995,45.42 120.448,46.2279919 120.448,47.844 Z M128.152,43.11 C128.007999,43.2580007 127.936,43.4879984 127.936,43.8 L127.936,44.676 L129.472,44.676 L129.352,45.528 L127.936,45.528 L127.936,51 L126.832,51 L126.832,45.528 L125.704,45.528 L125.704,44.676 L126.832,44.676 L126.832,43.812 C126.832,43.2679973 127.005998,42.8300017 127.354,42.498 C127.702002,42.1659983 128.187997,42 128.812,42 C129.100001,42 129.357999,42.0259997 129.586,42.078 C129.814001,42.1300003 130.059999,42.2119994 130.324,42.324 L129.976,43.128 C129.615998,42.9679992 129.248002,42.888 128.872,42.888 C128.535998,42.888 128.296001,42.9619993 128.152,43.11 Z M138.532,45.402 C138.956002,45.9820029 139.168,46.7919948 139.168,47.832 C139.168,48.4880033 139.068001,49.0659975 138.868,49.566 C138.667999,50.0660025 138.380002,50.4539986 138.004,50.73 C137.627998,51.0060014 137.188003,51.144 136.684,51.144 C136.019997,51.144 135.460002,50.8640028 135.004,50.304 L134.896,51 L133.924,51 L133.924,42.132 L135.028,42 L135.028,45.468 C135.484002,44.8439969 136.079996,44.532 136.816,44.532 C137.536004,44.532 138.107998,44.8219971 138.532,45.402 Z M137.566,49.674 C137.842001,49.277998 137.98,48.6640042 137.98,47.832 C137.98,46.9759957 137.852001,46.3580019 137.596,45.978 C137.339999,45.5979981 136.976002,45.408 136.504,45.408 C135.943997,45.408 135.452002,45.7359967 135.028,46.392 L135.028,49.416 C135.196001,49.6800013 135.401999,49.8879992 135.646,50.04 C135.890001,50.1920008 136.147999,50.268 136.42,50.268 C136.908002,50.268 137.289999,50.070002 137.566,49.674 Z M144.808,51 L144.724,50.016 C144.483999,50.408002 144.208002,50.6939991 143.896,50.874 C143.583998,51.0540009 143.204002,51.144 142.756,51.144 C142.203997,51.144 141.772002,50.9760017 141.46,50.64 C141.147998,50.3039983 140.992,49.8280031 140.992,49.212 L140.992,44.676 L142.096,44.676 L142.096,49.092 C142.096,49.5240022 142.171999,49.8299991 142.324,50.01 C142.476001,50.1900009 142.723998,50.28 143.068,50.28 C143.684003,50.28 144.211998,49.9160036 144.652,49.188 L144.652,44.676 L145.756,44.676 L145.756,51 L144.808,51 Z M149.812,51.144 C149.275997,51.144 148.858001,50.9900015 148.558,50.682 C148.257998,50.3739985 148.108,49.9280029 148.108,49.344 L148.108,45.528 L147.004,45.528 L147.004,44.676 L148.108,44.676 L148.108,43.248 L149.212,43.116 L149.212,44.676 L150.712,44.676 L150.592,45.528 L149.212,45.528 L149.212,49.296 C149.212,49.6240016 149.269999,49.8619993 149.386,50.01 C149.502001,50.1580007 149.695999,50.232 149.968,50.232 C150.232001,50.232 150.511999,50.1400009 150.808,49.956 L151.228,50.712 C150.811998,51.0000014 150.340003,51.144 149.812,51.144 Z M154.144,51.144 C153.607997,51.144 153.190001,50.9900015 152.89,50.682 C152.589998,50.3739985 152.44,49.9280029 152.44,49.344 L152.44,45.528 L151.336,45.528 L151.336,44.676 L152.44,44.676 L152.44,43.248 L153.544,43.116 L153.544,44.676 L155.044,44.676 L154.924,45.528 L153.544,45.528 L153.544,49.296 C153.544,49.6240016 153.601999,49.8619993 153.718,50.01 C153.834001,50.1580007 154.027999,50.232 154.3,50.232 C154.564001,50.232 154.843999,50.1400009 155.14,49.956 L155.56,50.712 C155.143998,51.0000014 154.672003,51.144 154.144,51.144 Z M161.332,48.216 L157.3,48.216 C157.348,48.9120035 157.523998,49.4239984 157.828,49.752 C158.132002,50.0800016 158.523998,50.244 159.004,50.244 C159.308002,50.244 159.587999,50.2000004 159.844,50.112 C160.100001,50.0239996 160.367999,49.884001 160.648,49.692 L161.128,50.352 C160.455997,50.8800026 159.720004,51.144 158.92,51.144 C158.039996,51.144 157.354002,50.8560029 156.862,50.28 C156.369998,49.7039971 156.124,48.912005 156.124,47.904 C156.124,47.2479967 156.229999,46.6660025 156.442,46.158 C156.654001,45.6499975 156.957998,45.2520014 157.354,44.964 C157.750002,44.6759986 158.215997,44.532 158.752,44.532 C159.592004,44.532 160.235998,44.8079972 160.684,45.36 C161.132002,45.9120028 161.356,46.6759951 161.356,47.652 C161.356,47.8360009 161.348,48.023999 161.332,48.216 Z M160.264,47.328 C160.264,46.7039969 160.140001,46.2280016 159.892,45.9 C159.643999,45.5719984 159.272002,45.408 158.776,45.408 C157.871995,45.408 157.38,46.0719934 157.3,47.4 L160.264,47.4 L160.264,47.328 Z M166.552,44.604 L166.348,45.684 C166.155999,45.6359998 165.972001,45.612 165.796,45.612 C165.403998,45.612 165.088001,45.7559986 164.848,46.044 C164.607999,46.3320014 164.420001,46.779997 164.284,47.388 L164.284,51 L163.18,51 L163.18,44.676 L164.128,44.676 L164.236,45.96 C164.404001,45.4879976 164.631999,45.1320012 164.92,44.892 C165.208001,44.6519988 165.543998,44.532 165.928,44.532 C166.152001,44.532 166.359999,44.5559998 166.552,44.604 Z M172.72,51.144 C172.311998,51.144 172.000001,51.0260012 171.784,50.79 C171.567999,50.5539988 171.46,50.2080023 171.46,49.752 L171.46,43.092 C171.211999,43.0199996 170.984001,42.9680002 170.776,42.936 C170.567999,42.9039998 170.336001,42.888 170.08,42.888 C169.687998,42.888 169.414001,42.9599993 169.258,43.104 C169.101999,43.2480007 169.024,43.4799984 169.024,43.8 L169.024,44.676 L170.56,44.676 L170.44,45.528 L169.024,45.528 L169.024,51 L167.92,51 L167.92,45.528 L166.912,45.528 L166.912,44.676 L167.92,44.676 L167.92,43.812 C167.92,43.2599972 168.097998,42.8200016 168.454,42.492 C168.810002,42.1639984 169.327997,42 170.008,42 C170.280001,42 170.525999,42.0199998 170.746,42.06 C170.966001,42.1000002 171.203999,42.1599996 171.46,42.24 L171.46,42.228 L172.564,42.096 L172.564,49.728 C172.564,49.8960008 172.594,50.0219996 172.654,50.106 C172.714,50.1900004 172.815999,50.232 172.96,50.232 C173.112001,50.232 173.247999,50.2080002 173.368,50.16 L173.656,50.928 C173.359999,51.0720007 173.048002,51.144 172.72,51.144 Z M175.036,51 L175.036,44.676 L176.14,44.676 L176.14,51 L175.036,51 Z M176.14,41.856 C176.284001,42.0000007 176.356,42.1799989 176.356,42.396 C176.356,42.6120011 176.284001,42.7899993 176.14,42.93 C175.995999,43.0700007 175.808001,43.14 175.576,43.14 C175.351999,43.14 175.168001,43.0700007 175.024,42.93 C174.879999,42.7899993 174.808,42.6120011 174.808,42.396 C174.808,42.1799989 174.879999,42.0000007 175.024,41.856 C175.168001,41.7119993 175.351999,41.64 175.576,41.64 C175.808001,41.64 175.995999,41.7119993 176.14,41.856 Z M183.172,48.216 L179.14,48.216 C179.188,48.9120035 179.363998,49.4239984 179.668,49.752 C179.972002,50.0800016 180.363998,50.244 180.844,50.244 C181.148002,50.244 181.427999,50.2000004 181.684,50.112 C181.940001,50.0239996 182.207999,49.884001 182.488,49.692 L182.968,50.352 C182.295997,50.8800026 181.560004,51.144 180.76,51.144 C179.879996,51.144 179.194002,50.8560029 178.702,50.28 C178.209998,49.7039971 177.964,48.912005 177.964,47.904 C177.964,47.2479967 178.069999,46.6660025 178.282,46.158 C178.494001,45.6499975 178.797998,45.2520014 179.194,44.964 C179.590002,44.6759986 180.055997,44.532 180.592,44.532 C181.432004,44.532 182.075998,44.8079972 182.524,45.36 C182.972002,45.9120028 183.196,46.6759951 183.196,47.652 C183.196,47.8360009 183.188,48.023999 183.172,48.216 Z M182.104,47.328 C182.104,46.7039969 181.980001,46.2280016 181.732,45.9 C181.483999,45.5719984 181.112002,45.408 180.616,45.408 C179.711995,45.408 179.22,46.0719934 179.14,47.4 L182.104,47.4 L182.104,47.328 Z M187.9,44.712 C188.244002,44.8320006 188.571998,45.0119988 188.884,45.252 L188.404,45.984 C188.123999,45.783999 187.854001,45.6380005 187.594,45.546 C187.333999,45.4539995 187.060001,45.408 186.772,45.408 C186.411998,45.408 186.128001,45.4819993 185.92,45.63 C185.711999,45.7780007 185.608,45.9799987 185.608,46.236 C185.608,46.4920013 185.705999,46.6919993 185.902,46.836 C186.098001,46.9800007 186.451997,47.1199993 186.964,47.256 C187.668004,47.4320009 188.193998,47.6719985 188.542,47.976 C188.890002,48.2800015 189.064,48.6959974 189.064,49.224 C189.064,49.8480031 188.822002,50.3239984 188.338,50.652 C187.853998,50.9800016 187.264003,51.144 186.568,51.144 C185.607995,51.144 184.812003,50.8680028 184.18,50.316 L184.792,49.62 C185.288002,50.0440021 185.871997,50.256 186.544,50.256 C186.952002,50.256 187.279999,50.1720008 187.528,50.004 C187.776001,49.8359992 187.9,49.6120014 187.9,49.332 C187.9,49.1079989 187.856,48.9260007 187.768,48.786 C187.68,48.6459993 187.530001,48.5260005 187.318,48.426 C187.105999,48.3259995 186.788002,48.2200006 186.364,48.108 C185.691997,47.9319991 185.206001,47.6940015 184.906,47.394 C184.605998,47.0939985 184.456,46.7160023 184.456,46.26 C184.456,45.9319984 184.553999,45.6360013 184.75,45.372 C184.946001,45.1079987 185.217998,44.9020007 185.566,44.754 C185.914002,44.6059993 186.303998,44.532 186.736,44.532 C187.168002,44.532 187.555998,44.5919994 187.9,44.712 Z" id="Species-threatened-o" fill="#212121"></path>
            <g id="Rectangle-6">
                <use fill-opacity="0.7" fill="#FEE5D9" fill-rule="evenodd" xlink:href="#path-1"></use>
                <rect stroke-opacity="0.7" stroke="#CB181D" stroke-width="1" x="10.5" y="25.5" width="60" height="9"></rect>
            </g>
            <g id="Rectangle-6">
                <use fill-opacity="0.7" fill="#CB181D" fill-rule="evenodd" xlink:href="#path-2"></use>
                <path stroke-opacity="0.7" stroke="#CB181D" stroke-width="1" d="M190.5,25.5 L190.5,34.5 L249.5,34.5 L249.5,25.5 L190.5,25.5 Z"></path>
            </g>
            <g id="Rectangle-6">
                <use fill-opacity="0.7" fill="#FB6A4A" fill-rule="evenodd" xlink:href="#path-3"></use>
                <rect stroke-opacity="0.7" stroke="#CB181D" stroke-width="1" x="130.5" y="25.5" width="60" height="9"></rect>
            </g>
            <g id="Rectangle-6">
                <use fill-opacity="0.7" fill="#FCAE91" fill-rule="evenodd" xlink:href="#path-4"></use>
                <rect stroke-opacity="0.7" stroke="#CB181D" stroke-width="1" x="70.5" y="25.5" width="60" height="9"></rect>
            </g>
        </g>
    </g>
</svg>