<?xml version="1.0" encoding="UTF-8" standalone="no"?>
<svg width="260px" height="64px" viewBox="0 0 260 64" version="1.1" xmlns="http://www.w3.org/2000/svg" xmlns:xlink="http://www.w3.org/1999/xlink">
    <!-- Generator: Sketch 42 (36781) - http://www.bohemiancoding.com/sketch -->
    <title>infograph/legend_map</title>
    <desc>Created with Sketch.</desc>
    <defs>
        <rect id="path-1" x="10" y="25" width="61" height="10"></rect>
        <mask id="mask-2" maskContentUnits="userSpaceOnUse" maskUnits="objectBoundingBox" x="0" y="0" width="61" height="10" fill="white">
            <use xlink:href="#path-1"></use>
        </mask>
        <polygon id="path-3" points="190 25 232.628906 25 250 25 250 35 190 35"></polygon>
        <mask id="mask-4" maskContentUnits="userSpaceOnUse" maskUnits="objectBoundingBox" x="0" y="0" width="60" height="10" fill="white">
            <use xlink:href="#path-3"></use>
        </mask>
        <rect id="path-5" x="130" y="25" width="61" height="10"></rect>
        <mask id="mask-6" maskContentUnits="userSpaceOnUse" maskUnits="objectBoundingBox" x="0" y="0" width="61" height="10" fill="white">
            <use xlink:href="#path-5"></use>
        </mask>
        <rect id="path-7" x="70" y="25" width="61" height="10"></rect>
        <mask id="mask-8" maskContentUnits="userSpaceOnUse" maskUnits="objectBoundingBox" x="0" y="0" width="61" height="10" fill="white">
            <use xlink:href="#path-7"></use>
        </mask>
    </defs>
    <g id="Symbols" stroke="none" stroke-width="1" fill="none" fill-rule="evenodd">
        <g id="infograph/legend_map">
            <rect id="Rectangle-2" fill-opacity="0.5" fill="#FFFFFF" x="0" y="0" width="260" height="64" rx="4"></rect>
            <path d="M30.658,15.004 L34.51,16.624 L34.006,17.788 L29.386,15.724 L29.386,14.296 L34.006,12.22 L34.51,13.36 L30.658,15.004 Z M40.246,12.064 L40.246,14.068 C40.646002,13.867999 41.0539979,13.768 41.47,13.768 C41.9180022,13.768 42.3179982,13.871999 42.67,14.08 C43.0220018,14.288001 43.295999,14.587998 43.492,14.98 C43.688001,15.372002 43.786,15.8359973 43.786,16.372 C43.786,16.9240028 43.6620012,17.4119979 43.414,17.836 C43.1659988,18.2600021 42.8140023,18.5899988 42.358,18.826 C41.9019977,19.0620012 41.374003,19.18 40.774,19.18 C40.2379973,19.18 39.7640021,19.082001 39.352,18.886 C38.9399979,18.689999 38.5660017,18.4080018 38.23,18.04 L39.118,17.212 C39.5660022,17.7320026 40.1059968,17.992 40.738,17.992 C41.1940023,17.992 41.5519987,17.8520014 41.812,17.572 C42.0720013,17.2919986 42.202,16.8920026 42.202,16.372 C42.202,15.371995 41.7700043,14.872 40.906,14.872 C40.7219991,14.872 40.5500008,14.8939998 40.39,14.938 C40.2299992,14.9820002 40.054001,15.0519995 39.862,15.148 L38.77,15.148 L38.77,10.924 L43.45,10.924 L43.27,12.064 L40.246,12.064 Z M49.828,11.86 C50.3200025,12.5800036 50.566,13.6159932 50.566,14.968 C50.566,16.3280068 50.3200025,17.3699964 49.828,18.094 C49.3359975,18.8180036 48.6180047,19.18 47.674,19.18 C46.7299953,19.18 46.0120025,18.8180036 45.52,18.094 C45.0279975,17.3699964 44.782,16.3280068 44.782,14.968 C44.782,13.6159932 45.0279975,12.5800036 45.52,11.86 C46.0120025,11.1399964 46.7299953,10.78 47.674,10.78 C48.6180047,10.78 49.3359975,11.1399964 49.828,11.86 Z M46.678,12.634 C46.469999,13.0940023 46.366,13.8719945 46.366,14.968 C46.366,16.0720055 46.469999,16.8559977 46.678,17.32 C46.886001,17.7840023 47.2179977,18.016 47.674,18.016 C48.1300023,18.016 48.461999,17.7860023 48.67,17.326 C48.878001,16.8659977 48.982,16.0800056 48.982,14.968 C48.982,13.8639945 48.878001,13.0840023 48.67,12.628 C48.461999,12.1719977 48.1300023,11.944 47.674,11.944 C47.2179977,11.944 46.886001,12.1739977 46.678,12.634 Z" id="&lt;-50" fill="#212121"></path>
            <path d="M211.81,15.724 L207.19,17.788 L206.686,16.624 L210.526,15.004 L206.686,13.36 L207.19,12.22 L211.81,14.296 L211.81,15.724 Z M218.05,19 L218.05,12.472 L216.25,13.564 L215.578,12.532 L218.206,10.924 L219.562,10.924 L219.562,19 L218.05,19 Z M222.946,12.064 L222.946,14.068 C223.346002,13.867999 223.753998,13.768 224.17,13.768 C224.618002,13.768 225.017998,13.871999 225.37,14.08 C225.722002,14.288001 225.995999,14.587998 226.192,14.98 C226.388001,15.372002 226.486,15.8359973 226.486,16.372 C226.486,16.9240028 226.362001,17.4119979 226.114,17.836 C225.865999,18.2600021 225.514002,18.5899988 225.058,18.826 C224.601998,19.0620012 224.074003,19.18 223.474,19.18 C222.937997,19.18 222.464002,19.082001 222.052,18.886 C221.639998,18.689999 221.266002,18.4080018 220.93,18.04 L221.818,17.212 C222.266002,17.7320026 222.805997,17.992 223.438,17.992 C223.894002,17.992 224.251999,17.8520014 224.512,17.572 C224.772001,17.2919986 224.902,16.8920026 224.902,16.372 C224.902,15.371995 224.470004,14.872 223.606,14.872 C223.421999,14.872 223.250001,14.8939998 223.09,14.938 C222.929999,14.9820002 222.754001,15.0519995 222.562,15.148 L221.47,15.148 L221.47,10.924 L226.15,10.924 L225.97,12.064 L222.946,12.064 Z M232.528,11.86 C233.020002,12.5800036 233.266,13.6159932 233.266,14.968 C233.266,16.3280068 233.020002,17.3699964 232.528,18.094 C232.035998,18.8180036 231.318005,19.18 230.374,19.18 C229.429995,19.18 228.712002,18.8180036 228.22,18.094 C227.727998,17.3699964 227.482,16.3280068 227.482,14.968 C227.482,13.6159932 227.727998,12.5800036 228.22,11.86 C228.712002,11.1399964 229.429995,10.78 230.374,10.78 C231.318005,10.78 232.035998,11.1399964 232.528,11.86 Z M229.378,12.634 C229.169999,13.0940023 229.066,13.8719945 229.066,14.968 C229.066,16.0720055 229.169999,16.8559977 229.378,17.32 C229.586001,17.7840023 229.917998,18.016 230.374,18.016 C230.830002,18.016 231.161999,17.7860023 231.37,17.326 C231.578001,16.8659977 231.682,16.0800056 231.682,14.968 C231.682,13.8639945 231.578001,13.0840023 231.37,12.628 C231.161999,12.1719977 230.830002,11.944 230.374,11.944 C229.917998,11.944 229.586001,12.1739977 229.378,12.634 Z" id="&gt;-150" fill="#212121"></path>
            <path d="M137.794,19 L137.794,12.472 L135.994,13.564 L135.322,12.532 L137.95,10.924 L139.306,10.924 L139.306,19 L137.794,19 Z M146.032,11.86 C146.524002,12.5800036 146.77,13.6159932 146.77,14.968 C146.77,16.3280068 146.524002,17.3699964 146.032,18.094 C145.539998,18.8180036 144.822005,19.18 143.878,19.18 C142.933995,19.18 142.216002,18.8180036 141.724,18.094 C141.231998,17.3699964 140.986,16.3280068 140.986,14.968 C140.986,13.6159932 141.231998,12.5800036 141.724,11.86 C142.216002,11.1399964 142.933995,10.78 143.878,10.78 C144.822005,10.78 145.539998,11.1399964 146.032,11.86 Z M142.882,12.634 C142.673999,13.0940023 142.57,13.8719945 142.57,14.968 C142.57,16.0720055 142.673999,16.8559977 142.882,17.32 C143.090001,17.7840023 143.421998,18.016 143.878,18.016 C144.334002,18.016 144.665999,17.7860023 144.874,17.326 C145.082001,16.8659977 145.186,16.0800056 145.186,14.968 C145.186,13.8639945 145.082001,13.0840023 144.874,12.628 C144.665999,12.1719977 144.334002,11.944 143.878,11.944 C143.421998,11.944 143.090001,12.1739977 142.882,12.634 Z M152.908,11.86 C153.400002,12.5800036 153.646,13.6159932 153.646,14.968 C153.646,16.3280068 153.400002,17.3699964 152.908,18.094 C152.415998,18.8180036 151.698005,19.18 150.754,19.18 C149.809995,19.18 149.092002,18.8180036 148.6,18.094 C148.107998,17.3699964 147.862,16.3280068 147.862,14.968 C147.862,13.6159932 148.107998,12.5800036 148.6,11.86 C149.092002,11.1399964 149.809995,10.78 150.754,10.78 C151.698005,10.78 152.415998,11.1399964 152.908,11.86 Z M149.758,12.634 C149.549999,13.0940023 149.446,13.8719945 149.446,14.968 C149.446,16.0720055 149.549999,16.8559977 149.758,17.32 C149.966001,17.7840023 150.297998,18.016 150.754,18.016 C151.210002,18.016 151.541999,17.7860023 151.75,17.326 C151.958001,16.8659977 152.062,16.0800056 152.062,14.968 C152.062,13.8639945 151.958001,13.0840023 151.75,12.628 C151.541999,12.1719977 151.210002,11.944 150.754,11.944 C150.297998,11.944 149.966001,12.1739977 149.758,12.634 Z M163.126,14.632 L163.126,15.856 L157.51,15.856 L157.51,14.632 L163.126,14.632 Z M169.186,19 L169.186,12.472 L167.386,13.564 L166.714,12.532 L169.342,10.924 L170.698,10.924 L170.698,19 L169.186,19 Z M174.082,12.064 L174.082,14.068 C174.482002,13.867999 174.889998,13.768 175.306,13.768 C175.754002,13.768 176.153998,13.871999 176.506,14.08 C176.858002,14.288001 177.131999,14.587998 177.328,14.98 C177.524001,15.372002 177.622,15.8359973 177.622,16.372 C177.622,16.9240028 177.498001,17.4119979 177.25,17.836 C177.001999,18.2600021 176.650002,18.5899988 176.194,18.826 C175.737998,19.0620012 175.210003,19.18 174.61,19.18 C174.073997,19.18 173.600002,19.082001 173.188,18.886 C172.775998,18.689999 172.402002,18.4080018 172.066,18.04 L172.954,17.212 C173.402002,17.7320026 173.941997,17.992 174.574,17.992 C175.030002,17.992 175.387999,17.8520014 175.648,17.572 C175.908001,17.2919986 176.038,16.8920026 176.038,16.372 C176.038,15.371995 175.606004,14.872 174.742,14.872 C174.557999,14.872 174.386001,14.8939998 174.226,14.938 C174.065999,14.9820002 173.890001,15.0519995 173.698,15.148 L172.606,15.148 L172.606,10.924 L177.286,10.924 L177.106,12.064 L174.082,12.064 Z M183.664,11.86 C184.156002,12.5800036 184.402,13.6159932 184.402,14.968 C184.402,16.3280068 184.156002,17.3699964 183.664,18.094 C183.171998,18.8180036 182.454005,19.18 181.51,19.18 C180.565995,19.18 179.848002,18.8180036 179.356,18.094 C178.863998,17.3699964 178.618,16.3280068 178.618,14.968 C178.618,13.6159932 178.863998,12.5800036 179.356,11.86 C179.848002,11.1399964 180.565995,10.78 181.51,10.78 C182.454005,10.78 183.171998,11.1399964 183.664,11.86 Z M180.514,12.634 C180.305999,13.0940023 180.202,13.8719945 180.202,14.968 C180.202,16.0720055 180.305999,16.8559977 180.514,17.32 C180.722001,17.7840023 181.053998,18.016 181.51,18.016 C181.966002,18.016 182.297999,17.7860023 182.506,17.326 C182.714001,16.8659977 182.818,16.0800056 182.818,14.968 C182.818,13.8639945 182.714001,13.0840023 182.506,12.628 C182.297999,12.1719977 181.966002,11.944 181.51,11.944 C181.053998,11.944 180.722001,12.1739977 180.514,12.634 Z" id="100-–-150" fill="#212121"></path>
            <path d="M79.99,12.064 L79.99,14.068 C80.390002,13.867999 80.7979979,13.768 81.214,13.768 C81.6620022,13.768 82.0619982,13.871999 82.414,14.08 C82.7660018,14.288001 83.039999,14.587998 83.236,14.98 C83.432001,15.372002 83.53,15.8359973 83.53,16.372 C83.53,16.9240028 83.4060012,17.4119979 83.158,17.836 C82.9099988,18.2600021 82.5580023,18.5899988 82.102,18.826 C81.6459977,19.0620012 81.118003,19.18 80.518,19.18 C79.9819973,19.18 79.5080021,19.082001 79.096,18.886 C78.6839979,18.689999 78.3100017,18.4080018 77.974,18.04 L78.862,17.212 C79.3100022,17.7320026 79.8499968,17.992 80.482,17.992 C80.9380023,17.992 81.2959987,17.8520014 81.556,17.572 C81.8160013,17.2919986 81.946,16.8920026 81.946,16.372 C81.946,15.371995 81.5140043,14.872 80.65,14.872 C80.4659991,14.872 80.2940008,14.8939998 80.134,14.938 C79.9739992,14.9820002 79.798001,15.0519995 79.606,15.148 L78.514,15.148 L78.514,10.924 L83.194,10.924 L83.014,12.064 L79.99,12.064 Z M89.572,11.86 C90.0640025,12.5800036 90.31,13.6159932 90.31,14.968 C90.31,16.3280068 90.0640025,17.3699964 89.572,18.094 C89.0799975,18.8180036 88.3620047,19.18 87.418,19.18 C86.4739953,19.18 85.7560025,18.8180036 85.264,18.094 C84.7719975,17.3699964 84.526,16.3280068 84.526,14.968 C84.526,13.6159932 84.7719975,12.5800036 85.264,11.86 C85.7560025,11.1399964 86.4739953,10.78 87.418,10.78 C88.3620047,10.78 89.0799975,11.1399964 89.572,11.86 Z M86.422,12.634 C86.213999,13.0940023 86.11,13.8719945 86.11,14.968 C86.11,16.0720055 86.213999,16.8559977 86.422,17.32 C86.630001,17.7840023 86.9619977,18.016 87.418,18.016 C87.8740023,18.016 88.205999,17.7860023 88.414,17.326 C88.622001,16.8659977 88.726,16.0800056 88.726,14.968 C88.726,13.8639945 88.622001,13.0840023 88.414,12.628 C88.205999,12.1719977 87.8740023,11.944 87.418,11.944 C86.9619977,11.944 86.630001,12.1739977 86.422,12.634 Z M99.79,14.632 L99.79,15.856 L94.174,15.856 L94.174,14.632 L99.79,14.632 Z M105.85,19 L105.85,12.472 L104.05,13.564 L103.378,12.532 L106.006,10.924 L107.362,10.924 L107.362,19 L105.85,19 Z M114.088,11.86 C114.580002,12.5800036 114.826,13.6159932 114.826,14.968 C114.826,16.3280068 114.580002,17.3699964 114.088,18.094 C113.595998,18.8180036 112.878005,19.18 111.934,19.18 C110.989995,19.18 110.272002,18.8180036 109.78,18.094 C109.287998,17.3699964 109.042,16.3280068 109.042,14.968 C109.042,13.6159932 109.287998,12.5800036 109.78,11.86 C110.272002,11.1399964 110.989995,10.78 111.934,10.78 C112.878005,10.78 113.595998,11.1399964 114.088,11.86 Z M110.938,12.634 C110.729999,13.0940023 110.626,13.8719945 110.626,14.968 C110.626,16.0720055 110.729999,16.8559977 110.938,17.32 C111.146001,17.7840023 111.477998,18.016 111.934,18.016 C112.390002,18.016 112.721999,17.7860023 112.93,17.326 C113.138001,16.8659977 113.242,16.0800056 113.242,14.968 C113.242,13.8639945 113.138001,13.0840023 112.93,12.628 C112.721999,12.1719977 112.390002,11.944 111.934,11.944 C111.477998,11.944 111.146001,12.1739977 110.938,12.634 Z M120.964,11.86 C121.456002,12.5800036 121.702,13.6159932 121.702,14.968 C121.702,16.3280068 121.456002,17.3699964 120.964,18.094 C120.471998,18.8180036 119.754005,19.18 118.81,19.18 C117.865995,19.18 117.148002,18.8180036 116.656,18.094 C116.163998,17.3699964 115.918,16.3280068 115.918,14.968 C115.918,13.6159932 116.163998,12.5800036 116.656,11.86 C117.148002,11.1399964 117.865995,10.78 118.81,10.78 C119.754005,10.78 120.471998,11.1399964 120.964,11.86 Z M117.814,12.634 C117.605999,13.0940023 117.502,13.8719945 117.502,14.968 C117.502,16.0720055 117.605999,16.8559977 117.814,17.32 C118.022001,17.7840023 118.353998,18.016 118.81,18.016 C119.266002,18.016 119.597999,17.7860023 119.806,17.326 C120.014001,16.8659977 120.118,16.0800056 120.118,14.968 C120.118,13.8639945 120.014001,13.0840023 119.806,12.628 C119.597999,12.1719977 119.266002,11.944 118.81,11.944 C118.353998,11.944 118.022001,12.1739977 117.814,12.634 Z" id="50-–-100" fill="#212121"></path>
            <path d="M14.656,42.822 C15.048002,42.9780008 15.4279982,43.2199984 15.796,43.548 L15.148,44.268 C14.8519985,44.0039987 14.5540015,43.8140006 14.254,43.698 C13.9539985,43.5819994 13.6320017,43.524 13.288,43.524 C12.8559978,43.524 12.5000014,43.623999 12.22,43.824 C11.9399986,44.024001 11.8,44.3159981 11.8,44.7 C11.8,44.9400012 11.8479995,45.1419992 11.944,45.306 C12.0400005,45.4700008 12.2179987,45.6199993 12.478,45.756 C12.7380013,45.8920007 13.1159975,46.0359992 13.612,46.188 C14.1320026,46.3480008 14.5639983,46.5199991 14.908,46.704 C15.2520017,46.8880009 15.5299989,47.1419984 15.742,47.466 C15.9540011,47.7900016 16.06,48.1999975 16.06,48.696 C16.06,49.1760024 15.9420012,49.5999982 15.706,49.968 C15.4699988,50.3360018 15.1300022,50.623999 14.686,50.832 C14.2419978,51.040001 13.716003,51.144 13.108,51.144 C11.9639943,51.144 11.0280036,50.7880036 10.3,50.076 L10.96,49.344 C11.560003,49.9200029 12.2719959,50.208 13.096,50.208 C13.6080026,50.208 14.0319983,50.0820013 14.368,49.83 C14.7040017,49.5779987 14.872,49.2120024 14.872,48.732 C14.872,48.4599986 14.8200005,48.2340009 14.716,48.054 C14.6119995,47.8739991 14.4340013,47.7120007 14.182,47.568 C13.9299987,47.4239993 13.5640024,47.2800007 13.084,47.136 C12.2359958,46.8799987 11.616002,46.5720018 11.224,46.212 C10.831998,45.8519982 10.636,45.3640031 10.636,44.748 C10.636,44.3319979 10.7459989,43.9600016 10.966,43.632 C11.1860011,43.3039984 11.493998,43.0480009 11.89,42.864 C12.286002,42.6799991 12.7359975,42.588 13.24,42.588 C13.7920028,42.588 14.263998,42.6659992 14.656,42.822 Z M22.36,45.396 C22.7360019,45.9720029 22.924,46.7839948 22.924,47.832 C22.924,48.824005 22.7080022,49.623997 22.276,50.232 C21.8439978,50.840003 21.232004,51.144 20.44,51.144 C19.7359965,51.144 19.184002,50.9040024 18.784,50.424 L18.784,53.424 L17.68,53.556 L17.68,44.676 L18.628,44.676 L18.712,45.528 C18.9440012,45.2079984 19.2239984,44.9620009 19.552,44.79 C19.8800016,44.6179991 20.2239982,44.532 20.584,44.532 C21.392004,44.532 21.9839981,44.8199971 22.36,45.396 Z M21.736,47.832 C21.736,46.2159919 21.2600048,45.408 20.308,45.408 C19.9959984,45.408 19.7120013,45.4999991 19.456,45.684 C19.1999987,45.8680009 18.976001,46.1039986 18.784,46.392 L18.784,49.476 C18.9440008,49.7240012 19.1439988,49.9139993 19.384,50.046 C19.6240012,50.1780007 19.8879986,50.244 20.176,50.244 C21.2160052,50.244 21.736,49.440008 21.736,47.832 Z M29.56,48.216 L25.528,48.216 C25.5760002,48.9120035 25.7519985,49.4239984 26.056,49.752 C26.3600015,50.0800016 26.7519976,50.244 27.232,50.244 C27.5360015,50.244 27.8159987,50.2000004 28.072,50.112 C28.3280013,50.0239996 28.5959986,49.884001 28.876,49.692 L29.356,50.352 C28.6839966,50.8800026 27.948004,51.144 27.148,51.144 C26.2679956,51.144 25.5820025,50.8560029 25.09,50.28 C24.5979975,49.7039971 24.352,48.912005 24.352,47.904 C24.352,47.2479967 24.4579989,46.6660025 24.67,46.158 C24.8820011,45.6499975 25.185998,45.2520014 25.582,44.964 C25.978002,44.6759986 26.4439973,44.532 26.98,44.532 C27.8200042,44.532 28.4639978,44.8079972 28.912,45.36 C29.3600022,45.9120028 29.584,46.6759951 29.584,47.652 C29.584,47.8360009 29.5760001,48.023999 29.56,48.216 Z M28.492,47.328 C28.492,46.7039969 28.3680012,46.2280016 28.12,45.9 C27.8719988,45.5719984 27.5000025,45.408 27.004,45.408 C26.0999955,45.408 25.6080004,46.0719934 25.528,47.4 L28.492,47.4 L28.492,47.328 Z M34.744,44.694 C35.0560016,44.8020005 35.3559986,44.9759988 35.644,45.216 L35.104,45.936 C34.8879989,45.7679992 34.676001,45.6440004 34.468,45.564 C34.259999,45.4839996 34.0240013,45.444 33.76,45.444 C33.2479974,45.444 32.8500014,45.647998 32.566,46.056 C32.2819986,46.464002 32.14,47.067996 32.14,47.868 C32.14,48.668004 32.2799986,49.2579981 32.56,49.638 C32.8400014,50.0180019 33.2399974,50.208 33.76,50.208 C34.0160013,50.208 34.245999,50.1680004 34.45,50.088 C34.654001,50.0079996 34.8759988,49.8760009 35.116,49.692 L35.644,50.448 C35.0679971,50.9120023 34.4240036,51.144 33.712,51.144 C32.8559957,51.144 32.1820025,50.8560029 31.69,50.28 C31.1979975,49.7039971 30.952,48.9080051 30.952,47.892 C30.952,47.2199966 31.0639989,46.6320025 31.288,46.128 C31.5120011,45.6239975 31.8299979,45.2320014 32.242,44.952 C32.6540021,44.6719986 33.1439972,44.532 33.712,44.532 C34.0880019,44.532 34.4319984,44.5859995 34.744,44.694 Z M37.144,51 L37.144,44.676 L38.248,44.676 L38.248,51 L37.144,51 Z M38.248,41.856 C38.3920007,42.0000007 38.464,42.1799989 38.464,42.396 C38.464,42.6120011 38.3920007,42.7899993 38.248,42.93 C38.1039993,43.0700007 37.9160012,43.14 37.684,43.14 C37.4599989,43.14 37.2760007,43.0700007 37.132,42.93 C36.9879993,42.7899993 36.916,42.6120011 36.916,42.396 C36.916,42.1799989 36.9879993,42.0000007 37.132,41.856 C37.2760007,41.7119993 37.4599989,41.64 37.684,41.64 C37.9160012,41.64 38.1039993,41.7119993 38.248,41.856 Z M45.28,48.216 L41.248,48.216 C41.2960002,48.9120035 41.4719985,49.4239984 41.776,49.752 C42.0800015,50.0800016 42.4719976,50.244 42.952,50.244 C43.2560015,50.244 43.5359987,50.2000004 43.792,50.112 C44.0480013,50.0239996 44.3159986,49.884001 44.596,49.692 L45.076,50.352 C44.4039966,50.8800026 43.668004,51.144 42.868,51.144 C41.9879956,51.144 41.3020025,50.8560029 40.81,50.28 C40.3179975,49.7039971 40.072,48.912005 40.072,47.904 C40.072,47.2479967 40.1779989,46.6660025 40.39,46.158 C40.6020011,45.6499975 40.905998,45.2520014 41.302,44.964 C41.698002,44.6759986 42.1639973,44.532 42.7,44.532 C43.5400042,44.532 44.1839978,44.8079972 44.632,45.36 C45.0800022,45.9120028 45.304,46.6759951 45.304,47.652 C45.304,47.8360009 45.2960001,48.023999 45.28,48.216 Z M44.212,47.328 C44.212,46.7039969 44.0880012,46.2280016 43.84,45.9 C43.5919988,45.5719984 43.2200025,45.408 42.724,45.408 C41.8199955,45.408 41.3280004,46.0719934 41.248,47.4 L44.212,47.4 L44.212,47.328 Z M50.008,44.712 C50.3520017,44.8320006 50.6799984,45.0119988 50.992,45.252 L50.512,45.984 C50.2319986,45.783999 49.9620013,45.6380005 49.702,45.546 C49.4419987,45.4539995 49.1680014,45.408 48.88,45.408 C48.5199982,45.408 48.236001,45.4819993 48.028,45.63 C47.819999,45.7780007 47.716,45.9799987 47.716,46.236 C47.716,46.4920013 47.813999,46.6919993 48.01,46.836 C48.206001,46.9800007 48.5599974,47.1199993 49.072,47.256 C49.7760035,47.4320009 50.3019983,47.6719985 50.65,47.976 C50.9980017,48.2800015 51.172,48.6959974 51.172,49.224 C51.172,49.8480031 50.9300024,50.3239984 50.446,50.652 C49.9619976,50.9800016 49.3720035,51.144 48.676,51.144 C47.7159952,51.144 46.9200032,50.8680028 46.288,50.316 L46.9,49.62 C47.3960025,50.0440021 47.9799966,50.256 48.652,50.256 C49.060002,50.256 49.3879988,50.1720008 49.636,50.004 C49.8840012,49.8359992 50.008,49.6120014 50.008,49.332 C50.008,49.1079989 49.9640004,48.9260007 49.876,48.786 C49.7879996,48.6459993 49.6380011,48.5260005 49.426,48.426 C49.2139989,48.3259995 48.8960021,48.2200006 48.472,48.108 C47.7999966,47.9319991 47.3140015,47.6940015 47.014,47.394 C46.7139985,47.0939985 46.564,46.7160023 46.564,46.26 C46.564,45.9319984 46.661999,45.6360013 46.858,45.372 C47.054001,45.1079987 47.3259983,44.9020007 47.674,44.754 C48.0220017,44.6059993 48.4119978,44.532 48.844,44.532 C49.2760022,44.532 49.6639983,44.5919994 50.008,44.712 Z M59.284,44.604 L59.08,45.684 C58.887999,45.6359998 58.7040009,45.612 58.528,45.612 C58.135998,45.612 57.8200012,45.7559986 57.58,46.044 C57.3399988,46.3320014 57.1520007,46.779997 57.016,47.388 L57.016,51 L55.912,51 L55.912,44.676 L56.86,44.676 L56.968,45.96 C57.1360008,45.4879976 57.3639986,45.1320012 57.652,44.892 C57.9400014,44.6519988 58.2759981,44.532 58.66,44.532 C58.8840011,44.532 59.091999,44.5559998 59.284,44.604 Z M60.544,51 L60.544,44.676 L61.648,44.676 L61.648,51 L60.544,51 Z M61.648,41.856 C61.7920007,42.0000007 61.864,42.1799989 61.864,42.396 C61.864,42.6120011 61.7920007,42.7899993 61.648,42.93 C61.5039993,43.0700007 61.3160012,43.14 61.084,43.14 C60.8599989,43.14 60.6760007,43.0700007 60.532,42.93 C60.3879993,42.7899993 60.316,42.6120011 60.316,42.396 C60.316,42.1799989 60.3879993,42.0000007 60.532,41.856 C60.6760007,41.7119993 60.8599989,41.64 61.084,41.64 C61.3160012,41.64 61.5039993,41.7119993 61.648,41.856 Z M67.264,44.694 C67.5760016,44.8020005 67.8759986,44.9759988 68.164,45.216 L67.624,45.936 C67.4079989,45.7679992 67.196001,45.6440004 66.988,45.564 C66.779999,45.4839996 66.5440013,45.444 66.28,45.444 C65.7679974,45.444 65.3700014,45.647998 65.086,46.056 C64.8019986,46.464002 64.66,47.067996 64.66,47.868 C64.66,48.668004 64.7999986,49.2579981 65.08,49.638 C65.3600014,50.0180019 65.7599974,50.208 66.28,50.208 C66.5360013,50.208 66.765999,50.1680004 66.97,50.088 C67.174001,50.0079996 67.3959988,49.8760009 67.636,49.692 L68.164,50.448 C67.5879971,50.9120023 66.9440036,51.144 66.232,51.144 C65.3759957,51.144 64.7020025,50.8560029 64.21,50.28 C63.7179975,49.7039971 63.472,48.9080051 63.472,47.892 C63.472,47.2199966 63.5839989,46.6320025 63.808,46.128 C64.0320011,45.6239975 64.3499979,45.2320014 64.762,44.952 C65.1740021,44.6719986 65.6639972,44.532 66.232,44.532 C66.6080019,44.532 66.9519984,44.5859995 67.264,44.694 Z M73.99,45.048 C74.3140016,45.3920017 74.476,45.863997 74.476,46.464 L74.476,51 L73.372,51 L73.372,46.62 C73.372,46.1719978 73.2860009,45.8560009 73.114,45.672 C72.9419991,45.4879991 72.6920016,45.396 72.364,45.396 C72.0359984,45.396 71.7440013,45.491999 71.488,45.684 C71.2319987,45.876001 70.9920011,46.1479982 70.768,46.5 L70.768,51 L69.664,51 L69.664,42.144 L70.768,42.024 L70.768,45.552 C71.2640025,44.8719966 71.8879962,44.532 72.64,44.532 C73.2160029,44.532 73.6659984,44.7039983 73.99,45.048 Z M81.022,45.048 C81.3460016,45.3920017 81.508,45.863997 81.508,46.464 L81.508,51 L80.404,51 L80.404,46.62 C80.404,46.1719978 80.3200008,45.8560009 80.152,45.672 C79.9839992,45.4879991 79.7360016,45.396 79.408,45.396 C79.0719983,45.396 78.7760013,45.491999 78.52,45.684 C78.2639987,45.876001 78.0240011,46.1519982 77.8,46.512 L77.8,51 L76.696,51 L76.696,44.676 L77.644,44.676 L77.74,45.612 C77.9640011,45.2759983 78.2419983,45.012001 78.574,44.82 C78.9060017,44.627999 79.271998,44.532 79.672,44.532 C80.2480029,44.532 80.6979984,44.7039983 81.022,45.048 Z M88.48,48.216 L84.448,48.216 C84.4960002,48.9120035 84.6719985,49.4239984 84.976,49.752 C85.2800015,50.0800016 85.6719976,50.244 86.152,50.244 C86.4560015,50.244 86.7359987,50.2000004 86.992,50.112 C87.2480013,50.0239996 87.5159986,49.884001 87.796,49.692 L88.276,50.352 C87.6039966,50.8800026 86.868004,51.144 86.068,51.144 C85.1879956,51.144 84.5020025,50.8560029 84.01,50.28 C83.5179975,49.7039971 83.272,48.912005 83.272,47.904 C83.272,47.2479967 83.3779989,46.6660025 83.59,46.158 C83.8020011,45.6499975 84.105998,45.2520014 84.502,44.964 C84.898002,44.6759986 85.3639973,44.532 85.9,44.532 C86.7400042,44.532 87.3839978,44.8079972 87.832,45.36 C88.2800022,45.9120028 88.504,46.6759951 88.504,47.652 C88.504,47.8360009 88.4960001,48.023999 88.48,48.216 Z M87.412,47.328 C87.412,46.7039969 87.2880012,46.2280016 87.04,45.9 C86.7919988,45.5719984 86.4200025,45.408 85.924,45.408 C85.0199955,45.408 84.5280004,46.0719934 84.448,47.4 L87.412,47.4 L87.412,47.328 Z M93.208,44.712 C93.5520017,44.8320006 93.8799984,45.0119988 94.192,45.252 L93.712,45.984 C93.4319986,45.783999 93.1620013,45.6380005 92.902,45.546 C92.6419987,45.4539995 92.3680014,45.408 92.08,45.408 C91.7199982,45.408 91.436001,45.4819993 91.228,45.63 C91.019999,45.7780007 90.916,45.9799987 90.916,46.236 C90.916,46.4920013 91.013999,46.6919993 91.21,46.836 C91.406001,46.9800007 91.7599974,47.1199993 92.272,47.256 C92.9760035,47.4320009 93.5019983,47.6719985 93.85,47.976 C94.1980017,48.2800015 94.372,48.6959974 94.372,49.224 C94.372,49.8480031 94.1300024,50.3239984 93.646,50.652 C93.1619976,50.9800016 92.5720035,51.144 91.876,51.144 C90.9159952,51.144 90.1200032,50.8680028 89.488,50.316 L90.1,49.62 C90.5960025,50.0440021 91.1799966,50.256 91.852,50.256 C92.260002,50.256 92.5879988,50.1720008 92.836,50.004 C93.0840012,49.8359992 93.208,49.6120014 93.208,49.332 C93.208,49.1079989 93.1640004,48.9260007 93.076,48.786 C92.9879996,48.6459993 92.8380011,48.5260005 92.626,48.426 C92.4139989,48.3259995 92.0960021,48.2200006 91.672,48.108 C90.9999966,47.9319991 90.5140015,47.6940015 90.214,47.394 C89.9139985,47.0939985 89.764,46.7160023 89.764,46.26 C89.764,45.9319984 89.861999,45.6360013 90.058,45.372 C90.254001,45.1079987 90.5259983,44.9020007 90.874,44.754 C91.2220017,44.6059993 91.6119978,44.532 92.044,44.532 C92.4760022,44.532 92.8639983,44.5919994 93.208,44.712 Z M98.812,44.712 C99.1560017,44.8320006 99.4839984,45.0119988 99.796,45.252 L99.316,45.984 C99.0359986,45.783999 98.7660013,45.6380005 98.506,45.546 C98.2459987,45.4539995 97.9720014,45.408 97.684,45.408 C97.3239982,45.408 97.040001,45.4819993 96.832,45.63 C96.623999,45.7780007 96.52,45.9799987 96.52,46.236 C96.52,46.4920013 96.617999,46.6919993 96.814,46.836 C97.010001,46.9800007 97.3639974,47.1199993 97.876,47.256 C98.5800035,47.4320009 99.1059983,47.6719985 99.454,47.976 C99.8020017,48.2800015 99.976,48.6959974 99.976,49.224 C99.976,49.8480031 99.7340024,50.3239984 99.25,50.652 C98.7659976,50.9800016 98.1760035,51.144 97.48,51.144 C96.5199952,51.144 95.7240032,50.8680028 95.092,50.316 L95.704,49.62 C96.2000025,50.0440021 96.7839966,50.256 97.456,50.256 C97.864002,50.256 98.1919988,50.1720008 98.44,50.004 C98.6880012,49.8359992 98.812,49.6120014 98.812,49.332 C98.812,49.1079989 98.7680004,48.9260007 98.68,48.786 C98.5919996,48.6459993 98.4420011,48.5260005 98.23,48.426 C98.0179989,48.3259995 97.7000021,48.2200006 97.276,48.108 C96.6039966,47.9319991 96.1180015,47.6940015 95.818,47.394 C95.5179985,47.0939985 95.368,46.7160023 95.368,46.26 C95.368,45.9319984 95.465999,45.6360013 95.662,45.372 C95.858001,45.1079987 96.1299983,44.9020007 96.478,44.754 C96.8260017,44.6059993 97.2159978,44.532 97.648,44.532 C98.0800022,44.532 98.4679983,44.5919994 98.812,44.712 Z M109.162,45.42 C109.654002,46.012003 109.9,46.8159949 109.9,47.832 C109.9,48.4880033 109.788001,49.0659975 109.564,49.566 C109.339999,50.0660025 109.016002,50.4539986 108.592,50.73 C108.167998,51.0060014 107.664003,51.144 107.08,51.144 C106.191996,51.144 105.500002,50.848003 105.004,50.256 C104.507998,49.663997 104.26,48.8600051 104.26,47.844 C104.26,47.1879967 104.371999,46.6100025 104.596,46.11 C104.820001,45.6099975 105.143998,45.2220014 105.568,44.946 C105.992002,44.6699986 106.499997,44.532 107.092,44.532 C107.980004,44.532 108.669998,44.827997 109.162,45.42 Z M105.448,47.844 C105.448,49.452008 105.991995,50.256 107.08,50.256 C108.168005,50.256 108.712,49.4480081 108.712,47.832 C108.712,46.223992 108.172005,45.42 107.092,45.42 C105.995995,45.42 105.448,46.2279919 105.448,47.844 Z M113.152,43.11 C113.007999,43.2580007 112.936,43.4879984 112.936,43.8 L112.936,44.676 L114.472,44.676 L114.352,45.528 L112.936,45.528 L112.936,51 L111.832,51 L111.832,45.528 L110.704,45.528 L110.704,44.676 L111.832,44.676 L111.832,43.812 C111.832,43.2679973 112.005998,42.8300017 112.354,42.498 C112.702002,42.1659983 113.187997,42 113.812,42 C114.100001,42 114.357999,42.0259997 114.586,42.078 C114.814001,42.1300003 115.059999,42.2119994 115.324,42.324 L114.976,43.128 C114.615998,42.9679992 114.248002,42.888 113.872,42.888 C113.535998,42.888 113.296001,42.9619993 113.152,43.11 Z M123.532,45.402 C123.956002,45.9820029 124.168,46.7919948 124.168,47.832 C124.168,48.4880033 124.068001,49.0659975 123.868,49.566 C123.667999,50.0660025 123.380002,50.4539986 123.004,50.73 C122.627998,51.0060014 122.188003,51.144 121.684,51.144 C121.019997,51.144 120.460002,50.8640028 120.004,50.304 L119.896,51 L118.924,51 L118.924,42.132 L120.028,42 L120.028,45.468 C120.484002,44.8439969 121.079996,44.532 121.816,44.532 C122.536004,44.532 123.107998,44.8219971 123.532,45.402 Z M122.566,49.674 C122.842001,49.277998 122.98,48.6640042 122.98,47.832 C122.98,46.9759957 122.852001,46.3580019 122.596,45.978 C122.339999,45.5979981 121.976002,45.408 121.504,45.408 C120.943997,45.408 120.452002,45.7359967 120.028,46.392 L120.028,49.416 C120.196001,49.6800013 120.401999,49.8879992 120.646,50.04 C120.890001,50.1920008 121.147999,50.268 121.42,50.268 C121.908002,50.268 122.289999,50.070002 122.566,49.674 Z M129.808,51 L129.724,50.016 C129.483999,50.408002 129.208002,50.6939991 128.896,50.874 C128.583998,51.0540009 128.204002,51.144 127.756,51.144 C127.203997,51.144 126.772002,50.9760017 126.46,50.64 C126.147998,50.3039983 125.992,49.8280031 125.992,49.212 L125.992,44.676 L127.096,44.676 L127.096,49.092 C127.096,49.5240022 127.171999,49.8299991 127.324,50.01 C127.476001,50.1900009 127.723998,50.28 128.068,50.28 C128.684003,50.28 129.211998,49.9160036 129.652,49.188 L129.652,44.676 L130.756,44.676 L130.756,51 L129.808,51 Z M134.812,51.144 C134.275997,51.144 133.858001,50.9900015 133.558,50.682 C133.257998,50.3739985 133.108,49.9280029 133.108,49.344 L133.108,45.528 L132.004,45.528 L132.004,44.676 L133.108,44.676 L133.108,43.248 L134.212,43.116 L134.212,44.676 L135.712,44.676 L135.592,45.528 L134.212,45.528 L134.212,49.296 C134.212,49.6240016 134.269999,49.8619993 134.386,50.01 C134.502001,50.1580007 134.695999,50.232 134.968,50.232 C135.232001,50.232 135.511999,50.1400009 135.808,49.956 L136.228,50.712 C135.811998,51.0000014 135.340003,51.144 134.812,51.144 Z M139.144,51.144 C138.607997,51.144 138.190002,50.9900015 137.89,50.682 C137.589999,50.3739985 137.44,49.9280029 137.44,49.344 L137.44,45.528 L136.336,45.528 L136.336,44.676 L137.44,44.676 L137.44,43.248 L138.544,43.116 L138.544,44.676 L140.044,44.676 L139.924,45.528 L138.544,45.528 L138.544,49.296 C138.544,49.6240016 138.601999,49.8619993 138.718,50.01 C138.834001,50.1580007 139.027999,50.232 139.3,50.232 C139.564001,50.232 139.843999,50.1400009 140.14,49.956 L140.56,50.712 C140.143998,51.0000014 139.672003,51.144 139.144,51.144 Z M146.332,48.216 L142.3,48.216 C142.348,48.9120035 142.523998,49.4239984 142.828,49.752 C143.132002,50.0800016 143.523998,50.244 144.004,50.244 C144.308002,50.244 144.587999,50.2000004 144.844,50.112 C145.100001,50.0239996 145.367999,49.884001 145.648,49.692 L146.128,50.352 C145.455997,50.8800026 144.720004,51.144 143.92,51.144 C143.039996,51.144 142.354002,50.8560029 141.862,50.28 C141.369998,49.7039971 141.124,48.912005 141.124,47.904 C141.124,47.2479967 141.229999,46.6660025 141.442,46.158 C141.654001,45.6499975 141.957998,45.2520014 142.354,44.964 C142.750002,44.6759986 143.215997,44.532 143.752,44.532 C144.592004,44.532 145.235998,44.8079972 145.684,45.36 C146.132002,45.9120028 146.356,46.6759951 146.356,47.652 C146.356,47.8360009 146.348,48.023999 146.332,48.216 Z M145.264,47.328 C145.264,46.7039969 145.140001,46.2280016 144.892,45.9 C144.643999,45.5719984 144.272002,45.408 143.776,45.408 C142.871995,45.408 142.38,46.0719934 142.3,47.4 L145.264,47.4 L145.264,47.328 Z M151.552,44.604 L151.348,45.684 C151.155999,45.6359998 150.972001,45.612 150.796,45.612 C150.403998,45.612 150.088001,45.7559986 149.848,46.044 C149.607999,46.3320014 149.420001,46.779997 149.284,47.388 L149.284,51 L148.18,51 L148.18,44.676 L149.128,44.676 L149.236,45.96 C149.404001,45.4879976 149.631999,45.1320012 149.92,44.892 C150.208001,44.6519988 150.543998,44.532 150.928,44.532 C151.152001,44.532 151.359999,44.5559998 151.552,44.604 Z M157.72,51.144 C157.311998,51.144 157.000001,51.0260012 156.784,50.79 C156.567999,50.5539988 156.46,50.2080023 156.46,49.752 L156.46,43.092 C156.211999,43.0199996 155.984001,42.9680002 155.776,42.936 C155.567999,42.9039998 155.336001,42.888 155.08,42.888 C154.687998,42.888 154.414001,42.9599993 154.258,43.104 C154.101999,43.2480007 154.024,43.4799984 154.024,43.8 L154.024,44.676 L155.56,44.676 L155.44,45.528 L154.024,45.528 L154.024,51 L152.92,51 L152.92,45.528 L151.912,45.528 L151.912,44.676 L152.92,44.676 L152.92,43.812 C152.92,43.2599972 153.097998,42.8200016 153.454,42.492 C153.810002,42.1639984 154.327997,42 155.008,42 C155.280001,42 155.525999,42.0199998 155.746,42.06 C155.966001,42.1000002 156.203999,42.1599996 156.46,42.24 L156.46,42.228 L157.564,42.096 L157.564,49.728 C157.564,49.8960008 157.594,50.0219996 157.654,50.106 C157.714,50.1900004 157.815999,50.232 157.96,50.232 C158.112001,50.232 158.247999,50.2080002 158.368,50.16 L158.656,50.928 C158.359999,51.0720007 158.048002,51.144 157.72,51.144 Z M160.036,51 L160.036,44.676 L161.14,44.676 L161.14,51 L160.036,51 Z M161.14,41.856 C161.284001,42.0000007 161.356,42.1799989 161.356,42.396 C161.356,42.6120011 161.284001,42.7899993 161.14,42.93 C160.995999,43.0700007 160.808001,43.14 160.576,43.14 C160.351999,43.14 160.168001,43.0700007 160.024,42.93 C159.879999,42.7899993 159.808,42.6120011 159.808,42.396 C159.808,42.1799989 159.879999,42.0000007 160.024,41.856 C160.168001,41.7119993 160.351999,41.64 160.576,41.64 C160.808001,41.64 160.995999,41.7119993 161.14,41.856 Z M168.172,48.216 L164.14,48.216 C164.188,48.9120035 164.363998,49.4239984 164.668,49.752 C164.972002,50.0800016 165.363998,50.244 165.844,50.244 C166.148002,50.244 166.427999,50.2000004 166.684,50.112 C166.940001,50.0239996 167.207999,49.884001 167.488,49.692 L167.968,50.352 C167.295997,50.8800026 166.560004,51.144 165.76,51.144 C164.879996,51.144 164.194002,50.8560029 163.702,50.28 C163.209998,49.7039971 162.964,48.912005 162.964,47.904 C162.964,47.2479967 163.069999,46.6660025 163.282,46.158 C163.494001,45.6499975 163.797998,45.2520014 164.194,44.964 C164.590002,44.6759986 165.055997,44.532 165.592,44.532 C166.432004,44.532 167.075998,44.8079972 167.524,45.36 C167.972002,45.9120028 168.196,46.6759951 168.196,47.652 C168.196,47.8360009 168.188,48.023999 168.172,48.216 Z M167.104,47.328 C167.104,46.7039969 166.980001,46.2280016 166.732,45.9 C166.483999,45.5719984 166.112002,45.408 165.616,45.408 C164.711995,45.408 164.22,46.0719934 164.14,47.4 L167.104,47.4 L167.104,47.328 Z M172.9,44.712 C173.244002,44.8320006 173.571998,45.0119988 173.884,45.252 L173.404,45.984 C173.123999,45.783999 172.854001,45.6380005 172.594,45.546 C172.333999,45.4539995 172.060001,45.408 171.772,45.408 C171.411998,45.408 171.128001,45.4819993 170.92,45.63 C170.711999,45.7780007 170.608,45.9799987 170.608,46.236 C170.608,46.4920013 170.705999,46.6919993 170.902,46.836 C171.098001,46.9800007 171.451997,47.1199993 171.964,47.256 C172.668004,47.4320009 173.193998,47.6719985 173.542,47.976 C173.890002,48.2800015 174.064,48.6959974 174.064,49.224 C174.064,49.8480031 173.822002,50.3239984 173.338,50.652 C172.853998,50.9800016 172.264003,51.144 171.568,51.144 C170.607995,51.144 169.812003,50.8680028 169.18,50.316 L169.792,49.62 C170.288002,50.0440021 170.871997,50.256 171.544,50.256 C171.952002,50.256 172.279999,50.1720008 172.528,50.004 C172.776001,49.8359992 172.9,49.6120014 172.9,49.332 C172.9,49.1079989 172.856,48.9260007 172.768,48.786 C172.68,48.6459993 172.530001,48.5260005 172.318,48.426 C172.105999,48.3259995 171.788002,48.2200006 171.364,48.108 C170.691997,47.9319991 170.206001,47.6940015 169.906,47.394 C169.605998,47.0939985 169.456,46.7160023 169.456,46.26 C169.456,45.9319984 169.553999,45.6360013 169.75,45.372 C169.946001,45.1079987 170.217998,44.9020007 170.566,44.754 C170.914002,44.6059993 171.303998,44.532 171.736,44.532 C172.168002,44.532 172.555998,44.5919994 172.9,44.712 Z" id="Species-richness-of" fill="#212121"></path>
            <use id="Rectangle-6" stroke="#7F2704" mask="url(#mask-2)" stroke-width="2" fill-opacity="0.7" fill="#FFF5EB" xlink:href="#path-1"></use>
            <use id="Rectangle-6" stroke="#7F2704" mask="url(#mask-4)" stroke-width="2" fill-opacity="0.7" fill="#7F2704" xlink:href="#path-3"></use>
            <use id="Rectangle-6" stroke="#7F2704" mask="url(#mask-6)" stroke-width="2" fill-opacity="0.7" fill="#EE6510" xlink:href="#path-5"></use>
            <use id="Rectangle-6" stroke="#7F2704" mask="url(#mask-8)" stroke-width="2" fill-opacity="0.7" fill="#FDBD83" xlink:href="#path-7"></use>
        </g>
    </g>
</svg>