<?xml version="1.0" encoding="UTF-8" standalone="no"?>
<svg width="64px" height="48px" viewBox="0 0 64 48" version="1.1" xmlns="http://www.w3.org/2000/svg" xmlns:xlink="http://www.w3.org/1999/xlink">
    <!-- Generator: Sketch 47.1 (45422) - http://www.bohemiancoding.com/sketch -->
    <title>Fill 1</title>
    <desc>Created with Sketch.</desc>
    <defs></defs>
    <g id="Welcome" stroke="none" stroke-width="1" fill="none" fill-rule="evenodd">
        <g id="Story_intro" transform="translate(-655.000000, -4870.000000)" fill="#66B7EA">
            <path d="M715.601846,4870 C709.061865,4870 700.893888,4874.31199 695.987901,4880.05997 C693.125909,4883.41796 690.827916,4885.29596 689.40392,4886.28995 C689.34992,4885.88996 689.19992,4885.51996 688.933921,4885.21796 C689.703919,4883.16796 691.081915,4879.99397 693.06191,4877.38598 C693.185909,4877.21998 693.135909,4876.99798 692.94791,4876.88598 C692.76391,4876.77798 692.505911,4876.81998 692.383911,4876.98798 C690.447917,4879.53797 689.077921,4882.59996 688.273923,4884.69396 C687.901924,4884.49396 687.469925,4884.37396 686.999927,4884.37396 C686.531928,4884.37396 686.097929,4884.49396 685.72593,4884.69396 C684.921932,4882.59996 683.553936,4879.53797 681.617942,4876.98798 C681.493942,4876.81998 681.235943,4876.77798 681.053943,4876.88598 C680.865944,4876.99798 680.813944,4877.21998 680.937944,4877.38598 C682.917938,4879.99397 684.297934,4883.16796 685.065932,4885.21796 C684.801933,4885.51996 684.649933,4885.88996 684.595933,4886.28995 C683.171937,4885.29596 680.875944,4883.41796 678.011952,4880.05997 C673.107965,4874.31199 664.937988,4870 658.398007,4870 C651.862025,4870 656.766011,4875.74998 656.766011,4878.62398 C656.766011,4881.49997 655.132016,4892.99794 669.839975,4891.56194 C669.839975,4891.56194 658.398007,4895.87593 660.034002,4904.4979 C660.768,4908.37589 661.503998,4910.20989 662.387995,4911.19788 C662.413995,4912.32788 662.249996,4913.53388 661.667997,4914.55988 C660.034002,4917.43587 660.034002,4918.87386 661.667997,4917.43587 C662.907994,4916.34387 664.151991,4914.42788 666.107985,4912.93588 C666.259985,4912.99388 666.411984,4913.05188 666.569984,4913.12388 C669.839975,4914.55988 668.205979,4915.99787 671.47597,4915.99787 C674.741961,4915.99787 669.839975,4915.99787 674.741961,4913.12388 C679.643947,4910.24789 679.515948,4907.3739 679.515948,4905.9359 C679.515948,4904.4979 679.515948,4903.05991 682.913938,4897.31192 C683.285937,4896.68393 684.081935,4896.44793 684.549933,4896.00193 L685.77393,4904.3179 C685.77393,4904.9139 686.321928,4905.3959 686.999927,4905.3959 C687.677925,4905.3959 688.225923,4904.9139 688.225923,4904.3179 L689.45192,4896.00193 C689.917918,4896.44793 690.715916,4896.68393 691.085915,4897.31192 C694.483906,4903.05991 694.483906,4904.4979 694.483906,4905.9359 C694.483906,4907.3739 694.355906,4910.24789 699.257892,4913.12388 C704.159879,4915.99787 699.257892,4915.99787 702.525883,4915.99787 C705.795874,4915.99787 704.159879,4914.55988 707.429869,4913.12388 C707.587869,4913.05188 707.739869,4912.99388 707.893868,4912.93588 C709.847863,4914.42788 711.091859,4916.34387 712.331856,4917.43587 C713.967851,4918.87386 713.967851,4917.43587 712.331856,4914.55988 C711.749857,4913.53388 711.585858,4912.32788 711.613858,4911.19788 C712.495855,4910.20989 713.231853,4908.37589 713.967851,4904.4979 C715.601846,4895.87593 704.159879,4891.56194 704.159879,4891.56194 C718.869837,4892.99794 717.233842,4881.49997 717.233842,4878.62398 C717.233842,4875.74998 722.139828,4870 715.601846,4870" id="Fill-1"></path>
        </g>
    </g>
</svg>