<?xml version="1.0" encoding="UTF-8" standalone="no"?>
<svg width="160px" height="32px" viewBox="0 0 160 32" version="1.1" xmlns="http://www.w3.org/2000/svg" xmlns:xlink="http://www.w3.org/1999/xlink">
    <!-- Generator: Sketch 47.1 (45422) - http://www.bohemiancoding.com/sketch -->
    <title>infograph/legend_map-coralligenous</title>
    <desc>Created with Sketch.</desc>
    <defs>
        <rect id="path-1" x="10" y="11" width="10" height="10"></rect>
    </defs>
    <g id="Symbols" stroke="none" stroke-width="1" fill="none" fill-rule="evenodd">
        <g id="infograph/legend_map-coralligenous">
            <rect id="Rectangle-2" fill-opacity="0.5" fill="#FFFFFF" x="0" y="0" width="160" height="32" rx="4"></rect>
            <path d="M31.346,11.78 C31.6860017,11.9080006 32.0319982,12.1159986 32.384,12.404 L31.76,13.136 C31.2559975,12.727998 30.7240028,12.524 30.164,12.524 C29.4759966,12.524 28.9220021,12.7879974 28.502,13.316 C28.0819979,13.8440026 27.872,14.6919942 27.872,15.86 C27.872,16.9960057 28.0799979,17.8339973 28.496,18.374 C28.9120021,18.9140027 29.4639966,19.184 30.152,19.184 C30.5040018,19.184 30.8079987,19.1240006 31.064,19.004 C31.3200013,18.8839994 31.5999985,18.7120011 31.904,18.488 L32.48,19.22 C32.2319988,19.4840013 31.906002,19.7039991 31.502,19.88 C31.097998,20.0560009 30.6360026,20.144 30.116,20.144 C29.4439966,20.144 28.8460026,19.9780017 28.322,19.646 C27.7979974,19.3139983 27.3900015,18.8260032 27.098,18.182 C26.8059985,17.5379968 26.66,16.7640045 26.66,15.86 C26.66,14.9559955 26.8119985,14.1820032 27.116,13.538 C27.4200015,12.8939968 27.8319974,12.4080016 28.352,12.08 C28.8720026,11.7519984 29.4519968,11.588 30.092,11.588 C30.5880025,11.588 31.0059983,11.6519994 31.346,11.78 Z M38.186,14.42 C38.6780025,15.012003 38.924,15.8159949 38.924,16.832 C38.924,17.4880033 38.8120011,18.0659975 38.588,18.566 C38.3639989,19.0660025 38.0400021,19.4539986 37.616,19.73 C37.1919979,20.0060014 36.6880029,20.144 36.104,20.144 C35.2159956,20.144 34.5240025,19.848003 34.028,19.256 C33.5319975,18.663997 33.284,17.8600051 33.284,16.844 C33.284,16.1879967 33.3959989,15.6100025 33.62,15.11 C33.8440011,14.6099975 34.1679979,14.2220014 34.592,13.946 C35.0160021,13.6699986 35.523997,13.532 36.116,13.532 C37.0040044,13.532 37.6939975,13.827997 38.186,14.42 Z M34.472,16.844 C34.472,18.452008 35.0159946,19.256 36.104,19.256 C37.1920054,19.256 37.736,18.4480081 37.736,16.832 C37.736,15.223992 37.1960054,14.42 36.116,14.42 C35.0199945,14.42 34.472,15.2279919 34.472,16.844 Z M44.12,13.604 L43.916,14.684 C43.723999,14.6359998 43.5400009,14.612 43.364,14.612 C42.971998,14.612 42.6560012,14.7559986 42.416,15.044 C42.1759988,15.3320014 41.9880007,15.779997 41.852,16.388 L41.852,20 L40.748,20 L40.748,13.676 L41.696,13.676 L41.804,14.96 C41.9720008,14.4879976 42.1999986,14.1320012 42.488,13.892 C42.7760014,13.6519988 43.1119981,13.532 43.496,13.532 C43.7200011,13.532 43.927999,13.5559998 44.12,13.604 Z M49.532,19.094 C49.6200004,19.2180006 49.7519991,19.3119997 49.928,19.376 L49.676,20.144 C49.3479984,20.1039998 49.084001,20.0120007 48.884,19.868 C48.683999,19.7239993 48.5360005,19.5000015 48.44,19.196 C48.0159979,19.8280032 47.3880042,20.144 46.556,20.144 C45.9319969,20.144 45.4400018,19.9680018 45.08,19.616 C44.7199982,19.2639982 44.54,18.8040028 44.54,18.236 C44.54,17.5639966 44.7819976,17.0480018 45.266,16.688 C45.7500024,16.3279982 46.4359956,16.148 47.324,16.148 L48.296,16.148 L48.296,15.68 C48.296,15.2319978 48.1880011,14.912001 47.972,14.72 C47.7559989,14.527999 47.4240022,14.432 46.976,14.432 C46.5119977,14.432 45.9440034,14.5439989 45.272,14.768 L44.996,13.964 C45.7800039,13.6759986 46.5079966,13.532 47.18,13.532 C47.9240037,13.532 48.4799982,13.7139982 48.848,14.078 C49.2160018,14.4420018 49.4,14.9599966 49.4,15.632 L49.4,18.524 C49.4,18.7800013 49.4439996,18.9699994 49.532,19.094 Z M48.296,18.332 L48.296,16.88 L47.468,16.88 C46.2999942,16.88 45.716,17.3119957 45.716,18.176 C45.716,18.5520019 45.8079991,18.835999 45.992,19.028 C46.1760009,19.220001 46.4479982,19.316 46.808,19.316 C47.4400032,19.316 47.9359982,18.9880033 48.296,18.332 Z M52.802,19.112 C52.8620003,19.1920004 52.9639993,19.232 53.108,19.232 C53.2600008,19.232 53.3959994,19.2080002 53.516,19.16 L53.804,19.928 C53.5079985,20.0720007 53.1960016,20.144 52.868,20.144 C52.459998,20.144 52.1480011,20.0260012 51.932,19.79 C51.7159989,19.5539988 51.608,19.2080023 51.608,18.752 L51.608,11.132 L52.712,11 L52.712,18.728 C52.712,18.9040009 52.7419997,19.0319996 52.802,19.112 Z M56.318,19.112 C56.3780003,19.1920004 56.4799993,19.232 56.624,19.232 C56.7760008,19.232 56.9119994,19.2080002 57.032,19.16 L57.32,19.928 C57.0239985,20.0720007 56.7120016,20.144 56.384,20.144 C55.975998,20.144 55.6640011,20.0260012 55.448,19.79 C55.2319989,19.5539988 55.124,19.2080023 55.124,18.752 L55.124,11.132 L56.228,11 L56.228,18.728 C56.228,18.9040009 56.2579997,19.0319996 56.318,19.112 Z M58.7,20 L58.7,13.676 L59.804,13.676 L59.804,20 L58.7,20 Z M59.804,10.856 C59.9480007,11.0000007 60.02,11.1799989 60.02,11.396 C60.02,11.6120011 59.9480007,11.7899993 59.804,11.93 C59.6599993,12.0700007 59.4720012,12.14 59.24,12.14 C59.0159989,12.14 58.8320007,12.0700007 58.688,11.93 C58.5439993,11.7899993 58.472,11.6120011 58.472,11.396 C58.472,11.1799989 58.5439993,11.0000007 58.688,10.856 C58.8320007,10.7119993 59.0159989,10.64 59.24,10.64 C59.4720012,10.64 59.6599993,10.7119993 59.804,10.856 Z M66.392,14.12 C66.1039986,14.1440001 65.7520021,14.156 65.336,14.156 C66.0800037,14.4920017 66.452,15.0239964 66.452,15.752 C66.452,16.3840032 66.2360022,16.899998 65.804,17.3 C65.3719978,17.700002 64.7840037,17.9 64.04,17.9 C63.7519986,17.9 63.4840012,17.8600004 63.236,17.78 C63.1399995,17.8440003 63.0640003,17.9299995 63.008,18.038 C62.9519997,18.1460005 62.924,18.2559994 62.924,18.368 C62.924,18.7120017 63.1999972,18.884 63.752,18.884 L64.76,18.884 C65.1840021,18.884 65.5599984,18.9599992 65.888,19.112 C66.2160016,19.2640008 66.4699991,19.4719987 66.65,19.736 C66.8300009,20.0000013 66.92,20.2999983 66.92,20.636 C66.92,21.2520031 66.6680025,21.7259983 66.164,22.058 C65.6599975,22.3900017 64.9240048,22.556 63.956,22.556 C63.2759966,22.556 62.738002,22.4860007 62.342,22.346 C61.945998,22.2059993 61.6640008,21.9960014 61.496,21.716 C61.3279992,21.4359986 61.244,21.0760022 61.244,20.636 L62.24,20.636 C62.24,20.8920013 62.2879995,21.0939993 62.384,21.242 C62.4800005,21.3900007 62.6519988,21.5019996 62.9,21.578 C63.1480012,21.6540004 63.4999977,21.692 63.956,21.692 C64.6200033,21.692 65.0939986,21.6100008 65.378,21.446 C65.6620014,21.2819992 65.804,21.0360016 65.804,20.708 C65.804,20.4119985 65.6920011,20.1880008 65.468,20.036 C65.2439989,19.8839992 64.932002,19.808 64.532,19.808 L63.536,19.808 C62.9999973,19.808 62.5940014,19.6940011 62.318,19.466 C62.0419986,19.2379989 61.904,18.9520017 61.904,18.608 C61.904,18.399999 61.9639994,18.200001 62.084,18.008 C62.2040006,17.815999 62.3759989,17.6440008 62.6,17.492 C62.2319982,17.299999 61.9620009,17.0620014 61.79,16.778 C61.6179991,16.4939986 61.532,16.148002 61.532,15.74 C61.532,15.3159979 61.6379989,14.9360017 61.85,14.6 C62.0620011,14.2639983 62.3539981,14.0020009 62.726,13.814 C63.0980019,13.6259991 63.5119977,13.532 63.968,13.532 C64.4640025,13.54 64.8799983,13.5220002 65.216,13.478 C65.5520017,13.4339998 65.8299989,13.3740004 66.05,13.298 C66.2700011,13.2219996 66.5399984,13.1120007 66.86,12.968 L67.184,13.964 C66.9439988,14.0440004 66.6800014,14.0959999 66.392,14.12 Z M63.002,14.714 C62.7739989,14.9740013 62.66,15.3159979 62.66,15.74 C62.66,16.1720022 62.7759988,16.5179987 63.008,16.778 C63.2400012,17.0380013 63.5679979,17.168 63.992,17.168 C64.4240022,17.168 64.7539989,17.0420013 64.982,16.79 C65.2100011,16.5379987 65.324,16.1840023 65.324,15.728 C65.324,14.7919953 64.8720045,14.324 63.968,14.324 C63.5519979,14.324 63.2300011,14.4539987 63.002,14.714 Z M72.896,17.216 L68.864,17.216 C68.9120002,17.9120035 69.0879985,18.4239984 69.392,18.752 C69.6960015,19.0800016 70.0879976,19.244 70.568,19.244 C70.8720015,19.244 71.1519987,19.2000004 71.408,19.112 C71.6640013,19.0239996 71.9319986,18.884001 72.212,18.692 L72.692,19.352 C72.0199966,19.8800026 71.284004,20.144 70.484,20.144 C69.6039956,20.144 68.9180025,19.8560029 68.426,19.28 C67.9339975,18.7039971 67.688,17.912005 67.688,16.904 C67.688,16.2479967 67.7939989,15.6660025 68.006,15.158 C68.2180011,14.6499975 68.521998,14.2520014 68.918,13.964 C69.314002,13.6759986 69.7799973,13.532 70.316,13.532 C71.1560042,13.532 71.7999978,13.8079972 72.248,14.36 C72.6960022,14.9120028 72.92,15.6759951 72.92,16.652 C72.92,16.8360009 72.9120001,17.023999 72.896,17.216 Z M71.828,16.328 C71.828,15.7039969 71.7040012,15.2280016 71.456,14.9 C71.2079988,14.5719984 70.8360025,14.408 70.34,14.408 C69.4359955,14.408 68.9440004,15.0719934 68.864,16.4 L71.828,16.4 L71.828,16.328 Z M79.07,14.048 C79.3940016,14.3920017 79.556,14.863997 79.556,15.464 L79.556,20 L78.452,20 L78.452,15.62 C78.452,15.1719978 78.3680008,14.8560009 78.2,14.672 C78.0319992,14.4879991 77.7840016,14.396 77.456,14.396 C77.1199983,14.396 76.8240013,14.491999 76.568,14.684 C76.3119987,14.876001 76.0720011,15.1519982 75.848,15.512 L75.848,20 L74.744,20 L74.744,13.676 L75.692,13.676 L75.788,14.612 C76.0120011,14.2759983 76.2899983,14.012001 76.622,13.82 C76.9540017,13.627999 77.319998,13.532 77.72,13.532 C78.2960029,13.532 78.7459984,13.7039983 79.07,14.048 Z M86.222,14.42 C86.7140025,15.012003 86.96,15.8159949 86.96,16.832 C86.96,17.4880033 86.8480011,18.0659975 86.624,18.566 C86.3999989,19.0660025 86.0760021,19.4539986 85.652,19.73 C85.2279979,20.0060014 84.7240029,20.144 84.14,20.144 C83.2519956,20.144 82.5600025,19.848003 82.064,19.256 C81.5679975,18.663997 81.32,17.8600051 81.32,16.844 C81.32,16.1879967 81.4319989,15.6100025 81.656,15.11 C81.8800011,14.6099975 82.2039979,14.2220014 82.628,13.946 C83.0520021,13.6699986 83.559997,13.532 84.152,13.532 C85.0400044,13.532 85.7299975,13.827997 86.222,14.42 Z M82.508,16.844 C82.508,18.452008 83.0519946,19.256 84.14,19.256 C85.2280054,19.256 85.772,18.4480081 85.772,16.832 C85.772,15.223992 85.2320054,14.42 84.152,14.42 C83.0559945,14.42 82.508,15.2279919 82.508,16.844 Z M92.54,20 L92.456,19.016 C92.2159988,19.408002 91.9400016,19.6939991 91.628,19.874 C91.3159984,20.0540009 90.9360022,20.144 90.488,20.144 C89.9359972,20.144 89.5040016,19.9760017 89.192,19.64 C88.8799984,19.3039983 88.724,18.8280031 88.724,18.212 L88.724,13.676 L89.828,13.676 L89.828,18.092 C89.828,18.5240022 89.9039992,18.8299991 90.056,19.01 C90.2080008,19.1900009 90.4559983,19.28 90.8,19.28 C91.4160031,19.28 91.9439978,18.9160036 92.384,18.188 L92.384,13.676 L93.488,13.676 L93.488,20 L92.54,20 Z M98.648,13.712 C98.9920017,13.8320006 99.3199984,14.0119988 99.632,14.252 L99.152,14.984 C98.8719986,14.783999 98.6020013,14.6380005 98.342,14.546 C98.0819987,14.4539995 97.8080014,14.408 97.52,14.408 C97.1599982,14.408 96.876001,14.4819993 96.668,14.63 C96.459999,14.7780007 96.356,14.9799987 96.356,15.236 C96.356,15.4920013 96.453999,15.6919993 96.65,15.836 C96.846001,15.9800007 97.1999974,16.1199993 97.712,16.256 C98.4160035,16.4320009 98.9419983,16.6719985 99.29,16.976 C99.6380017,17.2800015 99.812,17.6959974 99.812,18.224 C99.812,18.8480031 99.5700024,19.3239984 99.086,19.652 C98.6019976,19.9800016 98.0120035,20.144 97.316,20.144 C96.3559952,20.144 95.5600032,19.8680028 94.928,19.316 L95.54,18.62 C96.0360025,19.0440021 96.6199966,19.256 97.292,19.256 C97.700002,19.256 98.0279988,19.1720008 98.276,19.004 C98.5240012,18.8359992 98.648,18.6120014 98.648,18.332 C98.648,18.1079989 98.6040004,17.9260007 98.516,17.786 C98.4279996,17.6459993 98.2780011,17.5260005 98.066,17.426 C97.8539989,17.3259995 97.5360021,17.2200006 97.112,17.108 C96.4399966,16.9319991 95.9540015,16.6940015 95.654,16.394 C95.3539985,16.0939985 95.204,15.7160023 95.204,15.26 C95.204,14.9319984 95.301999,14.6360013 95.498,14.372 C95.694001,14.1079987 95.9659983,13.9020007 96.314,13.754 C96.6620017,13.6059993 97.0519978,13.532 97.484,13.532 C97.9160022,13.532 98.3039983,13.5919994 98.648,13.712 Z M108.878,14.048 C109.202002,14.3920017 109.364,14.863997 109.364,15.464 L109.364,20 L108.26,20 L108.26,15.62 C108.26,15.1719978 108.174001,14.8560009 108.002,14.672 C107.829999,14.4879991 107.580002,14.396 107.252,14.396 C106.923998,14.396 106.632001,14.491999 106.376,14.684 C106.119999,14.876001 105.880001,15.1479982 105.656,15.5 L105.656,20 L104.552,20 L104.552,11.144 L105.656,11.024 L105.656,14.552 C106.152002,13.8719966 106.775996,13.532 107.528,13.532 C108.104003,13.532 108.553998,13.7039983 108.878,14.048 Z M115.976,19.094 C116.064,19.2180006 116.195999,19.3119997 116.372,19.376 L116.12,20.144 C115.791998,20.1039998 115.528001,20.0120007 115.328,19.868 C115.127999,19.7239993 114.98,19.5000015 114.884,19.196 C114.459998,19.8280032 113.832004,20.144 113,20.144 C112.375997,20.144 111.884002,19.9680018 111.524,19.616 C111.163998,19.2639982 110.984,18.8040028 110.984,18.236 C110.984,17.5639966 111.225998,17.0480018 111.71,16.688 C112.194002,16.3279982 112.879996,16.148 113.768,16.148 L114.74,16.148 L114.74,15.68 C114.74,15.2319978 114.632001,14.912001 114.416,14.72 C114.199999,14.527999 113.868002,14.432 113.42,14.432 C112.955998,14.432 112.388003,14.5439989 111.716,14.768 L111.44,13.964 C112.224004,13.6759986 112.951997,13.532 113.624,13.532 C114.368004,13.532 114.923998,13.7139982 115.292,14.078 C115.660002,14.4420018 115.844,14.9599966 115.844,15.632 L115.844,18.524 C115.844,18.7800013 115.888,18.9699994 115.976,19.094 Z M114.74,18.332 L114.74,16.88 L113.912,16.88 C112.743994,16.88 112.16,17.3119957 112.16,18.176 C112.16,18.5520019 112.251999,18.835999 112.436,19.028 C112.620001,19.220001 112.891998,19.316 113.252,19.316 C113.884003,19.316 114.379998,18.9880033 114.74,18.332 Z M122.72,14.402 C123.144002,14.9820029 123.356,15.7919948 123.356,16.832 C123.356,17.4880033 123.256001,18.0659975 123.056,18.566 C122.855999,19.0660025 122.568002,19.4539986 122.192,19.73 C121.815998,20.0060014 121.376003,20.144 120.872,20.144 C120.207997,20.144 119.648002,19.8640028 119.192,19.304 L119.084,20 L118.112,20 L118.112,11.132 L119.216,11 L119.216,14.468 C119.672002,13.8439969 120.267996,13.532 121.004,13.532 C121.724004,13.532 122.295998,13.8219971 122.72,14.402 Z M121.754,18.674 C122.030001,18.277998 122.168,17.6640042 122.168,16.832 C122.168,15.9759957 122.040001,15.3580019 121.784,14.978 C121.527999,14.5979981 121.164002,14.408 120.692,14.408 C120.131997,14.408 119.640002,14.7359967 119.216,15.392 L119.216,18.416 C119.384001,18.6800013 119.589999,18.8879992 119.834,19.04 C120.078001,19.1920008 120.335999,19.268 120.608,19.268 C121.096002,19.268 121.477999,19.070002 121.754,18.674 Z M125.24,20 L125.24,13.676 L126.344,13.676 L126.344,20 L125.24,20 Z M126.344,10.856 C126.488001,11.0000007 126.56,11.1799989 126.56,11.396 C126.56,11.6120011 126.488001,11.7899993 126.344,11.93 C126.199999,12.0700007 126.012001,12.14 125.78,12.14 C125.555999,12.14 125.372001,12.0700007 125.228,11.93 C125.083999,11.7899993 125.012,11.6120011 125.012,11.396 C125.012,11.1799989 125.083999,11.0000007 125.228,10.856 C125.372001,10.7119993 125.555999,10.64 125.78,10.64 C126.012001,10.64 126.199999,10.7119993 126.344,10.856 Z M130.4,20.144 C129.863997,20.144 129.446002,19.9900015 129.146,19.682 C128.845999,19.3739985 128.696,18.9280029 128.696,18.344 L128.696,14.528 L127.592,14.528 L127.592,13.676 L128.696,13.676 L128.696,12.248 L129.8,12.116 L129.8,13.676 L131.3,13.676 L131.18,14.528 L129.8,14.528 L129.8,18.296 C129.8,18.6240016 129.857999,18.8619993 129.974,19.01 C130.090001,19.1580007 130.283999,19.232 130.556,19.232 C130.820001,19.232 131.099999,19.1400009 131.396,18.956 L131.816,19.712 C131.399998,20.0000014 130.928003,20.144 130.4,20.144 Z M137.348,19.094 C137.436,19.2180006 137.567999,19.3119997 137.744,19.376 L137.492,20.144 C137.163998,20.1039998 136.900001,20.0120007 136.7,19.868 C136.499999,19.7239993 136.352,19.5000015 136.256,19.196 C135.831998,19.8280032 135.204004,20.144 134.372,20.144 C133.747997,20.144 133.256002,19.9680018 132.896,19.616 C132.535998,19.2639982 132.356,18.8040028 132.356,18.236 C132.356,17.5639966 132.597998,17.0480018 133.082,16.688 C133.566002,16.3279982 134.251996,16.148 135.14,16.148 L136.112,16.148 L136.112,15.68 C136.112,15.2319978 136.004001,14.912001 135.788,14.72 C135.571999,14.527999 135.240002,14.432 134.792,14.432 C134.327998,14.432 133.760003,14.5439989 133.088,14.768 L132.812,13.964 C133.596004,13.6759986 134.323997,13.532 134.996,13.532 C135.740004,13.532 136.295998,13.7139982 136.664,14.078 C137.032002,14.4420018 137.216,14.9599966 137.216,15.632 L137.216,18.524 C137.216,18.7800013 137.26,18.9699994 137.348,19.094 Z M136.112,18.332 L136.112,16.88 L135.284,16.88 C134.115994,16.88 133.532,17.3119957 133.532,18.176 C133.532,18.5520019 133.623999,18.835999 133.808,19.028 C133.992001,19.220001 134.263998,19.316 134.624,19.316 C135.256003,19.316 135.751998,18.9880033 136.112,18.332 Z M141.26,20.144 C140.723997,20.144 140.306002,19.9900015 140.006,19.682 C139.705999,19.3739985 139.556,18.9280029 139.556,18.344 L139.556,14.528 L138.452,14.528 L138.452,13.676 L139.556,13.676 L139.556,12.248 L140.66,12.116 L140.66,13.676 L142.16,13.676 L142.04,14.528 L140.66,14.528 L140.66,18.296 C140.66,18.6240016 140.717999,18.8619993 140.834,19.01 C140.950001,19.1580007 141.143999,19.232 141.416,19.232 C141.680001,19.232 141.959999,19.1400009 142.256,18.956 L142.676,19.712 C142.259998,20.0000014 141.788003,20.144 141.26,20.144 Z M146.696,13.712 C147.040002,13.8320006 147.367998,14.0119988 147.68,14.252 L147.2,14.984 C146.919999,14.783999 146.650001,14.6380005 146.39,14.546 C146.129999,14.4539995 145.856001,14.408 145.568,14.408 C145.207998,14.408 144.924001,14.4819993 144.716,14.63 C144.507999,14.7780007 144.404,14.9799987 144.404,15.236 C144.404,15.4920013 144.501999,15.6919993 144.698,15.836 C144.894001,15.9800007 145.247997,16.1199993 145.76,16.256 C146.464004,16.4320009 146.989998,16.6719985 147.338,16.976 C147.686002,17.2800015 147.86,17.6959974 147.86,18.224 C147.86,18.8480031 147.618002,19.3239984 147.134,19.652 C146.649998,19.9800016 146.060003,20.144 145.364,20.144 C144.403995,20.144 143.608003,19.8680028 142.976,19.316 L143.588,18.62 C144.084002,19.0440021 144.667997,19.256 145.34,19.256 C145.748002,19.256 146.075999,19.1720008 146.324,19.004 C146.572001,18.8359992 146.696,18.6120014 146.696,18.332 C146.696,18.1079989 146.652,17.9260007 146.564,17.786 C146.476,17.6459993 146.326001,17.5260005 146.114,17.426 C145.901999,17.3259995 145.584002,17.2200006 145.16,17.108 C144.487997,16.9319991 144.002002,16.6940015 143.702,16.394 C143.401998,16.0939985 143.252,15.7160023 143.252,15.26 C143.252,14.9319984 143.349999,14.6360013 143.546,14.372 C143.742001,14.1079987 144.013998,13.9020007 144.362,13.754 C144.710002,13.6059993 145.099998,13.532 145.532,13.532 C145.964002,13.532 146.351998,13.5919994 146.696,13.712 Z" id="Coralligenous-habita" fill="#212121"></path>
            <g id="Rectangle-6">
                <use fill-opacity="0.5" fill="#CC3333" fill-rule="evenodd" xlink:href="#path-1"></use>
                <rect stroke-opacity="0.7" stroke="#CC3333" stroke-width="1" x="10.5" y="11.5" width="9" height="9"></rect>
            </g>
        </g>
    </g>
</svg>