<?xml version="1.0" encoding="UTF-8" standalone="no"?>
<svg width="45px" height="48px" viewBox="0 0 45 48" version="1.1" xmlns="http://www.w3.org/2000/svg" xmlns:xlink="http://www.w3.org/1999/xlink">
    <!-- Generator: Sketch 47.1 (45422) - http://www.bohemiancoding.com/sketch -->
    <title>Page 1</title>
    <desc>Created with Sketch.</desc>
    <defs>
        <polygon id="path-1" points="0.000108377075 0 44.4653023 0 44.4653023 48 0.000108377075 48"></polygon>
    </defs>
    <g id="Welcome" stroke="none" stroke-width="1" fill="none" fill-rule="evenodd">
        <g id="Page-1">
            <mask id="mask-2" fill="white">
                <use xlink:href="#path-1"></use>
            </mask>
            <g id="Clip-2"></g>
            <path d="M44.3288558,38.1634233 C44.0336,37.6220279 43.3556465,37.4227721 42.8142512,37.7178419 C42.0724837,38.122307 41.121414,38.5967256 40.8053209,38.702214 C40.5612279,38.7176558 40.2220651,38.7755163 39.6665302,38.8724465 C39.253693,38.9446326 38.5688558,39.0642605 38.3411349,39.0698419 C38.2603907,39.0601674 38.0613209,39.0110512 37.8949953,38.9695628 C38.1394605,38.418307 38.2927628,37.8713302 38.3208558,37.5100279 C38.4157395,37.306493 38.7776,36.8491907 39.1156465,36.5096558 C39.5508093,36.0737488 39.5506233,35.3675163 39.1149023,34.9317953 C38.6791814,34.4958884 37.9720186,34.4958884 37.5362977,34.9317953 C36.8832744,35.5848186 36.1059721,36.5362605 36.0931349,37.374586 C36.0579721,37.6620279 35.7147163,38.4313302 35.4726698,38.7448186 C35.193414,38.8093767 34.9247628,38.9228651 34.6791814,39.1072372 C34.3318326,39.3677023 33.6412279,39.8279814 33.0319256,40.2341209 C31.9962047,40.9247256 31.7381581,41.1018419 31.5904372,41.2497488 C31.3063442,41.5204465 29.9013209,42.1403535 30.3844837,41.4255628 C30.4607628,41.3126326 30.5653209,41.1578419 30.5993674,41.1150512 C30.5835535,41.1349581 30.5684837,41.1498419 30.5567628,41.1615628 C30.5727628,41.1457488 32.1109953,39.3827721 32.1833674,38.222586 C32.2758326,37.934586 32.7602977,37.1926326 32.9710884,36.870214 C33.1742512,36.5591442 33.2929488,36.3757023 33.3651349,36.2307721 C33.4306233,36.110214 33.7242047,35.6624 34.0438326,35.1807256 C35.3322047,34.4659349 37.105414,33.486214 37.3364837,33.3706791 C37.9320186,33.0728186 39.7703442,31.2346791 40.0667163,30.6419349 C40.1171349,30.5455628 40.3487628,30.1877953 40.5348093,29.9001674 C41.1824372,28.8999814 41.6241116,28.2019349 41.7891349,27.7427721 C41.9699721,27.4037953 42.965507,26.2227721 43.7995535,25.3126326 C44.2162977,24.8581209 44.185414,24.1518884 43.7309023,23.7355163 C43.2767628,23.3187721 42.5707163,23.3496558 42.1539721,23.8039814 C40.6892279,25.4019349 39.8587163,26.4757953 39.6873674,26.9900279 C39.5878326,27.2549581 38.9616,28.222214 38.6605767,28.6869581 C38.3573209,29.1556093 38.185786,29.4224 38.0909023,29.602493 C37.8663442,29.9249116 36.777786,31.0188651 36.3675535,31.3424 L38.2077395,27.662214 C38.2522047,27.5734698 38.2845767,27.4791442 38.3039256,27.3818419 C38.3986233,26.9081674 38.8631814,24.5461209 38.8830884,23.6826791 C38.9703442,23.3883535 39.5342512,22.5779349 40.0901581,21.9511442 C40.4996465,21.490307 40.4581581,20.7848186 39.997507,20.3751442 C39.5362977,19.9654698 38.8309953,20.0069581 38.421507,20.4677953 C37.6138791,21.3764465 36.6510884,22.662214 36.6510884,23.6281674 C36.6510884,24.0097488 36.3980651,25.5096558 36.1437395,26.798214 L33.797693,31.490493 C33.7000186,31.6704 33.0946233,32.578307 32.6525767,33.2413767 C32.5917395,33.3327256 32.5342512,33.4188651 32.4786233,33.5024 C32.2397395,33.6681674 32.0840186,33.9150512 32.0259721,34.1842605 C31.6427163,34.7641674 31.4525767,35.0640744 31.3755535,35.2181209 C31.3418791,35.2817488 31.2030884,35.494214 31.1018791,35.6491907 C30.4564837,36.6374698 29.9919256,37.3969116 29.9558326,38.0575628 C29.8462512,38.3928186 29.2107163,39.322307 28.9669953,39.5941209 C28.8386233,39.7254698 28.7229023,39.8968186 28.5346233,40.1753302 C28.3539721,40.4428651 27.873786,41.1533767 27.6598326,41.3038884 C27.3312744,41.5230512 26.8263442,41.9831442 26.0336,42.7148651 C25.5504372,43.1606326 22.1251349,43.2428651 22.3364837,42.2690977 C22.3869023,42.1894698 22.4304372,42.1042605 22.4598326,42.0106791 C22.6241116,41.7459349 23.3528558,41.1533767 23.7076465,40.8650047 C24.3502512,40.3424 24.6416,40.0970047 24.8081116,39.7634233 C24.8749023,39.6404465 25.2027163,39.158586 25.4663442,38.7716093 C25.9720186,38.0285395 26.537786,37.1961674 26.8109023,36.6821209 C28.0032744,34.9794233 29.3643907,33.0839814 29.6287628,32.7877953 C29.9007628,32.5444465 31.249786,31.7628651 31.7550884,31.510214 C31.9679256,31.4037953 32.3242047,31.2255628 33.2909023,29.5606326 C34.1258791,28.1226791 34.2205767,27.6579349 34.2311814,27.4274233 C34.2713674,27.2962605 34.4038326,27.0129116 34.477693,26.8553302 C34.6512744,26.4839814 34.7707163,26.2287256 34.7883907,25.9366326 C34.8328558,25.6618419 35.1325767,24.4577488 35.289414,23.9870512 C35.3889488,23.7221209 36.0149953,22.7548651 36.3162047,22.2901209 C36.641414,21.7876093 36.8151814,21.5170977 36.905414,21.3366326 C37.6877395,19.7719814 38.013507,19.2248186 38.1381581,19.0380279 C38.4412279,18.5835163 39.9761116,17.074307 40.4992744,16.8125395 C41.5349953,16.294586 42.121786,14.6333767 42.3792744,13.6891907 C42.541507,13.0947721 42.1911814,12.4821209 41.5969488,12.3193302 C41.0023442,12.1569116 40.3891349,12.5066791 40.2256,13.1007256 C40.0308093,13.8093767 39.6642977,14.6369116 39.4587163,14.8372837 C39.4112744,14.862214 39.3604837,14.8927256 39.309507,14.9234233 C39.3498791,14.194307 39.3684837,13.2166326 39.2354605,12.6214698 C39.2518326,12.3042605 39.6317395,11.3494698 40.0499721,10.5807256 C40.3448558,10.0395163 40.145414,9.36174884 39.6042047,9.06667907 C39.0637395,8.7719814 38.3852279,8.97067907 38.089786,9.51226047 C37.4853209,10.6203535 36.8153674,12.1437023 37.0564837,13.1081674 C37.1344372,13.4197953 37.1128558,14.4724465 37.0436465,15.3416558 L36.1932279,17.2127256 C36.1882047,17.2235163 36.1835535,17.234307 36.1789023,17.2452837 L35.2486698,19.4778419 C35.2010419,19.5922605 35.1748093,19.7098419 35.1664372,19.8270512 C35.0842047,19.9889116 34.9993674,20.1567256 34.9100651,20.3351442 C34.8596465,20.4315163 34.6278326,20.7892837 34.441786,21.0769116 C33.7748093,22.1072372 33.3262512,22.8168186 33.173507,23.2750512 C33.0884837,23.530307 32.6754605,24.9764465 32.5785302,25.6398884 C32.5493209,25.7085395 32.4962977,25.8218419 32.4553674,25.9094698 C32.2211349,26.4101209 32.0469953,26.8080744 32.0081116,27.1907721 C31.8300651,27.6752372 30.9521116,29.1855628 30.6168558,29.5872372 C30.3147163,29.7483535 29.577414,30.1492837 28.9461581,30.5496558 C29.4946233,29.2856558 31.469693,25.6908651 31.4896,25.6544 C31.7869023,25.1141209 31.589693,24.4354233 31.0496,24.138307 C30.5098791,23.8413767 29.8304372,24.038214 29.533693,24.578493 C29.4490419,24.7323535 27.4540651,28.3626791 26.8810419,29.6999814 C26.5776,30.4080744 26.149507,31.7420279 25.7357395,33.0322605 C25.4112744,34.0439814 25.0073674,35.3033302 24.8620651,35.5939349 C24.677507,35.9628651 23.645693,35.8050977 23.8983442,34.9077953 C24.0961116,34.2041674 24.1612279,33.9729116 24.1794605,33.8026791 C24.2244837,33.5997023 24.4179721,32.8964465 24.5751814,32.3256558 C24.8551814,31.3079814 25.1725767,30.1546791 25.2806698,29.6144 C25.4196465,28.9193302 25.553414,27.8837953 25.6235535,27.0370977 C25.9269953,26.8813767 26.1569488,26.5922605 26.2172279,26.230214 C26.329786,25.5556093 28.0445767,23.1997023 29.3776,22.0570047 C30.5941581,21.0144 31.0030884,19.2238884 31.301693,17.9163535 C31.3872744,17.5410977 31.4760186,17.1530047 31.5482047,16.9729116 C31.8583442,16.1974698 32.6896,13.3118884 32.741693,12.534214 C32.7831814,12.2964465 33.0583442,11.450493 33.2603907,10.8296558 C33.4592744,10.2171907 33.6652279,9.58407442 33.8176,9.05105116 C34.2451349,7.55449302 34.0482977,5.72156279 34.0395535,5.64435349 C33.9716465,5.03170233 33.4189023,4.59151628 32.8069953,4.65812093 C32.1941581,4.72621395 31.7526698,5.27821395 31.8209488,5.89086512 C31.865786,6.29588837 31.9266233,7.54277209 31.6708093,8.43765581 C31.5296,8.9319814 31.3301581,9.54574884 31.1372279,10.1392372 C31.0501581,10.4073302 30.9738791,10.642493 30.9074605,10.8508651 C30.7681116,10.262586 30.6010419,9.68286512 30.4319256,9.2599814 C30.2276465,8.74965581 30.2789953,7.74705116 30.3069023,7.20826047 C30.3169488,7.01179535 30.325507,6.84212093 30.325507,6.69793488 C30.325507,6.39207442 30.5104372,4.73086512 30.6892279,3.30146977 C30.765507,2.68974884 30.3316465,2.13179535 29.7199256,2.05533023 C29.1085767,1.97867907 28.5500651,2.41272558 28.4736,3.02444651 C28.4101581,3.53309767 28.0929488,6.10053953 28.0929488,6.69793488 C28.0929488,6.79895814 28.0853209,6.93477209 28.0771349,7.09384186 C28.0356465,7.9024 27.9729488,9.12435349 28.3588093,10.0891907 C28.6896,10.9163535 29.0231814,12.6231442 29.0231814,13.0235163 C29.0231814,13.6075163 29.1932279,15.8339349 29.2125767,16.0858419 C29.2248558,16.2473302 29.2739721,16.3963535 29.3465302,16.530307 C29.269693,16.7941209 29.2002977,17.0901209 29.1251349,17.4192372 C28.8957395,18.4235163 28.581507,19.7989581 27.9247628,20.3619349 C27.297414,20.8996093 26.3147163,21.9546791 25.4882977,23.0696558 C25.4882977,22.8642605 25.5776,21.9530047 25.6492279,21.2205395 C25.7766698,19.914307 25.8603907,19.026493 25.8603907,18.6049116 C25.8603907,18.2067721 25.7870884,17.6826791 25.7022512,17.0756093 C25.6019721,16.3595163 25.4882977,15.5477953 25.4882977,14.8839814 C25.4882977,13.9500279 25.7154605,13.3275163 25.7936,13.1730977 C26.1539721,12.734586 26.1292279,12.0856558 25.7195535,11.6759814 C25.2838326,11.2400744 24.5766698,11.2400744 24.1409488,11.6759814 C23.6196465,12.1970977 23.2557395,13.5161674 23.2557395,14.8839814 C23.2557395,15.7033302 23.3807628,16.5969116 23.4910884,17.3850047 C23.5582512,17.8653767 23.6278326,18.3621209 23.6278326,18.6049116 C23.6278326,18.9492837 23.5165767,20.0882605 23.4270884,21.0034233 C23.3208558,22.090307 23.2557395,22.7716093 23.2557395,23.0700279 C23.2557395,23.3736558 23.2959256,23.8739349 23.3424372,24.4530977 C23.3889488,25.0341209 23.441786,25.6925395 23.441786,26.0467721 C23.441786,26.7163535 23.2618791,28.3250977 23.0914605,29.1766326 C22.9989953,29.6389581 22.6795535,30.8000744 22.4226233,31.7330977 C22.4168558,31.7546791 22.4112744,31.7740279 22.405507,31.7950512 C22.0322977,30.9846326 21.5545302,29.5180279 21.3649488,28.7649116 C21.2789953,28.2052837 21.7195535,25.6276093 21.8962977,25.0973767 C22.1078326,24.462214 22.1394605,22.5053767 22.1394605,21.3956093 C22.1394605,20.7790512 21.6397395,20.2793302 21.0231814,20.2793302 C20.4068093,20.2793302 19.9069023,20.7790512 19.9069023,21.3956093 C19.9069023,22.5870512 19.8531349,24.0750512 19.7731349,24.4071442 C19.6071814,24.9291907 18.9162047,28.1749581 19.1960186,29.294214 C19.2038326,29.3252837 20.0389953,32.486214 20.8745302,33.6002605 C21.1625302,33.9844465 21.1811349,34.8802605 21.0804837,35.1820279 C20.9625302,35.5355163 21.0324837,35.9059349 21.2347163,36.1868651 C20.9794605,37.1712372 20.2222512,35.8560744 19.3474605,34.5437023 C18.8244837,33.7595163 17.5740651,30.4478884 17.0401116,29.0339349 C16.8836465,28.6196093 16.7588093,28.2895628 16.6804837,28.0910512 C16.7039256,28.0246326 16.7219721,27.9559814 16.7323907,27.8843535 C16.8492279,27.5570977 17.421507,26.498307 17.7684837,25.8564465 C18.041414,25.3515163 18.2992744,24.874493 18.4868093,24.4994233 C19.061507,23.3496558 19.0224372,22.1053767 18.9906233,21.1055628 C18.9837395,20.8871442 18.9766698,20.6728186 18.9766698,20.4653767 C18.9766698,19.9584 19.0724837,19.2657488 19.1649488,18.5957953 C19.2594605,17.9115163 19.3487628,17.2650047 19.3487628,16.7444465 C19.3487628,16.6880744 19.3511814,16.6197953 19.3547163,16.5466791 C20.2976,13.8616558 20.4401116,13.190586 20.4613209,12.9399814 C20.5794605,12.4694698 21.3796465,10.626493 21.6579721,10.2452837 C22.2951814,9.55802791 22.8836465,7.41179535 22.8836465,6.69793488 C22.8836465,6.57458605 22.9491349,6.23970233 23.0016,5.97049302 C23.1149023,5.39077209 23.2557395,4.66909767 23.2557395,3.90723721 C23.2557395,3.34165581 23.717507,2.25235349 24.045693,1.65867907 C24.3450419,1.11970233 24.1508093,0.440074419 23.6118326,0.140539535 C23.0726698,-0.158995349 22.393414,0.0356093023 22.0938791,0.574213953 C21.9842977,0.771609302 21.0231814,2.54109767 21.0231814,3.90723721 C21.0231814,4.45309767 20.9102512,5.03188837 20.8105302,5.54277209 C20.7249488,5.98053953 20.6510884,6.35877209 20.6510884,6.69253953 C20.6380651,7.05737674 20.2319256,8.40286512 20.0101581,8.73923721 C19.8304372,8.93979535 19.5900651,9.34556279 19.3444837,9.83021395 C19.3296,8.65830698 19.2722977,7.77588837 19.1056,7.27505116 C18.9971349,6.95002791 18.7906233,5.46463256 18.9682977,4.04565581 C19.2202047,2.02928372 18.3731349,1.29495814 18.1076465,1.11784186 C17.5945302,0.775702326 16.901507,0.914493023 16.5595535,1.42742326 C16.2548093,1.88472558 16.3318326,2.48509767 16.7152744,2.85235349 C16.7467163,2.93030698 16.8246698,3.19430698 16.7526698,3.76863256 C16.5619721,5.29495814 16.7202977,7.17886512 16.9870884,7.97979535 C17.0354605,8.1344 17.1162047,8.6811907 17.1162047,10.6049116 C17.1162047,11.4162605 17.1162047,12.4227721 17.3465302,13.1498419 C17.3876465,13.4566326 17.289414,14.5018419 17.2300651,15.1314233 C17.1965767,15.4858419 17.1647628,15.8276093 17.1431814,16.1321674 C17.1169488,16.2497488 17.1111814,16.3682605 17.1229023,16.4836093 C17.1188093,16.5764465 17.1162047,16.6648186 17.1162047,16.7444465 C17.1162047,17.1115163 17.033414,17.7107721 16.953414,18.290307 C16.8507163,19.0350512 16.7441116,19.8049116 16.7441116,20.4653767 C16.7441116,20.6957023 16.7513674,20.9336558 16.7591814,21.1760744 C16.7865302,22.0400744 16.8123907,22.8560744 16.4899721,23.5009116 C16.3182512,23.8443535 16.0687628,24.3059349 15.8045767,24.7946791 C15.7660651,24.8659349 15.7307163,24.9316093 15.6942512,24.9991442 C15.4451349,24.0832372 15.2557395,23.2464 15.2557395,22.8839814 C15.2557395,21.7347721 15.0717395,19.8067721 14.8620651,18.7580279 C14.7513674,18.2043535 14.5863442,17.7641674 14.4406698,17.3757023 C14.3078326,17.0216558 14.1932279,16.7159814 14.1178791,16.3394233 C14.0514605,16.0075163 14.1802047,14.9250977 14.2492279,14.3435163 C14.3740651,13.2936558 14.4395535,12.7435163 14.2088558,12.3232372 C14.1394605,11.8601674 14.1394605,10.5115163 14.1394605,10.0467721 C14.1394605,8.75449302 13.6043907,8.11895814 13.4404837,7.95505116 C13.0047628,7.51914419 12.2976,7.51914419 11.8618791,7.95505116 C11.4469953,8.36993488 11.4269023,9.03002791 11.8016,9.46872558 C11.8241116,9.51002791 11.9069023,9.68714419 11.9069023,10.0467721 C11.9069023,11.8834233 11.9482047,12.7007256 12.1277395,13.1749581 C12.1141581,13.3924465 12.0680186,13.7805395 12.0322977,14.0800744 C11.8918326,15.2609116 11.8023442,16.1455628 11.9286698,16.7771907 C12.0393674,17.3308651 12.2043907,17.7712372 12.3500651,18.1595163 C12.4829023,18.5135628 12.597507,18.8192372 12.6728558,19.1957953 C12.8349023,20.0060279 13.0231814,21.7935628 13.0231814,22.8839814 C13.0231814,24.2917953 14.2810419,28.1040744 14.5913674,28.8798884 C14.665414,29.0642605 14.7911814,29.398214 14.9515535,29.822586 C15.8998326,32.3340279 16.8769488,34.8631442 17.489786,35.782214 C17.9136,36.4177488 16.8869953,39.7838884 16.389507,38.3515163 C15.921786,37.0043535 15.6702512,36.2864 15.5100651,35.9660279 C15.3541581,35.654214 15.1050419,35.3591442 14.7939721,35.0741209 C14.6719256,34.6741209 14.4948093,33.9658419 14.3887628,33.5416558 C14.245693,32.9690047 14.1543442,32.6071442 14.0823442,32.3913302 C14.0462512,32.2836093 13.9958326,32.1081674 13.9331349,31.8921674 C13.5506233,30.5760744 13.1340651,29.2331907 12.6198326,28.5479814 C12.3158326,28.0923535 11.4840186,25.3336558 10.9435535,23.1712372 C10.9351814,23.1381209 10.1402047,19.9740279 9.45983256,18.4804465 C9.47787907,18.4006326 9.48829767,18.3180279 9.48829767,18.2328186 L9.48829767,15.814214 C9.48829767,15.6826791 9.49555349,15.5509581 9.50206512,15.4209116 C9.5351814,14.7650977 9.58522791,13.774214 8.78932093,12.978307 C8.7111814,12.8999814 8.70094884,12.8899349 8.7268093,12.5024 C8.73499535,12.3803535 8.74411163,12.2419349 8.74411163,12.0932837 C8.74411163,11.5801674 8.62671628,10.6642605 8.47787907,9.5048186 C8.44085581,9.21663256 8.40215814,8.91542326 8.36364651,8.60584186 C8.16811163,7.04286512 7.60457674,5.15449302 7.58076279,5.07467907 C7.40346047,4.48435349 6.78225116,4.14909767 6.1911814,4.3264 C5.60066977,4.50333023 5.26541395,5.12546977 5.44234419,5.71616744 C5.44773953,5.73384186 5.97611163,7.5076093 6.1480186,8.88286512 C6.18708837,9.19467907 6.22615814,9.49849302 6.26336744,9.78891163 C6.39099535,10.7835163 6.51155349,11.7228651 6.51155349,12.0932837 C6.51155349,12.1799814 6.50504186,12.2670512 6.49927442,12.3537488 C6.46448372,12.8769116 6.40606512,13.7522605 7.21071628,14.5569116 C7.2923907,14.638586 7.29573953,14.8452837 7.27229767,15.3083535 C7.26411163,15.4692837 7.25573953,15.6356093 7.25573953,15.814214 L7.25573953,16.0748651 C7.2551814,16.074493 7.2548093,16.0741209 7.25425116,16.0737488 C6.7720186,15.6930977 6.27304186,15.2992372 5.81257674,14.8387721 C4.8868093,13.9130047 4.06913488,12.1187721 3.83229767,11.5055628 C3.61071628,10.9306791 2.96532093,10.6445395 2.38987907,10.8651907 C1.81443721,11.086586 1.52736744,11.7325395 1.74894884,12.3077953 C1.79025116,12.4157023 2.78094884,14.9643535 4.23397209,16.4173767 C4.78708837,16.970493 5.36308837,17.4251907 5.87099535,17.8261209 C6.55415814,18.3652837 7.14411163,18.8309581 7.37369302,19.2901209 C7.8603907,20.2637023 8.56792558,22.8748651 8.77741395,23.7128186 C8.99248372,24.5725395 10.101507,28.9107721 10.8280186,29.8793302 C11.1470884,30.3050047 11.613507,31.9104 11.7893209,32.5148651 C11.8587163,32.7539349 11.9154605,32.9476093 11.9569488,33.074493 C11.7768558,32.9388651 11.5787163,32.7881674 11.3820651,32.638586 C10.3679256,31.866307 9.89425116,31.5131907 9.61555349,31.3738419 C9.53592558,31.3340279 9.44364651,31.2936558 9.3431814,31.2506791 C9.17369302,31.1781209 8.91769302,31.0681674 8.89704186,30.9851907 C8.69648372,30.1833302 7.96364651,29.0990512 6.85090233,27.6157023 C6.69797209,27.3723535 6.64253023,26.5796093 6.68550698,25.2596093 C6.69220465,25.0566326 6.6976,24.8804465 6.6976,24.7444465 C6.6976,23.6888186 6.19248372,22.474493 5.44048372,21.722493 C5.17536744,21.4571907 4.82857674,20.3159814 4.71453023,19.9409116 C4.66857674,19.7892837 4.62820465,19.6570047 4.59397209,19.5541209 C3.88755349,17.4352372 3.59527442,16.5584 2.60457674,16.5584 C1.98820465,16.5584 1.48829767,17.0581209 1.48829767,17.6746791 C1.48829767,17.982214 1.61276279,18.2607256 1.81387907,18.462586 C1.89983256,18.6410047 2.08848372,19.0977488 2.47583256,20.2601674 C2.50504186,20.3479814 2.53927442,20.4607256 2.57853023,20.5898419 C2.89369302,21.6276093 3.25257674,22.6917953 3.86187907,23.3010977 C4.18541395,23.6246326 4.44811163,24.2443535 4.46243721,24.7042605 L4.40625116,24.6761674 C4.38950698,24.6677953 4.32346047,24.6244465 4.27378605,24.5824 C4.23694884,24.1375628 3.93648372,23.2797023 1.49778605,22.3930047 C0.918809302,22.1820279 0.278809302,22.4810047 0.0678325581,23.0599814 C-0.143144186,23.6389581 0.155274419,24.2795163 0.734251163,24.4908651 C1.24662326,24.6780279 1.82299535,24.9550512 2.08904186,25.1349581 C2.29722791,26.0707721 3.2068093,26.5725395 3.40773953,26.6730047 L4.48773953,27.2130977 C4.55992558,27.8971907 4.72271628,28.4986791 5.06057674,28.9490977 C6.08178605,30.3107721 6.64383256,31.1781209 6.73090233,31.5267721 C7.0203907,32.6839814 7.99527442,33.1018419 8.46392558,33.3027721 C8.51583256,33.3249116 8.5643907,33.3450047 8.60643721,33.3654698 C8.80215814,33.4802605 9.53983256,34.0417488 10.029693,34.4147721 C10.5619721,34.8201674 11.0218791,35.170307 11.2877395,35.3476093 C11.3954605,35.4194233 11.5418791,35.5107721 11.7121116,35.6168186 C11.9601116,35.7710512 12.5249488,36.1228651 12.961786,36.450307 C13.0905302,36.6586791 13.2590884,36.8346791 13.4923907,36.934586 C13.4992744,36.9444465 13.5080186,36.9550512 13.5132279,36.9645395 C13.6161116,37.170307 13.9690419,38.1868651 14.2804837,39.0837953 C14.9902512,41.1275163 15.0546233,44.4430512 13.0484837,42.7076093 C11.5132279,41.3796093 10.3219721,40.0464 10.0853209,39.6324465 C9.44773953,38.5161674 8.60457674,38.0129116 7.57871628,37.642493 C7.5671814,37.6036093 7.5588093,37.5643535 7.5428093,37.526214 C7.4280186,37.0895628 7.25573953,35.0002605 7.25573953,34.2328186 C7.25573953,33.0436093 6.10857674,32.2410047 5.18690233,31.5959814 C5.03527442,31.4899349 4.89015814,31.3887256 4.77034419,31.2992372 C4.5591814,31.1079814 4.22113488,30.1755163 4.07490233,29.3807256 C3.9640186,28.7747721 3.38169302,28.3730977 2.77704186,28.4832372 C2.17034419,28.5935628 1.76811163,29.1747721 1.87843721,29.7812837 C1.98411163,30.362307 2.40773953,32.3176558 3.42336744,33.0791442 C3.56866977,33.1883535 3.73387907,33.3042605 3.90690233,33.4253767 C4.22336744,33.646586 4.86373953,34.0947721 5.02634419,34.3375628 C5.03787907,34.682493 5.08308837,35.8168186 5.1911814,36.830214 C4.14746047,36.2257488 2.85946047,34.8179349 2.19527442,33.9349581 C1.8256,33.4421209 1.12606512,33.3418419 0.632669767,33.7118884 C0.139274419,34.0817488 0.0393674419,34.7814698 0.409413953,35.2746791 C0.660390698,35.6093767 2.9243907,38.5637953 5.07471628,39.2090047 C5.28792558,39.2728186 5.49164651,39.3321674 5.68625116,39.3887256 C7.1908093,39.8257488 7.73220465,40.0138419 8.14708837,40.7401674 C8.60997209,41.5500279 10.1653209,43.1870512 11.7651349,44.5479814 C14.2447628,46.6577488 16.5132279,47.6279814 17.3022512,47.6279814 C17.4741581,47.6279814 21.357507,48.0000744 22.1392744,48.0000744 C23.0148093,47.9998884 24.3009488,47.4568186 25.6741581,47.2558884 C26.2862512,47.166214 28.293507,46.5397953 29.225414,45.9807256 C30.2228093,45.3824 32.7286698,43.2369116 33.1219721,42.8733767 C33.2598326,42.7654698 33.8425302,42.3770047 34.2704372,42.0917953 C34.9117395,41.6642605 35.5733209,41.2229581 35.9755535,40.9250977 C36.025786,40.9221209 36.0763907,40.9159814 36.1268093,40.9059349 C36.4484837,40.9079814 37.0239256,41.0525395 37.2968558,41.1210047 C37.7000186,41.2224 38.0185302,41.302586 38.325507,41.302586 C38.701507,41.302586 39.2527628,41.2110512 40.0509023,41.0717023 C40.3772279,41.0147721 40.8241116,40.9366326 40.9301581,40.930493 C41.1597395,40.930493 41.5870884,40.930493 43.8832744,39.6778419 C44.4246698,39.382586 44.6239256,38.7046326 44.3288558,38.1634233" id="Fill-1" fill="#66B7EA" mask="url(#mask-2)"></path>
        </g>
    </g>
</svg>