<?xml version="1.0" standalone="no"?>
<!DOCTYPE svg PUBLIC "-//W3C//DTD SVG 20010904//EN"
 "http://www.w3.org/TR/2001/REC-SVG-20010904/DTD/svg10.dtd">
<svg version="1.0" xmlns="http://www.w3.org/2000/svg"
 width="56.000000pt" height="56.000000pt" viewBox="0 0 56.000000 56.000000"
 preserveAspectRatio="xMidYMid meet">

<g transform="translate(0.000000,56.000000) scale(0.100000,-0.100000)"
fill="#E65100" stroke="none">
<path d="M220 511 c-112 -36 -174 -119 -174 -231 0 -137 96 -234 234 -234 138
0 234 97 234 234 0 95 -44 169 -128 212 -43 22 -128 32 -166 19z m130 -166
l65 -65 -68 -68 -67 -67 -67 67 -68 68 65 65 c35 36 67 65 70 65 3 0 35 -29
70 -65z"/>
</g>
</svg>
