<?xml version="1.0" encoding="UTF-8" standalone="no"?>
<svg width="52px" height="68px" viewBox="0 0 52 68" version="1.1" xmlns="http://www.w3.org/2000/svg" xmlns:xlink="http://www.w3.org/1999/xlink">
    <!-- Generator: Sketch 42 (36781) - http://www.bohemiancoding.com/sketch -->
    <title>Group 2</title>
    <desc>Created with Sketch.</desc>
    <defs>
        <polygon id="path-1" points="0 68 52 68 52 0 0 0"></polygon>
    </defs>
    <g id="Symbols" stroke="none" stroke-width="1" fill="none" fill-rule="evenodd">
        <g id="Logos/GEO_compacto-verde">
            <g id="Group-2">
                <mask id="mask-2" fill="white">
                    <use xlink:href="#path-1"></use>
                </mask>
                <use id="fondo" fill-opacity="0.1" fill="#FFFFFF" xlink:href="#path-1"></use>
                <path d="M12.8125,9.5625 L10,9.5625 L10,10.875 L11.378,10.875 C11.342,11.704 11.2355,11.9865 11,12.247 C10.7755,12.506 10.427,12.6745 10,12.6745 C9.573,12.6745 9.213,12.506 8.9885,12.247 C8.6855,11.91 8.6075,11.539 8.6075,10 C8.6075,8.461 8.6855,8.09 8.9885,7.753 C9.213,7.494 9.573,7.3255 10,7.3255 C10.427,7.3255 10.7755,7.494 11,7.753 C11.1535,7.9235 11.252,8.1025 11.3125,8.4375 L12.7735,8.4375 C12.707,7.722 12.5305,7.2365 12.0555,6.7635 C11.5135,6.2245 10.802,5.9325 10,5.9325 C9.198,5.9325 8.4865,6.2245 7.9445,6.7635 C7.1875,7.5165 7.1875,8.303 7.1875,10 C7.1875,11.697 7.1875,12.4835 7.9445,13.2365 C8.4865,13.7755 9.198,14.0675 10,14.0675 C10.802,14.0675 11.5135,13.7755 12.0555,13.2365 C12.8125,12.4835 12.8125,11.697 12.8125,10 L12.8125,9.5625 Z" id="Fill-1" fill="#15B750" mask="url(#mask-2)"></path>
                <path d="M12.8125,25.5625 L10,25.5625 L10,26.875 L11.378,26.875 C11.342,27.704 11.2355,27.9865 11,28.247 C10.7755,28.506 10.427,28.6745 10,28.6745 C9.573,28.6745 9.213,28.506 8.9885,28.247 C8.6855,27.91 8.6075,27.539 8.6075,26 C8.6075,24.461 8.6855,24.09 8.9885,23.753 C9.213,23.494 9.573,23.3255 10,23.3255 C10.427,23.3255 10.7755,23.494 11,23.753 C11.1535,23.9235 11.252,24.1025 11.3125,24.4375 L12.7735,24.4375 C12.707,23.722 12.5305,23.2365 12.0555,22.7635 C11.5135,22.2245 10.802,21.9325 10,21.9325 C9.198,21.9325 8.4865,22.2245 7.9445,22.7635 C7.1875,23.5165 7.1875,24.303 7.1875,26 C7.1875,27.697 7.1875,28.4835 7.9445,29.2365 C8.4865,29.7755 9.198,30.0675 10,30.0675 C10.802,30.0675 11.5135,29.7755 12.0555,29.2365 C12.8125,28.4835 12.8125,27.697 12.8125,26 L12.8125,25.5625 Z" id="Fill-3" fill="#15B750" mask="url(#mask-2)"></path>
                <polygon id="Fill-5" fill="#15B750" mask="url(#mask-2)" points="23.1875 14 23.1875 6 28.8125 6 28.8125 7.3935 24.749 7.3935 24.749 9.2695 28.25 9.2695 28.25 10.663 24.749 10.663 24.749 12.6065 28.8125 12.6065 28.8125 14"></polygon>
                <path d="M43,12.24705 C42.7755,12.50605 42.427,12.67405 42,12.67405 C41.573,12.67405 41.213,12.50605 40.9885,12.24705 C40.6855,11.91005 40.6075,11.53905 40.6075,10.00005 C40.6075,8.46105 40.6855,8.09005 40.9885,7.75305 C41.213,7.49405 41.573,7.32555 42,7.32555 C42.427,7.32555 42.7755,7.49405 43,7.75305 C43.3035,8.09005 43.3935,8.46105 43.3935,10.00005 C43.3935,11.53905 43.3035,11.91005 43,12.24705 M44.0555,6.76355 C43.5135,6.22455 42.802,5.93255 42,5.93255 C41.198,5.93255 40.4865,6.22455 39.9445,6.76355 C39.1875,7.51655 39.1875,8.30305 39.1875,10.00005 C39.1875,11.69655 39.1875,12.48355 39.9445,13.23655 C40.4865,13.77555 41.198,14.06755 42,14.06755 C42.802,14.06755 43.5135,13.77555 44.0555,13.23655 C44.8125,12.48355 44.8125,11.69655 44.8125,10.00005 C44.8125,8.30305 44.8125,7.51655 44.0555,6.76355" id="Fill-7" fill="#15B750" mask="url(#mask-2)"></path>
                <path d="M24.749,23.39355 L26.2725,23.39355 C26.9805,23.39355 27.4295,23.84255 27.4295,24.49405 C27.4295,25.14605 26.9805,25.58405 26.2725,25.58405 L24.749,25.58405 L24.749,23.39355 Z M29.325,30.00005 L27.625,26.71755 C28.498,26.30255 28.992,25.45505 28.992,24.49405 C28.992,23.13455 28.003,22.00005 26.3515,22.00005 L23.1875,22.00005 L23.1875,30.00005 L24.749,30.00005 L24.749,26.98855 L26.042,26.98855 L27.5155,30.00005 L29.325,30.00005 Z" id="Fill-9" fill="#15B750" mask="url(#mask-2)"></path>
                <path d="M42.03125,24.35935 L41.08225,27.26935 L42.94925,27.26935 L42.03125,24.35935 Z M43.78325,29.99985 L43.33975,28.58385 L40.67075,28.58385 L40.21675,29.99985 L38.68775,29.99985 L41.41975,21.99985 L42.56925,21.99985 L45.31225,29.99985 L43.78325,29.99985 Z" id="Fill-11" fill="#15B750" mask="url(#mask-2)"></path>
                <polygon id="Fill-13" fill="#15B750" mask="url(#mask-2)" points="27.251 46 27.251 42.6515 24.749 42.6515 24.749 46 23.1875 46 23.1875 38 24.749 38 24.749 41.2695 27.251 41.2695 27.251 38 28.8125 38 28.8125 46"></polygon>
                <path d="M10.27245,39.39355 L8.74895,39.39355 L8.74895,41.58405 L10.27245,41.58405 C10.98045,41.58405 11.42945,41.14605 11.42945,40.49405 C11.42945,39.84255 10.98045,39.39355 10.27245,39.39355 M10.35145,42.98855 L8.74895,42.98855 L8.74895,46.00005 L7.18745,46.00005 L7.18745,38.00005 L10.35145,38.00005 C12.00295,38.00005 12.99195,39.13455 12.99195,40.49405 C12.99195,41.85405 12.00295,42.98855 10.35145,42.98855" id="Fill-15" fill="#15B750" mask="url(#mask-2)"></path>
                <polygon id="Fill-17" fill="#15B750" mask="url(#mask-2)" points="42.78125 44.60645 42.78125 39.39345 44.28125 39.39345 44.28125 37.99995 39.71875 37.99995 39.71875 39.39345 41.21875 39.39345 41.21875 44.60645 39.56275 44.60645 39.56275 45.99995 44.43775 45.99995 44.43775 44.60645"></polygon>
                <path d="M11.31445,59.55125 C11.25395,59.89375 11.15545,60.07475 10.99995,60.24725 C10.77545,60.50575 10.42695,60.67425 9.99995,60.67425 C9.57345,60.67425 9.21295,60.50575 8.98845,60.24725 C8.68545,59.91025 8.60645,59.53925 8.60645,57.99975 C8.60645,56.46075 8.68545,56.08975 8.98845,55.75275 C9.21295,55.49425 9.57345,55.32575 9.99995,55.32575 C10.42695,55.32575 10.77545,55.49425 10.99995,55.75275 C11.15345,55.92325 11.25195,56.10275 11.31245,56.43725 L12.77345,56.43725 C12.70695,55.72225 12.53045,55.23625 12.05545,54.76375 C11.51345,54.22475 10.80195,53.93275 9.99995,53.93275 C9.19845,53.93275 8.48645,54.22475 7.94445,54.76375 C7.18745,55.51675 7.18745,56.30325 7.18745,57.99975 C7.18745,59.69675 7.18745,60.48325 7.94445,61.23625 C8.48645,61.77525 9.19845,62.06725 9.99995,62.06725 C10.80195,62.06725 11.51345,61.77525 12.05545,61.23625 C12.53345,60.76125 12.70895,60.27225 12.77445,59.55125 L11.31445,59.55125 Z" id="Fill-19" fill="#15B750" mask="url(#mask-2)"></path>
                <polygon id="Fill-21" fill="#15B750" mask="url(#mask-2)" points="41.219 58.7815 42.7815 58.7815 42.7815 57.219 41.219 57.219"></polygon>
                <path d="M26.03125,56.35935 L25.08225,59.26935 L26.94925,59.26935 L26.03125,56.35935 Z M27.78325,61.99985 L27.33975,60.58385 L24.67075,60.58385 L24.21675,61.99985 L22.68775,61.99985 L25.41975,53.99985 L26.56925,53.99985 L29.31225,61.99985 L27.78325,61.99985 Z" id="Fill-23" fill="#15B750" mask="url(#mask-2)"></path>
                <polygon id="Fill-24" fill="#15B750" mask="url(#mask-2)" points="1.625 2.375 2.375 2.375 2.375 1.625 1.625 1.625"></polygon>
                <polygon id="Fill-25" fill="#15B750" mask="url(#mask-2)" points="17.625 2.375 18.375 2.375 18.375 1.625 17.625 1.625"></polygon>
                <polygon id="Fill-26" fill="#15B750" mask="url(#mask-2)" points="33.625 2.375 34.375 2.375 34.375 1.625 33.625 1.625"></polygon>
                <polygon id="Fill-27" fill="#15B750" mask="url(#mask-2)" points="49.625 2.375 50.375 2.375 50.375 1.625 49.625 1.625"></polygon>
                <polygon id="Fill-28" fill="#15B750" mask="url(#mask-2)" points="1.625 18.375 2.375 18.375 2.375 17.625 1.625 17.625"></polygon>
                <polygon id="Fill-29" fill="#15B750" mask="url(#mask-2)" points="17.625 18.375 18.375 18.375 18.375 17.625 17.625 17.625"></polygon>
                <polygon id="Fill-30" fill="#15B750" mask="url(#mask-2)" points="33.625 18.375 34.375 18.375 34.375 17.625 33.625 17.625"></polygon>
                <polygon id="Fill-31" fill="#15B750" mask="url(#mask-2)" points="49.625 18.375 50.375 18.375 50.375 17.625 49.625 17.625"></polygon>
                <polygon id="Fill-32" fill="#15B750" mask="url(#mask-2)" points="1.625 34.375 2.375 34.375 2.375 33.625 1.625 33.625"></polygon>
                <polygon id="Fill-33" fill="#15B750" mask="url(#mask-2)" points="17.625 34.375 18.375 34.375 18.375 33.625 17.625 33.625"></polygon>
                <polygon id="Fill-34" fill="#15B750" mask="url(#mask-2)" points="33.625 34.375 34.375 34.375 34.375 33.625 33.625 33.625"></polygon>
                <polygon id="Fill-35" fill="#15B750" mask="url(#mask-2)" points="49.625 34.375 50.375 34.375 50.375 33.625 49.625 33.625"></polygon>
                <polygon id="Fill-36" fill="#15B750" mask="url(#mask-2)" points="1.625 50.375 2.375 50.375 2.375 49.625 1.625 49.625"></polygon>
                <polygon id="Fill-37" fill="#15B750" mask="url(#mask-2)" points="17.625 50.375 18.375 50.375 18.375 49.625 17.625 49.625"></polygon>
                <polygon id="Fill-38" fill="#15B750" mask="url(#mask-2)" points="33.625 50.375 34.375 50.375 34.375 49.625 33.625 49.625"></polygon>
                <polygon id="Fill-39" fill="#15B750" mask="url(#mask-2)" points="49.625 50.375 50.375 50.375 50.375 49.625 49.625 49.625"></polygon>
                <polygon id="Fill-40" fill="#15B750" mask="url(#mask-2)" points="1.625 66.375 2.375 66.375 2.375 65.625 1.625 65.625"></polygon>
                <polygon id="Fill-41" fill="#15B750" mask="url(#mask-2)" points="17.625 66.375 18.375 66.375 18.375 65.625 17.625 65.625"></polygon>
                <polygon id="Fill-42" fill="#15B750" mask="url(#mask-2)" points="33.625 66.375 34.375 66.375 34.375 65.625 33.625 65.625"></polygon>
                <polygon id="Fill-43" fill="#15B750" mask="url(#mask-2)" points="49.625 66.375 50.375 66.375 50.375 65.625 49.625 65.625"></polygon>
            </g>
        </g>
    </g>
</svg>