<?xml version="1.0" encoding="UTF-8" standalone="no"?>
<svg width="96px" height="96px" viewBox="0 0 96 96" version="1.1" xmlns="http://www.w3.org/2000/svg" xmlns:xlink="http://www.w3.org/1999/xlink">
    <!-- Generator: Sketch 42 (36781) - http://www.bohemiancoding.com/sketch -->
    <title>Logos/IUCN_white</title>
    <desc>Created with Sketch.</desc>
    <defs></defs>
    <g id="Symbols" stroke="none" stroke-width="1" fill="none" fill-rule="evenodd">
        <g id="Logos/IUCN_white" fill="#FFFFFF">
            <g id="Logos/IUCN_logo_neg">
                <g id="Group-12" transform="translate(1.846154, 3.692308)">
                    <polygon id="Fill-6" points="27.1033846 55.3126154 31.6541538 55.3126154 31.6541538 34.6153846 27.1033846 34.6153846"></polygon>
                    <path d="M52.6406769,47.4852923 C52.6406769,53.0828308 49.3379077,55.8077538 43.7994462,55.8077538 C38.2332923,55.8077538 34.9877538,53.1105231 34.9877538,47.4852923 L34.9877538,34.6139077 L39.5385231,34.6139077 L39.5385231,47.4852923 C39.5385231,49.7449846 40.1182154,51.9788308 43.7994462,51.9788308 C47.0468308,51.9788308 48.0899077,50.5609846 48.0899077,47.4852923 L48.0899077,34.6139077 L52.6406769,34.6139077 L52.6406769,47.4852923" id="Fill-8"></path>
                    <path d="M69.7733538,41.5728 C69.4835077,39.5161846 67.5099692,37.9469538 65.2521231,37.9469538 C61.1628923,37.9469538 59.6268923,41.4269538 59.6268923,45.0509538 C59.6268923,48.5014154 61.1628923,51.9795692 65.2521231,51.9795692 C68.0342769,51.9795692 69.5979692,50.0688 69.9468923,47.3420308 L74.3536615,47.3420308 C73.8884308,52.5001846 70.3253538,55.8066462 65.2521231,55.8066462 C58.8441231,55.8066462 55.0742769,51.0214154 55.0742769,45.0509538 C55.0742769,38.9051077 58.8441231,34.1217231 65.2521231,34.1217231 C69.8010462,34.1217231 73.6299692,36.7875692 74.1801231,41.5728 L69.7733538,41.5728" id="Fill-9"></path>
                    <polygon id="Fill-10" points="76.6731692 34.6144615 81.1962462 34.6144615 89.8325538 48.5012308 89.8916308 48.5012308 89.8916308 34.6144615 94.1544 34.6144615 94.1544 55.3116923 89.6017846 55.3116923 80.9913231 41.4581538 80.9359385 41.4581538 80.9359385 55.3116923 76.6731692 55.3116923"></polygon>
                    <path d="M69.5785846,67.7335385 C63.5822769,73.7206154 55.3262769,77.4203077 46.1822769,77.4221538 C37.0382769,77.4203077 28.7804308,73.7206154 22.7859692,67.7335385 C16.7933538,61.7335385 13.0973538,53.4775385 13.0955077,44.3335385 C13.0973538,35.1876923 16.7933538,26.9335385 22.7859692,20.9390769 C28.7804308,14.9464615 37.0382769,11.2486154 46.1822769,11.2467692 C55.3262769,11.2486154 63.5822769,14.9464615 69.5785846,20.9390769 C70.2690462,21.6313846 70.9281231,22.3513846 71.5558154,23.1009231 L85.0641231,23.1009231 C77.5484308,9.33784615 62.9416615,0.00184615385 46.1545846,0 C21.6801231,0.00184615385 1.84689231,19.8369231 1.84504615,44.3095385 C1.84689231,68.7803077 21.6801231,88.6135385 46.1545846,88.6153846 C62.5373538,88.6135385 76.8395077,79.7224615 84.5065846,66.5021538 L70.7416615,66.5021538 C70.3632,66.9212308 69.9755077,67.3329231 69.5785846,67.7335385 Z" id="Fill-1"></path>
                </g>
            </g>
        </g>
    </g>
</svg>