<?xml version="1.0" encoding="UTF-8" standalone="no"?>
<svg width="52px" height="52px" viewBox="0 0 52 52" version="1.1" xmlns="http://www.w3.org/2000/svg" xmlns:xlink="http://www.w3.org/1999/xlink">
    <!-- Generator: Sketch 42 (36781) - http://www.bohemiancoding.com/sketch -->
    <title>Logos/IUCN_logo_bar</title>
    <desc>Created with Sketch.</desc>
    <defs>
        <linearGradient x1="87.7850925%" y1="81.9620782%" x2="14.171962%" y2="16.1132812%" id="linearGradient-1">
            <stop stop-color="#14406D" offset="0%"></stop>
            <stop stop-color="#0079BA" offset="47.5247532%"></stop>
            <stop stop-color="#EBF4F6" offset="100%"></stop>
        </linearGradient>
    </defs>
    <g id="Symbols" stroke="none" stroke-width="1" fill="none" fill-rule="evenodd">
        <g id="Logos/IUCN_logo_bar">
            <g id="Group-12" transform="translate(1.000000, 2.000000)">
                <polygon id="Fill-6" fill="#000000" points="14.681 29.961 17.146 29.961 17.146 18.75 14.681 18.75"></polygon>
                <path d="M28.5137,25.7212 C28.5137,28.7532 26.7247,30.2292 23.7247,30.2292 C20.7097,30.2292 18.9517,28.7682 18.9517,25.7212 L18.9517,18.7492 L21.4167,18.7492 L21.4167,25.7212 C21.4167,26.9452 21.7307,28.1552 23.7247,28.1552 C25.4837,28.1552 26.0487,27.3872 26.0487,25.7212 L26.0487,18.7492 L28.5137,18.7492 L28.5137,25.7212" id="Fill-8" fill="#000000"></path>
                <path d="M37.7939,22.5186 C37.6369,21.4046 36.5679,20.5546 35.3449,20.5546 C33.1299,20.5546 32.2979,22.4396 32.2979,24.4026 C32.2979,26.2716 33.1299,28.1556 35.3449,28.1556 C36.8519,28.1556 37.6989,27.1206 37.8879,25.6436 L40.2749,25.6436 C40.0229,28.4376 38.0929,30.2286 35.3449,30.2286 C31.8739,30.2286 29.8319,27.6366 29.8319,24.4026 C29.8319,21.0736 31.8739,18.4826 35.3449,18.4826 C37.8089,18.4826 39.8829,19.9266 40.1809,22.5186 L37.7939,22.5186" id="Fill-9" fill="#000000"></path>
                <polygon id="Fill-10" fill="#000000" points="41.5313 18.7495 43.9813 18.7495 48.6593 26.2715 48.6913 26.2715 48.6913 18.7495 51.0003 18.7495 51.0003 29.9605 48.5343 29.9605 43.8703 22.4565 43.8403 22.4565 43.8403 29.9605 41.5313 29.9605"></polygon>
                <path d="M38.3184,36.022 C38.1134,36.249 37.9034,36.472 37.6884,36.689 C34.4404,39.932 29.9684,41.936 25.0154,41.937 C20.0624,41.936 15.5894,39.932 12.3424,36.689 C9.0964,33.439 7.0944,28.967 7.0934,24.014 C7.0944,19.06 9.0964,14.589 12.3424,11.342 C15.5894,8.096 20.0624,6.093 25.0154,6.092 C29.9684,6.093 34.4404,8.096 37.6884,11.342 C38.0624,11.717 38.4194,12.107 38.7594,12.513 L46.0764,12.513 C42.0054,5.058 34.0934,0.001 25.0004,0 C11.7434,0.001 1.0004,10.745 0.9994,24.001 C1.0004,37.256 11.7434,47.999 25.0004,48 C33.8744,47.999 41.6214,43.183 45.7744,36.022 L38.3184,36.022" id="Fill-1" fill="url(#linearGradient-1)"></path>
            </g>
        </g>
    </g>
</svg>