<?xml version="1.0" encoding="UTF-8" standalone="no"?>
<svg width="262px" height="96px" viewBox="0 0 262 96" version="1.1" xmlns="http://www.w3.org/2000/svg" xmlns:xlink="http://www.w3.org/1999/xlink">
    <!-- Generator: Sketch 42 (36781) - http://www.bohemiancoding.com/sketch -->
    <title>Logos/IUCN_orgtext-traz</title>
    <desc>Created with Sketch.</desc>
    <defs></defs>
    <g id="Symbols" stroke="none" stroke-width="1" fill="none" fill-rule="evenodd">
        <g id="Logos/IUCN_orgtext-traz" fill="#FFFFFF">
            <g id="Logos/IUCN_logo_neg">
                <g id="Group-12" transform="translate(1.846154, 3.692308)">
                    <polygon id="Fill-6" points="27.1033846 55.3126154 31.6541538 55.3126154 31.6541538 34.6153846 27.1033846 34.6153846"></polygon>
                    <path d="M52.6406769,47.4852923 C52.6406769,53.0828308 49.3379077,55.8077538 43.7994462,55.8077538 C38.2332923,55.8077538 34.9877538,53.1105231 34.9877538,47.4852923 L34.9877538,34.6139077 L39.5385231,34.6139077 L39.5385231,47.4852923 C39.5385231,49.7449846 40.1182154,51.9788308 43.7994462,51.9788308 C47.0468308,51.9788308 48.0899077,50.5609846 48.0899077,47.4852923 L48.0899077,34.6139077 L52.6406769,34.6139077 L52.6406769,47.4852923" id="Fill-8"></path>
                    <path d="M69.7733538,41.5728 C69.4835077,39.5161846 67.5099692,37.9469538 65.2521231,37.9469538 C61.1628923,37.9469538 59.6268923,41.4269538 59.6268923,45.0509538 C59.6268923,48.5014154 61.1628923,51.9795692 65.2521231,51.9795692 C68.0342769,51.9795692 69.5979692,50.0688 69.9468923,47.3420308 L74.3536615,47.3420308 C73.8884308,52.5001846 70.3253538,55.8066462 65.2521231,55.8066462 C58.8441231,55.8066462 55.0742769,51.0214154 55.0742769,45.0509538 C55.0742769,38.9051077 58.8441231,34.1217231 65.2521231,34.1217231 C69.8010462,34.1217231 73.6299692,36.7875692 74.1801231,41.5728 L69.7733538,41.5728" id="Fill-9"></path>
                    <polygon id="Fill-10" points="76.6731692 34.6144615 81.1962462 34.6144615 89.8325538 48.5012308 89.8916308 48.5012308 89.8916308 34.6144615 94.1544 34.6144615 94.1544 55.3116923 89.6017846 55.3116923 80.9913231 41.4581538 80.9359385 41.4581538 80.9359385 55.3116923 76.6731692 55.3116923"></polygon>
                    <path d="M69.5785846,67.7335385 C63.5822769,73.7206154 55.3262769,77.4203077 46.1822769,77.4221538 C37.0382769,77.4203077 28.7804308,73.7206154 22.7859692,67.7335385 C16.7933538,61.7335385 13.0973538,53.4775385 13.0955077,44.3335385 C13.0973538,35.1876923 16.7933538,26.9335385 22.7859692,20.9390769 C28.7804308,14.9464615 37.0382769,11.2486154 46.1822769,11.2467692 C55.3262769,11.2486154 63.5822769,14.9464615 69.5785846,20.9390769 C70.2690462,21.6313846 70.9281231,22.3513846 71.5558154,23.1009231 L85.0641231,23.1009231 C77.5484308,9.33784615 62.9416615,0.00184615385 46.1545846,0 C21.6801231,0.00184615385 1.84689231,19.8369231 1.84504615,44.3095385 C1.84689231,68.7803077 21.6801231,88.6135385 46.1545846,88.6153846 C62.5373538,88.6135385 76.8395077,79.7224615 84.5065846,66.5021538 L70.7416615,66.5021538 C70.3632,66.9212308 69.9755077,67.3329231 69.5785846,67.7335385 Z" id="Fill-1"></path>
                </g>
            </g>
            <path d="M116.54,41.312 L118.364,41.312 C118.308,40.8159975 118.172001,40.3760019 117.956,39.992 C117.739999,39.6079981 117.466002,39.2860013 117.134,39.026 C116.801998,38.7659987 116.426002,38.5680007 116.006,38.432 C115.585998,38.2959993 115.140002,38.228 114.668,38.228 C114.011997,38.228 113.422003,38.3439988 112.898,38.576 C112.373997,38.8080012 111.932002,39.127998 111.572,39.536 C111.211998,39.944002 110.936001,40.4219973 110.744,40.97 C110.551999,41.5180027 110.456,42.1119968 110.456,42.752 C110.456,43.3760031 110.551999,43.9579973 110.744,44.498 C110.936001,45.0380027 111.211998,45.507998 111.572,45.908 C111.932002,46.308002 112.373997,46.6219989 112.898,46.85 C113.422003,47.0780011 114.011997,47.192 114.668,47.192 C115.196003,47.192 115.679998,47.1120008 116.12,46.952 C116.560002,46.7919992 116.943998,46.5600015 117.272,46.256 C117.600002,45.9519985 117.863999,45.5840022 118.064,45.152 C118.264001,44.7199978 118.388,44.2360027 118.436,43.7 L116.612,43.7 C116.54,44.2760029 116.342002,44.7399982 116.018,45.092 C115.693998,45.4440018 115.244003,45.62 114.668,45.62 C114.243998,45.62 113.884001,45.5380008 113.588,45.374 C113.291999,45.2099992 113.052001,44.9920014 112.868,44.72 C112.683999,44.4479986 112.55,44.1420017 112.466,43.802 C112.382,43.4619983 112.34,43.1120018 112.34,42.752 C112.34,42.3759981 112.382,42.0120018 112.466,41.66 C112.55,41.3079982 112.683999,40.9940014 112.868,40.718 C113.052001,40.4419986 113.291999,40.2220008 113.588,40.058 C113.884001,39.8939992 114.243998,39.812 114.668,39.812 C114.900001,39.812 115.121999,39.8499996 115.334,39.926 C115.546001,40.0020004 115.735999,40.1079993 115.904,40.244 C116.072001,40.3800007 116.211999,40.5379991 116.324,40.718 C116.436001,40.8980009 116.508,41.0959989 116.54,41.312 Z M123.716,43.232 C123.636,42.7999978 123.494001,42.4720011 123.29,42.248 C123.085999,42.0239989 122.776002,41.912 122.36,41.912 C122.087999,41.912 121.862001,41.9579995 121.682,42.05 C121.501999,42.1420005 121.358001,42.2559993 121.25,42.392 C121.141999,42.5280007 121.066,42.6719992 121.022,42.824 C120.978,42.9760008 120.952,43.1119994 120.944,43.232 L123.716,43.232 Z M120.944,44.312 C120.968,44.8640028 121.107999,45.2639988 121.364,45.512 C121.620001,45.7600012 121.987998,45.884 122.468,45.884 C122.812002,45.884 123.107999,45.7980009 123.356,45.626 C123.604001,45.4539991 123.756,45.272001 123.812,45.08 L125.312,45.08 C125.071999,45.8240037 124.704002,46.3559984 124.208,46.676 C123.711998,46.9960016 123.112004,47.156 122.408,47.156 C121.919998,47.156 121.480002,47.0780008 121.088,46.922 C120.695998,46.7659992 120.364001,46.5440014 120.092,46.256 C119.819999,45.9679986 119.610001,45.624002 119.462,45.224 C119.313999,44.823998 119.24,44.3840024 119.24,43.904 C119.24,43.4399977 119.315999,43.008002 119.468,42.608 C119.620001,42.207998 119.835999,41.8620015 120.116,41.57 C120.396001,41.2779985 120.729998,41.0480008 121.118,40.88 C121.506002,40.7119992 121.935998,40.628 122.408,40.628 C122.936003,40.628 123.395998,40.729999 123.788,40.934 C124.180002,41.138001 124.501999,41.4119983 124.754,41.756 C125.006001,42.1000017 125.187999,42.4919978 125.3,42.932 C125.412001,43.3720022 125.452,43.8319976 125.42,44.312 L120.944,44.312 Z M126.428,40.796 L126.428,47 L128.132,47 L128.132,43.748 C128.132,43.1159968 128.235999,42.6620014 128.444,42.386 C128.652001,42.1099986 128.987998,41.972 129.452,41.972 C129.860002,41.972 130.143999,42.0979987 130.304,42.35 C130.464001,42.6020013 130.544,42.9839974 130.544,43.496 L130.544,47 L132.248,47 L132.248,43.184 C132.248,42.7999981 132.214,42.4500016 132.146,42.134 C132.078,41.8179984 131.960001,41.5500011 131.792,41.33 C131.623999,41.1099989 131.394001,40.9380006 131.102,40.814 C130.809999,40.6899994 130.436002,40.628 129.98,40.628 C129.619998,40.628 129.268002,40.7099992 128.924,40.874 C128.579998,41.0380008 128.300001,41.2999982 128.084,41.66 L128.048,41.66 L128.048,40.796 L126.428,40.796 Z M135.704,40.796 L135.704,38.936 L134,38.936 L134,40.796 L132.968,40.796 L132.968,41.936 L134,41.936 L134,45.596 C134,45.9080016 134.051999,46.159999 134.156,46.352 C134.260001,46.544001 134.401999,46.6919995 134.582,46.796 C134.762001,46.9000005 134.969999,46.9699998 135.206,47.006 C135.442001,47.0420002 135.691999,47.06 135.956,47.06 C136.124001,47.06 136.295999,47.056 136.472,47.048 C136.648001,47.04 136.807999,47.0240001 136.952,47 L136.952,45.68 C136.872,45.6960001 136.788,45.708 136.7,45.716 C136.612,45.724 136.52,45.728 136.424,45.728 C136.135999,45.728 135.944,45.6800005 135.848,45.584 C135.752,45.4879995 135.704,45.2960014 135.704,45.008 L135.704,41.936 L136.952,41.936 L136.952,40.796 L135.704,40.796 Z M137.768,40.796 L137.768,47 L139.472,47 L139.472,44.204 C139.472,43.9239986 139.5,43.6640012 139.556,43.424 C139.612,43.1839988 139.705999,42.9740009 139.838,42.794 C139.970001,42.6139991 140.143999,42.4720005 140.36,42.368 C140.576001,42.2639995 140.839998,42.212 141.152,42.212 C141.256001,42.212 141.363999,42.2179999 141.476,42.23 C141.588001,42.2420001 141.684,42.2559999 141.764,42.272 L141.764,40.688 C141.627999,40.6479998 141.504001,40.628 141.392,40.628 C141.175999,40.628 140.968001,40.6599997 140.768,40.724 C140.567999,40.7880003 140.380001,40.8779994 140.204,40.994 C140.027999,41.1100006 139.872001,41.2499992 139.736,41.414 C139.599999,41.5780008 139.492,41.755999 139.412,41.948 L139.388,41.948 L139.388,40.796 L137.768,40.796 Z M146.396,43.232 C146.316,42.7999978 146.174001,42.4720011 145.97,42.248 C145.765999,42.0239989 145.456002,41.912 145.04,41.912 C144.767999,41.912 144.542001,41.9579995 144.362,42.05 C144.181999,42.1420005 144.038001,42.2559993 143.93,42.392 C143.821999,42.5280007 143.746,42.6719992 143.702,42.824 C143.658,42.9760008 143.632,43.1119994 143.624,43.232 L146.396,43.232 Z M143.624,44.312 C143.648,44.8640028 143.787999,45.2639988 144.044,45.512 C144.300001,45.7600012 144.667998,45.884 145.148,45.884 C145.492002,45.884 145.787999,45.7980009 146.036,45.626 C146.284001,45.4539991 146.436,45.272001 146.492,45.08 L147.992,45.08 C147.751999,45.8240037 147.384002,46.3559984 146.888,46.676 C146.391998,46.9960016 145.792004,47.156 145.088,47.156 C144.599998,47.156 144.160002,47.0780008 143.768,46.922 C143.375998,46.7659992 143.044001,46.5440014 142.772,46.256 C142.499999,45.9679986 142.290001,45.624002 142.142,45.224 C141.993999,44.823998 141.92,44.3840024 141.92,43.904 C141.92,43.4399977 141.995999,43.008002 142.148,42.608 C142.300001,42.207998 142.515999,41.8620015 142.796,41.57 C143.076001,41.2779985 143.409998,41.0480008 143.798,40.88 C144.186002,40.7119992 144.615998,40.628 145.088,40.628 C145.616003,40.628 146.075998,40.729999 146.468,40.934 C146.860002,41.138001 147.181999,41.4119983 147.434,41.756 C147.686001,42.1000017 147.867999,42.4919978 147.98,42.932 C148.092001,43.3720022 148.132,43.8319976 148.1,44.312 L143.624,44.312 Z M152.816,41.936 L152.816,47 L154.52,47 L154.52,41.936 L155.696,41.936 L155.696,40.796 L154.52,40.796 L154.52,40.424 C154.52,40.1679987 154.57,39.9860005 154.67,39.878 C154.770001,39.7699995 154.935999,39.716 155.168,39.716 C155.384001,39.716 155.591999,39.7279999 155.792,39.752 L155.792,38.48 C155.647999,38.472 155.500001,38.4620001 155.348,38.45 C155.195999,38.4379999 155.044001,38.432 154.892,38.432 C154.195997,38.432 153.676002,38.6079982 153.332,38.96 C152.987998,39.3120018 152.816,39.7639972 152.816,40.316 L152.816,40.796 L151.796,40.796 L151.796,41.936 L152.816,41.936 Z M157.952,43.904 C157.952,44.1520012 157.976,44.3939988 158.024,44.63 C158.072,44.8660012 158.153999,45.0779991 158.27,45.266 C158.386001,45.4540009 158.539999,45.6039994 158.732,45.716 C158.924001,45.8280006 159.163999,45.884 159.452,45.884 C159.740001,45.884 159.981999,45.8280006 160.178,45.716 C160.374001,45.6039994 160.529999,45.4540009 160.646,45.266 C160.762001,45.0779991 160.844,44.8660012 160.892,44.63 C160.94,44.3939988 160.964,44.1520012 160.964,43.904 C160.964,43.6559988 160.94,43.4120012 160.892,43.172 C160.844,42.9319988 160.762001,42.7200009 160.646,42.536 C160.529999,42.3519991 160.374001,42.2020006 160.178,42.086 C159.981999,41.9699994 159.740001,41.912 159.452,41.912 C159.163999,41.912 158.924001,41.9699994 158.732,42.086 C158.539999,42.2020006 158.386001,42.3519991 158.27,42.536 C158.153999,42.7200009 158.072,42.9319988 158.024,43.172 C157.976,43.4120012 157.952,43.6559988 157.952,43.904 Z M156.248,43.904 C156.248,43.4079975 156.323999,42.958002 156.476,42.554 C156.628001,42.149998 156.843999,41.8060014 157.124,41.522 C157.404001,41.2379986 157.739998,41.0180008 158.132,40.862 C158.524002,40.7059992 158.963998,40.628 159.452,40.628 C159.940002,40.628 160.381998,40.7059992 160.778,40.862 C161.174002,41.0180008 161.511999,41.2379986 161.792,41.522 C162.072001,41.8060014 162.287999,42.149998 162.44,42.554 C162.592001,42.958002 162.668,43.4079975 162.668,43.904 C162.668,44.4000025 162.592001,44.847998 162.44,45.248 C162.287999,45.648002 162.072001,45.9899986 161.792,46.274 C161.511999,46.5580014 161.174002,46.7759992 160.778,46.928 C160.381998,47.0800008 159.940002,47.156 159.452,47.156 C158.963998,47.156 158.524002,47.0800008 158.132,46.928 C157.739998,46.7759992 157.404001,46.5580014 157.124,46.274 C156.843999,45.9899986 156.628001,45.648002 156.476,45.248 C156.323999,44.847998 156.248,44.4000025 156.248,43.904 Z M163.772,40.796 L163.772,47 L165.476,47 L165.476,44.204 C165.476,43.9239986 165.504,43.6640012 165.56,43.424 C165.616,43.1839988 165.709999,42.9740009 165.842,42.794 C165.974001,42.6139991 166.147999,42.4720005 166.364,42.368 C166.580001,42.2639995 166.843998,42.212 167.156,42.212 C167.260001,42.212 167.367999,42.2179999 167.48,42.23 C167.592001,42.2420001 167.688,42.2559999 167.768,42.272 L167.768,40.688 C167.631999,40.6479998 167.508001,40.628 167.396,40.628 C167.179999,40.628 166.972001,40.6599997 166.772,40.724 C166.571999,40.7880003 166.384001,40.8779994 166.208,40.994 C166.031999,41.1100006 165.876001,41.2499992 165.74,41.414 C165.603999,41.5780008 165.496,41.755999 165.416,41.948 L165.392,41.948 L165.392,40.796 L163.772,40.796 Z M171.956,38.432 L171.956,47 L173.72,47 L173.72,40.988 L173.744,40.988 L175.844,47 L177.296,47 L179.396,40.928 L179.42,40.928 L179.42,47 L181.184,47 L181.184,38.432 L178.532,38.432 L176.636,44.324 L176.612,44.324 L174.608,38.432 L171.956,38.432 Z M186.836,43.232 C186.756,42.7999978 186.614001,42.4720011 186.41,42.248 C186.205999,42.0239989 185.896002,41.912 185.48,41.912 C185.207999,41.912 184.982001,41.9579995 184.802,42.05 C184.621999,42.1420005 184.478001,42.2559993 184.37,42.392 C184.261999,42.5280007 184.186,42.6719992 184.142,42.824 C184.098,42.9760008 184.072,43.1119994 184.064,43.232 L186.836,43.232 Z M184.064,44.312 C184.088,44.8640028 184.227999,45.2639988 184.484,45.512 C184.740001,45.7600012 185.107998,45.884 185.588,45.884 C185.932002,45.884 186.227999,45.7980009 186.476,45.626 C186.724001,45.4539991 186.876,45.272001 186.932,45.08 L188.432,45.08 C188.191999,45.8240037 187.824002,46.3559984 187.328,46.676 C186.831998,46.9960016 186.232004,47.156 185.528,47.156 C185.039998,47.156 184.600002,47.0780008 184.208,46.922 C183.815998,46.7659992 183.484001,46.5440014 183.212,46.256 C182.939999,45.9679986 182.730001,45.624002 182.582,45.224 C182.433999,44.823998 182.36,44.3840024 182.36,43.904 C182.36,43.4399977 182.435999,43.008002 182.588,42.608 C182.740001,42.207998 182.955999,41.8620015 183.236,41.57 C183.516001,41.2779985 183.849998,41.0480008 184.238,40.88 C184.626002,40.7119992 185.055998,40.628 185.528,40.628 C186.056003,40.628 186.515998,40.729999 186.908,40.934 C187.300002,41.138001 187.621999,41.4119983 187.874,41.756 C188.126001,42.1000017 188.307999,42.4919978 188.42,42.932 C188.532001,43.3720022 188.572,43.8319976 188.54,44.312 L184.064,44.312 Z M193.952,43.88 C193.952,43.6239987 193.928,43.3780012 193.88,43.142 C193.832,42.9059988 193.750001,42.6980009 193.634,42.518 C193.517999,42.3379991 193.368001,42.1920006 193.184,42.08 C192.999999,41.9679994 192.768001,41.912 192.488,41.912 C192.207999,41.912 191.972001,41.9679994 191.78,42.08 C191.587999,42.1920006 191.434001,42.3399991 191.318,42.524 C191.201999,42.7080009 191.118,42.9179988 191.066,43.154 C191.014,43.3900012 190.988,43.6359987 190.988,43.892 C190.988,44.1320012 191.016,44.3719988 191.072,44.612 C191.128,44.8520012 191.217999,45.0659991 191.342,45.254 C191.466001,45.4420009 191.621999,45.5939994 191.81,45.71 C191.998001,45.8260006 192.223999,45.884 192.488,45.884 C192.768001,45.884 193.001999,45.8280006 193.19,45.716 C193.378001,45.6039994 193.527999,45.4540009 193.64,45.266 C193.752001,45.0779991 193.832,44.8640012 193.88,44.624 C193.928,44.3839988 193.952,44.1360013 193.952,43.88 Z M193.976,46.208 L193.952,46.208 C193.751999,46.5440017 193.490002,46.7859993 193.166,46.934 C192.841998,47.0820007 192.476002,47.156 192.068,47.156 C191.603998,47.156 191.196002,47.0660009 190.844,46.886 C190.491998,46.7059991 190.202001,46.4620015 189.974,46.154 C189.745999,45.8459985 189.574001,45.492002 189.458,45.092 C189.341999,44.691998 189.284,44.2760022 189.284,43.844 C189.284,43.4279979 189.341999,43.0260019 189.458,42.638 C189.574001,42.2499981 189.745999,41.9080015 189.974,41.612 C190.202001,41.3159985 190.487998,41.0780009 190.832,40.898 C191.176002,40.7179991 191.575998,40.628 192.032,40.628 C192.400002,40.628 192.749998,40.7059992 193.082,40.862 C193.414002,41.0180008 193.675999,41.2479985 193.868,41.552 L193.892,41.552 L193.892,38.432 L195.596,38.432 L195.596,47 L193.976,47 L193.976,46.208 Z M198.632,39.836 L198.632,38.432 L196.928,38.432 L196.928,39.836 L198.632,39.836 Z M196.928,40.796 L196.928,47 L198.632,47 L198.632,40.796 L196.928,40.796 Z M202.136,40.796 L202.136,38.936 L200.432,38.936 L200.432,40.796 L199.4,40.796 L199.4,41.936 L200.432,41.936 L200.432,45.596 C200.432,45.9080016 200.483999,46.159999 200.588,46.352 C200.692001,46.544001 200.833999,46.6919995 201.014,46.796 C201.194001,46.9000005 201.401999,46.9699998 201.638,47.006 C201.874001,47.0420002 202.123999,47.06 202.388,47.06 C202.556001,47.06 202.727999,47.056 202.904,47.048 C203.080001,47.04 203.239999,47.0240001 203.384,47 L203.384,45.68 C203.304,45.6960001 203.22,45.708 203.132,45.716 C203.044,45.724 202.952,45.728 202.856,45.728 C202.567999,45.728 202.376,45.6800005 202.28,45.584 C202.184,45.4879995 202.136,45.2960014 202.136,45.008 L202.136,41.936 L203.384,41.936 L203.384,40.796 L202.136,40.796 Z M208.376,43.232 C208.296,42.7999978 208.154001,42.4720011 207.95,42.248 C207.745999,42.0239989 207.436002,41.912 207.02,41.912 C206.747999,41.912 206.522001,41.9579995 206.342,42.05 C206.161999,42.1420005 206.018001,42.2559993 205.91,42.392 C205.801999,42.5280007 205.726,42.6719992 205.682,42.824 C205.638,42.9760008 205.612,43.1119994 205.604,43.232 L208.376,43.232 Z M205.604,44.312 C205.628,44.8640028 205.767999,45.2639988 206.024,45.512 C206.280001,45.7600012 206.647998,45.884 207.128,45.884 C207.472002,45.884 207.767999,45.7980009 208.016,45.626 C208.264001,45.4539991 208.416,45.272001 208.472,45.08 L209.972,45.08 C209.731999,45.8240037 209.364002,46.3559984 208.868,46.676 C208.371998,46.9960016 207.772004,47.156 207.068,47.156 C206.579998,47.156 206.140002,47.0780008 205.748,46.922 C205.355998,46.7659992 205.024001,46.5440014 204.752,46.256 C204.479999,45.9679986 204.270001,45.624002 204.122,45.224 C203.973999,44.823998 203.9,44.3840024 203.9,43.904 C203.9,43.4399977 203.975999,43.008002 204.128,42.608 C204.280001,42.207998 204.495999,41.8620015 204.776,41.57 C205.056001,41.2779985 205.389998,41.0480008 205.778,40.88 C206.166002,40.7119992 206.595998,40.628 207.068,40.628 C207.596003,40.628 208.055998,40.729999 208.448,40.934 C208.840002,41.138001 209.161999,41.4119983 209.414,41.756 C209.666001,42.1000017 209.847999,42.4919978 209.96,42.932 C210.072001,43.3720022 210.112,43.8319976 210.08,44.312 L205.604,44.312 Z M211.088,40.796 L211.088,47 L212.792,47 L212.792,44.204 C212.792,43.9239986 212.82,43.6640012 212.876,43.424 C212.932,43.1839988 213.025999,42.9740009 213.158,42.794 C213.290001,42.6139991 213.463999,42.4720005 213.68,42.368 C213.896001,42.2639995 214.159998,42.212 214.472,42.212 C214.576001,42.212 214.683999,42.2179999 214.796,42.23 C214.908001,42.2420001 215.004,42.2559999 215.084,42.272 L215.084,40.688 C214.947999,40.6479998 214.824001,40.628 214.712,40.628 C214.495999,40.628 214.288001,40.6599997 214.088,40.724 C213.887999,40.7880003 213.700001,40.8779994 213.524,40.994 C213.347999,41.1100006 213.192001,41.2499992 213.056,41.414 C212.919999,41.5780008 212.812,41.755999 212.732,41.948 L212.708,41.948 L212.708,40.796 L211.088,40.796 Z M215.756,40.796 L215.756,47 L217.46,47 L217.46,44.204 C217.46,43.9239986 217.488,43.6640012 217.544,43.424 C217.6,43.1839988 217.693999,42.9740009 217.826,42.794 C217.958001,42.6139991 218.131999,42.4720005 218.348,42.368 C218.564001,42.2639995 218.827998,42.212 219.14,42.212 C219.244001,42.212 219.351999,42.2179999 219.464,42.23 C219.576001,42.2420001 219.672,42.2559999 219.752,42.272 L219.752,40.688 C219.615999,40.6479998 219.492001,40.628 219.38,40.628 C219.163999,40.628 218.956001,40.6599997 218.756,40.724 C218.555999,40.7880003 218.368001,40.8779994 218.192,40.994 C218.015999,41.1100006 217.860001,41.2499992 217.724,41.414 C217.587999,41.5780008 217.48,41.755999 217.4,41.948 L217.376,41.948 L217.376,40.796 L215.756,40.796 Z M220.352,42.704 C220.376,42.303998 220.475999,41.9720013 220.652,41.708 C220.828001,41.4439987 221.051999,41.2320008 221.324,41.072 C221.596001,40.9119992 221.901998,40.7980003 222.242,40.73 C222.582002,40.6619997 222.923998,40.628 223.268,40.628 C223.580002,40.628 223.895998,40.6499998 224.216,40.694 C224.536002,40.7380002 224.827999,40.8239994 225.092,40.952 C225.356001,41.0800006 225.571999,41.2579989 225.74,41.486 C225.908001,41.7140011 225.992,42.0159981 225.992,42.392 L225.992,45.62 C225.992,45.9000014 226.008,46.1679987 226.04,46.424 C226.072,46.6800013 226.128,46.8719994 226.208,47 L224.48,47 C224.448,46.9039995 224.422,46.8060005 224.402,46.706 C224.382,46.6059995 224.368,46.5040005 224.36,46.4 C224.087999,46.6800014 223.768002,46.8759994 223.4,46.988 C223.031998,47.1000006 222.656002,47.156 222.272,47.156 C221.975999,47.156 221.700001,47.1200004 221.444,47.048 C221.187999,46.9759996 220.964001,46.8640008 220.772,46.712 C220.579999,46.5599992 220.430001,46.3680012 220.322,46.136 C220.213999,45.9039988 220.16,45.6280016 220.16,45.308 C220.16,44.9559982 220.221999,44.6660011 220.346,44.438 C220.470001,44.2099989 220.629999,44.0280007 220.826,43.892 C221.022001,43.7559993 221.245999,43.6540003 221.498,43.586 C221.750001,43.5179997 222.003999,43.4640002 222.26,43.424 C222.516001,43.3839998 222.767999,43.3520001 223.016,43.328 C223.264001,43.3039999 223.483999,43.2680002 223.676,43.22 C223.868001,43.1719998 224.019999,43.1020005 224.132,43.01 C224.244001,42.9179995 224.296,42.7840009 224.288,42.608 C224.288,42.4239991 224.258,42.2780005 224.198,42.17 C224.138,42.0619995 224.058,41.9780003 223.958,41.918 C223.857999,41.8579997 223.742001,41.8180001 223.61,41.798 C223.477999,41.7779999 223.336001,41.768 223.184,41.768 C222.847998,41.768 222.584001,41.8399993 222.392,41.984 C222.199999,42.1280007 222.088,42.3679983 222.056,42.704 L220.352,42.704 Z M224.288,43.964 C224.216,44.0280003 224.126001,44.0779998 224.018,44.114 C223.909999,44.1500002 223.794001,44.1799999 223.67,44.204 C223.545999,44.2280001 223.416001,44.2479999 223.28,44.264 C223.143999,44.2800001 223.008001,44.2999999 222.872,44.324 C222.743999,44.3480001 222.618001,44.3799998 222.494,44.42 C222.369999,44.4600002 222.262,44.5139997 222.17,44.582 C222.078,44.6500003 222.004,44.7359995 221.948,44.84 C221.892,44.9440005 221.864,45.0759992 221.864,45.236 C221.864,45.3880008 221.892,45.5159995 221.948,45.62 C222.004,45.7240005 222.08,45.8059997 222.176,45.866 C222.272,45.9260003 222.383999,45.9679999 222.512,45.992 C222.640001,46.0160001 222.771999,46.028 222.908,46.028 C223.244002,46.028 223.503999,45.9720006 223.688,45.86 C223.872001,45.7479994 224.008,45.6140008 224.096,45.458 C224.184,45.3019992 224.238,45.1440008 224.258,44.984 C224.278,44.8239992 224.288,44.6960005 224.288,44.6 L224.288,43.964 Z M227.312,40.796 L227.312,47 L229.016,47 L229.016,43.748 C229.016,43.1159968 229.119999,42.6620014 229.328,42.386 C229.536001,42.1099986 229.871998,41.972 230.336,41.972 C230.744002,41.972 231.027999,42.0979987 231.188,42.35 C231.348001,42.6020013 231.428,42.9839974 231.428,43.496 L231.428,47 L233.132,47 L233.132,43.184 C233.132,42.7999981 233.098,42.4500016 233.03,42.134 C232.962,41.8179984 232.844001,41.5500011 232.676,41.33 C232.507999,41.1099989 232.278001,40.9380006 231.986,40.814 C231.693999,40.6899994 231.320002,40.628 230.864,40.628 C230.503998,40.628 230.152002,40.7099992 229.808,40.874 C229.463998,41.0380008 229.184001,41.2999982 228.968,41.66 L228.932,41.66 L228.932,40.796 L227.312,40.796 Z M238.604,43.232 C238.524,42.7999978 238.382001,42.4720011 238.178,42.248 C237.973999,42.0239989 237.664002,41.912 237.248,41.912 C236.975999,41.912 236.750001,41.9579995 236.57,42.05 C236.389999,42.1420005 236.246001,42.2559993 236.138,42.392 C236.029999,42.5280007 235.954,42.6719992 235.91,42.824 C235.866,42.9760008 235.84,43.1119994 235.832,43.232 L238.604,43.232 Z M235.832,44.312 C235.856,44.8640028 235.995999,45.2639988 236.252,45.512 C236.508001,45.7600012 236.875998,45.884 237.356,45.884 C237.700002,45.884 237.995999,45.7980009 238.244,45.626 C238.492001,45.4539991 238.644,45.272001 238.7,45.08 L240.2,45.08 C239.959999,45.8240037 239.592002,46.3559984 239.096,46.676 C238.599998,46.9960016 238.000004,47.156 237.296,47.156 C236.807998,47.156 236.368002,47.0780008 235.976,46.922 C235.583998,46.7659992 235.252001,46.5440014 234.98,46.256 C234.707999,45.9679986 234.498001,45.624002 234.35,45.224 C234.201999,44.823998 234.128,44.3840024 234.128,43.904 C234.128,43.4399977 234.203999,43.008002 234.356,42.608 C234.508001,42.207998 234.723999,41.8620015 235.004,41.57 C235.284001,41.2779985 235.617998,41.0480008 236.006,40.88 C236.394002,40.7119992 236.823998,40.628 237.296,40.628 C237.824003,40.628 238.283998,40.729999 238.676,40.934 C239.068002,41.138001 239.389999,41.4119983 239.642,41.756 C239.894001,42.1000017 240.075999,42.4919978 240.188,42.932 C240.300001,43.3720022 240.34,43.8319976 240.308,44.312 L235.832,44.312 Z M241.244,42.704 C241.268,42.303998 241.367999,41.9720013 241.544,41.708 C241.720001,41.4439987 241.943999,41.2320008 242.216,41.072 C242.488001,40.9119992 242.793998,40.7980003 243.134,40.73 C243.474002,40.6619997 243.815998,40.628 244.16,40.628 C244.472002,40.628 244.787998,40.6499998 245.108,40.694 C245.428002,40.7380002 245.719999,40.8239994 245.984,40.952 C246.248001,41.0800006 246.463999,41.2579989 246.632,41.486 C246.800001,41.7140011 246.884,42.0159981 246.884,42.392 L246.884,45.62 C246.884,45.9000014 246.9,46.1679987 246.932,46.424 C246.964,46.6800013 247.02,46.8719994 247.1,47 L245.372,47 C245.34,46.9039995 245.314,46.8060005 245.294,46.706 C245.274,46.6059995 245.26,46.5040005 245.252,46.4 C244.979999,46.6800014 244.660002,46.8759994 244.292,46.988 C243.923998,47.1000006 243.548002,47.156 243.164,47.156 C242.867999,47.156 242.592001,47.1200004 242.336,47.048 C242.079999,46.9759996 241.856001,46.8640008 241.664,46.712 C241.471999,46.5599992 241.322001,46.3680012 241.214,46.136 C241.105999,45.9039988 241.052,45.6280016 241.052,45.308 C241.052,44.9559982 241.113999,44.6660011 241.238,44.438 C241.362001,44.2099989 241.521999,44.0280007 241.718,43.892 C241.914001,43.7559993 242.137999,43.6540003 242.39,43.586 C242.642001,43.5179997 242.895999,43.4640002 243.152,43.424 C243.408001,43.3839998 243.659999,43.3520001 243.908,43.328 C244.156001,43.3039999 244.375999,43.2680002 244.568,43.22 C244.760001,43.1719998 244.911999,43.1020005 245.024,43.01 C245.136001,42.9179995 245.188,42.7840009 245.18,42.608 C245.18,42.4239991 245.15,42.2780005 245.09,42.17 C245.03,42.0619995 244.95,41.9780003 244.85,41.918 C244.749999,41.8579997 244.634001,41.8180001 244.502,41.798 C244.369999,41.7779999 244.228001,41.768 244.076,41.768 C243.739998,41.768 243.476001,41.8399993 243.284,41.984 C243.091999,42.1280007 242.98,42.3679983 242.948,42.704 L241.244,42.704 Z M245.18,43.964 C245.108,44.0280003 245.018001,44.0779998 244.91,44.114 C244.801999,44.1500002 244.686001,44.1799999 244.562,44.204 C244.437999,44.2280001 244.308001,44.2479999 244.172,44.264 C244.035999,44.2800001 243.900001,44.2999999 243.764,44.324 C243.635999,44.3480001 243.510001,44.3799998 243.386,44.42 C243.261999,44.4600002 243.154,44.5139997 243.062,44.582 C242.97,44.6500003 242.896,44.7359995 242.84,44.84 C242.784,44.9440005 242.756,45.0759992 242.756,45.236 C242.756,45.3880008 242.784,45.5159995 242.84,45.62 C242.896,45.7240005 242.972,45.8059997 243.068,45.866 C243.164,45.9260003 243.275999,45.9679999 243.404,45.992 C243.532001,46.0160001 243.663999,46.028 243.8,46.028 C244.136002,46.028 244.395999,45.9720006 244.58,45.86 C244.764001,45.7479994 244.9,45.6140008 244.988,45.458 C245.076,45.3019992 245.13,45.1440008 245.15,44.984 C245.17,44.8239992 245.18,44.6960005 245.18,44.6 L245.18,43.964 Z M248.204,40.796 L248.204,47 L249.908,47 L249.908,43.748 C249.908,43.1159968 250.011999,42.6620014 250.22,42.386 C250.428001,42.1099986 250.763998,41.972 251.228,41.972 C251.636002,41.972 251.919999,42.0979987 252.08,42.35 C252.240001,42.6020013 252.32,42.9839974 252.32,43.496 L252.32,47 L254.024,47 L254.024,43.184 C254.024,42.7999981 253.99,42.4500016 253.922,42.134 C253.854,41.8179984 253.736001,41.5500011 253.568,41.33 C253.399999,41.1099989 253.170001,40.9380006 252.878,40.814 C252.585999,40.6899994 252.212002,40.628 251.756,40.628 C251.395998,40.628 251.044002,40.7099992 250.7,40.874 C250.355998,41.0380008 250.076001,41.2999982 249.86,41.66 L249.824,41.66 L249.824,40.796 L248.204,40.796 Z M116.54,53.312 L118.364,53.312 C118.308,52.8159975 118.172001,52.3760019 117.956,51.992 C117.739999,51.6079981 117.466002,51.2860013 117.134,51.026 C116.801998,50.7659987 116.426002,50.5680007 116.006,50.432 C115.585998,50.2959993 115.140002,50.228 114.668,50.228 C114.011997,50.228 113.422003,50.3439988 112.898,50.576 C112.373997,50.8080012 111.932002,51.127998 111.572,51.536 C111.211998,51.944002 110.936001,52.4219973 110.744,52.97 C110.551999,53.5180027 110.456,54.1119968 110.456,54.752 C110.456,55.3760031 110.551999,55.9579973 110.744,56.498 C110.936001,57.0380027 111.211998,57.507998 111.572,57.908 C111.932002,58.308002 112.373997,58.6219989 112.898,58.85 C113.422003,59.0780011 114.011997,59.192 114.668,59.192 C115.196003,59.192 115.679998,59.1120008 116.12,58.952 C116.560002,58.7919992 116.943998,58.5600015 117.272,58.256 C117.600002,57.9519985 117.863999,57.5840022 118.064,57.152 C118.264001,56.7199978 118.388,56.2360027 118.436,55.7 L116.612,55.7 C116.54,56.2760029 116.342002,56.7399982 116.018,57.092 C115.693998,57.4440018 115.244003,57.62 114.668,57.62 C114.243998,57.62 113.884001,57.5380008 113.588,57.374 C113.291999,57.2099992 113.052001,56.9920014 112.868,56.72 C112.683999,56.4479986 112.55,56.1420017 112.466,55.802 C112.382,55.4619983 112.34,55.1120018 112.34,54.752 C112.34,54.3759981 112.382,54.0120018 112.466,53.66 C112.55,53.3079982 112.683999,52.9940014 112.868,52.718 C113.052001,52.4419986 113.291999,52.2220008 113.588,52.058 C113.884001,51.8939992 114.243998,51.812 114.668,51.812 C114.900001,51.812 115.121999,51.8499996 115.334,51.926 C115.546001,52.0020004 115.735999,52.1079993 115.904,52.244 C116.072001,52.3800007 116.211999,52.5379991 116.324,52.718 C116.436001,52.8980009 116.508,53.0959989 116.54,53.312 Z M121.052,55.904 C121.052,56.1520012 121.076,56.3939988 121.124,56.63 C121.172,56.8660012 121.253999,57.0779991 121.37,57.266 C121.486001,57.4540009 121.639999,57.6039994 121.832,57.716 C122.024001,57.8280006 122.263999,57.884 122.552,57.884 C122.840001,57.884 123.081999,57.8280006 123.278,57.716 C123.474001,57.6039994 123.629999,57.4540009 123.746,57.266 C123.862001,57.0779991 123.944,56.8660012 123.992,56.63 C124.04,56.3939988 124.064,56.1520012 124.064,55.904 C124.064,55.6559988 124.04,55.4120012 123.992,55.172 C123.944,54.9319988 123.862001,54.7200009 123.746,54.536 C123.629999,54.3519991 123.474001,54.2020006 123.278,54.086 C123.081999,53.9699994 122.840001,53.912 122.552,53.912 C122.263999,53.912 122.024001,53.9699994 121.832,54.086 C121.639999,54.2020006 121.486001,54.3519991 121.37,54.536 C121.253999,54.7200009 121.172,54.9319988 121.124,55.172 C121.076,55.4120012 121.052,55.6559988 121.052,55.904 Z M119.348,55.904 C119.348,55.4079975 119.423999,54.958002 119.576,54.554 C119.728001,54.149998 119.943999,53.8060014 120.224,53.522 C120.504001,53.2379986 120.839998,53.0180008 121.232,52.862 C121.624002,52.7059992 122.063998,52.628 122.552,52.628 C123.040002,52.628 123.481998,52.7059992 123.878,52.862 C124.274002,53.0180008 124.611999,53.2379986 124.892,53.522 C125.172001,53.8060014 125.387999,54.149998 125.54,54.554 C125.692001,54.958002 125.768,55.4079975 125.768,55.904 C125.768,56.4000025 125.692001,56.847998 125.54,57.248 C125.387999,57.648002 125.172001,57.9899986 124.892,58.274 C124.611999,58.5580014 124.274002,58.7759992 123.878,58.928 C123.481998,59.0800008 123.040002,59.156 122.552,59.156 C122.063998,59.156 121.624002,59.0800008 121.232,58.928 C120.839998,58.7759992 120.504001,58.5580014 120.224,58.274 C119.943999,57.9899986 119.728001,57.648002 119.576,57.248 C119.423999,56.847998 119.348,56.4000025 119.348,55.904 Z M128.384,55.904 C128.384,56.1520012 128.408,56.3939988 128.456,56.63 C128.504,56.8660012 128.585999,57.0779991 128.702,57.266 C128.818001,57.4540009 128.971999,57.6039994 129.164,57.716 C129.356001,57.8280006 129.595999,57.884 129.884,57.884 C130.172001,57.884 130.413999,57.8280006 130.61,57.716 C130.806001,57.6039994 130.961999,57.4540009 131.078,57.266 C131.194001,57.0779991 131.276,56.8660012 131.324,56.63 C131.372,56.3939988 131.396,56.1520012 131.396,55.904 C131.396,55.6559988 131.372,55.4120012 131.324,55.172 C131.276,54.9319988 131.194001,54.7200009 131.078,54.536 C130.961999,54.3519991 130.806001,54.2020006 130.61,54.086 C130.413999,53.9699994 130.172001,53.912 129.884,53.912 C129.595999,53.912 129.356001,53.9699994 129.164,54.086 C128.971999,54.2020006 128.818001,54.3519991 128.702,54.536 C128.585999,54.7200009 128.504,54.9319988 128.456,55.172 C128.408,55.4120012 128.384,55.6559988 128.384,55.904 Z M126.68,55.904 C126.68,55.4079975 126.755999,54.958002 126.908,54.554 C127.060001,54.149998 127.275999,53.8060014 127.556,53.522 C127.836001,53.2379986 128.171998,53.0180008 128.564,52.862 C128.956002,52.7059992 129.395998,52.628 129.884,52.628 C130.372002,52.628 130.813998,52.7059992 131.21,52.862 C131.606002,53.0180008 131.943999,53.2379986 132.224,53.522 C132.504001,53.8060014 132.719999,54.149998 132.872,54.554 C133.024001,54.958002 133.1,55.4079975 133.1,55.904 C133.1,56.4000025 133.024001,56.847998 132.872,57.248 C132.719999,57.648002 132.504001,57.9899986 132.224,58.274 C131.943999,58.5580014 131.606002,58.7759992 131.21,58.928 C130.813998,59.0800008 130.372002,59.156 129.884,59.156 C129.395998,59.156 128.956002,59.0800008 128.564,58.928 C128.171998,58.7759992 127.836001,58.5580014 127.556,58.274 C127.275999,57.9899986 127.060001,57.648002 126.908,57.248 C126.755999,56.847998 126.68,56.4000025 126.68,55.904 Z M137.336,57.884 C137.616001,57.884 137.849999,57.8280006 138.038,57.716 C138.226001,57.6039994 138.377999,57.4580009 138.494,57.278 C138.610001,57.0979991 138.692,56.8880012 138.74,56.648 C138.788,56.4079988 138.812,56.1640012 138.812,55.916 C138.812,55.6679988 138.786,55.4240012 138.734,55.184 C138.682,54.9439988 138.596001,54.7300009 138.476,54.542 C138.355999,54.3539991 138.202001,54.2020006 138.014,54.086 C137.825999,53.9699994 137.596001,53.912 137.324,53.912 C137.043999,53.912 136.810001,53.9699994 136.622,54.086 C136.433999,54.2020006 136.282001,54.3519991 136.166,54.536 C136.049999,54.7200009 135.968,54.9319988 135.92,55.172 C135.872,55.4120012 135.848,55.6599987 135.848,55.916 C135.848,56.1640012 135.874,56.4079988 135.926,56.648 C135.978,56.8880012 136.061999,57.0979991 136.178,57.278 C136.294001,57.4580009 136.447999,57.6039994 136.64,57.716 C136.832001,57.8280006 137.063999,57.884 137.336,57.884 Z M134.204,52.796 L135.824,52.796 L135.824,53.588 L135.848,53.588 C136.056001,53.2519983 136.319998,53.0080008 136.64,52.856 C136.960002,52.7039992 137.311998,52.628 137.696,52.628 C138.184002,52.628 138.603998,52.7199991 138.956,52.904 C139.308002,53.0880009 139.599999,53.3319985 139.832,53.636 C140.064001,53.9400015 140.235999,54.293998 140.348,54.698 C140.460001,55.102002 140.516,55.5239978 140.516,55.964 C140.516,56.3800021 140.460001,56.7799981 140.348,57.164 C140.235999,57.5480019 140.066001,57.8879985 139.838,58.184 C139.609999,58.4800015 139.326002,58.7159991 138.986,58.892 C138.645998,59.0680009 138.248002,59.156 137.792,59.156 C137.407998,59.156 137.054002,59.0780008 136.73,58.922 C136.405998,58.7659992 136.140001,58.5360015 135.932,58.232 L135.908,58.232 L135.908,61.172 L134.204,61.172 L134.204,52.796 Z M145.712,55.232 C145.632,54.7999978 145.490001,54.4720011 145.286,54.248 C145.081999,54.0239989 144.772002,53.912 144.356,53.912 C144.083999,53.912 143.858001,53.9579995 143.678,54.05 C143.497999,54.1420005 143.354001,54.2559993 143.246,54.392 C143.137999,54.5280007 143.062,54.6719992 143.018,54.824 C142.974,54.9760008 142.948,55.1119994 142.94,55.232 L145.712,55.232 Z M142.94,56.312 C142.964,56.8640028 143.103999,57.2639988 143.36,57.512 C143.616001,57.7600012 143.983998,57.884 144.464,57.884 C144.808002,57.884 145.103999,57.7980009 145.352,57.626 C145.600001,57.4539991 145.752,57.272001 145.808,57.08 L147.308,57.08 C147.067999,57.8240037 146.700002,58.3559984 146.204,58.676 C145.707998,58.9960016 145.108004,59.156 144.404,59.156 C143.915998,59.156 143.476002,59.0780008 143.084,58.922 C142.691998,58.7659992 142.360001,58.5440014 142.088,58.256 C141.815999,57.9679986 141.606001,57.624002 141.458,57.224 C141.309999,56.823998 141.236,56.3840024 141.236,55.904 C141.236,55.4399977 141.311999,55.008002 141.464,54.608 C141.616001,54.207998 141.831999,53.8620015 142.112,53.57 C142.392001,53.2779985 142.725998,53.0480008 143.114,52.88 C143.502002,52.7119992 143.931998,52.628 144.404,52.628 C144.932003,52.628 145.391998,52.729999 145.784,52.934 C146.176002,53.138001 146.497999,53.4119983 146.75,53.756 C147.002001,54.1000017 147.183999,54.4919978 147.296,54.932 C147.408001,55.3720022 147.448,55.8319976 147.416,56.312 L142.94,56.312 Z M148.424,52.796 L148.424,59 L150.128,59 L150.128,56.204 C150.128,55.9239986 150.156,55.6640012 150.212,55.424 C150.268,55.1839988 150.361999,54.9740009 150.494,54.794 C150.626001,54.6139991 150.799999,54.4720005 151.016,54.368 C151.232001,54.2639995 151.495998,54.212 151.808,54.212 C151.912001,54.212 152.019999,54.2179999 152.132,54.23 C152.244001,54.2420001 152.34,54.2559999 152.42,54.272 L152.42,52.688 C152.283999,52.6479998 152.160001,52.628 152.048,52.628 C151.831999,52.628 151.624001,52.6599997 151.424,52.724 C151.223999,52.7880003 151.036001,52.8779994 150.86,52.994 C150.683999,53.1100006 150.528001,53.2499992 150.392,53.414 C150.255999,53.5780008 150.148,53.755999 150.068,53.948 L150.044,53.948 L150.044,52.796 L148.424,52.796 Z M153.02,54.704 C153.044,54.303998 153.143999,53.9720013 153.32,53.708 C153.496001,53.4439987 153.719999,53.2320008 153.992,53.072 C154.264001,52.9119992 154.569998,52.7980003 154.91,52.73 C155.250002,52.6619997 155.591998,52.628 155.936,52.628 C156.248002,52.628 156.563998,52.6499998 156.884,52.694 C157.204002,52.7380002 157.495999,52.8239994 157.76,52.952 C158.024001,53.0800006 158.239999,53.2579989 158.408,53.486 C158.576001,53.7140011 158.66,54.0159981 158.66,54.392 L158.66,57.62 C158.66,57.9000014 158.676,58.1679987 158.708,58.424 C158.74,58.6800013 158.796,58.8719994 158.876,59 L157.148,59 C157.116,58.9039995 157.09,58.8060005 157.07,58.706 C157.05,58.6059995 157.036,58.5040005 157.028,58.4 C156.755999,58.6800014 156.436002,58.8759994 156.068,58.988 C155.699998,59.1000006 155.324002,59.156 154.94,59.156 C154.643999,59.156 154.368001,59.1200004 154.112,59.048 C153.855999,58.9759996 153.632001,58.8640008 153.44,58.712 C153.247999,58.5599992 153.098001,58.3680012 152.99,58.136 C152.881999,57.9039988 152.828,57.6280016 152.828,57.308 C152.828,56.9559982 152.889999,56.6660011 153.014,56.438 C153.138001,56.2099989 153.297999,56.0280007 153.494,55.892 C153.690001,55.7559993 153.913999,55.6540003 154.166,55.586 C154.418001,55.5179997 154.671999,55.4640002 154.928,55.424 C155.184001,55.3839998 155.435999,55.3520001 155.684,55.328 C155.932001,55.3039999 156.151999,55.2680002 156.344,55.22 C156.536001,55.1719998 156.687999,55.1020005 156.8,55.01 C156.912001,54.9179995 156.964,54.7840009 156.956,54.608 C156.956,54.4239991 156.926,54.2780005 156.866,54.17 C156.806,54.0619995 156.726,53.9780003 156.626,53.918 C156.525999,53.8579997 156.410001,53.8180001 156.278,53.798 C156.145999,53.7779999 156.004001,53.768 155.852,53.768 C155.515998,53.768 155.252001,53.8399993 155.06,53.984 C154.867999,54.1280007 154.756,54.3679983 154.724,54.704 L153.02,54.704 Z M156.956,55.964 C156.884,56.0280003 156.794001,56.0779998 156.686,56.114 C156.577999,56.1500002 156.462001,56.1799999 156.338,56.204 C156.213999,56.2280001 156.084001,56.2479999 155.948,56.264 C155.811999,56.2800001 155.676001,56.2999999 155.54,56.324 C155.411999,56.3480001 155.286001,56.3799998 155.162,56.42 C155.037999,56.4600002 154.93,56.5139997 154.838,56.582 C154.746,56.6500003 154.672,56.7359995 154.616,56.84 C154.56,56.9440005 154.532,57.0759992 154.532,57.236 C154.532,57.3880008 154.56,57.5159995 154.616,57.62 C154.672,57.7240005 154.748,57.8059997 154.844,57.866 C154.94,57.9260003 155.051999,57.9679999 155.18,57.992 C155.308001,58.0160001 155.439999,58.028 155.576,58.028 C155.912002,58.028 156.171999,57.9720006 156.356,57.86 C156.540001,57.7479994 156.676,57.6140008 156.764,57.458 C156.852,57.3019992 156.906,57.1440008 156.926,56.984 C156.946,56.8239992 156.956,56.6960005 156.956,56.6 L156.956,55.964 Z M162.14,52.796 L162.14,50.936 L160.436,50.936 L160.436,52.796 L159.404,52.796 L159.404,53.936 L160.436,53.936 L160.436,57.596 C160.436,57.9080016 160.487999,58.159999 160.592,58.352 C160.696001,58.544001 160.837999,58.6919995 161.018,58.796 C161.198001,58.9000005 161.405999,58.9699998 161.642,59.006 C161.878001,59.0420002 162.127999,59.06 162.392,59.06 C162.560001,59.06 162.731999,59.056 162.908,59.048 C163.084001,59.04 163.243999,59.0240001 163.388,59 L163.388,57.68 C163.308,57.6960001 163.224,57.708 163.136,57.716 C163.048,57.724 162.956,57.728 162.86,57.728 C162.571999,57.728 162.38,57.6800005 162.284,57.584 C162.188,57.4879995 162.14,57.2960014 162.14,57.008 L162.14,53.936 L163.388,53.936 L163.388,52.796 L162.14,52.796 Z M165.956,51.836 L165.956,50.432 L164.252,50.432 L164.252,51.836 L165.956,51.836 Z M164.252,52.796 L164.252,59 L165.956,59 L165.956,52.796 L164.252,52.796 Z M168.812,55.904 C168.812,56.1520012 168.836,56.3939988 168.884,56.63 C168.932,56.8660012 169.013999,57.0779991 169.13,57.266 C169.246001,57.4540009 169.399999,57.6039994 169.592,57.716 C169.784001,57.8280006 170.023999,57.884 170.312,57.884 C170.600001,57.884 170.841999,57.8280006 171.038,57.716 C171.234001,57.6039994 171.389999,57.4540009 171.506,57.266 C171.622001,57.0779991 171.704,56.8660012 171.752,56.63 C171.8,56.3939988 171.824,56.1520012 171.824,55.904 C171.824,55.6559988 171.8,55.4120012 171.752,55.172 C171.704,54.9319988 171.622001,54.7200009 171.506,54.536 C171.389999,54.3519991 171.234001,54.2020006 171.038,54.086 C170.841999,53.9699994 170.600001,53.912 170.312,53.912 C170.023999,53.912 169.784001,53.9699994 169.592,54.086 C169.399999,54.2020006 169.246001,54.3519991 169.13,54.536 C169.013999,54.7200009 168.932,54.9319988 168.884,55.172 C168.836,55.4120012 168.812,55.6559988 168.812,55.904 Z M167.108,55.904 C167.108,55.4079975 167.183999,54.958002 167.336,54.554 C167.488001,54.149998 167.703999,53.8060014 167.984,53.522 C168.264001,53.2379986 168.599998,53.0180008 168.992,52.862 C169.384002,52.7059992 169.823998,52.628 170.312,52.628 C170.800002,52.628 171.241998,52.7059992 171.638,52.862 C172.034002,53.0180008 172.371999,53.2379986 172.652,53.522 C172.932001,53.8060014 173.147999,54.149998 173.3,54.554 C173.452001,54.958002 173.528,55.4079975 173.528,55.904 C173.528,56.4000025 173.452001,56.847998 173.3,57.248 C173.147999,57.648002 172.932001,57.9899986 172.652,58.274 C172.371999,58.5580014 172.034002,58.7759992 171.638,58.928 C171.241998,59.0800008 170.800002,59.156 170.312,59.156 C169.823998,59.156 169.384002,59.0800008 168.992,58.928 C168.599998,58.7759992 168.264001,58.5580014 167.984,58.274 C167.703999,57.9899986 167.488001,57.648002 167.336,57.248 C167.183999,56.847998 167.108,56.4000025 167.108,55.904 Z M174.632,52.796 L174.632,59 L176.336,59 L176.336,55.748 C176.336,55.1159968 176.439999,54.6620014 176.648,54.386 C176.856001,54.1099986 177.191998,53.972 177.656,53.972 C178.064002,53.972 178.347999,54.0979987 178.508,54.35 C178.668001,54.6020013 178.748,54.9839974 178.748,55.496 L178.748,59 L180.452,59 L180.452,55.184 C180.452,54.7999981 180.418,54.4500016 180.35,54.134 C180.282,53.8179984 180.164001,53.5500011 179.996,53.33 C179.827999,53.1099989 179.598001,52.9380006 179.306,52.814 C179.013999,52.6899994 178.640002,52.628 178.184,52.628 C177.823998,52.628 177.472002,52.7099992 177.128,52.874 C176.783998,53.0380008 176.504001,53.2999982 176.288,53.66 L176.252,53.66 L176.252,52.796 L174.632,52.796 Z" id="Centre-for-Mediterra"></path>
            <rect id="Rectangle-7" x="103" y="38" width="1" height="21"></rect>
        </g>
    </g>
</svg>