<?xml version="1.0" encoding="UTF-8" standalone="no"?>
<svg width="158px" height="96px" viewBox="0 0 158 96" version="1.1" xmlns="http://www.w3.org/2000/svg" xmlns:xlink="http://www.w3.org/1999/xlink">
    <!-- Generator: Sketch 47.1 (45422) - http://www.bohemiancoding.com/sketch -->
    <title>Logos/MAVA_white</title>
    <desc>Created with Sketch.</desc>
    <defs>
        <polygon id="path-1" points="0 88.5 156.824781 88.5 156.824781 0.6945 0 0.6945"></polygon>
    </defs>
    <g id="Symbols" stroke="none" stroke-width="1" fill="none" fill-rule="evenodd">
        <g id="Logos/MAVA_white">
            <g id="Page-1" transform="translate(0.000000, 3.000000)">
                <polygon id="Fill-1" fill="#FFFFFF" points="19.2118971 82.69605 19.2118971 89.05755 19.9702971 89.05755 19.9702971 85.91655 22.5780495 85.91655 22.5780495 85.21305 19.9702971 85.21305 19.9702971 83.39055 22.5780495 83.39055 22.5780495 82.69605"></polygon>
                <g id="Group-35" transform="translate(0.000000, 0.805650)">
                    <path d="M28.9210724,86.9334 C29.4206533,86.4354 29.688501,85.7949 29.688501,85.0839 C29.688501,84.3729 29.4206533,83.7144 28.9210724,83.2164 C28.4214914,82.7184 27.7789581,82.4514 27.0732248,82.4514 C26.3689962,82.4514 25.7174343,82.7184 25.2268819,83.2164 C24.727301,83.7234 24.4594533,84.3729 24.4594533,85.0839 C24.4594533,85.7949 24.727301,86.4264 25.2268819,86.9334 C25.7354914,87.4404 26.3689962,87.7074 27.0732248,87.7074 C27.7684248,87.7074 28.4124629,87.4404 28.9210724,86.9334 Z M29.4928819,87.4404 C28.84132,88.0719 27.9670533,88.4199 27.0732248,88.4199 C26.1733771,88.4199 25.3066343,88.0629 24.6656057,87.4404 C24.0140438,86.8089 23.664939,85.9899 23.664939,85.0839 C23.664939,84.1764 24.0140438,83.3484 24.6656057,82.7184 C25.3066343,82.0944 26.1733771,81.7479 27.0732248,81.7479 C27.9745771,81.7479 28.8503486,82.0944 29.4928819,82.7184 C30.142939,83.3484 30.4830152,84.1764 30.4830152,85.0839 C30.4830152,85.9899 30.1339105,86.8179 29.4928819,87.4404 Z" id="Fill-2" fill="#FFFFFF"></path>
                    <polygon id="Fill-4" fill="#FFFFFF" points="31.9453429 81.64155 36.6131143 86.72055 36.6131143 81.89055 37.3354 81.89055 37.3354 88.49955 32.6676286 83.47455 32.6676286 88.25055 31.9453429 88.25055"></polygon>
                    <path d="M40.3331867,87.53835 C41.4226343,87.53835 42.1810343,87.52935 42.7152248,87.08535 C43.2343676,86.65785 43.5187676,85.96335 43.5187676,85.06635 C43.5187676,84.16785 43.2433962,83.49135 42.7152248,83.05635 C42.1885581,82.61085 41.4301581,82.59285 40.3331867,82.59285 L39.8531676,82.59285 L39.8531676,87.53835 L40.3331867,87.53835 Z M39.0842343,81.89085 L40.306101,81.89085 C41.5023867,81.89085 42.423301,81.89085 43.1982533,82.48635 C43.9310724,83.04735 44.3147867,83.93685 44.3147867,85.07385 C44.3147867,86.21235 43.9310724,87.09435 43.1982533,87.65385 C42.4564057,88.22385 41.6182533,88.25085 40.5829771,88.25085 L40.306101,88.25085 L39.0842343,88.25085 L39.0842343,81.89085 Z" id="Fill-6" fill="#FFFFFF"></path>
                    <path d="M46.6109029,85.65315 L48.645341,85.65315 L47.6281219,83.31465 L46.6109029,85.65315 Z M50.5277981,88.25115 L49.7077029,88.25115 L48.8770743,86.30265 L46.3881981,86.30265 L45.5575695,88.25115 L44.7374743,88.25115 L47.6281219,81.64215 L50.5277981,88.25115 Z" id="Fill-8" fill="#FFFFFF"></path>
                    <polygon id="Fill-10" fill="#FFFFFF" points="52.0303029 82.6113 50.2275981 82.6113 50.2275981 81.8913 54.5914076 81.8913 54.5914076 82.6113 52.7977314 82.6113 52.7977314 88.2513 52.0303029 88.2513"></polygon>
                    <mask id="mask-2" fill="white">
                        <use xlink:href="#path-1"></use>
                    </mask>
                    <g id="Clip-13"></g>
                    <polygon id="Fill-12" fill="#FFFFFF" mask="url(#mask-2)" points="55.6716762 88.251 56.4300762 88.251 56.4300762 81.891 55.6716762 81.891"></polygon>
                    <path d="M63.1559105,86.9334 C63.6554914,86.4354 63.9248438,85.7949 63.9248438,85.0839 C63.9248438,84.3729 63.6554914,83.7144 63.1559105,83.2164 C62.6563295,82.7184 62.0137962,82.4514 61.3095676,82.4514 C60.605339,82.4514 59.9537771,82.7184 59.46172,83.2164 C58.962139,83.7234 58.6942914,84.3729 58.6942914,85.0839 C58.6942914,85.7949 58.962139,86.4264 59.46172,86.9334 C59.9718343,87.4404 60.605339,87.7074 61.3095676,87.7074 C62.0047676,87.7074 62.647301,87.4404 63.1559105,86.9334 M63.72772,87.4404 C63.0761581,88.0719 62.2018914,88.4199 61.3095676,88.4199 C60.40972,88.4199 59.5444819,88.0629 58.9004438,87.4404 C58.2488819,86.8089 57.9027867,85.9899 57.9027867,85.0839 C57.9027867,84.1764 58.2488819,83.3484 58.9004438,82.7184 C59.5444819,82.0944 60.40972,81.7479 61.3095676,81.7479 C62.21092,81.7479 63.0851867,82.0944 63.72772,82.7184 C64.3792819,83.3484 64.7178533,84.1764 64.7178533,85.0839 C64.7178533,85.9899 64.3717581,86.8179 63.72772,87.4404" id="Fill-14" fill="#FFFFFF" mask="url(#mask-2)"></path>
                    <polygon id="Fill-15" fill="#FFFFFF" mask="url(#mask-2)" points="66.1815352 81.64155 70.8493067 86.72055 70.8493067 81.89055 71.5715924 81.89055 71.5715924 88.49955 66.903821 83.47455 66.903821 88.25055 66.1815352 88.25055"></polygon>
                    <path d="M77.2997695,84.70965 C78.396741,84.70965 78.9519981,84.56715 78.9519981,83.68665 C78.9519981,82.76265 78.4057695,82.58415 77.2997695,82.58415 L76.9160552,82.58415 L76.9160552,84.70965 L77.2997695,84.70965 Z M76.9160552,88.25115 L76.1757124,88.25115 L76.1757124,81.89115 L77.2997695,81.89115 L77.5149505,81.89115 C78.1650076,81.89115 78.693179,81.90765 79.1205314,82.21065 C79.5238076,82.49565 79.7735981,83.02065 79.7735981,83.64315 C79.7735981,84.26565 79.5238076,84.78915 79.1205314,85.07415 C78.693179,85.37715 78.1740362,85.39515 77.5149505,85.39515 L77.2997695,85.39515 L76.9160552,85.39515 L76.9160552,88.25115 Z" id="Fill-16" fill="#FFFFFF" mask="url(#mask-2)"></path>
                    <path d="M85.8934648,86.9334 C86.3930457,86.4354 86.6608933,85.7949 86.6608933,85.0839 C86.6608933,84.3729 86.3930457,83.7144 85.8934648,83.2164 C85.3938838,82.7184 84.7498457,82.4514 84.0456171,82.4514 C83.3413886,82.4514 82.6898267,82.7184 82.1992743,83.2164 C81.6996933,83.7234 81.430341,84.3729 81.430341,85.0839 C81.430341,85.7949 81.6996933,86.4264 82.1992743,86.9334 C82.7078838,87.4404 83.3413886,87.7074 84.0456171,87.7074 C84.7408171,87.7074 85.3848552,87.4404 85.8934648,86.9334 M86.4652743,87.4404 C85.8122076,88.0719 84.937941,88.4199 84.0456171,88.4199 C83.1457695,88.4199 82.2805314,88.0629 81.6379981,87.4404 C80.9849314,86.8089 80.6388362,85.9899 80.6388362,85.0839 C80.6388362,84.1764 80.9849314,83.3484 81.6379981,82.7184 C82.2805314,82.0944 83.1457695,81.7479 84.0456171,81.7479 C84.9469695,81.7479 85.822741,82.0944 86.4652743,82.7184 C87.1153314,83.3484 87.4554076,84.1764 87.4554076,85.0839 C87.4554076,85.9899 87.1063029,86.8179 86.4652743,87.4404" id="Fill-17" fill="#FFFFFF" mask="url(#mask-2)"></path>
                    <path d="M89.6597333,81.8907 L89.6597333,85.8477 C89.6597333,87.1212 90.1773714,87.7167 91.3646286,87.7167 C92.550381,87.7167 93.068019,87.1212 93.068019,85.8477 L93.068019,81.8907 L93.8339429,81.8907 L93.8339429,85.8477 C93.8339429,87.5652 93.0228762,88.4202 91.3646286,88.4202 C89.7033714,88.4202 88.8908,87.5652 88.8908,85.8477 L88.8908,81.8907 L89.6597333,81.8907 Z" id="Fill-18" fill="#FFFFFF" mask="url(#mask-2)"></path>
                    <path d="M96.3062667,84.65625 L96.8856,84.65625 C97.8862667,84.65625 98.376819,84.51375 98.376819,83.63325 C98.376819,82.70775 97.8952952,82.53075 96.8856,82.53075 L96.3062667,82.53075 L96.3062667,84.65625 Z M95.5659238,81.89025 L96.8690476,81.89025 L97.0646667,81.89025 C97.6710857,81.89025 98.1360571,81.90825 98.5303048,82.20975 C98.8944571,82.49475 99.1261905,83.00175 99.1261905,83.62425 C99.1261905,84.66525 98.5303048,85.21725 97.4032381,85.21725 L97.2693143,85.21725 L99.7055238,88.25025 L98.7424762,88.25025 L96.4131048,85.21725 L96.3062667,85.21725 L96.3062667,88.25025 L95.5659238,88.25025 L95.5659238,81.89025 Z" id="Fill-19" fill="#FFFFFF" mask="url(#mask-2)"></path>
                    <polygon id="Fill-20" fill="#FFFFFF" mask="url(#mask-2)" points="103.418524 81.8907 104.176924 81.8907 104.176924 87.5307 106.586048 87.5307 106.586048 88.2507 103.418524 88.2507"></polygon>
                    <path d="M108.71017,85.65315 L110.744608,85.65315 L109.727389,83.31465 L108.71017,85.65315 Z M112.62857,88.25115 L111.80697,88.25115 L110.976341,86.30265 L108.487465,86.30265 L107.656836,88.25115 L106.836741,88.25115 L109.727389,81.64215 L112.62857,88.25115 Z" id="Fill-21" fill="#FFFFFF" mask="url(#mask-2)"></path>
                    <polygon id="Fill-22" fill="#FFFFFF" mask="url(#mask-2)" points="116.366248 81.64155 121.032514 86.72055 121.032514 81.89055 121.7548 81.89055 121.7548 88.49955 117.088533 83.47455 117.088533 88.25055 116.366248 88.25055"></polygon>
                    <path d="M124.504301,85.65315 L126.538739,85.65315 L125.52152,83.31465 L124.504301,85.65315 Z M128.421196,88.25115 L127.601101,88.25115 L126.770472,86.30265 L124.281596,86.30265 L123.452472,88.25115 L122.630872,88.25115 L125.52152,81.64215 L128.421196,88.25115 Z" id="Fill-23" fill="#FFFFFF" mask="url(#mask-2)"></path>
                    <polygon id="Fill-24" fill="#FFFFFF" mask="url(#mask-2)" points="129.923851 82.6113 128.122651 82.6113 128.122651 81.8913 132.483451 81.8913 132.483451 82.6113 130.69128 82.6113 130.69128 88.2513 129.923851 88.2513"></polygon>
                    <path d="M134.295636,81.8907 L134.295636,85.8477 C134.295636,87.1212 134.814779,87.7167 136.000531,87.7167 C137.187789,87.7167 137.705427,87.1212 137.705427,85.8477 L137.705427,81.8907 L138.47135,81.8907 L138.47135,85.8477 C138.47135,87.5652 137.658779,88.4202 136.000531,88.4202 C134.339274,88.4202 133.526703,87.5652 133.526703,85.8477 L133.526703,81.8907 L134.295636,81.8907 Z" id="Fill-25" fill="#FFFFFF" mask="url(#mask-2)"></path>
                    <path d="M140.943524,84.65625 L141.522857,84.65625 C142.523524,84.65625 143.014076,84.51375 143.014076,83.63325 C143.014076,82.70775 142.532552,82.53075 141.522857,82.53075 L140.943524,82.53075 L140.943524,84.65625 Z M140.203181,81.89025 L141.506305,81.89025 L141.701924,81.89025 C142.308343,81.89025 142.77181,81.90825 143.166057,82.20975 C143.531714,82.49475 143.763448,83.00175 143.763448,83.62425 C143.763448,84.66525 143.166057,85.21725 142.040495,85.21725 L141.906571,85.21725 L144.342781,88.25025 L143.379733,88.25025 L141.050362,85.21725 L140.943524,85.21725 L140.943524,88.25025 L140.203181,88.25025 L140.203181,81.89025 Z" id="Fill-26" fill="#FFFFFF" mask="url(#mask-2)"></path>
                    <polygon id="Fill-27" fill="#FFFFFF" mask="url(#mask-2)" points="145.199291 81.8907 148.562434 81.8907 148.562434 82.5852 145.959196 82.5852 145.959196 84.4077 148.562434 84.4077 148.562434 85.1112 145.959196 85.1112 145.959196 87.5472 148.562434 87.5472 148.562434 88.2507 145.199291 88.2507"></polygon>
                    <path d="M44.034901,26.70195 C35.41412,26.70195 27.7819676,28.09695 20.7818152,30.94995 C24.221701,37.80795 31.33772,42.51945 39.55372,42.51945 C48.9148438,42.51945 56.8434343,36.40545 59.5429771,27.96495 C53.7842533,27.10845 48.7568438,26.70195 44.034901,26.70195" id="Fill-28" fill="#FFFFFF" mask="url(#mask-2)"></path>
                    <path d="M59.8333962,16.3206 C57.4829581,7.3341 49.3045771,0.6951 39.5522152,0.6951 C27.9670533,0.6951 18.5743295,10.0581 18.5743295,21.6066 C18.5743295,22.7691 18.6826724,23.9031 18.8662533,25.0116 C33.5903486,15.9921 47.8374343,15.0486 59.8333962,16.3206" id="Fill-29" fill="#FFFFFF" mask="url(#mask-2)"></path>
                    <path d="M130.285295,56.4771 C130.685562,55.5261 131.138495,54.2241 131.592933,52.4211 C132.092514,54.2241 132.545448,55.5261 132.948724,56.4771 L136.614324,64.6401 L126.61819,64.6401 L130.285295,56.4771 Z M120.287657,78.7101 L124.457352,69.4971 L138.674343,69.4971 L142.741714,78.7101 L148.921771,78.7101 L132.196343,42.9081 L130.885695,42.9081 L114.160267,78.7101 L120.287657,78.7101 Z" id="Fill-30" fill="#FFFFFF" mask="url(#mask-2)"></path>
                    <path d="M27.6647467,61.08405 C28.016861,59.48205 28.2681562,57.82905 28.3193181,56.12655 C28.7692419,57.72855 29.3741562,59.23155 30.07688,60.68355 L38.7683848,78.71055 L40.1843657,78.71055 L48.8638324,61.08405 C49.6673752,59.43255 50.2196229,57.82905 50.5205752,56.12655 C50.8726895,58.78005 51.0231657,60.38355 51.1736419,61.03305 L55.1432038,78.71055 L60.5678705,78.71055 L52.2059086,42.90705 L51.2308229,42.90705 L41.5296229,63.98805 C40.9773752,65.24055 40.1738324,66.84255 39.4711086,68.84505 C38.4659276,66.24255 37.8113562,64.63905 37.5104038,63.98805 L27.5714514,42.90705 L26.5918514,42.90705 L18.422499,78.71055 L23.7975086,78.71055 L27.6647467,61.08405 Z" id="Fill-31" fill="#FFFFFF" mask="url(#mask-2)"></path>
                    <path d="M106.013636,78.7104 L121.434436,42.9069 L115.404855,42.9069 L107.367922,61.9854 C106.514722,63.9879 105.86015,65.8914 105.410227,67.7439 C105.008455,65.8404 104.352379,63.9879 103.499179,61.9854 L95.4622457,42.9069 L89.3845124,42.9069 L104.803808,78.7104 L106.013636,78.7104 Z" id="Fill-32" fill="#FFFFFF" mask="url(#mask-2)"></path>
                    <path d="M78.0228076,56.4771 C78.424579,55.5261 78.8745029,54.2241 79.328941,52.4211 C79.8315314,54.2241 80.28296,55.5261 80.6847314,56.4771 L84.3518362,64.6401 L74.3541981,64.6401 L78.0228076,56.4771 Z M72.1948648,69.4971 L86.4118552,69.4971 L90.4807314,78.7101 L96.6592838,78.7101 L79.9323505,42.9081 L78.6217029,42.9081 L61.897779,78.7101 L68.0251695,78.7101 L72.1948648,69.4971 Z" id="Fill-33" fill="#FFFFFF" mask="url(#mask-2)"></path>
                    <path d="M156.534964,19.27155 C127.031097,39.70905 97.9274971,23.61555 67.9737067,18.11805 C51.1294019,15.02805 34.0187543,15.28755 16.4160495,27.27555 C11.0575924,30.92505 5.65098286,35.66205 0.19471619,41.72355 C-0.16943619,42.12855 0.0186590476,42.32355 0.41591619,41.96655 C6.46355429,36.53055 11.6715352,32.45955 17.6033067,29.73555 C33.2106971,22.55955 49.7058971,23.61855 66.1664876,26.67105 C98.9131162,32.74605 131.516792,46.71105 156.700488,19.42755 C156.930716,19.17705 156.817859,19.07355 156.534964,19.27155" id="Fill-34" fill="#FFFFFF" mask="url(#mask-2)"></path>
                </g>
            </g>
        </g>
    </g>
</svg>