<?xml version="1.0" encoding="UTF-8" standalone="no"?>
<svg width="190px" height="32px" viewBox="0 0 190 32" version="1.1" xmlns="http://www.w3.org/2000/svg" xmlns:xlink="http://www.w3.org/1999/xlink">
    <!-- Generator: Sketch 47.1 (45422) - http://www.bohemiancoding.com/sketch -->
    <title>infograph/legend_map-ipas</title>
    <desc>Created with Sketch.</desc>
    <defs>
        <rect id="path-1" x="10" y="11" width="10" height="10"></rect>
    </defs>
    <g id="Symbols" stroke="none" stroke-width="1" fill="none" fill-rule="evenodd">
        <g id="infograph/legend_map-ipas">
            <rect id="Rectangle-2" fill-opacity="0.5" fill="#FFFFFF" x="0" y="0" width="190" height="32" rx="4"></rect>
            <path d="M26.972,20 L26.972,11.708 L28.568,11.708 L28.568,20 L26.972,20 Z M35.438,12.368 C36.0260029,12.8080022 36.32,13.4679956 36.32,14.348 C36.32,15.2680046 36.024003,15.9579977 35.432,16.418 C34.839997,16.8780023 34.0520049,17.108 33.068,17.108 L32.096,17.108 L32.096,20 L30.512,20 L30.512,11.708 L32.96,11.708 C34.0240053,11.708 34.8499971,11.9279978 35.438,12.368 Z M34.232,15.566 C34.5200014,15.3299988 34.664,14.9240029 34.664,14.348 C34.664,13.3639951 34.0920057,12.872 32.948,12.872 L32.096,12.872 L32.096,15.92 L32.948,15.92 C33.5160028,15.92 33.9439986,15.8020012 34.232,15.566 Z M37.892,18.08 L37.376,20 L35.732,20 L38.312,11.708 L40.268,11.708 L42.836,20 L41.156,20 L40.64,18.08 L37.892,18.08 Z M39.26,12.92 L38.204,16.88 L40.328,16.88 L39.26,12.92 Z M47.972,14.228 L47.372,15.152 C46.8439974,14.7919982 46.3240026,14.612 45.812,14.612 C45.4919984,14.612 45.2460009,14.6699994 45.074,14.786 C44.9019991,14.9020006 44.816,15.055999 44.816,15.248 C44.816,15.3920007 44.8519996,15.5119995 44.924,15.608 C44.9960004,15.7040005 45.1259991,15.7939996 45.314,15.878 C45.5020009,15.9620004 45.7799982,16.0559995 46.148,16.16 C46.8360034,16.3440009 47.3459983,16.5879985 47.678,16.892 C48.0100017,17.1960015 48.176,17.6199973 48.176,18.164 C48.176,18.7960032 47.9200026,19.2899982 47.408,19.646 C46.8959974,20.0020018 46.2600038,20.18 45.5,20.18 C44.9799974,20.18 44.5060021,20.1000008 44.078,19.94 C43.6499979,19.7799992 43.2800016,19.5600014 42.968,19.28 L43.748,18.404 C44.2760026,18.8280021 44.843997,19.04 45.452,19.04 C45.7960017,19.04 46.071999,18.9720007 46.28,18.836 C46.488001,18.6999993 46.592,18.5200011 46.592,18.296 C46.592,18.103999 46.5540004,17.9540005 46.478,17.846 C46.4019996,17.7379995 46.266001,17.6400004 46.07,17.552 C45.873999,17.4639996 45.5680021,17.3600006 45.152,17.24 C44.5039968,17.0639991 44.0280015,16.8180016 43.724,16.502 C43.4199985,16.1859984 43.268,15.7920024 43.268,15.32 C43.268,14.9679982 43.369999,14.6520014 43.574,14.372 C43.778001,14.0919986 44.0659981,13.8720008 44.438,13.712 C44.8100019,13.5519992 45.2359976,13.472 45.716,13.472 C46.5720043,13.472 47.3239968,13.7239975 47.972,14.228 Z M54.098,11.99 C53.8539988,12.4740024 53.6620007,13.0239969 53.522,13.64 C53.3819993,14.2560031 53.312,14.9759959 53.312,15.8 C53.312,16.6160041 53.3819993,17.3319969 53.522,17.948 C53.6620007,18.5640031 53.8539988,19.1179975 54.098,19.61 C54.3420012,20.1020025 54.6719979,20.651997 55.088,21.26 L54.392,21.74 C53.8639974,20.9879962 53.4580014,20.3700024 53.174,19.886 C52.8899986,19.4019976 52.650001,18.8220034 52.454,18.146 C52.257999,17.4699966 52.16,16.6880044 52.16,15.8 C52.16,14.9119956 52.257999,14.1300034 52.454,13.454 C52.650001,12.7779966 52.8899986,12.1980024 53.174,11.714 C53.4580014,11.2299976 53.8639974,10.6120038 54.392,9.86 L55.088,10.34 C54.6719979,10.9560031 54.3420012,11.5059976 54.098,11.99 Z M56.768,20 L56.768,11.732 L57.92,11.732 L57.92,20 L56.768,20 Z M67.856,14.054 C68.1680016,14.4020017 68.324,14.871997 68.324,15.464 L68.324,20 L67.22,20 L67.22,15.62 C67.22,14.8039959 66.924003,14.396 66.332,14.396 C66.0199984,14.396 65.7560011,14.4859991 65.54,14.666 C65.3239989,14.8460009 65.0920012,15.1279981 64.844,15.512 L64.844,20 L63.74,20 L63.74,15.62 C63.74,14.8039959 63.444003,14.396 62.852,14.396 C62.5319984,14.396 62.2640011,14.4879991 62.048,14.672 C61.8319989,14.8560009 61.6040012,15.1359981 61.364,15.512 L61.364,20 L60.26,20 L60.26,13.676 L61.208,13.676 L61.304,14.6 C61.7760024,13.8879964 62.3839963,13.532 63.128,13.532 C63.520002,13.532 63.8539986,13.631999 64.13,13.832 C64.4060014,14.032001 64.6039994,14.3119982 64.724,14.672 C64.9720012,14.3039982 65.2459985,14.022001 65.546,13.826 C65.8460015,13.629999 66.199998,13.532 66.608,13.532 C67.1280026,13.532 67.5439984,13.7059983 67.856,14.054 Z M75.224,14.396 C75.6000019,14.9720029 75.788,15.7839948 75.788,16.832 C75.788,17.824005 75.5720022,18.623997 75.14,19.232 C74.7079978,19.840003 74.096004,20.144 73.304,20.144 C72.5999965,20.144 72.048002,19.9040024 71.648,19.424 L71.648,22.424 L70.544,22.556 L70.544,13.676 L71.492,13.676 L71.576,14.528 C71.8080012,14.2079984 72.0879984,13.9620009 72.416,13.79 C72.7440016,13.6179991 73.0879982,13.532 73.448,13.532 C74.256004,13.532 74.8479981,13.8199971 75.224,14.396 Z M74.6,16.832 C74.6,15.2159919 74.1240048,14.408 73.172,14.408 C72.8599984,14.408 72.5760013,14.4999991 72.32,14.684 C72.0639987,14.8680009 71.840001,15.1039986 71.648,15.392 L71.648,18.476 C71.8080008,18.7240012 72.0079988,18.9139993 72.248,19.046 C72.4880012,19.1780007 72.7519986,19.244 73.04,19.244 C74.0800052,19.244 74.6,18.440008 74.6,16.832 Z M82.118,14.42 C82.6100025,15.012003 82.856,15.8159949 82.856,16.832 C82.856,17.4880033 82.7440011,18.0659975 82.52,18.566 C82.2959989,19.0660025 81.9720021,19.4539986 81.548,19.73 C81.1239979,20.0060014 80.6200029,20.144 80.036,20.144 C79.1479956,20.144 78.4560025,19.848003 77.96,19.256 C77.4639975,18.663997 77.216,17.8600051 77.216,16.844 C77.216,16.1879967 77.3279989,15.6100025 77.552,15.11 C77.7760011,14.6099975 78.0999979,14.2220014 78.524,13.946 C78.9480021,13.6699986 79.455997,13.532 80.048,13.532 C80.9360044,13.532 81.6259975,13.827997 82.118,14.42 Z M78.404,16.844 C78.404,18.452008 78.9479946,19.256 80.036,19.256 C81.1240054,19.256 81.668,18.4480081 81.668,16.832 C81.668,15.223992 81.1280054,14.42 80.048,14.42 C78.9519945,14.42 78.404,15.2279919 78.404,16.844 Z M88.052,13.604 L87.848,14.684 C87.655999,14.6359998 87.4720009,14.612 87.296,14.612 C86.903998,14.612 86.5880012,14.7559986 86.348,15.044 C86.1079988,15.3320014 85.9200007,15.779997 85.784,16.388 L85.784,20 L84.68,20 L84.68,13.676 L85.628,13.676 L85.736,14.96 C85.9040008,14.4879976 86.1319986,14.1320012 86.42,13.892 C86.7080014,13.6519988 87.0439981,13.532 87.428,13.532 C87.6520011,13.532 87.859999,13.5559998 88.052,13.604 Z M91.208,20.144 C90.6719973,20.144 90.2540015,19.9900015 89.954,19.682 C89.6539985,19.3739985 89.504,18.9280029 89.504,18.344 L89.504,14.528 L88.4,14.528 L88.4,13.676 L89.504,13.676 L89.504,12.248 L90.608,12.116 L90.608,13.676 L92.108,13.676 L91.988,14.528 L90.608,14.528 L90.608,18.296 C90.608,18.6240016 90.6659994,18.8619993 90.782,19.01 C90.8980006,19.1580007 91.0919986,19.232 91.364,19.232 C91.6280013,19.232 91.9079985,19.1400009 92.204,18.956 L92.624,19.712 C92.2079979,20.0000014 91.7360026,20.144 91.208,20.144 Z M98.156,19.094 C98.2440004,19.2180006 98.3759991,19.3119997 98.552,19.376 L98.3,20.144 C97.9719984,20.1039998 97.708001,20.0120007 97.508,19.868 C97.307999,19.7239993 97.1600005,19.5000015 97.064,19.196 C96.6399979,19.8280032 96.0120042,20.144 95.18,20.144 C94.5559969,20.144 94.0640018,19.9680018 93.704,19.616 C93.3439982,19.2639982 93.164,18.8040028 93.164,18.236 C93.164,17.5639966 93.4059976,17.0480018 93.89,16.688 C94.3740024,16.3279982 95.0599956,16.148 95.948,16.148 L96.92,16.148 L96.92,15.68 C96.92,15.2319978 96.8120011,14.912001 96.596,14.72 C96.3799989,14.527999 96.0480022,14.432 95.6,14.432 C95.1359977,14.432 94.5680034,14.5439989 93.896,14.768 L93.62,13.964 C94.4040039,13.6759986 95.1319966,13.532 95.804,13.532 C96.5480037,13.532 97.1039982,13.7139982 97.472,14.078 C97.8400018,14.4420018 98.024,14.9599966 98.024,15.632 L98.024,18.524 C98.024,18.7800013 98.0679996,18.9699994 98.156,19.094 Z M96.92,18.332 L96.92,16.88 L96.092,16.88 C94.9239942,16.88 94.34,17.3119957 94.34,18.176 C94.34,18.5520019 94.4319991,18.835999 94.616,19.028 C94.8000009,19.220001 95.0719982,19.316 95.432,19.316 C96.0640032,19.316 96.5599982,18.9880033 96.92,18.332 Z M104.618,14.048 C104.942002,14.3920017 105.104,14.863997 105.104,15.464 L105.104,20 L104,20 L104,15.62 C104,15.1719978 103.916001,14.8560009 103.748,14.672 C103.579999,14.4879991 103.332002,14.396 103.004,14.396 C102.667998,14.396 102.372001,14.491999 102.116,14.684 C101.859999,14.876001 101.620001,15.1519982 101.396,15.512 L101.396,20 L100.292,20 L100.292,13.676 L101.24,13.676 L101.336,14.612 C101.560001,14.2759983 101.837998,14.012001 102.17,13.82 C102.502002,13.627999 102.867998,13.532 103.268,13.532 C103.844003,13.532 104.293998,13.7039983 104.618,14.048 Z M109.1,20.144 C108.563997,20.144 108.146002,19.9900015 107.846,19.682 C107.545999,19.3739985 107.396,18.9280029 107.396,18.344 L107.396,14.528 L106.292,14.528 L106.292,13.676 L107.396,13.676 L107.396,12.248 L108.5,12.116 L108.5,13.676 L110,13.676 L109.88,14.528 L108.5,14.528 L108.5,18.296 C108.5,18.6240016 108.557999,18.8619993 108.674,19.01 C108.790001,19.1580007 108.983999,19.232 109.256,19.232 C109.520001,19.232 109.799999,19.1400009 110.096,18.956 L110.516,19.712 C110.099998,20.0000014 109.628003,20.144 109.1,20.144 Z M119.444,12.374 C120.004003,12.8020021 120.284,13.4399958 120.284,14.288 C120.284,15.1920045 119.992003,15.8639978 119.408,16.304 C118.823997,16.7440022 118.048005,16.964 117.08,16.964 L116.036,16.964 L116.036,20 L114.896,20 L114.896,11.732 L117.068,11.732 C118.092005,11.732 118.883997,11.9459979 119.444,12.374 Z M118.55,15.68 C118.898002,15.4239987 119.072,14.9640033 119.072,14.3 C119.072,13.707997 118.898002,13.2800013 118.55,13.016 C118.201998,12.7519987 117.704003,12.62 117.056,12.62 L116.036,12.62 L116.036,16.064 L117.032,16.064 C117.696003,16.064 118.201998,15.9360013 118.55,15.68 Z M122.942,19.112 C123.002,19.1920004 123.103999,19.232 123.248,19.232 C123.400001,19.232 123.535999,19.2080002 123.656,19.16 L123.944,19.928 C123.647999,20.0720007 123.336002,20.144 123.008,20.144 C122.599998,20.144 122.288001,20.0260012 122.072,19.79 C121.855999,19.5539988 121.748,19.2080023 121.748,18.752 L121.748,11.132 L122.852,11 L122.852,18.728 C122.852,18.9040009 122.882,19.0319996 122.942,19.112 Z M129.716,19.094 C129.804,19.2180006 129.935999,19.3119997 130.112,19.376 L129.86,20.144 C129.531998,20.1039998 129.268001,20.0120007 129.068,19.868 C128.867999,19.7239993 128.72,19.5000015 128.624,19.196 C128.199998,19.8280032 127.572004,20.144 126.74,20.144 C126.115997,20.144 125.624002,19.9680018 125.264,19.616 C124.903998,19.2639982 124.724,18.8040028 124.724,18.236 C124.724,17.5639966 124.965998,17.0480018 125.45,16.688 C125.934002,16.3279982 126.619996,16.148 127.508,16.148 L128.48,16.148 L128.48,15.68 C128.48,15.2319978 128.372001,14.912001 128.156,14.72 C127.939999,14.527999 127.608002,14.432 127.16,14.432 C126.695998,14.432 126.128003,14.5439989 125.456,14.768 L125.18,13.964 C125.964004,13.6759986 126.691997,13.532 127.364,13.532 C128.108004,13.532 128.663998,13.7139982 129.032,14.078 C129.400002,14.4420018 129.584,14.9599966 129.584,15.632 L129.584,18.524 C129.584,18.7800013 129.628,18.9699994 129.716,19.094 Z M128.48,18.332 L128.48,16.88 L127.652,16.88 C126.483994,16.88 125.9,17.3119957 125.9,18.176 C125.9,18.5520019 125.991999,18.835999 126.176,19.028 C126.360001,19.220001 126.631998,19.316 126.992,19.316 C127.624003,19.316 128.119998,18.9880033 128.48,18.332 Z M136.178,14.048 C136.502002,14.3920017 136.664,14.863997 136.664,15.464 L136.664,20 L135.56,20 L135.56,15.62 C135.56,15.1719978 135.476001,14.8560009 135.308,14.672 C135.139999,14.4879991 134.892002,14.396 134.564,14.396 C134.227998,14.396 133.932001,14.491999 133.676,14.684 C133.419999,14.876001 133.180001,15.1519982 132.956,15.512 L132.956,20 L131.852,20 L131.852,13.676 L132.8,13.676 L132.896,14.612 C133.120001,14.2759983 133.397998,14.012001 133.73,13.82 C134.062002,13.627999 134.427998,13.532 134.828,13.532 C135.404003,13.532 135.853998,13.7039983 136.178,14.048 Z M140.66,20.144 C140.123997,20.144 139.706002,19.9900015 139.406,19.682 C139.105998,19.3739985 138.956,18.9280029 138.956,18.344 L138.956,14.528 L137.852,14.528 L137.852,13.676 L138.956,13.676 L138.956,12.248 L140.06,12.116 L140.06,13.676 L141.56,13.676 L141.44,14.528 L140.06,14.528 L140.06,18.296 C140.06,18.6240016 140.117999,18.8619993 140.234,19.01 C140.350001,19.1580007 140.543999,19.232 140.816,19.232 C141.080001,19.232 141.359999,19.1400009 141.656,18.956 L142.076,19.712 C141.659998,20.0000014 141.188003,20.144 140.66,20.144 Z M147.104,17.924 L146.48,20 L145.328,20 L147.98,11.732 L149.42,11.732 L152.06,20 L150.86,20 L150.236,17.924 L147.104,17.924 Z M148.676,12.68 L147.38,17 L149.96,17 L148.676,12.68 Z M156.644,13.604 L156.44,14.684 C156.247999,14.6359998 156.064001,14.612 155.888,14.612 C155.495998,14.612 155.180001,14.7559986 154.94,15.044 C154.699999,15.3320014 154.512001,15.779997 154.376,16.388 L154.376,20 L153.272,20 L153.272,13.676 L154.22,13.676 L154.328,14.96 C154.496001,14.4879976 154.723999,14.1320012 155.012,13.892 C155.300001,13.6519988 155.635998,13.532 156.02,13.532 C156.244001,13.532 156.451999,13.5559998 156.644,13.604 Z M162.536,17.216 L158.504,17.216 C158.552,17.9120035 158.727998,18.4239984 159.032,18.752 C159.336002,19.0800016 159.727998,19.244 160.208,19.244 C160.512002,19.244 160.791999,19.2000004 161.048,19.112 C161.304001,19.0239996 161.571999,18.884001 161.852,18.692 L162.332,19.352 C161.659997,19.8800026 160.924004,20.144 160.124,20.144 C159.243996,20.144 158.558002,19.8560029 158.066,19.28 C157.573998,18.7039971 157.328,17.912005 157.328,16.904 C157.328,16.2479967 157.433999,15.6660025 157.646,15.158 C157.858001,14.6499975 158.161998,14.2520014 158.558,13.964 C158.954002,13.6759986 159.419997,13.532 159.956,13.532 C160.796004,13.532 161.439998,13.8079972 161.888,14.36 C162.336002,14.9120028 162.56,15.6759951 162.56,16.652 C162.56,16.8360009 162.552,17.023999 162.536,17.216 Z M161.468,16.328 C161.468,15.7039969 161.344001,15.2280016 161.096,14.9 C160.847999,14.5719984 160.476002,14.408 159.98,14.408 C159.075995,14.408 158.584,15.0719934 158.504,16.4 L161.468,16.4 L161.468,16.328 Z M168.776,19.094 C168.864,19.2180006 168.995999,19.3119997 169.172,19.376 L168.92,20.144 C168.591998,20.1039998 168.328001,20.0120007 168.128,19.868 C167.927999,19.7239993 167.78,19.5000015 167.684,19.196 C167.259998,19.8280032 166.632004,20.144 165.8,20.144 C165.175997,20.144 164.684002,19.9680018 164.324,19.616 C163.963998,19.2639982 163.784,18.8040028 163.784,18.236 C163.784,17.5639966 164.025998,17.0480018 164.51,16.688 C164.994002,16.3279982 165.679996,16.148 166.568,16.148 L167.54,16.148 L167.54,15.68 C167.54,15.2319978 167.432001,14.912001 167.216,14.72 C166.999999,14.527999 166.668002,14.432 166.22,14.432 C165.755998,14.432 165.188003,14.5439989 164.516,14.768 L164.24,13.964 C165.024004,13.6759986 165.751997,13.532 166.424,13.532 C167.168004,13.532 167.723998,13.7139982 168.092,14.078 C168.460002,14.4420018 168.644,14.9599966 168.644,15.632 L168.644,18.524 C168.644,18.7800013 168.688,18.9699994 168.776,19.094 Z M167.54,18.332 L167.54,16.88 L166.712,16.88 C165.543994,16.88 164.96,17.3119957 164.96,18.176 C164.96,18.5520019 165.051999,18.835999 165.236,19.028 C165.420001,19.220001 165.691998,19.316 166.052,19.316 C166.684003,19.316 167.179998,18.9880033 167.54,18.332 Z M173.792,13.712 C174.136002,13.8320006 174.463998,14.0119988 174.776,14.252 L174.296,14.984 C174.015999,14.783999 173.746001,14.6380005 173.486,14.546 C173.225999,14.4539995 172.952001,14.408 172.664,14.408 C172.303998,14.408 172.020001,14.4819993 171.812,14.63 C171.603999,14.7780007 171.5,14.9799987 171.5,15.236 C171.5,15.4920013 171.597999,15.6919993 171.794,15.836 C171.990001,15.9800007 172.343997,16.1199993 172.856,16.256 C173.560004,16.4320009 174.085998,16.6719985 174.434,16.976 C174.782002,17.2800015 174.956,17.6959974 174.956,18.224 C174.956,18.8480031 174.714002,19.3239984 174.23,19.652 C173.745998,19.9800016 173.156003,20.144 172.46,20.144 C171.499995,20.144 170.704003,19.8680028 170.072,19.316 L170.684,18.62 C171.180002,19.0440021 171.763997,19.256 172.436,19.256 C172.844002,19.256 173.171999,19.1720008 173.42,19.004 C173.668001,18.8359992 173.792,18.6120014 173.792,18.332 C173.792,18.1079989 173.748,17.9260007 173.66,17.786 C173.572,17.6459993 173.422001,17.5260005 173.21,17.426 C172.997999,17.3259995 172.680002,17.2200006 172.256,17.108 C171.583997,16.9319991 171.098001,16.6940015 170.798,16.394 C170.497998,16.0939985 170.348,15.7160023 170.348,15.26 C170.348,14.9319984 170.445999,14.6360013 170.642,14.372 C170.838001,14.1079987 171.109998,13.9020007 171.458,13.754 C171.806002,13.6059993 172.195998,13.532 172.628,13.532 C173.060002,13.532 173.447998,13.5919994 173.792,13.712 Z M177.77,11.714 C178.054001,12.1980024 178.293999,12.7779966 178.49,13.454 C178.686001,14.1300034 178.784,14.9119956 178.784,15.8 C178.784,16.6880044 178.686001,17.4699966 178.49,18.146 C178.293999,18.8220034 178.054001,19.4019976 177.77,19.886 C177.485999,20.3700024 177.080003,20.9879962 176.552,21.74 L175.856,21.26 C176.272002,20.651997 176.601999,20.1020025 176.846,19.61 C177.090001,19.1179975 177.281999,18.5640031 177.422,17.948 C177.562001,17.3319969 177.632,16.6160041 177.632,15.8 C177.632,14.9759959 177.562001,14.2560031 177.422,13.64 C177.281999,13.0239969 177.090001,12.4740024 176.846,11.99 C176.601999,11.5059976 176.272002,10.9560031 175.856,10.34 L176.552,9.86 C177.080003,10.6120038 177.485999,11.2299976 177.77,11.714 Z" id="IPAs-(Important-Plan" fill="#212121"></path>
            <g id="Rectangle-6">
                <use fill-opacity="0.5" fill="#CC3333" fill-rule="evenodd" xlink:href="#path-1"></use>
                <rect stroke-opacity="0.7" stroke="#CC3333" stroke-width="1" x="10.5" y="11.5" width="9" height="9"></rect>
            </g>
        </g>
    </g>
</svg>