<?xml version="1.0" encoding="utf-8"?>
<!-- Generator: Adobe Illustrator 16.0.0, SVG Export Plug-In . SVG Version: 6.00 Build 0)  -->
<!DOCTYPE svg PUBLIC "-//W3C//DTD SVG 1.0//EN" "http://www.w3.org/TR/2001/REC-SVG-20010904/DTD/svg10.dtd">
<svg version="1.0" id="Layer_1" xmlns="http://www.w3.org/2000/svg" xmlns:xlink="http://www.w3.org/1999/xlink" x="0px" y="0px"
	 width="740px" height="480px" viewBox="0 0 740 480" enable-background="new 0 0 740 480" xml:space="preserve">
<title>infograph/piechart_IPA_traz</title>
<desc>Created with Sketch.</desc>
<g id="Symbols">
	<g id="infograph_x2F_piechart_x5F_IPA_x5F_traz">
		<g id="Group" transform="translate(24.000000, 21.000000)">
			<path id="Fill-1" fill="#7A9E50" d="M285.972,33.786C254.318,11.012,220.984,0.182,181.989,0v40.001
				c30.013,0.212,57.768,9.878,80.468,26.152L285.972,33.786z"/>
			<path id="Fill-4" fill="#B8E986" d="M264.082,67.322c34.517,25.497,56.913,66.459,56.913,112.664c0,77.32-62.681,140-140,140
				s-140-62.68-140-140c0-76.985,62.142-139.448,139-139.987V0C120.784,0.29,70.24,26.198,35.377,74.183
				c-58.43,80.423-40.602,192.985,39.821,251.416c80.422,58.43,192.985,40.602,251.417-39.821
				c58.232-80.152,40.712-192.222-39.021-250.818L264.082,67.322z"/>
		</g>
		<path id="_x32_5_x2C_000" fill="#7A9E50" d="M149.004,168.888c1.824,0.863,3.191,2.023,4.104,3.479s1.368,3.048,1.368,4.776
			c0,1.632-0.296,3.151-0.888,4.56s-1.744,3.072-3.456,4.992s-4.248,4.32-7.608,7.2h12.624l-0.96,7.104h-22.416v-6.527
			c3.712-3.521,6.456-6.225,8.232-8.112c1.775-1.888,3.016-3.44,3.72-4.656s1.056-2.384,1.056-3.504
			c0-1.088-0.304-1.944-0.911-2.568c-0.608-0.624-1.456-0.936-2.544-0.936c-1.057,0-2.009,0.264-2.856,0.792
			s-1.72,1.352-2.616,2.472l-5.424-4.319c1.376-1.856,3.072-3.328,5.088-4.416c2.017-1.088,4.304-1.633,6.864-1.633
			C144.972,167.592,147.18,168.024,149.004,168.888z M178.908,174.984h-11.28v5.231c1.472-0.672,2.992-1.008,4.56-1.008
			c1.792,0,3.4,0.424,4.824,1.272c1.424,0.848,2.552,2.088,3.384,3.72s1.248,3.568,1.248,5.808c0,2.368-0.56,4.456-1.68,6.265
			c-1.12,1.808-2.72,3.208-4.8,4.2c-2.08,0.991-4.496,1.487-7.248,1.487c-4.832,0-8.688-1.808-11.568-5.424l5.232-4.752
			c1.6,2.112,3.567,3.168,5.903,3.168c1.44,0,2.544-0.408,3.312-1.224c0.768-0.816,1.151-2.008,1.151-3.576
			c0-1.664-0.327-2.856-0.983-3.576s-1.592-1.08-2.809-1.08c-1.056,0-2.207,0.384-3.455,1.152h-6.192V168.36h21.408L178.908,174.984
			z M192.132,193.488c0.944,0.944,1.416,2.12,1.416,3.528c0,0.768-0.136,1.56-0.408,2.376c-0.271,0.815-0.776,2.056-1.512,3.72
			l-2.977,6.72h-4.896l2.112-8.784c-0.704-0.447-1.248-1.023-1.633-1.728c-0.384-0.704-0.575-1.488-0.575-2.352
			c0-1.408,0.472-2.576,1.416-3.505c0.943-0.928,2.119-1.392,3.527-1.392S191.188,192.544,192.132,193.488z M217.836,172.032
			c2.271,2.96,3.408,7.192,3.408,12.696s-1.137,9.752-3.408,12.744c-2.272,2.991-5.521,4.487-9.744,4.487s-7.472-1.496-9.744-4.487
			c-2.271-2.992-3.408-7.24-3.408-12.744s1.137-9.736,3.408-12.696c2.272-2.96,5.521-4.44,9.744-4.44
			S215.564,169.072,217.836,172.032z M206.004,175.344c-0.496,0.592-0.849,1.623-1.057,3.096c-0.207,1.472-0.312,3.567-0.312,6.288
			c0,2.752,0.104,4.855,0.312,6.312c0.208,1.456,0.561,2.488,1.057,3.097c0.496,0.607,1.191,0.911,2.088,0.911
			c0.928,0,1.632-0.279,2.112-0.84c0.479-0.56,0.823-1.576,1.031-3.048s0.312-3.616,0.312-6.432c0-2.849-0.104-5-0.312-6.456
			s-0.552-2.456-1.031-3c-0.48-0.544-1.185-0.816-2.112-0.816C207.196,174.456,206.5,174.752,206.004,175.344z M246.732,172.032
			c2.272,2.96,3.408,7.192,3.408,12.696s-1.136,9.752-3.408,12.744c-2.271,2.991-5.52,4.487-9.744,4.487
			c-4.224,0-7.472-1.496-9.743-4.487c-2.272-2.992-3.408-7.24-3.408-12.744s1.136-9.736,3.408-12.696
			c2.271-2.96,5.52-4.44,9.743-4.44C241.212,167.592,244.46,169.072,246.732,172.032z M234.9,175.344
			c-0.496,0.592-0.848,1.623-1.056,3.096c-0.208,1.472-0.312,3.567-0.312,6.288c0,2.752,0.104,4.855,0.312,6.312
			s0.56,2.488,1.056,3.097c0.496,0.607,1.192,0.911,2.088,0.911c0.929,0,1.633-0.279,2.112-0.84c0.48-0.56,0.824-1.576,1.032-3.048
			s0.312-3.616,0.312-6.432c0-2.849-0.104-5-0.312-6.456s-0.552-2.456-1.032-3c-0.479-0.544-1.184-0.816-2.112-0.816
			C236.092,174.456,235.396,174.752,234.9,175.344z M275.628,172.032c2.271,2.96,3.408,7.192,3.408,12.696
			s-1.137,9.752-3.408,12.744c-2.272,2.991-5.521,4.487-9.744,4.487s-7.472-1.496-9.744-4.487c-2.271-2.992-3.408-7.24-3.408-12.744
			s1.137-9.736,3.408-12.696c2.272-2.96,5.521-4.44,9.744-4.44S273.356,169.072,275.628,172.032z M263.796,175.344
			c-0.496,0.592-0.849,1.623-1.057,3.096c-0.207,1.472-0.312,3.567-0.312,6.288c0,2.752,0.104,4.855,0.312,6.312
			c0.208,1.456,0.561,2.488,1.057,3.097c0.496,0.607,1.191,0.911,2.088,0.911c0.928,0,1.632-0.279,2.112-0.84
			c0.479-0.56,0.823-1.576,1.031-3.048s0.312-3.616,0.312-6.432c0-2.849-0.104-5-0.312-6.456s-0.552-2.456-1.031-3
			c-0.48-0.544-1.185-0.816-2.112-0.816C264.988,174.456,264.292,174.752,263.796,175.344z"/>
		<path id="vascular-plants-in-t" fill="#909090" d="M136.695,225l-3.275-9.485h1.8l2.484,8.01l2.466-8.01h1.746L138.693,225
			H136.695z M150.393,223.641c0.132,0.186,0.33,0.327,0.594,0.423l-0.378,1.151c-0.491-0.06-0.888-0.197-1.188-0.413
			c-0.3-0.217-0.522-0.553-0.666-1.009c-0.636,0.948-1.578,1.422-2.826,1.422c-0.936,0-1.674-0.264-2.214-0.792
			c-0.54-0.527-0.811-1.218-0.811-2.069c0-1.008,0.363-1.782,1.09-2.322c0.726-0.54,1.755-0.81,3.087-0.81h1.458v-0.702
			c0-0.672-0.162-1.152-0.486-1.44s-0.822-0.432-1.494-0.432c-0.696,0-1.548,0.168-2.556,0.504l-0.414-1.206
			c1.176-0.432,2.268-0.648,3.276-0.648c1.115,0,1.949,0.273,2.502,0.819c0.552,0.546,0.827,1.323,0.827,2.331v4.338
			C150.195,223.17,150.261,223.455,150.393,223.641z M148.539,222.498v-2.178h-1.242c-1.752,0-2.628,0.647-2.628,1.944
			c0,0.563,0.138,0.989,0.414,1.277c0.275,0.288,0.684,0.433,1.224,0.433C147.255,223.974,147.999,223.482,148.539,222.498z
			 M157.917,215.568c0.516,0.18,1.008,0.45,1.476,0.81l-0.72,1.099c-0.42-0.301-0.825-0.52-1.215-0.657
			c-0.391-0.138-0.801-0.207-1.233-0.207c-0.54,0-0.966,0.111-1.278,0.333c-0.312,0.222-0.468,0.525-0.468,0.909
			s0.147,0.684,0.441,0.899c0.294,0.217,0.825,0.427,1.593,0.63c1.056,0.265,1.845,0.624,2.367,1.08
			c0.521,0.456,0.783,1.08,0.783,1.872c0,0.937-0.363,1.65-1.089,2.143c-0.727,0.492-1.611,0.737-2.655,0.737
			c-1.44,0-2.634-0.413-3.582-1.241l0.918-1.044c0.744,0.636,1.62,0.953,2.628,0.953c0.612,0,1.104-0.126,1.476-0.378
			s0.559-0.588,0.559-1.008c0-0.336-0.066-0.608-0.198-0.818s-0.357-0.391-0.675-0.54c-0.318-0.15-0.795-0.31-1.432-0.478
			c-1.008-0.264-1.736-0.621-2.187-1.071c-0.45-0.449-0.675-1.017-0.675-1.7c0-0.492,0.146-0.937,0.44-1.332
			c0.294-0.396,0.702-0.705,1.225-0.928c0.521-0.222,1.106-0.333,1.755-0.333C156.819,215.298,157.401,215.388,157.917,215.568z
			 M167.007,215.541c0.468,0.162,0.918,0.423,1.35,0.783l-0.81,1.08c-0.324-0.252-0.643-0.438-0.954-0.558
			c-0.312-0.12-0.666-0.181-1.062-0.181c-0.768,0-1.364,0.307-1.79,0.918c-0.427,0.612-0.64,1.519-0.64,2.719
			c0,1.199,0.21,2.085,0.63,2.654c0.42,0.57,1.021,0.855,1.8,0.855c0.385,0,0.729-0.061,1.035-0.181
			c0.307-0.119,0.64-0.317,0.999-0.594l0.792,1.134c-0.863,0.696-1.83,1.044-2.897,1.044c-1.284,0-2.295-0.432-3.033-1.296
			c-0.738-0.863-1.107-2.058-1.107-3.582c0-1.008,0.168-1.89,0.504-2.646c0.337-0.756,0.813-1.344,1.432-1.764
			c0.618-0.421,1.353-0.631,2.205-0.631C166.023,215.298,166.539,215.379,167.007,215.541z M176.241,225l-0.126-1.476
			c-0.36,0.588-0.774,1.017-1.242,1.287c-0.469,0.27-1.038,0.404-1.71,0.404c-0.828,0-1.477-0.252-1.944-0.756
			s-0.702-1.218-0.702-2.142v-6.804h1.656v6.624c0,0.647,0.114,1.106,0.342,1.377c0.229,0.27,0.6,0.404,1.116,0.404
			c0.924,0,1.716-0.546,2.376-1.638v-6.768h1.656V225H176.241z M182.784,223.668c0.09,0.12,0.242,0.181,0.459,0.181
			c0.228,0,0.432-0.036,0.611-0.108l0.433,1.152c-0.444,0.216-0.912,0.323-1.404,0.323c-0.612,0-1.08-0.177-1.404-0.53
			c-0.324-0.354-0.485-0.873-0.485-1.558v-11.43l1.655-0.198v11.592C182.649,223.356,182.694,223.548,182.784,223.668z
			 M192.945,223.641c0.133,0.186,0.33,0.327,0.595,0.423l-0.378,1.151c-0.492-0.06-0.889-0.197-1.188-0.413
			c-0.3-0.217-0.521-0.553-0.666-1.009c-0.636,0.948-1.578,1.422-2.826,1.422c-0.936,0-1.674-0.264-2.214-0.792
			c-0.54-0.527-0.81-1.218-0.81-2.069c0-1.008,0.362-1.782,1.089-2.322c0.726-0.54,1.755-0.81,3.087-0.81h1.458v-0.702
			c0-0.672-0.162-1.152-0.486-1.44s-0.821-0.432-1.494-0.432c-0.695,0-1.548,0.168-2.556,0.504l-0.414-1.206
			c1.176-0.432,2.269-0.648,3.276-0.648c1.116,0,1.95,0.273,2.502,0.819s0.828,1.323,0.828,2.331v4.338
			C192.747,223.17,192.813,223.455,192.945,223.641z M191.091,222.498v-2.178h-1.242c-1.752,0-2.628,0.647-2.628,1.944
			c0,0.563,0.138,0.989,0.414,1.277s0.684,0.433,1.224,0.433C189.807,223.974,190.551,223.482,191.091,222.498z M201.207,215.406
			l-0.307,1.62c-0.288-0.072-0.563-0.108-0.828-0.108c-0.588,0-1.062,0.216-1.422,0.648c-0.359,0.432-0.642,1.104-0.846,2.016V225
			h-1.656v-9.485h1.422l0.162,1.926c0.252-0.708,0.595-1.242,1.026-1.603c0.432-0.359,0.936-0.54,1.512-0.54
			C200.607,215.298,200.919,215.334,201.207,215.406z M214.887,216.594c0.564,0.863,0.846,2.081,0.846,3.653
			c0,1.488-0.323,2.688-0.972,3.601s-1.566,1.367-2.754,1.367c-1.056,0-1.884-0.359-2.484-1.079v4.5l-1.655,0.197v-13.319h1.422
			l0.126,1.277c0.348-0.479,0.768-0.849,1.26-1.106s1.008-0.388,1.548-0.388C213.435,215.298,214.323,215.73,214.887,216.594z
			 M213.951,220.248c0-2.424-0.715-3.636-2.143-3.636c-0.468,0-0.894,0.138-1.278,0.414c-0.384,0.276-0.72,0.63-1.008,1.062v4.626
			c0.24,0.372,0.54,0.657,0.9,0.855s0.756,0.297,1.188,0.297C213.171,223.866,213.951,222.66,213.951,220.248z M220.26,223.668
			c0.09,0.12,0.243,0.181,0.459,0.181c0.228,0,0.432-0.036,0.612-0.108l0.432,1.152c-0.444,0.216-0.912,0.323-1.404,0.323
			c-0.611,0-1.08-0.177-1.403-0.53c-0.324-0.354-0.486-0.873-0.486-1.558v-11.43l1.656-0.198v11.592
			C220.125,223.356,220.17,223.548,220.26,223.668z M230.421,223.641c0.132,0.186,0.33,0.327,0.594,0.423l-0.378,1.151
			c-0.492-0.06-0.888-0.197-1.188-0.413c-0.301-0.217-0.522-0.553-0.666-1.009c-0.637,0.948-1.578,1.422-2.826,1.422
			c-0.937,0-1.674-0.264-2.214-0.792c-0.54-0.527-0.811-1.218-0.811-2.069c0-1.008,0.363-1.782,1.089-2.322
			c0.727-0.54,1.755-0.81,3.087-0.81h1.458v-0.702c0-0.672-0.162-1.152-0.485-1.44c-0.324-0.288-0.822-0.432-1.494-0.432
			c-0.696,0-1.548,0.168-2.557,0.504l-0.413-1.206c1.176-0.432,2.268-0.648,3.275-0.648c1.116,0,1.95,0.273,2.502,0.819
			s0.828,1.323,0.828,2.331v4.338C230.223,223.17,230.289,223.455,230.421,223.641z M228.567,222.498v-2.178h-1.241
			c-1.753,0-2.629,0.647-2.629,1.944c0,0.563,0.139,0.989,0.414,1.277c0.276,0.288,0.685,0.433,1.225,0.433
			C227.283,223.974,228.027,223.482,228.567,222.498z M240.114,216.072c0.486,0.516,0.729,1.224,0.729,2.124V225h-1.656v-6.569
			c0-0.673-0.126-1.146-0.378-1.423c-0.252-0.275-0.624-0.413-1.116-0.413c-0.504,0-0.947,0.144-1.332,0.432
			c-0.384,0.288-0.743,0.702-1.08,1.242V225h-1.655v-9.485h1.422l0.144,1.403c0.336-0.504,0.753-0.899,1.251-1.188
			s1.047-0.433,1.647-0.433C238.953,215.298,239.628,215.556,240.114,216.072z M246.837,225.216c-0.804,0-1.432-0.23-1.881-0.692
			c-0.45-0.462-0.676-1.131-0.676-2.007v-5.725h-1.655v-1.277h1.655v-2.143l1.656-0.198v2.341h2.25l-0.18,1.277h-2.07v5.652
			c0,0.492,0.087,0.849,0.261,1.071c0.175,0.222,0.466,0.333,0.873,0.333c0.396,0,0.816-0.139,1.261-0.414l0.63,1.134
			C248.337,225,247.629,225.216,246.837,225.216z M254.991,215.568c0.516,0.18,1.008,0.45,1.476,0.81l-0.72,1.099
			c-0.42-0.301-0.825-0.52-1.216-0.657c-0.39-0.138-0.801-0.207-1.232-0.207c-0.54,0-0.966,0.111-1.278,0.333
			c-0.312,0.222-0.468,0.525-0.468,0.909s0.147,0.684,0.441,0.899c0.294,0.217,0.824,0.427,1.593,0.63
			c1.056,0.265,1.845,0.624,2.367,1.08c0.521,0.456,0.782,1.08,0.782,1.872c0,0.937-0.362,1.65-1.089,2.143
			c-0.726,0.492-1.61,0.737-2.654,0.737c-1.44,0-2.635-0.413-3.582-1.241l0.918-1.044c0.743,0.636,1.619,0.953,2.628,0.953
			c0.611,0,1.104-0.126,1.476-0.378s0.559-0.588,0.559-1.008c0-0.336-0.066-0.608-0.198-0.818s-0.357-0.391-0.675-0.54
			c-0.318-0.15-0.796-0.31-1.432-0.478c-1.008-0.264-1.736-0.621-2.187-1.071c-0.45-0.449-0.675-1.017-0.675-1.7
			c0-0.492,0.146-0.937,0.44-1.332c0.294-0.396,0.702-0.705,1.224-0.928c0.522-0.222,1.107-0.333,1.756-0.333
			C253.893,215.298,254.475,215.388,254.991,215.568z M263.847,225v-9.485h1.656V225H263.847z M265.503,211.284
			c0.216,0.216,0.324,0.486,0.324,0.811c0,0.323-0.108,0.591-0.324,0.801s-0.498,0.314-0.846,0.314
			c-0.337,0-0.612-0.104-0.828-0.314c-0.217-0.21-0.324-0.478-0.324-0.801c0-0.324,0.107-0.595,0.324-0.811
			c0.216-0.216,0.491-0.324,0.828-0.324C265.005,210.96,265.287,211.068,265.503,211.284z M275.412,216.072
			c0.485,0.516,0.729,1.224,0.729,2.124V225h-1.656v-6.569c0-0.673-0.126-1.146-0.378-1.423c-0.252-0.275-0.624-0.413-1.115-0.413
			c-0.505,0-0.948,0.144-1.332,0.432c-0.385,0.288-0.744,0.702-1.08,1.242V225h-1.656v-9.485h1.422l0.144,1.403
			c0.337-0.504,0.754-0.899,1.251-1.188c0.498-0.288,1.048-0.433,1.647-0.433C274.251,215.298,274.926,215.556,275.412,216.072z
			 M109.092,245.216c-0.804,0-1.431-0.23-1.881-0.692s-0.675-1.131-0.675-2.007v-5.725h-1.656v-1.277h1.656v-2.143l1.655-0.198
			v2.341h2.25l-0.18,1.277h-2.07v5.652c0,0.492,0.087,0.849,0.262,1.071c0.174,0.222,0.465,0.333,0.873,0.333
			c0.396,0,0.815-0.139,1.26-0.414l0.63,1.134C110.592,245,109.884,245.216,109.092,245.216z M119.415,236.072
			c0.485,0.516,0.729,1.224,0.729,2.124V245h-1.656v-6.569c0-0.673-0.129-1.146-0.387-1.423c-0.258-0.275-0.633-0.413-1.125-0.413
			s-0.93,0.144-1.313,0.432c-0.385,0.288-0.744,0.696-1.08,1.224V245h-1.656v-13.284l1.656-0.18v5.292
			c0.744-1.02,1.68-1.53,2.808-1.53C118.254,235.298,118.929,235.556,119.415,236.072z M130.602,240.824h-6.048
			c0.072,1.044,0.336,1.812,0.792,2.304c0.456,0.492,1.044,0.738,1.764,0.738c0.456,0,0.876-0.066,1.261-0.198
			c0.384-0.132,0.785-0.342,1.206-0.63l0.72,0.99c-1.008,0.792-2.112,1.188-3.312,1.188c-1.319,0-2.349-0.432-3.087-1.296
			c-0.737-0.863-1.106-2.052-1.106-3.563c0-0.984,0.159-1.857,0.477-2.619c0.318-0.762,0.774-1.359,1.368-1.791
			s1.293-0.648,2.097-0.648c1.261,0,2.227,0.414,2.898,1.242s1.008,1.975,1.008,3.438
			C130.638,240.254,130.626,240.536,130.602,240.824z M129,239.492c0-0.936-0.187-1.65-0.559-2.142
			c-0.372-0.492-0.93-0.738-1.674-0.738c-1.355,0-2.094,0.996-2.214,2.988H129V239.492z M147.666,245l-0.433-5.598
			c-0.18-2.196-0.281-3.882-0.306-5.058l-2.682,9.252h-1.603l-2.826-9.271c0,1.5-0.077,3.234-0.233,5.202L139.17,245h-1.62
			l1.026-12.401h2.304l2.61,9.018l2.483-9.018h2.322L149.322,245H147.666z M159.51,240.824h-6.048
			c0.072,1.044,0.336,1.812,0.792,2.304c0.456,0.492,1.044,0.738,1.764,0.738c0.456,0,0.876-0.066,1.26-0.198
			c0.385-0.132,0.786-0.342,1.206-0.63l0.721,0.99c-1.009,0.792-2.112,1.188-3.312,1.188c-1.32,0-2.349-0.432-3.087-1.296
			c-0.738-0.863-1.107-2.052-1.107-3.563c0-0.984,0.159-1.857,0.478-2.619s0.774-1.359,1.368-1.791s1.293-0.648,2.097-0.648
			c1.26,0,2.227,0.414,2.898,1.242s1.008,1.975,1.008,3.438C159.546,240.254,159.534,240.536,159.51,240.824z M157.908,239.492
			c0-0.936-0.187-1.65-0.559-2.142c-0.372-0.492-0.93-0.738-1.674-0.738c-1.356,0-2.094,0.996-2.214,2.988h4.446V239.492z
			 M169.626,245h-1.458l-0.162-1.313c-0.312,0.479-0.702,0.854-1.17,1.125c-0.468,0.27-0.99,0.404-1.566,0.404
			c-1.128,0-2.007-0.443-2.637-1.332c-0.63-0.888-0.945-2.081-0.945-3.581c0-0.973,0.15-1.837,0.45-2.593s0.732-1.347,1.296-1.772
			c0.564-0.426,1.225-0.64,1.98-0.64c0.972,0,1.823,0.391,2.556,1.171V231.5l1.656,0.198V245z M166.926,243.551
			c0.36-0.233,0.708-0.585,1.044-1.053v-4.644c-0.312-0.408-0.645-0.717-0.999-0.927c-0.354-0.211-0.753-0.315-1.197-0.315
			c-0.731,0-1.299,0.306-1.701,0.918c-0.401,0.612-0.603,1.524-0.603,2.736c0,1.224,0.186,2.136,0.558,2.735
			c0.372,0.601,0.906,0.9,1.603,0.9C166.134,243.902,166.566,243.785,166.926,243.551z M173.046,245v-9.485h1.656V245H173.046z
			 M174.702,231.284c0.216,0.216,0.323,0.486,0.323,0.811c0,0.323-0.107,0.591-0.323,0.801c-0.217,0.21-0.498,0.314-0.847,0.314
			c-0.336,0-0.611-0.104-0.828-0.314c-0.216-0.21-0.323-0.478-0.323-0.801c0-0.324,0.107-0.595,0.323-0.811
			c0.217-0.216,0.492-0.324,0.828-0.324C174.204,230.96,174.486,231.068,174.702,231.284z M180.786,245.216
			c-0.805,0-1.432-0.23-1.882-0.692c-0.449-0.462-0.675-1.131-0.675-2.007v-5.725h-1.655v-1.277h1.655v-2.143l1.656-0.198v2.341
			h2.25l-0.18,1.277h-2.07v5.652c0,0.492,0.087,0.849,0.261,1.071c0.174,0.222,0.465,0.333,0.873,0.333
			c0.396,0,0.816-0.139,1.26-0.414l0.631,1.134C182.286,245,181.578,245.216,180.786,245.216z M191.568,240.824h-6.048
			c0.072,1.044,0.336,1.812,0.792,2.304c0.456,0.492,1.044,0.738,1.765,0.738c0.456,0,0.876-0.066,1.26-0.198
			s0.786-0.342,1.206-0.63l0.72,0.99c-1.008,0.792-2.112,1.188-3.312,1.188c-1.32,0-2.35-0.432-3.088-1.296
			c-0.737-0.863-1.106-2.052-1.106-3.563c0-0.984,0.159-1.857,0.477-2.619c0.318-0.762,0.774-1.359,1.368-1.791
			s1.293-0.648,2.097-0.648c1.261,0,2.227,0.414,2.898,1.242s1.008,1.975,1.008,3.438
			C191.604,240.254,191.592,240.536,191.568,240.824z M189.966,239.492c0-0.936-0.187-1.65-0.558-2.142
			c-0.372-0.492-0.931-0.738-1.675-0.738c-1.355,0-2.094,0.996-2.214,2.988h4.446V239.492z M199.398,235.406l-0.306,1.62
			c-0.288-0.072-0.564-0.108-0.828-0.108c-0.588,0-1.062,0.216-1.422,0.648c-0.36,0.432-0.642,1.104-0.846,2.016V245h-1.656v-9.485
			h1.422l0.162,1.926c0.252-0.708,0.594-1.242,1.026-1.603c0.432-0.359,0.936-0.54,1.512-0.54
			C198.798,235.298,199.11,235.334,199.398,235.406z M206.346,235.406l-0.306,1.62c-0.288-0.072-0.564-0.108-0.828-0.108
			c-0.588,0-1.062,0.216-1.422,0.648c-0.36,0.432-0.643,1.104-0.847,2.016V245h-1.655v-9.485h1.422l0.162,1.926
			c0.252-0.708,0.594-1.242,1.025-1.603c0.433-0.359,0.937-0.54,1.513-0.54C205.746,235.298,206.058,235.334,206.346,235.406z
			 M214.464,243.641c0.132,0.186,0.33,0.327,0.594,0.423l-0.378,1.151c-0.492-0.06-0.888-0.197-1.188-0.413
			c-0.301-0.217-0.522-0.553-0.666-1.009c-0.637,0.948-1.578,1.422-2.826,1.422c-0.937,0-1.674-0.264-2.214-0.792
			c-0.54-0.527-0.811-1.218-0.811-2.069c0-1.008,0.363-1.782,1.089-2.322c0.727-0.54,1.755-0.81,3.087-0.81h1.458v-0.702
			c0-0.672-0.162-1.152-0.485-1.44c-0.324-0.288-0.822-0.432-1.494-0.432c-0.696,0-1.548,0.168-2.556,0.504l-0.414-1.206
			c1.176-0.432,2.268-0.648,3.275-0.648c1.116,0,1.95,0.273,2.502,0.819c0.553,0.546,0.828,1.323,0.828,2.331v4.338
			C214.266,243.17,214.332,243.455,214.464,243.641z M212.61,242.498v-2.178h-1.241c-1.752,0-2.628,0.647-2.628,1.944
			c0,0.563,0.138,0.989,0.413,1.277c0.276,0.288,0.685,0.433,1.225,0.433C211.326,243.974,212.07,243.482,212.61,242.498z
			 M224.157,236.072c0.485,0.516,0.729,1.224,0.729,2.124V245h-1.656v-6.569c0-0.673-0.126-1.146-0.378-1.423
			c-0.252-0.275-0.624-0.413-1.116-0.413c-0.504,0-0.947,0.144-1.332,0.432c-0.384,0.288-0.743,0.702-1.079,1.242V245h-1.656v-9.485
			h1.422l0.144,1.403c0.336-0.504,0.753-0.899,1.251-1.188s1.048-0.433,1.647-0.433
			C222.996,235.298,223.671,235.556,224.157,236.072z M235.344,240.824h-6.048c0.072,1.044,0.336,1.812,0.792,2.304
			c0.456,0.492,1.044,0.738,1.764,0.738c0.456,0,0.876-0.066,1.26-0.198c0.385-0.132,0.786-0.342,1.206-0.63l0.721,0.99
			c-1.009,0.792-2.112,1.188-3.312,1.188c-1.32,0-2.349-0.432-3.087-1.296c-0.738-0.863-1.106-2.052-1.106-3.563
			c0-0.984,0.158-1.857,0.477-2.619s0.774-1.359,1.368-1.791s1.293-0.648,2.097-0.648c1.26,0,2.227,0.414,2.898,1.242
			s1.008,1.975,1.008,3.438C235.38,240.254,235.368,240.536,235.344,240.824z M233.742,239.492c0-0.936-0.187-1.65-0.559-2.142
			c-0.372-0.492-0.93-0.738-1.674-0.738c-1.356,0-2.094,0.996-2.214,2.988h4.446V239.492z M244.704,243.641
			c0.132,0.186,0.33,0.327,0.594,0.423l-0.378,1.151c-0.492-0.06-0.889-0.197-1.188-0.413c-0.3-0.217-0.521-0.553-0.666-1.009
			c-0.636,0.948-1.578,1.422-2.826,1.422c-0.936,0-1.674-0.264-2.214-0.792c-0.54-0.527-0.81-1.218-0.81-2.069
			c0-1.008,0.363-1.782,1.089-2.322s1.755-0.81,3.087-0.81h1.458v-0.702c0-0.672-0.162-1.152-0.486-1.44
			c-0.323-0.288-0.821-0.432-1.493-0.432c-0.696,0-1.549,0.168-2.557,0.504l-0.414-1.206c1.177-0.432,2.269-0.648,3.276-0.648
			c1.116,0,1.95,0.273,2.502,0.819s0.828,1.323,0.828,2.331v4.338C244.506,243.17,244.572,243.455,244.704,243.641z M242.85,242.498
			v-2.178h-1.242c-1.752,0-2.628,0.647-2.628,1.944c0,0.563,0.139,0.989,0.414,1.277c0.276,0.288,0.685,0.433,1.225,0.433
			C241.566,243.974,242.31,243.482,242.85,242.498z M254.397,236.072c0.486,0.516,0.729,1.224,0.729,2.124V245h-1.656v-6.569
			c0-0.673-0.126-1.146-0.378-1.423c-0.252-0.275-0.624-0.413-1.116-0.413c-0.504,0-0.948,0.144-1.332,0.432
			s-0.744,0.702-1.08,1.242V245h-1.655v-9.485h1.422l0.144,1.403c0.336-0.504,0.753-0.899,1.251-1.188s1.047-0.433,1.647-0.433
			C253.236,235.298,253.911,235.556,254.397,236.072z M270.858,239.348c0.528,0.456,0.792,1.164,0.792,2.124
			c0,2.352-1.638,3.527-4.914,3.527h-3.42v-12.401h2.935c1.571,0,2.774,0.258,3.608,0.773c0.834,0.517,1.251,1.302,1.251,2.358
			c0,0.72-0.225,1.319-0.675,1.8s-0.999,0.786-1.646,0.918C269.64,238.592,270.33,238.892,270.858,239.348z M265.026,237.854h1.872
			c0.721,0,1.312-0.174,1.773-0.522c0.462-0.348,0.692-0.84,0.692-1.476c0-0.72-0.242-1.218-0.729-1.494s-1.221-0.414-2.205-0.414
			h-1.404V237.854z M269.049,243.182c0.534-0.301,0.801-0.87,0.801-1.71c0-0.816-0.258-1.404-0.773-1.765
			c-0.517-0.359-1.188-0.54-2.017-0.54h-2.034v4.464h1.71C267.744,243.632,268.515,243.482,269.049,243.182z M280.758,243.641
			c0.132,0.186,0.33,0.327,0.594,0.423l-0.378,1.151c-0.492-0.06-0.888-0.197-1.188-0.413c-0.301-0.217-0.522-0.553-0.666-1.009
			c-0.637,0.948-1.578,1.422-2.826,1.422c-0.937,0-1.674-0.264-2.214-0.792c-0.54-0.527-0.811-1.218-0.811-2.069
			c0-1.008,0.363-1.782,1.089-2.322c0.727-0.54,1.755-0.81,3.087-0.81h1.458v-0.702c0-0.672-0.161-1.152-0.485-1.44
			s-0.822-0.432-1.494-0.432c-0.696,0-1.548,0.168-2.556,0.504l-0.414-1.206c1.176-0.432,2.268-0.648,3.275-0.648
			c1.116,0,1.95,0.273,2.502,0.819c0.553,0.546,0.828,1.323,0.828,2.331v4.338C280.56,243.17,280.626,243.455,280.758,243.641z
			 M278.904,242.498v-2.178h-1.241c-1.752,0-2.628,0.647-2.628,1.944c0,0.563,0.138,0.989,0.413,1.277
			c0.276,0.288,0.685,0.433,1.225,0.433C277.62,243.974,278.364,243.482,278.904,242.498z M288.282,235.568
			c0.516,0.18,1.008,0.45,1.476,0.81l-0.72,1.099c-0.42-0.301-0.825-0.52-1.216-0.657c-0.39-0.138-0.801-0.207-1.232-0.207
			c-0.54,0-0.966,0.111-1.278,0.333c-0.312,0.222-0.468,0.525-0.468,0.909s0.147,0.684,0.441,0.899
			c0.294,0.217,0.824,0.427,1.593,0.63c1.056,0.265,1.845,0.624,2.367,1.08c0.521,0.456,0.782,1.08,0.782,1.872
			c0,0.937-0.362,1.65-1.089,2.143c-0.726,0.492-1.61,0.737-2.654,0.737c-1.44,0-2.635-0.413-3.582-1.241l0.918-1.044
			c0.743,0.636,1.619,0.953,2.628,0.953c0.611,0,1.104-0.126,1.476-0.378s0.559-0.588,0.559-1.008c0-0.336-0.066-0.608-0.198-0.818
			s-0.357-0.391-0.675-0.54c-0.318-0.15-0.796-0.31-1.432-0.478c-1.008-0.264-1.736-0.621-2.187-1.071
			c-0.45-0.449-0.675-1.017-0.675-1.7c0-0.492,0.146-0.937,0.44-1.332c0.294-0.396,0.702-0.705,1.224-0.928
			c0.522-0.222,1.107-0.333,1.756-0.333C287.184,235.298,287.766,235.388,288.282,235.568z M292.368,245v-9.485h1.655V245H292.368z
			 M294.024,231.284c0.216,0.216,0.324,0.486,0.324,0.811c0,0.323-0.108,0.591-0.324,0.801s-0.498,0.314-0.846,0.314
			c-0.336,0-0.612-0.104-0.828-0.314s-0.324-0.478-0.324-0.801c0-0.324,0.108-0.595,0.324-0.811s0.492-0.324,0.828-0.324
			C293.526,230.96,293.808,231.068,294.024,231.284z M303.933,236.072c0.486,0.516,0.729,1.224,0.729,2.124V245h-1.656v-6.569
			c0-0.673-0.126-1.146-0.378-1.423c-0.252-0.275-0.624-0.413-1.116-0.413c-0.504,0-0.948,0.144-1.332,0.432
			s-0.744,0.702-1.08,1.242V245h-1.656v-9.485h1.423l0.144,1.403c0.336-0.504,0.753-0.899,1.251-1.188s1.047-0.433,1.647-0.433
			C302.772,235.298,303.447,235.556,303.933,236.072z"/>
		<path id="Vascular-plants-in-t" fill="#212121" d="M54.192,429l-3.107-9.646h1.428l2.422,8.204l2.422-8.204H58.7L55.62,429H54.192
			z M64.678,427.943c0.103,0.145,0.257,0.255,0.462,0.329l-0.294,0.896c-0.383-0.047-0.69-0.154-0.924-0.322
			s-0.406-0.43-0.519-0.784c-0.494,0.737-1.227,1.106-2.197,1.106c-0.729,0-1.303-0.206-1.723-0.616
			c-0.42-0.411-0.63-0.947-0.63-1.61c0-0.784,0.282-1.386,0.848-1.806c0.564-0.42,1.364-0.63,2.4-0.63h1.134v-0.546
			c0-0.523-0.126-0.896-0.378-1.12c-0.252-0.225-0.639-0.336-1.162-0.336c-0.541,0-1.203,0.13-1.987,0.392l-0.322-0.938
			c0.915-0.337,1.764-0.505,2.548-0.505c0.868,0,1.517,0.213,1.946,0.638s0.644,1.028,0.644,1.812v3.374
			C64.524,427.577,64.575,427.799,64.678,427.943z M63.236,427.054v-1.694H62.27c-1.362,0-2.044,0.504-2.044,1.512
			c0,0.439,0.107,0.771,0.322,0.994c0.215,0.225,0.532,0.336,0.952,0.336C62.238,428.202,62.816,427.82,63.236,427.054z
			 M70.53,421.664c0.401,0.141,0.784,0.351,1.148,0.631l-0.56,0.854c-0.327-0.233-0.642-0.403-0.945-0.511s-0.623-0.161-0.959-0.161
			c-0.42,0-0.751,0.086-0.994,0.259c-0.242,0.173-0.364,0.408-0.364,0.707s0.114,0.532,0.344,0.7
			c0.229,0.168,0.642,0.331,1.238,0.49c0.821,0.205,1.436,0.485,1.841,0.84c0.406,0.354,0.609,0.84,0.609,1.456
			c0,0.728-0.282,1.283-0.847,1.666s-1.253,0.574-2.065,0.574c-1.12,0-2.049-0.322-2.786-0.967l0.714-0.812
			c0.579,0.494,1.261,0.742,2.044,0.742c0.477,0,0.859-0.099,1.148-0.294c0.289-0.196,0.434-0.458,0.434-0.784
			c0-0.262-0.051-0.474-0.153-0.637c-0.103-0.164-0.278-0.304-0.525-0.421c-0.247-0.116-0.618-0.24-1.113-0.37
			c-0.783-0.206-1.351-0.483-1.7-0.833c-0.351-0.351-0.525-0.791-0.525-1.323c0-0.383,0.114-0.729,0.343-1.036
			s0.546-0.549,0.952-0.721c0.406-0.173,0.861-0.26,1.365-0.26S70.128,421.524,70.53,421.664z M77.6,421.643
			c0.364,0.126,0.714,0.329,1.05,0.609l-0.63,0.84c-0.252-0.196-0.499-0.341-0.742-0.435c-0.242-0.093-0.518-0.14-0.825-0.14
			c-0.598,0-1.062,0.238-1.394,0.714c-0.331,0.477-0.497,1.181-0.497,2.114s0.163,1.621,0.49,2.064s0.793,0.665,1.4,0.665
			c0.298,0,0.566-0.046,0.805-0.14s0.497-0.247,0.777-0.462l0.615,0.882c-0.672,0.541-1.423,0.812-2.254,0.812
			c-0.998,0-1.785-0.337-2.358-1.009c-0.574-0.672-0.861-1.601-0.861-2.786c0-0.783,0.131-1.47,0.392-2.058
			c0.262-0.588,0.633-1.045,1.113-1.372c0.48-0.326,1.053-0.49,1.715-0.49C76.834,421.454,77.236,421.517,77.6,421.643z M84.782,429
			l-0.099-1.147c-0.28,0.457-0.602,0.791-0.966,1.001s-0.808,0.315-1.33,0.315c-0.644,0-1.147-0.196-1.512-0.589
			c-0.364-0.392-0.546-0.947-0.546-1.666v-5.292h1.288v5.152c0,0.504,0.088,0.861,0.266,1.071s0.467,0.314,0.868,0.314
			c0.719,0,1.334-0.424,1.848-1.273v-5.265h1.288V429H84.782z M89.871,427.965c0.069,0.093,0.188,0.14,0.356,0.14
			c0.178,0,0.336-0.028,0.477-0.084l0.336,0.896c-0.346,0.169-0.71,0.253-1.093,0.253c-0.476,0-0.84-0.138-1.092-0.413
			s-0.378-0.68-0.378-1.211v-8.891l1.288-0.154v9.017C89.766,427.721,89.801,427.871,89.871,427.965z M97.774,427.943
			c0.103,0.145,0.257,0.255,0.462,0.329l-0.294,0.896c-0.382-0.047-0.69-0.154-0.924-0.322s-0.406-0.43-0.518-0.784
			c-0.495,0.737-1.228,1.106-2.198,1.106c-0.728,0-1.302-0.206-1.722-0.616c-0.42-0.411-0.63-0.947-0.63-1.61
			c0-0.784,0.282-1.386,0.847-1.806s1.365-0.63,2.4-0.63h1.135v-0.546c0-0.523-0.126-0.896-0.378-1.12
			c-0.252-0.225-0.64-0.336-1.162-0.336c-0.542,0-1.204,0.13-1.988,0.392l-0.322-0.938c0.915-0.337,1.765-0.505,2.548-0.505
			c0.868,0,1.518,0.213,1.946,0.638c0.43,0.425,0.645,1.028,0.645,1.812v3.374C97.62,427.577,97.671,427.799,97.774,427.943z
			 M96.332,427.054v-1.694h-0.966c-1.363,0-2.045,0.504-2.045,1.512c0,0.439,0.107,0.771,0.322,0.994
			c0.215,0.225,0.532,0.336,0.952,0.336C95.333,428.202,95.912,427.82,96.332,427.054z M104.2,421.538l-0.238,1.261
			c-0.225-0.057-0.438-0.084-0.645-0.084c-0.457,0-0.825,0.168-1.105,0.504s-0.499,0.858-0.658,1.567V429h-1.288v-7.378h1.106
			l0.126,1.498c0.195-0.55,0.462-0.966,0.798-1.246c0.336-0.279,0.728-0.42,1.176-0.42
			C103.734,421.454,103.976,421.482,104.2,421.538z M114.84,422.463c0.438,0.672,0.658,1.619,0.658,2.842
			c0,1.157-0.252,2.091-0.756,2.8c-0.505,0.709-1.219,1.064-2.143,1.064c-0.821,0-1.465-0.28-1.932-0.841v3.5l-1.288,0.154v-10.36
			h1.105l0.099,0.994c0.271-0.373,0.597-0.66,0.979-0.86c0.383-0.201,0.784-0.302,1.204-0.302
			C113.71,421.454,114.402,421.79,114.84,422.463z M114.112,425.304c0-1.886-0.555-2.828-1.666-2.828
			c-0.363,0-0.695,0.107-0.993,0.322c-0.299,0.214-0.561,0.489-0.784,0.825v3.599c0.187,0.289,0.42,0.511,0.7,0.665
			c0.279,0.153,0.588,0.23,0.924,0.23C113.505,428.118,114.112,427.18,114.112,425.304z M119.019,427.965
			c0.07,0.093,0.189,0.14,0.357,0.14c0.177,0,0.336-0.028,0.476-0.084l0.336,0.896c-0.345,0.169-0.709,0.253-1.092,0.253
			c-0.476,0-0.84-0.138-1.092-0.413s-0.378-0.68-0.378-1.211v-8.891l1.288-0.154v9.017
			C118.914,427.721,118.949,427.871,119.019,427.965z M126.922,427.943c0.103,0.145,0.257,0.255,0.462,0.329l-0.294,0.896
			c-0.383-0.047-0.69-0.154-0.924-0.322s-0.406-0.43-0.519-0.784c-0.494,0.737-1.227,1.106-2.197,1.106
			c-0.729,0-1.303-0.206-1.723-0.616c-0.42-0.411-0.63-0.947-0.63-1.61c0-0.784,0.282-1.386,0.847-1.806
			c0.565-0.42,1.365-0.63,2.401-0.63h1.134v-0.546c0-0.523-0.126-0.896-0.378-1.12c-0.252-0.225-0.639-0.336-1.162-0.336
			c-0.541,0-1.204,0.13-1.987,0.392l-0.322-0.938c0.914-0.337,1.764-0.505,2.548-0.505c0.868,0,1.517,0.213,1.946,0.638
			c0.429,0.425,0.644,1.028,0.644,1.812v3.374C126.768,427.577,126.82,427.799,126.922,427.943z M125.48,427.054v-1.694h-0.966
			c-1.362,0-2.044,0.504-2.044,1.512c0,0.439,0.107,0.771,0.322,0.994c0.215,0.225,0.532,0.336,0.952,0.336
			C124.482,428.202,125.06,427.82,125.48,427.054z M134.461,422.056c0.378,0.401,0.566,0.952,0.566,1.652V429h-1.287v-5.109
			c0-0.522-0.099-0.892-0.295-1.106c-0.195-0.214-0.485-0.321-0.867-0.321c-0.393,0-0.737,0.111-1.036,0.336
			c-0.299,0.224-0.579,0.546-0.84,0.966V429h-1.288v-7.378h1.105l0.112,1.093c0.262-0.393,0.586-0.7,0.973-0.925
			c0.388-0.224,0.814-0.336,1.281-0.336C133.558,421.454,134.083,421.655,134.461,422.056z M139.69,429.169
			c-0.625,0-1.112-0.18-1.463-0.539c-0.35-0.359-0.524-0.88-0.524-1.562v-4.452h-1.288v-0.994h1.288v-1.666l1.288-0.153v1.819h1.75
			l-0.141,0.994h-1.609v4.396c0,0.383,0.067,0.66,0.202,0.833c0.136,0.173,0.362,0.259,0.68,0.259c0.308,0,0.635-0.107,0.979-0.322
			l0.49,0.882C140.857,429,140.306,429.169,139.69,429.169z M146.032,421.664c0.4,0.141,0.783,0.351,1.147,0.631l-0.56,0.854
			c-0.327-0.233-0.642-0.403-0.945-0.511s-0.623-0.161-0.959-0.161c-0.42,0-0.751,0.086-0.994,0.259
			c-0.242,0.173-0.364,0.408-0.364,0.707s0.114,0.532,0.344,0.7c0.229,0.168,0.642,0.331,1.238,0.49
			c0.821,0.205,1.436,0.485,1.841,0.84c0.406,0.354,0.609,0.84,0.609,1.456c0,0.728-0.282,1.283-0.847,1.666
			s-1.253,0.574-2.065,0.574c-1.12,0-2.049-0.322-2.786-0.967l0.714-0.812c0.579,0.494,1.261,0.742,2.045,0.742
			c0.476,0,0.858-0.099,1.147-0.294c0.289-0.196,0.435-0.458,0.435-0.784c0-0.262-0.052-0.474-0.154-0.637
			c-0.103-0.164-0.278-0.304-0.525-0.421c-0.247-0.116-0.618-0.24-1.112-0.37c-0.784-0.206-1.352-0.483-1.701-0.833
			c-0.351-0.351-0.525-0.791-0.525-1.323c0-0.383,0.114-0.729,0.343-1.036s0.546-0.549,0.952-0.721
			c0.406-0.173,0.861-0.26,1.365-0.26S145.631,421.524,146.032,421.664z M152.92,429v-7.378h1.288V429H152.92z M154.208,418.332
			c0.168,0.168,0.252,0.379,0.252,0.631s-0.084,0.459-0.252,0.623c-0.168,0.163-0.388,0.244-0.658,0.244
			c-0.262,0-0.476-0.081-0.645-0.244c-0.168-0.164-0.252-0.371-0.252-0.623s0.084-0.463,0.252-0.631
			c0.169-0.168,0.383-0.252,0.645-0.252C153.821,418.08,154.04,418.164,154.208,418.332z M161.915,422.056
			c0.378,0.401,0.566,0.952,0.566,1.652V429h-1.288v-5.109c0-0.522-0.098-0.892-0.294-1.106c-0.195-0.214-0.485-0.321-0.867-0.321
			c-0.393,0-0.738,0.111-1.036,0.336c-0.299,0.224-0.579,0.546-0.841,0.966V429h-1.287v-7.378h1.105l0.112,1.093
			c0.261-0.393,0.586-0.7,0.973-0.925c0.388-0.224,0.814-0.336,1.281-0.336C161.012,421.454,161.537,421.655,161.915,422.056z
			 M170.854,429.169c-0.625,0-1.112-0.18-1.463-0.539c-0.35-0.359-0.524-0.88-0.524-1.562v-4.452h-1.288v-0.994h1.288v-1.666
			l1.287-0.153v1.819h1.75l-0.14,0.994h-1.61v4.396c0,0.383,0.068,0.66,0.203,0.833c0.136,0.173,0.362,0.259,0.68,0.259
			c0.308,0,0.635-0.107,0.979-0.322l0.49,0.882C172.021,429,171.47,429.169,170.854,429.169z M178.883,422.056
			c0.378,0.401,0.567,0.952,0.567,1.652V429h-1.288v-5.109c0-0.522-0.101-0.892-0.302-1.106c-0.2-0.214-0.492-0.321-0.875-0.321
			c-0.382,0-0.723,0.111-1.021,0.336c-0.299,0.224-0.579,0.541-0.84,0.951V429h-1.288v-10.331l1.288-0.141v4.116
			c0.578-0.793,1.307-1.19,2.184-1.19C177.98,421.454,178.505,421.655,178.883,422.056z M187.584,425.753h-4.704
			c0.056,0.812,0.261,1.409,0.616,1.792c0.354,0.382,0.812,0.573,1.372,0.573c0.354,0,0.681-0.051,0.979-0.153
			c0.299-0.104,0.611-0.267,0.938-0.49l0.56,0.77c-0.784,0.616-1.643,0.925-2.576,0.925c-1.026,0-1.827-0.337-2.4-1.009
			c-0.574-0.672-0.861-1.596-0.861-2.771c0-0.766,0.124-1.444,0.371-2.037s0.602-1.057,1.063-1.393
			c0.462-0.337,1.006-0.505,1.632-0.505c0.979,0,1.73,0.322,2.254,0.967c0.522,0.644,0.783,1.535,0.783,2.674
			C187.612,425.309,187.603,425.528,187.584,425.753z M186.338,424.717c0-0.729-0.145-1.283-0.435-1.666
			c-0.289-0.383-0.723-0.574-1.302-0.574c-1.055,0-1.629,0.774-1.722,2.324h3.458V424.717z M200.856,429l-0.336-4.354
			c-0.14-1.708-0.219-3.02-0.237-3.934l-2.087,7.195h-1.245l-2.198-7.21c0,1.167-0.061,2.516-0.183,4.046L194.248,429h-1.261
			l0.799-9.646h1.792l2.029,7.014l1.933-7.014h1.806l0.798,9.646H200.856z M210.068,425.753h-4.704
			c0.057,0.812,0.262,1.409,0.616,1.792c0.354,0.382,0.812,0.573,1.372,0.573c0.354,0,0.682-0.051,0.98-0.153
			c0.299-0.104,0.611-0.267,0.938-0.49l0.561,0.77c-0.784,0.616-1.643,0.925-2.576,0.925c-1.026,0-1.827-0.337-2.401-1.009
			s-0.86-1.596-0.86-2.771c0-0.766,0.123-1.444,0.37-2.037c0.248-0.593,0.603-1.057,1.064-1.393
			c0.462-0.337,1.006-0.505,1.631-0.505c0.98,0,1.731,0.322,2.254,0.967c0.522,0.644,0.784,1.535,0.784,2.674
			C210.096,425.309,210.086,425.528,210.068,425.753z M208.822,424.717c0-0.729-0.145-1.283-0.434-1.666s-0.724-0.574-1.302-0.574
			c-1.055,0-1.629,0.774-1.723,2.324h3.458V424.717z M217.936,429h-1.134l-0.126-1.021c-0.243,0.373-0.546,0.665-0.91,0.875
			s-0.77,0.315-1.218,0.315c-0.877,0-1.562-0.346-2.051-1.036c-0.49-0.691-0.735-1.62-0.735-2.786c0-0.756,0.116-1.428,0.35-2.017
			c0.233-0.588,0.569-1.047,1.009-1.379c0.438-0.331,0.951-0.497,1.54-0.497c0.756,0,1.418,0.304,1.987,0.91V418.5l1.288,0.154V429z
			 M215.836,427.873c0.28-0.182,0.551-0.454,0.812-0.818v-3.612c-0.242-0.317-0.501-0.558-0.776-0.721s-0.586-0.245-0.932-0.245
			c-0.569,0-1.01,0.238-1.322,0.714c-0.313,0.476-0.47,1.186-0.47,2.128c0,0.952,0.145,1.661,0.435,2.128
			c0.289,0.467,0.704,0.7,1.246,0.7C215.22,428.146,215.556,428.055,215.836,427.873z M220.596,429v-7.378h1.288V429H220.596z
			 M221.884,418.332c0.168,0.168,0.252,0.379,0.252,0.631s-0.084,0.459-0.252,0.623c-0.168,0.163-0.388,0.244-0.658,0.244
			c-0.261,0-0.476-0.081-0.644-0.244c-0.168-0.164-0.252-0.371-0.252-0.623s0.084-0.463,0.252-0.631s0.383-0.252,0.644-0.252
			C221.496,418.08,221.716,418.164,221.884,418.332z M226.616,429.169c-0.626,0-1.113-0.18-1.464-0.539
			c-0.35-0.359-0.524-0.88-0.524-1.562v-4.452h-1.288v-0.994h1.288v-1.666l1.288-0.153v1.819h1.75l-0.141,0.994h-1.609v4.396
			c0,0.383,0.067,0.66,0.203,0.833c0.135,0.173,0.361,0.259,0.679,0.259c0.308,0,0.635-0.107,0.979-0.322l0.49,0.882
			C227.782,429,227.232,429.169,226.616,429.169z M235.002,425.753h-4.704c0.056,0.812,0.261,1.409,0.616,1.792
			c0.354,0.382,0.812,0.573,1.372,0.573c0.354,0,0.681-0.051,0.979-0.153c0.299-0.104,0.611-0.267,0.938-0.49l0.56,0.77
			c-0.784,0.616-1.643,0.925-2.576,0.925c-1.026,0-1.827-0.337-2.4-1.009c-0.574-0.672-0.861-1.596-0.861-2.771
			c0-0.766,0.124-1.444,0.371-2.037s0.602-1.057,1.063-1.393c0.462-0.337,1.006-0.505,1.632-0.505c0.979,0,1.73,0.322,2.254,0.967
			c0.522,0.644,0.783,1.535,0.783,2.674C235.03,425.309,235.021,425.528,235.002,425.753z M233.756,424.717
			c0-0.729-0.145-1.283-0.435-1.666c-0.289-0.383-0.723-0.574-1.302-0.574c-1.055,0-1.629,0.774-1.722,2.324h3.458V424.717z
			 M241.092,421.538l-0.238,1.261c-0.224-0.057-0.438-0.084-0.644-0.084c-0.458,0-0.826,0.168-1.106,0.504
			c-0.279,0.336-0.499,0.858-0.658,1.567V429h-1.287v-7.378h1.105l0.126,1.498c0.196-0.55,0.462-0.966,0.798-1.246
			c0.336-0.279,0.729-0.42,1.176-0.42C240.625,421.454,240.868,421.482,241.092,421.538z M246.496,421.538l-0.238,1.261
			c-0.224-0.057-0.438-0.084-0.645-0.084c-0.457,0-0.825,0.168-1.105,0.504s-0.499,0.858-0.658,1.567V429h-1.288v-7.378h1.106
			l0.126,1.498c0.195-0.55,0.462-0.966,0.798-1.246c0.336-0.279,0.728-0.42,1.176-0.42
			C246.03,421.454,246.272,421.482,246.496,421.538z M252.81,427.943c0.103,0.145,0.257,0.255,0.462,0.329l-0.294,0.896
			c-0.383-0.047-0.69-0.154-0.924-0.322s-0.406-0.43-0.518-0.784c-0.495,0.737-1.228,1.106-2.198,1.106
			c-0.729,0-1.302-0.206-1.722-0.616c-0.421-0.411-0.631-0.947-0.631-1.61c0-0.784,0.282-1.386,0.848-1.806
			c0.564-0.42,1.364-0.63,2.4-0.63h1.135v-0.546c0-0.523-0.126-0.896-0.379-1.12c-0.252-0.225-0.639-0.336-1.161-0.336
			c-0.542,0-1.204,0.13-1.988,0.392l-0.322-0.938c0.915-0.337,1.764-0.505,2.548-0.505c0.868,0,1.517,0.213,1.946,0.638
			s0.644,1.028,0.644,1.812v3.374C252.656,427.577,252.707,427.799,252.81,427.943z M251.368,427.054v-1.694h-0.967
			c-1.362,0-2.044,0.504-2.044,1.512c0,0.439,0.107,0.771,0.322,0.994c0.215,0.225,0.532,0.336,0.952,0.336
			C250.369,428.202,250.948,427.82,251.368,427.054z M260.349,422.056c0.378,0.401,0.567,0.952,0.567,1.652V429h-1.288v-5.109
			c0-0.522-0.099-0.892-0.294-1.106c-0.196-0.214-0.485-0.321-0.868-0.321c-0.392,0-0.737,0.111-1.036,0.336
			c-0.299,0.224-0.578,0.546-0.84,0.966V429h-1.288v-7.378h1.106l0.111,1.093c0.262-0.393,0.586-0.7,0.974-0.925
			c0.387-0.224,0.813-0.336,1.28-0.336C259.446,421.454,259.971,421.655,260.349,422.056z M269.05,425.753h-4.704
			c0.056,0.812,0.262,1.409,0.616,1.792c0.354,0.382,0.812,0.573,1.372,0.573c0.354,0,0.681-0.051,0.979-0.153
			c0.299-0.104,0.611-0.267,0.938-0.49l0.56,0.77c-0.784,0.616-1.643,0.925-2.576,0.925c-1.026,0-1.826-0.337-2.4-1.009
			s-0.861-1.596-0.861-2.771c0-0.766,0.124-1.444,0.371-2.037s0.602-1.057,1.064-1.393c0.462-0.337,1.005-0.505,1.631-0.505
			c0.979,0,1.731,0.322,2.254,0.967c0.522,0.644,0.784,1.535,0.784,2.674C269.078,425.309,269.069,425.528,269.05,425.753z
			 M267.804,424.717c0-0.729-0.145-1.283-0.434-1.666c-0.29-0.383-0.724-0.574-1.303-0.574c-1.055,0-1.628,0.774-1.722,2.324h3.458
			V424.717z M276.33,427.943c0.103,0.145,0.256,0.255,0.462,0.329l-0.294,0.896c-0.383-0.047-0.691-0.154-0.924-0.322
			c-0.233-0.168-0.406-0.43-0.519-0.784c-0.494,0.737-1.228,1.106-2.198,1.106c-0.728,0-1.302-0.206-1.722-0.616
			c-0.42-0.411-0.63-0.947-0.63-1.61c0-0.784,0.282-1.386,0.847-1.806s1.365-0.63,2.401-0.63h1.134v-0.546
			c0-0.523-0.126-0.896-0.378-1.12c-0.252-0.225-0.64-0.336-1.162-0.336c-0.541,0-1.204,0.13-1.988,0.392l-0.321-0.938
			c0.914-0.337,1.764-0.505,2.548-0.505c0.868,0,1.517,0.213,1.946,0.638c0.429,0.425,0.644,1.028,0.644,1.812v3.374
			C276.176,427.577,276.228,427.799,276.33,427.943z M274.888,427.054v-1.694h-0.966c-1.363,0-2.044,0.504-2.044,1.512
			c0,0.439,0.107,0.771,0.322,0.994c0.214,0.225,0.531,0.336,0.951,0.336C273.889,428.202,274.468,427.82,274.888,427.054z
			 M283.869,422.056c0.378,0.401,0.566,0.952,0.566,1.652V429h-1.288v-5.109c0-0.522-0.098-0.892-0.294-1.106
			c-0.195-0.214-0.485-0.321-0.868-0.321c-0.392,0-0.737,0.111-1.035,0.336c-0.299,0.224-0.579,0.546-0.841,0.966V429h-1.288v-7.378
			h1.106l0.112,1.093c0.261-0.393,0.585-0.7,0.973-0.925c0.388-0.224,0.814-0.336,1.281-0.336
			C282.966,421.454,283.491,421.655,283.869,422.056z M296.672,424.604c0.41,0.354,0.616,0.905,0.616,1.652
			c0,1.829-1.274,2.743-3.822,2.743h-2.66v-9.646h2.282c1.223,0,2.158,0.2,2.807,0.602s0.974,1.013,0.974,1.834
			c0,0.561-0.176,1.027-0.525,1.4s-0.777,0.611-1.281,0.714C295.725,424.016,296.261,424.25,296.672,424.604z M292.136,423.442
			h1.456c0.56,0,1.02-0.135,1.379-0.406c0.359-0.271,0.539-0.653,0.539-1.147c0-0.561-0.189-0.947-0.567-1.162
			s-0.949-0.322-1.715-0.322h-1.092V423.442z M295.265,427.587c0.415-0.233,0.623-0.677,0.623-1.33c0-0.635-0.2-1.093-0.602-1.372
			c-0.401-0.28-0.925-0.42-1.568-0.42h-1.582v3.472h1.33C294.25,427.936,294.85,427.82,295.265,427.587z M304.372,427.943
			c0.103,0.145,0.256,0.255,0.462,0.329l-0.294,0.896c-0.383-0.047-0.691-0.154-0.924-0.322c-0.233-0.168-0.406-0.43-0.519-0.784
			c-0.494,0.737-1.228,1.106-2.198,1.106c-0.728,0-1.302-0.206-1.722-0.616c-0.42-0.411-0.63-0.947-0.63-1.61
			c0-0.784,0.282-1.386,0.847-1.806s1.365-0.63,2.401-0.63h1.134v-0.546c0-0.523-0.126-0.896-0.378-1.12
			c-0.252-0.225-0.64-0.336-1.162-0.336c-0.541,0-1.204,0.13-1.988,0.392l-0.321-0.938c0.914-0.337,1.764-0.505,2.548-0.505
			c0.868,0,1.517,0.213,1.946,0.638c0.429,0.425,0.644,1.028,0.644,1.812v3.374C304.218,427.577,304.27,427.799,304.372,427.943z
			 M302.93,427.054v-1.694h-0.966c-1.363,0-2.044,0.504-2.044,1.512c0,0.439,0.107,0.771,0.322,0.994
			c0.214,0.225,0.531,0.336,0.951,0.336C301.931,428.202,302.51,427.82,302.93,427.054z M310.224,421.664
			c0.401,0.141,0.784,0.351,1.148,0.631l-0.561,0.854c-0.326-0.233-0.642-0.403-0.944-0.511c-0.304-0.107-0.623-0.161-0.959-0.161
			c-0.421,0-0.752,0.086-0.994,0.259c-0.243,0.173-0.364,0.408-0.364,0.707s0.114,0.532,0.343,0.7s0.642,0.331,1.239,0.49
			c0.821,0.205,1.435,0.485,1.841,0.84s0.609,0.84,0.609,1.456c0,0.728-0.282,1.283-0.848,1.666
			c-0.564,0.383-1.253,0.574-2.064,0.574c-1.12,0-2.049-0.322-2.786-0.967l0.714-0.812c0.579,0.494,1.26,0.742,2.044,0.742
			c0.477,0,0.858-0.099,1.148-0.294c0.289-0.196,0.434-0.458,0.434-0.784c0-0.262-0.051-0.474-0.154-0.637
			c-0.103-0.164-0.277-0.304-0.524-0.421c-0.247-0.116-0.618-0.24-1.113-0.37c-0.784-0.206-1.351-0.483-1.701-0.833
			c-0.35-0.351-0.524-0.791-0.524-1.323c0-0.383,0.114-0.729,0.343-1.036s0.546-0.549,0.952-0.721c0.406-0.173,0.86-0.26,1.365-0.26
			C309.37,421.454,309.823,421.524,310.224,421.664z M313.402,429v-7.378h1.288V429H313.402z M314.69,418.332
			c0.168,0.168,0.252,0.379,0.252,0.631s-0.084,0.459-0.252,0.623c-0.168,0.163-0.387,0.244-0.657,0.244
			c-0.262,0-0.477-0.081-0.645-0.244c-0.168-0.164-0.252-0.371-0.252-0.623s0.084-0.463,0.252-0.631s0.383-0.252,0.645-0.252
			C314.303,418.08,314.522,418.164,314.69,418.332z M322.397,422.056c0.378,0.401,0.567,0.952,0.567,1.652V429h-1.288v-5.109
			c0-0.522-0.098-0.892-0.294-1.106c-0.196-0.214-0.485-0.321-0.868-0.321c-0.392,0-0.737,0.111-1.036,0.336
			c-0.299,0.224-0.578,0.546-0.84,0.966V429h-1.288v-7.378h1.106l0.111,1.093c0.262-0.393,0.586-0.7,0.974-0.925
			c0.387-0.224,0.814-0.336,1.28-0.336C321.494,421.454,322.019,421.655,322.397,422.056z M52.4,445v-9.646h1.345V445H52.4z
			 M61.521,438.056c0.378,0.401,0.567,0.952,0.567,1.652V445H60.8v-5.109c0-0.522-0.098-0.892-0.294-1.106
			c-0.196-0.214-0.485-0.321-0.868-0.321c-0.392,0-0.737,0.111-1.036,0.336c-0.299,0.224-0.578,0.546-0.84,0.966V445h-1.288v-7.378
			h1.106l0.111,1.093c0.262-0.393,0.586-0.7,0.974-0.925c0.387-0.224,0.814-0.336,1.28-0.336
			C60.618,437.454,61.143,437.655,61.521,438.056z M70.46,445.169c-0.626,0-1.113-0.18-1.463-0.539
			c-0.351-0.359-0.525-0.88-0.525-1.562v-4.452h-1.288v-0.994h1.288v-1.666l1.288-0.153v1.819h1.75l-0.14,0.994h-1.61v4.396
			c0,0.383,0.067,0.66,0.203,0.833c0.135,0.173,0.361,0.259,0.679,0.259c0.309,0,0.635-0.107,0.98-0.322l0.489,0.882
			C71.626,445,71.076,445.169,70.46,445.169z M78.489,438.056c0.379,0.401,0.567,0.952,0.567,1.652V445h-1.288v-5.109
			c0-0.522-0.101-0.892-0.301-1.106c-0.201-0.214-0.492-0.321-0.875-0.321s-0.724,0.111-1.022,0.336
			c-0.298,0.224-0.578,0.541-0.84,0.951V445h-1.288v-10.331l1.288-0.141v4.116c0.579-0.793,1.307-1.19,2.185-1.19
			C77.586,437.454,78.111,437.655,78.489,438.056z M87.19,441.753h-4.704c0.057,0.812,0.262,1.409,0.616,1.792
			c0.354,0.382,0.812,0.573,1.372,0.573c0.354,0,0.682-0.051,0.98-0.153c0.298-0.104,0.611-0.267,0.938-0.49l0.561,0.77
			c-0.784,0.616-1.643,0.925-2.576,0.925c-1.027,0-1.827-0.337-2.401-1.009s-0.861-1.596-0.861-2.771
			c0-0.766,0.124-1.444,0.371-2.037c0.248-0.593,0.603-1.057,1.064-1.393c0.462-0.337,1.006-0.505,1.631-0.505
			c0.98,0,1.731,0.322,2.254,0.967c0.522,0.644,0.784,1.535,0.784,2.674C87.218,441.309,87.208,441.528,87.19,441.753z
			 M85.944,440.717c0-0.729-0.145-1.283-0.434-1.666s-0.724-0.574-1.302-0.574c-1.055,0-1.629,0.774-1.723,2.324h3.458V440.717z
			 M96.99,437.538l-0.238,1.261c-0.225-0.057-0.438-0.084-0.645-0.084c-0.457,0-0.825,0.168-1.105,0.504s-0.5,0.858-0.658,1.567V445
			h-1.288v-7.378h1.106l0.126,1.498c0.195-0.55,0.462-0.966,0.798-1.246c0.336-0.279,0.728-0.42,1.176-0.42
			C96.524,437.454,96.766,437.482,96.99,437.538z M103.864,441.753H99.16c0.056,0.812,0.261,1.409,0.615,1.792
			c0.355,0.382,0.812,0.573,1.372,0.573c0.354,0,0.682-0.051,0.98-0.153c0.299-0.104,0.611-0.267,0.938-0.49l0.561,0.77
			c-0.784,0.616-1.643,0.925-2.576,0.925c-1.026,0-1.827-0.337-2.401-1.009c-0.573-0.672-0.86-1.596-0.86-2.771
			c0-0.766,0.123-1.444,0.371-2.037c0.247-0.593,0.602-1.057,1.063-1.393c0.462-0.337,1.006-0.505,1.631-0.505
			c0.98,0,1.731,0.322,2.254,0.967c0.523,0.644,0.784,1.535,0.784,2.674C103.892,441.309,103.883,441.528,103.864,441.753z
			 M102.618,440.717c0-0.729-0.146-1.283-0.435-1.666s-0.724-0.574-1.302-0.574c-1.055,0-1.629,0.774-1.722,2.324h3.458V440.717z
			 M109.38,437.664c0.401,0.141,0.784,0.351,1.147,0.631l-0.56,0.854c-0.327-0.233-0.642-0.403-0.945-0.511
			c-0.303-0.107-0.623-0.161-0.959-0.161c-0.42,0-0.751,0.086-0.994,0.259c-0.242,0.173-0.363,0.408-0.363,0.707
			s0.114,0.532,0.343,0.7s0.642,0.331,1.239,0.49c0.821,0.205,1.435,0.485,1.841,0.84s0.608,0.84,0.608,1.456
			c0,0.728-0.282,1.283-0.847,1.666s-1.253,0.574-2.064,0.574c-1.12,0-2.049-0.322-2.786-0.967l0.714-0.812
			c0.578,0.494,1.26,0.742,2.044,0.742c0.476,0,0.858-0.099,1.147-0.294c0.29-0.196,0.435-0.458,0.435-0.784
			c0-0.262-0.052-0.474-0.154-0.637c-0.103-0.164-0.277-0.304-0.524-0.421c-0.248-0.116-0.619-0.24-1.113-0.37
			c-0.784-0.206-1.352-0.483-1.701-0.833c-0.35-0.351-0.525-0.791-0.525-1.323c0-0.383,0.115-0.729,0.344-1.036
			s0.546-0.549,0.952-0.721c0.405-0.173,0.86-0.26,1.364-0.26S108.979,437.524,109.38,437.664z M114.63,445.169
			c-0.625,0-1.113-0.18-1.463-0.539c-0.351-0.359-0.525-0.88-0.525-1.562v-4.452h-1.288v-0.994h1.288v-1.666l1.288-0.153v1.819h1.75
			l-0.14,0.994h-1.61v4.396c0,0.383,0.067,0.66,0.203,0.833s0.361,0.259,0.679,0.259c0.309,0,0.635-0.107,0.98-0.322l0.49,0.882
			C115.797,445,115.246,445.169,114.63,445.169z M126.509,438.49c0.574,0.691,0.861,1.629,0.861,2.814
			c0,0.766-0.131,1.439-0.393,2.022c-0.261,0.584-0.639,1.036-1.134,1.358s-1.083,0.483-1.764,0.483
			c-1.036,0-1.844-0.346-2.422-1.036c-0.579-0.691-0.868-1.629-0.868-2.814c0-0.766,0.13-1.439,0.392-2.022
			c0.262-0.584,0.64-1.036,1.134-1.358c0.495-0.322,1.088-0.483,1.778-0.483C125.13,437.454,125.935,437.8,126.509,438.49z
			 M122.176,441.318c0,1.876,0.635,2.814,1.904,2.814c1.269,0,1.903-0.943,1.903-2.828c0-1.876-0.63-2.814-1.89-2.814
			C122.816,438.49,122.176,439.433,122.176,441.318z M131.164,435.796c-0.168,0.172-0.252,0.44-0.252,0.805v1.021h1.792
			l-0.141,0.994h-1.651V445h-1.288v-6.384h-1.316v-0.994h1.316v-1.008c0-0.635,0.203-1.146,0.608-1.533
			c0.406-0.387,0.974-0.581,1.701-0.581c0.336,0,0.637,0.031,0.903,0.092c0.266,0.061,0.553,0.156,0.86,0.287l-0.405,0.938
			c-0.42-0.187-0.85-0.28-1.288-0.28C131.612,435.536,131.332,435.623,131.164,435.796z M139.97,445.169
			c-0.625,0-1.113-0.18-1.463-0.539s-0.525-0.88-0.525-1.562v-4.452h-1.288v-0.994h1.288v-1.666l1.288-0.153v1.819h1.75l-0.14,0.994
			h-1.61v4.396c0,0.383,0.068,0.66,0.203,0.833c0.136,0.173,0.361,0.259,0.679,0.259c0.309,0,0.635-0.107,0.98-0.322l0.49,0.882
			C141.137,445,140.586,445.169,139.97,445.169z M147.999,438.056c0.378,0.401,0.566,0.952,0.566,1.652V445h-1.288v-5.109
			c0-0.522-0.1-0.892-0.301-1.106c-0.2-0.214-0.492-0.321-0.875-0.321s-0.724,0.111-1.021,0.336
			c-0.299,0.224-0.579,0.541-0.84,0.951V445h-1.288v-10.331l1.288-0.141v4.116c0.578-0.793,1.307-1.19,2.184-1.19
			C147.096,437.454,147.621,437.655,147.999,438.056z M156.7,441.753h-4.704c0.056,0.812,0.261,1.409,0.615,1.792
			c0.355,0.382,0.812,0.573,1.372,0.573c0.355,0,0.682-0.051,0.98-0.153c0.299-0.104,0.611-0.267,0.938-0.49l0.561,0.77
			c-0.784,0.616-1.643,0.925-2.576,0.925c-1.026,0-1.827-0.337-2.401-1.009c-0.573-0.672-0.86-1.596-0.86-2.771
			c0-0.766,0.123-1.444,0.371-2.037c0.247-0.593,0.602-1.057,1.063-1.393c0.462-0.337,1.006-0.505,1.631-0.505
			c0.98,0,1.731,0.322,2.254,0.967c0.523,0.644,0.784,1.535,0.784,2.674C156.728,441.309,156.719,441.528,156.7,441.753z
			 M155.454,440.717c0-0.729-0.145-1.283-0.435-1.666c-0.289-0.383-0.723-0.574-1.302-0.574c-1.055,0-1.629,0.774-1.722,2.324h3.458
			V440.717z M167.564,445l-1.288-6.216l-1.33,6.216h-1.708l-1.722-7.378h1.288l1.33,6.482l1.456-6.482h1.442l1.386,6.482
			l1.344-6.482h1.232L169.314,445H167.564z M177.651,438.49c0.574,0.691,0.861,1.629,0.861,2.814c0,0.766-0.131,1.439-0.392,2.022
			c-0.262,0.584-0.64,1.036-1.135,1.358c-0.494,0.322-1.082,0.483-1.764,0.483c-1.036,0-1.843-0.346-2.422-1.036
			c-0.579-0.691-0.868-1.629-0.868-2.814c0-0.766,0.131-1.439,0.393-2.022c0.261-0.584,0.639-1.036,1.134-1.358
			c0.494-0.322,1.087-0.483,1.777-0.483C176.272,437.454,177.077,437.8,177.651,438.49z M173.318,441.318
			c0,1.876,0.635,2.814,1.904,2.814s1.904-0.943,1.904-2.828c0-1.876-0.63-2.814-1.891-2.814
			C173.957,438.49,173.318,439.433,173.318,441.318z M184.574,437.538l-0.238,1.261c-0.225-0.057-0.438-0.084-0.645-0.084
			c-0.457,0-0.825,0.168-1.105,0.504s-0.5,0.858-0.658,1.567V445h-1.288v-7.378h1.106l0.126,1.498
			c0.195-0.55,0.462-0.966,0.798-1.246c0.336-0.279,0.728-0.42,1.176-0.42C184.108,437.454,184.35,437.482,184.574,437.538z
			 M187.367,443.965c0.069,0.093,0.188,0.14,0.356,0.14c0.178,0,0.336-0.028,0.477-0.084l0.336,0.896
			c-0.346,0.169-0.71,0.253-1.093,0.253c-0.476,0-0.84-0.138-1.092-0.413s-0.378-0.68-0.378-1.211v-8.891l1.288-0.154v9.017
			C187.262,443.721,187.297,443.871,187.367,443.965z M195.718,445h-1.134l-0.126-1.021c-0.243,0.373-0.546,0.665-0.91,0.875
			s-0.771,0.315-1.218,0.315c-0.878,0-1.562-0.346-2.052-1.036c-0.489-0.691-0.734-1.62-0.734-2.786c0-0.756,0.116-1.428,0.35-2.017
			c0.233-0.588,0.569-1.047,1.008-1.379c0.439-0.331,0.952-0.497,1.54-0.497c0.756,0,1.419,0.304,1.988,0.91V434.5l1.288,0.154V445z
			 M193.618,443.873c0.279-0.182,0.55-0.454,0.812-0.818v-3.612c-0.242-0.317-0.502-0.558-0.777-0.721s-0.585-0.245-0.931-0.245
			c-0.569,0-1.011,0.238-1.323,0.714s-0.469,1.186-0.469,2.128c0,0.952,0.145,1.661,0.434,2.128c0.29,0.467,0.705,0.7,1.246,0.7
			C193.002,444.146,193.338,444.055,193.618,443.873z"/>
		<rect id="Rectangle" x="40" y="421" fill="#417505" fill-opacity="0.7" width="6" height="6"/>
		<rect id="Rectangle-Copy" x="446" y="421" fill="#0079BA" width="6" height="6"/>
		<rect id="Rectangle_1_" x="40" y="437" fill="#B8E986" width="6" height="6"/>
		<path id="_x31_0_x25_" fill="#7A9E50" d="M299.74,37V23.296l-3.743,2.28l-0.96-1.56l4.968-3.072h1.943V37H299.74z M315.304,22.828
			c0.904,1.416,1.356,3.468,1.356,6.156c0,2.688-0.452,4.744-1.356,6.168s-2.244,2.136-4.02,2.136c-1.776,0-3.116-0.712-4.021-2.136
			s-1.355-3.48-1.355-6.168c0-2.688,0.451-4.74,1.355-6.156s2.244-2.124,4.021-2.124C313.06,20.704,314.4,21.412,315.304,22.828z
			 M308.968,23.992c-0.504,1.024-0.756,2.688-0.756,4.992s0.252,3.972,0.756,5.004s1.276,1.548,2.316,1.548
			c1.023,0,1.792-0.516,2.304-1.548s0.768-2.7,0.768-5.004c0-2.288-0.256-3.948-0.768-4.98c-0.512-1.031-1.28-1.548-2.304-1.548
			C310.244,22.456,309.472,22.969,308.968,23.992z M323.116,37.744l-1.536-1.008l11.111-16.8l1.536,1.008L323.116,37.744z
			 M325.768,21.808c0.729,0.735,1.092,1.72,1.092,2.952c0,1.231-0.363,2.216-1.092,2.951c-0.728,0.736-1.668,1.104-2.82,1.104
			c-1.136,0-2.067-0.368-2.796-1.104c-0.728-0.735-1.092-1.72-1.092-2.951c0-1.232,0.364-2.217,1.092-2.952
			c0.729-0.736,1.66-1.104,2.796-1.104C324.1,20.704,325.04,21.072,325.768,21.808z M321.448,22.912
			c-0.296,0.48-0.443,1.096-0.443,1.849c0,0.735,0.147,1.348,0.443,1.836c0.297,0.487,0.797,0.731,1.5,0.731
			c1.297,0,1.944-0.855,1.944-2.567c0-0.736-0.144-1.349-0.432-1.837c-0.288-0.487-0.792-0.731-1.513-0.731
			C322.244,22.192,321.744,22.432,321.448,22.912z M335.644,30.28c0.72,0.736,1.08,1.72,1.08,2.952c0,1.231-0.36,2.216-1.08,2.952
			c-0.72,0.735-1.656,1.104-2.808,1.104c-1.152,0-2.092-0.368-2.82-1.104c-0.728-0.736-1.092-1.721-1.092-2.952
			c0-1.232,0.364-2.216,1.092-2.952c0.729-0.736,1.668-1.104,2.82-1.104C333.988,29.177,334.924,29.544,335.644,30.28z
			 M331.336,31.396c-0.296,0.472-0.444,1.084-0.444,1.836c0,0.736,0.148,1.348,0.444,1.836s0.796,0.731,1.5,0.731
			c1.296,0,1.943-0.855,1.943-2.567c0-0.736-0.144-1.344-0.432-1.824c-0.288-0.479-0.792-0.72-1.512-0.72
			C332.132,30.688,331.632,30.924,331.336,31.396z"/>
		<path id="_x32__x25_" fill="#0079BA" d="M550.152,88.28c0.729,0.384,1.292,0.908,1.692,1.572c0.399,0.664,0.6,1.412,0.6,2.244
			c0,0.976-0.22,1.911-0.66,2.808c-0.439,0.896-1.115,1.864-2.027,2.904s-2.296,2.487-4.152,4.344h7.224L552.564,104h-9.479v-1.752
			c2.144-2.224,3.663-3.852,4.56-4.884c0.896-1.032,1.536-1.932,1.92-2.7c0.384-0.768,0.576-1.592,0.576-2.472
			c0-0.832-0.24-1.484-0.72-1.956c-0.48-0.472-1.12-0.708-1.92-0.708c-0.656,0-1.232,0.136-1.729,0.408
			c-0.496,0.271-1.008,0.72-1.536,1.344l-1.488-1.152c0.656-0.815,1.385-1.424,2.185-1.823c0.8-0.4,1.696-0.601,2.688-0.601
			C548.579,87.704,549.424,87.896,550.152,88.28z M559.163,104.744l-1.535-1.008l11.111-16.8l1.536,1.008L559.163,104.744z
			 M561.816,88.808c0.729,0.735,1.092,1.72,1.092,2.952c0,1.231-0.363,2.216-1.092,2.951c-0.728,0.736-1.668,1.104-2.82,1.104
			c-1.136,0-2.067-0.368-2.796-1.104c-0.728-0.735-1.092-1.72-1.092-2.951c0-1.232,0.364-2.217,1.092-2.952
			c0.729-0.736,1.66-1.104,2.796-1.104C560.148,87.704,561.088,88.072,561.816,88.808z M557.495,89.912
			c-0.296,0.48-0.443,1.096-0.443,1.849c0,0.735,0.147,1.348,0.443,1.836c0.296,0.487,0.796,0.731,1.5,0.731
			c1.296,0,1.944-0.855,1.944-2.567c0-0.736-0.144-1.349-0.432-1.837c-0.288-0.487-0.792-0.731-1.513-0.731
			C558.291,89.192,557.791,89.432,557.495,89.912z M571.692,97.28c0.72,0.736,1.08,1.72,1.08,2.952c0,1.231-0.36,2.216-1.08,2.952
			c-0.72,0.735-1.656,1.104-2.808,1.104c-1.152,0-2.093-0.368-2.82-1.104c-0.728-0.736-1.092-1.721-1.092-2.952
			c0-1.232,0.364-2.216,1.092-2.952s1.668-1.104,2.82-1.104C570.035,96.176,570.972,96.544,571.692,97.28z M567.384,98.396
			c-0.296,0.472-0.444,1.084-0.444,1.836c0,0.736,0.148,1.348,0.444,1.836s0.796,0.731,1.5,0.731c1.296,0,1.943-0.855,1.943-2.567
			c0-0.736-0.144-1.344-0.432-1.824c-0.288-0.479-0.792-0.72-1.512-0.72C568.18,97.688,567.68,97.924,567.384,98.396z"/>
		<g id="Page-1" transform="translate(446.000000, 111.000000)">
			<g id="Group-3" transform="translate(0.000000, 0.992000)">
				<path id="Fill-1_1_" fill="#E5E5E5" d="M90,90l10.967-89.32c49.33,6.057,84.41,50.957,78.353,100.287
					c-6.056,49.33-50.957,84.41-100.287,78.353c-49.33-6.057-84.41-50.956-78.353-100.287C6.252,33.648,44.275,0.008,90,0.008V90z"
					/>
			</g>
			<path id="Fill-4_1_" fill="#0079BA" d="M90,90.992V1c3.977,0,7.021,0.187,10.967,0.672L90,90.992z"/>
		</g>
		<path id="Earth_x2019_s-surface-corr" fill="#212121" d="M459.73,420.419v3.149h3.248v1.064h-3.248v3.304h4.004V429H458.4v-9.646
			h5.222l-0.153,1.064H459.73z M470.944,427.943c0.103,0.145,0.257,0.255,0.462,0.329l-0.294,0.896
			c-0.383-0.047-0.69-0.154-0.924-0.322s-0.406-0.43-0.518-0.784c-0.495,0.737-1.228,1.106-2.198,1.106
			c-0.729,0-1.302-0.206-1.722-0.616c-0.421-0.411-0.631-0.947-0.631-1.61c0-0.784,0.283-1.386,0.848-1.806s1.364-0.63,2.4-0.63
			h1.135v-0.546c0-0.523-0.126-0.896-0.379-1.12c-0.252-0.225-0.639-0.336-1.161-0.336c-0.542,0-1.204,0.13-1.988,0.392
			l-0.322-0.938c0.915-0.337,1.764-0.505,2.548-0.505c0.868,0,1.517,0.213,1.946,0.638s0.644,1.028,0.644,1.812v3.374
			C470.789,427.577,470.841,427.799,470.944,427.943z M469.502,427.054v-1.694h-0.967c-1.362,0-2.044,0.504-2.044,1.512
			c0,0.439,0.107,0.771,0.322,0.994c0.215,0.225,0.532,0.336,0.952,0.336C468.503,428.202,469.081,427.82,469.502,427.054z
			 M477.369,421.538l-0.237,1.261c-0.225-0.057-0.439-0.084-0.645-0.084c-0.457,0-0.826,0.168-1.105,0.504
			c-0.28,0.336-0.5,0.858-0.658,1.567V429h-1.288v-7.378h1.105l0.127,1.498c0.195-0.55,0.462-0.966,0.798-1.246
			c0.336-0.279,0.728-0.42,1.176-0.42C476.903,421.454,477.146,421.482,477.369,421.538z M481.052,429.169
			c-0.626,0-1.113-0.18-1.463-0.539c-0.351-0.359-0.525-0.88-0.525-1.562v-4.452h-1.288v-0.994h1.288v-1.666l1.288-0.153v1.819h1.75
			l-0.14,0.994h-1.61v4.396c0,0.383,0.067,0.66,0.203,0.833c0.135,0.173,0.361,0.259,0.679,0.259c0.308,0,0.635-0.107,0.98-0.322
			l0.489,0.882C482.218,429,481.668,429.169,481.052,429.169z M489.08,422.056c0.379,0.401,0.567,0.952,0.567,1.652V429h-1.288
			v-5.109c0-0.522-0.101-0.892-0.301-1.106c-0.201-0.214-0.492-0.321-0.875-0.321s-0.724,0.111-1.022,0.336
			c-0.298,0.224-0.578,0.541-0.84,0.951V429h-1.288v-10.331l1.288-0.141v4.116c0.579-0.793,1.307-1.19,2.185-1.19
			C488.178,421.454,488.702,421.655,489.08,422.056z M493.218,418.718c0.177,0.173,0.266,0.38,0.266,0.623
			c0,0.111-0.017,0.226-0.049,0.343c-0.032,0.116-0.096,0.272-0.189,0.469l-0.938,1.988h-0.84l0.56-2.101
			c-0.242-0.187-0.364-0.42-0.364-0.699c0-0.243,0.092-0.45,0.273-0.623s0.395-0.259,0.637-0.259
			C492.825,418.459,493.04,418.545,493.218,418.718z M498.789,421.664c0.401,0.141,0.784,0.351,1.148,0.631l-0.56,0.854
			c-0.327-0.233-0.642-0.403-0.945-0.511s-0.623-0.161-0.959-0.161c-0.42,0-0.751,0.086-0.994,0.259s-0.364,0.408-0.364,0.707
			s0.114,0.532,0.344,0.7c0.229,0.168,0.642,0.331,1.238,0.49c0.821,0.205,1.436,0.485,1.841,0.84
			c0.406,0.354,0.609,0.84,0.609,1.456c0,0.728-0.282,1.283-0.847,1.666s-1.253,0.574-2.065,0.574c-1.12,0-2.049-0.322-2.786-0.967
			l0.714-0.812c0.579,0.494,1.261,0.742,2.044,0.742c0.477,0,0.859-0.099,1.148-0.294c0.289-0.196,0.434-0.458,0.434-0.784
			c0-0.262-0.051-0.474-0.153-0.637c-0.103-0.164-0.278-0.304-0.525-0.421c-0.247-0.116-0.618-0.24-1.113-0.37
			c-0.783-0.206-1.351-0.483-1.7-0.833c-0.351-0.351-0.525-0.791-0.525-1.323c0-0.383,0.114-0.729,0.343-1.036
			s0.546-0.549,0.952-0.721c0.406-0.173,0.861-0.26,1.365-0.26S498.389,421.524,498.789,421.664z M509.037,421.664
			c0.401,0.141,0.784,0.351,1.148,0.631l-0.561,0.854c-0.326-0.233-0.641-0.403-0.944-0.511s-0.623-0.161-0.959-0.161
			c-0.42,0-0.751,0.086-0.994,0.259s-0.364,0.408-0.364,0.707s0.114,0.532,0.344,0.7c0.229,0.168,0.641,0.331,1.238,0.49
			c0.821,0.205,1.436,0.485,1.841,0.84c0.406,0.354,0.609,0.84,0.609,1.456c0,0.728-0.282,1.283-0.847,1.666
			s-1.253,0.574-2.065,0.574c-1.12,0-2.049-0.322-2.786-0.967l0.714-0.812c0.579,0.494,1.261,0.742,2.044,0.742
			c0.477,0,0.859-0.099,1.148-0.294c0.289-0.196,0.434-0.458,0.434-0.784c0-0.262-0.051-0.474-0.153-0.637
			c-0.103-0.164-0.278-0.304-0.525-0.421c-0.247-0.116-0.618-0.24-1.113-0.37c-0.783-0.206-1.351-0.483-1.7-0.833
			c-0.351-0.351-0.525-0.791-0.525-1.323c0-0.383,0.114-0.729,0.343-1.036s0.546-0.549,0.952-0.721
			c0.406-0.173,0.861-0.26,1.365-0.26S508.636,421.524,509.037,421.664z M516.598,429l-0.098-1.147
			c-0.28,0.457-0.603,0.791-0.967,1.001c-0.363,0.21-0.807,0.315-1.33,0.315c-0.644,0-1.147-0.196-1.512-0.589
			c-0.364-0.392-0.546-0.947-0.546-1.666v-5.292h1.288v5.152c0,0.504,0.089,0.861,0.266,1.071c0.178,0.21,0.467,0.314,0.868,0.314
			c0.719,0,1.335-0.424,1.849-1.273v-5.265h1.287V429H516.598z M524.298,421.538l-0.238,1.261c-0.224-0.057-0.438-0.084-0.644-0.084
			c-0.458,0-0.826,0.168-1.106,0.504s-0.499,0.858-0.658,1.567V429h-1.288v-7.378h1.106l0.126,1.498
			c0.195-0.55,0.462-0.966,0.798-1.246c0.336-0.279,0.728-0.42,1.176-0.42C523.831,421.454,524.073,421.482,524.298,421.538z
			 M527.434,419.796c-0.168,0.172-0.252,0.44-0.252,0.805v1.021h1.792l-0.14,0.994h-1.652V429h-1.288v-6.384h-1.316v-0.994h1.316
			v-1.008c0-0.635,0.203-1.146,0.609-1.533c0.405-0.387,0.973-0.581,1.7-0.581c0.336,0,0.638,0.031,0.903,0.092
			s0.553,0.156,0.861,0.287l-0.406,0.938c-0.42-0.187-0.85-0.28-1.288-0.28C527.882,419.536,527.602,419.623,527.434,419.796z
			 M535.581,427.943c0.104,0.145,0.257,0.255,0.463,0.329l-0.294,0.896c-0.383-0.047-0.691-0.154-0.925-0.322
			s-0.405-0.43-0.518-0.784c-0.495,0.737-1.228,1.106-2.198,1.106c-0.728,0-1.302-0.206-1.722-0.616
			c-0.42-0.411-0.63-0.947-0.63-1.61c0-0.784,0.282-1.386,0.847-1.806s1.365-0.63,2.401-0.63h1.134v-0.546
			c0-0.523-0.126-0.896-0.378-1.12c-0.252-0.225-0.64-0.336-1.162-0.336c-0.541,0-1.204,0.13-1.988,0.392l-0.322-0.938
			c0.915-0.337,1.765-0.505,2.549-0.505c0.867,0,1.517,0.213,1.945,0.638c0.43,0.425,0.645,1.028,0.645,1.812v3.374
			C535.428,427.577,535.479,427.799,535.581,427.943z M534.14,427.054v-1.694h-0.966c-1.363,0-2.044,0.504-2.044,1.512
			c0,0.439,0.106,0.771,0.321,0.994c0.215,0.225,0.532,0.336,0.952,0.336C533.141,428.202,533.72,427.82,534.14,427.054z
			 M541.966,421.643c0.363,0.126,0.714,0.329,1.05,0.609l-0.63,0.84c-0.252-0.196-0.5-0.341-0.742-0.435
			c-0.243-0.093-0.519-0.14-0.826-0.14c-0.598,0-1.062,0.238-1.393,0.714c-0.332,0.477-0.497,1.181-0.497,2.114
			s0.163,1.621,0.49,2.064c0.326,0.443,0.793,0.665,1.399,0.665c0.299,0,0.567-0.046,0.805-0.14
			c0.238-0.094,0.497-0.247,0.777-0.462l0.616,0.882c-0.672,0.541-1.424,0.812-2.254,0.812c-0.999,0-1.785-0.337-2.359-1.009
			s-0.861-1.601-0.861-2.786c0-0.783,0.131-1.47,0.393-2.058s0.632-1.045,1.113-1.372c0.48-0.326,1.052-0.49,1.715-0.49
			C541.2,421.454,541.602,421.517,541.966,421.643z M550.17,425.753h-4.704c0.056,0.812,0.261,1.409,0.615,1.792
			c0.355,0.382,0.812,0.573,1.372,0.573c0.355,0,0.682-0.051,0.98-0.153c0.299-0.104,0.611-0.267,0.938-0.49l0.561,0.77
			c-0.784,0.616-1.643,0.925-2.576,0.925c-1.026,0-1.827-0.337-2.401-1.009c-0.573-0.672-0.86-1.596-0.86-2.771
			c0-0.766,0.123-1.444,0.371-2.037c0.247-0.593,0.602-1.057,1.063-1.393c0.462-0.337,1.006-0.505,1.631-0.505
			c0.98,0,1.731,0.322,2.254,0.967c0.523,0.644,0.784,1.535,0.784,2.674C550.198,425.309,550.189,425.528,550.17,425.753z
			 M548.924,424.717c0-0.729-0.145-1.283-0.435-1.666c-0.289-0.383-0.723-0.574-1.302-0.574c-1.055,0-1.629,0.774-1.722,2.324h3.458
			V424.717z M559.928,421.643c0.363,0.126,0.714,0.329,1.05,0.609l-0.63,0.84c-0.252-0.196-0.499-0.341-0.742-0.435
			c-0.242-0.093-0.518-0.14-0.826-0.14c-0.597,0-1.062,0.238-1.393,0.714c-0.332,0.477-0.497,1.181-0.497,2.114
			s0.163,1.621,0.49,2.064c0.326,0.443,0.793,0.665,1.399,0.665c0.299,0,0.567-0.046,0.806-0.14
			c0.237-0.094,0.496-0.247,0.776-0.462l0.616,0.882c-0.672,0.541-1.423,0.812-2.254,0.812c-0.999,0-1.785-0.337-2.359-1.009
			c-0.573-0.672-0.86-1.601-0.86-2.786c0-0.783,0.13-1.47,0.392-2.058s0.632-1.045,1.113-1.372c0.48-0.326,1.052-0.49,1.715-0.49
			C559.162,421.454,559.564,421.517,559.928,421.643z M567.775,422.49c0.574,0.691,0.861,1.629,0.861,2.814
			c0,0.766-0.131,1.439-0.393,2.022c-0.261,0.584-0.639,1.036-1.134,1.358c-0.494,0.322-1.082,0.483-1.764,0.483
			c-1.036,0-1.844-0.346-2.422-1.036c-0.579-0.691-0.868-1.629-0.868-2.814c0-0.766,0.131-1.439,0.392-2.022
			c0.262-0.584,0.64-1.036,1.134-1.358c0.495-0.322,1.088-0.483,1.778-0.483C566.396,421.454,567.2,421.8,567.775,422.49z
			 M563.442,425.318c0,1.876,0.635,2.814,1.904,2.814s1.904-0.943,1.904-2.828c0-1.876-0.631-2.814-1.891-2.814
			C564.081,422.49,563.442,423.433,563.442,425.318z M574.698,421.538l-0.237,1.261c-0.225-0.057-0.439-0.084-0.645-0.084
			c-0.457,0-0.826,0.168-1.105,0.504c-0.28,0.336-0.5,0.858-0.658,1.567V429h-1.288v-7.378h1.105l0.126,1.498
			c0.196-0.55,0.462-0.966,0.799-1.246c0.336-0.279,0.728-0.42,1.176-0.42C574.231,421.454,574.474,421.482,574.698,421.538z
			 M580.102,421.538l-0.238,1.261c-0.224-0.057-0.438-0.084-0.644-0.084c-0.458,0-0.826,0.168-1.106,0.504
			c-0.279,0.336-0.499,0.858-0.658,1.567V429h-1.287v-7.378h1.105l0.126,1.498c0.196-0.55,0.462-0.966,0.798-1.246
			c0.336-0.279,0.729-0.42,1.176-0.42C579.635,421.454,579.878,421.482,580.102,421.538z M586.976,425.753h-4.704
			c0.056,0.812,0.262,1.409,0.616,1.792c0.354,0.382,0.812,0.573,1.372,0.573c0.354,0,0.681-0.051,0.979-0.153
			c0.299-0.104,0.611-0.267,0.938-0.49l0.56,0.77c-0.784,0.616-1.643,0.925-2.576,0.925c-1.026,0-1.826-0.337-2.4-1.009
			s-0.861-1.596-0.861-2.771c0-0.766,0.124-1.444,0.371-2.037s0.602-1.057,1.064-1.393c0.462-0.337,1.005-0.505,1.631-0.505
			c0.979,0,1.731,0.322,2.254,0.967c0.522,0.644,0.784,1.535,0.784,2.674C587.004,425.309,586.994,425.528,586.976,425.753z
			 M585.73,424.717c0-0.729-0.145-1.283-0.434-1.666c-0.29-0.383-0.724-0.574-1.303-0.574c-1.055,0-1.628,0.774-1.722,2.324h3.458
			V424.717z M592.491,421.664c0.401,0.141,0.784,0.351,1.148,0.631l-0.561,0.854c-0.326-0.233-0.642-0.403-0.944-0.511
			c-0.304-0.107-0.623-0.161-0.959-0.161c-0.42,0-0.752,0.086-0.994,0.259c-0.243,0.173-0.364,0.408-0.364,0.707
			s0.114,0.532,0.343,0.7s0.642,0.331,1.239,0.49c0.821,0.205,1.436,0.485,1.841,0.84c0.406,0.354,0.609,0.84,0.609,1.456
			c0,0.728-0.282,1.283-0.847,1.666c-0.565,0.383-1.253,0.574-2.065,0.574c-1.12,0-2.049-0.322-2.786-0.967l0.714-0.812
			c0.579,0.494,1.26,0.742,2.044,0.742c0.477,0,0.859-0.099,1.148-0.294c0.289-0.196,0.434-0.458,0.434-0.784
			c0-0.262-0.051-0.474-0.153-0.637c-0.104-0.164-0.278-0.304-0.525-0.421c-0.247-0.116-0.618-0.24-1.113-0.37
			c-0.783-0.206-1.351-0.483-1.701-0.833c-0.35-0.351-0.524-0.791-0.524-1.323c0-0.383,0.114-0.729,0.343-1.036
			s0.546-0.549,0.952-0.721c0.406-0.173,0.861-0.26,1.365-0.26S592.09,421.524,592.491,421.664z M601.13,422.463
			c0.438,0.672,0.657,1.619,0.657,2.842c0,1.157-0.252,2.091-0.756,2.8s-1.218,1.064-2.142,1.064c-0.821,0-1.466-0.28-1.933-0.841
			v3.5l-1.287,0.154v-10.36h1.105l0.098,0.994c0.271-0.373,0.598-0.66,0.98-0.86c0.383-0.201,0.784-0.302,1.204-0.302
			C600,421.454,600.691,421.79,601.13,422.463z M600.402,425.304c0-1.886-0.556-2.828-1.666-2.828c-0.364,0-0.695,0.107-0.994,0.322
			c-0.298,0.214-0.56,0.489-0.784,0.825v3.599c0.188,0.289,0.421,0.511,0.7,0.665c0.28,0.153,0.588,0.23,0.924,0.23
			C599.795,428.118,600.402,427.18,600.402,425.304z M609.173,422.49c0.573,0.691,0.86,1.629,0.86,2.814
			c0,0.766-0.131,1.439-0.392,2.022c-0.262,0.584-0.64,1.036-1.134,1.358c-0.495,0.322-1.083,0.483-1.765,0.483
			c-1.036,0-1.843-0.346-2.422-1.036c-0.578-0.691-0.868-1.629-0.868-2.814c0-0.766,0.131-1.439,0.393-2.022
			c0.261-0.584,0.639-1.036,1.134-1.358s1.087-0.483,1.778-0.483C607.794,421.454,608.599,421.8,609.173,422.49z M604.84,425.318
			c0,1.876,0.635,2.814,1.903,2.814c1.27,0,1.904-0.943,1.904-2.828c0-1.876-0.63-2.814-1.89-2.814
			C605.479,422.49,604.84,423.433,604.84,425.318z M617.209,422.056c0.378,0.401,0.566,0.952,0.566,1.652V429h-1.288v-5.109
			c0-0.522-0.098-0.892-0.294-1.106c-0.196-0.214-0.485-0.321-0.868-0.321c-0.392,0-0.737,0.111-1.036,0.336
			c-0.298,0.224-0.578,0.546-0.84,0.966V429h-1.288v-7.378h1.106l0.112,1.093c0.261-0.393,0.585-0.7,0.973-0.925
			c0.388-0.224,0.814-0.336,1.281-0.336C616.306,421.454,616.83,421.655,617.209,422.056z M626.077,429h-1.134l-0.126-1.021
			c-0.242,0.373-0.546,0.665-0.91,0.875c-0.363,0.21-0.77,0.315-1.218,0.315c-0.877,0-1.561-0.346-2.051-1.036
			c-0.49-0.691-0.735-1.62-0.735-2.786c0-0.756,0.117-1.428,0.351-2.017c0.232-0.588,0.569-1.047,1.008-1.379
			c0.438-0.331,0.952-0.497,1.54-0.497c0.756,0,1.418,0.304,1.987,0.91V418.5l1.288,0.154V429z M623.978,427.873
			c0.28-0.182,0.551-0.454,0.812-0.818v-3.612c-0.242-0.317-0.501-0.558-0.776-0.721s-0.586-0.245-0.932-0.245
			c-0.569,0-1.01,0.238-1.322,0.714s-0.47,1.186-0.47,2.128c0,0.952,0.146,1.661,0.435,2.128s0.704,0.7,1.246,0.7
			C623.362,428.146,623.698,428.055,623.978,427.873z M628.738,429v-7.378h1.288V429H628.738z M630.026,418.332
			c0.168,0.168,0.252,0.379,0.252,0.631s-0.084,0.459-0.252,0.623c-0.168,0.163-0.387,0.244-0.658,0.244
			c-0.261,0-0.476-0.081-0.644-0.244c-0.168-0.164-0.252-0.371-0.252-0.623s0.084-0.463,0.252-0.631s0.383-0.252,0.644-0.252
			C629.639,418.08,629.858,418.164,630.026,418.332z M637.733,422.056c0.378,0.401,0.567,0.952,0.567,1.652V429h-1.288v-5.109
			c0-0.522-0.099-0.892-0.294-1.106c-0.196-0.214-0.485-0.321-0.868-0.321c-0.393,0-0.737,0.111-1.036,0.336
			c-0.299,0.224-0.579,0.546-0.84,0.966V429h-1.288v-7.378h1.105l0.112,1.093c0.262-0.393,0.586-0.7,0.974-0.925
			c0.387-0.224,0.813-0.336,1.28-0.336C636.829,421.454,637.355,421.655,637.733,422.056z M645.916,422.14
			c-0.337,0.028-0.747,0.042-1.232,0.042c0.868,0.392,1.302,1.013,1.302,1.862c0,0.737-0.252,1.339-0.756,1.806s-1.19,0.7-2.058,0.7
			c-0.336,0-0.649-0.047-0.938-0.141c-0.112,0.075-0.2,0.176-0.266,0.302s-0.099,0.254-0.099,0.385c0,0.401,0.322,0.602,0.967,0.602
			h1.176c0.494,0,0.934,0.089,1.315,0.267c0.383,0.177,0.68,0.42,0.89,0.728s0.314,0.658,0.314,1.05
			c0,0.719-0.294,1.271-0.882,1.659s-1.446,0.581-2.576,0.581c-0.793,0-1.421-0.082-1.883-0.245s-0.791-0.408-0.987-0.734
			c-0.195-0.327-0.294-0.747-0.294-1.261h1.162c0,0.299,0.057,0.534,0.168,0.707c0.112,0.173,0.312,0.304,0.603,0.393
			c0.289,0.088,0.699,0.133,1.231,0.133c0.775,0,1.328-0.096,1.659-0.287s0.497-0.479,0.497-0.861c0-0.345-0.131-0.606-0.392-0.783
			c-0.262-0.178-0.626-0.267-1.093-0.267h-1.161c-0.626,0-1.1-0.133-1.422-0.398c-0.321-0.267-0.482-0.601-0.482-1.001
			c0-0.243,0.07-0.477,0.21-0.7c0.14-0.225,0.341-0.425,0.602-0.603c-0.429-0.224-0.744-0.501-0.944-0.833
			c-0.201-0.331-0.302-0.734-0.302-1.211c0-0.494,0.124-0.938,0.371-1.33c0.248-0.392,0.588-0.697,1.022-0.917
			c0.434-0.219,0.917-0.329,1.449-0.329c0.578,0.01,1.063-0.012,1.456-0.062c0.392-0.052,0.716-0.121,0.973-0.21
			s0.571-0.217,0.945-0.385l0.378,1.162C646.56,422.052,646.252,422.112,645.916,422.14z M641.961,422.834
			c-0.267,0.303-0.399,0.702-0.399,1.196c0,0.504,0.136,0.908,0.406,1.211c0.271,0.304,0.653,0.455,1.147,0.455
			c0.504,0,0.89-0.146,1.155-0.44s0.399-0.707,0.399-1.239c0-1.092-0.527-1.638-1.582-1.638
			C642.603,422.379,642.227,422.53,641.961,422.834z M653.951,429.169c-0.625,0-1.112-0.18-1.463-0.539
			c-0.35-0.359-0.524-0.88-0.524-1.562v-4.452h-1.288v-0.994h1.288v-1.666l1.288-0.153v1.819h1.75l-0.141,0.994h-1.609v4.396
			c0,0.383,0.067,0.66,0.202,0.833c0.136,0.173,0.362,0.259,0.68,0.259c0.308,0,0.635-0.107,0.979-0.322l0.49,0.882
			C655.118,429,654.568,429.169,653.951,429.169z M661.981,422.49c0.574,0.691,0.861,1.629,0.861,2.814
			c0,0.766-0.131,1.439-0.393,2.022c-0.261,0.584-0.639,1.036-1.134,1.358c-0.494,0.322-1.083,0.483-1.764,0.483
			c-1.036,0-1.844-0.346-2.422-1.036c-0.579-0.691-0.868-1.629-0.868-2.814c0-0.766,0.131-1.439,0.392-2.022
			c0.262-0.584,0.64-1.036,1.134-1.358c0.495-0.322,1.088-0.483,1.778-0.483C660.602,421.454,661.406,421.8,661.981,422.49z
			 M657.648,425.318c0,1.876,0.635,2.814,1.904,2.814s1.903-0.943,1.903-2.828c0-1.876-0.63-2.814-1.89-2.814
			C658.287,422.49,657.648,423.433,657.648,425.318z M460.402,445.169c-0.625,0-1.113-0.18-1.463-0.539s-0.525-0.88-0.525-1.562
			v-4.452h-1.287v-0.994h1.287v-1.666l1.288-0.153v1.819h1.75l-0.14,0.994h-1.61v4.396c0,0.383,0.068,0.66,0.203,0.833
			c0.136,0.173,0.362,0.259,0.68,0.259c0.308,0,0.634-0.107,0.979-0.322l0.49,0.882C461.569,445,461.018,445.169,460.402,445.169z
			 M468.431,438.056c0.378,0.401,0.566,0.952,0.566,1.652V445h-1.287v-5.109c0-0.522-0.101-0.892-0.302-1.106
			c-0.2-0.214-0.492-0.321-0.875-0.321s-0.723,0.111-1.021,0.336c-0.299,0.224-0.579,0.541-0.84,0.951V445h-1.288v-10.331
			l1.288-0.141v4.116c0.578-0.793,1.307-1.19,2.184-1.19C467.528,437.454,468.053,437.655,468.431,438.056z M477.132,441.753h-4.704
			c0.056,0.812,0.261,1.409,0.616,1.792c0.354,0.382,0.812,0.573,1.371,0.573c0.355,0,0.682-0.051,0.98-0.153
			c0.299-0.104,0.611-0.267,0.938-0.49l0.56,0.77c-0.784,0.616-1.643,0.925-2.576,0.925c-1.026,0-1.827-0.337-2.401-1.009
			c-0.573-0.672-0.86-1.596-0.86-2.771c0-0.766,0.123-1.444,0.371-2.037c0.247-0.593,0.602-1.057,1.063-1.393
			c0.462-0.337,1.006-0.505,1.631-0.505c0.98,0,1.731,0.322,2.255,0.967c0.522,0.644,0.783,1.535,0.783,2.674
			C477.159,441.309,477.151,441.528,477.132,441.753z M475.886,440.717c0-0.729-0.145-1.283-0.435-1.666
			c-0.289-0.383-0.723-0.574-1.302-0.574c-1.055,0-1.629,0.774-1.722,2.324h3.458V440.717z M490.404,445l-0.336-4.354
			c-0.14-1.708-0.22-3.02-0.238-3.934l-2.086,7.195h-1.246l-2.197-7.21c0,1.167-0.061,2.516-0.183,4.046L483.796,445h-1.261
			l0.799-9.646h1.792l2.029,7.014l1.933-7.014h1.806l0.798,9.646H490.404z M499.615,441.753h-4.704
			c0.057,0.812,0.262,1.409,0.616,1.792c0.354,0.382,0.812,0.573,1.372,0.573c0.354,0,0.682-0.051,0.98-0.153
			c0.298-0.104,0.611-0.267,0.938-0.49l0.561,0.77c-0.784,0.616-1.644,0.925-2.576,0.925c-1.027,0-1.827-0.337-2.401-1.009
			s-0.861-1.596-0.861-2.771c0-0.766,0.124-1.444,0.371-2.037c0.248-0.593,0.603-1.057,1.064-1.393
			c0.462-0.337,1.006-0.505,1.631-0.505c0.98,0,1.731,0.322,2.254,0.967c0.522,0.644,0.784,1.535,0.784,2.674
			C499.644,441.309,499.634,441.528,499.615,441.753z M498.369,440.717c0-0.729-0.145-1.283-0.434-1.666s-0.724-0.574-1.302-0.574
			c-1.055,0-1.629,0.774-1.723,2.324h3.458V440.717z M507.484,445h-1.134l-0.126-1.021c-0.243,0.373-0.546,0.665-0.91,0.875
			s-0.77,0.315-1.218,0.315c-0.878,0-1.562-0.346-2.051-1.036c-0.49-0.691-0.735-1.62-0.735-2.786c0-0.756,0.116-1.428,0.35-2.017
			c0.233-0.588,0.569-1.047,1.009-1.379c0.438-0.331,0.951-0.497,1.539-0.497c0.757,0,1.419,0.304,1.988,0.91V434.5l1.288,0.154V445
			z M505.384,443.873c0.279-0.182,0.551-0.454,0.812-0.818v-3.612c-0.242-0.317-0.502-0.558-0.776-0.721
			c-0.275-0.163-0.586-0.245-0.932-0.245c-0.569,0-1.01,0.238-1.323,0.714c-0.312,0.476-0.469,1.186-0.469,2.128
			c0,0.952,0.145,1.661,0.435,2.128c0.289,0.467,0.704,0.7,1.245,0.7C504.768,444.146,505.104,444.055,505.384,443.873z
			 M510.144,445v-7.378h1.288V445H510.144z M511.432,434.332c0.168,0.168,0.252,0.379,0.252,0.631s-0.084,0.459-0.252,0.623
			c-0.168,0.163-0.388,0.244-0.658,0.244c-0.262,0-0.476-0.081-0.644-0.244c-0.168-0.164-0.252-0.371-0.252-0.623
			s0.084-0.463,0.252-0.631s0.382-0.252,0.644-0.252C511.044,434.08,511.264,434.164,511.432,434.332z M516.163,445.169
			c-0.625,0-1.112-0.18-1.463-0.539c-0.35-0.359-0.524-0.88-0.524-1.562v-4.452h-1.288v-0.994h1.288v-1.666l1.288-0.153v1.819h1.75
			l-0.141,0.994h-1.609v4.396c0,0.383,0.067,0.66,0.202,0.833c0.136,0.173,0.362,0.259,0.68,0.259c0.308,0,0.635-0.107,0.979-0.322
			l0.49,0.882C517.33,445,516.78,445.169,516.163,445.169z M524.55,441.753h-4.704c0.056,0.812,0.261,1.409,0.616,1.792
			c0.354,0.382,0.812,0.573,1.372,0.573c0.354,0,0.681-0.051,0.979-0.153c0.299-0.104,0.611-0.267,0.938-0.49l0.56,0.77
			c-0.784,0.616-1.643,0.925-2.576,0.925c-1.026,0-1.827-0.337-2.4-1.009c-0.574-0.672-0.861-1.596-0.861-2.771
			c0-0.766,0.124-1.444,0.371-2.037s0.602-1.057,1.063-1.393c0.462-0.337,1.006-0.505,1.631-0.505c0.98,0,1.731,0.322,2.255,0.967
			c0.522,0.644,0.783,1.535,0.783,2.674C524.577,441.309,524.569,441.528,524.55,441.753z M523.304,440.717
			c0-0.729-0.145-1.283-0.435-1.666c-0.289-0.383-0.723-0.574-1.302-0.574c-1.055,0-1.629,0.774-1.722,2.324h3.458V440.717z
			 M530.64,437.538l-0.238,1.261c-0.224-0.057-0.438-0.084-0.644-0.084c-0.458,0-0.826,0.168-1.106,0.504s-0.499,0.858-0.658,1.567
			V445h-1.288v-7.378h1.106l0.126,1.498c0.196-0.55,0.462-0.966,0.798-1.246c0.336-0.279,0.729-0.42,1.176-0.42
			C530.173,437.454,530.416,437.482,530.64,437.538z M536.044,437.538l-0.238,1.261c-0.225-0.057-0.438-0.084-0.645-0.084
			c-0.457,0-0.825,0.168-1.105,0.504s-0.499,0.858-0.658,1.567V445h-1.288v-7.378h1.106l0.126,1.498
			c0.195-0.55,0.462-0.966,0.798-1.246c0.336-0.279,0.728-0.42,1.176-0.42C535.577,437.454,535.82,437.482,536.044,437.538z
			 M542.358,443.943c0.103,0.145,0.257,0.255,0.462,0.329l-0.294,0.896c-0.383-0.047-0.69-0.154-0.924-0.322
			s-0.406-0.43-0.518-0.784c-0.495,0.737-1.228,1.106-2.198,1.106c-0.729,0-1.302-0.206-1.723-0.616
			c-0.42-0.411-0.63-0.947-0.63-1.61c0-0.784,0.282-1.386,0.848-1.806c0.564-0.42,1.364-0.63,2.4-0.63h1.135v-0.546
			c0-0.523-0.127-0.896-0.379-1.12c-0.252-0.225-0.639-0.336-1.162-0.336c-0.541,0-1.203,0.13-1.987,0.392l-0.322-0.938
			c0.915-0.337,1.764-0.505,2.548-0.505c0.868,0,1.517,0.213,1.946,0.638s0.644,1.028,0.644,1.812v3.374
			C542.203,443.577,542.255,443.799,542.358,443.943z M540.916,443.054v-1.694h-0.967c-1.362,0-2.044,0.504-2.044,1.512
			c0,0.439,0.107,0.771,0.322,0.994c0.215,0.225,0.532,0.336,0.952,0.336C539.917,444.202,540.495,443.82,540.916,443.054z
			 M549.897,438.056c0.378,0.401,0.567,0.952,0.567,1.652V445h-1.288v-5.109c0-0.522-0.099-0.892-0.294-1.106
			c-0.196-0.214-0.485-0.321-0.868-0.321c-0.393,0-0.737,0.111-1.036,0.336c-0.299,0.224-0.579,0.546-0.84,0.966V445h-1.288v-7.378
			h1.105l0.112,1.093c0.262-0.393,0.586-0.7,0.974-0.925c0.387-0.224,0.813-0.336,1.28-0.336
			C548.993,437.454,549.519,437.655,549.897,438.056z M558.598,441.753h-4.704c0.056,0.812,0.262,1.409,0.616,1.792
			c0.354,0.382,0.812,0.573,1.372,0.573c0.354,0,0.681-0.051,0.979-0.153c0.299-0.104,0.611-0.267,0.938-0.49l0.56,0.77
			c-0.784,0.616-1.643,0.925-2.576,0.925c-1.026,0-1.826-0.337-2.4-1.009s-0.861-1.596-0.861-2.771c0-0.766,0.124-1.444,0.371-2.037
			s0.602-1.057,1.063-1.393c0.463-0.337,1.006-0.505,1.632-0.505c0.979,0,1.73,0.322,2.254,0.967
			c0.522,0.644,0.783,1.535,0.783,2.674C558.625,441.309,558.616,441.528,558.598,441.753z M557.352,440.717
			c0-0.729-0.145-1.283-0.434-1.666c-0.29-0.383-0.724-0.574-1.303-0.574c-1.055,0-1.629,0.774-1.722,2.324h3.458V440.717z
			 M565.878,443.943c0.103,0.145,0.256,0.255,0.462,0.329l-0.294,0.896c-0.383-0.047-0.691-0.154-0.925-0.322
			c-0.232-0.168-0.405-0.43-0.518-0.784c-0.495,0.737-1.228,1.106-2.198,1.106c-0.728,0-1.302-0.206-1.722-0.616
			c-0.42-0.411-0.63-0.947-0.63-1.61c0-0.784,0.282-1.386,0.847-1.806s1.365-0.63,2.401-0.63h1.134v-0.546
			c0-0.523-0.126-0.896-0.378-1.12c-0.252-0.225-0.64-0.336-1.162-0.336c-0.541,0-1.204,0.13-1.988,0.392l-0.321-0.938
			c0.914-0.337,1.764-0.505,2.548-0.505c0.868,0,1.517,0.213,1.945,0.638c0.43,0.425,0.645,1.028,0.645,1.812v3.374
			C565.724,443.577,565.775,443.799,565.878,443.943z M564.436,443.054v-1.694h-0.966c-1.363,0-2.044,0.504-2.044,1.512
			c0,0.439,0.107,0.771,0.321,0.994c0.215,0.225,0.532,0.336,0.952,0.336C563.437,444.202,564.016,443.82,564.436,443.054z
			 M573.416,438.056c0.379,0.401,0.567,0.952,0.567,1.652V445h-1.288v-5.109c0-0.522-0.098-0.892-0.294-1.106
			c-0.196-0.214-0.485-0.321-0.868-0.321c-0.392,0-0.737,0.111-1.036,0.336c-0.298,0.224-0.578,0.546-0.84,0.966V445h-1.288v-7.378
			h1.106l0.112,1.093c0.261-0.393,0.585-0.7,0.973-0.925c0.388-0.224,0.814-0.336,1.281-0.336
			C572.514,437.454,573.038,437.655,573.416,438.056z M586.22,440.604c0.41,0.354,0.616,0.905,0.616,1.652
			c0,1.829-1.274,2.743-3.822,2.743h-2.66v-9.646h2.282c1.223,0,2.158,0.2,2.807,0.602s0.974,1.013,0.974,1.834
			c0,0.561-0.176,1.027-0.525,1.4s-0.777,0.611-1.281,0.714C585.273,440.016,585.809,440.25,586.22,440.604z M581.684,439.442h1.456
			c0.56,0,1.02-0.135,1.379-0.406c0.359-0.271,0.539-0.653,0.539-1.147c0-0.561-0.189-0.947-0.567-1.162s-0.949-0.322-1.715-0.322
			h-1.092V439.442z M584.813,443.587c0.415-0.233,0.623-0.677,0.623-1.33c0-0.635-0.201-1.093-0.602-1.372
			c-0.401-0.28-0.925-0.42-1.568-0.42h-1.582v3.472h1.33C583.798,443.936,584.398,443.82,584.813,443.587z M593.92,443.943
			c0.103,0.145,0.256,0.255,0.462,0.329l-0.294,0.896c-0.383-0.047-0.691-0.154-0.925-0.322s-0.405-0.43-0.518-0.784
			c-0.495,0.737-1.228,1.106-2.198,1.106c-0.728,0-1.302-0.206-1.722-0.616c-0.42-0.411-0.63-0.947-0.63-1.61
			c0-0.784,0.282-1.386,0.847-1.806s1.365-0.63,2.401-0.63h1.134v-0.546c0-0.523-0.126-0.896-0.378-1.12
			c-0.252-0.225-0.64-0.336-1.162-0.336c-0.541,0-1.204,0.13-1.988,0.392l-0.321-0.938c0.914-0.337,1.764-0.505,2.548-0.505
			c0.868,0,1.517,0.213,1.945,0.638c0.43,0.425,0.645,1.028,0.645,1.812v3.374C593.766,443.577,593.817,443.799,593.92,443.943z
			 M592.478,443.054v-1.694h-0.966c-1.363,0-2.044,0.504-2.044,1.512c0,0.439,0.107,0.771,0.321,0.994
			c0.215,0.225,0.532,0.336,0.952,0.336C591.479,444.202,592.058,443.82,592.478,443.054z M599.772,437.664
			c0.401,0.141,0.784,0.351,1.148,0.631l-0.561,0.854c-0.326-0.233-0.642-0.403-0.945-0.511c-0.303-0.107-0.623-0.161-0.959-0.161
			c-0.42,0-0.751,0.086-0.993,0.259c-0.243,0.173-0.364,0.408-0.364,0.707s0.114,0.532,0.343,0.7s0.642,0.331,1.239,0.49
			c0.821,0.205,1.435,0.485,1.841,0.84s0.609,0.84,0.609,1.456c0,0.728-0.282,1.283-0.848,1.666
			c-0.564,0.383-1.253,0.574-2.064,0.574c-1.12,0-2.049-0.322-2.786-0.967l0.714-0.812c0.579,0.494,1.26,0.742,2.044,0.742
			c0.477,0,0.858-0.099,1.148-0.294c0.289-0.196,0.434-0.458,0.434-0.784c0-0.262-0.052-0.474-0.154-0.637
			c-0.103-0.164-0.277-0.304-0.524-0.421c-0.248-0.116-0.618-0.24-1.113-0.37c-0.784-0.206-1.351-0.483-1.701-0.833
			c-0.35-0.351-0.524-0.791-0.524-1.323c0-0.383,0.114-0.729,0.343-1.036s0.546-0.549,0.952-0.721c0.405-0.173,0.86-0.26,1.364-0.26
			C598.918,437.454,599.37,437.524,599.772,437.664z M602.949,445v-7.378h1.288V445H602.949z M604.238,434.332
			c0.168,0.168,0.252,0.379,0.252,0.631s-0.084,0.459-0.252,0.623c-0.168,0.163-0.387,0.244-0.658,0.244
			c-0.261,0-0.476-0.081-0.644-0.244c-0.168-0.164-0.252-0.371-0.252-0.623s0.084-0.463,0.252-0.631s0.383-0.252,0.644-0.252
			C603.851,434.08,604.07,434.164,604.238,434.332z M611.945,438.056c0.378,0.401,0.567,0.952,0.567,1.652V445h-1.288v-5.109
			c0-0.522-0.099-0.892-0.294-1.106c-0.196-0.214-0.485-0.321-0.868-0.321c-0.392,0-0.737,0.111-1.036,0.336
			c-0.299,0.224-0.578,0.546-0.84,0.966V445h-1.288v-7.378h1.106l0.111,1.093c0.262-0.393,0.586-0.7,0.974-0.925
			c0.387-0.224,0.813-0.336,1.28-0.336C611.041,437.454,611.567,437.655,611.945,438.056z"/>
	</g>
</g>
<path opacity="0.5" fill-rule="evenodd" clip-rule="evenodd" fill="#909090" d="M253,92c2.762,0.723,2.237,0.279,3,3
	c2.094,1.876,1.537,2.961,2,6c-1.666-0.333-3.334-0.667-5-1c0-0.333,0-0.667,0-1c-1-0.667-2-1.333-3-2c0-0.667,0-1.333,0-2
	c-1-0.667-2-1.333-3-2c-0.666-2-1.334-4-2-6c-0.666,0-1.334,0-2,0c0.334,1,0.666,2,1,3c-1,0.667-2,1.333-3,2c0,0.667,0,1.333,0,2
	c-1.333,1-2.667,2-4,3c0,0.667,0,1.333,0,2c-0.666,0.333-1.334,0.667-2,1c-0.666,2-1.334,4-2,6c-0.667,0.333-1.333,0.667-2,1
	c-0.333,1-0.667,2-1,3c-0.333,0-0.667,0-1,0c0,0.667,0,1.333,0,2c-0.333,0-0.667,0-1,0c0,0.667,0,1.333,0,2c-0.333,0-0.667,0-1,0
	c0,1,0,2,0,3c-0.333,0-0.667,0-1,0c0,0.666,0,1.334,0,2c-0.333,0-0.667,0-1,0c-0.333,1.666-0.667,3.334-1,5c-0.333,0-0.667,0-1,0
	c-0.333,2.666-0.667,5.334-1,8c-0.333,0-0.667,0-1,0c0,0.666,0,1.334,0,2c-0.333,0-0.667,0-1,0c0,1.333,0,2.667,0,4
	c-0.333,0-0.667,0-1,0c0,1.333,0,2.667,0,4c-0.333,0-0.667,0-1,0c0,1.666,0,3.334,0,5c-0.333,0-0.667,0-1,0
	c-1.042,3.504,1.026,7.756-1,10c0-0.334,0-0.666,0-1c-1,0-2,0-3,0c0-0.334,0-0.666,0-1c-3.813-3.076-3.154-5.266-3-12
	c1.942-2.271,0.905-5.801,2-9c0.333,0,0.667,0,1,0c0-1.333,0-2.667,0-4c0.333,0,0.667,0,1,0c0-0.666,0-1.334,0-2
	c0.333,0,0.667,0,1,0c0-1.333,0-2.667,0-4c0.333,0,0.667,0,1,0c0-1.333,0-2.667,0-4c0.333,0,0.667,0,1,0
	c0.333-1.666,0.667-3.334,1-5c0.333,0,0.667,0,1,0c0-0.667,0-1.333,0-2c0.333,0,0.667,0,1,0c0-1,0-2,0-3c0.333,0,0.667,0,1,0
	c0-0.667,0-1.333,0-2c0.333,0,0.667,0,1,0c0-0.667,0-1.333,0-2c0.333,0,0.667,0,1,0c0.333-1,0.667-2,1-3
	c0.667-0.333,1.333-0.667,2-1c0.667-2,1.333-4,2-6c0.667-0.333,1.333-0.667,2-1c0-0.667,0-1.333,0-2c0.667-0.333,1.333-0.667,2-1
	c1.333-2,2.667-4,4-6c-0.334,0-0.666,0-1,0c0,0.333,0,0.667,0,1c-1.333,0-2.667,0-4,0c0,0.333,0,0.667,0,1c-0.667,0-1.333,0-2,0
	c0,0.333,0,0.667,0,1c0,0-2.559-0.896-4-1c-1-1.333-2-2.667-3-4c6.746-2.948,14.8-6.674,24-7C248.172,82.002,251.744,86.479,253,92z
	"/>
</svg>
