<?xml version="1.0" encoding="UTF-8" standalone="no"?>
<svg width="81px" height="64px" viewBox="0 0 81 64" version="1.1" xmlns="http://www.w3.org/2000/svg" xmlns:xlink="http://www.w3.org/1999/xlink">
    <!-- Generator: Sketch 47.1 (45422) - http://www.bohemiancoding.com/sketch -->
    <title>Page 1</title>
    <desc>Created with Sketch.</desc>
    <defs></defs>
    <g id="Welcome" stroke="none" stroke-width="1" fill="none" fill-rule="evenodd">
        <g id="Story_intro" transform="translate(-1137.000000, -4743.000000)" fill="#66B7EA">
            <g id="Page-1" transform="translate(1137.000000, 4743.000000)">
                <path d="M34.6577561,38.8393756 C35.0487805,35.5461073 34.8657561,30.2961561 34.6569756,26.5623024 C35.0632195,27.0711805 35.5494634,27.3498146 35.5838049,26.9580098 C35.6310244,26.4249366 34.7400976,25.4918634 35.115122,24.9143024 C35.4901463,24.335961 35.6310244,25.8028878 36.0532683,26.6918634 C36.4755122,27.5796683 36.8033171,27.3139122 36.9910244,28.513522 C37.179122,29.711961 37.7410732,30.7800585 38.0692683,29.8465951 C38.3978537,28.9127415 38.772878,29.3576195 38.9137561,27.9367415 C39.0550244,26.513522 38.5847805,25.8473756 38.3506341,25.0028878 C38.1941463,24.4366439 37.9529756,23.4313756 37.9100488,22.6286439 C37.9549268,22.6668878 37.9994146,22.705522 38.0380488,22.7492293 C38.8138537,23.6144 38.9059512,23.8739122 39.3621463,24.6957659 C39.8187317,25.5180098 39.9108293,25.9929366 40.5496585,26.0362537 C40.612878,26.0409366 40.6698537,26.0514732 40.726439,26.0616195 C38.6745366,29.4286439 35.9404878,34.4011317 34.6577561,38.8393756 M22.2280976,24.1864976 C22.532878,24.0346927 22.8673171,23.948839 23.2286829,23.9824 C23.3000976,23.9890341 23.3750244,23.9933268 23.451122,23.9976195 C23.641561,26.6629854 23.8491707,29.359961 24.0177561,31.5414244 C23.4757073,29.3630829 22.841561,26.7383024 22.2280976,24.1864976 M79.8971707,11.7904 C79.4199024,11.1320585 78.6296585,10.4323512 78.4755122,10.0503024 C78.3229268,9.66825366 77.513561,9.13557073 77.513561,9.13557073 C77.513561,9.13557073 78.6046829,9.00093659 77.9908293,8.6348878 C77.3785366,8.26805854 75.9369756,7.21635122 75.6197073,6.21576585 C75.3016585,5.21596098 74.8610732,3.38337561 73.9748293,2.76171707 C73.0885854,2.1388878 71.2743415,1.10903415 71.595122,1.90669268 C71.9162927,2.70552195 72.8794146,2.77810732 72.872,3.18122927 C72.8641951,3.58396098 72.4376585,4.94825366 70.7713171,6.18376585 C69.1045854,7.4188878 65.0694634,10.0389854 64.6425366,10.561522 C64.6425366,10.561522 64.2195122,9.40210732 63.9740488,8.05537561 C63.7285854,6.70708293 64.998439,4.38161951 64.6199024,3.12503415 C64.2433171,1.86805854 62.3186341,0.0397658537 61.0074146,0.259473171 C59.6965854,0.4784 60.8587317,1.99800976 60.7545366,2.47761951 C60.651122,2.95722927 59.8667317,4.69693659 60.0883902,5.7744 C60.308878,6.85030244 61.4179512,9.18825366 62.6569756,10.1584 C63.8956098,11.1265951 62.9613659,11.4423024 62.9613659,11.4423024 L62.2273171,12.0428878 C62.2273171,12.0428878 62.0333659,10.7160585 61.6259512,10.2309854 C61.2189268,9.74513171 60.2796098,9.94220488 60.4161951,10.491278 C60.5516098,11.039961 60.6522927,11.9219122 59.9603902,12.6266927 C59.2677073,13.3318634 56.0969756,15.7814244 56.0969756,15.7814244 C56.0969756,15.7814244 57.9057561,13.5304976 57.4163902,12.315278 C56.9285854,11.100839 56.2667317,11.3529366 56.2050732,11.9379122 C56.1430244,12.5217171 54.9278049,14.9853268 54.3451707,15.3275707 C54.3451707,15.3275707 53.590439,14.2945951 53.7508293,12.7929366 C53.9092683,11.2908878 53.3430244,9.14493659 52.0595122,8.27430244 C50.776,7.40171707 51.6942439,9.05479024 51.7422439,9.59566829 C51.7906341,10.1377171 51.6618537,11.1874732 51.6197073,12.2430829 C51.579122,13.3006439 52.2042927,15.3829854 53.0589268,16.1381073 C53.915122,16.8916683 53.1701463,17.2569366 53.1701463,17.2569366 C53.1701463,17.2569366 50.8130732,19.0766439 49.371122,20.331278 L49.3676098,19.5941073 C49.3285854,19.3451317 49.2470244,19.1429854 48.948878,18.9861073 C48.537561,18.7699122 47.1685854,19.2026927 47.7164878,18.6411317 C48.2643902,18.0791805 48.6296585,18.1217171 48.3096585,17.5156683 C47.9908293,16.9107902 47.7621463,16.8663024 47.7621463,16.348839 C47.7621463,15.8282537 47.2599024,15.6561561 46.8033171,15.5699122 C46.3467317,15.4828878 46.1640976,15.3525463 45.6165854,15.1367415 C45.0690732,14.9205463 44.6120976,15.0083512 44.1098537,15.0926439 C43.6076098,15.1804488 43.288,15.4828878 42.649561,15.3525463 C42.0099512,15.2237659 41.4156098,14.6606439 40.6858537,15.4828878 C40.0821463,16.1619122 39.7278049,16.4834732 39.3399024,16.6243512 C39.2567805,14.9228878 39.1334634,11.9258146 39.7578537,10.9174244 C40.5555122,9.62844878 42.0563902,9.0064 42.4314146,7.31859512 C42.806439,5.62922927 43.6509268,4.96230244 42.3377561,5.00757073 C41.0238049,5.05166829 40.0396098,5.31859512 39.7578537,6.20679024 C39.4772683,7.0961561 39.6645854,8.42883902 39.1014634,9.18435122 C38.5383415,9.93947317 37.4600976,12.0729366 37.1319024,12.8284488 C36.8790244,13.4091317 36.6,15.1991805 36.5906341,16.6024976 C36.5863415,16.6040585 36.582439,16.604839 36.5777561,16.6071805 C36.4833171,16.6567415 36.4017561,16.7105951 36.3244878,16.7671805 C36.0587317,16.209522 35.6236098,15.6073756 34.9746341,15.5835707 C33.755122,15.5383024 33.3800976,16.1158634 33.099122,14.9611317 C32.8169756,13.8064 32.0657561,12.0721561 30.5660488,12.1170341 C29.065561,12.161522 28.0805854,12.4729366 28.4552195,13.4945951 C28.8302439,14.5166439 29.4870244,14.7386927 29.1592195,15.8938146 C28.8302439,17.0493268 27.9861463,18.6040585 29.2520976,18.6040585 C30.2027317,18.6040585 30.8614634,18.0803512 31.2513171,18.0233756 C31.3278049,18.2360585 31.4101463,18.481522 31.4956098,18.7589854 C31.3937561,19.0134244 31.3110244,19.2491317 31.6868293,19.4130341 C31.7988293,19.8184976 31.9100488,20.2762537 32.0154146,20.7784976 C31.9194146,21.259278 31.9666341,21.7529366 32.2499512,22.0549854 C32.3276098,22.5494244 32.3955122,23.0789854 32.4497561,23.6397659 C31.8109268,24.315278 31.3133659,24.9373268 31.8796098,25.5363512 C32.1414634,25.8145951 32.3779512,25.9890341 32.580878,26.081522 C32.6023415,27.8504976 32.472,29.8430829 32.0868293,32.0327415 C30.4665366,41.249522 30.1570732,42.7129366 30.1570732,42.7129366 C30.1570732,42.7129366 31.8554146,30.3496195 31.2376585,27.2042537 C30.6202927,24.0584976 28.5356098,22.3757659 27.7637073,19.4504976 C26.9910244,16.524839 27.1463415,13.3053268 26.6823415,13.8169366 C26.2195122,14.3289366 27.0690732,19.7435707 27.7637073,21.2787902 C27.7637073,21.2787902 27.8893659,23.487961 28.0454634,26.1018146 C27.6294634,25.0563512 27.0561951,24.1275707 26.2499512,23.4824976 C25.673561,20.4581073 25.1182439,16.5357659 25.2161951,13.3786927 C25.3703415,8.40386341 27.3000976,4.08893659 26.6058537,2.18727805 C25.9108293,0.284839024 24.7521951,-0.300526829 24.7521951,0.138497561 C24.7521951,0.138497561 25.6021463,1.5281561 24.984,3.94181463 C24.3666341,6.3566439 22.8993171,9.35566829 22.8993171,13.8169366 C22.8993171,15.5066927 23.0983415,18.9041561 23.3500488,22.5525463 C22.8977561,22.561522 22.4099512,22.6200585 21.8819512,22.7414244 C21.2552195,20.129522 20.676878,17.7107902 20.2749268,16.0850341 C19.1166829,11.4036683 17.108878,10.5256195 17.108878,10.5256195 C17.108878,10.5256195 18.8076098,12.207961 18.8076098,14.1096195 C18.8076098,15.7544976 19.9603902,20.7824 20.422439,23.1574244 C19.8339512,23.2085463 17.001561,23.4629854 16.0747317,23.6385951 C15.9342439,23.6659122 15.7996098,23.6936195 15.6669268,23.7217171 C15.4963902,23.409522 15.3141463,23.0196683 15.145561,22.5287415 C14.5863415,20.9037659 13.4694634,20.8651317 14.1082927,19.3525463 C14.7467317,17.8411317 14.3873171,15.9496195 13.5092683,15.3068878 C12.6312195,14.6629854 11.9123902,14.4737171 11.9123902,14.4737171 C11.9123902,14.4737171 13.1896585,17.612839 13.1502439,19.4661073 C13.1221463,20.7207415 12.8599024,22.1989854 12.939122,23.2819122 C10.888,21.6440585 4.38185366,16.3230829 0.315512195,17.0083512 C0.315512195,17.0083512 -0.358439024,17.0571317 0.263609756,17.4501073 C0.885658537,17.8434732 9.28370732,23.1476683 10.632,24.767961 C10.632,24.767961 11.5123902,25.0629854 10.9945366,25.2101073 C10.4762927,25.3572293 7.62517073,26.4393756 7.10614634,26.6844488 C6.58829268,26.929522 6.0177561,26.8807415 5.86282927,26.5861073 C5.70634146,26.2914732 3.99629268,25.947278 3.47804878,26.241522 C2.95902439,26.5373268 2.69990244,26.4382049 2.54497561,26.0456195 C2.38926829,25.6522537 1.97404878,26.193522 2.0782439,26.6844488 C2.18126829,27.1753756 2.54497561,27.3221073 1.8702439,27.2733268 C1.19668293,27.2241561 1.04058537,27.5683512 0.937560976,27.9613268 C0.833756098,28.3543024 0.885658537,28.5993756 0.522731707,28.795278 C0.160195122,28.9931317 -0.150829268,29.4836683 0.160195122,29.729522 C0.470829268,29.9749854 0.937560976,30.4171317 0.470829268,30.8104976 C0.00448780488,31.2023024 0.522731707,31.791961 1.04058537,31.791961 C1.56,31.791961 1.45580488,32.1361561 1.56,32.6266927 C1.66302439,33.1184 1.92214634,33.5605463 2.33736585,34.1490341 C2.75219512,34.7390829 2.54419512,34.9353756 3.01131707,35.377522 C3.47804878,35.8196683 3.3742439,36.1146927 4.09931707,35.8196683 C4.82556098,35.5250341 5.49912195,35.2795707 5.81014634,35.6725463 C6.12195122,36.065522 6.48409756,36.8506927 7.46946341,36.2618146 C8.45443902,35.6725463 9.17990244,35.377522 9.75043902,35.2304 C10.3209756,35.083278 10.1644878,34.4936195 10.1644878,33.7564488 C10.1644878,33.019278 8.97268293,33.3642537 10.5274146,32.3316683 C12.0825366,31.3014244 12.550439,31.2030829 12.8606829,30.859278 C12.8606829,30.859278 13.3270244,31.3014244 12.8087805,32.8729366 C12.2905366,34.4444488 10.0618537,37.8333268 10.2171707,39.3064976 C10.3724878,40.7800585 11.1502439,41.7623024 11.4093659,42.6473756 C11.6684878,43.5304976 11.5646829,43.579278 11.9276098,42.8440585 C12.2905366,42.107278 13.2232195,40.1907902 13.4300488,39.404839 C13.6380488,38.619278 13.1713171,37.3911805 13.8452683,36.1146927 C14.5196098,34.8374244 14.934439,33.6104976 15.0382439,32.9209366 C15.1416585,32.2333268 15.0382439,30.2700098 15.9709268,30.4651317 C16.904,30.6618146 17.3703415,31.1047415 17.6813659,32.4307902 C17.9931707,33.7564488 18.3041951,34.8374244 18.2003902,35.868839 C18.0965854,36.9002537 17.5268293,37.4891317 17.112,38.0787902 C16.6971707,38.6684488 15.5564878,39.3560585 16.6971707,38.6684488 C17.8366829,37.980839 19.3399024,35.8196683 19.4956098,35.1812293 C19.6517073,34.5427902 20.2222439,32.2333268 19.0296585,30.3187902 C17.8366829,28.4026927 17.6294634,28.0097171 18.406439,27.6171317 C19.1806829,27.2268878 20.4130732,26.0604488 20.8856585,25.4184976 C21.6950244,28.6481561 23.7867317,35.9051317 23.9810732,38.5427902 C24.2117073,41.6877659 23.5939512,45.419278 24.0579512,48.4186927 C24.5207805,51.4173268 24.7521951,55.6600585 24.7521951,58.1474732 C24.7521951,60.6337171 24.1348293,62.5373268 24.1348293,62.5373268 C24.1348293,62.5373268 24.6753171,63.0489366 24.907122,62.6824976 C24.9633171,62.5939122 25.1209756,62.5267902 25.3246829,62.4756683 L24.873561,63.6897171 C24.873561,63.6897171 25.2614634,63.195278 25.8858537,62.3820098 C25.9603902,62.3734244 26.0333659,62.3667902 26.1075122,62.3597659 C26.0961951,63.1016195 26.2042927,63.5937171 26.4809756,63.6604488 C26.8275122,63.7416195 27.3461463,63.6604488 27.3461463,63.6604488 C27.3461463,63.6604488 27.5861463,63.1347902 27.9194146,62.2774244 C27.9178537,63.0871805 27.9178537,63.633522 27.9178537,63.633522 L29.0760976,63.5609366 C29.0760976,63.5609366 29.385561,63.707278 29.7715122,63.707278 C30.1570732,63.707278 29.9252683,64.1463024 31.547122,61.8060098 C33.1689756,59.4637659 37.337561,51.343961 38.9586341,45.052839 C39.1861463,44.1716683 39.476878,43.2378146 39.8066341,42.2801561 C44.0961951,36.6481561 49.7285854,30.2122537 52.6675122,28.7234732 C57.1463415,26.4565463 53.5174634,27.0407415 53.5174634,27.0407415 C53.5174634,27.0407415 48.9262439,28.412839 42.3475122,35.9531317 C43.9939512,32.2290341 45.6005854,29.0110829 45.9069268,27.9367415 C46.1129756,27.2155707 42.5578537,30.1459122 40.8009756,34.6130341 C39.9689756,36.7289366 38.6120976,39.5917659 37.4132683,42.0194732 C37.4124878,42.0202537 37.4113171,42.0229854 37.4109268,42.0229854 C37.8195122,39.3997659 38.324878,36.7757659 39.044878,35.051278 C40.1492683,32.4034732 41.1190244,29.455961 42.4306341,27.0536195 C42.681561,27.1277659 42.9239024,27.1301073 43.1053659,27.0317659 C43.4253659,26.8588878 43.6989268,26.7285463 44.1098537,27.1180098 C44.5203902,27.5074732 44.4755122,28.1123512 45.16,27.4641561 C45.8444878,26.8147902 45.8444878,26.8147902 46.5297561,26.2961561 C47.2142439,25.7771317 47.3972683,25.9074732 47.4429268,24.9982049 C47.4885854,24.0904976 46.5289756,23.4844488 47.2599024,23.6144 C47.9908293,23.7443512 48.4922927,24.479961 48.537561,23.5710829 C48.5715122,22.9041561 48.409561,22.6805463 48.5918049,22.4545951 C50.1555122,22.4436683 52.0997073,22.4264976 52.8360976,22.2270829 C54.2901463,21.8329366 55.1884878,21.009522 55.9588293,21.2366439 C56.7291707,21.4637659 57.1752195,22.5740098 57.4542439,23.2678634 C57.7340488,23.9628878 57.8854634,26.0264976 58.9129756,26.4737171 C59.9428293,26.9217171 60.3221463,27.3388878 60.5441951,27.8922537 C60.7674146,28.4491317 61.0093659,28.8370341 61.494439,29.0930341 C61.9787317,29.3478634 62.3681951,29.681522 62.3221463,28.9357659 C62.276878,28.1939122 62.6760976,27.9207415 62.6593171,27.2471805 C62.6440976,26.572839 62.1738537,25.5109854 61.7886829,24.9767415 C61.4046829,24.4436683 59.8604878,23.8711805 58.8985366,22.9576195 C57.9365854,22.0436683 57.1494634,20.8218146 57.3461463,20.4670829 C57.3461463,20.4670829 62.7490732,18.9275707 64.724878,17.9336195 C66.6995122,16.9416195 66.7787317,15.8692293 67.2548293,16.2099122 C67.7293659,16.5490341 68.4883902,19.3822049 69.2692683,20.1630829 C70.0509268,20.9466927 70.1609756,21.7463024 71.4039024,21.9933268 C72.6476098,22.2384 72.731122,23.2881561 72.980878,23.5921561 C73.2310244,23.8981073 73.5334634,23.7025951 73.5596098,23.1324488 C73.5845854,22.5626927 73.5084878,21.9515707 73.5084878,21.9515707 C73.5084878,21.9515707 74.1395122,22.1513756 74.3756098,22.4202537 C74.6120976,22.6906927 75.2357073,22.9740098 74.8954146,22.3433756 C74.5570732,21.7127415 73.4764878,20.9228878 73.6072195,20.1927415 C73.737561,19.4625951 73.9986341,19.1624976 73.3020488,18.9080585 C72.6058537,18.6524488 72.6386341,18.8401561 71.7067317,18.3156683 C70.8056585,17.8075707 68.5683902,16.8362537 68.1867317,15.8122537 C68.1738537,15.7771317 68.1621463,15.7416195 68.1547317,15.7057171 C67.8963902,14.6434732 70.809561,14.2942049 72.44,13.391961 C74.0708293,12.4901073 76.0731707,11.2471805 76.9430244,11.1944976 C77.8124878,11.1429854 77.7996098,11.4282537 78.7783415,11.855961 C79.7559024,12.2840585 80.3740488,12.4483512 79.8971707,11.7904" id="Fill-1"></path>
            </g>
        </g>
    </g>
</svg>