<?xml version="1.0" encoding="UTF-8"?>
<svg width="320px" height="97px" viewBox="0 0 320 97" version="1.1" xmlns="http://www.w3.org/2000/svg" xmlns:xlink="http://www.w3.org/1999/xlink">
    <!-- Generator: Sketch 52.2 (67145) - http://www.bohemiancoding.com/sketch -->
    <title>infograph/legend_map-chondrichthyans-richness</title>
    <desc>Created with Sketch.</desc>
    <g id="infograph/legend_map-chondrichthyans-richness" stroke="none" stroke-width="1" fill="none" fill-rule="evenodd">
        <path d="M0,3.99859472 C0,1.79023183 1.79962814,0 4.00250278,0 L315.997497,0 C318.208018,0 320,1.78741251 320,3.99859472 L320,93.0014053 C320,95.2097682 318.200372,97 315.997497,97 L4.00250278,97 C1.79198153,97 0,95.2125875 0,93.0014053 L0,3.99859472 Z" id="Rectangle-2" fill-opacity="0.5" fill="#FFFFFF"></path>
        <rect id="Rectangle-6" fill="#FFFFFF" x="10" y="58" width="300" height="10"></rect>
        <path d="M27.538,52.156 L26.134,51.7 L28.942,45.112 L25.534,45.112 L25.534,43.924 L30.526,43.924 L30.526,45.004 L27.538,52.156 Z M39.73,47.632 L39.73,48.856 L34.114,48.856 L34.114,47.632 L39.73,47.632 Z M45.79,52 L45.79,45.472 L43.99,46.564 L43.318,45.532 L45.946,43.924 L47.302,43.924 L47.302,52 L45.79,52 Z M50.686,45.064 L50.686,47.068 C51.086002,46.867999 51.4939979,46.768 51.91,46.768 C52.3580022,46.768 52.7579982,46.871999 53.11,47.08 C53.4620018,47.288001 53.735999,47.587998 53.932,47.98 C54.128001,48.372002 54.226,48.8359973 54.226,49.372 C54.226,49.9240028 54.1020012,50.4119979 53.854,50.836 C53.6059988,51.2600021 53.2540023,51.5899988 52.798,51.826 C52.3419977,52.0620012 51.814003,52.18 51.214,52.18 C50.6779973,52.18 50.2040021,52.082001 49.792,51.886 C49.3799979,51.689999 49.0060017,51.4080018 48.67,51.04 L49.558,50.212 C50.0060022,50.7320026 50.5459968,50.992 51.178,50.992 C51.6340023,50.992 51.9919987,50.8520014 52.252,50.572 C52.5120013,50.2919986 52.642,49.8920026 52.642,49.372 C52.642,48.371995 52.2100043,47.872 51.346,47.872 C51.1619991,47.872 50.9900008,47.8939998 50.83,47.938 C50.6699992,47.9820002 50.494001,48.0519995 50.302,48.148 L49.21,48.148 L49.21,43.924 L53.89,43.924 L53.71,45.064 L50.686,45.064 Z" id="7-–-15" fill="#212121"></path>
        <rect id="Rectangle-2" fill="#E8E8E8" opacity="0.899999976" transform="translate(159.500000, 32.500000) scale(1, -1) translate(-159.500000, -32.500000) " x="9" y="32" width="301" height="1"></rect>
        <path d="M206.926,50.152 L206.926,52 L205.426,52 L205.426,50.152 L201.994,50.152 L201.994,49.096 L204.346,43.768 L205.654,44.26 L203.59,48.976 L205.438,48.976 L205.594,46.948 L206.926,46.948 L206.926,48.976 L207.898,48.976 L207.898,50.152 L206.926,50.152 Z M210.058,52.156 L208.654,51.7 L211.462,45.112 L208.054,45.112 L208.054,43.924 L213.046,43.924 L213.046,45.004 L210.058,52.156 Z M222.25,47.632 L222.25,48.856 L216.634,48.856 L216.634,47.632 L222.25,47.632 Z M227.806,45.064 L227.806,47.068 C228.206002,46.867999 228.613998,46.768 229.03,46.768 C229.478002,46.768 229.877998,46.871999 230.23,47.08 C230.582002,47.288001 230.855999,47.587998 231.052,47.98 C231.248001,48.372002 231.346,48.8359973 231.346,49.372 C231.346,49.9240028 231.222001,50.4119979 230.974,50.836 C230.725999,51.2600021 230.374002,51.5899988 229.918,51.826 C229.461998,52.0620012 228.934003,52.18 228.334,52.18 C227.797997,52.18 227.324002,52.082001 226.912,51.886 C226.499998,51.689999 226.126002,51.4080018 225.79,51.04 L226.678,50.212 C227.126002,50.7320026 227.665997,50.992 228.298,50.992 C228.754002,50.992 229.111999,50.8520014 229.372,50.572 C229.632001,50.2919986 229.762,49.8920026 229.762,49.372 C229.762,48.371995 229.330004,47.872 228.466,47.872 C228.281999,47.872 228.110001,47.8939998 227.95,47.938 C227.789999,47.9820002 227.614001,48.0519995 227.422,48.148 L226.33,48.148 L226.33,43.924 L231.01,43.924 L230.83,45.064 L227.806,45.064 Z M235.738,46.624 C236.162002,46.624 236.547998,46.725999 236.896,46.93 C237.244002,47.134001 237.517999,47.433998 237.718,47.83 C237.918001,48.226002 238.018,48.6999972 238.018,49.252 C238.018,49.8120028 237.902001,50.3139978 237.67,50.758 C237.437999,51.2020022 237.112002,51.5499987 236.692,51.802 C236.271998,52.0540013 235.794003,52.18 235.258,52.18 C234.265995,52.18 233.532002,51.8320035 233.056,51.136 C232.579998,50.4399965 232.342,49.4840061 232.342,48.268 C232.342,47.3719955 232.475999,46.5860034 232.744,45.91 C233.012001,45.2339966 233.395998,44.7100019 233.896,44.338 C234.396003,43.9659981 234.981997,43.78 235.654,43.78 C236.318003,43.78 236.905997,43.9519983 237.418,44.296 L236.842,45.244 C236.473998,45.0279989 236.086002,44.92 235.678,44.92 C235.165997,44.92 234.756002,45.1479977 234.448,45.604 C234.139998,46.0600023 233.966,46.6959959 233.926,47.512 C234.414002,46.919997 235.017996,46.624 235.738,46.624 Z M235.258,51.04 C235.658002,51.04 235.959999,50.8820016 236.164,50.566 C236.368001,50.2499984 236.47,49.8200027 236.47,49.276 C236.47,48.7239972 236.376001,48.3300012 236.188,48.094 C235.999999,47.8579988 235.726002,47.74 235.366,47.74 C235.093999,47.74 234.836001,47.8139993 234.592,47.962 C234.347999,48.1100007 234.130001,48.3159987 233.938,48.58 C233.954,49.4520044 234.063999,50.0799981 234.268,50.464 C234.472001,50.8480019 234.801998,51.04 235.258,51.04 Z" id="47-–-56" fill="#212121"></path>
        <path d="M143.566,43.78 C144.102003,43.78 144.563998,43.8719991 144.952,44.056 C145.340002,44.2400009 145.631999,44.4879984 145.828,44.8 C146.024001,45.1120016 146.122,45.4559981 146.122,45.832 C146.122,46.3200024 145.982001,46.7259984 145.702,47.05 C145.421999,47.3740016 145.038002,47.5999994 144.55,47.728 C145.086003,47.7760002 145.525998,47.9679983 145.87,48.304 C146.214002,48.6400017 146.386,49.103997 146.386,49.696 C146.386,50.1600023 146.268001,50.5799981 146.032,50.956 C145.795999,51.3320019 145.458002,51.6299989 145.018,51.85 C144.577998,52.0700011 144.058003,52.18 143.458,52.18 C142.353994,52.18 141.482003,51.7920039 140.842,51.016 L141.718,50.188 C141.958001,50.4600014 142.213999,50.6599994 142.486,50.788 C142.758001,50.9160006 143.053998,50.98 143.374,50.98 C143.806002,50.98 144.151999,50.8580012 144.412,50.614 C144.672001,50.3699988 144.802,50.0400021 144.802,49.624 C144.802,49.1599977 144.680001,48.828001 144.436,48.628 C144.191999,48.427999 143.830002,48.328 143.35,48.328 L142.714,48.328 L142.894,47.236 L143.326,47.236 C143.718002,47.236 144.031999,47.1280011 144.268,46.912 C144.504001,46.6959989 144.622,46.3960019 144.622,46.012 C144.622,45.6839984 144.514001,45.4260009 144.298,45.238 C144.081999,45.0499991 143.794002,44.956 143.434,44.956 C143.121998,44.956 142.838001,45.0139994 142.582,45.13 C142.325999,45.2460006 142.070001,45.4239988 141.814,45.664 L141.034,44.812 C141.762004,44.1239966 142.605995,43.78 143.566,43.78 Z M150.334,43.78 C151.278005,43.78 151.995998,44.1399964 152.488,44.86 C152.980002,45.5800036 153.226,46.6159932 153.226,47.968 C153.226,49.3280068 152.980002,50.3699964 152.488,51.094 C151.995998,51.8180036 151.278005,52.18 150.334,52.18 C149.389995,52.18 148.672002,51.8180036 148.18,51.094 C147.687998,50.3699964 147.442,49.3280068 147.442,47.968 C147.442,46.6159932 147.687998,45.5800036 148.18,44.86 C148.672002,44.1399964 149.389995,43.78 150.334,43.78 Z M150.334,44.944 C149.877998,44.944 149.546001,45.1739977 149.338,45.634 C149.129999,46.0940023 149.026,46.8719945 149.026,47.968 C149.026,49.0720055 149.129999,49.8559977 149.338,50.32 C149.546001,50.7840023 149.877998,51.016 150.334,51.016 C150.790002,51.016 151.121999,50.7860023 151.33,50.326 C151.538001,49.8659977 151.642,49.0800056 151.642,47.968 C151.642,46.8639945 151.538001,46.0840023 151.33,45.628 C151.121999,45.1719977 150.790002,44.944 150.334,44.944 Z M162.706,47.632 L162.706,48.856 L157.09,48.856 L157.09,47.632 L162.706,47.632 Z M171.346,50.152 L171.346,52 L169.846,52 L169.846,50.152 L166.414,50.152 L166.414,49.096 L168.766,43.768 L170.074,44.26 L168.01,48.976 L169.858,48.976 L170.014,46.948 L171.346,46.948 L171.346,48.976 L172.318,48.976 L172.318,50.152 L171.346,50.152 Z M176.554,46.624 C176.978002,46.624 177.363998,46.725999 177.712,46.93 C178.060002,47.134001 178.333999,47.433998 178.534,47.83 C178.734001,48.226002 178.834,48.6999972 178.834,49.252 C178.834,49.8120028 178.718001,50.3139978 178.486,50.758 C178.253999,51.2020022 177.928002,51.5499987 177.508,51.802 C177.087998,52.0540013 176.610003,52.18 176.074,52.18 C175.081995,52.18 174.348002,51.8320035 173.872,51.136 C173.395998,50.4399965 173.158,49.4840061 173.158,48.268 C173.158,47.3719955 173.291999,46.5860034 173.56,45.91 C173.828001,45.2339966 174.211997,44.7100019 174.712,44.338 C175.212003,43.9659981 175.797997,43.78 176.47,43.78 C177.134003,43.78 177.721997,43.9519983 178.234,44.296 L177.658,45.244 C177.289998,45.0279989 176.902002,44.92 176.494,44.92 C175.981997,44.92 175.572002,45.1479977 175.264,45.604 C174.955998,46.0600023 174.782,46.6959959 174.742,47.512 C175.230002,46.919997 175.833996,46.624 176.554,46.624 Z M176.074,51.04 C176.474002,51.04 176.775999,50.8820016 176.98,50.566 C177.184001,50.2499984 177.286,49.8200027 177.286,49.276 C177.286,48.7239972 177.192001,48.3300012 177.004,48.094 C176.815999,47.8579988 176.542002,47.74 176.182,47.74 C175.909999,47.74 175.652001,47.8139993 175.408,47.962 C175.163999,48.1100007 174.946001,48.3159987 174.754,48.58 C174.77,49.4520044 174.879999,50.0799981 175.084,50.464 C175.288001,50.8480019 175.617998,51.04 176.074,51.04 Z" id="30-–-46" fill="#212121"></path>
        <path d="M84.322,52 L84.322,45.472 L82.522,46.564 L81.85,45.532 L84.478,43.924 L85.834,43.924 L85.834,52 L84.322,52 Z M90.91,46.624 C91.3340021,46.624 91.7199983,46.725999 92.068,46.93 C92.4160017,47.134001 92.689999,47.433998 92.89,47.83 C93.090001,48.226002 93.19,48.6999972 93.19,49.252 C93.19,49.8120028 93.0740012,50.3139978 92.842,50.758 C92.6099988,51.2020022 92.2840021,51.5499987 91.864,51.802 C91.4439979,52.0540013 90.9660027,52.18 90.43,52.18 C89.437995,52.18 88.7040024,51.8320035 88.228,51.136 C87.7519976,50.4399965 87.514,49.4840061 87.514,48.268 C87.514,47.3719955 87.6479987,46.5860034 87.916,45.91 C88.1840013,45.2339966 88.5679975,44.7100019 89.068,44.338 C89.5680025,43.9659981 90.1539966,43.78 90.826,43.78 C91.4900033,43.78 92.0779974,43.9519983 92.59,44.296 L92.014,45.244 C91.6459982,45.0279989 91.258002,44.92 90.85,44.92 C90.3379974,44.92 89.9280015,45.1479977 89.62,45.604 C89.3119985,46.0600023 89.1380002,46.6959959 89.098,47.512 C89.5860024,46.919997 90.1899964,46.624 90.91,46.624 Z M90.43,51.04 C90.830002,51.04 91.131999,50.8820016 91.336,50.566 C91.540001,50.2499984 91.642,49.8200027 91.642,49.276 C91.642,48.7239972 91.5480009,48.3300012 91.36,48.094 C91.1719991,47.8579988 90.8980018,47.74 90.538,47.74 C90.2659986,47.74 90.0080012,47.8139993 89.764,47.962 C89.5199988,48.1100007 89.302001,48.3159987 89.11,48.58 C89.1260001,49.4520044 89.235999,50.0799981 89.44,50.464 C89.644001,50.8480019 89.9739977,51.04 90.43,51.04 Z M102.502,47.632 L102.502,48.856 L96.886,48.856 L96.886,47.632 L102.502,47.632 Z M108.61,43.78 C109.154003,43.78 109.623998,43.879999 110.02,44.08 C110.416002,44.280001 110.717999,44.5519983 110.926,44.896 C111.134001,45.2400017 111.238,45.6239979 111.238,46.048 C111.238,46.5040023 111.140001,46.9419979 110.944,47.362 C110.747999,47.7820021 110.422002,48.2479974 109.966,48.76 C109.509998,49.2720026 108.842004,49.9479958 107.962,50.788 L111.418,50.788 L111.25,52 L106.222,52 L106.222,50.872 C107.246005,49.8319948 107.979998,49.0620025 108.424,48.562 C108.868002,48.0619975 109.183999,47.6340018 109.372,47.278 C109.560001,46.9219982 109.654,46.5520019 109.654,46.168 C109.654,45.7999982 109.548001,45.512001 109.336,45.304 C109.123999,45.095999 108.842002,44.992 108.49,44.992 C108.177998,44.992 107.906001,45.0579993 107.674,45.19 C107.441999,45.3220007 107.198001,45.5399985 106.942,45.844 L105.994,45.1 C106.674003,44.2199956 107.545995,43.78 108.61,43.78 Z M115.126,43.78 C116.038005,43.78 116.737998,44.0619972 117.226,44.626 C117.714002,45.1900028 117.958,45.9519952 117.958,46.912 C117.958,48.0080055 117.794002,48.9059965 117.466,49.606 C117.137998,50.3060035 116.634003,50.8639979 115.954,51.28 C115.273997,51.6960021 114.374006,52.0359987 113.254,52.3 L112.93,51.208 C113.986005,50.9359986 114.789997,50.5740023 115.342,50.122 C115.894003,49.6699977 116.218,49.0600038 116.314,48.292 C115.881998,48.8600028 115.306004,49.144 114.586,49.144 C114.169998,49.144 113.788002,49.0380011 113.44,48.826 C113.091998,48.6139989 112.818001,48.308002 112.618,47.908 C112.417999,47.507998 112.318,47.0440026 112.318,46.516 C112.318,45.9639972 112.441999,45.4820021 112.69,45.07 C112.938001,44.6579979 113.275998,44.3400011 113.704,44.116 C114.132002,43.8919989 114.605997,43.78 115.126,43.78 Z M115.006,48.028 C115.558003,48.028 116.017998,47.7480028 116.386,47.188 C116.394,46.3719959 116.300001,45.7900017 116.104,45.442 C115.907999,45.0939983 115.582002,44.92 115.126,44.92 C114.725998,44.92 114.414001,45.0559986 114.19,45.328 C113.965999,45.6000014 113.854,45.9879975 113.854,46.492 C113.854,47.0200026 113.959999,47.4079988 114.172,47.656 C114.384001,47.9040012 114.661998,48.028 115.006,48.028 Z" id="16-–-29" fill="#212121"></path>
        <path d="M14.092,75.588 C14.5880025,75.588 15.0059983,75.6519994 15.346,75.78 C15.6860017,75.9080006 16.0319982,76.1159986 16.384,76.404 L15.76,77.136 C15.2559975,76.727998 14.7240028,76.524 14.164,76.524 C13.4759966,76.524 12.9220021,76.7879974 12.502,77.316 C12.0819979,77.8440026 11.872,78.6919942 11.872,79.86 C11.872,80.9960057 12.0799979,81.8339973 12.496,82.374 C12.9120021,82.9140027 13.4639966,83.184 14.152,83.184 C14.5040018,83.184 14.8079987,83.1240006 15.064,83.004 C15.3200013,82.8839994 15.5999985,82.7120011 15.904,82.488 L16.48,83.22 C16.2319988,83.4840013 15.906002,83.7039991 15.502,83.88 C15.097998,84.0560009 14.6360026,84.144 14.116,84.144 C13.4439966,84.144 12.8460026,83.9780017 12.322,83.646 C11.7979974,83.3139983 11.3900015,82.8260032 11.098,82.182 C10.8059985,81.5379968 10.66,80.7640045 10.66,79.86 C10.66,78.9559955 10.8119985,78.1820032 11.116,77.538 C11.4200015,76.8939968 11.8319974,76.4080016 12.352,76.08 C12.8720026,75.7519984 13.4519968,75.588 14.092,75.588 Z M20.836,77.532 C21.4120029,77.532 21.8619984,77.7039983 22.186,78.048 C22.5100016,78.3920017 22.672,78.863997 22.672,79.464 L22.672,84 L21.568,84 L21.568,79.62 C21.568,79.1719978 21.4820009,78.8560009 21.31,78.672 C21.1379991,78.4879991 20.8880016,78.396 20.56,78.396 C20.2319984,78.396 19.9400013,78.491999 19.684,78.684 C19.4279987,78.876001 19.1880011,79.1479982 18.964,79.5 L18.964,84 L17.86,84 L17.86,75.144 L18.964,75.024 L18.964,78.552 C19.4600025,77.8719966 20.0839962,77.532 20.836,77.532 Z M27.268,77.532 C28.1560044,77.532 28.8459975,77.827997 29.338,78.42 C29.8300025,79.012003 30.076,79.8159949 30.076,80.832 C30.076,81.4880033 29.9640011,82.0659975 29.74,82.566 C29.5159989,83.0660025 29.1920021,83.4539986 28.768,83.73 C28.3439979,84.0060014 27.8400029,84.144 27.256,84.144 C26.3679956,84.144 25.6760025,83.848003 25.18,83.256 C24.6839975,82.663997 24.436,81.8600051 24.436,80.844 C24.436,80.1879967 24.5479989,79.6100025 24.772,79.11 C24.9960011,78.6099975 25.3199979,78.2220014 25.744,77.946 C26.1680021,77.6699986 26.675997,77.532 27.268,77.532 Z M27.268,78.42 C26.1719945,78.42 25.624,79.2279919 25.624,80.844 C25.624,82.452008 26.1679946,83.256 27.256,83.256 C28.3440054,83.256 28.888,82.4480081 28.888,80.832 C28.888,79.223992 28.3480054,78.42 27.268,78.42 Z M34.876,77.532 C35.4520029,77.532 35.9019984,77.7039983 36.226,78.048 C36.5500016,78.3920017 36.712,78.863997 36.712,79.464 L36.712,84 L35.608,84 L35.608,79.62 C35.608,79.1719978 35.5240008,78.8560009 35.356,78.672 C35.1879992,78.4879991 34.9400016,78.396 34.612,78.396 C34.2759983,78.396 33.9800013,78.491999 33.724,78.684 C33.4679987,78.876001 33.2280011,79.1519982 33.004,79.512 L33.004,84 L31.9,84 L31.9,77.676 L32.848,77.676 L32.944,78.612 C33.1680011,78.2759983 33.4459983,78.012001 33.778,77.82 C34.1100017,77.627999 34.475998,77.532 34.876,77.532 Z M43.828,84 L42.856,84 L42.748,83.124 C42.539999,83.4440016 42.2800016,83.6939991 41.968,83.874 C41.6559984,84.0540009 41.3080019,84.144 40.924,84.144 C40.1719962,84.144 39.5860021,83.848003 39.166,83.256 C38.7459979,82.663997 38.536,81.868005 38.536,80.868 C38.536,80.2199968 38.635999,79.6440025 38.836,79.14 C39.036001,78.6359975 39.3239981,78.2420014 39.7,77.958 C40.0760019,77.6739986 40.5159975,77.532 41.02,77.532 C41.6680032,77.532 42.2359976,77.7919974 42.724,78.312 L42.724,75 L43.828,75.132 L43.828,84 Z M41.164,83.268 C41.5000017,83.268 41.7879988,83.1900008 42.028,83.034 C42.2680012,82.8779992 42.4999989,82.6440016 42.724,82.332 L42.724,79.236 C42.515999,78.9639986 42.2940012,78.7580007 42.058,78.618 C41.8219988,78.4779993 41.5560015,78.408 41.26,78.408 C40.7719976,78.408 40.3940013,78.611998 40.126,79.02 C39.8579987,79.428002 39.724,80.035996 39.724,80.844 C39.724,81.6600041 39.8479988,82.267998 40.096,82.668 C40.3440012,83.068002 40.6999977,83.268 41.164,83.268 Z M48.856,77.532 C49.0800011,77.532 49.287999,77.5559998 49.48,77.604 L49.276,78.684 C49.083999,78.6359998 48.9000009,78.612 48.724,78.612 C48.331998,78.612 48.0160012,78.7559986 47.776,79.044 C47.5359988,79.3320014 47.3480007,79.779997 47.212,80.388 L47.212,84 L46.108,84 L46.108,77.676 L47.056,77.676 L47.164,78.96 C47.3320008,78.4879976 47.5599986,78.1320012 47.848,77.892 C48.1360014,77.6519988 48.4719981,77.532 48.856,77.532 Z M50.74,84 L50.74,77.676 L51.844,77.676 L51.844,84 L50.74,84 Z M51.28,74.64 C51.5120012,74.64 51.6999993,74.7119993 51.844,74.856 C51.9880007,75.0000007 52.06,75.1799989 52.06,75.396 C52.06,75.6120011 51.9880007,75.7899993 51.844,75.93 C51.6999993,76.0700007 51.5120012,76.14 51.28,76.14 C51.0559989,76.14 50.8720007,76.0700007 50.728,75.93 C50.5839993,75.7899993 50.512,75.6120011 50.512,75.396 C50.512,75.1799989 50.5839993,75.0000007 50.728,74.856 C50.8720007,74.7119993 51.0559989,74.64 51.28,74.64 Z M56.428,77.532 C56.8040019,77.532 57.1479984,77.5859995 57.46,77.694 C57.7720016,77.8020005 58.0719986,77.9759988 58.36,78.216 L57.82,78.936 C57.6039989,78.7679992 57.392001,78.6440004 57.184,78.564 C56.975999,78.4839996 56.7400013,78.444 56.476,78.444 C55.9639974,78.444 55.5660014,78.647998 55.282,79.056 C54.9979986,79.464002 54.856,80.067996 54.856,80.868 C54.856,81.668004 54.9959986,82.2579981 55.276,82.638 C55.5560014,83.0180019 55.9559974,83.208 56.476,83.208 C56.7320013,83.208 56.961999,83.1680004 57.166,83.088 C57.370001,83.0079996 57.5919988,82.8760009 57.832,82.692 L58.36,83.448 C57.7839971,83.9120023 57.1400036,84.144 56.428,84.144 C55.5719957,84.144 54.8980025,83.8560029 54.406,83.28 C53.9139975,82.7039971 53.668,81.9080051 53.668,80.892 C53.668,80.2199966 53.7799989,79.6320025 54.004,79.128 C54.2280011,78.6239975 54.5459979,78.2320014 54.958,77.952 C55.3700021,77.6719986 55.8599972,77.532 56.428,77.532 Z M62.836,77.532 C63.4120029,77.532 63.8619984,77.7039983 64.186,78.048 C64.5100016,78.3920017 64.672,78.863997 64.672,79.464 L64.672,84 L63.568,84 L63.568,79.62 C63.568,79.1719978 63.4820009,78.8560009 63.31,78.672 C63.1379991,78.4879991 62.8880016,78.396 62.56,78.396 C62.2319984,78.396 61.9400013,78.491999 61.684,78.684 C61.4279987,78.876001 61.1880011,79.1479982 60.964,79.5 L60.964,84 L59.86,84 L59.86,75.144 L60.964,75.024 L60.964,78.552 C61.4600025,77.8719966 62.0839962,77.532 62.836,77.532 Z M70.084,83.712 C69.6679979,84.0000014 69.1960026,84.144 68.668,84.144 C68.1319973,84.144 67.7140015,83.9900015 67.414,83.682 C67.1139985,83.3739985 66.964,82.9280029 66.964,82.344 L66.964,78.528 L65.86,78.528 L65.86,77.676 L66.964,77.676 L66.964,76.248 L68.068,76.116 L68.068,77.676 L69.568,77.676 L69.448,78.528 L68.068,78.528 L68.068,82.296 C68.068,82.6240016 68.1259994,82.8619993 68.242,83.01 C68.3580006,83.1580007 68.5519986,83.232 68.824,83.232 C69.0880013,83.232 69.3679985,83.1400009 69.664,82.956 L70.084,83.712 Z M74.2,77.532 C74.7760029,77.532 75.2259984,77.7039983 75.55,78.048 C75.8740016,78.3920017 76.036,78.863997 76.036,79.464 L76.036,84 L74.932,84 L74.932,79.62 C74.932,79.1719978 74.8460009,78.8560009 74.674,78.672 C74.5019991,78.4879991 74.2520016,78.396 73.924,78.396 C73.5959984,78.396 73.3040013,78.491999 73.048,78.684 C72.7919987,78.876001 72.5520011,79.1479982 72.328,79.5 L72.328,84 L71.224,84 L71.224,75.144 L72.328,75.024 L72.328,78.552 C72.8240025,77.8719966 73.4479962,77.532 74.2,77.532 Z M80.668,84.036 C80.4199988,84.7720037 80.0740022,85.3539979 79.63,85.782 C79.1859978,86.2100021 78.5520041,86.4679996 77.728,86.556 L77.608,85.692 C78.0240021,85.6199996 78.3559988,85.5160007 78.604,85.38 C78.8520012,85.2439993 79.0499993,85.0700011 79.198,84.858 C79.3460007,84.6459989 79.4839994,84.3600018 79.612,84 L79.24,84 L77.116,77.676 L78.292,77.676 L79.984,83.196 L81.64,77.676 L82.78,77.676 L80.668,84.036 Z M88.3,82.524 C88.3,82.7800013 88.3439996,82.9699994 88.432,83.094 C88.5200004,83.2180006 88.6519991,83.3119997 88.828,83.376 L88.576,84.144 C88.2479984,84.1039998 87.984001,84.0120007 87.784,83.868 C87.583999,83.7239993 87.4360005,83.5000015 87.34,83.196 C86.9159979,83.8280032 86.2880042,84.144 85.456,84.144 C84.8319969,84.144 84.3400018,83.9680018 83.98,83.616 C83.6199982,83.2639982 83.44,82.8040028 83.44,82.236 C83.44,81.5639966 83.6819976,81.0480018 84.166,80.688 C84.6500024,80.3279982 85.3359956,80.148 86.224,80.148 L87.196,80.148 L87.196,79.68 C87.196,79.2319978 87.0880011,78.912001 86.872,78.72 C86.6559989,78.527999 86.3240022,78.432 85.876,78.432 C85.4119977,78.432 84.8440034,78.5439989 84.172,78.768 L83.896,77.964 C84.6800039,77.6759986 85.4079966,77.532 86.08,77.532 C86.8240037,77.532 87.3799982,77.7139982 87.748,78.078 C88.1160018,78.4420018 88.3,78.9599966 88.3,79.632 L88.3,82.524 Z M85.708,83.316 C86.3400032,83.316 86.8359982,82.9880033 87.196,82.332 L87.196,80.88 L86.368,80.88 C85.1999942,80.88 84.616,81.3119957 84.616,82.176 C84.616,82.5520019 84.7079991,82.835999 84.892,83.028 C85.0760009,83.220001 85.3479982,83.316 85.708,83.316 Z M93.544,77.532 C94.1200029,77.532 94.5699984,77.7039983 94.894,78.048 C95.2180016,78.3920017 95.38,78.863997 95.38,79.464 L95.38,84 L94.276,84 L94.276,79.62 C94.276,79.1719978 94.1920008,78.8560009 94.024,78.672 C93.8559992,78.4879991 93.6080016,78.396 93.28,78.396 C92.9439983,78.396 92.6480013,78.491999 92.392,78.684 C92.1359987,78.876001 91.8960011,79.1519982 91.672,79.512 L91.672,84 L90.568,84 L90.568,77.676 L91.516,77.676 L91.612,78.612 C91.8360011,78.2759983 92.1139983,78.012001 92.446,77.82 C92.7780017,77.627999 93.143998,77.532 93.544,77.532 Z M99.316,77.532 C99.7480022,77.532 100.135998,77.5919994 100.48,77.712 C100.824002,77.8320006 101.151998,78.0119988 101.464,78.252 L100.984,78.984 C100.703999,78.783999 100.434001,78.6380005 100.174,78.546 C99.9139987,78.4539995 99.6400014,78.408 99.352,78.408 C98.9919982,78.408 98.708001,78.4819993 98.5,78.63 C98.291999,78.7780007 98.188,78.9799987 98.188,79.236 C98.188,79.4920013 98.285999,79.6919993 98.482,79.836 C98.678001,79.9800007 99.0319974,80.1199993 99.544,80.256 C100.248004,80.4320009 100.773998,80.6719985 101.122,80.976 C101.470002,81.2800015 101.644,81.6959974 101.644,82.224 C101.644,82.8480031 101.402002,83.3239984 100.918,83.652 C100.433998,83.9800016 99.8440035,84.144 99.148,84.144 C98.1879952,84.144 97.3920032,83.8680028 96.76,83.316 L97.372,82.62 C97.8680025,83.0440021 98.4519966,83.256 99.124,83.256 C99.532002,83.256 99.8599988,83.1720008 100.108,83.004 C100.356001,82.8359992 100.48,82.6120014 100.48,82.332 C100.48,82.1079989 100.436,81.9260007 100.348,81.786 C100.26,81.6459993 100.110001,81.5260005 99.898,81.426 C99.6859989,81.3259995 99.3680021,81.2200006 98.944,81.108 C98.2719966,80.9319991 97.7860015,80.6940015 97.486,80.394 C97.1859985,80.0939985 97.036,79.7160023 97.036,79.26 C97.036,78.9319984 97.133999,78.6360013 97.33,78.372 C97.526001,78.1079987 97.7979983,77.9020007 98.146,77.754 C98.4940017,77.6059993 98.8839978,77.532 99.316,77.532 Z M109.132,77.532 C109.356001,77.532 109.563999,77.5559998 109.756,77.604 L109.552,78.684 C109.359999,78.6359998 109.176001,78.612 109,78.612 C108.607998,78.612 108.292001,78.7559986 108.052,79.044 C107.811999,79.3320014 107.624001,79.779997 107.488,80.388 L107.488,84 L106.384,84 L106.384,77.676 L107.332,77.676 L107.44,78.96 C107.608001,78.4879976 107.835999,78.1320012 108.124,77.892 C108.412001,77.6519988 108.747998,77.532 109.132,77.532 Z M111.016,84 L111.016,77.676 L112.12,77.676 L112.12,84 L111.016,84 Z M111.556,74.64 C111.788001,74.64 111.975999,74.7119993 112.12,74.856 C112.264001,75.0000007 112.336,75.1799989 112.336,75.396 C112.336,75.6120011 112.264001,75.7899993 112.12,75.93 C111.975999,76.0700007 111.788001,76.14 111.556,76.14 C111.331999,76.14 111.148001,76.0700007 111.004,75.93 C110.859999,75.7899993 110.788,75.6120011 110.788,75.396 C110.788,75.1799989 110.859999,75.0000007 111.004,74.856 C111.148001,74.7119993 111.331999,74.64 111.556,74.64 Z M116.704,77.532 C117.080002,77.532 117.423998,77.5859995 117.736,77.694 C118.048002,77.8020005 118.347999,77.9759988 118.636,78.216 L118.096,78.936 C117.879999,78.7679992 117.668001,78.6440004 117.46,78.564 C117.251999,78.4839996 117.016001,78.444 116.752,78.444 C116.239997,78.444 115.842001,78.647998 115.558,79.056 C115.273999,79.464002 115.132,80.067996 115.132,80.868 C115.132,81.668004 115.271999,82.2579981 115.552,82.638 C115.832001,83.0180019 116.231997,83.208 116.752,83.208 C117.008001,83.208 117.237999,83.1680004 117.442,83.088 C117.646001,83.0079996 117.867999,82.8760009 118.108,82.692 L118.636,83.448 C118.059997,83.9120023 117.416004,84.144 116.704,84.144 C115.847996,84.144 115.174002,83.8560029 114.682,83.28 C114.189998,82.7039971 113.944,81.9080051 113.944,80.892 C113.944,80.2199966 114.055999,79.6320025 114.28,79.128 C114.504001,78.6239975 114.821998,78.2320014 115.234,77.952 C115.646002,77.6719986 116.135997,77.532 116.704,77.532 Z M123.112,77.532 C123.688003,77.532 124.137998,77.7039983 124.462,78.048 C124.786002,78.3920017 124.948,78.863997 124.948,79.464 L124.948,84 L123.844,84 L123.844,79.62 C123.844,79.1719978 123.758001,78.8560009 123.586,78.672 C123.413999,78.4879991 123.164002,78.396 122.836,78.396 C122.507998,78.396 122.216001,78.491999 121.96,78.684 C121.703999,78.876001 121.464001,79.1479982 121.24,79.5 L121.24,84 L120.136,84 L120.136,75.144 L121.24,75.024 L121.24,78.552 C121.736002,77.8719966 122.359996,77.532 123.112,77.532 Z M130.144,77.532 C130.720003,77.532 131.169998,77.7039983 131.494,78.048 C131.818002,78.3920017 131.98,78.863997 131.98,79.464 L131.98,84 L130.876,84 L130.876,79.62 C130.876,79.1719978 130.792001,78.8560009 130.624,78.672 C130.455999,78.4879991 130.208002,78.396 129.88,78.396 C129.543998,78.396 129.248001,78.491999 128.992,78.684 C128.735999,78.876001 128.496001,79.1519982 128.272,79.512 L128.272,84 L127.168,84 L127.168,77.676 L128.116,77.676 L128.212,78.612 C128.436001,78.2759983 128.713998,78.012001 129.046,77.82 C129.378002,77.627999 129.743998,77.532 130.144,77.532 Z M138.976,80.652 C138.976,80.8360009 138.968,81.023999 138.952,81.216 L134.92,81.216 C134.968,81.9120035 135.143998,82.4239984 135.448,82.752 C135.752002,83.0800016 136.143998,83.244 136.624,83.244 C136.928002,83.244 137.207999,83.2000004 137.464,83.112 C137.720001,83.0239996 137.987999,82.884001 138.268,82.692 L138.748,83.352 C138.075997,83.8800026 137.340004,84.144 136.54,84.144 C135.659996,84.144 134.974002,83.8560029 134.482,83.28 C133.989998,82.7039971 133.744,81.912005 133.744,80.904 C133.744,80.2479967 133.849999,79.6660025 134.062,79.158 C134.274001,78.6499975 134.577998,78.2520014 134.974,77.964 C135.370002,77.6759986 135.835997,77.532 136.372,77.532 C137.212004,77.532 137.855998,77.8079972 138.304,78.36 C138.752002,78.9120028 138.976,79.6759951 138.976,80.652 Z M137.884,80.328 C137.884,79.7039969 137.760001,79.2280016 137.512,78.9 C137.263999,78.5719984 136.892002,78.408 136.396,78.408 C135.491995,78.408 135,79.0719934 134.92,80.4 L137.884,80.4 L137.884,80.328 Z M142.516,77.532 C142.948002,77.532 143.335998,77.5919994 143.68,77.712 C144.024002,77.8320006 144.351998,78.0119988 144.664,78.252 L144.184,78.984 C143.903999,78.783999 143.634001,78.6380005 143.374,78.546 C143.113999,78.4539995 142.840001,78.408 142.552,78.408 C142.191998,78.408 141.908001,78.4819993 141.7,78.63 C141.491999,78.7780007 141.388,78.9799987 141.388,79.236 C141.388,79.4920013 141.485999,79.6919993 141.682,79.836 C141.878001,79.9800007 142.231997,80.1199993 142.744,80.256 C143.448004,80.4320009 143.973998,80.6719985 144.322,80.976 C144.670002,81.2800015 144.844,81.6959974 144.844,82.224 C144.844,82.8480031 144.602002,83.3239984 144.118,83.652 C143.633998,83.9800016 143.044003,84.144 142.348,84.144 C141.387995,84.144 140.592003,83.8680028 139.96,83.316 L140.572,82.62 C141.068002,83.0440021 141.651997,83.256 142.324,83.256 C142.732002,83.256 143.059999,83.1720008 143.308,83.004 C143.556001,82.8359992 143.68,82.6120014 143.68,82.332 C143.68,82.1079989 143.636,81.9260007 143.548,81.786 C143.46,81.6459993 143.310001,81.5260005 143.098,81.426 C142.885999,81.3259995 142.568002,81.2200006 142.144,81.108 C141.471997,80.9319991 140.986001,80.6940015 140.686,80.394 C140.385998,80.0939985 140.236,79.7160023 140.236,79.26 C140.236,78.9319984 140.333999,78.6360013 140.53,78.372 C140.726001,78.1079987 140.997998,77.9020007 141.346,77.754 C141.694002,77.6059993 142.083998,77.532 142.516,77.532 Z M148.12,77.532 C148.552002,77.532 148.939998,77.5919994 149.284,77.712 C149.628002,77.8320006 149.955998,78.0119988 150.268,78.252 L149.788,78.984 C149.507999,78.783999 149.238001,78.6380005 148.978,78.546 C148.717999,78.4539995 148.444001,78.408 148.156,78.408 C147.795998,78.408 147.512001,78.4819993 147.304,78.63 C147.095999,78.7780007 146.992,78.9799987 146.992,79.236 C146.992,79.4920013 147.089999,79.6919993 147.286,79.836 C147.482001,79.9800007 147.835997,80.1199993 148.348,80.256 C149.052004,80.4320009 149.577998,80.6719985 149.926,80.976 C150.274002,81.2800015 150.448,81.6959974 150.448,82.224 C150.448,82.8480031 150.206002,83.3239984 149.722,83.652 C149.237998,83.9800016 148.648003,84.144 147.952,84.144 C146.991995,84.144 146.196003,83.8680028 145.564,83.316 L146.176,82.62 C146.672002,83.0440021 147.255997,83.256 147.928,83.256 C148.336002,83.256 148.663999,83.1720008 148.912,83.004 C149.160001,82.8359992 149.284,82.6120014 149.284,82.332 C149.284,82.1079989 149.24,81.9260007 149.152,81.786 C149.064,81.6459993 148.914001,81.5260005 148.702,81.426 C148.489999,81.3259995 148.172002,81.2200006 147.748,81.108 C147.075997,80.9319991 146.590001,80.6940015 146.29,80.394 C145.989998,80.0939985 145.84,79.7160023 145.84,79.26 C145.84,78.9319984 145.937999,78.6360013 146.134,78.372 C146.330001,78.1079987 146.601998,77.9020007 146.95,77.754 C147.298002,77.6059993 147.687998,77.532 148.12,77.532 Z" id="Chondrichthyans-rich" fill="#212121"></path>
        <rect id="Rectangle-6" fill-opacity="0.6" fill="#FAE6E6" x="10" y="58" width="60" height="10"></rect>
        <polygon id="Rectangle-6" fill-opacity="0.6" fill="#FF1B22" points="190 58 232.628906 58 250 58 250 68 190 68"></polygon>
        <path d="M261.758,45.064 L261.758,47.068 C262.158002,46.867999 262.565998,46.768 262.982,46.768 C263.430002,46.768 263.829998,46.871999 264.182,47.08 C264.534002,47.288001 264.807999,47.587998 265.004,47.98 C265.200001,48.372002 265.298,48.8359973 265.298,49.372 C265.298,49.9240028 265.174001,50.4119979 264.926,50.836 C264.677999,51.2600021 264.326002,51.5899988 263.87,51.826 C263.413998,52.0620012 262.886003,52.18 262.286,52.18 C261.749997,52.18 261.276002,52.082001 260.864,51.886 C260.451998,51.689999 260.078002,51.4080018 259.742,51.04 L260.63,50.212 C261.078002,50.7320026 261.617997,50.992 262.25,50.992 C262.706002,50.992 263.063999,50.8520014 263.324,50.572 C263.584001,50.2919986 263.714,49.8920026 263.714,49.372 C263.714,48.371995 263.282004,47.872 262.418,47.872 C262.233999,47.872 262.062001,47.8939998 261.902,47.938 C261.741999,47.9820002 261.566001,48.0519995 261.374,48.148 L260.282,48.148 L260.282,43.924 L264.962,43.924 L264.782,45.064 L261.758,45.064 Z M267.854,52.156 L266.45,51.7 L269.258,45.112 L265.85,45.112 L265.85,43.924 L270.842,43.924 L270.842,45.004 L267.854,52.156 Z M280.046,47.632 L280.046,48.856 L274.43,48.856 L274.43,47.632 L280.046,47.632 Z M287.294,46.624 C287.718002,46.624 288.103998,46.725999 288.452,46.93 C288.800002,47.134001 289.073999,47.433998 289.274,47.83 C289.474001,48.226002 289.574,48.6999972 289.574,49.252 C289.574,49.8120028 289.458001,50.3139978 289.226,50.758 C288.993999,51.2020022 288.668002,51.5499987 288.248,51.802 C287.827998,52.0540013 287.350003,52.18 286.814,52.18 C285.821995,52.18 285.088002,51.8320035 284.612,51.136 C284.135998,50.4399965 283.898,49.4840061 283.898,48.268 C283.898,47.3719955 284.031999,46.5860034 284.3,45.91 C284.568001,45.2339966 284.951998,44.7100019 285.452,44.338 C285.952002,43.9659981 286.537997,43.78 287.21,43.78 C287.874003,43.78 288.461997,43.9519983 288.974,44.296 L288.398,45.244 C288.029998,45.0279989 287.642002,44.92 287.234,44.92 C286.721997,44.92 286.312002,45.1479977 286.004,45.604 C285.695998,46.0600023 285.522,46.6959959 285.482,47.512 C285.970002,46.919997 286.573996,46.624 287.294,46.624 Z M286.814,51.04 C287.214002,51.04 287.515999,50.8820016 287.72,50.566 C287.924001,50.2499984 288.026,49.8200027 288.026,49.276 C288.026,48.7239972 287.932001,48.3300012 287.744,48.094 C287.555999,47.8579988 287.282002,47.74 286.922,47.74 C286.649999,47.74 286.392001,47.8139993 286.148,47.962 C285.903999,48.1100007 285.686001,48.3159987 285.494,48.58 C285.51,49.4520044 285.619999,50.0799981 285.824,50.464 C286.028001,50.8480019 286.357998,51.04 286.814,51.04 Z M293.186,43.78 C294.098005,43.78 294.797998,44.0619972 295.286,44.626 C295.774002,45.1900028 296.018,45.9519952 296.018,46.912 C296.018,48.0080055 295.854002,48.9059965 295.526,49.606 C295.197998,50.3060035 294.694003,50.8639979 294.014,51.28 C293.333997,51.6960021 292.434006,52.0359987 291.314,52.3 L290.99,51.208 C292.046005,50.9359986 292.849997,50.5740023 293.402,50.122 C293.954003,49.6699977 294.278,49.0600038 294.374,48.292 C293.941998,48.8600028 293.366004,49.144 292.646,49.144 C292.229998,49.144 291.848002,49.0380011 291.5,48.826 C291.151998,48.6139989 290.878001,48.308002 290.678,47.908 C290.477999,47.507998 290.378,47.0440026 290.378,46.516 C290.378,45.9639972 290.501999,45.4820021 290.75,45.07 C290.998001,44.6579979 291.335998,44.3400011 291.764,44.116 C292.192002,43.8919989 292.665997,43.78 293.186,43.78 Z M293.066,48.028 C293.618003,48.028 294.077998,47.7480028 294.446,47.188 C294.454,46.3719959 294.360001,45.7900017 294.164,45.442 C293.967999,45.0939983 293.642002,44.92 293.186,44.92 C292.785998,44.92 292.474001,45.0559986 292.25,45.328 C292.025999,45.6000014 291.914,45.9879975 291.914,46.492 C291.914,47.0200026 292.019999,47.4079988 292.232,47.656 C292.444001,47.9040012 292.721998,48.028 293.066,48.028 Z" id="57-–-69" fill="#212121"></path>
        <polygon id="Rectangle-6" fill-opacity="0.6" fill="#DC0007" points="250 58 292.628906 58 310 58 310 68 250 68"></polygon>
        <rect id="Rectangle-6" fill-opacity="0.6" fill="#FF7575" x="130" y="58" width="60" height="10"></rect>
        <rect id="Rectangle-6" fill-opacity="0.6" fill="#FDA5A5" x="70" y="58" width="60" height="10"></rect>
        <path d="M28.1,18.08 L27.584,20 L25.94,20 L28.52,11.708 L30.476,11.708 L33.044,20 L31.364,20 L30.848,18.08 L28.1,18.08 Z M29.468,12.92 L28.412,16.88 L30.536,16.88 L29.468,12.92 Z M35.396,18.452 C35.396,18.6280009 35.4239997,18.7539996 35.48,18.83 C35.5360003,18.9060004 35.6279994,18.944 35.756,18.944 C35.8760006,18.944 35.9959994,18.9240002 36.116,18.884 L36.44,19.964 C36.0959983,20.1080007 35.7320019,20.18 35.348,20.18 C34.8679976,20.18 34.5000013,20.0420014 34.244,19.766 C33.9879987,19.4899986 33.86,19.0880026 33.86,18.56 L33.86,11.108 L35.396,10.94 L35.396,18.452 Z M38.936,18.452 C38.936,18.6280009 38.9639997,18.7539996 39.02,18.83 C39.0760003,18.9060004 39.1679994,18.944 39.296,18.944 C39.4160006,18.944 39.5359994,18.9240002 39.656,18.884 L39.98,19.964 C39.6359983,20.1080007 39.2720019,20.18 38.888,20.18 C38.4079976,20.18 38.0400013,20.0420014 37.784,19.766 C37.5279987,19.4899986 37.4,19.0880026 37.4,18.56 L37.4,11.108 L38.936,10.94 L38.936,18.452 Z M50.36,20 L50.144,16.532 C50.0719996,15.323994 50.036,14.3680035 50.036,13.664 L50.036,13.148 L48.524,19.1 L47.024,19.1 L45.416,13.136 C45.4400001,13.5200019 45.452,13.907998 45.452,14.3 C45.452,14.908003 45.4240003,15.6679954 45.368,16.58 L45.164,20 L43.628,20 L44.288,11.708 L46.328,11.708 L47.804,17.516 L49.196,11.708 L51.26,11.708 L51.908,20 L50.36,20 Z M56.024,11.708 C57.0880053,11.708 57.9139971,11.9279978 58.502,12.368 C59.0900029,12.8080022 59.384,13.4679956 59.384,14.348 C59.384,15.2680046 59.088003,15.9579977 58.496,16.418 C57.903997,16.8780023 57.1160049,17.108 56.132,17.108 L55.16,17.108 L55.16,20 L53.576,20 L53.576,11.708 L56.024,11.708 Z M56.012,15.92 C56.5800028,15.92 57.0079986,15.8020012 57.296,15.566 C57.5840014,15.3299988 57.728,14.9240029 57.728,14.348 C57.728,13.3639951 57.1560057,12.872 56.012,12.872 L55.16,12.872 L55.16,15.92 L56.012,15.92 Z M60.956,18.08 L60.44,20 L58.796,20 L61.376,11.708 L63.332,11.708 L65.9,20 L64.22,20 L63.704,18.08 L60.956,18.08 Z M62.324,12.92 L61.268,16.88 L63.392,16.88 L62.324,12.92 Z M68.78,13.472 C69.6360043,13.472 70.3879968,13.7239975 71.036,14.228 L70.436,15.152 C69.9079974,14.7919982 69.3880026,14.612 68.876,14.612 C68.5559984,14.612 68.3100009,14.6699994 68.138,14.786 C67.9659991,14.9020006 67.88,15.055999 67.88,15.248 C67.88,15.3920007 67.9159996,15.5119995 67.988,15.608 C68.0600004,15.7040005 68.1899991,15.7939996 68.378,15.878 C68.5660009,15.9620004 68.8439982,16.0559995 69.212,16.16 C69.9000034,16.3440009 70.4099983,16.5879985 70.742,16.892 C71.0740017,17.1960015 71.24,17.6199973 71.24,18.164 C71.24,18.7960032 70.9840026,19.2899982 70.472,19.646 C69.9599974,20.0020018 69.3240038,20.18 68.564,20.18 C68.0439974,20.18 67.5700021,20.1000008 67.142,19.94 C66.7139979,19.7799992 66.3440016,19.5600014 66.032,19.28 L66.812,18.404 C67.3400026,18.8280021 67.907997,19.04 68.516,19.04 C68.8600017,19.04 69.135999,18.9720007 69.344,18.836 C69.552001,18.6999993 69.656,18.5200011 69.656,18.296 C69.656,18.103999 69.6180004,17.9540005 69.542,17.846 C69.4659996,17.7379995 69.330001,17.6400004 69.134,17.552 C68.937999,17.4639996 68.6320021,17.3600006 68.216,17.24 C67.5679968,17.0639991 67.0920015,16.8180016 66.788,16.502 C66.4839985,16.1859984 66.332,15.7920024 66.332,15.32 C66.332,14.9679982 66.433999,14.6520014 66.638,14.372 C66.842001,14.0919986 67.1299981,13.8720008 67.502,13.712 C67.8740019,13.5519992 68.2999976,13.472 68.78,13.472 Z M78.152,10.34 C77.7359979,10.9560031 77.4060012,11.5059976 77.162,11.99 C76.9179988,12.4740024 76.7260007,13.0239969 76.586,13.64 C76.4459993,14.2560031 76.376,14.9759959 76.376,15.8 C76.376,16.6160041 76.4459993,17.3319969 76.586,17.948 C76.7260007,18.5640031 76.9179988,19.1179975 77.162,19.61 C77.4060012,20.1020025 77.7359979,20.651997 78.152,21.26 L77.456,21.74 C76.9279974,20.9879962 76.5220014,20.3700024 76.238,19.886 C75.9539986,19.4019976 75.714001,18.8220034 75.518,18.146 C75.321999,17.4699966 75.224,16.6880044 75.224,15.8 C75.224,14.9119956 75.321999,14.1300034 75.518,13.454 C75.714001,12.7779966 75.9539986,12.1980024 76.238,11.714 C76.5220014,11.2299976 76.9279974,10.6120038 77.456,9.86 L78.152,10.34 Z M86.12,20 L85.832,16.268 C85.7119994,14.8039927 85.6440001,13.6800039 85.628,12.896 L83.84,19.064 L82.772,19.064 L80.888,12.884 C80.888,13.884005 80.8360005,15.0399934 80.732,16.352 L80.456,20 L79.376,20 L80.06,11.732 L81.596,11.732 L83.336,17.744 L84.992,11.732 L86.54,11.732 L87.224,20 L86.12,20 Z M93.584,18.524 C93.584,18.7800013 93.6279996,18.9699994 93.716,19.094 C93.8040004,19.2180006 93.9359991,19.3119997 94.112,19.376 L93.86,20.144 C93.5319984,20.1039998 93.268001,20.0120007 93.068,19.868 C92.867999,19.7239993 92.7200005,19.5000015 92.624,19.196 C92.1999979,19.8280032 91.5720042,20.144 90.74,20.144 C90.1159969,20.144 89.6240018,19.9680018 89.264,19.616 C88.9039982,19.2639982 88.724,18.8040028 88.724,18.236 C88.724,17.5639966 88.9659976,17.0480018 89.45,16.688 C89.9340024,16.3279982 90.6199956,16.148 91.508,16.148 L92.48,16.148 L92.48,15.68 C92.48,15.2319978 92.3720011,14.912001 92.156,14.72 C91.9399989,14.527999 91.6080022,14.432 91.16,14.432 C90.6959977,14.432 90.1280034,14.5439989 89.456,14.768 L89.18,13.964 C89.9640039,13.6759986 90.6919966,13.532 91.364,13.532 C92.1080037,13.532 92.6639982,13.7139982 93.032,14.078 C93.4000018,14.4420018 93.584,14.9599966 93.584,15.632 L93.584,18.524 Z M90.992,19.316 C91.6240032,19.316 92.1199982,18.9880033 92.48,18.332 L92.48,16.88 L91.652,16.88 C90.4839942,16.88 89.9,17.3119957 89.9,18.176 C89.9,18.5520019 89.9919991,18.835999 90.176,19.028 C90.3600009,19.220001 90.6319982,19.316 90.992,19.316 Z M98.6,13.532 C98.8240011,13.532 99.031999,13.5559998 99.224,13.604 L99.02,14.684 C98.827999,14.6359998 98.6440009,14.612 98.468,14.612 C98.075998,14.612 97.7600012,14.7559986 97.52,15.044 C97.2799988,15.3320014 97.0920007,15.779997 96.956,16.388 L96.956,20 L95.852,20 L95.852,13.676 L96.8,13.676 L96.908,14.96 C97.0760008,14.4879976 97.3039986,14.1320012 97.592,13.892 C97.8800014,13.6519988 98.2159981,13.532 98.6,13.532 Z M100.484,20 L100.484,13.676 L101.588,13.676 L101.588,20 L100.484,20 Z M101.024,10.64 C101.256001,10.64 101.443999,10.7119993 101.588,10.856 C101.732001,11.0000007 101.804,11.1799989 101.804,11.396 C101.804,11.6120011 101.732001,11.7899993 101.588,11.93 C101.443999,12.0700007 101.256001,12.14 101.024,12.14 C100.799999,12.14 100.616001,12.0700007 100.472,11.93 C100.327999,11.7899993 100.256,11.6120011 100.256,11.396 C100.256,11.1799989 100.327999,11.0000007 100.472,10.856 C100.616001,10.7119993 100.799999,10.64 101.024,10.64 Z M106.844,13.532 C107.420003,13.532 107.869998,13.7039983 108.194,14.048 C108.518002,14.3920017 108.68,14.863997 108.68,15.464 L108.68,20 L107.576,20 L107.576,15.62 C107.576,15.1719978 107.492001,14.8560009 107.324,14.672 C107.155999,14.4879991 106.908002,14.396 106.58,14.396 C106.243998,14.396 105.948001,14.491999 105.692,14.684 C105.435999,14.876001 105.196001,15.1519982 104.972,15.512 L104.972,20 L103.868,20 L103.868,13.676 L104.816,13.676 L104.912,14.612 C105.136001,14.2759983 105.413998,14.012001 105.746,13.82 C106.078002,13.627999 106.443998,13.532 106.844,13.532 Z M115.676,16.652 C115.676,16.8360009 115.668,17.023999 115.652,17.216 L111.62,17.216 C111.668,17.9120035 111.843998,18.4239984 112.148,18.752 C112.452002,19.0800016 112.843998,19.244 113.324,19.244 C113.628002,19.244 113.907999,19.2000004 114.164,19.112 C114.420001,19.0239996 114.687999,18.884001 114.968,18.692 L115.448,19.352 C114.775997,19.8800026 114.040004,20.144 113.24,20.144 C112.359996,20.144 111.674002,19.8560029 111.182,19.28 C110.689998,18.7039971 110.444,17.912005 110.444,16.904 C110.444,16.2479967 110.549999,15.6660025 110.762,15.158 C110.974001,14.6499975 111.277998,14.2520014 111.674,13.964 C112.070002,13.6759986 112.535997,13.532 113.072,13.532 C113.912004,13.532 114.555998,13.8079972 115.004,14.36 C115.452002,14.9120028 115.676,15.6759951 115.676,16.652 Z M114.584,16.328 C114.584,15.7039969 114.460001,15.2280016 114.212,14.9 C113.963999,14.5719984 113.592002,14.408 113.096,14.408 C112.191995,14.408 111.7,15.0719934 111.62,16.4 L114.584,16.4 L114.584,16.328 Z M122.912,11.732 C123.936005,11.732 124.727997,11.9459979 125.288,12.374 C125.848003,12.8020021 126.128,13.4399958 126.128,14.288 C126.128,15.1920045 125.836003,15.8639978 125.252,16.304 C124.667997,16.7440022 123.892005,16.964 122.924,16.964 L121.88,16.964 L121.88,20 L120.74,20 L120.74,11.732 L122.912,11.732 Z M122.876,16.064 C123.540003,16.064 124.045998,15.9360013 124.394,15.68 C124.742002,15.4239987 124.916,14.9640033 124.916,14.3 C124.916,13.707997 124.742002,13.2800013 124.394,13.016 C124.045998,12.7519987 123.548003,12.62 122.9,12.62 L121.88,12.62 L121.88,16.064 L122.876,16.064 Z M130.4,13.532 C130.624001,13.532 130.831999,13.5559998 131.024,13.604 L130.82,14.684 C130.627999,14.6359998 130.444001,14.612 130.268,14.612 C129.875998,14.612 129.560001,14.7559986 129.32,15.044 C129.079999,15.3320014 128.892001,15.779997 128.756,16.388 L128.756,20 L127.652,20 L127.652,13.676 L128.6,13.676 L128.708,14.96 C128.876001,14.4879976 129.103999,14.1320012 129.392,13.892 C129.680001,13.6519988 130.015998,13.532 130.4,13.532 Z M134.54,13.532 C135.428004,13.532 136.117998,13.827997 136.61,14.42 C137.102002,15.012003 137.348,15.8159949 137.348,16.832 C137.348,17.4880033 137.236001,18.0659975 137.012,18.566 C136.787999,19.0660025 136.464002,19.4539986 136.04,19.73 C135.615998,20.0060014 135.112003,20.144 134.528,20.144 C133.639996,20.144 132.948002,19.848003 132.452,19.256 C131.955998,18.663997 131.708,17.8600051 131.708,16.844 C131.708,16.1879967 131.819999,15.6100025 132.044,15.11 C132.268001,14.6099975 132.591998,14.2220014 133.016,13.946 C133.440002,13.6699986 133.947997,13.532 134.54,13.532 Z M134.54,14.42 C133.443995,14.42 132.896,15.2279919 132.896,16.844 C132.896,18.452008 133.439995,19.256 134.528,19.256 C135.616005,19.256 136.16,18.4480081 136.16,16.832 C136.16,15.223992 135.620005,14.42 134.54,14.42 Z M142.364,19.712 C141.947998,20.0000014 141.476003,20.144 140.948,20.144 C140.411997,20.144 139.994001,19.9900015 139.694,19.682 C139.393999,19.3739985 139.244,18.9280029 139.244,18.344 L139.244,14.528 L138.14,14.528 L138.14,13.676 L139.244,13.676 L139.244,12.248 L140.348,12.116 L140.348,13.676 L141.848,13.676 L141.728,14.528 L140.348,14.528 L140.348,18.296 C140.348,18.6240016 140.405999,18.8619993 140.522,19.01 C140.638001,19.1580007 140.831999,19.232 141.104,19.232 C141.368001,19.232 141.647999,19.1400009 141.944,18.956 L142.364,19.712 Z M148.16,16.652 C148.16,16.8360009 148.152,17.023999 148.136,17.216 L144.104,17.216 C144.152,17.9120035 144.327998,18.4239984 144.632,18.752 C144.936002,19.0800016 145.327998,19.244 145.808,19.244 C146.112002,19.244 146.391999,19.2000004 146.648,19.112 C146.904001,19.0239996 147.171999,18.884001 147.452,18.692 L147.932,19.352 C147.259997,19.8800026 146.524004,20.144 145.724,20.144 C144.843996,20.144 144.158002,19.8560029 143.666,19.28 C143.173998,18.7039971 142.928,17.912005 142.928,16.904 C142.928,16.2479967 143.033999,15.6660025 143.246,15.158 C143.458001,14.6499975 143.761998,14.2520014 144.158,13.964 C144.554002,13.6759986 145.019997,13.532 145.556,13.532 C146.396004,13.532 147.039998,13.8079972 147.488,14.36 C147.936002,14.9120028 148.16,15.6759951 148.16,16.652 Z M147.068,16.328 C147.068,15.7039969 146.944001,15.2280016 146.696,14.9 C146.447999,14.5719984 146.076002,14.408 145.58,14.408 C144.675995,14.408 144.184,15.0719934 144.104,16.4 L147.068,16.4 L147.068,16.328 Z M152.288,13.532 C152.664002,13.532 153.007998,13.5859995 153.32,13.694 C153.632002,13.8020005 153.931999,13.9759988 154.22,14.216 L153.68,14.936 C153.463999,14.7679992 153.252001,14.6440004 153.044,14.564 C152.835999,14.4839996 152.600001,14.444 152.336,14.444 C151.823997,14.444 151.426001,14.647998 151.142,15.056 C150.857999,15.464002 150.716,16.067996 150.716,16.868 C150.716,17.668004 150.855999,18.2579981 151.136,18.638 C151.416001,19.0180019 151.815997,19.208 152.336,19.208 C152.592001,19.208 152.821999,19.1680004 153.026,19.088 C153.230001,19.0079996 153.451999,18.8760009 153.692,18.692 L154.22,19.448 C153.643997,19.9120023 153.000004,20.144 152.288,20.144 C151.431996,20.144 150.758002,19.8560029 150.266,19.28 C149.773998,18.7039971 149.528,17.9080051 149.528,16.892 C149.528,16.2199966 149.639999,15.6320025 149.864,15.128 C150.088001,14.6239975 150.405998,14.2320014 150.818,13.952 C151.230002,13.6719986 151.719997,13.532 152.288,13.532 Z M158.912,19.712 C158.495998,20.0000014 158.024003,20.144 157.496,20.144 C156.959997,20.144 156.542001,19.9900015 156.242,19.682 C155.941998,19.3739985 155.792,18.9280029 155.792,18.344 L155.792,14.528 L154.688,14.528 L154.688,13.676 L155.792,13.676 L155.792,12.248 L156.896,12.116 L156.896,13.676 L158.396,13.676 L158.276,14.528 L156.896,14.528 L156.896,18.296 C156.896,18.6240016 156.953999,18.8619993 157.07,19.01 C157.186001,19.1580007 157.379999,19.232 157.652,19.232 C157.916001,19.232 158.195999,19.1400009 158.492,18.956 L158.912,19.712 Z M164.708,16.652 C164.708,16.8360009 164.7,17.023999 164.684,17.216 L160.652,17.216 C160.7,17.9120035 160.875998,18.4239984 161.18,18.752 C161.484002,19.0800016 161.875998,19.244 162.356,19.244 C162.660002,19.244 162.939999,19.2000004 163.196,19.112 C163.452001,19.0239996 163.719999,18.884001 164,18.692 L164.48,19.352 C163.807997,19.8800026 163.072004,20.144 162.272,20.144 C161.391996,20.144 160.706002,19.8560029 160.214,19.28 C159.721998,18.7039971 159.476,17.912005 159.476,16.904 C159.476,16.2479967 159.581999,15.6660025 159.794,15.158 C160.006001,14.6499975 160.309998,14.2520014 160.706,13.964 C161.102002,13.6759986 161.567997,13.532 162.104,13.532 C162.944004,13.532 163.587998,13.8079972 164.036,14.36 C164.484002,14.9120028 164.708,15.6759951 164.708,16.652 Z M163.616,16.328 C163.616,15.7039969 163.492001,15.2280016 163.244,14.9 C162.995999,14.5719984 162.624002,14.408 162.128,14.408 C161.223995,14.408 160.732,15.0719934 160.652,16.4 L163.616,16.4 L163.616,16.328 Z M171.428,20 L170.456,20 L170.348,19.124 C170.139999,19.4440016 169.880002,19.6939991 169.568,19.874 C169.255998,20.0540009 168.908002,20.144 168.524,20.144 C167.771996,20.144 167.186002,19.848003 166.766,19.256 C166.345998,18.663997 166.136,17.868005 166.136,16.868 C166.136,16.2199968 166.235999,15.6440025 166.436,15.14 C166.636001,14.6359975 166.923998,14.2420014 167.3,13.958 C167.676002,13.6739986 168.115997,13.532 168.62,13.532 C169.268003,13.532 169.835998,13.7919974 170.324,14.312 L170.324,11 L171.428,11.132 L171.428,20 Z M168.764,19.268 C169.100002,19.268 169.387999,19.1900008 169.628,19.034 C169.868001,18.8779992 170.099999,18.6440016 170.324,18.332 L170.324,15.236 C170.115999,14.9639986 169.894001,14.7580007 169.658,14.618 C169.421999,14.4779993 169.156001,14.408 168.86,14.408 C168.371998,14.408 167.994001,14.611998 167.726,15.02 C167.457999,15.428002 167.324,16.035996 167.324,16.844 C167.324,17.6600041 167.447999,18.267998 167.696,18.668 C167.944001,19.068002 168.299998,19.268 168.764,19.268 Z M177.596,17.924 L176.972,20 L175.82,20 L178.472,11.732 L179.912,11.732 L182.552,20 L181.352,20 L180.728,17.924 L177.596,17.924 Z M179.168,12.68 L177.872,17 L180.452,17 L179.168,12.68 Z M186.512,13.532 C186.736001,13.532 186.943999,13.5559998 187.136,13.604 L186.932,14.684 C186.739999,14.6359998 186.556001,14.612 186.38,14.612 C185.987998,14.612 185.672001,14.7559986 185.432,15.044 C185.191999,15.3320014 185.004001,15.779997 184.868,16.388 L184.868,20 L183.764,20 L183.764,13.676 L184.712,13.676 L184.82,14.96 C184.988001,14.4879976 185.215999,14.1320012 185.504,13.892 C185.792001,13.6519988 186.127998,13.532 186.512,13.532 Z M193.052,16.652 C193.052,16.8360009 193.044,17.023999 193.028,17.216 L188.996,17.216 C189.044,17.9120035 189.219998,18.4239984 189.524,18.752 C189.828002,19.0800016 190.219998,19.244 190.7,19.244 C191.004002,19.244 191.283999,19.2000004 191.54,19.112 C191.796001,19.0239996 192.063999,18.884001 192.344,18.692 L192.824,19.352 C192.151997,19.8800026 191.416004,20.144 190.616,20.144 C189.735996,20.144 189.050002,19.8560029 188.558,19.28 C188.065998,18.7039971 187.82,17.912005 187.82,16.904 C187.82,16.2479967 187.925999,15.6660025 188.138,15.158 C188.350001,14.6499975 188.653998,14.2520014 189.05,13.964 C189.446002,13.6759986 189.911997,13.532 190.448,13.532 C191.288004,13.532 191.931998,13.8079972 192.38,14.36 C192.828002,14.9120028 193.052,15.6759951 193.052,16.652 Z M191.96,16.328 C191.96,15.7039969 191.836001,15.2280016 191.588,14.9 C191.339999,14.5719984 190.968002,14.408 190.472,14.408 C189.567995,14.408 189.076,15.0719934 188.996,16.4 L191.96,16.4 L191.96,16.328 Z M199.136,18.524 C199.136,18.7800013 199.18,18.9699994 199.268,19.094 C199.356,19.2180006 199.487999,19.3119997 199.664,19.376 L199.412,20.144 C199.083998,20.1039998 198.820001,20.0120007 198.62,19.868 C198.419999,19.7239993 198.272,19.5000015 198.176,19.196 C197.751998,19.8280032 197.124004,20.144 196.292,20.144 C195.667997,20.144 195.176002,19.9680018 194.816,19.616 C194.455998,19.2639982 194.276,18.8040028 194.276,18.236 C194.276,17.5639966 194.517998,17.0480018 195.002,16.688 C195.486002,16.3279982 196.171996,16.148 197.06,16.148 L198.032,16.148 L198.032,15.68 C198.032,15.2319978 197.924001,14.912001 197.708,14.72 C197.491999,14.527999 197.160002,14.432 196.712,14.432 C196.247998,14.432 195.680003,14.5439989 195.008,14.768 L194.732,13.964 C195.516004,13.6759986 196.243997,13.532 196.916,13.532 C197.660004,13.532 198.215998,13.7139982 198.584,14.078 C198.952002,14.4420018 199.136,14.9599966 199.136,15.632 L199.136,18.524 Z M196.544,19.316 C197.176003,19.316 197.671998,18.9880033 198.032,18.332 L198.032,16.88 L197.204,16.88 C196.035994,16.88 195.452,17.3119957 195.452,18.176 C195.452,18.5520019 195.543999,18.835999 195.728,19.028 C195.912001,19.220001 196.183998,19.316 196.544,19.316 Z M203.12,13.532 C203.552002,13.532 203.939998,13.5919994 204.284,13.712 C204.628002,13.8320006 204.955998,14.0119988 205.268,14.252 L204.788,14.984 C204.507999,14.783999 204.238001,14.6380005 203.978,14.546 C203.717999,14.4539995 203.444001,14.408 203.156,14.408 C202.795998,14.408 202.512001,14.4819993 202.304,14.63 C202.095999,14.7780007 201.992,14.9799987 201.992,15.236 C201.992,15.4920013 202.089999,15.6919993 202.286,15.836 C202.482001,15.9800007 202.835997,16.1199993 203.348,16.256 C204.052004,16.4320009 204.577998,16.6719985 204.926,16.976 C205.274002,17.2800015 205.448,17.6959974 205.448,18.224 C205.448,18.8480031 205.206002,19.3239984 204.722,19.652 C204.237998,19.9800016 203.648003,20.144 202.952,20.144 C201.991995,20.144 201.196003,19.8680028 200.564,19.316 L201.176,18.62 C201.672002,19.0440021 202.255997,19.256 202.928,19.256 C203.336002,19.256 203.663999,19.1720008 203.912,19.004 C204.160001,18.8359992 204.284,18.6120014 204.284,18.332 C204.284,18.1079989 204.24,17.9260007 204.152,17.786 C204.064,17.6459993 203.914001,17.5260005 203.702,17.426 C203.489999,17.3259995 203.172002,17.2200006 202.748,17.108 C202.075997,16.9319991 201.590001,16.6940015 201.29,16.394 C200.989998,16.0939985 200.84,15.7160023 200.84,15.26 C200.84,14.9319984 200.937999,14.6360013 201.134,14.372 C201.330001,14.1079987 201.601998,13.9020007 201.95,13.754 C202.298002,13.6059993 202.687998,13.532 203.12,13.532 Z M207.044,9.86 C207.572003,10.6120038 207.977999,11.2299976 208.262,11.714 C208.546001,12.1980024 208.785999,12.7779966 208.982,13.454 C209.178001,14.1300034 209.276,14.9119956 209.276,15.8 C209.276,16.6880044 209.178001,17.4699966 208.982,18.146 C208.785999,18.8220034 208.546001,19.4019976 208.262,19.886 C207.977999,20.3700024 207.572003,20.9879962 207.044,21.74 L206.348,21.26 C206.764002,20.651997 207.093999,20.1020025 207.338,19.61 C207.582001,19.1179975 207.773999,18.5640031 207.914,17.948 C208.054001,17.3319969 208.124,16.6160041 208.124,15.8 C208.124,14.9759959 208.054001,14.2560031 207.914,13.64 C207.773999,13.0239969 207.582001,12.4740024 207.338,11.99 C207.093999,11.5059976 206.764002,10.9560031 206.348,10.34 L207.044,9.86 Z" id="All-MPAs-(Marine-Pro" fill="#212121"></path>
        <path d="M11,12 L11,20 L19,20 L19,12 L11,12 Z M10,11 L20,11 L20,21 L10,21 L10,11 Z" id="Rectangle-6" fill="#494D96" fill-rule="nonzero"></path>
    </g>
</svg>