<?xml version="1.0" encoding="UTF-8" standalone="no"?>
<svg width="319px" height="64px" viewBox="0 0 319 64" version="1.1" xmlns="http://www.w3.org/2000/svg" xmlns:xlink="http://www.w3.org/1999/xlink">
    <!-- Generator: Sketch 47.1 (45422) - http://www.bohemiancoding.com/sketch -->
    <title>infograph/legend_map-threatened-chondrichthyans</title>
    <desc>Created with Sketch.</desc>
    <defs></defs>
    <g id="Symbols" stroke="none" stroke-width="1" fill="none" fill-rule="evenodd">
        <g id="infograph/legend_map-threatened-chondrichthyans">
            <rect id="Rectangle-2" fill-opacity="0.5" fill="#FFFFFF" x="0" y="0" width="319" height="64" rx="4"></rect>
            <path d="M33.814,15.004 L37.666,16.624 L37.162,17.788 L32.542,15.724 L32.542,14.296 L37.162,12.22 L37.666,13.36 L33.814,15.004 Z M47.53,16.828 C47.53,17.2680022 47.4060012,17.6659982 47.158,18.022 C46.9099988,18.3780018 46.5600023,18.659999 46.108,18.868 C45.6559977,19.076001 45.130003,19.18 44.53,19.18 C43.937997,19.18 43.4220022,19.078001 42.982,18.874 C42.5419978,18.669999 42.2020012,18.3920018 41.962,18.04 C41.7219988,17.6879982 41.602,17.2920022 41.602,16.852 C41.602,15.9239954 42.1139949,15.2440022 43.138,14.812 C42.329996,14.3639978 41.926,13.7280041 41.926,12.904 C41.926,12.4799979 42.0439988,12.1060016 42.28,11.782 C42.5160012,11.4579984 42.835998,11.2100009 43.24,11.038 C43.644002,10.8659991 44.0859976,10.78 44.566,10.78 C45.0540024,10.78 45.497998,10.8599992 45.898,11.02 C46.298002,11.1800008 46.6159988,11.4159984 46.852,11.728 C47.0880012,12.0400016 47.206,12.4119978 47.206,12.844 C47.206,13.6040038 46.7620044,14.2119977 45.874,14.668 C46.9780055,15.1640025 47.53,15.8839953 47.53,16.828 Z M43.72,12.136 C43.515999,12.3200009 43.414,12.5839983 43.414,12.928 C43.414,13.2480016 43.509999,13.5019991 43.702,13.69 C43.894001,13.8780009 44.2019979,14.0479992 44.626,14.2 L44.866,14.284 C45.1780016,14.091999 45.3979994,13.8880011 45.526,13.672 C45.6540006,13.4559989 45.718,13.2040014 45.718,12.916 C45.718,12.5879984 45.618001,12.3300009 45.418,12.142 C45.217999,11.9539991 44.9340018,11.86 44.566,11.86 C44.2059982,11.86 43.924001,11.9519991 43.72,12.136 Z M45.598,17.704 C45.8460012,17.4799989 45.97,17.1880018 45.97,16.828 C45.97,16.4599982 45.8620011,16.1700011 45.646,15.958 C45.4299989,15.7459989 45.0460028,15.540001 44.494,15.34 L44.134,15.22 C43.4779967,15.5560017 43.15,16.0839964 43.15,16.804 C43.15,17.1880019 43.2779987,17.4899989 43.534,17.71 C43.7900013,17.9300011 44.1339978,18.04 44.566,18.04 C45.0060022,18.04 45.3499988,17.9280011 45.598,17.704 Z" id="&lt;-8" fill="#212121"></path>
            <path d="M205.522,11.08 C205.918002,11.280001 206.219999,11.5519983 206.428,11.896 C206.636001,12.2400017 206.74,12.6239979 206.74,13.048 C206.74,13.5040023 206.642001,13.9419979 206.446,14.362 C206.249999,14.7820021 205.924002,15.2479974 205.468,15.76 C205.011998,16.2720026 204.344004,16.9479958 203.464,17.788 L206.92,17.788 L206.752,19 L201.724,19 L201.724,17.872 C202.748005,16.8319948 203.481998,16.0620025 203.926,15.562 C204.370002,15.0619975 204.685999,14.6340018 204.874,14.278 C205.062001,13.9219982 205.156,13.5520019 205.156,13.168 C205.156,12.7999982 205.050001,12.512001 204.838,12.304 C204.625999,12.095999 204.344002,11.992 203.992,11.992 C203.679998,11.992 203.408001,12.0579993 203.176,12.19 C202.943999,12.3220007 202.700001,12.5399985 202.444,12.844 L201.496,12.1 C202.176003,11.2199956 203.047995,10.78 204.112,10.78 C204.656003,10.78 205.125998,10.879999 205.522,11.08 Z M213.772,16.828 C213.772,17.2680022 213.648001,17.6659982 213.4,18.022 C213.151999,18.3780018 212.802002,18.659999 212.35,18.868 C211.897998,19.076001 211.372003,19.18 210.772,19.18 C210.179997,19.18 209.664002,19.078001 209.224,18.874 C208.783998,18.669999 208.444001,18.3920018 208.204,18.04 C207.963999,17.6879982 207.844,17.2920022 207.844,16.852 C207.844,15.9239954 208.355995,15.2440022 209.38,14.812 C208.571996,14.3639978 208.168,13.7280041 208.168,12.904 C208.168,12.4799979 208.285999,12.1060016 208.522,11.782 C208.758001,11.4579984 209.077998,11.2100009 209.482,11.038 C209.886002,10.8659991 210.327998,10.78 210.808,10.78 C211.296002,10.78 211.739998,10.8599992 212.14,11.02 C212.540002,11.1800008 212.857999,11.4159984 213.094,11.728 C213.330001,12.0400016 213.448,12.4119978 213.448,12.844 C213.448,13.6040038 213.004004,14.2119977 212.116,14.668 C213.220006,15.1640025 213.772,15.8839953 213.772,16.828 Z M209.962,12.136 C209.757999,12.3200009 209.656,12.5839983 209.656,12.928 C209.656,13.2480016 209.751999,13.5019991 209.944,13.69 C210.136001,13.8780009 210.443998,14.0479992 210.868,14.2 L211.108,14.284 C211.420002,14.091999 211.639999,13.8880011 211.768,13.672 C211.896001,13.4559989 211.96,13.2040014 211.96,12.916 C211.96,12.5879984 211.860001,12.3300009 211.66,12.142 C211.459999,11.9539991 211.176002,11.86 210.808,11.86 C210.447998,11.86 210.166001,11.9519991 209.962,12.136 Z M211.84,17.704 C212.088001,17.4799989 212.212,17.1880018 212.212,16.828 C212.212,16.4599982 212.104001,16.1700011 211.888,15.958 C211.671999,15.7459989 211.288003,15.540001 210.736,15.34 L210.376,15.22 C209.719997,15.5560017 209.392,16.0839964 209.392,16.804 C209.392,17.1880019 209.519999,17.4899989 209.776,17.71 C210.032001,17.9300011 210.375998,18.04 210.808,18.04 C211.248002,18.04 211.591999,17.9280011 211.84,17.704 Z M223.132,14.632 L223.132,15.856 L217.516,15.856 L217.516,14.632 L223.132,14.632 Z M230.614,11.056 C231.002002,11.2400009 231.293999,11.4879984 231.49,11.8 C231.686001,12.1120016 231.784,12.4559981 231.784,12.832 C231.784,13.3200024 231.644001,13.7259984 231.364,14.05 C231.083999,14.3740016 230.700002,14.5999994 230.212,14.728 C230.748003,14.7760002 231.187998,14.9679983 231.532,15.304 C231.876002,15.6400017 232.048,16.103997 232.048,16.696 C232.048,17.1600023 231.930001,17.5799981 231.694,17.956 C231.457999,18.3320019 231.120002,18.6299989 230.68,18.85 C230.239998,19.0700011 229.720003,19.18 229.12,19.18 C228.015994,19.18 227.144003,18.7920039 226.504,18.016 L227.38,17.188 C227.620001,17.4600014 227.875999,17.6599994 228.148,17.788 C228.420001,17.9160006 228.715998,17.98 229.036,17.98 C229.468002,17.98 229.813999,17.8580012 230.074,17.614 C230.334001,17.3699988 230.464,17.0400021 230.464,16.624 C230.464,16.1599977 230.342001,15.828001 230.098,15.628 C229.853999,15.427999 229.492002,15.328 229.012,15.328 L228.376,15.328 L228.556,14.236 L228.988,14.236 C229.380002,14.236 229.693999,14.1280011 229.93,13.912 C230.166001,13.6959989 230.284,13.3960019 230.284,13.012 C230.284,12.6839984 230.176001,12.4260009 229.96,12.238 C229.743999,12.0499991 229.456002,11.956 229.096,11.956 C228.783998,11.956 228.500001,12.0139994 228.244,12.13 C227.987999,12.2460006 227.732001,12.4239988 227.476,12.664 L226.696,11.812 C227.424004,11.1239966 228.267995,10.78 229.228,10.78 C229.764003,10.78 230.225998,10.8719991 230.614,11.056 Z M236.734,11.056 C237.122002,11.2400009 237.413999,11.4879984 237.61,11.8 C237.806001,12.1120016 237.904,12.4559981 237.904,12.832 C237.904,13.3200024 237.764001,13.7259984 237.484,14.05 C237.203999,14.3740016 236.820002,14.5999994 236.332,14.728 C236.868003,14.7760002 237.307998,14.9679983 237.652,15.304 C237.996002,15.6400017 238.168,16.103997 238.168,16.696 C238.168,17.1600023 238.050001,17.5799981 237.814,17.956 C237.577999,18.3320019 237.240002,18.6299989 236.8,18.85 C236.359998,19.0700011 235.840003,19.18 235.24,19.18 C234.135994,19.18 233.264003,18.7920039 232.624,18.016 L233.5,17.188 C233.740001,17.4600014 233.995999,17.6599994 234.268,17.788 C234.540001,17.9160006 234.835998,17.98 235.156,17.98 C235.588002,17.98 235.933999,17.8580012 236.194,17.614 C236.454001,17.3699988 236.584,17.0400021 236.584,16.624 C236.584,16.1599977 236.462001,15.828001 236.218,15.628 C235.973999,15.427999 235.612002,15.328 235.132,15.328 L234.496,15.328 L234.676,14.236 L235.108,14.236 C235.500002,14.236 235.813999,14.1280011 236.05,13.912 C236.286001,13.6959989 236.404,13.3960019 236.404,13.012 C236.404,12.6839984 236.296001,12.4260009 236.08,12.238 C235.863999,12.0499991 235.576002,11.956 235.216,11.956 C234.903998,11.956 234.620001,12.0139994 234.364,12.13 C234.107999,12.2460006 233.852001,12.4239988 233.596,12.664 L232.816,11.812 C233.544004,11.1239966 234.387995,10.78 235.348,10.78 C235.884003,10.78 236.345998,10.8719991 236.734,11.056 Z" id="28-–-33" fill="#212121"></path>
            <path d="M144.082,19 L144.082,12.472 L142.282,13.564 L141.61,12.532 L144.238,10.924 L145.594,10.924 L145.594,19 L144.082,19 Z M153.106,16.828 C153.106,17.2680022 152.982001,17.6659982 152.734,18.022 C152.485999,18.3780018 152.136002,18.659999 151.684,18.868 C151.231998,19.076001 150.706003,19.18 150.106,19.18 C149.513997,19.18 148.998002,19.078001 148.558,18.874 C148.117998,18.669999 147.778001,18.3920018 147.538,18.04 C147.297999,17.6879982 147.178,17.2920022 147.178,16.852 C147.178,15.9239954 147.689995,15.2440022 148.714,14.812 C147.905996,14.3639978 147.502,13.7280041 147.502,12.904 C147.502,12.4799979 147.619999,12.1060016 147.856,11.782 C148.092001,11.4579984 148.411998,11.2100009 148.816,11.038 C149.220002,10.8659991 149.661998,10.78 150.142,10.78 C150.630002,10.78 151.073998,10.8599992 151.474,11.02 C151.874002,11.1800008 152.191999,11.4159984 152.428,11.728 C152.664001,12.0400016 152.782,12.4119978 152.782,12.844 C152.782,13.6040038 152.338004,14.2119977 151.45,14.668 C152.554006,15.1640025 153.106,15.8839953 153.106,16.828 Z M149.296,12.136 C149.091999,12.3200009 148.99,12.5839983 148.99,12.928 C148.99,13.2480016 149.085999,13.5019991 149.278,13.69 C149.470001,13.8780009 149.777998,14.0479992 150.202,14.2 L150.442,14.284 C150.754002,14.091999 150.973999,13.8880011 151.102,13.672 C151.230001,13.4559989 151.294,13.2040014 151.294,12.916 C151.294,12.5879984 151.194001,12.3300009 150.994,12.142 C150.793999,11.9539991 150.510002,11.86 150.142,11.86 C149.781998,11.86 149.500001,11.9519991 149.296,12.136 Z M151.174,17.704 C151.422001,17.4799989 151.546,17.1880018 151.546,16.828 C151.546,16.4599982 151.438001,16.1700011 151.222,15.958 C151.005999,15.7459989 150.622003,15.540001 150.07,15.34 L149.71,15.22 C149.053997,15.5560017 148.726,16.0839964 148.726,16.804 C148.726,17.1880019 148.853999,17.4899989 149.11,17.71 C149.366001,17.9300011 149.709998,18.04 150.142,18.04 C150.582002,18.04 150.925999,17.9280011 151.174,17.704 Z M162.466,14.632 L162.466,15.856 L156.85,15.856 L156.85,14.632 L162.466,14.632 Z M169.984,11.08 C170.380002,11.280001 170.681999,11.5519983 170.89,11.896 C171.098001,12.2400017 171.202,12.6239979 171.202,13.048 C171.202,13.5040023 171.104001,13.9419979 170.908,14.362 C170.711999,14.7820021 170.386002,15.2479974 169.93,15.76 C169.473998,16.2720026 168.806004,16.9479958 167.926,17.788 L171.382,17.788 L171.214,19 L166.186,19 L166.186,17.872 C167.210005,16.8319948 167.943998,16.0620025 168.388,15.562 C168.832002,15.0619975 169.147999,14.6340018 169.336,14.278 C169.524001,13.9219982 169.618,13.5520019 169.618,13.168 C169.618,12.7999982 169.512001,12.512001 169.3,12.304 C169.087999,12.095999 168.806002,11.992 168.454,11.992 C168.141998,11.992 167.870001,12.0579993 167.638,12.19 C167.405999,12.3220007 167.162001,12.5399985 166.906,12.844 L165.958,12.1 C166.638003,11.2199956 167.509995,10.78 168.574,10.78 C169.118003,10.78 169.587998,10.879999 169.984,11.08 Z M178.234,16.828 C178.234,17.2680022 178.110001,17.6659982 177.862,18.022 C177.613999,18.3780018 177.264002,18.659999 176.812,18.868 C176.359998,19.076001 175.834003,19.18 175.234,19.18 C174.641997,19.18 174.126002,19.078001 173.686,18.874 C173.245998,18.669999 172.906001,18.3920018 172.666,18.04 C172.425999,17.6879982 172.306,17.2920022 172.306,16.852 C172.306,15.9239954 172.817995,15.2440022 173.842,14.812 C173.033996,14.3639978 172.63,13.7280041 172.63,12.904 C172.63,12.4799979 172.747999,12.1060016 172.984,11.782 C173.220001,11.4579984 173.539998,11.2100009 173.944,11.038 C174.348002,10.8659991 174.789998,10.78 175.27,10.78 C175.758002,10.78 176.201998,10.8599992 176.602,11.02 C177.002002,11.1800008 177.319999,11.4159984 177.556,11.728 C177.792001,12.0400016 177.91,12.4119978 177.91,12.844 C177.91,13.6040038 177.466004,14.2119977 176.578,14.668 C177.682006,15.1640025 178.234,15.8839953 178.234,16.828 Z M174.424,12.136 C174.219999,12.3200009 174.118,12.5839983 174.118,12.928 C174.118,13.2480016 174.213999,13.5019991 174.406,13.69 C174.598001,13.8780009 174.905998,14.0479992 175.33,14.2 L175.57,14.284 C175.882002,14.091999 176.101999,13.8880011 176.23,13.672 C176.358001,13.4559989 176.422,13.2040014 176.422,12.916 C176.422,12.5879984 176.322001,12.3300009 176.122,12.142 C175.921999,11.9539991 175.638002,11.86 175.27,11.86 C174.909998,11.86 174.628001,11.9519991 174.424,12.136 Z M176.302,17.704 C176.550001,17.4799989 176.674,17.1880018 176.674,16.828 C176.674,16.4599982 176.566001,16.1700011 176.35,15.958 C176.133999,15.7459989 175.750003,15.540001 175.198,15.34 L174.838,15.22 C174.181997,15.5560017 173.854,16.0839964 173.854,16.804 C173.854,17.1880019 173.981999,17.4899989 174.238,17.71 C174.494001,17.9300011 174.837998,18.04 175.27,18.04 C175.710002,18.04 176.053999,17.9280011 176.302,17.704 Z" id="18-–-28" fill="#212121"></path>
            <path d="M90.748,16.828 C90.748,17.2680022 90.6240012,17.6659982 90.376,18.022 C90.1279988,18.3780018 89.7780023,18.659999 89.326,18.868 C88.8739977,19.076001 88.348003,19.18 87.748,19.18 C87.155997,19.18 86.6400022,19.078001 86.2,18.874 C85.7599978,18.669999 85.4200012,18.3920018 85.18,18.04 C84.9399988,17.6879982 84.82,17.2920022 84.82,16.852 C84.82,15.9239954 85.3319949,15.2440022 86.356,14.812 C85.547996,14.3639978 85.144,13.7280041 85.144,12.904 C85.144,12.4799979 85.2619988,12.1060016 85.498,11.782 C85.7340012,11.4579984 86.053998,11.2100009 86.458,11.038 C86.862002,10.8659991 87.3039976,10.78 87.784,10.78 C88.2720024,10.78 88.715998,10.8599992 89.116,11.02 C89.516002,11.1800008 89.8339988,11.4159984 90.07,11.728 C90.3060012,12.0400016 90.424,12.4119978 90.424,12.844 C90.424,13.6040038 89.9800044,14.2119977 89.092,14.668 C90.1960055,15.1640025 90.748,15.8839953 90.748,16.828 Z M86.938,12.136 C86.733999,12.3200009 86.632,12.5839983 86.632,12.928 C86.632,13.2480016 86.727999,13.5019991 86.92,13.69 C87.112001,13.8780009 87.4199979,14.0479992 87.844,14.2 L88.084,14.284 C88.3960016,14.091999 88.6159994,13.8880011 88.744,13.672 C88.8720006,13.4559989 88.936,13.2040014 88.936,12.916 C88.936,12.5879984 88.836001,12.3300009 88.636,12.142 C88.435999,11.9539991 88.1520018,11.86 87.784,11.86 C87.4239982,11.86 87.142001,11.9519991 86.938,12.136 Z M88.816,17.704 C89.0640012,17.4799989 89.188,17.1880018 89.188,16.828 C89.188,16.4599982 89.0800011,16.1700011 88.864,15.958 C88.6479989,15.7459989 88.2640028,15.540001 87.712,15.34 L87.352,15.22 C86.6959967,15.5560017 86.368,16.0839964 86.368,16.804 C86.368,17.1880019 86.4959987,17.4899989 86.752,17.71 C87.0080013,17.9300011 87.3519978,18.04 87.784,18.04 C88.2240022,18.04 88.5679988,17.9280011 88.816,17.704 Z M100.108,14.632 L100.108,15.856 L94.492,15.856 L94.492,14.632 L100.108,14.632 Z M106.168,19 L106.168,12.472 L104.368,13.564 L103.696,12.532 L106.324,10.924 L107.68,10.924 L107.68,19 L106.168,19 Z M115.192,16.828 C115.192,17.2680022 115.068001,17.6659982 114.82,18.022 C114.571999,18.3780018 114.222002,18.659999 113.77,18.868 C113.317998,19.076001 112.792003,19.18 112.192,19.18 C111.599997,19.18 111.084002,19.078001 110.644,18.874 C110.203998,18.669999 109.864001,18.3920018 109.624,18.04 C109.383999,17.6879982 109.264,17.2920022 109.264,16.852 C109.264,15.9239954 109.775995,15.2440022 110.8,14.812 C109.991996,14.3639978 109.588,13.7280041 109.588,12.904 C109.588,12.4799979 109.705999,12.1060016 109.942,11.782 C110.178001,11.4579984 110.497998,11.2100009 110.902,11.038 C111.306002,10.8659991 111.747998,10.78 112.228,10.78 C112.716002,10.78 113.159998,10.8599992 113.56,11.02 C113.960002,11.1800008 114.277999,11.4159984 114.514,11.728 C114.750001,12.0400016 114.868,12.4119978 114.868,12.844 C114.868,13.6040038 114.424004,14.2119977 113.536,14.668 C114.640006,15.1640025 115.192,15.8839953 115.192,16.828 Z M111.382,12.136 C111.177999,12.3200009 111.076,12.5839983 111.076,12.928 C111.076,13.2480016 111.171999,13.5019991 111.364,13.69 C111.556001,13.8780009 111.863998,14.0479992 112.288,14.2 L112.528,14.284 C112.840002,14.091999 113.059999,13.8880011 113.188,13.672 C113.316001,13.4559989 113.38,13.2040014 113.38,12.916 C113.38,12.5879984 113.280001,12.3300009 113.08,12.142 C112.879999,11.9539991 112.596002,11.86 112.228,11.86 C111.867998,11.86 111.586001,11.9519991 111.382,12.136 Z M113.26,17.704 C113.508001,17.4799989 113.632,17.1880018 113.632,16.828 C113.632,16.4599982 113.524001,16.1700011 113.308,15.958 C113.091999,15.7459989 112.708003,15.540001 112.156,15.34 L111.796,15.22 C111.139997,15.5560017 110.812,16.0839964 110.812,16.804 C110.812,17.1880019 110.939999,17.4899989 111.196,17.71 C111.452001,17.9300011 111.795998,18.04 112.228,18.04 C112.668002,18.04 113.011999,17.9280011 113.26,17.704 Z" id="8-–-18" fill="#212121"></path>
            <path d="M13.672,43.704 L13.672,51 L12.532,51 L12.532,43.704 L10.18,43.704 L10.18,42.732 L16.084,42.732 L15.964,43.704 L13.672,43.704 Z M21.67,45.048 C21.9940016,45.3920017 22.156,45.863997 22.156,46.464 L22.156,51 L21.052,51 L21.052,46.62 C21.052,46.1719978 20.9660009,45.8560009 20.794,45.672 C20.6219991,45.4879991 20.3720016,45.396 20.044,45.396 C19.7159984,45.396 19.4240013,45.491999 19.168,45.684 C18.9119987,45.876001 18.6720011,46.1479982 18.448,46.5 L18.448,51 L17.344,51 L17.344,42.144 L18.448,42.024 L18.448,45.552 C18.9440025,44.8719966 19.5679962,44.532 20.32,44.532 C20.8960029,44.532 21.3459984,44.7039983 21.67,45.048 Z M27.748,44.604 L27.544,45.684 C27.351999,45.6359998 27.1680009,45.612 26.992,45.612 C26.599998,45.612 26.2840012,45.7559986 26.044,46.044 C25.8039988,46.3320014 25.6160007,46.779997 25.48,47.388 L25.48,51 L24.376,51 L24.376,44.676 L25.324,44.676 L25.432,45.96 C25.6000008,45.4879976 25.8279986,45.1320012 26.116,44.892 C26.4040014,44.6519988 26.7399981,44.532 27.124,44.532 C27.3480011,44.532 27.555999,44.5559998 27.748,44.604 Z M33.64,48.216 L29.608,48.216 C29.6560002,48.9120035 29.8319985,49.4239984 30.136,49.752 C30.4400015,50.0800016 30.8319976,50.244 31.312,50.244 C31.6160015,50.244 31.8959987,50.2000004 32.152,50.112 C32.4080013,50.0239996 32.6759986,49.884001 32.956,49.692 L33.436,50.352 C32.7639966,50.8800026 32.028004,51.144 31.228,51.144 C30.3479956,51.144 29.6620025,50.8560029 29.17,50.28 C28.6779975,49.7039971 28.432,48.912005 28.432,47.904 C28.432,47.2479967 28.5379989,46.6660025 28.75,46.158 C28.9620011,45.6499975 29.265998,45.2520014 29.662,44.964 C30.058002,44.6759986 30.5239973,44.532 31.06,44.532 C31.9000042,44.532 32.5439978,44.8079972 32.992,45.36 C33.4400022,45.9120028 33.664,46.6759951 33.664,47.652 C33.664,47.8360009 33.6560001,48.023999 33.64,48.216 Z M32.572,47.328 C32.572,46.7039969 32.4480012,46.2280016 32.2,45.9 C31.9519988,45.5719984 31.5800025,45.408 31.084,45.408 C30.1799955,45.408 29.6880004,46.0719934 29.608,47.4 L32.572,47.4 L32.572,47.328 Z M39.88,50.094 C39.9680004,50.2180006 40.0999991,50.3119997 40.276,50.376 L40.024,51.144 C39.6959984,51.1039998 39.432001,51.0120007 39.232,50.868 C39.031999,50.7239993 38.8840005,50.5000015 38.788,50.196 C38.3639979,50.8280032 37.7360042,51.144 36.904,51.144 C36.2799969,51.144 35.7880018,50.9680018 35.428,50.616 C35.0679982,50.2639982 34.888,49.8040028 34.888,49.236 C34.888,48.5639966 35.1299976,48.0480018 35.614,47.688 C36.0980024,47.3279982 36.7839956,47.148 37.672,47.148 L38.644,47.148 L38.644,46.68 C38.644,46.2319978 38.5360011,45.912001 38.32,45.72 C38.1039989,45.527999 37.7720022,45.432 37.324,45.432 C36.8599977,45.432 36.2920034,45.5439989 35.62,45.768 L35.344,44.964 C36.1280039,44.6759986 36.8559966,44.532 37.528,44.532 C38.2720037,44.532 38.8279982,44.7139982 39.196,45.078 C39.5640018,45.4420018 39.748,45.9599966 39.748,46.632 L39.748,49.524 C39.748,49.7800013 39.7919996,49.9699994 39.88,50.094 Z M38.644,49.332 L38.644,47.88 L37.816,47.88 C36.6479942,47.88 36.064,48.3119957 36.064,49.176 C36.064,49.5520019 36.1559991,49.835999 36.34,50.028 C36.5240009,50.220001 36.7959982,50.316 37.156,50.316 C37.7880032,50.316 38.2839982,49.9880033 38.644,49.332 Z M43.792,51.144 C43.2559973,51.144 42.8380015,50.9900015 42.538,50.682 C42.2379985,50.3739985 42.088,49.9280029 42.088,49.344 L42.088,45.528 L40.984,45.528 L40.984,44.676 L42.088,44.676 L42.088,43.248 L43.192,43.116 L43.192,44.676 L44.692,44.676 L44.572,45.528 L43.192,45.528 L43.192,49.296 C43.192,49.6240016 43.2499994,49.8619993 43.366,50.01 C43.4820006,50.1580007 43.6759986,50.232 43.948,50.232 C44.2120013,50.232 44.4919985,50.1400009 44.788,49.956 L45.208,50.712 C44.7919979,51.0000014 44.3200026,51.144 43.792,51.144 Z M50.98,48.216 L46.948,48.216 C46.9960002,48.9120035 47.1719985,49.4239984 47.476,49.752 C47.7800015,50.0800016 48.1719976,50.244 48.652,50.244 C48.9560015,50.244 49.2359987,50.2000004 49.492,50.112 C49.7480013,50.0239996 50.0159986,49.884001 50.296,49.692 L50.776,50.352 C50.1039966,50.8800026 49.368004,51.144 48.568,51.144 C47.6879956,51.144 47.0020025,50.8560029 46.51,50.28 C46.0179975,49.7039971 45.772,48.912005 45.772,47.904 C45.772,47.2479967 45.8779989,46.6660025 46.09,46.158 C46.3020011,45.6499975 46.605998,45.2520014 47.002,44.964 C47.398002,44.6759986 47.8639973,44.532 48.4,44.532 C49.2400042,44.532 49.8839978,44.8079972 50.332,45.36 C50.7800022,45.9120028 51.004,46.6759951 51.004,47.652 C51.004,47.8360009 50.9960001,48.023999 50.98,48.216 Z M49.912,47.328 C49.912,46.7039969 49.7880012,46.2280016 49.54,45.9 C49.2919988,45.5719984 48.9200025,45.408 48.424,45.408 C47.5199955,45.408 47.0280004,46.0719934 46.948,47.4 L49.912,47.4 L49.912,47.328 Z M57.154,45.048 C57.4780016,45.3920017 57.64,45.863997 57.64,46.464 L57.64,51 L56.536,51 L56.536,46.62 C56.536,46.1719978 56.4520008,45.8560009 56.284,45.672 C56.1159992,45.4879991 55.8680016,45.396 55.54,45.396 C55.2039983,45.396 54.9080013,45.491999 54.652,45.684 C54.3959987,45.876001 54.1560011,46.1519982 53.932,46.512 L53.932,51 L52.828,51 L52.828,44.676 L53.776,44.676 L53.872,45.612 C54.0960011,45.2759983 54.3739983,45.012001 54.706,44.82 C55.0380017,44.627999 55.403998,44.532 55.804,44.532 C56.3800029,44.532 56.8299984,44.7039983 57.154,45.048 Z M64.612,48.216 L60.58,48.216 C60.6280002,48.9120035 60.8039985,49.4239984 61.108,49.752 C61.4120015,50.0800016 61.8039976,50.244 62.284,50.244 C62.5880015,50.244 62.8679987,50.2000004 63.124,50.112 C63.3800013,50.0239996 63.6479986,49.884001 63.928,49.692 L64.408,50.352 C63.7359966,50.8800026 63.000004,51.144 62.2,51.144 C61.3199956,51.144 60.6340025,50.8560029 60.142,50.28 C59.6499975,49.7039971 59.404,48.912005 59.404,47.904 C59.404,47.2479967 59.5099989,46.6660025 59.722,46.158 C59.9340011,45.6499975 60.237998,45.2520014 60.634,44.964 C61.030002,44.6759986 61.4959973,44.532 62.032,44.532 C62.8720042,44.532 63.5159978,44.8079972 63.964,45.36 C64.4120022,45.9120028 64.636,46.6759951 64.636,47.652 C64.636,47.8360009 64.6280001,48.023999 64.612,48.216 Z M63.544,47.328 C63.544,46.7039969 63.4200012,46.2280016 63.172,45.9 C62.9239988,45.5719984 62.5520025,45.408 62.056,45.408 C61.1519955,45.408 60.6600004,46.0719934 60.58,47.4 L63.544,47.4 L63.544,47.328 Z M71.356,51 L70.384,51 L70.276,50.124 C70.067999,50.4440016 69.8080016,50.6939991 69.496,50.874 C69.1839984,51.0540009 68.8360019,51.144 68.452,51.144 C67.6999962,51.144 67.1140021,50.848003 66.694,50.256 C66.2739979,49.663997 66.064,48.868005 66.064,47.868 C66.064,47.2199968 66.163999,46.6440025 66.364,46.14 C66.564001,45.6359975 66.8519981,45.2420014 67.228,44.958 C67.6040019,44.6739986 68.0439975,44.532 68.548,44.532 C69.1960032,44.532 69.7639976,44.7919974 70.252,45.312 L70.252,42 L71.356,42.132 L71.356,51 Z M69.556,50.034 C69.7960012,49.8779992 70.0279989,49.6440016 70.252,49.332 L70.252,46.236 C70.043999,45.9639986 69.8220012,45.7580007 69.586,45.618 C69.3499988,45.4779993 69.0840015,45.408 68.788,45.408 C68.2999976,45.408 67.9220013,45.611998 67.654,46.02 C67.3859987,46.428002 67.252,47.035996 67.252,47.844 C67.252,48.6600041 67.3759988,49.267998 67.624,49.668 C67.8720012,50.068002 68.2279977,50.268 68.692,50.268 C69.0280017,50.268 69.3159988,50.1900008 69.556,50.034 Z M81.022,42.78 C81.3620017,42.9080006 81.7079982,43.1159986 82.06,43.404 L81.436,44.136 C80.9319975,43.727998 80.4000028,43.524 79.84,43.524 C79.1519966,43.524 78.5980021,43.7879974 78.178,44.316 C77.7579979,44.8440026 77.548,45.6919942 77.548,46.86 C77.548,47.9960057 77.7559979,48.8339973 78.172,49.374 C78.5880021,49.9140027 79.1399966,50.184 79.828,50.184 C80.1800018,50.184 80.4839987,50.1240006 80.74,50.004 C80.9960013,49.8839994 81.2759985,49.7120011 81.58,49.488 L82.156,50.22 C81.9079988,50.4840013 81.582002,50.7039991 81.178,50.88 C80.773998,51.0560009 80.3120026,51.144 79.792,51.144 C79.1199966,51.144 78.5220026,50.9780017 77.998,50.646 C77.4739974,50.3139983 77.0660015,49.8260032 76.774,49.182 C76.4819985,48.5379968 76.336,47.7640045 76.336,46.86 C76.336,45.9559955 76.4879985,45.1820032 76.792,44.538 C77.0960015,43.8939968 77.5079974,43.4080016 78.028,43.08 C78.5480026,42.7519984 79.1279968,42.588 79.768,42.588 C80.2640025,42.588 80.6819983,42.6519994 81.022,42.78 Z M87.862,45.048 C88.1860016,45.3920017 88.348,45.863997 88.348,46.464 L88.348,51 L87.244,51 L87.244,46.62 C87.244,46.1719978 87.1580009,45.8560009 86.986,45.672 C86.8139991,45.4879991 86.5640016,45.396 86.236,45.396 C85.9079984,45.396 85.6160013,45.491999 85.36,45.684 C85.1039987,45.876001 84.8640011,46.1479982 84.64,46.5 L84.64,51 L83.536,51 L83.536,42.144 L84.64,42.024 L84.64,45.552 C85.1360025,44.8719966 85.7599962,44.532 86.512,44.532 C87.0880029,44.532 87.5379984,44.7039983 87.862,45.048 Z M95.014,45.42 C95.5060025,46.012003 95.752,46.8159949 95.752,47.832 C95.752,48.4880033 95.6400011,49.0659975 95.416,49.566 C95.1919989,50.0660025 94.8680021,50.4539986 94.444,50.73 C94.0199979,51.0060014 93.5160029,51.144 92.932,51.144 C92.0439956,51.144 91.3520025,50.848003 90.856,50.256 C90.3599975,49.663997 90.112,48.8600051 90.112,47.844 C90.112,47.1879967 90.2239989,46.6100025 90.448,46.11 C90.6720011,45.6099975 90.9959979,45.2220014 91.42,44.946 C91.8440021,44.6699986 92.351997,44.532 92.944,44.532 C93.8320044,44.532 94.5219975,44.827997 95.014,45.42 Z M91.3,47.844 C91.3,49.452008 91.8439946,50.256 92.932,50.256 C94.0200054,50.256 94.564,49.4480081 94.564,47.832 C94.564,46.223992 94.0240054,45.42 92.944,45.42 C91.8479945,45.42 91.3,46.2279919 91.3,47.844 Z M101.902,45.048 C102.226002,45.3920017 102.388,45.863997 102.388,46.464 L102.388,51 L101.284,51 L101.284,46.62 C101.284,46.1719978 101.200001,45.8560009 101.032,45.672 C100.863999,45.4879991 100.616002,45.396 100.288,45.396 C99.9519983,45.396 99.6560013,45.491999 99.4,45.684 C99.1439987,45.876001 98.9040011,46.1519982 98.68,46.512 L98.68,51 L97.576,51 L97.576,44.676 L98.524,44.676 L98.62,45.612 C98.8440011,45.2759983 99.1219983,45.012001 99.454,44.82 C99.7860017,44.627999 100.151998,44.532 100.552,44.532 C101.128003,44.532 101.577998,44.7039983 101.902,45.048 Z M109.504,51 L108.532,51 L108.424,50.124 C108.215999,50.4440016 107.956002,50.6939991 107.644,50.874 C107.331998,51.0540009 106.984002,51.144 106.6,51.144 C105.847996,51.144 105.262002,50.848003 104.842,50.256 C104.421998,49.663997 104.212,48.868005 104.212,47.868 C104.212,47.2199968 104.311999,46.6440025 104.512,46.14 C104.712001,45.6359975 104.999998,45.2420014 105.376,44.958 C105.752002,44.6739986 106.191997,44.532 106.696,44.532 C107.344003,44.532 107.911998,44.7919974 108.4,45.312 L108.4,42 L109.504,42.132 L109.504,51 Z M107.704,50.034 C107.944001,49.8779992 108.175999,49.6440016 108.4,49.332 L108.4,46.236 C108.191999,45.9639986 107.970001,45.7580007 107.734,45.618 C107.497999,45.4779993 107.232001,45.408 106.936,45.408 C106.447998,45.408 106.070001,45.611998 105.802,46.02 C105.533999,46.428002 105.4,47.035996 105.4,47.844 C105.4,48.6600041 105.523999,49.267998 105.772,49.668 C106.020001,50.068002 106.375998,50.268 106.84,50.268 C107.176002,50.268 107.463999,50.1900008 107.704,50.034 Z M115.156,44.604 L114.952,45.684 C114.759999,45.6359998 114.576001,45.612 114.4,45.612 C114.007998,45.612 113.692001,45.7559986 113.452,46.044 C113.211999,46.3320014 113.024001,46.779997 112.888,47.388 L112.888,51 L111.784,51 L111.784,44.676 L112.732,44.676 L112.84,45.96 C113.008001,45.4879976 113.235999,45.1320012 113.524,44.892 C113.812001,44.6519988 114.147998,44.532 114.532,44.532 C114.756001,44.532 114.963999,44.5559998 115.156,44.604 Z M116.416,51 L116.416,44.676 L117.52,44.676 L117.52,51 L116.416,51 Z M117.52,41.856 C117.664001,42.0000007 117.736,42.1799989 117.736,42.396 C117.736,42.6120011 117.664001,42.7899993 117.52,42.93 C117.375999,43.0700007 117.188001,43.14 116.956,43.14 C116.731999,43.14 116.548001,43.0700007 116.404,42.93 C116.259999,42.7899993 116.188,42.6120011 116.188,42.396 C116.188,42.1799989 116.259999,42.0000007 116.404,41.856 C116.548001,41.7119993 116.731999,41.64 116.956,41.64 C117.188001,41.64 117.375999,41.7119993 117.52,41.856 Z M123.136,44.694 C123.448002,44.8020005 123.747999,44.9759988 124.036,45.216 L123.496,45.936 C123.279999,45.7679992 123.068001,45.6440004 122.86,45.564 C122.651999,45.4839996 122.416001,45.444 122.152,45.444 C121.639997,45.444 121.242001,45.647998 120.958,46.056 C120.673999,46.464002 120.532,47.067996 120.532,47.868 C120.532,48.668004 120.671999,49.2579981 120.952,49.638 C121.232001,50.0180019 121.631997,50.208 122.152,50.208 C122.408001,50.208 122.637999,50.1680004 122.842,50.088 C123.046001,50.0079996 123.267999,49.8760009 123.508,49.692 L124.036,50.448 C123.459997,50.9120023 122.816004,51.144 122.104,51.144 C121.247996,51.144 120.574002,50.8560029 120.082,50.28 C119.589998,49.7039971 119.344,48.9080051 119.344,47.892 C119.344,47.2199966 119.455999,46.6320025 119.68,46.128 C119.904001,45.6239975 120.221998,45.2320014 120.634,44.952 C121.046002,44.6719986 121.535997,44.532 122.104,44.532 C122.480002,44.532 122.823998,44.5859995 123.136,44.694 Z M129.862,45.048 C130.186002,45.3920017 130.348,45.863997 130.348,46.464 L130.348,51 L129.244,51 L129.244,46.62 C129.244,46.1719978 129.158001,45.8560009 128.986,45.672 C128.813999,45.4879991 128.564002,45.396 128.236,45.396 C127.907998,45.396 127.616001,45.491999 127.36,45.684 C127.103999,45.876001 126.864001,46.1479982 126.64,46.5 L126.64,51 L125.536,51 L125.536,42.144 L126.64,42.024 L126.64,45.552 C127.136002,44.8719966 127.759996,44.532 128.512,44.532 C129.088003,44.532 129.537998,44.7039983 129.862,45.048 Z M134.344,51.144 C133.807997,51.144 133.390002,50.9900015 133.09,50.682 C132.789999,50.3739985 132.64,49.9280029 132.64,49.344 L132.64,45.528 L131.536,45.528 L131.536,44.676 L132.64,44.676 L132.64,43.248 L133.744,43.116 L133.744,44.676 L135.244,44.676 L135.124,45.528 L133.744,45.528 L133.744,49.296 C133.744,49.6240016 133.801999,49.8619993 133.918,50.01 C134.034001,50.1580007 134.227999,50.232 134.5,50.232 C134.764001,50.232 135.043999,50.1400009 135.34,49.956 L135.76,50.712 C135.343998,51.0000014 134.872003,51.144 134.344,51.144 Z M141.226,45.048 C141.550002,45.3920017 141.712,45.863997 141.712,46.464 L141.712,51 L140.608,51 L140.608,46.62 C140.608,46.1719978 140.522001,45.8560009 140.35,45.672 C140.177999,45.4879991 139.928002,45.396 139.6,45.396 C139.271998,45.396 138.980001,45.491999 138.724,45.684 C138.467999,45.876001 138.228001,46.1479982 138.004,46.5 L138.004,51 L136.9,51 L136.9,42.144 L138.004,42.024 L138.004,45.552 C138.500002,44.8719966 139.123996,44.532 139.876,44.532 C140.452003,44.532 140.901998,44.7039983 141.226,45.048 Z M145.306,52.782 C144.861998,53.2100021 144.228004,53.4679996 143.404,53.556 L143.284,52.692 C143.700002,52.6199996 144.031999,52.5160007 144.28,52.38 C144.528001,52.2439993 144.725999,52.0700011 144.874,51.858 C145.022001,51.6459989 145.159999,51.3600018 145.288,51 L144.916,51 L142.792,44.676 L143.968,44.676 L145.66,50.196 L147.316,44.676 L148.456,44.676 L146.344,51.036 C146.095999,51.7720037 145.750002,52.3539979 145.306,52.782 Z M154.108,50.094 C154.196,50.2180006 154.327999,50.3119997 154.504,50.376 L154.252,51.144 C153.923998,51.1039998 153.660001,51.0120007 153.46,50.868 C153.259999,50.7239993 153.112,50.5000015 153.016,50.196 C152.591998,50.8280032 151.964004,51.144 151.132,51.144 C150.507997,51.144 150.016002,50.9680018 149.656,50.616 C149.295998,50.2639982 149.116,49.8040028 149.116,49.236 C149.116,48.5639966 149.357998,48.0480018 149.842,47.688 C150.326002,47.3279982 151.011996,47.148 151.9,47.148 L152.872,47.148 L152.872,46.68 C152.872,46.2319978 152.764001,45.912001 152.548,45.72 C152.331999,45.527999 152.000002,45.432 151.552,45.432 C151.087998,45.432 150.520003,45.5439989 149.848,45.768 L149.572,44.964 C150.356004,44.6759986 151.083997,44.532 151.756,44.532 C152.500004,44.532 153.055998,44.7139982 153.424,45.078 C153.792002,45.4420018 153.976,45.9599966 153.976,46.632 L153.976,49.524 C153.976,49.7800013 154.02,49.9699994 154.108,50.094 Z M152.872,49.332 L152.872,47.88 L152.044,47.88 C150.875994,47.88 150.292,48.3119957 150.292,49.176 C150.292,49.5520019 150.383999,49.835999 150.568,50.028 C150.752001,50.220001 151.023998,50.316 151.384,50.316 C152.016003,50.316 152.511998,49.9880033 152.872,49.332 Z M160.57,45.048 C160.894002,45.3920017 161.056,45.863997 161.056,46.464 L161.056,51 L159.952,51 L159.952,46.62 C159.952,46.1719978 159.868001,45.8560009 159.7,45.672 C159.531999,45.4879991 159.284002,45.396 158.956,45.396 C158.619998,45.396 158.324001,45.491999 158.068,45.684 C157.811999,45.876001 157.572001,46.1519982 157.348,46.512 L157.348,51 L156.244,51 L156.244,44.676 L157.192,44.676 L157.288,45.612 C157.512001,45.2759983 157.789998,45.012001 158.122,44.82 C158.454002,44.627999 158.819998,44.532 159.22,44.532 C159.796003,44.532 160.245998,44.7039983 160.57,45.048 Z M166.156,44.712 C166.500002,44.8320006 166.827998,45.0119988 167.14,45.252 L166.66,45.984 C166.379999,45.783999 166.110001,45.6380005 165.85,45.546 C165.589999,45.4539995 165.316001,45.408 165.028,45.408 C164.667998,45.408 164.384001,45.4819993 164.176,45.63 C163.967999,45.7780007 163.864,45.9799987 163.864,46.236 C163.864,46.4920013 163.961999,46.6919993 164.158,46.836 C164.354001,46.9800007 164.707997,47.1199993 165.22,47.256 C165.924004,47.4320009 166.449998,47.6719985 166.798,47.976 C167.146002,48.2800015 167.32,48.6959974 167.32,49.224 C167.32,49.8480031 167.078002,50.3239984 166.594,50.652 C166.109998,50.9800016 165.520003,51.144 164.824,51.144 C163.863995,51.144 163.068003,50.8680028 162.436,50.316 L163.048,49.62 C163.544002,50.0440021 164.127997,50.256 164.8,50.256 C165.208002,50.256 165.535999,50.1720008 165.784,50.004 C166.032001,49.8359992 166.156,49.6120014 166.156,49.332 C166.156,49.1079989 166.112,48.9260007 166.024,48.786 C165.936,48.6459993 165.786001,48.5260005 165.574,48.426 C165.361999,48.3259995 165.044002,48.2200006 164.62,48.108 C163.947997,47.9319991 163.462001,47.6940015 163.162,47.394 C162.861998,47.0939985 162.712,46.7160023 162.712,46.26 C162.712,45.9319984 162.809999,45.6360013 163.006,45.372 C163.202001,45.1079987 163.473998,44.9020007 163.822,44.754 C164.170002,44.6059993 164.559998,44.532 164.992,44.532 C165.424002,44.532 165.811998,44.5919994 166.156,44.712 Z" id="Threatened-Chondrich" fill="#212121"></path>
            <rect id="Rectangle-6" fill-opacity="0.6" fill="#FAE5E5" x="9" y="25" width="60" height="10"></rect>
            <polygon id="Rectangle-6" fill-opacity="0.6" fill="#FD3030" points="189 25 231.628906 25 249 25 249 35 189 35"></polygon>
            <path d="M272.948,15.724 L268.328,17.788 L267.824,16.624 L271.664,15.004 L267.824,13.36 L268.328,12.22 L272.948,14.296 L272.948,15.724 Z M280.61,11.056 C280.998002,11.2400009 281.289999,11.4879984 281.486,11.8 C281.682001,12.1120016 281.78,12.4559981 281.78,12.832 C281.78,13.3200024 281.640001,13.7259984 281.36,14.05 C281.079999,14.3740016 280.696002,14.5999994 280.208,14.728 C280.744003,14.7760002 281.183998,14.9679983 281.528,15.304 C281.872002,15.6400017 282.044,16.103997 282.044,16.696 C282.044,17.1600023 281.926001,17.5799981 281.69,17.956 C281.453999,18.3320019 281.116002,18.6299989 280.676,18.85 C280.235998,19.0700011 279.716003,19.18 279.116,19.18 C278.011994,19.18 277.140003,18.7920039 276.5,18.016 L277.376,17.188 C277.616001,17.4600014 277.871999,17.6599994 278.144,17.788 C278.416001,17.9160006 278.711998,17.98 279.032,17.98 C279.464002,17.98 279.809999,17.8580012 280.07,17.614 C280.330001,17.3699988 280.46,17.0400021 280.46,16.624 C280.46,16.1599977 280.338001,15.828001 280.094,15.628 C279.849999,15.427999 279.488002,15.328 279.008,15.328 L278.372,15.328 L278.552,14.236 L278.984,14.236 C279.376002,14.236 279.689999,14.1280011 279.926,13.912 C280.162001,13.6959989 280.28,13.3960019 280.28,13.012 C280.28,12.6839984 280.172001,12.4260009 279.956,12.238 C279.739999,12.0499991 279.452002,11.956 279.092,11.956 C278.779998,11.956 278.496001,12.0139994 278.24,12.13 C277.983999,12.2460006 277.728001,12.4239988 277.472,12.664 L276.692,11.812 C277.420004,11.1239966 278.263995,10.78 279.224,10.78 C279.760003,10.78 280.221998,10.8719991 280.61,11.056 Z M286.73,11.056 C287.118002,11.2400009 287.409999,11.4879984 287.606,11.8 C287.802001,12.1120016 287.9,12.4559981 287.9,12.832 C287.9,13.3200024 287.760001,13.7259984 287.48,14.05 C287.199999,14.3740016 286.816002,14.5999994 286.328,14.728 C286.864003,14.7760002 287.303998,14.9679983 287.648,15.304 C287.992002,15.6400017 288.164,16.103997 288.164,16.696 C288.164,17.1600023 288.046001,17.5799981 287.81,17.956 C287.573999,18.3320019 287.236002,18.6299989 286.796,18.85 C286.355998,19.0700011 285.836003,19.18 285.236,19.18 C284.131994,19.18 283.260003,18.7920039 282.62,18.016 L283.496,17.188 C283.736001,17.4600014 283.991999,17.6599994 284.264,17.788 C284.536001,17.9160006 284.831998,17.98 285.152,17.98 C285.584002,17.98 285.929999,17.8580012 286.19,17.614 C286.450001,17.3699988 286.58,17.0400021 286.58,16.624 C286.58,16.1599977 286.458001,15.828001 286.214,15.628 C285.969999,15.427999 285.608002,15.328 285.128,15.328 L284.492,15.328 L284.672,14.236 L285.104,14.236 C285.496002,14.236 285.809999,14.1280011 286.046,13.912 C286.282001,13.6959989 286.4,13.3960019 286.4,13.012 C286.4,12.6839984 286.292001,12.4260009 286.076,12.238 C285.859999,12.0499991 285.572002,11.956 285.212,11.956 C284.899998,11.956 284.616001,12.0139994 284.36,12.13 C284.103999,12.2460006 283.848001,12.4239988 283.592,12.664 L282.812,11.812 C283.540004,11.1239966 284.383995,10.78 285.344,10.78 C285.880003,10.78 286.341998,10.8719991 286.73,11.056 Z" id="&gt;-33" fill="#212121"></path>
            <polygon id="Rectangle-6" fill-opacity="0.6" fill="#F70207" points="249 25 291.628906 25 309 25 309 35 249 35"></polygon>
            <rect id="Rectangle-6" fill-opacity="0.6" fill="#FF7575" x="129" y="25" width="60" height="10"></rect>
            <rect id="Rectangle-6" fill-opacity="0.6" fill="#FCAE91" x="69" y="25" width="60" height="10"></rect>
        </g>
    </g>
</svg>