<?xml version="1.0" encoding="UTF-8" standalone="no"?>
<svg width="319px" height="64px" viewBox="0 0 319 64" version="1.1" xmlns="http://www.w3.org/2000/svg" xmlns:xlink="http://www.w3.org/1999/xlink">
    <!-- Generator: Sketch 47.1 (45422) - http://www.bohemiancoding.com/sketch -->
    <title>infograph/legend_map-deficient-chondrichthyans</title>
    <desc>Created with Sketch.</desc>
    <defs></defs>
    <g id="Symbols" stroke="none" stroke-width="1" fill="none" fill-rule="evenodd">
        <g id="infograph/legend_map-deficient-chondrichthyans">
            <rect id="Rectangle-2" fill-opacity="0.5" fill="#FFFFFF" x="0" y="0" width="319" height="64" rx="4"></rect>
            <path d="M34.156,15.004 L38.008,16.624 L37.504,17.788 L32.884,15.724 L32.884,14.296 L37.504,12.22 L38.008,13.36 L34.156,15.004 Z M45.67,11.056 C46.0580019,11.2400009 46.349999,11.4879984 46.546,11.8 C46.742001,12.1120016 46.84,12.4559981 46.84,12.832 C46.84,13.3200024 46.7000014,13.7259984 46.42,14.05 C46.1399986,14.3740016 45.7560024,14.5999994 45.268,14.728 C45.8040027,14.7760002 46.2439983,14.9679983 46.588,15.304 C46.9320017,15.6400017 47.104,16.103997 47.104,16.696 C47.104,17.1600023 46.9860012,17.5799981 46.75,17.956 C46.5139988,18.3320019 46.1760022,18.6299989 45.736,18.85 C45.2959978,19.0700011 44.776003,19.18 44.176,19.18 C43.0719945,19.18 42.2000032,18.7920039 41.56,18.016 L42.436,17.188 C42.6760012,17.4600014 42.9319986,17.6599994 43.204,17.788 C43.4760014,17.9160006 43.7719984,17.98 44.092,17.98 C44.5240022,17.98 44.8699987,17.8580012 45.13,17.614 C45.3900013,17.3699988 45.52,17.0400021 45.52,16.624 C45.52,16.1599977 45.3980012,15.828001 45.154,15.628 C44.9099988,15.427999 44.5480024,15.328 44.068,15.328 L43.432,15.328 L43.612,14.236 L44.044,14.236 C44.436002,14.236 44.7499988,14.1280011 44.986,13.912 C45.2220012,13.6959989 45.34,13.3960019 45.34,13.012 C45.34,12.6839984 45.2320011,12.4260009 45.016,12.238 C44.7999989,12.0499991 44.5120018,11.956 44.152,11.956 C43.8399984,11.956 43.5560013,12.0139994 43.3,12.13 C43.0439987,12.2460006 42.7880013,12.4239988 42.532,12.664 L41.752,11.812 C42.4800036,11.1239966 43.3239952,10.78 44.284,10.78 C44.8200027,10.78 45.2819981,10.8719991 45.67,11.056 Z" id="&lt;-3" fill="#212121"></path>
            <path d="M210.094,19.156 L208.69,18.7 L211.498,12.112 L208.09,12.112 L208.09,10.924 L213.082,10.924 L213.082,12.004 L210.094,19.156 Z M222.286,14.632 L222.286,15.856 L216.67,15.856 L216.67,14.632 L222.286,14.632 Z M230.926,11.626 C231.414002,12.1900028 231.658,12.9519952 231.658,13.912 C231.658,15.0080055 231.494002,15.9059965 231.166,16.606 C230.837998,17.3060035 230.334003,17.8639979 229.654,18.28 C228.973997,18.6960021 228.074006,19.0359987 226.954,19.3 L226.63,18.208 C227.686005,17.9359986 228.489997,17.5740023 229.042,17.122 C229.594003,16.6699977 229.918,16.0600038 230.014,15.292 C229.581998,15.8600028 229.006004,16.144 228.286,16.144 C227.869998,16.144 227.488002,16.0380011 227.14,15.826 C226.791998,15.6139989 226.518001,15.308002 226.318,14.908 C226.117999,14.507998 226.018,14.0440026 226.018,13.516 C226.018,12.9639972 226.141999,12.4820021 226.39,12.07 C226.638001,11.6579979 226.975998,11.3400011 227.404,11.116 C227.832002,10.8919989 228.305997,10.78 228.826,10.78 C229.738005,10.78 230.437998,11.0619972 230.926,11.626 Z M230.086,14.188 C230.094,13.3719959 230.000001,12.7900017 229.804,12.442 C229.607999,12.0939983 229.282002,11.92 228.826,11.92 C228.425998,11.92 228.114001,12.0559986 227.89,12.328 C227.665999,12.6000014 227.554,12.9879975 227.554,13.492 C227.554,14.0200026 227.659999,14.4079988 227.872,14.656 C228.084001,14.9040012 228.361998,15.028 228.706,15.028 C229.258003,15.028 229.717998,14.7480028 230.086,14.188 Z" id="7-–-9" fill="#212121"></path>
            <path d="M150.262,12.064 L150.262,14.068 C150.662002,13.867999 151.069998,13.768 151.486,13.768 C151.934002,13.768 152.333998,13.871999 152.686,14.08 C153.038002,14.288001 153.311999,14.587998 153.508,14.98 C153.704001,15.372002 153.802,15.8359973 153.802,16.372 C153.802,16.9240028 153.678001,17.4119979 153.43,17.836 C153.181999,18.2600021 152.830002,18.5899988 152.374,18.826 C151.917998,19.0620012 151.390003,19.18 150.79,19.18 C150.253997,19.18 149.780002,19.082001 149.368,18.886 C148.955998,18.689999 148.582002,18.4080018 148.246,18.04 L149.134,17.212 C149.582002,17.7320026 150.121997,17.992 150.754,17.992 C151.210002,17.992 151.567999,17.8520014 151.828,17.572 C152.088001,17.2919986 152.218,16.8920026 152.218,16.372 C152.218,15.371995 151.786004,14.872 150.922,14.872 C150.737999,14.872 150.566001,14.8939998 150.406,14.938 C150.245999,14.9820002 150.070001,15.0519995 149.878,15.148 L148.786,15.148 L148.786,10.924 L153.466,10.924 L153.286,12.064 L150.262,12.064 Z M163.186,14.632 L163.186,15.856 L157.57,15.856 L157.57,14.632 L163.186,14.632 Z M168.718,19.156 L167.314,18.7 L170.122,12.112 L166.714,12.112 L166.714,10.924 L171.706,10.924 L171.706,12.004 L168.718,19.156 Z" id="5-–-7" fill="#212121"></path>
            <path d="M91.87,11.056 C92.2580019,11.2400009 92.549999,11.4879984 92.746,11.8 C92.942001,12.1120016 93.04,12.4559981 93.04,12.832 C93.04,13.3200024 92.9000014,13.7259984 92.62,14.05 C92.3399986,14.3740016 91.9560024,14.5999994 91.468,14.728 C92.0040027,14.7760002 92.4439983,14.9679983 92.788,15.304 C93.1320017,15.6400017 93.304,16.103997 93.304,16.696 C93.304,17.1600023 93.1860012,17.5799981 92.95,17.956 C92.7139988,18.3320019 92.3760022,18.6299989 91.936,18.85 C91.4959978,19.0700011 90.976003,19.18 90.376,19.18 C89.2719945,19.18 88.4000032,18.7920039 87.76,18.016 L88.636,17.188 C88.8760012,17.4600014 89.1319986,17.6599994 89.404,17.788 C89.6760014,17.9160006 89.9719984,17.98 90.292,17.98 C90.7240022,17.98 91.0699987,17.8580012 91.33,17.614 C91.5900013,17.3699988 91.72,17.0400021 91.72,16.624 C91.72,16.1599977 91.5980012,15.828001 91.354,15.628 C91.1099988,15.427999 90.7480024,15.328 90.268,15.328 L89.632,15.328 L89.812,14.236 L90.244,14.236 C90.636002,14.236 90.9499988,14.1280011 91.186,13.912 C91.4220012,13.6959989 91.54,13.3960019 91.54,13.012 C91.54,12.6839984 91.4320011,12.4260009 91.216,12.238 C90.9999989,12.0499991 90.7120018,11.956 90.352,11.956 C90.0399984,11.956 89.7560013,12.0139994 89.5,12.13 C89.2439987,12.2460006 88.9880013,12.4239988 88.732,12.664 L87.952,11.812 C88.6800036,11.1239966 89.5239952,10.78 90.484,10.78 C91.0200027,10.78 91.4819981,10.8719991 91.87,11.056 Z M102.748,14.632 L102.748,15.856 L97.132,15.856 L97.132,14.632 L102.748,14.632 Z M108.304,12.064 L108.304,14.068 C108.704002,13.867999 109.111998,13.768 109.528,13.768 C109.976002,13.768 110.375998,13.871999 110.728,14.08 C111.080002,14.288001 111.353999,14.587998 111.55,14.98 C111.746001,15.372002 111.844,15.8359973 111.844,16.372 C111.844,16.9240028 111.720001,17.4119979 111.472,17.836 C111.223999,18.2600021 110.872002,18.5899988 110.416,18.826 C109.959998,19.0620012 109.432003,19.18 108.832,19.18 C108.295997,19.18 107.822002,19.082001 107.41,18.886 C106.997998,18.689999 106.624002,18.4080018 106.288,18.04 L107.176,17.212 C107.624002,17.7320026 108.163997,17.992 108.796,17.992 C109.252002,17.992 109.609999,17.8520014 109.87,17.572 C110.130001,17.2919986 110.26,16.8920026 110.26,16.372 C110.26,15.371995 109.828004,14.872 108.964,14.872 C108.779999,14.872 108.608001,14.8939998 108.448,14.938 C108.287999,14.9820002 108.112001,15.0519995 107.92,15.148 L106.828,15.148 L106.828,10.924 L111.508,10.924 L111.328,12.064 L108.304,12.064 Z" id="3-–-5" fill="#212121"></path>
            <path d="M15.934,43.602 C16.6900038,44.1820029 17.068,45.2559922 17.068,46.824 C17.068,48.3520076 16.6900038,49.4299969 15.934,50.058 C15.1779962,50.6860031 14.2600054,51 13.18,51 L11.2,51 L11.2,42.732 L12.928,42.732 C14.1760062,42.732 15.1779962,43.0219971 15.934,43.602 Z M12.34,50.1 L13.264,50.1 C14.0320038,50.1 14.6559976,49.8640024 15.136,49.392 C15.6160024,48.9199976 15.856,48.0640062 15.856,46.824 C15.856,45.9519956 15.7320012,45.2820023 15.484,44.814 C15.2359988,44.3459977 14.9200019,44.0340008 14.536,43.878 C14.1519981,43.7219992 13.7000026,43.644 13.18,43.644 L12.34,43.644 L12.34,50.1 Z M23.14,50.094 C23.2280004,50.2180006 23.3599991,50.3119997 23.536,50.376 L23.284,51.144 C22.9559984,51.1039998 22.692001,51.0120007 22.492,50.868 C22.291999,50.7239993 22.1440005,50.5000015 22.048,50.196 C21.6239979,50.8280032 20.9960042,51.144 20.164,51.144 C19.5399969,51.144 19.0480018,50.9680018 18.688,50.616 C18.3279982,50.2639982 18.148,49.8040028 18.148,49.236 C18.148,48.5639966 18.3899976,48.0480018 18.874,47.688 C19.3580024,47.3279982 20.0439956,47.148 20.932,47.148 L21.904,47.148 L21.904,46.68 C21.904,46.2319978 21.7960011,45.912001 21.58,45.72 C21.3639989,45.527999 21.0320022,45.432 20.584,45.432 C20.1199977,45.432 19.5520034,45.5439989 18.88,45.768 L18.604,44.964 C19.3880039,44.6759986 20.1159966,44.532 20.788,44.532 C21.5320037,44.532 22.0879982,44.7139982 22.456,45.078 C22.8240018,45.4420018 23.008,45.9599966 23.008,46.632 L23.008,49.524 C23.008,49.7800013 23.0519996,49.9699994 23.14,50.094 Z M21.904,49.332 L21.904,47.88 L21.076,47.88 C19.9079942,47.88 19.324,48.3119957 19.324,49.176 C19.324,49.5520019 19.4159991,49.835999 19.6,50.028 C19.7840009,50.220001 20.0559982,50.316 20.416,50.316 C21.0480032,50.316 21.5439982,49.9880033 21.904,49.332 Z M27.052,51.144 C26.5159973,51.144 26.0980015,50.9900015 25.798,50.682 C25.4979985,50.3739985 25.348,49.9280029 25.348,49.344 L25.348,45.528 L24.244,45.528 L24.244,44.676 L25.348,44.676 L25.348,43.248 L26.452,43.116 L26.452,44.676 L27.952,44.676 L27.832,45.528 L26.452,45.528 L26.452,49.296 C26.452,49.6240016 26.5099994,49.8619993 26.626,50.01 C26.7420006,50.1580007 26.9359986,50.232 27.208,50.232 C27.4720013,50.232 27.7519985,50.1400009 28.048,49.956 L28.468,50.712 C28.0519979,51.0000014 27.5800026,51.144 27.052,51.144 Z M34,50.094 C34.0880004,50.2180006 34.2199991,50.3119997 34.396,50.376 L34.144,51.144 C33.8159984,51.1039998 33.552001,51.0120007 33.352,50.868 C33.151999,50.7239993 33.0040005,50.5000015 32.908,50.196 C32.4839979,50.8280032 31.8560042,51.144 31.024,51.144 C30.3999969,51.144 29.9080018,50.9680018 29.548,50.616 C29.1879982,50.2639982 29.008,49.8040028 29.008,49.236 C29.008,48.5639966 29.2499976,48.0480018 29.734,47.688 C30.2180024,47.3279982 30.9039956,47.148 31.792,47.148 L32.764,47.148 L32.764,46.68 C32.764,46.2319978 32.6560011,45.912001 32.44,45.72 C32.2239989,45.527999 31.8920022,45.432 31.444,45.432 C30.9799977,45.432 30.4120034,45.5439989 29.74,45.768 L29.464,44.964 C30.2480039,44.6759986 30.9759966,44.532 31.648,44.532 C32.3920037,44.532 32.9479982,44.7139982 33.316,45.078 C33.6840018,45.4420018 33.868,45.9599966 33.868,46.632 L33.868,49.524 C33.868,49.7800013 33.9119996,49.9699994 34,50.094 Z M32.764,49.332 L32.764,47.88 L31.936,47.88 C30.7679942,47.88 30.184,48.3119957 30.184,49.176 C30.184,49.5520019 30.2759991,49.835999 30.46,50.028 C30.6440009,50.220001 30.9159982,50.316 31.276,50.316 C31.9080032,50.316 32.4039982,49.9880033 32.764,49.332 Z M44.11,43.602 C44.8660038,44.1820029 45.244,45.2559922 45.244,46.824 C45.244,48.3520076 44.8660038,49.4299969 44.11,50.058 C43.3539962,50.6860031 42.4360054,51 41.356,51 L39.376,51 L39.376,42.732 L41.104,42.732 C42.3520062,42.732 43.3539962,43.0219971 44.11,43.602 Z M40.516,50.1 L41.44,50.1 C42.2080038,50.1 42.8319976,49.8640024 43.312,49.392 C43.7920024,48.9199976 44.032,48.0640062 44.032,46.824 C44.032,45.9519956 43.9080012,45.2820023 43.66,44.814 C43.4119988,44.3459977 43.0960019,44.0340008 42.712,43.878 C42.3279981,43.7219992 41.8760026,43.644 41.356,43.644 L40.516,43.644 L40.516,50.1 Z M51.796,48.216 L47.764,48.216 C47.8120002,48.9120035 47.9879985,49.4239984 48.292,49.752 C48.5960015,50.0800016 48.9879976,50.244 49.468,50.244 C49.7720015,50.244 50.0519987,50.2000004 50.308,50.112 C50.5640013,50.0239996 50.8319986,49.884001 51.112,49.692 L51.592,50.352 C50.9199966,50.8800026 50.184004,51.144 49.384,51.144 C48.5039956,51.144 47.8180025,50.8560029 47.326,50.28 C46.8339975,49.7039971 46.588,48.912005 46.588,47.904 C46.588,47.2479967 46.6939989,46.6660025 46.906,46.158 C47.1180011,45.6499975 47.421998,45.2520014 47.818,44.964 C48.214002,44.6759986 48.6799973,44.532 49.216,44.532 C50.0560042,44.532 50.6999978,44.8079972 51.148,45.36 C51.5960022,45.9120028 51.82,46.6759951 51.82,47.652 C51.82,47.8360009 51.8120001,48.023999 51.796,48.216 Z M50.728,47.328 C50.728,46.7039969 50.6040012,46.2280016 50.356,45.9 C50.1079988,45.5719984 49.7360025,45.408 49.24,45.408 C48.3359955,45.408 47.8440004,46.0719934 47.764,47.4 L50.728,47.4 L50.728,47.328 Z M56.854,42.108 C57.1300014,42.1800004 57.4079986,42.2879993 57.688,42.432 L57.304,43.2 C56.8879979,42.999999 56.4440024,42.9 55.972,42.9 C55.5479979,42.9 55.2560008,42.9759992 55.096,43.128 C54.9359992,43.2800008 54.856,43.5159984 54.856,43.836 L54.856,44.676 L58.384,44.676 L58.384,51 L57.28,51 L57.28,45.528 L54.856,45.528 L54.856,51 L53.752,51 L53.752,45.528 L52.744,45.528 L52.744,44.676 L53.752,44.676 L53.752,43.848 C53.752,43.2879972 53.9319982,42.8400017 54.292,42.504 C54.6520018,42.1679983 55.1999963,42 55.936,42 C56.2720017,42 56.5779986,42.0359996 56.854,42.108 Z M64,44.694 C64.3120016,44.8020005 64.6119986,44.9759988 64.9,45.216 L64.36,45.936 C64.1439989,45.7679992 63.932001,45.6440004 63.724,45.564 C63.515999,45.4839996 63.2800013,45.444 63.016,45.444 C62.5039974,45.444 62.1060014,45.647998 61.822,46.056 C61.5379986,46.464002 61.396,47.067996 61.396,47.868 C61.396,48.668004 61.5359986,49.2579981 61.816,49.638 C62.0960014,50.0180019 62.4959974,50.208 63.016,50.208 C63.2720013,50.208 63.501999,50.1680004 63.706,50.088 C63.910001,50.0079996 64.1319988,49.8760009 64.372,49.692 L64.9,50.448 C64.3239971,50.9120023 63.6800036,51.144 62.968,51.144 C62.1119957,51.144 61.4380025,50.8560029 60.946,50.28 C60.4539975,49.7039971 60.208,48.9080051 60.208,47.892 C60.208,47.2199966 60.3199989,46.6320025 60.544,46.128 C60.7680011,45.6239975 61.0859979,45.2320014 61.498,44.952 C61.9100021,44.6719986 62.3999972,44.532 62.968,44.532 C63.3440019,44.532 63.6879984,44.5859995 64,44.694 Z M66.4,51 L66.4,44.676 L67.504,44.676 L67.504,51 L66.4,51 Z M67.504,41.856 C67.6480007,42.0000007 67.72,42.1799989 67.72,42.396 C67.72,42.6120011 67.6480007,42.7899993 67.504,42.93 C67.3599993,43.0700007 67.1720012,43.14 66.94,43.14 C66.7159989,43.14 66.5320007,43.0700007 66.388,42.93 C66.2439993,42.7899993 66.172,42.6120011 66.172,42.396 C66.172,42.1799989 66.2439993,42.0000007 66.388,41.856 C66.5320007,41.7119993 66.7159989,41.64 66.94,41.64 C67.1720012,41.64 67.3599993,41.7119993 67.504,41.856 Z M74.536,48.216 L70.504,48.216 C70.5520002,48.9120035 70.7279985,49.4239984 71.032,49.752 C71.3360015,50.0800016 71.7279976,50.244 72.208,50.244 C72.5120015,50.244 72.7919987,50.2000004 73.048,50.112 C73.3040013,50.0239996 73.5719986,49.884001 73.852,49.692 L74.332,50.352 C73.6599966,50.8800026 72.924004,51.144 72.124,51.144 C71.2439956,51.144 70.5580025,50.8560029 70.066,50.28 C69.5739975,49.7039971 69.328,48.912005 69.328,47.904 C69.328,47.2479967 69.4339989,46.6660025 69.646,46.158 C69.8580011,45.6499975 70.161998,45.2520014 70.558,44.964 C70.954002,44.6759986 71.4199973,44.532 71.956,44.532 C72.7960042,44.532 73.4399978,44.8079972 73.888,45.36 C74.3360022,45.9120028 74.56,46.6759951 74.56,47.652 C74.56,47.8360009 74.5520001,48.023999 74.536,48.216 Z M73.468,47.328 C73.468,46.7039969 73.3440012,46.2280016 73.096,45.9 C72.8479988,45.5719984 72.4760025,45.408 71.98,45.408 C71.0759955,45.408 70.5840004,46.0719934 70.504,47.4 L73.468,47.4 L73.468,47.328 Z M80.71,45.048 C81.0340016,45.3920017 81.196,45.863997 81.196,46.464 L81.196,51 L80.092,51 L80.092,46.62 C80.092,46.1719978 80.0080008,45.8560009 79.84,45.672 C79.6719992,45.4879991 79.4240016,45.396 79.096,45.396 C78.7599983,45.396 78.4640013,45.491999 78.208,45.684 C77.9519987,45.876001 77.7120011,46.1519982 77.488,46.512 L77.488,51 L76.384,51 L76.384,44.676 L77.332,44.676 L77.428,45.612 C77.6520011,45.2759983 77.9299983,45.012001 78.262,44.82 C78.5940017,44.627999 78.959998,44.532 79.36,44.532 C79.9360029,44.532 80.3859984,44.7039983 80.71,45.048 Z M85.192,51.144 C84.6559973,51.144 84.2380015,50.9900015 83.938,50.682 C83.6379985,50.3739985 83.488,49.9280029 83.488,49.344 L83.488,45.528 L82.384,45.528 L82.384,44.676 L83.488,44.676 L83.488,43.248 L84.592,43.116 L84.592,44.676 L86.092,44.676 L85.972,45.528 L84.592,45.528 L84.592,49.296 C84.592,49.6240016 84.6499994,49.8619993 84.766,50.01 C84.8820006,50.1580007 85.0759986,50.232 85.348,50.232 C85.6120013,50.232 85.8919985,50.1400009 86.188,49.956 L86.608,50.712 C86.1919979,51.0000014 85.7200026,51.144 85.192,51.144 Z M95.134,42.78 C95.4740017,42.9080006 95.8199982,43.1159986 96.172,43.404 L95.548,44.136 C95.0439975,43.727998 94.5120028,43.524 93.952,43.524 C93.2639966,43.524 92.7100021,43.7879974 92.29,44.316 C91.8699979,44.8440026 91.66,45.6919942 91.66,46.86 C91.66,47.9960057 91.8679979,48.8339973 92.284,49.374 C92.7000021,49.9140027 93.2519966,50.184 93.94,50.184 C94.2920018,50.184 94.5959987,50.1240006 94.852,50.004 C95.1080013,49.8839994 95.3879985,49.7120011 95.692,49.488 L96.268,50.22 C96.0199988,50.4840013 95.694002,50.7039991 95.29,50.88 C94.885998,51.0560009 94.4240026,51.144 93.904,51.144 C93.2319966,51.144 92.6340026,50.9780017 92.11,50.646 C91.5859974,50.3139983 91.1780015,49.8260032 90.886,49.182 C90.5939985,48.5379968 90.448,47.7640045 90.448,46.86 C90.448,45.9559955 90.5999985,45.1820032 90.904,44.538 C91.2080015,43.8939968 91.6199974,43.4080016 92.14,43.08 C92.6600026,42.7519984 93.2399968,42.588 93.88,42.588 C94.3760025,42.588 94.7939983,42.6519994 95.134,42.78 Z M101.974,45.048 C102.298002,45.3920017 102.46,45.863997 102.46,46.464 L102.46,51 L101.356,51 L101.356,46.62 C101.356,46.1719978 101.270001,45.8560009 101.098,45.672 C100.925999,45.4879991 100.676002,45.396 100.348,45.396 C100.019998,45.396 99.7280013,45.491999 99.472,45.684 C99.2159987,45.876001 98.9760011,46.1479982 98.752,46.5 L98.752,51 L97.648,51 L97.648,42.144 L98.752,42.024 L98.752,45.552 C99.2480025,44.8719966 99.8719962,44.532 100.624,44.532 C101.200003,44.532 101.649998,44.7039983 101.974,45.048 Z M109.126,45.42 C109.618002,46.012003 109.864,46.8159949 109.864,47.832 C109.864,48.4880033 109.752001,49.0659975 109.528,49.566 C109.303999,50.0660025 108.980002,50.4539986 108.556,50.73 C108.131998,51.0060014 107.628003,51.144 107.044,51.144 C106.155996,51.144 105.464002,50.848003 104.968,50.256 C104.471998,49.663997 104.224,48.8600051 104.224,47.844 C104.224,47.1879967 104.335999,46.6100025 104.56,46.11 C104.784001,45.6099975 105.107998,45.2220014 105.532,44.946 C105.956002,44.6699986 106.463997,44.532 107.056,44.532 C107.944004,44.532 108.633998,44.827997 109.126,45.42 Z M105.412,47.844 C105.412,49.452008 105.955995,50.256 107.044,50.256 C108.132005,50.256 108.676,49.4480081 108.676,47.832 C108.676,46.223992 108.136005,45.42 107.056,45.42 C105.959995,45.42 105.412,46.2279919 105.412,47.844 Z M116.014,45.048 C116.338002,45.3920017 116.5,45.863997 116.5,46.464 L116.5,51 L115.396,51 L115.396,46.62 C115.396,46.1719978 115.312001,45.8560009 115.144,45.672 C114.975999,45.4879991 114.728002,45.396 114.4,45.396 C114.063998,45.396 113.768001,45.491999 113.512,45.684 C113.255999,45.876001 113.016001,46.1519982 112.792,46.512 L112.792,51 L111.688,51 L111.688,44.676 L112.636,44.676 L112.732,45.612 C112.956001,45.2759983 113.233998,45.012001 113.566,44.82 C113.898002,44.627999 114.263998,44.532 114.664,44.532 C115.240003,44.532 115.689998,44.7039983 116.014,45.048 Z M123.616,51 L122.644,51 L122.536,50.124 C122.327999,50.4440016 122.068002,50.6939991 121.756,50.874 C121.443998,51.0540009 121.096002,51.144 120.712,51.144 C119.959996,51.144 119.374002,50.848003 118.954,50.256 C118.533998,49.663997 118.324,48.868005 118.324,47.868 C118.324,47.2199968 118.423999,46.6440025 118.624,46.14 C118.824001,45.6359975 119.111998,45.2420014 119.488,44.958 C119.864002,44.6739986 120.303997,44.532 120.808,44.532 C121.456003,44.532 122.023998,44.7919974 122.512,45.312 L122.512,42 L123.616,42.132 L123.616,51 Z M121.816,50.034 C122.056001,49.8779992 122.287999,49.6440016 122.512,49.332 L122.512,46.236 C122.303999,45.9639986 122.082001,45.7580007 121.846,45.618 C121.609999,45.4779993 121.344001,45.408 121.048,45.408 C120.559998,45.408 120.182001,45.611998 119.914,46.02 C119.645999,46.428002 119.512,47.035996 119.512,47.844 C119.512,48.6600041 119.635999,49.267998 119.884,49.668 C120.132001,50.068002 120.487998,50.268 120.952,50.268 C121.288002,50.268 121.575999,50.1900008 121.816,50.034 Z M129.268,44.604 L129.064,45.684 C128.871999,45.6359998 128.688001,45.612 128.512,45.612 C128.119998,45.612 127.804001,45.7559986 127.564,46.044 C127.323999,46.3320014 127.136001,46.779997 127,47.388 L127,51 L125.896,51 L125.896,44.676 L126.844,44.676 L126.952,45.96 C127.120001,45.4879976 127.347999,45.1320012 127.636,44.892 C127.924001,44.6519988 128.259998,44.532 128.644,44.532 C128.868001,44.532 129.075999,44.5559998 129.268,44.604 Z M130.528,51 L130.528,44.676 L131.632,44.676 L131.632,51 L130.528,51 Z M131.632,41.856 C131.776001,42.0000007 131.848,42.1799989 131.848,42.396 C131.848,42.6120011 131.776001,42.7899993 131.632,42.93 C131.487999,43.0700007 131.300001,43.14 131.068,43.14 C130.843999,43.14 130.660001,43.0700007 130.516,42.93 C130.371999,42.7899993 130.3,42.6120011 130.3,42.396 C130.3,42.1799989 130.371999,42.0000007 130.516,41.856 C130.660001,41.7119993 130.843999,41.64 131.068,41.64 C131.300001,41.64 131.487999,41.7119993 131.632,41.856 Z M137.248,44.694 C137.560002,44.8020005 137.859999,44.9759988 138.148,45.216 L137.608,45.936 C137.391999,45.7679992 137.180001,45.6440004 136.972,45.564 C136.763999,45.4839996 136.528001,45.444 136.264,45.444 C135.751997,45.444 135.354001,45.647998 135.07,46.056 C134.785999,46.464002 134.644,47.067996 134.644,47.868 C134.644,48.668004 134.783999,49.2579981 135.064,49.638 C135.344001,50.0180019 135.743997,50.208 136.264,50.208 C136.520001,50.208 136.749999,50.1680004 136.954,50.088 C137.158001,50.0079996 137.379999,49.8760009 137.62,49.692 L138.148,50.448 C137.571997,50.9120023 136.928004,51.144 136.216,51.144 C135.359996,51.144 134.686002,50.8560029 134.194,50.28 C133.701998,49.7039971 133.456,48.9080051 133.456,47.892 C133.456,47.2199966 133.567999,46.6320025 133.792,46.128 C134.016001,45.6239975 134.333998,45.2320014 134.746,44.952 C135.158002,44.6719986 135.647997,44.532 136.216,44.532 C136.592002,44.532 136.935998,44.5859995 137.248,44.694 Z M143.974,45.048 C144.298002,45.3920017 144.46,45.863997 144.46,46.464 L144.46,51 L143.356,51 L143.356,46.62 C143.356,46.1719978 143.270001,45.8560009 143.098,45.672 C142.925999,45.4879991 142.676002,45.396 142.348,45.396 C142.019998,45.396 141.728001,45.491999 141.472,45.684 C141.215999,45.876001 140.976001,46.1479982 140.752,46.5 L140.752,51 L139.648,51 L139.648,42.144 L140.752,42.024 L140.752,45.552 C141.248002,44.8719966 141.871996,44.532 142.624,44.532 C143.200003,44.532 143.649998,44.7039983 143.974,45.048 Z M148.456,51.144 C147.919997,51.144 147.502002,50.9900015 147.202,50.682 C146.901998,50.3739985 146.752,49.9280029 146.752,49.344 L146.752,45.528 L145.648,45.528 L145.648,44.676 L146.752,44.676 L146.752,43.248 L147.856,43.116 L147.856,44.676 L149.356,44.676 L149.236,45.528 L147.856,45.528 L147.856,49.296 C147.856,49.6240016 147.913999,49.8619993 148.03,50.01 C148.146001,50.1580007 148.339999,50.232 148.612,50.232 C148.876001,50.232 149.155999,50.1400009 149.452,49.956 L149.872,50.712 C149.455998,51.0000014 148.984003,51.144 148.456,51.144 Z M155.338,45.048 C155.662002,45.3920017 155.824,45.863997 155.824,46.464 L155.824,51 L154.72,51 L154.72,46.62 C154.72,46.1719978 154.634001,45.8560009 154.462,45.672 C154.289999,45.4879991 154.040002,45.396 153.712,45.396 C153.383998,45.396 153.092001,45.491999 152.836,45.684 C152.579999,45.876001 152.340001,46.1479982 152.116,46.5 L152.116,51 L151.012,51 L151.012,42.144 L152.116,42.024 L152.116,45.552 C152.612002,44.8719966 153.235996,44.532 153.988,44.532 C154.564003,44.532 155.013998,44.7039983 155.338,45.048 Z M159.418,52.782 C158.973998,53.2100021 158.340004,53.4679996 157.516,53.556 L157.396,52.692 C157.812002,52.6199996 158.143999,52.5160007 158.392,52.38 C158.640001,52.2439993 158.837999,52.0700011 158.986,51.858 C159.134001,51.6459989 159.271999,51.3600018 159.4,51 L159.028,51 L156.904,44.676 L158.08,44.676 L159.772,50.196 L161.428,44.676 L162.568,44.676 L160.456,51.036 C160.207999,51.7720037 159.862002,52.3539979 159.418,52.782 Z M168.22,50.094 C168.308,50.2180006 168.439999,50.3119997 168.616,50.376 L168.364,51.144 C168.035998,51.1039998 167.772001,51.0120007 167.572,50.868 C167.371999,50.7239993 167.224,50.5000015 167.128,50.196 C166.703998,50.8280032 166.076004,51.144 165.244,51.144 C164.619997,51.144 164.128002,50.9680018 163.768,50.616 C163.407998,50.2639982 163.228,49.8040028 163.228,49.236 C163.228,48.5639966 163.469998,48.0480018 163.954,47.688 C164.438002,47.3279982 165.123996,47.148 166.012,47.148 L166.984,47.148 L166.984,46.68 C166.984,46.2319978 166.876001,45.912001 166.66,45.72 C166.443999,45.527999 166.112002,45.432 165.664,45.432 C165.199998,45.432 164.632003,45.5439989 163.96,45.768 L163.684,44.964 C164.468004,44.6759986 165.195997,44.532 165.868,44.532 C166.612004,44.532 167.167998,44.7139982 167.536,45.078 C167.904002,45.4420018 168.088,45.9599966 168.088,46.632 L168.088,49.524 C168.088,49.7800013 168.132,49.9699994 168.22,50.094 Z M166.984,49.332 L166.984,47.88 L166.156,47.88 C164.987994,47.88 164.404,48.3119957 164.404,49.176 C164.404,49.5520019 164.495999,49.835999 164.68,50.028 C164.864001,50.220001 165.135998,50.316 165.496,50.316 C166.128003,50.316 166.623998,49.9880033 166.984,49.332 Z M174.682,45.048 C175.006002,45.3920017 175.168,45.863997 175.168,46.464 L175.168,51 L174.064,51 L174.064,46.62 C174.064,46.1719978 173.980001,45.8560009 173.812,45.672 C173.643999,45.4879991 173.396002,45.396 173.068,45.396 C172.731998,45.396 172.436001,45.491999 172.18,45.684 C171.923999,45.876001 171.684001,46.1519982 171.46,46.512 L171.46,51 L170.356,51 L170.356,44.676 L171.304,44.676 L171.4,45.612 C171.624001,45.2759983 171.901998,45.012001 172.234,44.82 C172.566002,44.627999 172.931998,44.532 173.332,44.532 C173.908003,44.532 174.357998,44.7039983 174.682,45.048 Z M180.268,44.712 C180.612002,44.8320006 180.939998,45.0119988 181.252,45.252 L180.772,45.984 C180.491999,45.783999 180.222001,45.6380005 179.962,45.546 C179.701999,45.4539995 179.428001,45.408 179.14,45.408 C178.779998,45.408 178.496001,45.4819993 178.288,45.63 C178.079999,45.7780007 177.976,45.9799987 177.976,46.236 C177.976,46.4920013 178.073999,46.6919993 178.27,46.836 C178.466001,46.9800007 178.819997,47.1199993 179.332,47.256 C180.036004,47.4320009 180.561998,47.6719985 180.91,47.976 C181.258002,48.2800015 181.432,48.6959974 181.432,49.224 C181.432,49.8480031 181.190002,50.3239984 180.706,50.652 C180.221998,50.9800016 179.632003,51.144 178.936,51.144 C177.975995,51.144 177.180003,50.8680028 176.548,50.316 L177.16,49.62 C177.656002,50.0440021 178.239997,50.256 178.912,50.256 C179.320002,50.256 179.647999,50.1720008 179.896,50.004 C180.144001,49.8359992 180.268,49.6120014 180.268,49.332 C180.268,49.1079989 180.224,48.9260007 180.136,48.786 C180.048,48.6459993 179.898001,48.5260005 179.686,48.426 C179.473999,48.3259995 179.156002,48.2200006 178.732,48.108 C178.059997,47.9319991 177.574002,47.6940015 177.274,47.394 C176.973998,47.0939985 176.824,46.7160023 176.824,46.26 C176.824,45.9319984 176.921999,45.6360013 177.118,45.372 C177.314001,45.1079987 177.585998,44.9020007 177.934,44.754 C178.282002,44.6059993 178.671998,44.532 179.104,44.532 C179.536002,44.532 179.923998,44.5919994 180.268,44.712 Z" id="Data-Deficient-Chond" fill="#212121"></path>
            <rect id="Rectangle-6" fill-opacity="0.6" fill="#E7E6FA" x="9" y="25" width="60" height="10"></rect>
            <polygon id="Rectangle-6" fill-opacity="0.6" fill="#6052FA" points="189 25 231.628906 25 249 25 249 35 189 35"></polygon>
            <path d="M275.804,15.724 L271.184,17.788 L270.68,16.624 L274.52,15.004 L270.68,13.36 L271.184,12.22 L275.804,14.296 L275.804,15.724 Z M284.624,11.626 C285.112002,12.1900028 285.356,12.9519952 285.356,13.912 C285.356,15.0080055 285.192002,15.9059965 284.864,16.606 C284.535998,17.3060035 284.032003,17.8639979 283.352,18.28 C282.671997,18.6960021 281.772006,19.0359987 280.652,19.3 L280.328,18.208 C281.384005,17.9359986 282.187997,17.5740023 282.74,17.122 C283.292003,16.6699977 283.616,16.0600038 283.712,15.292 C283.279998,15.8600028 282.704004,16.144 281.984,16.144 C281.567998,16.144 281.186002,16.0380011 280.838,15.826 C280.489998,15.6139989 280.216001,15.308002 280.016,14.908 C279.815999,14.507998 279.716,14.0440026 279.716,13.516 C279.716,12.9639972 279.839999,12.4820021 280.088,12.07 C280.336001,11.6579979 280.673998,11.3400011 281.102,11.116 C281.530002,10.8919989 282.003997,10.78 282.524,10.78 C283.436005,10.78 284.135998,11.0619972 284.624,11.626 Z M283.784,14.188 C283.792,13.3719959 283.698001,12.7900017 283.502,12.442 C283.305999,12.0939983 282.980002,11.92 282.524,11.92 C282.123998,11.92 281.812001,12.0559986 281.588,12.328 C281.363999,12.6000014 281.252,12.9879975 281.252,13.492 C281.252,14.0200026 281.357999,14.4079988 281.57,14.656 C281.782001,14.9040012 282.059998,15.028 282.404,15.028 C282.956003,15.028 283.415998,14.7480028 283.784,14.188 Z" id="&gt;-9" fill="#212121"></path>
            <polygon id="Rectangle-6" fill-opacity="0.6" fill="#1905F5" points="249 25 291.628906 25 309 25 309 35 249 35"></polygon>
            <rect id="Rectangle-6" fill-opacity="0.6" fill="#8A80FA" x="129" y="25" width="60" height="10"></rect>
            <rect id="Rectangle-6" fill-opacity="0.6" fill="#BDB8FA" x="69" y="25" width="60" height="10"></rect>
        </g>
    </g>
</svg>