<?xml version="1.0" encoding="UTF-8"?>
<svg width="320px" height="97px" viewBox="0 0 320 97" version="1.1" xmlns="http://www.w3.org/2000/svg" xmlns:xlink="http://www.w3.org/1999/xlink">
    <!-- Generator: Sketch 52.2 (67145) - http://www.bohemiancoding.com/sketch -->
    <title>infograph/legend_map-deficient-chondrichthyans-mpa</title>
    <desc>Created with Sketch.</desc>
    <g id="infograph/legend_map-deficient-chondrichthyans-mpa" stroke="none" stroke-width="1" fill="none" fill-rule="evenodd">
        <path d="M0,3.99859472 C0,1.79023183 1.79962814,0 4.00250278,0 L315.997497,0 C318.208018,0 320,1.78741251 320,3.99859472 L320,93.0014053 C320,95.2097682 318.200372,97 315.997497,97 L4.00250278,97 C1.79198153,97 0,95.2125875 0,93.0014053 L0,3.99859472 Z" id="Rectangle-2" fill-opacity="0.5" fill="#FFFFFF"></path>
        <rect id="Rectangle-2" fill="#E8E8E8" opacity="0.899999976" transform="translate(159.500000, 32.500000) scale(1, -1) translate(-159.500000, -32.500000) " x="9" y="32" width="301" height="1"></rect>
        <path d="M28.1,18.08 L27.584,20 L25.94,20 L28.52,11.708 L30.476,11.708 L33.044,20 L31.364,20 L30.848,18.08 L28.1,18.08 Z M29.468,12.92 L28.412,16.88 L30.536,16.88 L29.468,12.92 Z M35.396,18.452 C35.396,18.6280009 35.4239997,18.7539996 35.48,18.83 C35.5360003,18.9060004 35.6279994,18.944 35.756,18.944 C35.8760006,18.944 35.9959994,18.9240002 36.116,18.884 L36.44,19.964 C36.0959983,20.1080007 35.7320019,20.18 35.348,20.18 C34.8679976,20.18 34.5000013,20.0420014 34.244,19.766 C33.9879987,19.4899986 33.86,19.0880026 33.86,18.56 L33.86,11.108 L35.396,10.94 L35.396,18.452 Z M38.936,18.452 C38.936,18.6280009 38.9639997,18.7539996 39.02,18.83 C39.0760003,18.9060004 39.1679994,18.944 39.296,18.944 C39.4160006,18.944 39.5359994,18.9240002 39.656,18.884 L39.98,19.964 C39.6359983,20.1080007 39.2720019,20.18 38.888,20.18 C38.4079976,20.18 38.0400013,20.0420014 37.784,19.766 C37.5279987,19.4899986 37.4,19.0880026 37.4,18.56 L37.4,11.108 L38.936,10.94 L38.936,18.452 Z M50.36,20 L50.144,16.532 C50.0719996,15.323994 50.036,14.3680035 50.036,13.664 L50.036,13.148 L48.524,19.1 L47.024,19.1 L45.416,13.136 C45.4400001,13.5200019 45.452,13.907998 45.452,14.3 C45.452,14.908003 45.4240003,15.6679954 45.368,16.58 L45.164,20 L43.628,20 L44.288,11.708 L46.328,11.708 L47.804,17.516 L49.196,11.708 L51.26,11.708 L51.908,20 L50.36,20 Z M56.024,11.708 C57.0880053,11.708 57.9139971,11.9279978 58.502,12.368 C59.0900029,12.8080022 59.384,13.4679956 59.384,14.348 C59.384,15.2680046 59.088003,15.9579977 58.496,16.418 C57.903997,16.8780023 57.1160049,17.108 56.132,17.108 L55.16,17.108 L55.16,20 L53.576,20 L53.576,11.708 L56.024,11.708 Z M56.012,15.92 C56.5800028,15.92 57.0079986,15.8020012 57.296,15.566 C57.5840014,15.3299988 57.728,14.9240029 57.728,14.348 C57.728,13.3639951 57.1560057,12.872 56.012,12.872 L55.16,12.872 L55.16,15.92 L56.012,15.92 Z M60.956,18.08 L60.44,20 L58.796,20 L61.376,11.708 L63.332,11.708 L65.9,20 L64.22,20 L63.704,18.08 L60.956,18.08 Z M62.324,12.92 L61.268,16.88 L63.392,16.88 L62.324,12.92 Z M68.78,13.472 C69.6360043,13.472 70.3879968,13.7239975 71.036,14.228 L70.436,15.152 C69.9079974,14.7919982 69.3880026,14.612 68.876,14.612 C68.5559984,14.612 68.3100009,14.6699994 68.138,14.786 C67.9659991,14.9020006 67.88,15.055999 67.88,15.248 C67.88,15.3920007 67.9159996,15.5119995 67.988,15.608 C68.0600004,15.7040005 68.1899991,15.7939996 68.378,15.878 C68.5660009,15.9620004 68.8439982,16.0559995 69.212,16.16 C69.9000034,16.3440009 70.4099983,16.5879985 70.742,16.892 C71.0740017,17.1960015 71.24,17.6199973 71.24,18.164 C71.24,18.7960032 70.9840026,19.2899982 70.472,19.646 C69.9599974,20.0020018 69.3240038,20.18 68.564,20.18 C68.0439974,20.18 67.5700021,20.1000008 67.142,19.94 C66.7139979,19.7799992 66.3440016,19.5600014 66.032,19.28 L66.812,18.404 C67.3400026,18.8280021 67.907997,19.04 68.516,19.04 C68.8600017,19.04 69.135999,18.9720007 69.344,18.836 C69.552001,18.6999993 69.656,18.5200011 69.656,18.296 C69.656,18.103999 69.6180004,17.9540005 69.542,17.846 C69.4659996,17.7379995 69.330001,17.6400004 69.134,17.552 C68.937999,17.4639996 68.6320021,17.3600006 68.216,17.24 C67.5679968,17.0639991 67.0920015,16.8180016 66.788,16.502 C66.4839985,16.1859984 66.332,15.7920024 66.332,15.32 C66.332,14.9679982 66.433999,14.6520014 66.638,14.372 C66.842001,14.0919986 67.1299981,13.8720008 67.502,13.712 C67.8740019,13.5519992 68.2999976,13.472 68.78,13.472 Z M78.152,10.34 C77.7359979,10.9560031 77.4060012,11.5059976 77.162,11.99 C76.9179988,12.4740024 76.7260007,13.0239969 76.586,13.64 C76.4459993,14.2560031 76.376,14.9759959 76.376,15.8 C76.376,16.6160041 76.4459993,17.3319969 76.586,17.948 C76.7260007,18.5640031 76.9179988,19.1179975 77.162,19.61 C77.4060012,20.1020025 77.7359979,20.651997 78.152,21.26 L77.456,21.74 C76.9279974,20.9879962 76.5220014,20.3700024 76.238,19.886 C75.9539986,19.4019976 75.714001,18.8220034 75.518,18.146 C75.321999,17.4699966 75.224,16.6880044 75.224,15.8 C75.224,14.9119956 75.321999,14.1300034 75.518,13.454 C75.714001,12.7779966 75.9539986,12.1980024 76.238,11.714 C76.5220014,11.2299976 76.9279974,10.6120038 77.456,9.86 L78.152,10.34 Z M86.12,20 L85.832,16.268 C85.7119994,14.8039927 85.6440001,13.6800039 85.628,12.896 L83.84,19.064 L82.772,19.064 L80.888,12.884 C80.888,13.884005 80.8360005,15.0399934 80.732,16.352 L80.456,20 L79.376,20 L80.06,11.732 L81.596,11.732 L83.336,17.744 L84.992,11.732 L86.54,11.732 L87.224,20 L86.12,20 Z M93.584,18.524 C93.584,18.7800013 93.6279996,18.9699994 93.716,19.094 C93.8040004,19.2180006 93.9359991,19.3119997 94.112,19.376 L93.86,20.144 C93.5319984,20.1039998 93.268001,20.0120007 93.068,19.868 C92.867999,19.7239993 92.7200005,19.5000015 92.624,19.196 C92.1999979,19.8280032 91.5720042,20.144 90.74,20.144 C90.1159969,20.144 89.6240018,19.9680018 89.264,19.616 C88.9039982,19.2639982 88.724,18.8040028 88.724,18.236 C88.724,17.5639966 88.9659976,17.0480018 89.45,16.688 C89.9340024,16.3279982 90.6199956,16.148 91.508,16.148 L92.48,16.148 L92.48,15.68 C92.48,15.2319978 92.3720011,14.912001 92.156,14.72 C91.9399989,14.527999 91.6080022,14.432 91.16,14.432 C90.6959977,14.432 90.1280034,14.5439989 89.456,14.768 L89.18,13.964 C89.9640039,13.6759986 90.6919966,13.532 91.364,13.532 C92.1080037,13.532 92.6639982,13.7139982 93.032,14.078 C93.4000018,14.4420018 93.584,14.9599966 93.584,15.632 L93.584,18.524 Z M90.992,19.316 C91.6240032,19.316 92.1199982,18.9880033 92.48,18.332 L92.48,16.88 L91.652,16.88 C90.4839942,16.88 89.9,17.3119957 89.9,18.176 C89.9,18.5520019 89.9919991,18.835999 90.176,19.028 C90.3600009,19.220001 90.6319982,19.316 90.992,19.316 Z M98.6,13.532 C98.8240011,13.532 99.031999,13.5559998 99.224,13.604 L99.02,14.684 C98.827999,14.6359998 98.6440009,14.612 98.468,14.612 C98.075998,14.612 97.7600012,14.7559986 97.52,15.044 C97.2799988,15.3320014 97.0920007,15.779997 96.956,16.388 L96.956,20 L95.852,20 L95.852,13.676 L96.8,13.676 L96.908,14.96 C97.0760008,14.4879976 97.3039986,14.1320012 97.592,13.892 C97.8800014,13.6519988 98.2159981,13.532 98.6,13.532 Z M100.484,20 L100.484,13.676 L101.588,13.676 L101.588,20 L100.484,20 Z M101.024,10.64 C101.256001,10.64 101.443999,10.7119993 101.588,10.856 C101.732001,11.0000007 101.804,11.1799989 101.804,11.396 C101.804,11.6120011 101.732001,11.7899993 101.588,11.93 C101.443999,12.0700007 101.256001,12.14 101.024,12.14 C100.799999,12.14 100.616001,12.0700007 100.472,11.93 C100.327999,11.7899993 100.256,11.6120011 100.256,11.396 C100.256,11.1799989 100.327999,11.0000007 100.472,10.856 C100.616001,10.7119993 100.799999,10.64 101.024,10.64 Z M106.844,13.532 C107.420003,13.532 107.869998,13.7039983 108.194,14.048 C108.518002,14.3920017 108.68,14.863997 108.68,15.464 L108.68,20 L107.576,20 L107.576,15.62 C107.576,15.1719978 107.492001,14.8560009 107.324,14.672 C107.155999,14.4879991 106.908002,14.396 106.58,14.396 C106.243998,14.396 105.948001,14.491999 105.692,14.684 C105.435999,14.876001 105.196001,15.1519982 104.972,15.512 L104.972,20 L103.868,20 L103.868,13.676 L104.816,13.676 L104.912,14.612 C105.136001,14.2759983 105.413998,14.012001 105.746,13.82 C106.078002,13.627999 106.443998,13.532 106.844,13.532 Z M115.676,16.652 C115.676,16.8360009 115.668,17.023999 115.652,17.216 L111.62,17.216 C111.668,17.9120035 111.843998,18.4239984 112.148,18.752 C112.452002,19.0800016 112.843998,19.244 113.324,19.244 C113.628002,19.244 113.907999,19.2000004 114.164,19.112 C114.420001,19.0239996 114.687999,18.884001 114.968,18.692 L115.448,19.352 C114.775997,19.8800026 114.040004,20.144 113.24,20.144 C112.359996,20.144 111.674002,19.8560029 111.182,19.28 C110.689998,18.7039971 110.444,17.912005 110.444,16.904 C110.444,16.2479967 110.549999,15.6660025 110.762,15.158 C110.974001,14.6499975 111.277998,14.2520014 111.674,13.964 C112.070002,13.6759986 112.535997,13.532 113.072,13.532 C113.912004,13.532 114.555998,13.8079972 115.004,14.36 C115.452002,14.9120028 115.676,15.6759951 115.676,16.652 Z M114.584,16.328 C114.584,15.7039969 114.460001,15.2280016 114.212,14.9 C113.963999,14.5719984 113.592002,14.408 113.096,14.408 C112.191995,14.408 111.7,15.0719934 111.62,16.4 L114.584,16.4 L114.584,16.328 Z M122.912,11.732 C123.936005,11.732 124.727997,11.9459979 125.288,12.374 C125.848003,12.8020021 126.128,13.4399958 126.128,14.288 C126.128,15.1920045 125.836003,15.8639978 125.252,16.304 C124.667997,16.7440022 123.892005,16.964 122.924,16.964 L121.88,16.964 L121.88,20 L120.74,20 L120.74,11.732 L122.912,11.732 Z M122.876,16.064 C123.540003,16.064 124.045998,15.9360013 124.394,15.68 C124.742002,15.4239987 124.916,14.9640033 124.916,14.3 C124.916,13.707997 124.742002,13.2800013 124.394,13.016 C124.045998,12.7519987 123.548003,12.62 122.9,12.62 L121.88,12.62 L121.88,16.064 L122.876,16.064 Z M130.4,13.532 C130.624001,13.532 130.831999,13.5559998 131.024,13.604 L130.82,14.684 C130.627999,14.6359998 130.444001,14.612 130.268,14.612 C129.875998,14.612 129.560001,14.7559986 129.32,15.044 C129.079999,15.3320014 128.892001,15.779997 128.756,16.388 L128.756,20 L127.652,20 L127.652,13.676 L128.6,13.676 L128.708,14.96 C128.876001,14.4879976 129.103999,14.1320012 129.392,13.892 C129.680001,13.6519988 130.015998,13.532 130.4,13.532 Z M134.54,13.532 C135.428004,13.532 136.117998,13.827997 136.61,14.42 C137.102002,15.012003 137.348,15.8159949 137.348,16.832 C137.348,17.4880033 137.236001,18.0659975 137.012,18.566 C136.787999,19.0660025 136.464002,19.4539986 136.04,19.73 C135.615998,20.0060014 135.112003,20.144 134.528,20.144 C133.639996,20.144 132.948002,19.848003 132.452,19.256 C131.955998,18.663997 131.708,17.8600051 131.708,16.844 C131.708,16.1879967 131.819999,15.6100025 132.044,15.11 C132.268001,14.6099975 132.591998,14.2220014 133.016,13.946 C133.440002,13.6699986 133.947997,13.532 134.54,13.532 Z M134.54,14.42 C133.443995,14.42 132.896,15.2279919 132.896,16.844 C132.896,18.452008 133.439995,19.256 134.528,19.256 C135.616005,19.256 136.16,18.4480081 136.16,16.832 C136.16,15.223992 135.620005,14.42 134.54,14.42 Z M142.364,19.712 C141.947998,20.0000014 141.476003,20.144 140.948,20.144 C140.411997,20.144 139.994001,19.9900015 139.694,19.682 C139.393999,19.3739985 139.244,18.9280029 139.244,18.344 L139.244,14.528 L138.14,14.528 L138.14,13.676 L139.244,13.676 L139.244,12.248 L140.348,12.116 L140.348,13.676 L141.848,13.676 L141.728,14.528 L140.348,14.528 L140.348,18.296 C140.348,18.6240016 140.405999,18.8619993 140.522,19.01 C140.638001,19.1580007 140.831999,19.232 141.104,19.232 C141.368001,19.232 141.647999,19.1400009 141.944,18.956 L142.364,19.712 Z M148.16,16.652 C148.16,16.8360009 148.152,17.023999 148.136,17.216 L144.104,17.216 C144.152,17.9120035 144.327998,18.4239984 144.632,18.752 C144.936002,19.0800016 145.327998,19.244 145.808,19.244 C146.112002,19.244 146.391999,19.2000004 146.648,19.112 C146.904001,19.0239996 147.171999,18.884001 147.452,18.692 L147.932,19.352 C147.259997,19.8800026 146.524004,20.144 145.724,20.144 C144.843996,20.144 144.158002,19.8560029 143.666,19.28 C143.173998,18.7039971 142.928,17.912005 142.928,16.904 C142.928,16.2479967 143.033999,15.6660025 143.246,15.158 C143.458001,14.6499975 143.761998,14.2520014 144.158,13.964 C144.554002,13.6759986 145.019997,13.532 145.556,13.532 C146.396004,13.532 147.039998,13.8079972 147.488,14.36 C147.936002,14.9120028 148.16,15.6759951 148.16,16.652 Z M147.068,16.328 C147.068,15.7039969 146.944001,15.2280016 146.696,14.9 C146.447999,14.5719984 146.076002,14.408 145.58,14.408 C144.675995,14.408 144.184,15.0719934 144.104,16.4 L147.068,16.4 L147.068,16.328 Z M152.288,13.532 C152.664002,13.532 153.007998,13.5859995 153.32,13.694 C153.632002,13.8020005 153.931999,13.9759988 154.22,14.216 L153.68,14.936 C153.463999,14.7679992 153.252001,14.6440004 153.044,14.564 C152.835999,14.4839996 152.600001,14.444 152.336,14.444 C151.823997,14.444 151.426001,14.647998 151.142,15.056 C150.857999,15.464002 150.716,16.067996 150.716,16.868 C150.716,17.668004 150.855999,18.2579981 151.136,18.638 C151.416001,19.0180019 151.815997,19.208 152.336,19.208 C152.592001,19.208 152.821999,19.1680004 153.026,19.088 C153.230001,19.0079996 153.451999,18.8760009 153.692,18.692 L154.22,19.448 C153.643997,19.9120023 153.000004,20.144 152.288,20.144 C151.431996,20.144 150.758002,19.8560029 150.266,19.28 C149.773998,18.7039971 149.528,17.9080051 149.528,16.892 C149.528,16.2199966 149.639999,15.6320025 149.864,15.128 C150.088001,14.6239975 150.405998,14.2320014 150.818,13.952 C151.230002,13.6719986 151.719997,13.532 152.288,13.532 Z M158.912,19.712 C158.495998,20.0000014 158.024003,20.144 157.496,20.144 C156.959997,20.144 156.542001,19.9900015 156.242,19.682 C155.941998,19.3739985 155.792,18.9280029 155.792,18.344 L155.792,14.528 L154.688,14.528 L154.688,13.676 L155.792,13.676 L155.792,12.248 L156.896,12.116 L156.896,13.676 L158.396,13.676 L158.276,14.528 L156.896,14.528 L156.896,18.296 C156.896,18.6240016 156.953999,18.8619993 157.07,19.01 C157.186001,19.1580007 157.379999,19.232 157.652,19.232 C157.916001,19.232 158.195999,19.1400009 158.492,18.956 L158.912,19.712 Z M164.708,16.652 C164.708,16.8360009 164.7,17.023999 164.684,17.216 L160.652,17.216 C160.7,17.9120035 160.875998,18.4239984 161.18,18.752 C161.484002,19.0800016 161.875998,19.244 162.356,19.244 C162.660002,19.244 162.939999,19.2000004 163.196,19.112 C163.452001,19.0239996 163.719999,18.884001 164,18.692 L164.48,19.352 C163.807997,19.8800026 163.072004,20.144 162.272,20.144 C161.391996,20.144 160.706002,19.8560029 160.214,19.28 C159.721998,18.7039971 159.476,17.912005 159.476,16.904 C159.476,16.2479967 159.581999,15.6660025 159.794,15.158 C160.006001,14.6499975 160.309998,14.2520014 160.706,13.964 C161.102002,13.6759986 161.567997,13.532 162.104,13.532 C162.944004,13.532 163.587998,13.8079972 164.036,14.36 C164.484002,14.9120028 164.708,15.6759951 164.708,16.652 Z M163.616,16.328 C163.616,15.7039969 163.492001,15.2280016 163.244,14.9 C162.995999,14.5719984 162.624002,14.408 162.128,14.408 C161.223995,14.408 160.732,15.0719934 160.652,16.4 L163.616,16.4 L163.616,16.328 Z M171.428,20 L170.456,20 L170.348,19.124 C170.139999,19.4440016 169.880002,19.6939991 169.568,19.874 C169.255998,20.0540009 168.908002,20.144 168.524,20.144 C167.771996,20.144 167.186002,19.848003 166.766,19.256 C166.345998,18.663997 166.136,17.868005 166.136,16.868 C166.136,16.2199968 166.235999,15.6440025 166.436,15.14 C166.636001,14.6359975 166.923998,14.2420014 167.3,13.958 C167.676002,13.6739986 168.115997,13.532 168.62,13.532 C169.268003,13.532 169.835998,13.7919974 170.324,14.312 L170.324,11 L171.428,11.132 L171.428,20 Z M168.764,19.268 C169.100002,19.268 169.387999,19.1900008 169.628,19.034 C169.868001,18.8779992 170.099999,18.6440016 170.324,18.332 L170.324,15.236 C170.115999,14.9639986 169.894001,14.7580007 169.658,14.618 C169.421999,14.4779993 169.156001,14.408 168.86,14.408 C168.371998,14.408 167.994001,14.611998 167.726,15.02 C167.457999,15.428002 167.324,16.035996 167.324,16.844 C167.324,17.6600041 167.447999,18.267998 167.696,18.668 C167.944001,19.068002 168.299998,19.268 168.764,19.268 Z M177.596,17.924 L176.972,20 L175.82,20 L178.472,11.732 L179.912,11.732 L182.552,20 L181.352,20 L180.728,17.924 L177.596,17.924 Z M179.168,12.68 L177.872,17 L180.452,17 L179.168,12.68 Z M186.512,13.532 C186.736001,13.532 186.943999,13.5559998 187.136,13.604 L186.932,14.684 C186.739999,14.6359998 186.556001,14.612 186.38,14.612 C185.987998,14.612 185.672001,14.7559986 185.432,15.044 C185.191999,15.3320014 185.004001,15.779997 184.868,16.388 L184.868,20 L183.764,20 L183.764,13.676 L184.712,13.676 L184.82,14.96 C184.988001,14.4879976 185.215999,14.1320012 185.504,13.892 C185.792001,13.6519988 186.127998,13.532 186.512,13.532 Z M193.052,16.652 C193.052,16.8360009 193.044,17.023999 193.028,17.216 L188.996,17.216 C189.044,17.9120035 189.219998,18.4239984 189.524,18.752 C189.828002,19.0800016 190.219998,19.244 190.7,19.244 C191.004002,19.244 191.283999,19.2000004 191.54,19.112 C191.796001,19.0239996 192.063999,18.884001 192.344,18.692 L192.824,19.352 C192.151997,19.8800026 191.416004,20.144 190.616,20.144 C189.735996,20.144 189.050002,19.8560029 188.558,19.28 C188.065998,18.7039971 187.82,17.912005 187.82,16.904 C187.82,16.2479967 187.925999,15.6660025 188.138,15.158 C188.350001,14.6499975 188.653998,14.2520014 189.05,13.964 C189.446002,13.6759986 189.911997,13.532 190.448,13.532 C191.288004,13.532 191.931998,13.8079972 192.38,14.36 C192.828002,14.9120028 193.052,15.6759951 193.052,16.652 Z M191.96,16.328 C191.96,15.7039969 191.836001,15.2280016 191.588,14.9 C191.339999,14.5719984 190.968002,14.408 190.472,14.408 C189.567995,14.408 189.076,15.0719934 188.996,16.4 L191.96,16.4 L191.96,16.328 Z M199.136,18.524 C199.136,18.7800013 199.18,18.9699994 199.268,19.094 C199.356,19.2180006 199.487999,19.3119997 199.664,19.376 L199.412,20.144 C199.083998,20.1039998 198.820001,20.0120007 198.62,19.868 C198.419999,19.7239993 198.272,19.5000015 198.176,19.196 C197.751998,19.8280032 197.124004,20.144 196.292,20.144 C195.667997,20.144 195.176002,19.9680018 194.816,19.616 C194.455998,19.2639982 194.276,18.8040028 194.276,18.236 C194.276,17.5639966 194.517998,17.0480018 195.002,16.688 C195.486002,16.3279982 196.171996,16.148 197.06,16.148 L198.032,16.148 L198.032,15.68 C198.032,15.2319978 197.924001,14.912001 197.708,14.72 C197.491999,14.527999 197.160002,14.432 196.712,14.432 C196.247998,14.432 195.680003,14.5439989 195.008,14.768 L194.732,13.964 C195.516004,13.6759986 196.243997,13.532 196.916,13.532 C197.660004,13.532 198.215998,13.7139982 198.584,14.078 C198.952002,14.4420018 199.136,14.9599966 199.136,15.632 L199.136,18.524 Z M196.544,19.316 C197.176003,19.316 197.671998,18.9880033 198.032,18.332 L198.032,16.88 L197.204,16.88 C196.035994,16.88 195.452,17.3119957 195.452,18.176 C195.452,18.5520019 195.543999,18.835999 195.728,19.028 C195.912001,19.220001 196.183998,19.316 196.544,19.316 Z M203.12,13.532 C203.552002,13.532 203.939998,13.5919994 204.284,13.712 C204.628002,13.8320006 204.955998,14.0119988 205.268,14.252 L204.788,14.984 C204.507999,14.783999 204.238001,14.6380005 203.978,14.546 C203.717999,14.4539995 203.444001,14.408 203.156,14.408 C202.795998,14.408 202.512001,14.4819993 202.304,14.63 C202.095999,14.7780007 201.992,14.9799987 201.992,15.236 C201.992,15.4920013 202.089999,15.6919993 202.286,15.836 C202.482001,15.9800007 202.835997,16.1199993 203.348,16.256 C204.052004,16.4320009 204.577998,16.6719985 204.926,16.976 C205.274002,17.2800015 205.448,17.6959974 205.448,18.224 C205.448,18.8480031 205.206002,19.3239984 204.722,19.652 C204.237998,19.9800016 203.648003,20.144 202.952,20.144 C201.991995,20.144 201.196003,19.8680028 200.564,19.316 L201.176,18.62 C201.672002,19.0440021 202.255997,19.256 202.928,19.256 C203.336002,19.256 203.663999,19.1720008 203.912,19.004 C204.160001,18.8359992 204.284,18.6120014 204.284,18.332 C204.284,18.1079989 204.24,17.9260007 204.152,17.786 C204.064,17.6459993 203.914001,17.5260005 203.702,17.426 C203.489999,17.3259995 203.172002,17.2200006 202.748,17.108 C202.075997,16.9319991 201.590001,16.6940015 201.29,16.394 C200.989998,16.0939985 200.84,15.7160023 200.84,15.26 C200.84,14.9319984 200.937999,14.6360013 201.134,14.372 C201.330001,14.1079987 201.601998,13.9020007 201.95,13.754 C202.298002,13.6059993 202.687998,13.532 203.12,13.532 Z M207.044,9.86 C207.572003,10.6120038 207.977999,11.2299976 208.262,11.714 C208.546001,12.1980024 208.785999,12.7779966 208.982,13.454 C209.178001,14.1300034 209.276,14.9119956 209.276,15.8 C209.276,16.6880044 209.178001,17.4699966 208.982,18.146 C208.785999,18.8220034 208.546001,19.4019976 208.262,19.886 C207.977999,20.3700024 207.572003,20.9879962 207.044,21.74 L206.348,21.26 C206.764002,20.651997 207.093999,20.1020025 207.338,19.61 C207.582001,19.1179975 207.773999,18.5640031 207.914,17.948 C208.054001,17.3319969 208.124,16.6160041 208.124,15.8 C208.124,14.9759959 208.054001,14.2560031 207.914,13.64 C207.773999,13.0239969 207.582001,12.4740024 207.338,11.99 C207.093999,11.5059976 206.764002,10.9560031 206.348,10.34 L207.044,9.86 Z" id="All-MPAs-(Marine-Pro" fill="#212121"></path>
        <path d="M11,12 L11,20 L19,20 L19,12 L11,12 Z M10,11 L20,11 L20,21 L10,21 L10,11 Z" id="Rectangle-6" fill="#494D96" fill-rule="nonzero"></path>
        <g id="Group" transform="translate(10.000000, 41.000000)">
            <rect id="Rectangle-6" fill="#FFFFFF" x="0" y="17" width="300" height="10"></rect>
            <text id="&lt;-3" font-family="FiraSans-Medium, Fira Sans" font-size="12" font-weight="400" line-spacing="16" fill="#212121">
                <tspan x="20.208" y="11.3999634">&lt; 3</tspan>
            </text>
            <text id="7-–-9" font-family="FiraSans-Medium, Fira Sans" font-size="12" font-weight="400" line-spacing="16" fill="#212121">
                <tspan x="195.702" y="11.3999634">7 – 9</tspan>
            </text>
            <text id="5-–-7" font-family="FiraSans-Medium, Fira Sans" font-size="12" font-weight="400" line-spacing="16" fill="#212121">
                <tspan x="135.846" y="11.3999634">5 – 7</tspan>
            </text>
            <text id="3-–-5" font-family="FiraSans-Medium, Fira Sans" font-size="12" font-weight="400" line-spacing="16" fill="#212121">
                <tspan x="75.528" y="11.3999634">3 – 5</tspan>
            </text>
            <text id="Data-Deficient-Chond" font-family="FiraSans-Regular, Fira Sans" font-size="12" font-weight="normal" line-spacing="16" fill="#212121">
                <tspan x="0" y="45">Data Deficient Chondrichthyans</tspan>
            </text>
            <rect id="Rectangle-6" fill-opacity="0.6" fill="#E7E6FA" x="0" y="17" width="60" height="10"></rect>
            <polygon id="Rectangle-6" fill-opacity="0.6" fill="#6052FA" points="180 17 222.628906 17 240 17 240 27 180 27"></polygon>
            <text id="&gt;-9" font-family="FiraSans-Medium, Fira Sans" font-size="12" font-weight="400" line-spacing="16" fill="#212121">
                <tspan x="258.004" y="11.3999634">&gt; 9</tspan>
            </text>
            <polygon id="Rectangle-6" fill-opacity="0.6" fill="#1905F5" points="240 17 282.628906 17 300 17 300 27 240 27"></polygon>
            <rect id="Rectangle-6" fill-opacity="0.6" fill="#8A80FA" x="120" y="17" width="60" height="10"></rect>
            <rect id="Rectangle-6" fill-opacity="0.6" fill="#BDB8FA" x="60" y="17" width="60" height="10"></rect>
        </g>
    </g>
</svg>