<?xml version="1.0" encoding="UTF-8" standalone="no"?>
<svg width="75px" height="48px" viewBox="0 0 75 48" version="1.1" xmlns="http://www.w3.org/2000/svg" xmlns:xlink="http://www.w3.org/1999/xlink">
    <!-- Generator: Sketch 47.1 (45422) - http://www.bohemiancoding.com/sketch -->
    <title>Page 1</title>
    <desc>Created with Sketch.</desc>
    <defs>
        <polygon id="path-1" points="0 47.911495 0 0 74.1958757 0 74.1958757 47.911495"></polygon>
    </defs>
    <g id="Welcome" stroke="none" stroke-width="1" fill="none" fill-rule="evenodd">
        <g id="Story_intro" transform="translate(-795.000000, -4831.000000)">
            <g id="Page-1" transform="translate(795.000000, 4831.000000)">
                <mask id="mask-2" fill="white">
                    <use xlink:href="#path-1"></use>
                </mask>
                <g id="Clip-2"></g>
                <path d="M74.1774888,9.27054018 C74.0324737,8.40044955 73.7424435,8.69047976 72.7273378,9.56057039 C71.712232,10.430661 66.7817184,18.2614767 65.0415372,19.8566429 C63.3013559,21.4518091 58.5158574,27.5424435 55.9055855,26.817368 C55.2704193,26.6408846 54.5749269,26.3523045 53.8446308,26.0007879 C53.8591323,25.3859239 53.9055372,24.7548181 54.0205341,24.3521112 C54.3105644,23.3370054 54.7456097,22.9019601 53.5854888,23.1919903 C52.425368,23.4820205 51.8453076,23.1919903 51.2652471,23.1919903 C50.8181656,23.1919903 49.8542502,23.1073015 48.9046912,23.3333801 C48.1681595,22.9453196 47.4490296,22.593658 46.7696338,22.3218997 C43.8693317,21.1617789 42.4191807,21.306794 42.4191807,21.306794 C42.4191807,21.306794 43.1442562,19.7116278 42.9992411,17.8264314 C42.854226,15.941235 43.1442562,16.0862502 43.2892713,15.2161595 C43.4342864,14.3460689 43.7243166,12.0258272 43.7243166,11.3007517 C43.7243166,10.5756761 43.5793015,9.41555529 44.304377,6.51525317 C45.0294526,3.61495106 45.1744677,-2.18565317 43.7243166,0.859664048 C43.7243166,0.859664048 41.8391202,5.79017764 40.2439541,10.7206912 C38.6487879,15.6512048 37.343652,20.7267335 33.4282441,22.4669148 C29.5128363,24.2070961 25.1623831,27.2524133 22.5521112,29.572655 C19.9418393,31.8928967 16.0264314,36.5333801 15.446371,37.2584556 C14.8663106,37.9835311 14.2862502,39.2886671 15.3013559,40.3037728 C15.3977909,40.4003529 15.5049571,40.5101293 15.6200991,40.6303468 C14.7178151,41.0185523 13.3623589,41.5584435 12.2560387,41.898939 C10.3708423,42.4789994 8.34063082,42.6240145 6.16540423,42.7690296 C3.99017764,42.9140447 1.37990574,43.2040749 0.3648,44.2191807 C-0.65030574,45.2342864 0.654830211,44.9442562 1.81495106,44.7992411 C2.9750719,44.654226 5.2953136,44.2191807 7.03549486,44.3641958 C8.77567613,44.5092109 12.691084,44.5092109 14.2862502,43.9291505 C15.2695976,43.5715432 16.6382502,43.1589752 17.6117366,42.8611142 C18.2508181,43.6233136 18.816087,44.3520145 19.0717486,44.7992411 C19.6518091,45.8143468 22.262081,47.409513 24.7273378,47.409513 C27.1925946,47.409513 33.4282441,48.2796036 37.0536218,43.4941051 C37.4772109,42.9350719 37.8926792,42.3030961 38.3117728,41.6270356 C38.7344918,41.639797 39.2581414,41.7381172 39.8089088,42.0439541 C41.1140447,42.7690296 43.8693317,44.3641958 45.3194828,44.7992411 C46.7696338,45.2342864 52.7152532,47.409513 54.0203891,47.5545281 C55.3255251,47.6995432 58.0808121,48.2796036 57.2107215,47.5545281 C56.3406308,46.8294526 56.1956157,46.3944073 54.8904798,46.3944073 C53.5853438,46.3944073 51.5551323,45.0892713 50.2499964,44.5092109 C48.9448604,43.9291505 43.8693317,41.1738634 42.7092109,40.593803 C41.5796882,40.0289692 40.7262743,39.1891867 40.2804979,38.3424435 C41.3824677,36.5342502 42.6077003,34.7070598 44.1199178,33.2455976 C44.3662985,33.2508181 44.6251505,33.278226 44.8845825,33.3430477 C46.0447033,33.6330779 46.4797486,34.2131384 46.914794,33.9231082 C47.3498393,33.6330779 47.0598091,33.4880628 47.7848846,33.0530175 C48.5099601,32.6179722 49.3800508,32.327942 49.3800508,32.0379118 C49.3800508,31.8533076 48.3224556,31.3166066 47.2544193,31.0626852 C47.8118574,30.810794 48.4017789,30.609658 49.0280991,30.4681233 C49.3836761,30.6083529 49.7547698,30.7893317 50.1051263,31.022806 C51.4102622,31.8928967 52.1353378,32.6179722 52.5703831,32.1829269 C53.0054284,31.7478816 52.5703831,31.7478816 53.0054284,30.8777909 C53.0715553,30.7455372 53.1376822,30.5829752 53.2022139,30.4027215 C53.2815372,30.4159178 53.3599903,30.4278091 53.4403287,30.4427456 C57.3557366,31.1678211 58.3708423,34.9382139 60.1110236,37.2584556 C61.8512048,39.5786973 65.7666127,42.7690296 66.3466731,42.6240145 C66.9267335,42.4789994 67.0717486,42.3339843 66.7817184,41.4638937 C66.4916882,40.593803 66.3466731,39.2886671 66.6367033,37.6935009 C66.9267335,36.0983347 66.3466731,35.6632894 66.3466731,34.2131384 C66.3466731,32.7629873 66.201658,29.8626852 65.4765825,29.2826248 C65.4765825,29.2826248 66.3466731,28.8475795 67.6518091,26.0922924 C68.956945,23.3370054 70.1170659,21.0167637 70.5521112,19.1315674 C70.9871565,17.246371 71.2771867,15.2161595 72.4373076,13.7660085 C73.5974284,12.3158574 74.3225039,10.1406308 74.1774888,9.27054018" id="Fill-1" fill="#66B7EA" mask="url(#mask-2)"></path>
            </g>
        </g>
    </g>
</svg>